<?xml version="1.0" encoding="utf-8" standalone="no"?>
<!DOCTYPE svg PUBLIC "-//W3C//DTD SVG 1.1//EN"
  "http://www.w3.org/Graphics/SVG/1.1/DTD/svg11.dtd">
<!-- Created with matplotlib (http://matplotlib.org/) -->
<svg height="158pt" version="1.1" viewBox="0 0 288 158" width="288pt" xmlns="http://www.w3.org/2000/svg" xmlns:xlink="http://www.w3.org/1999/xlink">
 <defs>
  <style type="text/css">
*{stroke-linecap:butt;stroke-linejoin:round;stroke-miterlimit:100000;}
  </style>
 </defs>
 <g id="figure_1">
  <g id="patch_1">
   <path d="M 0 158.4 
L 288 158.4 
L 288 0 
L 0 0 
z
" style="fill:#ffffff;"/>
  </g>
  <g id="axes_1">
   <g id="patch_2">
    <path d="M 36 138.6 
L 259.2 138.6 
L 259.2 15.84 
L 36 15.84 
z
" style="fill:#ffffff;"/>
   </g>
   <g id="line2d_1">
    <path clip-path="url(#pa4568077cc)" d="M 36.21245 -1 
L 36.490919 6.454511 
L 36.892559 11.766008 
L 37.428078 15.941164 
L 38.075164 19.259935 
L 38.833816 22.025451 
L 39.726348 24.453485 
L 40.75276 26.608049 
L 41.935365 28.57187 
L 43.274164 30.364363 
L 44.813782 32.04945 
L 46.554219 33.622263 
L 48.540103 35.115315 
L 50.81606 36.544163 
L 53.404403 37.903168 
L 56.349759 39.195801 
L 59.696755 40.4189 
L 63.490016 41.563863 
L 67.729544 42.60688 
L 72.393025 43.522397 
L 77.435831 44.284144 
L 82.746397 44.86116 
L 88.16853 45.227408 
L 93.501409 45.366413 
L 98.521903 45.278566 
L 103.09613 44.980478 
L 107.112525 44.501371 
L 110.548773 43.87422 
L 113.449503 43.124362 
L 115.837026 42.284813 
L 117.800597 41.366415 
L 119.407155 40.377087 
L 120.72364 39.311508 
L 121.794678 38.166313 
L 122.68721 36.886133 
L 123.401236 35.479866 
L 123.981382 33.857637 
L 124.449961 31.883012 
L 124.806974 29.39465 
L 125.05242 26.150552 
L 125.208614 21.003563 
L 125.275553 8.672064 
L 125.32018 18.452878 
L 125.521 26.416751 
L 125.833386 30.117097 
L 126.257339 32.653118 
L 126.815171 34.669929 
L 127.506884 36.333522 
L 128.332476 37.744617 
L 129.336575 39.015593 
L 130.541493 40.172928 
L 131.969544 41.231363 
L 133.687669 42.220466 
L 135.718179 43.124957 
L 138.061076 43.920966 
L 140.694046 44.579396 
L 143.527836 45.059284 
L 146.406252 45.322451 
L 149.128475 45.351411 
L 151.560625 45.159896 
L 153.635762 44.780619 
L 155.3762 44.243268 
L 156.804251 43.578156 
L 157.986856 42.789241 
L 158.968641 41.870513 
L 159.77192 40.821513 
L 160.441319 39.588919 
L 160.999152 38.093587 
L 161.445418 36.258531 
L 161.802431 33.782905 
L 162.047877 30.434939 
L 162.181757 26.069656 
L 162.27101 16.904878 
L 162.315637 24.450212 
L 162.516457 31.34755 
L 162.851156 35.143553 
L 163.297422 37.746115 
L 163.877568 39.850799 
L 164.613907 41.681259 
L 165.506439 43.304891 
L 166.599791 44.829786 
L 167.938589 46.306957 
L 169.567461 47.763628 
L 171.531031 49.215985 
L 173.918555 50.700195 
L 176.819284 52.234608 
L 180.322473 53.828112 
L 184.517374 55.484314 
L 189.49324 57.203665 
L 195.383952 58.997354 
L 202.278763 60.858044 
L 210.289239 62.783636 
L 219.526947 64.769971 
L 230.103452 66.81149 
L 242.130323 68.901721 
L 255.741438 71.036983 
L 259.2 71.547038 
L 259.2 71.547038 
" style="fill:none;stroke:#0000ff;stroke-linecap:square;"/>
   </g>
   <g id="line2d_2">
    <path clip-path="url(#pa4568077cc)" d="M 36.106525 -1 
L 36.312413 8.596345 
L 36.669426 15.362563 
L 37.138005 20.064107 
L 37.718151 23.698694 
L 38.409864 26.659849 
L 39.213142 29.144405 
L 40.127988 31.263152 
L 41.1544 33.08191 
L 42.270065 34.612683 
L 43.474983 35.894672 
L 44.746842 36.930767 
L 46.08564 37.737108 
L 47.446751 38.29817 
L 48.78555 38.612455 
L 50.079721 38.689225 
L 51.28464 38.539128 
L 52.377991 38.180629 
L 53.359777 37.623641 
L 54.207682 36.890921 
L 54.966335 35.93474 
L 55.61342 34.748741 
L 56.14894 33.297988 
L 56.595206 31.420281 
L 56.929905 29.045255 
L 57.175352 25.638642 
L 57.309231 21.081679 
L 57.376171 10.689921 
L 57.420798 18.083669 
L 57.599304 25.899765 
L 57.911691 29.936751 
L 58.335643 32.63276 
L 58.893476 34.773566 
L 59.585188 36.545771 
L 60.410781 38.050339 
L 61.370253 39.342544 
L 62.485918 40.470452 
L 63.735463 41.415086 
L 65.096574 42.165269 
L 66.546939 42.709681 
L 68.019617 43.026859 
L 69.469982 43.115732 
L 70.853407 42.981632 
L 72.125265 42.639785 
L 73.263243 42.11033 
L 74.267342 41.404898 
L 75.159874 40.503496 
L 75.918526 39.417296 
L 76.565612 38.092309 
L 77.101132 36.470711 
L 77.525084 34.461344 
L 77.837471 31.93714 
L 78.060604 28.325152 
L 78.194483 21.962716 
L 78.23911 10.021179 
L 78.261423 19.715826 
L 78.261423 19.715826 
L 78.43993 29.02977 
L 78.730003 32.997013 
L 79.153955 35.793448 
L 79.689475 37.879815 
L 80.358874 39.603101 
L 81.162153 41.054539 
L 82.099311 42.286963 
L 83.17035 43.328324 
L 84.375268 44.188919 
L 85.691753 44.855131 
L 87.075178 45.308285 
L 88.480916 45.539501 
L 89.864341 45.546279 
L 91.180826 45.332957 
L 92.385744 44.914757 
L 93.456783 44.311859 
L 94.393942 43.535489 
L 95.219534 42.562653 
L 95.93356 41.366285 
L 96.536019 39.898545 
L 97.026911 38.078301 
L 97.406238 35.769083 
L 97.673997 32.758454 
L 97.852504 28.027872 
L 97.919444 22.410075 
L 97.941757 14.006674 
L 97.96407 20.821104 
L 97.96407 20.821104 
L 98.120263 30.846422 
L 98.410336 35.227135 
L 98.811976 38.032255 
L 99.347495 40.210305 
L 99.994581 41.92871 
L 100.775546 43.378745 
L 101.690392 44.60735 
L 102.739117 45.638763 
L 103.899409 46.465892 
L 105.148954 47.083212 
L 106.443125 47.475853 
L 107.737297 47.636719 
L 108.964529 47.567977 
L 110.102507 47.282789 
L 111.106606 46.807367 
L 111.999138 46.142597 
L 112.780104 45.283431 
L 113.449503 44.216161 
L 114.029649 42.856508 
L 114.498228 41.179954 
L 114.877554 38.952993 
L 115.145314 36.054503 
L 115.32382 31.632319 
L 115.413073 22.691701 
L 115.435387 20.64345 
L 115.435387 20.64345 
L 115.435387 20.64345 
L 115.59158 33.790577 
L 115.881653 38.370954 
L 116.283292 41.274309 
L 116.818811 43.545339 
L 117.488211 45.417216 
L 118.291489 47.011451 
L 119.250962 48.423448 
L 120.366627 49.670084 
L 121.638485 50.759503 
L 123.066536 51.69053 
L 124.628468 52.443533 
L 126.301965 53.001422 
L 128.02009 53.340247 
L 129.760527 53.45641 
L 131.456338 53.348482 
L 133.08521 53.025072 
L 134.624828 52.495961 
L 136.075192 51.762142 
L 137.41399 50.833519 
L 138.641222 49.707937 
L 139.756887 48.376665 
L 140.760986 46.822721 
L 141.653518 45.017154 
L 142.41217 42.980626 
L 143.059256 40.610051 
L 143.594775 37.780967 
L 143.996415 34.435849 
L 144.264175 30.369313 
L 144.420368 24.541925 
L 144.487308 10.263158 
L 144.531934 22.909387 
L 144.732754 29.73077 
L 145.000514 32.123098 
L 145.268273 32.891473 
L 145.424466 32.901922 
L 145.580659 32.602842 
L 145.781479 31.628504 
L 145.982299 29.376839 
L 146.116179 25.500749 
L 146.205432 14.322092 
L 146.250059 23.701914 
L 146.450878 31.296506 
L 146.785578 35.780274 
L 147.27647 39.377357 
L 147.901243 42.342076 
L 148.659895 44.897677 
L 149.552427 47.141879 
L 150.578839 49.125075 
L 151.716818 50.843885 
L 152.966363 52.328404 
L 154.282848 53.552738 
L 155.666273 54.539466 
L 157.072011 55.272374 
L 158.455435 55.749393 
L 159.794234 55.983184 
L 161.066092 55.985857 
L 162.248697 55.772057 
L 163.342049 55.351933 
L 164.346148 54.725669 
L 165.23868 53.905705 
L 166.041959 52.857228 
L 166.733671 51.579296 
L 167.313817 50.037505 
L 167.782396 48.174887 
L 168.161722 45.724151 
L 168.429482 42.482419 
L 168.585675 38.147072 
L 168.652615 32.715132 
L 168.674928 25.627745 
L 168.697242 30.396884 
L 168.697242 30.396884 
L 168.853435 40.779708 
L 169.143508 45.11692 
L 169.545147 47.821462 
L 170.058353 49.773514 
L 170.660812 51.202811 
L 171.330211 52.232332 
L 172.021924 52.911067 
L 172.73595 53.308286 
L 173.427662 53.43966 
L 174.074748 53.339636 
L 174.69952 53.015824 
L 175.301979 52.441491 
L 175.859812 51.591559 
L 176.373018 50.384269 
L 176.819284 48.727248 
L 177.176297 46.497805 
L 177.444057 43.282632 
L 177.60025 38.777777 
L 177.66719 32.395871 
L 177.689503 20.792839 
L 177.689503 20.792839 
L 177.689503 20.792839 
L 177.823383 40.752883 
L 178.091142 45.643892 
L 178.470469 48.627261 
L 178.961361 50.793671 
L 179.541507 52.393381 
L 180.188593 53.543195 
L 180.835679 54.253158 
L 181.415825 54.584246 
L 181.929031 54.642322 
L 182.39761 54.481689 
L 182.843876 54.095845 
L 183.290142 53.39954 
L 183.714095 52.288267 
L 184.093421 50.596144 
L 184.383494 48.257132 
L 184.584314 44.969378 
L 184.718193 38.477262 
L 184.76282 29.42658 
L 184.785133 36.894924 
L 184.785133 36.894924 
L 184.96364 45.942491 
L 185.276026 50.17595 
L 185.699979 52.94833 
L 186.213185 54.907137 
L 186.748704 56.156135 
L 187.239597 56.789121 
L 187.59661 56.944014 
L 187.886683 56.83962 
L 188.154442 56.494451 
L 188.444515 55.70232 
L 188.712275 54.238295 
L 188.935408 51.61353 
L 189.069288 47.639798 
L 189.158541 36.627324 
L 189.203167 45.818125 
L 189.403987 53.337302 
L 189.738687 57.804751 
L 190.251893 61.642231 
L 190.943605 65.139898 
L 191.858451 68.617526 
L 193.018742 72.13923 
L 194.42448 75.687119 
L 196.097978 79.299069 
L 198.039236 82.954192 
L 200.270566 86.674189 
L 202.791969 90.43902 
L 205.603445 94.234578 
L 208.727308 98.076716 
L 212.18587 101.975234 
L 215.979131 105.913613 
L 220.129406 109.899695 
L 224.659006 113.938202 
L 229.567933 118.013679 
L 234.878499 122.130369 
L 240.590705 126.274888 
L 246.749177 130.465638 
L 253.353915 134.688183 
L 259.2 138.223227 
L 259.2 138.223227 
" style="fill:none;stroke:#008000;stroke-linecap:square;"/>
   </g>
   <g id="line2d_3">
    <path clip-path="url(#pa4568077cc)" d="M 36.08928 0.406157 
L 36.312413 11.530565 
L 36.669426 18.281451 
L 37.138005 22.945799 
L 37.718151 26.506978 
L 38.38755 29.263505 
L 39.123889 31.400548 
L 39.927168 33.072463 
L 40.75276 34.291333 
L 41.556039 35.097698 
L 42.314692 35.559131 
L 43.006404 35.733741 
L 43.65349 35.670998 
L 44.255949 35.384368 
L 44.813782 34.869856 
L 45.349301 34.059189 
L 45.840194 32.882083 
L 46.264146 31.24171 
L 46.598846 29.019732 
L 46.844292 25.844593 
L 47.000485 20.598683 
L 47.045112 15.837917 
L 47.067425 0.81926 
L 47.089739 15.543513 
L 47.089739 15.543513 
L 47.268245 25.51643 
L 47.558318 29.600067 
L 47.982271 32.495434 
L 48.51779 34.664532 
L 49.164876 36.3913 
L 49.901215 37.748543 
L 50.704494 38.779624 
L 51.530086 39.492298 
L 52.355678 39.919247 
L 53.136644 40.082276 
L 53.872983 40.017888 
L 54.587008 39.729405 
L 55.256408 39.21094 
L 55.88118 38.433451 
L 56.439013 37.377641 
L 56.929905 35.965436 
L 57.331545 34.143582 
L 57.643931 31.73457 
L 57.867064 28.349116 
L 58.000944 23.003422 
L 58.067884 15.320687 
L 58.11251 22.852137 
L 58.31333 29.739653 
L 58.64803 33.511324 
L 59.094296 36.05949 
L 59.652128 37.993257 
L 60.321527 39.519386 
L 61.057866 40.662336 
L 61.838832 41.485176 
L 62.642111 42.023384 
L 63.44539 42.299551 
L 64.204042 42.333804 
L 64.940381 42.147124 
L 65.632094 41.744856 
L 66.301493 41.090089 
L 66.903952 40.187083 
L 67.461784 38.930046 
L 67.930364 37.303809 
L 68.30969 35.15723 
L 68.599763 32.121097 
L 68.778269 27.853709 
L 68.867523 20.351635 
L 68.889836 10.43689 
L 68.889836 10.43689 
L 68.889836 10.43689 
L 69.023716 28.858318 
L 69.291475 33.722771 
L 69.670802 36.693112 
L 70.161694 38.862431 
L 70.764153 40.54708 
L 71.455866 41.83735 
L 72.214518 42.791229 
L 72.995484 43.428439 
L 73.776449 43.790199 
L 74.535102 43.906203 
L 75.271441 43.797819 
L 75.985466 43.463689 
L 76.654865 42.901442 
L 77.279638 42.083817 
L 77.859784 40.941725 
L 78.350677 39.479511 
L 78.774629 37.470583 
L 79.087016 34.883831 
L 79.310149 31.041701 
L 79.421715 25.752965 
L 79.466342 14.539193 
L 79.510968 24.989205 
L 79.711788 32.917924 
L 80.024174 36.627367 
L 80.448127 39.160975 
L 80.983646 41.076149 
L 81.608419 42.530012 
L 82.322445 43.644529 
L 83.081097 44.425027 
L 83.839749 44.900134 
L 84.598401 45.118411 
L 85.33474 45.097489 
L 86.026453 44.857664 
L 86.695852 44.38907 
L 87.320624 43.681895 
L 87.90077 42.690859 
L 88.413976 41.379904 
L 88.860242 39.616296 
L 89.217255 37.250361 
L 89.462702 34.178804 
L 89.618895 29.586117 
L 89.685835 22.819591 
L 89.708148 15.632219 
L 89.708148 15.632219 
L 89.708148 15.632219 
L 89.842028 31.721315 
L 90.109787 36.542809 
L 90.489114 39.488794 
L 90.980006 41.630198 
L 91.582465 43.276949 
L 92.251864 44.48287 
L 92.96589 45.336522 
L 93.702229 45.886509 
L 94.438568 46.163474 
L 95.130281 46.194139 
L 95.79968 46.00576 
L 96.446766 45.591549 
L 97.071538 44.918518 
L 97.651684 43.954326 
L 98.16489 42.664866 
L 98.611156 40.92149 
L 98.968169 38.581535 
L 99.213615 35.559421 
L 99.369808 31.131201 
L 99.436748 25.175817 
L 99.459061 12.465017 
L 99.481375 24.641863 
L 99.481375 24.641863 
L 99.659881 34.670743 
L 99.949954 38.679527 
L 100.351594 41.345862 
L 100.8648 43.33302 
L 101.467259 44.8208 
L 102.136658 45.911229 
L 102.850684 46.659791 
L 103.542396 47.0789 
L 104.211795 47.236006 
L 104.858881 47.16014 
L 105.483653 46.854997 
L 106.086113 46.299232 
L 106.643945 45.475215 
L 107.157151 44.315547 
L 107.603417 42.755714 
L 107.982743 40.568094 
L 108.250503 37.733986 
L 108.429009 33.546383 
L 108.518263 26.551842 
L 108.540576 12.128247 
L 108.562889 26.199416 
L 108.562889 26.199416 
L 108.741396 36.149817 
L 109.031469 40.160484 
L 109.433108 42.83169 
L 109.946314 44.819007 
L 110.548773 46.295043 
L 111.195859 47.325373 
L 111.865258 47.990781 
L 112.490031 48.320119 
L 113.09249 48.39146 
L 113.650322 48.232095 
L 114.185842 47.841604 
L 114.699048 47.184856 
L 115.18994 46.178226 
L 115.636206 44.715899 
L 115.993219 42.779554 
L 116.283292 39.877291 
L 116.461799 35.881374 
L 116.551052 29.813829 
L 116.573365 23.905887 
L 116.595678 26.489129 
L 116.595678 26.489129 
L 116.751872 37.542442 
L 117.041944 42.021804 
L 117.443584 44.861382 
L 117.95679 46.941494 
L 118.536936 48.415832 
L 119.139395 49.391268 
L 119.719541 49.940122 
L 120.232747 50.134657 
L 120.6567 50.072362 
L 121.058339 49.784942 
L 121.437665 49.234754 
L 121.816991 48.259424 
L 122.151691 46.735924 
L 122.419451 44.449163 
L 122.62027 40.574793 
L 122.709524 35.637024 
L 122.75415 22.882035 
L 122.776463 33.3257 
L 122.776463 33.3257 
L 122.95497 42.896991 
L 123.267356 47.378847 
L 123.713622 50.612726 
L 124.316081 53.348603 
L 125.074734 55.753813 
L 125.989579 57.908615 
L 127.038304 59.807612 
L 128.176283 61.419078 
L 129.403515 62.776571 
L 130.65306 63.835782 
L 131.924918 64.626161 
L 133.174463 65.142824 
L 134.379381 65.403632 
L 135.539673 65.429357 
L 136.655338 65.230906 
L 137.726377 64.810631 
L 138.730475 64.178996 
L 139.689947 63.314986 
L 140.604793 62.190485 
L 141.475012 60.756118 
L 142.278291 58.982059 
L 142.992316 56.850059 
L 143.617089 54.273654 
L 144.152608 51.097688 
L 144.598874 47.0147 
L 144.933574 41.769162 
L 145.156707 34.790204 
L 145.290586 22.680371 
L 145.3129 14.13636 
L 145.37984 15.838922 
L 145.536033 34.946425 
L 145.826106 43.262132 
L 146.227745 48.695735 
L 146.740951 52.790803 
L 147.365724 56.075601 
L 148.102063 58.79448 
L 148.927655 61.022711 
L 149.8425 62.86643 
L 150.801972 64.319115 
L 151.806071 65.44838 
L 152.81017 66.256746 
L 153.814268 66.789154 
L 154.796054 67.065679 
L 155.755526 67.110983 
L 156.714998 66.931269 
L 157.652157 66.525765 
L 158.567002 65.887035 
L 159.481847 64.968719 
L 160.352066 63.774693 
L 161.177658 62.257905 
L 161.936311 60.382941 
L 162.583397 58.183685 
L 163.118916 55.553872 
L 163.520555 52.42661 
L 163.788315 48.573714 
L 163.944508 42.999278 
L 163.989135 38.029581 
L 164.011448 16.772289 
L 164.011448 16.772289 
L 164.011448 16.772289 
L 164.145328 45.802732 
L 164.390774 50.039319 
L 164.725474 52.26982 
L 165.1048 53.423397 
L 165.461813 53.88614 
L 165.774199 53.964401 
L 166.064272 53.810038 
L 166.398971 53.367559 
L 166.778298 52.475716 
L 167.157624 50.996509 
L 167.492323 48.772686 
L 167.73777 45.70269 
L 167.893963 41.176533 
L 167.960903 34.908722 
L 167.983216 19.337711 
L 167.983216 19.337711 
L 167.983216 19.337711 
L 168.117096 42.988686 
L 168.384855 47.76063 
L 168.741868 50.383758 
L 169.165821 52.005748 
L 169.612087 52.916351 
L 170.013727 53.29053 
L 170.370739 53.33471 
L 170.705439 53.138184 
L 171.062452 52.649679 
L 171.441778 51.73028 
L 171.821104 50.168161 
L 172.13349 47.899596 
L 172.356623 44.747417 
L 172.490503 40.266702 
L 172.557443 30.946925 
L 172.60207 36.84865 
L 172.780576 44.850478 
L 173.070649 48.608697 
L 173.472289 51.045865 
L 173.918555 52.498242 
L 174.364821 53.268542 
L 174.744147 53.538254 
L 175.078846 53.512314 
L 175.391233 53.255702 
L 175.748246 52.638085 
L 176.105258 51.542898 
L 176.439958 49.765099 
L 176.707718 47.130832 
L 176.886224 43.352588 
L 176.975477 38.209316 
L 177.020104 27.964921 
L 177.042417 36.303132 
L 177.042417 36.303132 
L 177.220924 45.432355 
L 177.510997 49.325695 
L 177.912636 51.812332 
L 178.358902 53.259956 
L 178.782855 53.946545 
L 179.117554 54.125158 
L 179.407627 54.030659 
L 179.6977 53.680414 
L 180.0324 52.873449 
L 180.367099 51.397324 
L 180.657172 48.983164 
L 180.857992 45.396746 
L 180.969559 39.744904 
L 181.014185 25.725773 
L 181.036498 37.220191 
L 181.036498 37.220191 
L 181.215005 46.710059 
L 181.505078 50.643311 
L 181.884404 53.014924 
L 182.308357 54.365561 
L 182.66537 54.874961 
L 182.933129 54.938642 
L 183.178576 54.747176 
L 183.446335 54.213156 
L 183.736408 53.093816 
L 184.004168 51.149785 
L 184.227301 47.699126 
L 184.361181 41.313815 
L 184.405807 31.045606 
L 184.428121 39.421048 
L 184.428121 39.421048 
L 184.606627 48.598813 
L 184.8967 52.510005 
L 185.276026 54.798475 
L 185.633039 55.802699 
L 185.900799 56.042879 
L 186.079305 55.96192 
L 186.280125 55.603056 
L 186.525571 54.64251 
L 186.771017 52.649333 
L 186.949524 49.438253 
L 187.06109 43.543341 
L 187.105717 35.223242 
L 187.12803 42.198254 
L 187.12803 42.198254 
L 187.306537 51.161078 
L 187.59661 55.052879 
L 187.931309 56.975721 
L 188.199069 57.531389 
L 188.332949 57.50837 
L 188.489142 57.176886 
L 188.689961 56.048478 
L 188.868468 53.666787 
L 189.002348 48.473649 
L 189.046974 40.745096 
L 189.091601 46.796385 
L 189.270107 55.053944 
L 189.56018 58.846906 
L 189.805627 59.876022 
L 189.89488 59.798359 
L 190.006446 59.166919 
L 190.140326 56.630625 
L 190.207266 52.343208 
L 190.229579 47.690267 
L 190.251893 47.760799 
L 190.251893 47.760799 
L 190.408086 61.10928 
L 190.742785 68.45974 
L 191.278305 75.159042 
L 192.036957 81.870922 
L 193.041056 88.757094 
L 194.268287 95.631063 
L 195.740965 102.600192 
L 197.436776 109.540724 
L 199.35572 116.457012 
L 201.497798 123.349632 
L 203.885321 130.279396 
L 206.495978 137.172405 
L 209.35208 144.081223 
L 212.431316 150.9463 
L 215.755998 157.813288 
L 216.559456 159.4 
L 216.559456 159.4 
" style="fill:none;stroke:#ff0000;stroke-linecap:square;"/>
   </g>
   <g id="line2d_4">
    <path clip-path="url(#pa4568077cc)" d="M 36.08928 7.429674 
L 36.312413 18.431991 
L 36.647113 24.433314 
L 37.026439 27.538148 
L 37.338825 28.597081 
L 37.517331 28.685612 
L 37.651211 28.476024 
L 37.829718 27.714159 
L 38.030537 25.710343 
L 38.186731 21.582251 
L 38.25367 15.39006 
L 38.275984 2.494866 
L 38.275984 2.494866 
L 38.275984 2.494866 
L 38.409864 23.896359 
L 38.677623 29.014575 
L 39.034636 31.774495 
L 39.369336 32.865123 
L 39.592469 33.018469 
L 39.748662 32.84836 
L 39.949481 32.222094 
L 40.172615 30.716297 
L 40.373434 27.695021 
L 40.507314 21.477544 
L 40.551941 9.837113 
L 40.574254 19.334537 
L 40.574254 19.334537 
L 40.75276 28.71445 
L 41.042833 32.618962 
L 41.377533 34.53708 
L 41.667606 35.184896 
L 41.846112 35.213893 
L 42.024619 34.951012 
L 42.247752 34.11612 
L 42.470885 32.385876 
L 42.671704 28.889281 
L 42.783271 22.933969 
L 42.827898 14.943769 
L 42.850211 21.680346 
L 42.850211 21.680346 
L 43.028717 30.529568 
L 43.31879 34.305682 
L 43.65349 36.12035 
L 43.943563 36.689689 
L 44.122069 36.672914 
L 44.300576 36.364834 
L 44.523709 35.471291 
L 44.769155 33.405711 
L 44.947661 30.039927 
L 45.059228 23.544076 
L 45.081541 18.502631 
L 45.103855 19.013267 
L 45.103855 19.013267 
L 45.260048 30.854718 
L 45.527807 34.984604 
L 45.862507 37.066942 
L 46.15258 37.763032 
L 46.3534 37.804537 
L 46.531906 37.539387 
L 46.755039 36.726505 
L 47.000485 34.861701 
L 47.201305 31.4534 
L 47.312872 26.112006 
L 47.357498 12.417536 
L 47.402125 25.722669 
L 47.602945 33.471986 
L 47.893017 36.742118 
L 48.227717 38.313189 
L 48.495477 38.716185 
L 48.65167 38.662136 
L 48.830176 38.326734 
L 49.053309 37.400964 
L 49.298756 35.307058 
L 49.477262 31.94462 
L 49.588829 25.620422 
L 49.633455 20.067617 
L 49.655768 25.312064 
L 49.655768 25.312064 
L 49.834275 33.651662 
L 50.124348 37.290665 
L 50.459047 38.988046 
L 50.726807 39.451708 
L 50.905313 39.409946 
L 51.08382 39.07786 
L 51.306953 38.160302 
L 51.552399 36.094539 
L 51.753219 32.133632 
L 51.842472 27.015271 
L 51.887099 16.771979 
L 51.909412 25.115385 
L 51.909412 25.115385 
L 52.087918 34.218824 
L 52.377991 37.922387 
L 52.712691 39.630644 
L 52.980451 40.093744 
L 53.136644 40.070688 
L 53.31515 39.77423 
L 53.538283 38.917075 
L 53.78373 36.987165 
L 53.984549 33.460327 
L 54.096116 27.708158 
L 54.140742 16.483757 
L 54.163056 25.599534 
L 54.163056 25.599534 
L 54.341562 34.807509 
L 54.631635 38.510259 
L 54.966335 40.20796 
L 55.234094 40.659776 
L 55.390287 40.628853 
L 55.568794 40.321691 
L 55.791927 39.446571 
L 56.037373 37.481053 
L 56.238193 33.859447 
L 56.349759 27.663376 
L 56.394386 21.213822 
L 56.416699 26.958741 
L 56.416699 26.958741 
L 56.595206 35.455049 
L 56.885279 39.079524 
L 57.219978 40.740304 
L 57.487738 41.167243 
L 57.643931 41.120727 
L 57.822437 40.792779 
L 58.04557 39.881974 
L 58.291017 37.840186 
L 58.491837 33.99108 
L 58.603403 26.402691 
L 58.625716 15.409725 
L 58.64803 25.593779 
L 58.64803 25.593779 
L 58.826536 35.717593 
L 59.116609 39.478009 
L 59.451309 41.178133 
L 59.719068 41.619734 
L 59.875261 41.579315 
L 60.053768 41.257545 
L 60.276901 40.355286 
L 60.522347 38.331015 
L 60.723167 34.54012 
L 60.834733 27.378135 
L 60.857047 19.919798 
L 60.87936 25.314924 
L 60.87936 25.314924 
L 61.035553 35.566104 
L 61.303313 39.519597 
L 61.638012 41.456304 
L 61.905772 42.008993 
L 62.084278 42.011191 
L 62.262785 41.721117 
L 62.485918 40.868721 
L 62.731364 38.947833 
L 62.932184 35.463925 
L 63.04375 29.947374 
L 63.066064 26.868835 
L 63.088377 -0.078239 
L 63.088377 -0.078239 
L 63.088377 -0.078239 
L 63.222257 34.842966 
L 63.467703 39.323083 
L 63.780089 41.527935 
L 64.070162 42.332048 
L 64.270982 42.415067 
L 64.427175 42.226236 
L 64.650308 41.51807 
L 64.895755 39.879921 
L 65.118888 36.623548 
L 65.252767 31.076532 
L 65.297394 22.750582 
L 65.342021 29.469113 
L 65.520527 37.304007 
L 65.8106 40.826295 
L 66.122986 42.355246 
L 66.390746 42.777672 
L 66.546939 42.719217 
L 66.725445 42.368484 
L 66.948579 41.40856 
L 67.194025 39.246067 
L 67.372531 35.750273 
L 67.484098 28.74064 
L 67.506411 22.041461 
L 67.528724 26.154114 
L 67.528724 26.154114 
L 67.684918 36.695964 
L 67.952677 40.654217 
L 68.265063 42.49194 
L 68.532823 43.074538 
L 68.711329 43.084969 
L 68.889836 42.796157 
L 69.112969 41.935045 
L 69.358415 39.981341 
L 69.559235 36.39277 
L 69.670802 30.400343 
L 69.715428 22.213111 
L 69.737741 29.056024 
L 69.737741 29.056024 
L 69.916248 37.840557 
L 70.206321 41.458616 
L 70.518707 43.005522 
L 70.786467 43.424227 
L 70.94266 43.357478 
L 71.121166 42.990602 
L 71.344299 41.994268 
L 71.589746 39.735287 
L 71.768252 35.961794 
L 71.857505 30.532151 
L 71.902132 23.619902 
L 71.924445 29.638545 
L 71.924445 29.638545 
L 72.102952 38.201776 
L 72.393025 41.791922 
L 72.705411 43.321122 
L 72.950857 43.714856 
L 73.10705 43.667384 
L 73.285557 43.321621 
L 73.50869 42.355847 
L 73.754136 40.158477 
L 73.932642 36.551692 
L 74.044209 28.703352 
L 74.066522 11.019267 
L 74.088836 28.540475 
L 74.088836 28.540475 
L 74.267342 38.34049 
L 74.557415 42.037315 
L 74.869801 43.594264 
L 75.115248 43.995185 
L 75.271441 43.948392 
L 75.449947 43.599867 
L 75.67308 42.623445 
L 75.918526 40.392235 
L 76.097033 36.68256 
L 76.186286 31.496737 
L 76.230913 22.064879 
L 76.253226 29.788105 
L 76.253226 29.788105 
L 76.431732 38.752346 
L 76.721805 42.371793 
L 77.034192 43.893475 
L 77.279638 44.267921 
L 77.435831 44.201079 
L 77.614337 43.823177 
L 77.837471 42.789809 
L 78.082917 40.414303 
L 78.261423 36.257354 
L 78.350677 28.805623 
L 78.37299 18.432456 
L 78.37299 18.432456 
L 78.37299 18.432456 
L 78.50687 37.232264 
L 78.752316 41.642827 
L 79.064702 43.776216 
L 79.354775 44.486104 
L 79.533282 44.496307 
L 79.711788 44.187905 
L 79.934921 43.264873 
L 80.180367 41.131026 
L 80.358874 37.665921 
L 80.47044 30.831438 
L 80.492754 24.836364 
L 80.515067 27.592772 
L 80.515067 27.592772 
L 80.67126 38.517694 
L 80.93902 42.472349 
L 81.251406 44.258938 
L 81.519166 44.763752 
L 81.675359 44.723015 
L 81.853865 44.368978 
L 82.076998 43.361054 
L 82.300131 41.322412 
L 82.478638 37.735556 
L 82.590204 30.010922 
L 82.612517 16.794371 
L 82.634831 29.538406 
L 82.634831 29.538406 
L 82.813337 39.475689 
L 83.10341 43.160053 
L 83.415796 44.672795 
L 83.661243 45.014343 
L 83.817436 44.9129 
L 84.018256 44.394171 
L 84.263702 42.967126 
L 84.486835 40.163301 
L 84.643028 34.882156 
L 84.687655 29.935472 
L 84.709968 13.802679 
L 84.709968 13.802679 
L 84.709968 13.802679 
L 84.843848 38.020211 
L 85.089294 42.449389 
L 85.40168 44.559849 
L 85.66944 45.203513 
L 85.847946 45.207748 
L 86.026453 44.876086 
L 86.249586 43.887378 
L 86.472719 41.860715 
L 86.651225 38.280395 
L 86.762792 30.574553 
L 86.785105 17.745737 
L 86.807418 30.055646 
L 86.807418 30.055646 
L 86.985925 40.011942 
L 87.275998 43.684414 
L 87.588384 45.16813 
L 87.811517 45.469538 
L 87.96771 45.368637 
L 88.146217 44.920007 
L 88.36935 43.714792 
L 88.592483 41.204203 
L 88.748676 36.994056 
L 88.815616 31.585277 
L 88.837929 24.472477 
L 88.860242 29.299304 
L 88.860242 29.299304 
L 89.016435 39.654435 
L 89.284195 43.550525 
L 89.596581 45.271465 
L 89.842028 45.684731 
L 89.998221 45.608323 
L 90.176727 45.184322 
L 90.39986 44.011194 
L 90.622993 41.555869 
L 90.779186 37.502619 
L 90.86844 27.729985 
L 90.93538 34.935614 
L 91.136199 41.619884 
L 91.426272 44.583692 
L 91.716345 45.723209 
L 91.917165 45.903342 
L 92.073358 45.737626 
L 92.274178 45.087595 
L 92.497311 43.556752 
L 92.698131 40.650266 
L 92.83201 35.556354 
L 92.89895 25.415204 
L 92.943577 34.776577 
L 93.144397 41.797183 
L 93.43447 44.803946 
L 93.724543 45.94445 
L 93.925362 46.113017 
L 94.081555 45.930495 
L 94.282375 45.243246 
L 94.505508 43.625344 
L 94.706328 40.470903 
L 94.840208 34.151525 
L 94.884834 22.416413 
L 94.907148 31.941384 
L 94.907148 31.941384 
L 95.085654 41.158977 
L 95.375727 44.737164 
L 95.6658 46.070087 
L 95.888933 46.324548 
L 96.022813 46.201507 
L 96.201319 45.689477 
L 96.424452 44.305037 
L 96.625272 41.697737 
L 96.781465 36.294544 
L 96.848405 23.168715 
L 96.893032 35.052405 
L 97.093851 42.277608 
L 97.383924 45.291874 
L 97.673997 46.397393 
L 97.874817 46.518555 
L 98.03101 46.279735 
L 98.23183 45.475916 
L 98.454963 43.584239 
L 98.633469 40.245742 
L 98.745036 33.992841 
L 98.789662 27.917104 
L 98.811976 33.44101 
L 98.811976 33.44101 
L 98.990482 41.823173 
L 99.280555 45.295281 
L 99.570628 46.551262 
L 99.771448 46.735709 
L 99.905328 46.58449 
L 100.106147 45.89901 
L 100.32928 44.215551 
L 100.5301 40.78313 
L 100.641667 35.283579 
L 100.66398 32.218274 
L 100.686293 7.373964 
L 100.708606 32.190852 
L 100.708606 32.190852 
L 100.887113 41.908837 
L 101.154873 45.331645 
L 101.444945 46.715268 
L 101.645765 46.946242 
L 101.779645 46.816688 
L 101.958151 46.25946 
L 102.181284 44.71604 
L 102.382104 41.62763 
L 102.515984 35.512815 
L 102.560611 15.530707 
L 102.582924 32.590993 
L 102.582924 32.590993 
L 102.76143 42.205968 
L 103.02919 45.60808 
L 103.319263 46.958149 
L 103.520083 47.151124 
L 103.653962 46.985039 
L 103.832469 46.354725 
L 104.055602 44.628247 
L 104.256422 40.974408 
L 104.367988 34.29035 
L 104.390301 28.760446 
L 104.412615 30.492671 
L 104.412615 30.492671 
L 104.568808 41.758556 
L 104.836568 45.638991 
L 105.126641 47.12836 
L 105.32746 47.366904 
L 105.46134 47.218974 
L 105.639846 46.600089 
L 105.86298 44.861233 
L 106.041486 41.759427 
L 106.153052 36.496043 
L 106.197679 24.777791 
L 106.242306 35.826874 
L 106.443125 43.591588 
L 106.733198 46.595238 
L 107.000958 47.521543 
L 107.157151 47.558595 
L 107.313344 47.239535 
L 107.514164 46.190983 
L 107.714984 43.926299 
L 107.871177 39.642635 
L 107.938117 33.774896 
L 107.96043 22.350487 
L 107.982743 33.046401 
L 107.982743 33.046401 
L 108.16125 43.084183 
L 108.429009 46.469159 
L 108.696769 47.665393 
L 108.875275 47.797417 
L 109.009155 47.579393 
L 109.187662 46.800309 
L 109.388481 44.913132 
L 109.566988 40.89759 
L 109.656241 33.885461 
L 109.678554 17.612309 
L 109.700868 33.65962 
L 109.700868 33.65962 
L 109.879374 43.456575 
L 110.147134 46.801412 
L 110.414893 47.940006 
L 110.571087 48.028308 
L 110.704966 47.791437 
L 110.883473 46.950293 
L 111.084292 44.874819 
L 111.240486 41.063689 
L 111.329739 33.133498 
L 111.352052 27.080721 
L 111.352052 27.080721 
L 111.352052 27.080721 
L 111.485932 42.233062 
L 111.731378 46.455196 
L 112.021451 48.097595 
L 112.199958 48.280955 
L 112.333837 48.060357 
L 112.512344 47.210537 
L 112.713164 45.046041 
L 112.869357 40.862015 
L 112.936297 35.270958 
L 112.95861 26.850452 
L 112.980923 33.696426 
L 112.980923 33.696426 
L 113.137116 43.644647 
L 113.404876 47.334101 
L 113.672636 48.483175 
L 113.806515 48.52773 
L 113.940395 48.237762 
L 114.118902 47.219438 
L 114.319721 44.552052 
L 114.453601 39.732504 
L 114.498228 34.617471 
L 114.520541 23.893864 
L 114.520541 23.893864 
L 114.520541 23.893864 
L 114.654421 43.000295 
L 114.899867 47.236872 
L 115.167627 48.69995 
L 115.301507 48.827581 
L 115.32382 48.814353 
L 115.4577 48.518612 
L 115.636206 47.430044 
L 115.814713 44.945521 
L 115.948593 39.941141 
L 116.015533 29.625742 
L 116.060159 39.143956 
L 116.260979 46.11434 
L 116.528739 48.64811 
L 116.729558 49.138742 
L 116.841125 49.023624 
L 116.997318 48.351374 
L 117.175824 46.509595 
L 117.332017 42.474131 
L 117.398957 37.198395 
L 117.421271 30.618312 
L 117.443584 34.529819 
L 117.443584 34.529819 
L 117.599777 45.085566 
L 117.845223 48.523957 
L 118.09067 49.473714 
L 118.179923 49.435808 
L 118.313803 48.987089 
L 118.492309 47.400638 
L 118.648502 43.950097 
L 118.737756 37.578744 
L 118.760069 29.945491 
L 118.782382 35.631792 
L 118.782382 35.631792 
L 118.938575 45.773685 
L 119.184022 49.114733 
L 119.407155 49.871374 
L 119.496408 49.769179 
L 119.630288 49.142364 
L 119.808794 46.961635 
L 119.942674 42.407254 
L 119.987301 37.783378 
L 120.009614 25.989429 
L 120.031927 37.136757 
L 120.031927 37.136757 
L 120.210434 47.101455 
L 120.45588 49.920911 
L 120.612073 50.320353 
L 120.634386 50.310248 
L 120.72364 50.095916 
L 120.879833 48.904051 
L 121.036026 45.68436 
L 121.125279 39.782545 
L 121.147592 34.073526 
L 121.169906 36.26345 
L 121.169906 36.26345 
L 121.326099 47.339705 
L 121.571545 50.507628 
L 121.705425 50.849314 
L 121.727738 50.834173 
L 121.816991 50.555429 
L 121.950871 49.31544 
L 122.084751 46.073182 
L 122.174004 37.153097 
L 122.196318 35.469766 
L 122.196318 35.469766 
L 122.196318 35.469766 
L 122.352511 48.313719 
L 122.575644 51.248614 
L 122.664897 51.48936 
L 122.709524 51.449729 
L 122.82109 50.824993 
L 122.95497 48.52781 
L 123.044223 44.135628 
L 123.08885 32.16456 
L 123.133476 43.633053 
L 123.311983 50.787529 
L 123.512802 52.288687 
L 123.579742 52.088975 
L 123.691309 50.749939 
L 123.802875 46.367025 
L 123.847502 38.750107 
L 123.892129 44.679615 
L 124.070635 52.361781 
L 124.204515 53.327521 
L 124.226828 53.283825 
L 124.316081 52.383232 
L 124.405335 49.26951 
L 124.472274 36.58016 
L 124.516901 48.499423 
L 124.695408 54.634208 
L 124.740034 54.765147 
L 124.762347 54.659151 
L 124.829287 53.360327 
L 124.896227 47.680792 
L 124.918541 38.858121 
L 124.918541 38.858121 
L 124.918541 38.858121 
L 125.05242 56.59835 
L 125.097047 57.057133 
L 125.11936 56.801124 
L 125.163987 53.98762 
L 125.1863 43.992911 
L 125.1863 43.992911 
L 125.1863 43.992911 
L 125.342493 67.989093 
L 125.699506 81.946123 
L 126.279652 95.808534 
L 127.060618 109.134982 
L 128.02009 121.694703 
L 129.113442 133.120508 
L 130.31836 143.405802 
L 131.590218 152.378973 
L 132.779391 159.4 
M 145.125483 159.4 
L 145.268273 150.113615 
L 145.335213 131.999323 
L 145.37984 143.030536 
L 145.563574 159.4 
M 156.898205 159.4 
L 157.897603 151.669322 
L 158.879388 142.283015 
L 159.794234 131.3469 
L 160.619826 118.748248 
L 161.311538 104.773256 
L 161.847058 89.428532 
L 162.181757 73.660008 
L 162.494143 53.589032 
L 162.516457 39.995885 
L 162.53877 52.580635 
L 162.53877 52.580635 
L 162.650336 57.933646 
L 162.67265 57.797599 
L 162.761903 54.886951 
L 162.80653 50.206921 
L 162.828843 38.554683 
L 162.851156 49.261353 
L 162.851156 49.261353 
L 163.007349 56.553166 
L 163.029663 56.556094 
L 163.096603 55.846117 
L 163.208169 50.92498 
L 163.252796 37.840946 
L 163.297422 50.179962 
L 163.475929 55.599195 
L 163.498242 55.633372 
L 163.520555 55.588087 
L 163.609809 54.593428 
L 163.721375 50.270941 
L 163.788315 41.533433 
L 163.832942 49.632586 
L 164.011448 54.766534 
L 164.078388 54.953354 
L 164.123015 54.783235 
L 164.234581 53.208068 
L 164.346148 48.005168 
L 164.390774 31.93944 
L 164.435401 47.66093 
L 164.613907 53.904258 
L 164.725474 54.463132 
L 164.7701 54.348277 
L 164.881667 53.174627 
L 165.015547 48.507063 
L 165.082487 36.520797 
L 165.127113 47.332764 
L 165.30562 53.333661 
L 165.439499 54.098465 
L 165.461813 54.079826 
L 165.551066 53.60619 
L 165.684946 51.306349 
L 165.796512 44.559785 
L 165.818826 38.396732 
L 165.841139 41.4668 
L 165.841139 41.4668 
L 165.997332 51.882469 
L 166.198152 53.819086 
L 166.242778 53.804135 
L 166.265092 53.745222 
L 166.376658 52.889409 
L 166.510538 49.938616 
L 166.599791 43.228625 
L 166.622104 32.603628 
L 166.644418 42.316196 
L 166.644418 42.316196 
L 166.800611 51.579895 
L 167.001431 53.598606 
L 167.046057 53.632242 
L 167.090684 53.541185 
L 167.20225 52.720979 
L 167.33613 50.011717 
L 167.425383 44.652915 
L 167.47001 37.881028 
L 167.492323 43.794245 
L 167.492323 43.794245 
L 167.67083 51.896267 
L 167.871649 53.490145 
L 167.938589 53.433449 
L 168.050156 52.722486 
L 168.184036 50.374051 
L 168.295602 44.122904 
L 168.340229 38.75556 
L 168.362542 43.875287 
L 168.362542 43.875287 
L 168.541049 51.734432 
L 168.741868 53.388809 
L 168.786495 53.40649 
L 168.808808 53.373953 
L 168.920375 52.771659 
L 169.076568 50.142958 
L 169.188134 43.626804 
L 169.210448 38.279089 
L 169.232761 39.566613 
L 169.232761 39.566613 
L 169.388954 50.768794 
L 169.612087 53.271976 
L 169.679027 53.361502 
L 169.723654 53.287237 
L 169.83522 52.596055 
L 169.991413 49.75854 
L 170.080666 44.996658 
L 170.10298 41.901874 
L 170.125293 22.381417 
L 170.125293 22.381417 
L 170.125293 22.381417 
L 170.259173 49.764288 
L 170.482306 53.084398 
L 170.593872 53.341524 
L 170.616186 53.313488 
L 170.727752 52.757105 
L 170.883945 50.325835 
L 170.995512 44.865677 
L 171.040139 29.030235 
L 171.062452 42.158696 
L 171.062452 42.158696 
L 171.240958 51.355136 
L 171.464091 53.324603 
L 171.508718 53.35144 
L 171.553345 53.274073 
L 171.664911 52.58523 
L 171.821104 49.782891 
L 171.910357 45.137748 
L 171.954984 29.65121 
L 171.999611 44.863621 
L 172.178117 51.71626 
L 172.378937 53.34985 
L 172.423563 53.383981 
L 172.46819 53.313721 
L 172.579756 52.643399 
L 172.73595 49.883152 
L 172.847516 42.559036 
L 172.869829 33.160917 
L 172.892143 41.340495 
L 172.892143 41.340495 
L 173.048336 50.89821 
L 173.271469 53.342612 
L 173.338409 53.434244 
L 173.383035 53.363229 
L 173.494602 52.684285 
L 173.650795 49.869594 
L 173.740048 45.125127 
L 173.762362 42.040184 
L 173.784675 21.284117 
L 173.784675 21.284117 
L 173.784675 21.284117 
L 173.918555 49.907679 
L 174.141688 53.244788 
L 174.253254 53.497274 
L 174.275568 53.466544 
L 174.387134 52.881918 
L 174.521014 50.872131 
L 174.63258 46.197735 
L 174.677207 38.873453 
L 174.721834 44.088252 
L 174.90034 51.834183 
L 175.10116 53.549028 
L 175.145786 53.582645 
L 175.190413 53.505911 
L 175.301979 52.785533 
L 175.435859 50.428298 
L 175.547426 43.994289 
L 175.569739 38.797603 
L 175.592052 39.719111 
L 175.592052 39.719111 
L 175.748246 51.101302 
L 175.971379 53.604695 
L 176.038318 53.673057 
L 176.060632 53.638979 
L 176.172198 53.008448 
L 176.306078 50.81031 
L 176.417645 45.141453 
L 176.462271 35.275573 
L 176.484585 43.328813 
L 176.484585 43.328813 
L 176.663091 52.017053 
L 176.863911 53.761878 
L 176.908537 53.780615 
L 176.930851 53.745741 
L 177.042417 53.09225 
L 177.176297 50.780982 
L 177.287863 44.349002 
L 177.310177 39.104818 
L 177.33249 40.155244 
L 177.33249 40.155244 
L 177.488683 51.470489 
L 177.711816 53.868555 
L 177.756443 53.903443 
L 177.801069 53.814879 
L 177.912636 52.992416 
L 178.046516 50.177785 
L 178.135769 44.010216 
L 178.158082 37.135106 
L 178.180396 41.57207 
L 178.180396 41.57207 
L 178.336589 51.771453 
L 178.537408 53.973498 
L 178.582035 54.035913 
L 178.626662 53.969184 
L 178.738228 53.181561 
L 178.872108 50.367705 
L 178.961361 44.048576 
L 178.983675 36.306573 
L 179.005988 42.156366 
L 179.005988 42.156366 
L 179.162181 52.033006 
L 179.363001 54.14043 
L 179.407627 54.170766 
L 179.429941 54.134936 
L 179.519194 53.62793 
L 179.653074 51.322319 
L 179.76464 44.270116 
L 179.786953 36.313268 
L 179.809267 42.49059 
L 179.809267 42.49059 
L 179.96546 52.290459 
L 180.16628 54.310247 
L 180.210906 54.305891 
L 180.23322 54.249356 
L 180.344786 53.354077 
L 180.478666 49.977252 
L 180.545606 44.456751 
L 180.567919 35.960421 
L 180.590232 42.924608 
L 180.590232 42.924608 
L 180.746425 52.572915 
L 180.947245 54.483436 
L 180.991872 54.436535 
L 181.081125 53.850389 
L 181.215005 51.085767 
L 181.304258 44.389044 
L 181.326571 32.696147 
L 181.348885 43.718016 
L 181.348885 43.718016 
L 181.505078 52.90451 
L 181.705898 54.65542 
L 181.772837 54.435667 
L 181.884404 53.063433 
L 181.99597 48.99962 
L 182.06291 35.503847 
L 182.107537 47.758486 
L 182.286043 54.019234 
L 182.419923 54.837554 
L 182.442237 54.81383 
L 182.53149 54.249613 
L 182.66537 51.238258 
L 182.732309 46.507157 
L 182.754623 41.610248 
L 182.776936 41.7378 
L 182.776936 41.7378 
L 182.933129 53.339136 
L 183.111636 55.029235 
L 183.178576 54.81065 
L 183.290142 53.261927 
L 183.401709 47.986912 
L 183.446335 33.727045 
L 183.468648 45.460348 
L 183.468648 45.460348 
L 183.647155 54.312908 
L 183.781035 55.23137 
L 183.803348 55.196018 
L 183.892601 54.491565 
L 184.004168 51.62322 
L 184.071108 46.010227 
L 184.093421 36.11386 
L 184.115734 44.963599 
L 184.115734 44.963599 
L 184.271927 54.2107 
L 184.405807 55.44308 
L 184.450434 55.373449 
L 184.539687 54.479048 
L 184.651254 50.784524 
L 184.69588 46.159475 
L 184.718193 32.889443 
L 184.740507 45.71599 
L 184.740507 45.71599 
L 184.8967 54.614779 
L 185.03058 55.672127 
L 185.052893 55.620925 
L 185.142146 54.71834 
L 185.253713 50.69354 
L 185.320653 41.162799 
L 185.365279 50.09453 
L 185.543786 55.672363 
L 185.610726 55.913568 
L 185.655352 55.726549 
L 185.766919 53.674721 
L 185.856172 46.929612 
L 185.878485 28.323385 
L 185.900799 46.824885 
L 185.900799 46.824885 
L 186.056992 55.435098 
L 186.146245 56.171072 
L 186.190872 56.065726 
L 186.280125 54.774267 
L 186.369378 50.390189 
L 186.391691 47.360344 
L 186.414005 22.226308 
L 186.414005 22.226308 
L 186.414005 22.226308 
L 186.547884 54.971222 
L 186.681764 56.443598 
L 186.704077 56.36747 
L 186.793331 55.034917 
L 186.882584 50.020392 
L 186.927211 43.714109 
L 186.949524 49.402106 
L 186.949524 49.402106 
L 187.12803 56.625669 
L 187.172657 56.733954 
L 187.19497 56.640596 
L 187.284223 55.056219 
L 187.373477 47.824082 
L 187.39579 39.994619 
L 187.39579 39.994619 
L 187.39579 39.994619 
L 187.52967 56.075057 
L 187.618923 57.058667 
L 187.66355 56.852135 
L 187.752803 54.636126 
L 187.842056 43.923842 
L 187.886683 52.860573 
L 188.042876 57.396214 
L 188.087502 57.192781 
L 188.176755 54.631876 
L 188.221382 50.345268 
L 188.243695 40.576205 
L 188.266009 49.320681 
L 188.266009 49.320681 
L 188.422202 57.700698 
L 188.444515 57.769152 
L 188.444515 57.769152 
L 188.444515 57.769152 
L 188.489142 57.436857 
L 188.578395 53.799432 
L 188.623022 41.359363 
L 188.667648 53.421948 
L 188.801528 58.167978 
L 188.823841 58.119229 
L 188.890781 56.674891 
L 188.980034 46.370752 
L 189.024661 55.142166 
L 189.136228 58.616864 
L 189.180854 58.183561 
L 189.247794 54.789363 
L 189.292421 45.369543 
L 189.314734 53.249084 
L 189.314734 53.249084 
L 189.4263 59.083503 
L 189.470927 58.766985 
L 189.537867 54.888218 
L 189.56018 49.829799 
L 189.582494 50.850044 
L 189.582494 50.850044 
L 189.69406 59.644188 
L 189.716373 59.597933 
L 189.783313 56.479226 
L 189.82794 50.261161 
L 189.850253 56.035098 
L 189.850253 56.035098 
L 189.939506 60.297555 
L 189.984133 58.999098 
L 190.02876 51.072651 
L 190.073386 58.21299 
L 190.140326 61.034061 
L 190.184953 59.003132 
L 190.229579 54.048257 
L 190.229579 54.048257 
L 190.229579 54.048257 
L 190.296519 61.911565 
L 190.341146 60.058247 
L 190.363459 54.024217 
L 190.385773 58.152042 
L 190.385773 58.152042 
L 190.519652 63.736142 
L 190.541966 64.473179 
L 190.564279 59.758754 
L 190.564279 59.758754 
L 190.564279 59.758754 
L 190.921292 116.704278 
L 191.412184 151.876989 
L 191.546572 159.4 
L 191.546572 159.4 
" style="fill:none;stroke:#00bfbf;stroke-linecap:square;"/>
   </g>
   <g id="patch_3">
    <path d="M 36 15.84 
L 259.2 15.84 
" style="fill:none;stroke:#000000;stroke-linecap:square;stroke-linejoin:miter;"/>
   </g>
   <g id="patch_4">
    <path d="M 259.2 138.6 
L 259.2 15.84 
" style="fill:none;stroke:#000000;stroke-linecap:square;stroke-linejoin:miter;"/>
   </g>
   <g id="patch_5">
    <path d="M 36 138.6 
L 259.2 138.6 
" style="fill:none;stroke:#000000;stroke-linecap:square;stroke-linejoin:miter;"/>
   </g>
   <g id="patch_6">
    <path d="M 36 138.6 
L 36 15.84 
" style="fill:none;stroke:#000000;stroke-linecap:square;stroke-linejoin:miter;"/>
   </g>
   <g id="matplotlib.axis_1">
    <g id="xtick_1">
     <g id="line2d_5">
      <path clip-path="url(#pa4568077cc)" d="M 36 138.6 
L 36 15.84 
" style="fill:none;opacity:0.3;stroke:#808080;stroke-dasharray:1.000000,3.000000;stroke-dashoffset:0.0;stroke-width:0.5;"/>
     </g>
     <g id="line2d_6">
      <defs>
       <path d="M 0 0 
L 0 -4 
" id="m0f03271f50" style="stroke:#000000;stroke-width:0.5;"/>
      </defs>
      <g>
       <use style="stroke:#000000;stroke-width:0.5;" x="36.0" xlink:href="#m0f03271f50" y="138.6"/>
      </g>
     </g>
     <g id="line2d_7">
      <defs>
       <path d="M 0 0 
L 0 4 
" id="m0ba1faf498" style="stroke:#000000;stroke-width:0.5;"/>
      </defs>
      <g>
       <use style="stroke:#000000;stroke-width:0.5;" x="36.0" xlink:href="#m0ba1faf498" y="15.84"/>
      </g>
     </g>
     <g id="text_1">
      <!-- 0.0 -->
      <defs>
       <path d="M 31.78125 3.421875 
Q 39.265625 3.421875 42.96875 11.625 
Q 46.6875 19.828125 46.6875 36.375 
Q 46.6875 52.984375 42.96875 61.1875 
Q 39.265625 69.390625 31.78125 69.390625 
Q 24.3125 69.390625 20.59375 61.1875 
Q 16.890625 52.984375 16.890625 36.375 
Q 16.890625 19.828125 20.59375 11.625 
Q 24.3125 3.421875 31.78125 3.421875 
M 31.78125 -1.421875 
Q 19.921875 -1.421875 13.25 8.53125 
Q 6.59375 18.5 6.59375 36.375 
Q 6.59375 54.296875 13.25 64.25 
Q 19.921875 74.21875 31.78125 74.21875 
Q 43.703125 74.21875 50.34375 64.25 
Q 56.984375 54.296875 56.984375 36.375 
Q 56.984375 18.5 50.34375 8.53125 
Q 43.703125 -1.421875 31.78125 -1.421875 
" id="BitstreamVeraSerif-Roman-30"/>
       <path d="M 9.421875 5.078125 
Q 9.421875 7.8125 11.28125 9.71875 
Q 13.140625 11.625 15.921875 11.625 
Q 18.609375 11.625 20.5 9.71875 
Q 22.40625 7.8125 22.40625 5.078125 
Q 22.40625 2.390625 20.5 0.484375 
Q 18.609375 -1.421875 15.921875 -1.421875 
Q 13.140625 -1.421875 11.28125 0.453125 
Q 9.421875 2.34375 9.421875 5.078125 
" id="BitstreamVeraSerif-Roman-2e"/>
      </defs>
      <g transform="translate(29.63875 148.67875)scale(0.08 -0.08)">
       <use xlink:href="#BitstreamVeraSerif-Roman-30"/>
       <use x="63.623046875" xlink:href="#BitstreamVeraSerif-Roman-2e"/>
       <use x="95.41015625" xlink:href="#BitstreamVeraSerif-Roman-30"/>
      </g>
     </g>
    </g>
    <g id="xtick_2">
     <g id="line2d_8">
      <path clip-path="url(#pa4568077cc)" d="M 80.64 138.6 
L 80.64 15.84 
" style="fill:none;opacity:0.3;stroke:#808080;stroke-dasharray:1.000000,3.000000;stroke-dashoffset:0.0;stroke-width:0.5;"/>
     </g>
     <g id="line2d_9">
      <g>
       <use style="stroke:#000000;stroke-width:0.5;" x="80.64" xlink:href="#m0f03271f50" y="138.6"/>
      </g>
     </g>
     <g id="line2d_10">
      <g>
       <use style="stroke:#000000;stroke-width:0.5;" x="80.64" xlink:href="#m0ba1faf498" y="15.84"/>
      </g>
     </g>
     <g id="text_2">
      <!-- 0.5 -->
      <defs>
       <path d="M 50.296875 72.90625 
L 50.296875 64.890625 
L 16.890625 64.890625 
L 16.890625 44 
Q 19.4375 45.75 22.828125 46.625 
Q 26.21875 47.515625 30.421875 47.515625 
Q 42.234375 47.515625 49.0625 40.96875 
Q 55.90625 34.421875 55.90625 23.09375 
Q 55.90625 11.53125 49 5.046875 
Q 42.09375 -1.421875 29.59375 -1.421875 
Q 24.5625 -1.421875 19.28125 -0.1875 
Q 14.015625 1.03125 8.5 3.515625 
L 8.5 17.671875 
L 14.015625 17.671875 
Q 14.453125 10.75 18.421875 7.078125 
Q 22.40625 3.421875 29.59375 3.421875 
Q 37.3125 3.421875 41.453125 8.5 
Q 45.609375 13.578125 45.609375 23.09375 
Q 45.609375 32.5625 41.484375 37.609375 
Q 37.359375 42.671875 29.59375 42.671875 
Q 25.203125 42.671875 21.84375 41.109375 
Q 18.5 39.546875 15.921875 36.28125 
L 11.71875 36.28125 
L 11.71875 72.90625 
z
" id="BitstreamVeraSerif-Roman-35"/>
      </defs>
      <g transform="translate(74.27875 148.67875)scale(0.08 -0.08)">
       <use xlink:href="#BitstreamVeraSerif-Roman-30"/>
       <use x="63.623046875" xlink:href="#BitstreamVeraSerif-Roman-2e"/>
       <use x="95.41015625" xlink:href="#BitstreamVeraSerif-Roman-35"/>
      </g>
     </g>
    </g>
    <g id="xtick_3">
     <g id="line2d_11">
      <path clip-path="url(#pa4568077cc)" d="M 125.28 138.6 
L 125.28 15.84 
" style="fill:none;opacity:0.3;stroke:#808080;stroke-dasharray:1.000000,3.000000;stroke-dashoffset:0.0;stroke-width:0.5;"/>
     </g>
     <g id="line2d_12">
      <g>
       <use style="stroke:#000000;stroke-width:0.5;" x="125.28" xlink:href="#m0f03271f50" y="138.6"/>
      </g>
     </g>
     <g id="line2d_13">
      <g>
       <use style="stroke:#000000;stroke-width:0.5;" x="125.28" xlink:href="#m0ba1faf498" y="15.84"/>
      </g>
     </g>
     <g id="text_3">
      <!-- 1.0 -->
      <defs>
       <path d="M 14.203125 0 
L 14.203125 5.171875 
L 26.90625 5.171875 
L 26.90625 65.828125 
L 12.203125 56.296875 
L 12.203125 62.703125 
L 29.984375 74.21875 
L 36.71875 74.21875 
L 36.71875 5.171875 
L 49.421875 5.171875 
L 49.421875 0 
z
" id="BitstreamVeraSerif-Roman-31"/>
      </defs>
      <g transform="translate(118.91875 148.67875)scale(0.08 -0.08)">
       <use xlink:href="#BitstreamVeraSerif-Roman-31"/>
       <use x="63.623046875" xlink:href="#BitstreamVeraSerif-Roman-2e"/>
       <use x="95.41015625" xlink:href="#BitstreamVeraSerif-Roman-30"/>
      </g>
     </g>
    </g>
    <g id="xtick_4">
     <g id="line2d_14">
      <path clip-path="url(#pa4568077cc)" d="M 169.92 138.6 
L 169.92 15.84 
" style="fill:none;opacity:0.3;stroke:#808080;stroke-dasharray:1.000000,3.000000;stroke-dashoffset:0.0;stroke-width:0.5;"/>
     </g>
     <g id="line2d_15">
      <g>
       <use style="stroke:#000000;stroke-width:0.5;" x="169.92" xlink:href="#m0f03271f50" y="138.6"/>
      </g>
     </g>
     <g id="line2d_16">
      <g>
       <use style="stroke:#000000;stroke-width:0.5;" x="169.92" xlink:href="#m0ba1faf498" y="15.84"/>
      </g>
     </g>
     <g id="text_4">
      <!-- 1.5 -->
      <g transform="translate(163.55875 148.67875)scale(0.08 -0.08)">
       <use xlink:href="#BitstreamVeraSerif-Roman-31"/>
       <use x="63.623046875" xlink:href="#BitstreamVeraSerif-Roman-2e"/>
       <use x="95.41015625" xlink:href="#BitstreamVeraSerif-Roman-35"/>
      </g>
     </g>
    </g>
    <g id="xtick_5">
     <g id="line2d_17">
      <path clip-path="url(#pa4568077cc)" d="M 214.56 138.6 
L 214.56 15.84 
" style="fill:none;opacity:0.3;stroke:#808080;stroke-dasharray:1.000000,3.000000;stroke-dashoffset:0.0;stroke-width:0.5;"/>
     </g>
     <g id="line2d_18">
      <g>
       <use style="stroke:#000000;stroke-width:0.5;" x="214.56" xlink:href="#m0f03271f50" y="138.6"/>
      </g>
     </g>
     <g id="line2d_19">
      <g>
       <use style="stroke:#000000;stroke-width:0.5;" x="214.56" xlink:href="#m0ba1faf498" y="15.84"/>
      </g>
     </g>
     <g id="text_5">
      <!-- 2.0 -->
      <defs>
       <path d="M 12.796875 55.515625 
L 7.328125 55.515625 
L 7.328125 68.5 
Q 12.546875 71.296875 17.84375 72.75 
Q 23.140625 74.21875 28.21875 74.21875 
Q 39.59375 74.21875 46.1875 68.703125 
Q 52.78125 63.1875 52.78125 53.71875 
Q 52.78125 43.015625 37.84375 28.125 
Q 36.671875 27 36.078125 26.421875 
L 17.671875 8.015625 
L 48.09375 8.015625 
L 48.09375 17 
L 53.8125 17 
L 53.8125 0 
L 6.78125 0 
L 6.78125 5.328125 
L 28.90625 27.390625 
Q 36.234375 34.71875 39.359375 40.84375 
Q 42.484375 46.96875 42.484375 53.71875 
Q 42.484375 61.078125 38.640625 65.234375 
Q 34.8125 69.390625 28.078125 69.390625 
Q 21.09375 69.390625 17.28125 65.921875 
Q 13.484375 62.453125 12.796875 55.515625 
" id="BitstreamVeraSerif-Roman-32"/>
      </defs>
      <g transform="translate(208.19875 148.67875)scale(0.08 -0.08)">
       <use xlink:href="#BitstreamVeraSerif-Roman-32"/>
       <use x="63.623046875" xlink:href="#BitstreamVeraSerif-Roman-2e"/>
       <use x="95.41015625" xlink:href="#BitstreamVeraSerif-Roman-30"/>
      </g>
     </g>
    </g>
    <g id="xtick_6">
     <g id="line2d_20">
      <path clip-path="url(#pa4568077cc)" d="M 259.2 138.6 
L 259.2 15.84 
" style="fill:none;opacity:0.3;stroke:#808080;stroke-dasharray:1.000000,3.000000;stroke-dashoffset:0.0;stroke-width:0.5;"/>
     </g>
     <g id="line2d_21">
      <g>
       <use style="stroke:#000000;stroke-width:0.5;" x="259.2" xlink:href="#m0f03271f50" y="138.6"/>
      </g>
     </g>
     <g id="line2d_22">
      <g>
       <use style="stroke:#000000;stroke-width:0.5;" x="259.2" xlink:href="#m0ba1faf498" y="15.84"/>
      </g>
     </g>
     <g id="text_6">
      <!-- 2.5 -->
      <g transform="translate(252.83875 148.67875)scale(0.08 -0.08)">
       <use xlink:href="#BitstreamVeraSerif-Roman-32"/>
       <use x="63.623046875" xlink:href="#BitstreamVeraSerif-Roman-2e"/>
       <use x="95.41015625" xlink:href="#BitstreamVeraSerif-Roman-35"/>
      </g>
     </g>
    </g>
    <g id="text_7">
     <!-- $\Omega$ -->
     <defs>
      <path d="M 7.71875 0 
L 4.390625 16.609375 
L 7.328125 16.609375 
Q 7.859375 13.71875 8.296875 11.5 
Q 8.734375 9.28125 9.4375 8.375 
Q 10.15625 7.46875 11.71875 7.171875 
Q 13.28125 6.890625 16.890625 6.890625 
L 23 6.890625 
Q 21.53125 12.546875 15.6875 21.65625 
Q 9.859375 30.765625 7.734375 34.890625 
Q 5.609375 39.015625 5.609375 45.515625 
Q 5.609375 53.078125 10.09375 58.765625 
Q 14.59375 64.453125 21.703125 67.484375 
Q 28.8125 70.515625 36.078125 70.515625 
Q 43.3125 70.515625 50.40625 67.484375 
Q 57.515625 64.453125 62 58.71875 
Q 66.5 52.984375 66.5 45.515625 
Q 66.5 40.4375 64.640625 35.9375 
Q 62.796875 31.453125 59.90625 26.953125 
Q 57.03125 22.46875 53.6875 16.9375 
Q 50.34375 11.421875 49.125 6.890625 
L 55.171875 6.890625 
Q 58.84375 6.890625 60.453125 7.171875 
Q 62.0625 7.46875 62.734375 8.375 
Q 63.421875 9.28125 63.84375 11.5 
Q 64.265625 13.71875 64.796875 16.609375 
L 67.671875 16.609375 
L 64.40625 0 
L 46.6875 0 
Q 45.703125 0 45.703125 1.3125 
Q 45.703125 6.390625 46.9375 11.265625 
Q 48.1875 16.15625 50.625 23.09375 
Q 53.078125 30.03125 54.4375 35.328125 
Q 55.8125 40.625 55.8125 45.515625 
Q 55.8125 51.515625 53.46875 56.640625 
Q 51.125 61.765625 46.625 64.84375 
Q 42.140625 67.921875 36.078125 67.921875 
Q 26.953125 67.921875 21.625 61.40625 
Q 16.3125 54.890625 16.3125 45.515625 
Q 16.359375 40.375 17.53125 35.828125 
Q 18.703125 31.296875 21.3125 23.71875 
Q 23.921875 16.15625 25.171875 11.265625 
Q 26.421875 6.390625 26.421875 1.3125 
Q 26.421875 0 25.390625 0 
z
" id="Cmr10-ad"/>
     </defs>
     <g transform="translate(144.68 161.42125)scale(0.08 -0.08)">
      <use transform="translate(0.0 0.484375)" xlink:href="#Cmr10-ad"/>
     </g>
    </g>
   </g>
   <g id="matplotlib.axis_2">
    <g id="ytick_1">
     <g id="line2d_23">
      <path clip-path="url(#pa4568077cc)" d="M 36 138.6 
L 259.2 138.6 
" style="fill:none;opacity:0.3;stroke:#808080;stroke-dasharray:1.000000,3.000000;stroke-dashoffset:0.0;stroke-width:0.5;"/>
     </g>
     <g id="line2d_24">
      <defs>
       <path d="M 0 0 
L 4 0 
" id="mbb04a93131" style="stroke:#000000;stroke-width:0.5;"/>
      </defs>
      <g>
       <use style="stroke:#000000;stroke-width:0.5;" x="36.0" xlink:href="#mbb04a93131" y="138.6"/>
      </g>
     </g>
     <g id="line2d_25">
      <defs>
       <path d="M 0 0 
L -4 0 
" id="m2fb73a83a4" style="stroke:#000000;stroke-width:0.5;"/>
      </defs>
      <g>
       <use style="stroke:#000000;stroke-width:0.5;" x="259.2" xlink:href="#m2fb73a83a4" y="138.6"/>
      </g>
     </g>
     <g id="text_8">
      <!-- $\mathdefault{10^{-9}}$ -->
      <defs>
       <path d="M 46.78125 32.671875 
Q 43.5 29 39.25 27.1875 
Q 35.015625 25.390625 29.6875 25.390625 
Q 18.84375 25.390625 12.5625 31.9375 
Q 6.296875 38.484375 6.296875 49.8125 
Q 6.296875 60.890625 13.109375 67.546875 
Q 19.921875 74.21875 31.296875 74.21875 
Q 43.65625 74.21875 50.265625 65.015625 
Q 56.890625 55.8125 56.890625 38.71875 
Q 56.890625 19.578125 49.015625 9.078125 
Q 41.15625 -1.421875 26.90625 -1.421875 
Q 23.046875 -1.421875 18.796875 -0.6875 
Q 14.546875 0.046875 10.109375 1.515625 
L 10.109375 13.625 
L 15.578125 13.625 
Q 16.21875 8.6875 19.390625 6.046875 
Q 22.5625 3.421875 27.875 3.421875 
Q 37.359375 3.421875 41.984375 10.5625 
Q 46.625 17.71875 46.78125 32.671875 
M 30.90625 69.390625 
Q 23.96875 69.390625 20.28125 64.328125 
Q 16.609375 59.28125 16.609375 49.8125 
Q 16.609375 40.328125 20.28125 35.25 
Q 23.96875 30.171875 30.90625 30.171875 
Q 37.84375 30.171875 41.53125 35.078125 
Q 45.21875 39.984375 45.21875 49.21875 
Q 45.21875 58.9375 41.5 64.15625 
Q 37.796875 69.390625 30.90625 69.390625 
" id="BitstreamVeraSerif-Roman-39"/>
       <path d="M 4.390625 30.609375 
L 29.390625 30.609375 
L 29.390625 23 
L 4.390625 23 
z
" id="BitstreamVeraSerif-Roman-2d"/>
      </defs>
      <g transform="translate(15.28 140.89625)scale(0.08 -0.08)">
       <use transform="translate(0.0 0.2015625)" xlink:href="#BitstreamVeraSerif-Roman-31"/>
       <use transform="translate(63.623046875 0.2015625)" xlink:href="#BitstreamVeraSerif-Roman-30"/>
       <use transform="translate(132.478046875 45.046875)scale(0.7)" xlink:href="#BitstreamVeraSerif-Roman-2d"/>
       <use transform="translate(156.130390625 45.046875)scale(0.7)" xlink:href="#BitstreamVeraSerif-Roman-39"/>
      </g>
     </g>
    </g>
    <g id="ytick_2">
     <g id="line2d_26">
      <path clip-path="url(#pa4568077cc)" d="M 36 107.91 
L 259.2 107.91 
" style="fill:none;opacity:0.3;stroke:#808080;stroke-dasharray:1.000000,3.000000;stroke-dashoffset:0.0;stroke-width:0.5;"/>
     </g>
     <g id="line2d_27">
      <g>
       <use style="stroke:#000000;stroke-width:0.5;" x="36.0" xlink:href="#mbb04a93131" y="107.91"/>
      </g>
     </g>
     <g id="line2d_28">
      <g>
       <use style="stroke:#000000;stroke-width:0.5;" x="259.2" xlink:href="#m2fb73a83a4" y="107.91"/>
      </g>
     </g>
     <g id="text_9">
      <!-- $\mathdefault{10^{-6}}$ -->
      <defs>
       <path d="M 32.71875 3.421875 
Q 39.59375 3.421875 43.296875 8.46875 
Q 47.015625 13.53125 47.015625 23 
Q 47.015625 32.46875 43.296875 37.515625 
Q 39.59375 42.578125 32.71875 42.578125 
Q 25.734375 42.578125 22.0625 37.6875 
Q 18.40625 32.8125 18.40625 23.578125 
Q 18.40625 13.875 22.109375 8.640625 
Q 25.828125 3.421875 32.71875 3.421875 
M 16.796875 40.140625 
Q 20.125 43.796875 24.3125 45.59375 
Q 28.515625 47.40625 33.796875 47.40625 
Q 44.671875 47.40625 51 40.859375 
Q 57.328125 34.328125 57.328125 23 
Q 57.328125 11.921875 50.515625 5.25 
Q 43.703125 -1.421875 32.328125 -1.421875 
Q 19.96875 -1.421875 13.328125 7.78125 
Q 6.6875 17 6.6875 34.078125 
Q 6.6875 53.21875 14.546875 63.71875 
Q 22.40625 74.21875 36.71875 74.21875 
Q 40.578125 74.21875 44.828125 73.484375 
Q 49.078125 72.75 53.515625 71.296875 
L 53.515625 59.28125 
L 48 59.28125 
Q 47.40625 64.203125 44.234375 66.796875 
Q 41.0625 69.390625 35.6875 69.390625 
Q 26.21875 69.390625 21.578125 62.203125 
Q 16.9375 55.03125 16.796875 40.140625 
" id="BitstreamVeraSerif-Roman-36"/>
      </defs>
      <g transform="translate(15.28 110.20625)scale(0.08 -0.08)">
       <use transform="translate(0.0 0.2015625)" xlink:href="#BitstreamVeraSerif-Roman-31"/>
       <use transform="translate(63.623046875 0.2015625)" xlink:href="#BitstreamVeraSerif-Roman-30"/>
       <use transform="translate(132.478046875 45.046875)scale(0.7)" xlink:href="#BitstreamVeraSerif-Roman-2d"/>
       <use transform="translate(156.130390625 45.046875)scale(0.7)" xlink:href="#BitstreamVeraSerif-Roman-36"/>
      </g>
     </g>
    </g>
    <g id="ytick_3">
     <g id="line2d_29">
      <path clip-path="url(#pa4568077cc)" d="M 36 77.22 
L 259.2 77.22 
" style="fill:none;opacity:0.3;stroke:#808080;stroke-dasharray:1.000000,3.000000;stroke-dashoffset:0.0;stroke-width:0.5;"/>
     </g>
     <g id="line2d_30">
      <g>
       <use style="stroke:#000000;stroke-width:0.5;" x="36.0" xlink:href="#mbb04a93131" y="77.22"/>
      </g>
     </g>
     <g id="line2d_31">
      <g>
       <use style="stroke:#000000;stroke-width:0.5;" x="259.2" xlink:href="#m2fb73a83a4" y="77.22"/>
      </g>
     </g>
     <g id="text_10">
      <!-- $\mathdefault{10^{-3}}$ -->
      <defs>
       <path d="M 9.71875 69.828125 
Q 15.4375 71.96875 20.671875 73.09375 
Q 25.921875 74.21875 30.515625 74.21875 
Q 41.21875 74.21875 47.21875 69.59375 
Q 53.21875 64.984375 53.21875 56.78125 
Q 53.21875 50.203125 49.0625 45.78125 
Q 44.921875 41.359375 37.3125 39.796875 
Q 46.296875 38.53125 51.25 33.28125 
Q 56.203125 28.03125 56.203125 19.671875 
Q 56.203125 9.46875 49.34375 4.015625 
Q 42.484375 -1.421875 29.59375 -1.421875 
Q 23.875 -1.421875 18.421875 -0.1875 
Q 12.984375 1.03125 7.625 3.515625 
L 7.625 17.671875 
L 13.09375 17.671875 
Q 13.578125 10.640625 17.828125 7.03125 
Q 22.078125 3.421875 29.78125 3.421875 
Q 37.25 3.421875 41.578125 7.734375 
Q 45.90625 12.0625 45.90625 19.578125 
Q 45.90625 28.171875 41.453125 32.59375 
Q 37.015625 37.015625 28.421875 37.015625 
L 23.78125 37.015625 
L 23.78125 42 
L 26.21875 42 
Q 34.765625 42 39.03125 45.53125 
Q 43.3125 49.078125 43.3125 56.203125 
Q 43.3125 62.59375 39.796875 65.984375 
Q 36.28125 69.390625 29.6875 69.390625 
Q 23.09375 69.390625 19.453125 66.265625 
Q 15.828125 63.140625 15.1875 56.984375 
L 9.71875 56.984375 
z
" id="BitstreamVeraSerif-Roman-33"/>
      </defs>
      <g transform="translate(15.28 79.51625)scale(0.08 -0.08)">
       <use transform="translate(0.0 0.2015625)" xlink:href="#BitstreamVeraSerif-Roman-31"/>
       <use transform="translate(63.623046875 0.2015625)" xlink:href="#BitstreamVeraSerif-Roman-30"/>
       <use transform="translate(132.478046875 45.046875)scale(0.7)" xlink:href="#BitstreamVeraSerif-Roman-2d"/>
       <use transform="translate(156.130390625 45.046875)scale(0.7)" xlink:href="#BitstreamVeraSerif-Roman-33"/>
      </g>
     </g>
    </g>
    <g id="ytick_4">
     <g id="line2d_32">
      <path clip-path="url(#pa4568077cc)" d="M 36 46.53 
L 259.2 46.53 
" style="fill:none;opacity:0.3;stroke:#808080;stroke-dasharray:1.000000,3.000000;stroke-dashoffset:0.0;stroke-width:0.5;"/>
     </g>
     <g id="line2d_33">
      <g>
       <use style="stroke:#000000;stroke-width:0.5;" x="36.0" xlink:href="#mbb04a93131" y="46.53"/>
      </g>
     </g>
     <g id="line2d_34">
      <g>
       <use style="stroke:#000000;stroke-width:0.5;" x="259.2" xlink:href="#m2fb73a83a4" y="46.53"/>
      </g>
     </g>
     <g id="text_11">
      <!-- $\mathdefault{10^{0}}$ -->
      <g transform="translate(17.2 48.82625)scale(0.08 -0.08)">
       <use transform="translate(0.0 0.2015625)" xlink:href="#BitstreamVeraSerif-Roman-31"/>
       <use transform="translate(63.623046875 0.2015625)" xlink:href="#BitstreamVeraSerif-Roman-30"/>
       <use transform="translate(132.478046875 45.046875)scale(0.7)" xlink:href="#BitstreamVeraSerif-Roman-30"/>
      </g>
     </g>
    </g>
    <g id="ytick_5">
     <g id="line2d_35">
      <path clip-path="url(#pa4568077cc)" d="M 36 15.84 
L 259.2 15.84 
" style="fill:none;opacity:0.3;stroke:#808080;stroke-dasharray:1.000000,3.000000;stroke-dashoffset:0.0;stroke-width:0.5;"/>
     </g>
     <g id="line2d_36">
      <g>
       <use style="stroke:#000000;stroke-width:0.5;" x="36.0" xlink:href="#mbb04a93131" y="15.84"/>
      </g>
     </g>
     <g id="line2d_37">
      <g>
       <use style="stroke:#000000;stroke-width:0.5;" x="259.2" xlink:href="#m2fb73a83a4" y="15.84"/>
      </g>
     </g>
     <g id="text_12">
      <!-- $\mathdefault{10^{3}}$ -->
      <g transform="translate(17.2 18.13625)scale(0.08 -0.08)">
       <use transform="translate(0.0 0.2015625)" xlink:href="#BitstreamVeraSerif-Roman-31"/>
       <use transform="translate(63.623046875 0.2015625)" xlink:href="#BitstreamVeraSerif-Roman-30"/>
       <use transform="translate(132.478046875 45.046875)scale(0.7)" xlink:href="#BitstreamVeraSerif-Roman-33"/>
      </g>
     </g>
    </g>
    <g id="ytick_6">
     <g id="line2d_38">
      <defs>
       <path d="M 0 0 
L 2 0 
" id="ma082e4122d" style="stroke:#000000;stroke-width:0.5;"/>
      </defs>
      <g>
       <use style="stroke:#000000;stroke-width:0.5;" x="36.0" xlink:href="#ma082e4122d" y="135.520463144"/>
      </g>
     </g>
     <g id="line2d_39">
      <defs>
       <path d="M 0 0 
L -2 0 
" id="mea39daff5f" style="stroke:#000000;stroke-width:0.5;"/>
      </defs>
      <g>
       <use style="stroke:#000000;stroke-width:0.5;" x="259.2" xlink:href="#mea39daff5f" y="135.520463144"/>
      </g>
     </g>
    </g>
    <g id="ytick_7">
     <g id="line2d_40">
      <g>
       <use style="stroke:#000000;stroke-width:0.5;" x="36.0" xlink:href="#ma082e4122d" y="132.440926289"/>
      </g>
     </g>
     <g id="line2d_41">
      <g>
       <use style="stroke:#000000;stroke-width:0.5;" x="259.2" xlink:href="#mea39daff5f" y="132.440926289"/>
      </g>
     </g>
    </g>
    <g id="ytick_8">
     <g id="line2d_42">
      <g>
       <use style="stroke:#000000;stroke-width:0.5;" x="36.0" xlink:href="#ma082e4122d" y="130.639512709"/>
      </g>
     </g>
     <g id="line2d_43">
      <g>
       <use style="stroke:#000000;stroke-width:0.5;" x="259.2" xlink:href="#mea39daff5f" y="130.639512709"/>
      </g>
     </g>
    </g>
    <g id="ytick_9">
     <g id="line2d_44">
      <g>
       <use style="stroke:#000000;stroke-width:0.5;" x="36.0" xlink:href="#ma082e4122d" y="129.361389433"/>
      </g>
     </g>
     <g id="line2d_45">
      <g>
       <use style="stroke:#000000;stroke-width:0.5;" x="259.2" xlink:href="#mea39daff5f" y="129.361389433"/>
      </g>
     </g>
    </g>
    <g id="ytick_10">
     <g id="line2d_46">
      <g>
       <use style="stroke:#000000;stroke-width:0.5;" x="36.0" xlink:href="#ma082e4122d" y="125.290463144"/>
      </g>
     </g>
     <g id="line2d_47">
      <g>
       <use style="stroke:#000000;stroke-width:0.5;" x="259.2" xlink:href="#mea39daff5f" y="125.290463144"/>
      </g>
     </g>
    </g>
    <g id="ytick_11">
     <g id="line2d_48">
      <g>
       <use style="stroke:#000000;stroke-width:0.5;" x="36.0" xlink:href="#ma082e4122d" y="122.210926289"/>
      </g>
     </g>
     <g id="line2d_49">
      <g>
       <use style="stroke:#000000;stroke-width:0.5;" x="259.2" xlink:href="#mea39daff5f" y="122.210926289"/>
      </g>
     </g>
    </g>
    <g id="ytick_12">
     <g id="line2d_50">
      <g>
       <use style="stroke:#000000;stroke-width:0.5;" x="36.0" xlink:href="#ma082e4122d" y="120.409512709"/>
      </g>
     </g>
     <g id="line2d_51">
      <g>
       <use style="stroke:#000000;stroke-width:0.5;" x="259.2" xlink:href="#mea39daff5f" y="120.409512709"/>
      </g>
     </g>
    </g>
    <g id="ytick_13">
     <g id="line2d_52">
      <g>
       <use style="stroke:#000000;stroke-width:0.5;" x="36.0" xlink:href="#ma082e4122d" y="119.131389433"/>
      </g>
     </g>
     <g id="line2d_53">
      <g>
       <use style="stroke:#000000;stroke-width:0.5;" x="259.2" xlink:href="#mea39daff5f" y="119.131389433"/>
      </g>
     </g>
    </g>
    <g id="ytick_14">
     <g id="line2d_54">
      <g>
       <use style="stroke:#000000;stroke-width:0.5;" x="36.0" xlink:href="#ma082e4122d" y="115.060463144"/>
      </g>
     </g>
     <g id="line2d_55">
      <g>
       <use style="stroke:#000000;stroke-width:0.5;" x="259.2" xlink:href="#mea39daff5f" y="115.060463144"/>
      </g>
     </g>
    </g>
    <g id="ytick_15">
     <g id="line2d_56">
      <g>
       <use style="stroke:#000000;stroke-width:0.5;" x="36.0" xlink:href="#ma082e4122d" y="111.980926289"/>
      </g>
     </g>
     <g id="line2d_57">
      <g>
       <use style="stroke:#000000;stroke-width:0.5;" x="259.2" xlink:href="#mea39daff5f" y="111.980926289"/>
      </g>
     </g>
    </g>
    <g id="ytick_16">
     <g id="line2d_58">
      <g>
       <use style="stroke:#000000;stroke-width:0.5;" x="36.0" xlink:href="#ma082e4122d" y="110.179512709"/>
      </g>
     </g>
     <g id="line2d_59">
      <g>
       <use style="stroke:#000000;stroke-width:0.5;" x="259.2" xlink:href="#mea39daff5f" y="110.179512709"/>
      </g>
     </g>
    </g>
    <g id="ytick_17">
     <g id="line2d_60">
      <g>
       <use style="stroke:#000000;stroke-width:0.5;" x="36.0" xlink:href="#ma082e4122d" y="108.901389433"/>
      </g>
     </g>
     <g id="line2d_61">
      <g>
       <use style="stroke:#000000;stroke-width:0.5;" x="259.2" xlink:href="#mea39daff5f" y="108.901389433"/>
      </g>
     </g>
    </g>
    <g id="ytick_18">
     <g id="line2d_62">
      <g>
       <use style="stroke:#000000;stroke-width:0.5;" x="36.0" xlink:href="#ma082e4122d" y="104.830463144"/>
      </g>
     </g>
     <g id="line2d_63">
      <g>
       <use style="stroke:#000000;stroke-width:0.5;" x="259.2" xlink:href="#mea39daff5f" y="104.830463144"/>
      </g>
     </g>
    </g>
    <g id="ytick_19">
     <g id="line2d_64">
      <g>
       <use style="stroke:#000000;stroke-width:0.5;" x="36.0" xlink:href="#ma082e4122d" y="101.750926289"/>
      </g>
     </g>
     <g id="line2d_65">
      <g>
       <use style="stroke:#000000;stroke-width:0.5;" x="259.2" xlink:href="#mea39daff5f" y="101.750926289"/>
      </g>
     </g>
    </g>
    <g id="ytick_20">
     <g id="line2d_66">
      <g>
       <use style="stroke:#000000;stroke-width:0.5;" x="36.0" xlink:href="#ma082e4122d" y="99.9495127086"/>
      </g>
     </g>
     <g id="line2d_67">
      <g>
       <use style="stroke:#000000;stroke-width:0.5;" x="259.2" xlink:href="#mea39daff5f" y="99.9495127086"/>
      </g>
     </g>
    </g>
    <g id="ytick_21">
     <g id="line2d_68">
      <g>
       <use style="stroke:#000000;stroke-width:0.5;" x="36.0" xlink:href="#ma082e4122d" y="98.6713894331"/>
      </g>
     </g>
     <g id="line2d_69">
      <g>
       <use style="stroke:#000000;stroke-width:0.5;" x="259.2" xlink:href="#mea39daff5f" y="98.6713894331"/>
      </g>
     </g>
    </g>
    <g id="ytick_22">
     <g id="line2d_70">
      <g>
       <use style="stroke:#000000;stroke-width:0.5;" x="36.0" xlink:href="#ma082e4122d" y="94.6004631444"/>
      </g>
     </g>
     <g id="line2d_71">
      <g>
       <use style="stroke:#000000;stroke-width:0.5;" x="259.2" xlink:href="#mea39daff5f" y="94.6004631444"/>
      </g>
     </g>
    </g>
    <g id="ytick_23">
     <g id="line2d_72">
      <g>
       <use style="stroke:#000000;stroke-width:0.5;" x="36.0" xlink:href="#ma082e4122d" y="91.5209262887"/>
      </g>
     </g>
     <g id="line2d_73">
      <g>
       <use style="stroke:#000000;stroke-width:0.5;" x="259.2" xlink:href="#mea39daff5f" y="91.5209262887"/>
      </g>
     </g>
    </g>
    <g id="ytick_24">
     <g id="line2d_74">
      <g>
       <use style="stroke:#000000;stroke-width:0.5;" x="36.0" xlink:href="#ma082e4122d" y="89.7195127086"/>
      </g>
     </g>
     <g id="line2d_75">
      <g>
       <use style="stroke:#000000;stroke-width:0.5;" x="259.2" xlink:href="#mea39daff5f" y="89.7195127086"/>
      </g>
     </g>
    </g>
    <g id="ytick_25">
     <g id="line2d_76">
      <g>
       <use style="stroke:#000000;stroke-width:0.5;" x="36.0" xlink:href="#ma082e4122d" y="88.4413894331"/>
      </g>
     </g>
     <g id="line2d_77">
      <g>
       <use style="stroke:#000000;stroke-width:0.5;" x="259.2" xlink:href="#mea39daff5f" y="88.4413894331"/>
      </g>
     </g>
    </g>
    <g id="ytick_26">
     <g id="line2d_78">
      <g>
       <use style="stroke:#000000;stroke-width:0.5;" x="36.0" xlink:href="#ma082e4122d" y="84.3704631444"/>
      </g>
     </g>
     <g id="line2d_79">
      <g>
       <use style="stroke:#000000;stroke-width:0.5;" x="259.2" xlink:href="#mea39daff5f" y="84.3704631444"/>
      </g>
     </g>
    </g>
    <g id="ytick_27">
     <g id="line2d_80">
      <g>
       <use style="stroke:#000000;stroke-width:0.5;" x="36.0" xlink:href="#ma082e4122d" y="81.2909262887"/>
      </g>
     </g>
     <g id="line2d_81">
      <g>
       <use style="stroke:#000000;stroke-width:0.5;" x="259.2" xlink:href="#mea39daff5f" y="81.2909262887"/>
      </g>
     </g>
    </g>
    <g id="ytick_28">
     <g id="line2d_82">
      <g>
       <use style="stroke:#000000;stroke-width:0.5;" x="36.0" xlink:href="#ma082e4122d" y="79.4895127086"/>
      </g>
     </g>
     <g id="line2d_83">
      <g>
       <use style="stroke:#000000;stroke-width:0.5;" x="259.2" xlink:href="#mea39daff5f" y="79.4895127086"/>
      </g>
     </g>
    </g>
    <g id="ytick_29">
     <g id="line2d_84">
      <g>
       <use style="stroke:#000000;stroke-width:0.5;" x="36.0" xlink:href="#ma082e4122d" y="78.2113894331"/>
      </g>
     </g>
     <g id="line2d_85">
      <g>
       <use style="stroke:#000000;stroke-width:0.5;" x="259.2" xlink:href="#mea39daff5f" y="78.2113894331"/>
      </g>
     </g>
    </g>
    <g id="ytick_30">
     <g id="line2d_86">
      <g>
       <use style="stroke:#000000;stroke-width:0.5;" x="36.0" xlink:href="#ma082e4122d" y="74.1404631444"/>
      </g>
     </g>
     <g id="line2d_87">
      <g>
       <use style="stroke:#000000;stroke-width:0.5;" x="259.2" xlink:href="#mea39daff5f" y="74.1404631444"/>
      </g>
     </g>
    </g>
    <g id="ytick_31">
     <g id="line2d_88">
      <g>
       <use style="stroke:#000000;stroke-width:0.5;" x="36.0" xlink:href="#ma082e4122d" y="71.0609262887"/>
      </g>
     </g>
     <g id="line2d_89">
      <g>
       <use style="stroke:#000000;stroke-width:0.5;" x="259.2" xlink:href="#mea39daff5f" y="71.0609262887"/>
      </g>
     </g>
    </g>
    <g id="ytick_32">
     <g id="line2d_90">
      <g>
       <use style="stroke:#000000;stroke-width:0.5;" x="36.0" xlink:href="#ma082e4122d" y="69.2595127086"/>
      </g>
     </g>
     <g id="line2d_91">
      <g>
       <use style="stroke:#000000;stroke-width:0.5;" x="259.2" xlink:href="#mea39daff5f" y="69.2595127086"/>
      </g>
     </g>
    </g>
    <g id="ytick_33">
     <g id="line2d_92">
      <g>
       <use style="stroke:#000000;stroke-width:0.5;" x="36.0" xlink:href="#ma082e4122d" y="67.9813894331"/>
      </g>
     </g>
     <g id="line2d_93">
      <g>
       <use style="stroke:#000000;stroke-width:0.5;" x="259.2" xlink:href="#mea39daff5f" y="67.9813894331"/>
      </g>
     </g>
    </g>
    <g id="ytick_34">
     <g id="line2d_94">
      <g>
       <use style="stroke:#000000;stroke-width:0.5;" x="36.0" xlink:href="#ma082e4122d" y="63.9104631444"/>
      </g>
     </g>
     <g id="line2d_95">
      <g>
       <use style="stroke:#000000;stroke-width:0.5;" x="259.2" xlink:href="#mea39daff5f" y="63.9104631444"/>
      </g>
     </g>
    </g>
    <g id="ytick_35">
     <g id="line2d_96">
      <g>
       <use style="stroke:#000000;stroke-width:0.5;" x="36.0" xlink:href="#ma082e4122d" y="60.8309262887"/>
      </g>
     </g>
     <g id="line2d_97">
      <g>
       <use style="stroke:#000000;stroke-width:0.5;" x="259.2" xlink:href="#mea39daff5f" y="60.8309262887"/>
      </g>
     </g>
    </g>
    <g id="ytick_36">
     <g id="line2d_98">
      <g>
       <use style="stroke:#000000;stroke-width:0.5;" x="36.0" xlink:href="#ma082e4122d" y="59.0295127086"/>
      </g>
     </g>
     <g id="line2d_99">
      <g>
       <use style="stroke:#000000;stroke-width:0.5;" x="259.2" xlink:href="#mea39daff5f" y="59.0295127086"/>
      </g>
     </g>
    </g>
    <g id="ytick_37">
     <g id="line2d_100">
      <g>
       <use style="stroke:#000000;stroke-width:0.5;" x="36.0" xlink:href="#ma082e4122d" y="57.7513894331"/>
      </g>
     </g>
     <g id="line2d_101">
      <g>
       <use style="stroke:#000000;stroke-width:0.5;" x="259.2" xlink:href="#mea39daff5f" y="57.7513894331"/>
      </g>
     </g>
    </g>
    <g id="ytick_38">
     <g id="line2d_102">
      <g>
       <use style="stroke:#000000;stroke-width:0.5;" x="36.0" xlink:href="#ma082e4122d" y="53.6804631444"/>
      </g>
     </g>
     <g id="line2d_103">
      <g>
       <use style="stroke:#000000;stroke-width:0.5;" x="259.2" xlink:href="#mea39daff5f" y="53.6804631444"/>
      </g>
     </g>
    </g>
    <g id="ytick_39">
     <g id="line2d_104">
      <g>
       <use style="stroke:#000000;stroke-width:0.5;" x="36.0" xlink:href="#ma082e4122d" y="50.6009262887"/>
      </g>
     </g>
     <g id="line2d_105">
      <g>
       <use style="stroke:#000000;stroke-width:0.5;" x="259.2" xlink:href="#mea39daff5f" y="50.6009262887"/>
      </g>
     </g>
    </g>
    <g id="ytick_40">
     <g id="line2d_106">
      <g>
       <use style="stroke:#000000;stroke-width:0.5;" x="36.0" xlink:href="#ma082e4122d" y="48.7995127086"/>
      </g>
     </g>
     <g id="line2d_107">
      <g>
       <use style="stroke:#000000;stroke-width:0.5;" x="259.2" xlink:href="#mea39daff5f" y="48.7995127086"/>
      </g>
     </g>
    </g>
    <g id="ytick_41">
     <g id="line2d_108">
      <g>
       <use style="stroke:#000000;stroke-width:0.5;" x="36.0" xlink:href="#ma082e4122d" y="47.5213894331"/>
      </g>
     </g>
     <g id="line2d_109">
      <g>
       <use style="stroke:#000000;stroke-width:0.5;" x="259.2" xlink:href="#mea39daff5f" y="47.5213894331"/>
      </g>
     </g>
    </g>
    <g id="ytick_42">
     <g id="line2d_110">
      <g>
       <use style="stroke:#000000;stroke-width:0.5;" x="36.0" xlink:href="#ma082e4122d" y="43.4504631444"/>
      </g>
     </g>
     <g id="line2d_111">
      <g>
       <use style="stroke:#000000;stroke-width:0.5;" x="259.2" xlink:href="#mea39daff5f" y="43.4504631444"/>
      </g>
     </g>
    </g>
    <g id="ytick_43">
     <g id="line2d_112">
      <g>
       <use style="stroke:#000000;stroke-width:0.5;" x="36.0" xlink:href="#ma082e4122d" y="40.3709262887"/>
      </g>
     </g>
     <g id="line2d_113">
      <g>
       <use style="stroke:#000000;stroke-width:0.5;" x="259.2" xlink:href="#mea39daff5f" y="40.3709262887"/>
      </g>
     </g>
    </g>
    <g id="ytick_44">
     <g id="line2d_114">
      <g>
       <use style="stroke:#000000;stroke-width:0.5;" x="36.0" xlink:href="#ma082e4122d" y="38.5695127086"/>
      </g>
     </g>
     <g id="line2d_115">
      <g>
       <use style="stroke:#000000;stroke-width:0.5;" x="259.2" xlink:href="#mea39daff5f" y="38.5695127086"/>
      </g>
     </g>
    </g>
    <g id="ytick_45">
     <g id="line2d_116">
      <g>
       <use style="stroke:#000000;stroke-width:0.5;" x="36.0" xlink:href="#ma082e4122d" y="37.2913894331"/>
      </g>
     </g>
     <g id="line2d_117">
      <g>
       <use style="stroke:#000000;stroke-width:0.5;" x="259.2" xlink:href="#mea39daff5f" y="37.2913894331"/>
      </g>
     </g>
    </g>
    <g id="ytick_46">
     <g id="line2d_118">
      <g>
       <use style="stroke:#000000;stroke-width:0.5;" x="36.0" xlink:href="#ma082e4122d" y="33.2204631444"/>
      </g>
     </g>
     <g id="line2d_119">
      <g>
       <use style="stroke:#000000;stroke-width:0.5;" x="259.2" xlink:href="#mea39daff5f" y="33.2204631444"/>
      </g>
     </g>
    </g>
    <g id="ytick_47">
     <g id="line2d_120">
      <g>
       <use style="stroke:#000000;stroke-width:0.5;" x="36.0" xlink:href="#ma082e4122d" y="30.1409262887"/>
      </g>
     </g>
     <g id="line2d_121">
      <g>
       <use style="stroke:#000000;stroke-width:0.5;" x="259.2" xlink:href="#mea39daff5f" y="30.1409262887"/>
      </g>
     </g>
    </g>
    <g id="ytick_48">
     <g id="line2d_122">
      <g>
       <use style="stroke:#000000;stroke-width:0.5;" x="36.0" xlink:href="#ma082e4122d" y="28.3395127086"/>
      </g>
     </g>
     <g id="line2d_123">
      <g>
       <use style="stroke:#000000;stroke-width:0.5;" x="259.2" xlink:href="#mea39daff5f" y="28.3395127086"/>
      </g>
     </g>
    </g>
    <g id="ytick_49">
     <g id="line2d_124">
      <g>
       <use style="stroke:#000000;stroke-width:0.5;" x="36.0" xlink:href="#ma082e4122d" y="27.0613894331"/>
      </g>
     </g>
     <g id="line2d_125">
      <g>
       <use style="stroke:#000000;stroke-width:0.5;" x="259.2" xlink:href="#mea39daff5f" y="27.0613894331"/>
      </g>
     </g>
    </g>
    <g id="ytick_50">
     <g id="line2d_126">
      <g>
       <use style="stroke:#000000;stroke-width:0.5;" x="36.0" xlink:href="#ma082e4122d" y="22.9904631444"/>
      </g>
     </g>
     <g id="line2d_127">
      <g>
       <use style="stroke:#000000;stroke-width:0.5;" x="259.2" xlink:href="#mea39daff5f" y="22.9904631444"/>
      </g>
     </g>
    </g>
    <g id="ytick_51">
     <g id="line2d_128">
      <g>
       <use style="stroke:#000000;stroke-width:0.5;" x="36.0" xlink:href="#ma082e4122d" y="19.9109262887"/>
      </g>
     </g>
     <g id="line2d_129">
      <g>
       <use style="stroke:#000000;stroke-width:0.5;" x="259.2" xlink:href="#mea39daff5f" y="19.9109262887"/>
      </g>
     </g>
    </g>
    <g id="ytick_52">
     <g id="line2d_130">
      <g>
       <use style="stroke:#000000;stroke-width:0.5;" x="36.0" xlink:href="#ma082e4122d" y="18.1095127086"/>
      </g>
     </g>
     <g id="line2d_131">
      <g>
       <use style="stroke:#000000;stroke-width:0.5;" x="259.2" xlink:href="#mea39daff5f" y="18.1095127086"/>
      </g>
     </g>
    </g>
    <g id="ytick_53">
     <g id="line2d_132">
      <g>
       <use style="stroke:#000000;stroke-width:0.5;" x="36.0" xlink:href="#ma082e4122d" y="16.8313894331"/>
      </g>
     </g>
     <g id="line2d_133">
      <g>
       <use style="stroke:#000000;stroke-width:0.5;" x="259.2" xlink:href="#mea39daff5f" y="16.8313894331"/>
      </g>
     </g>
    </g>
    <g id="text_13">
     <!-- $u_N/\hat{f}_0$ -->
     <defs>
      <path d="M 13.484375 53.8125 
L 11.53125 55.90625 
L 25 69.390625 
L 38.375 55.90625 
L 36.375 53.8125 
L 25 63.8125 
z
" id="Cmr10-5e"/>
      <path d="M 4.6875 0 
Q 3.71875 0 3.71875 1.3125 
Q 3.765625 1.5625 3.90625 2.171875 
Q 4.046875 2.78125 4.3125 3.140625 
Q 4.59375 3.515625 4.984375 3.515625 
Q 14.546875 3.515625 16.109375 9.625 
L 29.6875 64.3125 
Q 26.90625 64.796875 20.90625 64.796875 
Q 19.921875 64.796875 19.921875 66.109375 
Q 19.96875 66.359375 20.109375 66.96875 
Q 20.265625 67.578125 20.53125 67.9375 
Q 20.796875 68.3125 21.1875 68.3125 
L 38.484375 68.3125 
Q 39.203125 68.3125 39.40625 67.671875 
L 61.625 14.796875 
L 72.703125 59.078125 
Q 72.90625 60.15625 72.90625 60.59375 
Q 72.90625 64.796875 65.1875 64.796875 
Q 64.203125 64.796875 64.203125 66.109375 
Q 64.546875 67.390625 64.734375 67.84375 
Q 64.9375 68.3125 65.921875 68.3125 
L 87.3125 68.3125 
Q 88.28125 68.3125 88.28125 67 
Q 88.234375 66.75 88.078125 66.140625 
Q 87.9375 65.53125 87.671875 65.15625 
Q 87.40625 64.796875 87.015625 64.796875 
Q 77.4375 64.796875 75.875 58.6875 
L 61.53125 0.875 
Q 61.1875 0 60.5 0 
L 59.28125 0 
Q 58.59375 0 58.40625 0.6875 
L 32.90625 61.1875 
L 32.71875 61.8125 
Q 32.515625 62.015625 32.515625 62.109375 
L 19.28125 9.1875 
Q 19.1875 8.9375 19.140625 8.5625 
Q 19.09375 8.203125 19 7.71875 
Q 19 5.125 21.234375 4.3125 
Q 23.484375 3.515625 26.8125 3.515625 
Q 27.78125 3.515625 27.78125 2.203125 
Q 27.4375 0.828125 27.1875 0.40625 
Q 26.953125 0 26.125 0 
z
" id="Cmmi10-4e"/>
      <path d="M 25 -2.203125 
Q 12.75 -2.203125 8.328125 7.875 
Q 3.90625 17.96875 3.90625 31.890625 
Q 3.90625 40.578125 5.484375 48.234375 
Q 7.078125 55.90625 11.78125 61.25 
Q 16.5 66.609375 25 66.609375 
Q 31.59375 66.609375 35.78125 63.375 
Q 39.984375 60.15625 42.1875 55.046875 
Q 44.390625 49.953125 45.1875 44.109375 
Q 46 38.28125 46 31.890625 
Q 46 23.296875 44.40625 15.796875 
Q 42.828125 8.296875 38.1875 3.046875 
Q 33.546875 -2.203125 25 -2.203125 
M 25 0.390625 
Q 30.5625 0.390625 33.296875 6.09375 
Q 36.03125 11.8125 36.671875 18.75 
Q 37.3125 25.6875 37.3125 33.5 
Q 37.3125 41.015625 36.671875 47.359375 
Q 36.03125 53.71875 33.3125 58.859375 
Q 30.609375 64.015625 25 64.015625 
Q 19.34375 64.015625 16.609375 58.828125 
Q 13.875 53.65625 13.234375 47.328125 
Q 12.59375 41.015625 12.59375 33.5 
Q 12.59375 27.9375 12.859375 23 
Q 13.140625 18.0625 14.3125 12.8125 
Q 15.484375 7.5625 18.09375 3.96875 
Q 20.703125 0.390625 25 0.390625 
" id="Cmr10-30"/>
      <path d="M 10.59375 10.890625 
Q 10.59375 14.15625 11.46875 17.59375 
Q 12.359375 21.046875 13.9375 25.265625 
Q 15.53125 29.5 16.703125 32.625 
Q 18.015625 36.28125 18.015625 38.625 
Q 18.015625 41.609375 15.828125 41.609375 
Q 11.859375 41.609375 9.296875 37.53125 
Q 6.734375 33.453125 5.515625 28.421875 
Q 5.328125 27.78125 4.6875 27.78125 
L 3.515625 27.78125 
Q 2.6875 27.78125 2.6875 28.71875 
L 2.6875 29 
Q 4.296875 34.96875 7.609375 39.578125 
Q 10.9375 44.1875 16.015625 44.1875 
Q 19.578125 44.1875 22.046875 41.84375 
Q 24.515625 39.5 24.515625 35.890625 
Q 24.515625 34.03125 23.6875 31.984375 
Q 23.25 30.765625 21.6875 26.65625 
Q 20.125 22.5625 19.28125 19.875 
Q 18.453125 17.1875 17.921875 14.59375 
Q 17.390625 12.015625 17.390625 9.421875 
Q 17.390625 6.109375 18.796875 3.8125 
Q 20.21875 1.515625 23.390625 1.515625 
Q 29.78125 1.515625 34.625 9.421875 
Q 34.71875 9.8125 34.78125 10.171875 
Q 34.859375 10.546875 34.90625 10.890625 
L 42.09375 39.890625 
Q 42.4375 41.21875 43.65625 42.15625 
Q 44.875 43.109375 46.296875 43.109375 
Q 47.515625 43.109375 48.40625 42.328125 
Q 49.3125 41.546875 49.3125 40.28125 
Q 49.3125 39.703125 49.21875 39.5 
L 42 10.6875 
Q 41.3125 7.71875 41.3125 5.8125 
Q 41.3125 1.515625 44.1875 1.515625 
Q 47.40625 1.515625 49 5.484375 
Q 50.59375 9.46875 51.703125 14.703125 
Q 51.90625 15.28125 52.484375 15.28125 
L 53.71875 15.28125 
Q 54.109375 15.28125 54.34375 14.9375 
Q 54.59375 14.59375 54.59375 14.3125 
Q 53.515625 10.015625 52.515625 6.9375 
Q 51.515625 3.859375 49.359375 1.359375 
Q 47.21875 -1.125 44 -1.125 
Q 40.828125 -1.125 38.3125 0.609375 
Q 35.796875 2.34375 34.90625 5.328125 
Q 32.625 2.390625 29.59375 0.625 
Q 26.5625 -1.125 23.1875 -1.125 
Q 17.4375 -1.125 14.015625 2.015625 
Q 10.59375 5.171875 10.59375 10.890625 
" id="Cmmi10-75"/>
      <path d="M 9.71875 -16.5 
Q 11.578125 -17.921875 14.203125 -17.921875 
Q 17.78125 -17.921875 20.015625 -10.015625 
Q 20.953125 -6.203125 25.09375 15.09375 
L 29.6875 39.59375 
L 21.09375 39.59375 
Q 20.125 39.59375 20.125 40.921875 
Q 20.515625 43.109375 21.390625 43.109375 
L 30.328125 43.109375 
L 31.5 49.609375 
Q 32.078125 52.640625 32.5625 54.8125 
Q 33.0625 56.984375 33.625 58.828125 
Q 34.1875 60.6875 35.296875 62.984375 
Q 37.015625 66.265625 39.921875 68.390625 
Q 42.828125 70.515625 46.1875 70.515625 
Q 48.390625 70.515625 50.46875 69.703125 
Q 52.546875 68.890625 53.859375 67.28125 
Q 55.171875 65.671875 55.171875 63.484375 
Q 55.171875 60.9375 53.484375 59.046875 
Q 51.8125 57.171875 49.421875 57.171875 
Q 47.796875 57.171875 46.65625 58.171875 
Q 45.515625 59.1875 45.515625 60.796875 
Q 45.515625 62.984375 47 64.625 
Q 48.484375 66.265625 50.6875 66.5 
Q 48.828125 67.921875 46.09375 67.921875 
Q 44.578125 67.921875 43.234375 66.5 
Q 41.890625 65.09375 41.5 63.484375 
Q 40.875 60.9375 38.71875 49.703125 
L 37.5 43.109375 
L 47.796875 43.109375 
Q 48.78125 43.109375 48.78125 41.796875 
Q 48.734375 41.546875 48.578125 40.9375 
Q 48.4375 40.328125 48.171875 39.953125 
Q 47.90625 39.59375 47.515625 39.59375 
L 36.8125 39.59375 
L 32.171875 15.1875 
Q 31.296875 9.859375 30.140625 4.359375 
Q 29 -1.125 26.921875 -6.90625 
Q 24.859375 -12.703125 21.625 -16.609375 
Q 18.40625 -20.515625 14.015625 -20.515625 
Q 10.640625 -20.515625 7.984375 -18.578125 
Q 5.328125 -16.65625 5.328125 -13.484375 
Q 5.328125 -10.9375 6.953125 -9.046875 
Q 8.59375 -7.171875 11.078125 -7.171875 
Q 12.75 -7.171875 13.859375 -8.171875 
Q 14.984375 -9.1875 14.984375 -10.796875 
Q 14.984375 -12.9375 13.390625 -14.71875 
Q 11.8125 -16.5 9.71875 -16.5 
" id="Cmmi10-66"/>
      <path d="M 5.609375 -23 
Q 5.609375 -22.703125 5.71875 -22.609375 
L 40.484375 73.78125 
Q 40.671875 74.359375 41.15625 74.671875 
Q 41.65625 75 42.28125 75 
Q 43.171875 75 43.71875 74.453125 
Q 44.28125 73.921875 44.28125 73 
L 44.28125 72.609375 
L 9.515625 -23.78125 
Q 8.9375 -25 7.625 -25 
Q 6.78125 -25 6.1875 -24.40625 
Q 5.609375 -23.828125 5.609375 -23 
" id="Cmmi10-3d"/>
     </defs>
     <g transform="translate(8.28 87.82)rotate(-90.0)scale(0.08 -0.08)">
      <use transform="translate(0.0 0.40625)" xlink:href="#Cmmi10-75"/>
      <use transform="translate(57.177734375 -16.6)scale(0.7)" xlink:href="#Cmmi10-4e"/>
      <use transform="translate(119.780664062 0.40625)" xlink:href="#Cmmi10-3d"/>
      <use transform="translate(175.468652344 29.609375)" xlink:href="#Cmr10-5e"/>
      <use transform="translate(169.780664062 0.40625)" xlink:href="#Cmmi10-66"/>
      <use transform="translate(223.121757812 -16.6)scale(0.7)" xlink:href="#Cmr10-30"/>
     </g>
    </g>
   </g>
   <g id="legend_1">
    <g id="patch_7">
     <path d="M 40 134.6 
L 92.68375 134.6 
L 92.68375 85.23 
L 40 85.23 
z
" style="fill:#ffffff;stroke:#000000;stroke-linejoin:miter;"/>
    </g>
    <g id="line2d_134">
     <path d="M 45.6 91.70875 
L 56.8 91.70875 
" style="fill:none;stroke:#0000ff;stroke-linecap:square;"/>
    </g>
    <g id="line2d_135"/>
    <g id="text_14">
     <!-- N=1 -->
     <defs>
      <path d="M 4.890625 0 
L 4.890625 5.171875 
L 14.703125 5.171875 
L 14.703125 67.671875 
L 4.890625 67.671875 
L 4.890625 72.90625 
L 23.578125 72.90625 
L 67.28125 15.375 
L 67.28125 67.671875 
L 57.515625 67.671875 
L 57.515625 72.90625 
L 83.109375 72.90625 
L 83.109375 67.671875 
L 73.296875 67.671875 
L 73.296875 -1.421875 
L 67.390625 -1.421875 
L 20.703125 60.015625 
L 20.703125 5.171875 
L 30.515625 5.171875 
L 30.515625 0 
z
" id="BitstreamVeraSerif-Roman-4e"/>
      <path d="M 10.59375 45.21875 
L 73.1875 45.21875 
L 73.1875 37.40625 
L 10.59375 37.40625 
z
M 10.59375 25.296875 
L 73.1875 25.296875 
L 73.1875 17.484375 
L 10.59375 17.484375 
z
" id="BitstreamVeraSerif-Roman-3d"/>
     </defs>
     <g transform="translate(65.6 94.50875)scale(0.08 -0.08)">
      <use xlink:href="#BitstreamVeraSerif-Roman-4e"/>
      <use x="87.5" xlink:href="#BitstreamVeraSerif-Roman-3d"/>
      <use x="171.2890625" xlink:href="#BitstreamVeraSerif-Roman-31"/>
     </g>
    </g>
    <g id="line2d_136">
     <path d="M 45.6 103.45125 
L 56.8 103.45125 
" style="fill:none;stroke:#008000;stroke-linecap:square;"/>
    </g>
    <g id="line2d_137"/>
    <g id="text_15">
     <!-- N=5 -->
     <g transform="translate(65.6 106.25125)scale(0.08 -0.08)">
      <use xlink:href="#BitstreamVeraSerif-Roman-4e"/>
      <use x="87.5" xlink:href="#BitstreamVeraSerif-Roman-3d"/>
      <use x="171.2890625" xlink:href="#BitstreamVeraSerif-Roman-35"/>
     </g>
    </g>
    <g id="line2d_138">
     <path d="M 45.6 115.19375 
L 56.8 115.19375 
" style="fill:none;stroke:#ff0000;stroke-linecap:square;"/>
    </g>
    <g id="line2d_139"/>
    <g id="text_16">
     <!-- N=10 -->
     <g transform="translate(65.6 117.99375)scale(0.08 -0.08)">
      <use xlink:href="#BitstreamVeraSerif-Roman-4e"/>
      <use x="87.5" xlink:href="#BitstreamVeraSerif-Roman-3d"/>
      <use x="171.2890625" xlink:href="#BitstreamVeraSerif-Roman-31"/>
      <use x="234.912109375" xlink:href="#BitstreamVeraSerif-Roman-30"/>
     </g>
    </g>
    <g id="line2d_140">
     <path d="M 45.6 126.93625 
L 56.8 126.93625 
" style="fill:none;stroke:#00bfbf;stroke-linecap:square;"/>
    </g>
    <g id="line2d_141"/>
    <g id="text_17">
     <!-- N=50 -->
     <g transform="translate(65.6 129.73625)scale(0.08 -0.08)">
      <use xlink:href="#BitstreamVeraSerif-Roman-4e"/>
      <use x="87.5" xlink:href="#BitstreamVeraSerif-Roman-3d"/>
      <use x="171.2890625" xlink:href="#BitstreamVeraSerif-Roman-35"/>
      <use x="234.912109375" xlink:href="#BitstreamVeraSerif-Roman-30"/>
     </g>
    </g>
   </g>
  </g>
 </g>
 <defs>
  <clipPath id="pa4568077cc">
   <rect height="122.76" width="223.2" x="36.0" y="15.84"/>
  </clipPath>
 </defs>
</svg>
