<?xml version="1.0" encoding="utf-8" standalone="no"?>
<!DOCTYPE svg PUBLIC "-//W3C//DTD SVG 1.1//EN"
  "http://www.w3.org/Graphics/SVG/1.1/DTD/svg11.dtd">
<!-- Created with matplotlib (http://matplotlib.org/) -->
<svg height="432pt" version="1.1" viewBox="0 0 576 432" width="576pt" xmlns="http://www.w3.org/2000/svg" xmlns:xlink="http://www.w3.org/1999/xlink">
 <defs>
  <style type="text/css">
*{stroke-linecap:butt;stroke-linejoin:round;}
  </style>
 </defs>
 <g id="figure_1">
  <g id="patch_1">
   <path d="
M0 432
L576 432
L576 0
L0 0
z
" style="fill:#ffffff;"/>
  </g>
  <g id="axes_1">
   <g id="patch_2">
    <path d="
M72 388.8
L518.4 388.8
L518.4 43.2
L72 43.2
z
" style="fill:#ffffff;"/>
   </g>
   <g id="line2d_1">
    <path clip-path="url(#p7ff5b81e1d)" d="
M72.4827 -1
L72.848 13.1105
L73.3835 25.3554
L74.0083 34.6765
L74.7669 42.6909
L75.6148 49.3746
L76.5966 55.3804
L77.7123 60.8095
L78.9172 65.5883
L80.256 70.0023
L81.7287 74.0926
L83.3352 77.896
L85.0756 81.444
L86.95 84.7639
L89.0028 87.9438
L91.1895 90.9233
L93.5547 93.7735
L96.0984 96.4948
L98.8653 99.1292
L101.855 101.667
L105.068 104.102
L108.549 106.458
L112.298 108.724
L116.314 110.891
L120.643 112.972
L125.284 114.952
L130.238 116.822
L135.504 118.569
L141.082 120.183
L146.928 121.641
L152.997 122.925
L159.29 124.029
L165.716 124.929
L172.187 125.612
L178.658 126.072
L184.995 126.3
L191.153 126.299
L196.999 126.079
L202.533 125.652
L207.71 125.032
L212.485 124.239
L216.858 123.29
L220.83 122.205
L224.445 120.99
L227.702 119.661
L230.603 118.242
L233.191 116.734
L235.512 115.131
L237.609 113.413
L239.484 111.59
L241.135 109.68
L242.608 107.645
L243.946 105.417
L245.151 102.966
L246.222 100.259
L247.159 97.2589
L247.963 93.9241
L248.632 90.2245
L249.212 85.77
L249.703 80.1237
L250.06 73.395
L250.328 63.8072
L250.462 53.0505
L250.551 23.0205
L250.596 40.4177
L250.774 62.8253
L251.087 74.0852
L251.533 81.7767
L252.068 87.2784
L252.738 91.8914
L253.541 95.8397
L254.434 99.1366
L255.46 102.097
L256.62 104.775
L257.914 107.211
L259.387 109.504
L260.994 111.597
L262.779 113.562
L264.787 115.438
L266.974 117.177
L269.384 118.81
L272.017 120.327
L274.873 121.718
L277.952 122.971
L281.21 124.056
L284.601 124.951
L288.037 125.631
L291.474 126.085
L294.821 126.305
L297.989 126.294
L300.979 126.062
L303.701 125.632
L306.2 125.016
L308.476 124.227
L310.529 123.281
L312.359 122.197
L314.01 120.964
L315.527 119.549
L316.866 117.999
L318.071 116.271
L319.187 114.275
L320.169 112.062
L321.061 109.489
L321.864 106.452
L322.534 103.042
L323.114 98.9161
L323.605 93.7138
L323.962 87.6617
L324.23 79.6158
L324.408 67.8763
L324.542 46.1979
L324.721 74.9352
L325.033 86.8576
L325.479 94.8523
L326.015 100.581
L326.684 105.427
L327.487 109.631
L328.425 113.359
L329.496 116.725
L330.745 119.912
L332.173 122.93
L333.78 125.797
L335.609 128.595
L337.662 131.319
L339.983 134.021
L342.571 136.689
L345.472 139.358
L348.73 142.051
L352.389 144.784
L356.495 147.569
L361.047 150.385
L366.134 153.268
L371.802 156.219
L378.049 159.219
L384.966 162.29
L392.598 165.431
L400.943 168.622
L410.091 171.88
L420.088 175.201
L430.976 178.58
L442.803 182.014
L455.61 185.499
L469.445 189.03
L484.35 192.603
L500.415 196.222
L517.686 199.883
L518.4 200.029
L518.4 200.029" style="fill:none;stroke:#0000ff;stroke-linecap:square;"/>
   </g>
   <g id="line2d_2">
    <path clip-path="url(#p7ff5b81e1d)" d="
M72.2422 -1
L72.5356 18.9527
L72.9818 34.1068
L73.5174 44.9811
L74.1868 54.0956
L74.9454 61.5028
L75.8379 68.057
L76.8197 73.6606
L77.9354 78.7353
L79.1403 83.1821
L80.4345 87.1214
L81.8179 90.6331
L83.2906 93.7712
L84.8525 96.5721
L86.4591 98.9973
L88.1103 101.091
L89.8061 102.88
L91.5019 104.348
L93.1977 105.524
L94.8489 106.405
L96.5001 107.035
L98.1066 107.408
L99.6239 107.535
L101.097 107.439
L102.525 107.118
L103.863 106.588
L105.158 105.831
L106.363 104.868
L107.523 103.648
L108.594 102.196
L109.62 100.412
L110.557 98.3169
L111.405 95.8586
L112.164 92.9582
L112.833 89.4886
L113.414 85.2309
L113.86 80.3761
L114.217 74.2336
L114.485 65.9687
L114.663 53.486
L114.752 28.7012
L114.797 38.2015
L114.975 62.3661
L115.288 73.8956
L115.734 81.7577
L116.27 87.4112
L116.939 92.1867
L117.742 96.3068
L118.679 99.9232
L119.706 103.018
L120.866 105.825
L122.16 108.373
L123.544 110.615
L125.061 112.65
L126.668 114.43
L128.319 115.936
L130.059 117.225
L131.844 118.268
L133.629 119.055
L135.414 119.602
L137.155 119.909
L138.895 119.989
L140.547 119.847
L142.153 119.488
L143.67 118.926
L145.143 118.144
L146.526 117.158
L147.821 115.965
L149.026 114.56
L150.186 112.857
L151.257 110.873
L152.239 108.56
L153.087 106
L153.845 103.021
L154.515 99.5017
L155.095 95.2346
L155.586 89.8264
L155.943 83.4537
L156.21 74.6996
L156.389 60.437
L156.478 26.8186
L156.523 54.1114
L156.746 75.3253
L157.103 85.833
L157.549 92.5971
L158.129 98.0705
L158.843 102.642
L159.647 106.376
L160.584 109.689
L161.655 112.644
L162.815 115.201
L164.109 117.512
L165.493 119.53
L166.965 121.291
L168.527 122.816
L170.134 124.083
L171.83 125.136
L173.526 125.929
L175.221 126.483
L176.917 126.806
L178.568 126.899
L180.175 126.773
L181.737 126.432
L183.254 125.871
L184.682 125.109
L186.066 124.113
L187.36 122.904
L188.565 121.473
L189.68 119.808
L190.707 117.886
L191.644 115.674
L192.492 113.123
L193.251 110.156
L193.92 106.656
L194.5 102.422
L194.991 97.0783
L195.348 90.8297
L195.616 82.3893
L195.794 69.3782
L195.884 38.0387
L195.928 57.223
L196.107 79.3752
L196.419 90.6404
L196.865 98.3727
L197.401 103.925
L198.07 108.594
L198.873 112.596
L199.766 115.934
L200.792 118.917
L201.908 121.493
L203.158 123.82
L204.496 125.844
L205.925 127.601
L207.397 129.071
L208.959 130.315
L210.521 131.279
L212.083 131.991
L213.645 132.463
L215.162 132.696
L216.635 132.704
L218.063 132.493
L219.446 132.062
L220.741 131.427
L221.99 130.565
L223.15 129.494
L224.266 128.156
L225.292 126.573
L226.23 124.727
L227.122 122.462
L227.925 119.786
L228.639 116.592
L229.264 112.698
L229.755 108.269
L230.157 102.728
L230.469 95.4036
L230.692 84.6197
L230.826 62.4892
L230.871 56.7229
L231.049 87.1706
L231.362 99.2099
L231.808 107.244
L232.343 112.988
L233.013 117.836
L233.816 122.025
L234.753 125.715
L235.824 129.011
L237.029 131.986
L238.368 134.687
L239.841 137.147
L241.403 139.329
L243.098 141.317
L244.884 143.072
L246.758 144.609
L248.721 145.933
L250.73 147.022
L252.782 147.884
L254.835 148.511
L256.933 148.917
L258.986 149.091
L261.038 149.041
L263.047 148.771
L265.01 148.283
L266.929 147.579
L268.803 146.653
L270.633 145.499
L272.374 144.14
L274.069 142.535
L275.721 140.66
L277.282 138.547
L278.755 136.184
L280.183 133.465
L281.522 130.424
L282.772 127.017
L283.932 123.179
L284.958 119.012
L285.895 114.255
L286.699 109.023
L287.368 103.254
L287.948 96.227
L288.394 87.8168
L288.707 77.0598
L288.885 62.2146
L288.975 27.4998
L289.019 55.2785
L289.242 75.7097
L289.555 84.0055
L289.912 88.35
L290.269 90.4942
L290.581 91.2596
L290.76 91.3106
L290.938 91.0866
L291.161 90.3916
L291.429 88.8244
L291.741 85.5009
L292.009 80.1425
L292.232 70.3974
L292.366 50.3221
L292.411 38.9267
L292.589 73.5243
L292.902 86.7139
L293.348 96.0501
L293.928 103.634
L294.642 110.178
L295.49 115.999
L296.472 121.264
L297.588 126.07
L298.837 130.479
L300.176 134.411
L301.649 138.051
L303.211 141.319
L304.862 144.255
L306.557 146.822
L308.298 149.059
L310.083 150.992
L311.868 152.598
L313.609 153.874
L315.349 154.879
L317.045 155.603
L318.696 156.065
L320.258 156.276
L321.775 156.258
L323.248 156.016
L324.631 155.565
L325.97 154.897
L327.264 154.002
L328.514 152.861
L329.719 151.448
L330.834 149.793
L331.905 147.794
L332.887 145.48
L333.78 142.8
L334.583 139.675
L335.297 135.972
L335.877 131.831
L336.368 126.778
L336.77 120.26
L337.037 112.692
L337.216 102.643
L337.305 90.7077
L337.35 70.7549
L337.394 84.1813
L337.573 107.306
L337.885 118.587
L338.332 126.201
L338.867 131.568
L339.492 135.729
L340.206 139.097
L341.009 141.874
L341.902 144.166
L342.794 145.88
L343.731 147.211
L344.624 148.114
L345.517 148.705
L346.364 148.999
L347.168 149.041
L347.926 148.865
L348.685 148.464
L349.444 147.813
L350.202 146.875
L350.961 145.587
L351.72 143.85
L352.434 141.649
L353.103 138.846
L353.683 135.484
L354.219 130.988
L354.62 125.827
L354.933 119.274
L355.156 110.595
L355.29 98.9151
L355.334 89.8089
L355.379 57.1435
L355.379 57.1435
L355.379 57.1435
L355.513 104.77
L355.781 118.395
L356.182 127.105
L356.673 133.13
L357.298 138.095
L358.012 142.027
L358.815 145.234
L359.663 147.739
L360.511 149.602
L361.359 150.957
L362.162 151.832
L362.876 152.295
L363.501 152.454
L364.081 152.386
L364.661 152.09
L365.241 151.534
L365.822 150.669
L366.446 149.304
L367.027 147.493
L367.607 144.912
L368.142 141.412
L368.588 136.963
L368.945 131.221
L369.213 123.522
L369.392 112.494
L369.481 96.5583
L369.526 81.4496
L369.526 81.4496
L369.526 81.4496
L369.704 118.028
L370.017 130.459
L370.463 138.691
L370.998 144.543
L371.668 149.388
L372.382 152.996
L373.14 155.724
L373.854 157.499
L374.435 158.43
L374.925 158.847
L375.327 158.908
L375.684 158.714
L376.041 158.239
L376.443 157.27
L376.844 155.655
L377.246 153.011
L377.603 149.056
L377.915 142.696
L378.139 132.724
L378.272 112.37
L378.317 101.721
L378.496 135.709
L378.808 148.764
L379.254 158.042
L379.879 166.193
L380.682 173.617
L381.664 180.599
L382.869 187.546
L384.297 194.459
L385.948 201.349
L387.823 208.228
L389.965 215.243
L392.33 222.231
L394.963 229.318
L397.864 236.479
L400.987 243.601
L404.379 250.781
L408.038 258.007
L411.966 265.267
L416.16 272.554
L420.623 279.86
L425.354 287.178
L430.396 294.568
L435.707 301.954
L441.33 309.39
L447.221 316.811
L453.424 324.267
L459.939 331.749
L466.767 339.249
L473.907 346.761
L481.36 354.278
L489.17 361.838
L497.292 369.389
L505.771 376.967
L514.607 384.565
L518.4 387.739
L518.4 387.739" style="fill:none;stroke:#008000;stroke-linecap:square;"/>
   </g>
   <g id="line2d_3">
    <path clip-path="url(#p7ff5b81e1d)" d="
M72.1786 -0.250115
L72.4909 25.0419
L72.8926 39.9726
L73.4281 51.6773
L74.0529 60.6641
L74.8115 68.3757
L75.6594 74.7367
L76.5966 80.1095
L77.623 84.6968
L78.694 88.4766
L79.8097 91.6031
L80.9254 94.0778
L81.9964 95.9418
L83.0228 97.3139
L84.0046 98.2753
L84.8971 98.8615
L85.745 99.1634
L86.5483 99.2115
L87.307 99.0292
L88.021 98.6344
L88.735 97.993
L89.4491 97.06
L90.1631 95.7656
L90.8771 93.9956
L91.5465 91.7267
L92.1713 88.7918
L92.7068 85.2203
L93.1977 80.3042
L93.5547 74.5528
L93.8225 67.0051
L94.001 56.5969
L94.0902 43.1941
L94.1349 0.912873
L94.1795 42.3653
L94.4026 65.274
L94.7596 76.1004
L95.2059 83.0691
L95.786 88.7356
L96.5001 93.4874
L97.3033 97.3662
L98.1959 100.634
L99.1777 103.422
L100.249 105.795
L101.32 107.646
L102.391 109.078
L103.462 110.149
L104.488 110.87
L105.47 111.294
L106.407 111.457
L107.3 111.388
L108.148 111.106
L108.996 110.594
L109.843 109.821
L110.691 108.738
L111.539 107.27
L112.343 105.413
L113.101 103.072
L113.771 100.298
L114.395 96.7263
L114.931 92.2929
L115.377 86.5531
L115.69 79.785
L115.913 70.5831
L116.047 57.1511
L116.136 41.738
L116.314 70.4291
L116.627 82.331
L117.073 90.2843
L117.608 95.94
L118.278 100.659
L119.036 104.467
L119.884 107.641
L120.822 110.322
L121.803 112.496
L122.83 114.257
L123.856 115.606
L124.883 116.607
L125.909 117.299
L126.891 117.69
L127.828 117.823
L128.72 117.728
L129.613 117.405
L130.506 116.834
L131.398 115.981
L132.246 114.862
L133.094 113.371
L133.897 111.51
L134.656 109.196
L135.37 106.279
L135.995 102.77
L136.53 98.4843
L136.976 93.0703
L137.333 85.7602
L137.557 77.0216
L137.69 65.2148
L137.78 27.9889
L137.824 58.3513
L138.047 79.8498
L138.404 90.3942
L138.851 97.1594
L139.431 102.605
L140.1 106.871
L140.904 110.549
L141.796 113.577
L142.733 115.995
L143.715 117.946
L144.741 119.503
L145.768 120.663
L146.75 121.452
L147.731 121.958
L148.669 122.189
L149.561 122.181
L150.454 121.945
L151.346 121.464
L152.239 120.711
L153.087 119.704
L153.935 118.353
L154.782 116.561
L155.586 114.311
L156.3 111.65
L156.969 108.259
L157.549 104.095
L158.04 98.7926
L158.397 92.5626
L158.665 84.1281
L158.843 71.1075
L158.933 39.5379
L158.977 59.0275
L159.156 81.135
L159.468 92.3894
L159.914 100.101
L160.45 105.611
L161.119 110.2
L161.878 113.882
L162.726 116.923
L163.663 119.459
L164.645 121.477
L165.627 123.008
L166.608 124.148
L167.59 124.954
L168.527 125.44
L169.42 125.659
L170.268 125.648
L171.116 125.418
L171.964 124.955
L172.812 124.234
L173.659 123.216
L174.507 121.838
L175.311 120.11
L176.114 117.822
L176.828 115.101
L177.497 111.611
L178.077 107.279
L178.524 102.297
L178.881 95.9229
L179.149 87.1321
L179.327 72.6934
L179.416 42.615
L179.461 67.0407
L179.684 87.9099
L180.041 98.3565
L180.487 105.071
L181.067 110.469
L181.737 114.681
L182.496 118.119
L183.343 120.979
L184.281 123.361
L185.218 125.166
L186.2 126.585
L187.137 127.567
L188.074 128.232
L188.966 128.592
L189.814 128.695
L190.618 128.574
L191.421 128.232
L192.224 127.649
L193.027 126.795
L193.831 125.621
L194.634 124.051
L195.393 122.089
L196.107 119.644
L196.776 116.553
L197.356 112.832
L197.847 108.282
L198.249 102.533
L198.561 94.7876
L198.784 82.7211
L198.873 69.4827
L198.918 33.6986
L198.963 67.9794
L199.186 91.0809
L199.498 100.86
L199.945 108.059
L200.48 113.336
L201.149 117.775
L201.908 121.341
L202.756 124.272
L203.649 126.584
L204.586 128.408
L205.523 129.755
L206.415 130.67
L207.263 131.243
L208.067 131.535
L208.825 131.59
L209.584 131.426
L210.343 131.031
L211.101 130.38
L211.86 129.437
L212.618 128.141
L213.377 126.398
L214.091 124.2
L214.761 121.419
L215.385 117.806
L215.921 113.289
L216.367 107.385
L216.68 100.307
L216.903 90.2933
L217.037 73.3565
L217.081 32.7505
L217.126 72.3643
L217.349 95.253
L217.661 105.023
L218.108 112.229
L218.688 117.87
L219.357 122.205
L220.116 125.699
L220.964 128.56
L221.856 130.79
L222.749 132.437
L223.597 133.568
L224.4 134.301
L225.159 134.712
L225.873 134.854
L226.542 134.767
L227.211 134.452
L227.881 133.887
L228.55 133.034
L229.264 131.739
L229.934 130.06
L230.603 127.757
L231.228 124.752
L231.763 121.072
L232.21 116.544
L232.567 110.871
L232.834 103.546
L233.013 93.8191
L233.102 82.5398
L233.147 65.9075
L233.191 73.18
L233.37 98.0115
L233.682 109.626
L234.129 117.512
L234.664 123.139
L235.333 127.813
L236.092 131.526
L236.895 134.384
L237.743 136.594
L238.547 138.1
L239.305 139.072
L239.975 139.583
L240.555 139.758
L241.09 139.68
L241.581 139.381
L242.072 138.828
L242.608 137.868
L243.143 136.417
L243.679 134.253
L244.17 131.257
L244.616 126.97
L244.973 121.16
L245.241 112.835
L245.419 98.9336
L245.508 63.0251
L245.553 92.4266
L245.776 114.159
L246.133 125.199
L246.624 133.163
L247.249 139.622
L248.007 145.19
L248.945 150.381
L250.016 155.05
L251.221 159.318
L252.559 163.252
L253.987 166.778
L255.505 169.953
L257.111 172.803
L258.718 175.216
L260.369 177.3
L261.976 178.981
L263.582 180.347
L265.144 181.387
L266.661 182.132
L268.134 182.607
L269.562 182.831
L270.945 182.82
L272.284 182.585
L273.578 182.136
L274.873 181.453
L276.167 180.513
L277.461 179.286
L278.71 177.794
L279.96 175.95
L281.165 173.777
L282.37 171.129
L283.53 168.014
L284.601 164.494
L285.628 160.335
L286.565 155.589
L287.413 150.134
L288.171 143.786
L288.841 136.243
L289.421 126.962
L289.867 116.197
L290.224 101.936
L290.447 85.2368
L290.581 62.4573
L290.626 38.4038
L290.715 44.9902
L290.76 43.197
L290.938 85.8135
L291.251 106.748
L291.697 121.543
L292.232 132.293
L292.902 141.371
L293.66 148.781
L294.553 155.349
L295.535 160.959
L296.606 165.833
L297.766 170.106
L299.016 173.863
L300.31 177.053
L301.649 179.763
L302.987 181.976
L304.326 183.764
L305.62 185.136
L306.915 186.185
L308.164 186.913
L309.369 187.358
L310.529 187.553
L311.69 187.521
L312.805 187.271
L313.966 186.776
L315.126 186.031
L316.286 185.018
L317.491 183.657
L318.696 181.943
L319.901 179.824
L321.061 177.326
L322.177 174.403
L323.248 170.971
L324.23 167.089
L325.122 162.66
L325.925 157.494
L326.595 151.645
L327.13 144.85
L327.532 136.631
L327.8 126.241
L327.934 114.482
L327.978 105.669
L328.023 45.8246
L328.023 45.8246
L328.023 45.8246
L328.157 119.183
L328.425 132.33
L328.782 139.48
L329.228 144.198
L329.719 147.204
L330.21 149.007
L330.7 150.037
L331.102 150.45
L331.459 150.544
L331.816 150.403
L332.218 149.976
L332.664 149.165
L333.2 147.684
L333.735 145.538
L334.271 142.483
L334.762 138.42
L335.208 132.718
L335.52 126.074
L335.743 117.345
L335.877 105.75
L335.922 96.8832
L335.966 53.0469
L335.966 53.0469
L335.966 53.0469
L336.1 111.067
L336.368 124.627
L336.77 133.065
L337.261 138.662
L337.841 142.72
L338.466 145.516
L339.046 147.198
L339.626 148.234
L340.117 148.688
L340.518 148.797
L340.92 148.674
L341.322 148.316
L341.813 147.539
L342.348 146.205
L342.884 144.24
L343.419 141.397
L343.91 137.563
L344.356 132.139
L344.669 125.83
L344.892 117.711
L345.026 107.647
L345.115 85.7298
L345.16 89.8198
L345.338 115.655
L345.65 127.231
L346.052 134.325
L346.588 139.816
L347.168 143.577
L347.792 146.251
L348.417 147.983
L348.953 148.889
L349.444 149.31
L349.845 149.378
L350.247 149.194
L350.649 148.746
L351.095 147.908
L351.586 146.496
L352.121 144.195
L352.612 141.061
L353.058 136.754
L353.415 131.291
L353.683 124.311
L353.906 111.64
L353.996 96.2085
L354.04 77.3347
L354.04 77.3347
L354.04 77.3347
L354.219 116.648
L354.531 128.976
L354.933 136.312
L355.424 141.565
L356.004 145.507
L356.629 148.247
L357.209 149.854
L357.7 150.649
L358.101 150.95
L358.458 150.959
L358.815 150.716
L359.217 150.118
L359.663 148.99
L360.154 147.037
L360.645 144.015
L361.091 139.693
L361.448 134.016
L361.716 126.41
L361.894 115.722
L361.984 101.308
L362.028 71.0309
L362.028 71.0309
L362.028 71.0309
L362.207 120.051
L362.519 132.607
L362.921 140.016
L363.412 145.272
L363.992 149.129
L364.572 151.521
L365.063 152.719
L365.465 153.209
L365.777 153.296
L366.045 153.159
L366.357 152.733
L366.714 151.853
L367.116 150.247
L367.517 147.744
L367.919 143.795
L368.276 137.847
L368.544 129.29
L368.722 114.915
L368.812 86.0076
L368.856 109.587
L369.079 130.426
L369.436 140.9
L369.883 147.476
L370.374 151.762
L370.909 154.588
L371.355 155.9
L371.712 156.351
L371.935 156.363
L372.159 156.153
L372.426 155.579
L372.739 154.382
L373.096 152.083
L373.453 148.2
L373.765 142.137
L373.988 133.537
L374.122 121.192
L374.211 97.7687
L374.39 132.759
L374.702 145.126
L375.104 152.466
L375.55 157.042
L375.996 159.604
L376.354 160.525
L376.532 160.615
L376.711 160.435
L376.934 159.773
L377.201 158.163
L377.469 155.219
L377.737 149.692
L377.96 139.256
L378.049 128.528
L378.094 113.314
L378.139 117.765
L378.317 143.967
L378.629 156.073
L379.031 163.25
L379.388 166.427
L379.611 167.172
L379.701 167.167
L379.834 166.756
L380.013 165.176
L380.191 161.509
L380.37 151.794
L380.459 132.866
L380.504 133.065
L380.682 162.753
L381.039 179.444
L381.575 193.273
L382.333 206.844
L383.315 220.325
L384.52 233.804
L385.948 247.311
L387.599 260.85
L389.474 274.416
L391.571 288.002
L393.892 301.599
L396.435 315.199
L399.202 328.796
L402.192 342.382
L405.405 355.953
L408.842 369.503
L412.501 383.029
L416.384 396.526
L420.489 409.992
L424.818 423.423
L428.049 433
L428.049 433" style="fill:none;stroke:#ff0000;stroke-linecap:square;"/>
   </g>
   <g id="line2d_4">
    <path clip-path="url(#p7ff5b81e1d)" d="
M72.1786 19.5228
L72.4909 44.6149
L72.8926 59.0072
L73.3835 68.8083
L73.8744 74.6583
L74.3206 77.8081
L74.6776 79.1144
L74.9454 79.4053
L75.1239 79.2476
L75.347 78.6
L75.6148 77.0038
L75.9272 73.4477
L76.195 67.501
L76.3735 59.3659
L76.5073 41.9333
L76.552 5.63012
L76.552 5.63012
L76.552 5.63012
L76.6858 57.0187
L76.9536 71.1694
L77.3552 80.2897
L77.8461 86.2729
L78.337 89.6612
L78.7387 91.13
L79.0511 91.5645
L79.2296 91.5347
L79.4527 91.1941
L79.7205 90.2856
L80.0328 88.3639
L80.3452 85.0805
L80.6576 79.2094
L80.8807 70.8335
L81.0146 59.0711
L81.1039 26.3004
L81.1485 53.038
L81.3716 74.3784
L81.684 84.0426
L82.0857 90.437
L82.5319 94.5109
L82.9782 96.7968
L83.3352 97.6607
L83.5583 97.8037
L83.7369 97.6967
L83.96 97.2706
L84.2724 96.0571
L84.6294 93.534
L84.9864 89.0631
L85.2542 83.0508
L85.4773 72.7245
L85.6112 52.3014
L85.6558 40.6769
L85.8343 74.8128
L86.1467 86.9927
L86.5483 94.1065
L86.9946 98.4502
L87.4409 100.858
L87.7979 101.788
L88.0656 101.971
L88.2441 101.85
L88.4673 101.411
L88.7797 100.196
L89.1367 97.7125
L89.4937 93.3951
L89.8061 86.4218
L90.0292 75.5404
L90.1185 64.8889
L90.1631 50.696
L90.2077 52.1335
L90.3862 79.0927
L90.6986 90.7686
L91.1002 97.6691
L91.5465 101.861
L91.9928 104.144
L92.3498 104.98
L92.5729 105.105
L92.7514 104.988
L92.9746 104.556
L93.2869 103.361
L93.644 100.931
L94.001 96.7508
L94.3134 90.1461
L94.5365 80.4245
L94.6704 64.0381
L94.715 33.5649
L94.7596 61.6889
L94.9828 85.2115
L95.2951 94.8975
L95.6968 101.094
L96.143 104.904
L96.5447 106.784
L96.9017 107.537
L97.1248 107.61
L97.3033 107.45
L97.5711 106.825
L97.8835 105.433
L98.2405 102.703
L98.5975 98.0046
L98.8653 91.7659
L99.0884 81.0106
L99.1777 70.7343
L99.2669 55.1018
L99.4454 83.9524
L99.7578 95.7035
L100.159 102.558
L100.606 106.673
L101.052 108.869
L101.409 109.633
L101.632 109.712
L101.811 109.555
L102.078 108.937
L102.391 107.557
L102.748 104.853
L103.105 100.222
L103.417 92.6743
L103.596 83.8785
L103.73 64.7059
L103.774 45.8238
L103.774 45.8238
L103.774 45.8238
L103.953 85.1478
L104.265 97.3591
L104.667 104.326
L105.113 108.475
L105.559 110.679
L105.916 111.441
L106.139 111.516
L106.318 111.357
L106.586 110.733
L106.898 109.346
L107.255 106.634
L107.612 101.999
L107.924 94.4636
L108.103 85.7153
L108.237 66.9247
L108.281 45.0123
L108.281 45.0123
L108.281 45.0123
L108.46 86.7612
L108.772 99.0202
L109.174 105.984
L109.62 110.116
L110.067 112.297
L110.424 113.037
L110.647 113.098
L110.87 112.85
L111.138 112.122
L111.45 110.589
L111.807 107.639
L112.164 102.561
L112.432 95.6451
L112.61 86.4869
L112.744 64.508
L112.789 58.3286
L112.967 88.9638
L113.28 100.782
L113.681 107.606
L114.128 111.658
L114.529 113.633
L114.886 114.429
L115.109 114.52
L115.288 114.372
L115.556 113.762
L115.868 112.393
L116.225 109.71
L116.582 105.136
L116.894 97.7665
L117.118 85.9128
L117.207 72.9366
L117.251 41.9887
L117.296 70.6593
L117.519 94.0769
L117.832 103.671
L118.233 109.747
L118.679 113.416
L119.081 115.159
L119.394 115.743
L119.617 115.786
L119.84 115.517
L120.108 114.757
L120.42 113.174
L120.777 110.139
L121.134 104.9
L121.402 97.6679
L121.58 87.722
L121.669 75.6827
L121.714 54.6856
L121.759 69.8743
L121.937 92.6741
L122.25 103.813
L122.651 110.407
L123.098 114.325
L123.499 116.204
L123.812 116.872
L124.035 116.97
L124.213 116.823
L124.481 116.212
L124.793 114.835
L125.15 112.134
L125.507 107.523
L125.82 100.075
L126.043 87.9706
L126.132 74.2489
L126.176 -1
M126.177 -1
L126.221 74.3289
L126.311 88.0563
L126.578 101.707
L126.935 109.311
L127.382 114.259
L127.828 116.873
L128.185 117.858
L128.453 118.051
L128.631 117.929
L128.854 117.484
L129.167 116.261
L129.524 113.799
L129.881 109.605
L130.193 103.076
L130.416 93.7192
L130.55 79.225
L130.595 62.655
L130.639 69.7753
L130.818 94.577
L131.13 105.916
L131.532 112.553
L131.978 116.469
L132.38 118.327
L132.692 118.969
L132.915 119.042
L133.094 118.872
L133.362 118.217
L133.674 116.77
L134.031 113.945
L134.388 109.094
L134.656 102.627
L134.879 91.2257
L134.968 79.5185
L135.013 60.6587
L135.057 72.2368
L135.236 95.8066
L135.548 107.012
L135.95 113.599
L136.396 117.479
L136.798 119.306
L137.11 119.92
L137.333 119.971
L137.557 119.699
L137.824 118.922
L138.137 117.298
L138.494 114.172
L138.851 108.729
L139.118 101.061
L139.297 89.8858
L139.431 61.1419
L139.475 80.4064
L139.699 100.321
L140.011 109.465
L140.413 115.323
L140.859 118.82
L141.261 120.408
L141.573 120.856
L141.751 120.827
L141.975 120.496
L142.242 119.636
L142.555 117.885
L142.912 114.535
L143.224 109.586
L143.492 101.85
L143.67 90.464
L143.804 65.1024
L143.983 96.684
L144.295 108.507
L144.697 115.262
L145.143 119.199
L145.545 121.036
L145.857 121.641
L146.08 121.677
L146.303 121.383
L146.571 120.568
L146.883 118.874
L147.241 115.612
L147.553 110.805
L147.821 103.394
L147.999 92.9633
L148.088 79.4135
L148.133 29.6284
L148.178 78.955
L148.401 101.533
L148.713 110.992
L149.115 116.952
L149.561 120.478
L149.963 122.058
L150.23 122.464
L150.409 122.468
L150.632 122.173
L150.9 121.351
L151.212 119.64
L151.569 116.336
L151.882 111.447
L152.149 103.835
L152.328 92.819
L152.417 77.0307
L152.462 60.7246
L152.462 60.7246
L152.462 60.7246
L152.64 98.0261
L152.953 110.086
L153.354 116.891
L153.801 120.826
L154.202 122.636
L154.515 123.205
L154.693 123.232
L154.872 123.044
L155.139 122.337
L155.452 120.782
L155.809 117.73
L156.166 112.383
L156.434 104.883
L156.612 94.1912
L156.701 79.7015
L156.746 50.4984
L156.746 50.4984
L156.746 50.4984
L156.924 98.4732
L157.237 110.769
L157.639 117.631
L158.085 121.578
L158.486 123.381
L158.799 123.935
L158.977 123.949
L159.156 123.745
L159.424 123.006
L159.736 121.397
L160.093 118.239
L160.405 113.569
L160.673 106.436
L160.852 96.7363
L160.941 85.4046
L160.986 68.527
L161.03 76.287
L161.209 100.878
L161.521 112.158
L161.923 118.711
L162.369 122.493
L162.771 124.184
L163.038 124.628
L163.217 124.645
L163.395 124.441
L163.663 123.695
L163.975 122.065
L164.333 118.857
L164.645 114.087
L164.913 106.716
L165.091 96.3686
L165.18 83.0947
L165.225 45.8868
L165.27 81.7644
L165.493 104.712
L165.805 114.189
L166.207 120.113
L166.653 123.558
L167.01 124.927
L167.278 125.317
L167.456 125.296
L167.679 124.949
L167.947 124.029
L168.26 122.135
L168.617 118.448
L168.929 112.814
L169.197 103.188
L169.331 91.7019
L169.375 82.8823
L169.42 37.4644
L169.42 37.4644
L169.42 37.4644
L169.554 97.068
L169.822 110.612
L170.179 118.112
L170.58 122.538
L170.982 124.917
L171.339 125.866
L171.562 125.98
L171.741 125.814
L171.964 125.272
L172.276 123.813
L172.633 120.854
L172.945 116.455
L173.213 109.86
L173.436 97.9148
L173.526 84.6814
L173.57 48.5651
L173.615 83.2206
L173.838 106.223
L174.15 115.692
L174.552 121.589
L174.954 124.741
L175.311 126.18
L175.578 126.597
L175.757 126.581
L175.98 126.23
L176.248 125.286
L176.56 123.328
L176.917 119.483
L177.23 113.503
L177.453 105.365
L177.587 94.8521
L177.676 67.5026
L177.72 81.0913
L177.899 104.188
L178.211 115.287
L178.613 121.735
L179.015 125.13
L179.416 126.821
L179.684 127.22
L179.863 127.187
L180.086 126.806
L180.353 125.812
L180.666 123.762
L181.023 119.722
L181.335 113.326
L181.558 104.186
L181.692 90.4844
L181.737 76.6733
L181.782 76.9265
L181.96 104.28
L182.272 115.777
L182.674 122.333
L183.076 125.758
L183.433 127.329
L183.7 127.805
L183.879 127.816
L184.057 127.581
L184.325 126.743
L184.638 124.907
L184.995 121.23
L185.307 115.514
L185.53 107.909
L185.709 93.0012
L185.798 70.1566
L185.976 104.378
L186.289 116.276
L186.69 122.937
L187.092 126.387
L187.449 127.952
L187.717 128.409
L187.895 128.401
L188.074 128.14
L188.342 127.247
L188.654 125.311
L189.011 121.423
L189.323 115.267
L189.547 106.659
L189.68 94.7515
L189.77 61.7142
L189.814 88.5294
L190.037 109.597
L190.35 118.816
L190.751 124.553
L191.153 127.538
L191.51 128.789
L191.733 129.023
L191.912 128.922
L192.135 128.426
L192.403 127.234
L192.715 124.82
L193.027 120.755
L193.295 114.716
L193.518 104.518
L193.652 85.7075
L193.697 63.8322
L193.697 63.8322
L193.697 63.8322
L193.875 105.5
L194.188 117.628
L194.589 124.32
L194.991 127.735
L195.348 129.227
L195.616 129.603
L195.794 129.523
L196.017 129.044
L196.285 127.859
L196.598 125.431
L196.91 121.307
L197.178 115.121
L197.401 104.427
L197.49 94.3048
L197.579 77.2001
L197.758 107.016
L198.07 118.659
L198.472 125.188
L198.873 128.498
L199.231 129.896
L199.454 130.183
L199.632 130.107
L199.855 129.62
L200.123 128.404
L200.435 125.899
L200.748 121.606
L201.016 115.039
L201.239 102.98
L201.328 89.3089
L201.373 19.366
L201.417 89.2317
L201.64 111.622
L201.953 120.968
L202.354 126.687
L202.756 129.57
L203.068 130.59
L203.292 130.772
L203.47 130.601
L203.693 129.975
L204.006 128.219
L204.318 125.094
L204.63 119.596
L204.853 112.289
L205.032 98.5839
L205.077 89.7917
L205.121 42.3293
L205.121 42.3293
L205.121 42.3293
L205.255 103.912
L205.523 117.427
L205.88 124.802
L206.282 128.971
L206.639 130.805
L206.906 131.333
L207.085 131.317
L207.263 131.007
L207.531 129.944
L207.843 127.606
L208.156 123.509
L208.424 117.25
L208.647 106.173
L208.736 95.1423
L208.781 79.5743
L208.825 84.4509
L209.004 109.97
L209.316 121.254
L209.718 127.593
L210.119 130.698
L210.432 131.777
L210.655 131.956
L210.833 131.757
L211.057 131.058
L211.324 129.467
L211.637 126.221
L211.949 120.354
L212.172 112.166
L212.306 101.352
L212.395 68.3621
L212.44 89.7109
L212.618 111.502
L212.931 122.366
L213.333 128.535
L213.734 131.507
L214.047 132.466
L214.225 132.565
L214.404 132.345
L214.627 131.598
L214.894 129.9
L215.207 126.411
L215.519 119.938
L215.742 110.21
L215.876 93.6912
L215.921 61.5286
L215.965 91.6403
L216.189 114.891
L216.501 124.274
L216.903 129.869
L217.26 132.301
L217.572 133.15
L217.751 133.168
L217.929 132.847
L218.152 131.936
L218.465 129.505
L218.777 125.048
L219.045 117.825
L219.223 107.477
L219.312 94.0025
L219.357 48.1895
L219.402 93.3667
L219.625 115.986
L219.937 125.283
L220.339 130.794
L220.696 133.124
L220.964 133.809
L221.142 133.818
L221.321 133.468
L221.544 132.484
L221.856 129.854
L222.169 124.94
L222.436 116.527
L222.615 102.038
L222.704 74.8454
L222.883 112.69
L223.195 124.622
L223.552 130.498
L223.909 133.413
L224.221 134.462
L224.4 134.529
L224.578 134.215
L224.802 133.245
L225.069 131.06
L225.382 126.385
L225.649 118.426
L225.828 105.57
L225.917 74.1972
L225.962 93.4703
L226.14 115.543
L226.453 126.371
L226.81 131.864
L227.167 134.498
L227.435 135.242
L227.568 135.267
L227.702 135.061
L227.925 134.172
L228.193 132.038
L228.506 127.336
L228.773 119.145
L228.952 105.252
L229.041 65.8736
L229.086 98.1492
L229.309 119.663
L229.621 128.747
L229.978 133.562
L230.335 135.709
L230.558 136.078
L230.692 135.966
L230.871 135.413
L231.139 133.598
L231.406 130.166
L231.674 123.716
L231.853 114.901
L231.986 94.6693
L232.031 82.0103
L232.21 116.692
L232.477 127.356
L232.834 133.549
L233.191 136.314
L233.414 136.916
L233.548 136.908
L233.727 136.459
L233.95 135.117
L234.218 132.009
L234.486 126.061
L234.709 114.927
L234.798 103.329
L234.843 84.8046
L234.887 95.8165
L235.066 119.504
L235.378 130.42
L235.735 135.66
L236.047 137.605
L236.226 137.912
L236.36 137.781
L236.538 137.098
L236.761 135.298
L237.029 131.153
L237.252 124.434
L237.431 111.85
L237.52 82.9105
L237.565 98.9188
L237.743 121.535
L238.056 132.27
L238.413 137.288
L238.68 138.804
L238.859 138.995
L238.993 138.719
L239.171 137.742
L239.394 135.314
L239.662 129.509
L239.841 121.431
L239.975 104.976
L240.019 71.7732
L240.064 103.156
L240.287 126.31
L240.599 135.32
L240.912 139.146
L241.18 140.252
L241.269 140.242
L241.403 139.866
L241.581 138.616
L241.804 135.477
L242.027 129.209
L242.206 117.346
L242.295 94.5319
L242.34 100.697
L242.518 125.812
L242.786 135.671
L243.098 140.428
L243.366 141.744
L243.455 141.717
L243.589 141.226
L243.768 139.605
L243.991 135.351
L244.17 128.314
L244.303 115.455
L244.393 98.4627
L244.571 128.339
L244.839 138.443
L245.151 142.884
L245.33 143.562
L245.419 143.45
L245.553 142.675
L245.731 140.241
L245.955 133.246
L246.088 122.859
L246.178 89.1577
L246.222 111.732
L246.401 133.433
L246.669 142.547
L246.936 145.644
L247.026 145.812
L247.07 145.738
L247.204 144.82
L247.383 141.48
L247.561 133.208
L247.65 122.699
L247.695 107.698
L247.74 111.724
L247.918 137.737
L248.186 146.895
L248.409 148.737
L248.498 148.31
L248.632 146.078
L248.766 140.616
L248.9 122.902
L248.945 101.589
L248.945 101.589
L248.945 101.589
L249.123 143.413
L249.346 151.79
L249.48 152.784
L249.569 151.801
L249.703 146.055
L249.792 132.84
L249.837 108.002
L249.837 108.002
L249.837 108.002
L250.016 153.708
L250.194 159.237
L250.283 156.243
L250.328 150.595
L250.373 122.457
L250.373 122.457
L250.373 122.457
L250.551 177.266
L250.908 205.257
L251.488 232.953
L252.292 260.556
L253.318 287.927
L254.523 313.999
L255.862 338.254
L257.379 361.694
L258.986 383.112
L260.681 402.815
L262.466 420.969
L263.792 433
M290.443 433
L290.581 412.656
L290.67 370.217
L290.715 375.39
L290.894 428.214
L290.937 433
M315.161 433
L316.554 416.056
L317.937 396.462
L319.231 374.971
L320.436 351.32
L321.552 325.015
L322.534 296.514
L323.337 266.824
L323.962 235.712
L324.364 205.978
L324.587 174.171
L324.676 155.795
L324.765 167.777
L324.81 167.769
L324.899 163.123
L324.988 149.473
L325.033 111.205
L325.078 146.634
L325.256 161.449
L325.301 161.704
L325.301 161.704
L325.301 161.704
L325.39 160.343
L325.524 153.127
L325.613 139.951
L325.658 107.147
L325.702 137.289
L325.881 155.394
L326.059 157.826
L326.149 156.837
L326.282 152.565
L326.416 141.973
L326.461 133.912
L326.506 105.138
L326.55 130.736
L326.729 150.38
L326.952 155.132
L326.996 155.228
L327.041 155.101
L327.175 153.372
L327.353 146.964
L327.487 134.166
L327.577 115.533
L327.755 145.357
L327.978 152.249
L328.157 153.314
L328.246 152.835
L328.425 149.737
L328.603 142.099
L328.737 125.419
L328.782 88.5239
L328.826 123.892
L329.005 143.756
L329.272 150.976
L329.451 151.934
L329.54 151.61
L329.719 149.297
L329.897 143.873
L330.076 129.71
L330.165 101.422
L330.21 124.341
L330.433 144.012
L330.7 149.985
L330.879 150.907
L330.968 150.693
L331.102 149.521
L331.281 146.023
L331.459 138.605
L331.593 124.053
L331.638 106.703
L331.682 115.346
L331.861 139.188
L332.129 147.747
L332.352 149.996
L332.441 150.148
L332.486 150.079
L332.619 149.282
L332.798 146.648
L333.021 139.196
L333.155 128.364
L333.2 120.306
L333.244 90.3938
L333.289 117.737
L333.467 138.498
L333.735 146.896
L334.003 149.5
L334.092 149.595
L334.181 149.338
L334.36 147.705
L334.583 142.846
L334.762 134.16
L334.895 112.591
L334.94 105.251
L335.119 136.198
L335.386 145.677
L335.654 148.889
L335.788 149.223
L335.877 149.035
L336.056 147.627
L336.279 143.369
L336.457 136.134
L336.591 122.823
L336.68 107.713
L336.859 135.83
L337.127 145.227
L337.394 148.544
L337.528 148.973
L337.573 148.959
L337.707 148.446
L337.885 146.553
L338.109 141.406
L338.287 132.269
L338.376 121.427
L338.421 106.372
L338.466 109.996
L338.644 135.708
L338.912 144.98
L339.18 148.342
L339.358 148.832
L339.447 148.623
L339.626 147.247
L339.849 143.208
L340.072 133.849
L340.206 116.571
L340.251 61.6157
L340.251 61.6157
L340.251 61.6157
L340.384 130.405
L340.652 143.193
L340.965 148.052
L341.143 148.781
L341.232 148.697
L341.366 148.004
L341.589 145.073
L341.813 138.501
L341.991 124.915
L342.036 115.922
L342.08 80.3338
L342.08 80.3338
L342.08 80.3338
L342.214 130.493
L342.482 143.184
L342.794 148.053
L342.973 148.803
L343.062 148.732
L343.196 148.064
L343.419 145.195
L343.642 138.758
L343.821 125.68
L343.865 117.427
L343.91 82.082
L343.955 115.859
L344.133 136.366
L344.401 145.137
L344.669 148.405
L344.847 148.896
L344.936 148.698
L345.115 147.364
L345.338 143.432
L345.561 134.369
L345.695 118.421
L345.74 91.9627
L345.784 114.99
L345.963 136.35
L346.231 145.239
L346.498 148.542
L346.677 149.037
L346.766 148.837
L346.945 147.487
L347.168 143.492
L347.391 134.183
L347.525 116.96
L347.569 58.5265
L347.569 58.5265
L347.569 58.5265
L347.703 130.78
L347.971 143.618
L348.283 148.504
L348.462 149.225
L348.551 149.128
L348.685 148.398
L348.908 145.319
L349.131 138.276
L349.265 128.665
L349.354 108.045
L349.399 109.453
L349.578 136.105
L349.845 145.522
L350.113 148.952
L350.292 149.455
L350.381 149.239
L350.559 147.807
L350.782 143.539
L350.961 136.236
L351.095 122.461
L351.139 107.831
L351.184 110.426
L351.363 136.593
L351.63 145.942
L351.898 149.291
L352.032 149.725
L352.077 149.709
L352.211 149.174
L352.389 147.185
L352.612 141.65
L352.791 131.132
L352.88 115.638
L352.925 97.916
L352.925 97.916
L352.925 97.916
L353.103 136.107
L353.371 146.074
L353.639 149.572
L353.772 150.027
L353.817 150.012
L353.951 149.461
L354.129 147.394
L354.353 141.568
L354.531 129.984
L354.62 108.696
L354.665 111.653
L354.843 137.67
L355.111 146.925
L355.379 150.08
L355.513 150.358
L355.602 150.109
L355.781 148.476
L356.004 143.493
L356.182 134.179
L356.272 122.506
L356.316 103.151
L356.361 115.642
L356.539 138.736
L356.807 147.641
L357.075 150.555
L357.164 150.731
L357.209 150.683
L357.343 149.978
L357.521 147.52
L357.744 140.404
L357.878 130.074
L357.967 100.819
L358.012 117.287
L358.19 139.562
L358.458 148.303
L358.726 151.025
L358.815 151.111
L358.905 150.811
L359.083 148.936
L359.306 143.092
L359.485 130.75
L359.574 100.837
L359.619 118.228
L359.797 140.33
L360.065 148.971
L360.288 151.358
L360.377 151.548
L360.422 151.491
L360.556 150.692
L360.734 147.885
L360.913 141.81
L361.047 131.4
L361.136 99.844
L361.18 119.45
L361.359 141.19
L361.627 149.692
L361.85 151.895
L361.939 151.979
L362.028 151.628
L362.207 149.458
L362.385 144.445
L362.564 131.707
L362.609 123.573
L362.653 90.6543
L362.698 121.684
L362.876 142.27
L363.144 150.502
L363.367 152.447
L363.412 152.475
L363.456 152.388
L363.59 151.4
L363.769 147.993
L363.947 140.141
L364.081 121.768
L364.126 98.5586
L364.126 98.5586
L364.126 98.5586
L364.304 141.121
L364.572 150.684
L364.795 152.931
L364.84 152.988
L364.884 152.921
L365.018 151.944
L365.197 148.397
L365.375 139.902
L365.465 129.536
L365.509 115.75
L365.554 116.109
L365.732 143.111
L366 151.804
L366.223 153.527
L366.313 153.257
L366.446 151.757
L366.625 146.931
L366.759 138.799
L366.848 124.616
L366.893 93.5565
L366.893 93.5565
L366.893 93.5565
L367.027 139.583
L367.294 151.511
L367.517 154.051
L367.562 154.097
L367.607 153.997
L367.741 152.772
L367.919 148.306
L368.098 136.005
L368.142 128.137
L368.187 100.276
L368.231 125.19
L368.41 146.151
L368.678 153.783
L368.812 154.693
L368.856 154.675
L368.945 154.152
L369.124 150.785
L369.303 141.578
L369.392 128.557
L369.436 91.1984
L369.481 127.308
L369.66 147.459
L369.927 154.717
L370.061 155.337
L370.15 154.868
L370.284 152.652
L370.463 145.038
L370.552 135.688
L370.641 114.49
L370.82 147.11
L371.043 154.705
L371.221 156.017
L371.311 155.491
L371.445 152.996
L371.623 143.982
L371.712 130.725
L371.757 78.3438
L371.802 130.43
L371.98 150.061
L372.203 156.171
L372.292 156.742
L372.337 156.703
L372.426 155.957
L372.56 152.81
L372.694 145.309
L372.783 131.938
L372.828 61.1791
L372.828 61.1791
L372.828 61.1791
L372.962 145.624
L373.185 155.897
L373.364 157.509
L373.453 156.824
L373.587 153.543
L373.721 145.216
L373.854 121.673
L374.033 151.514
L374.256 158.022
L374.345 158.327
L374.435 157.506
L374.568 153.603
L374.702 142.74
L374.792 111.201
L374.836 137.009
L375.059 156.472
L375.238 159.241
L375.327 158.659
L375.461 154.869
L375.595 143.425
L375.684 122.263
L375.863 154.614
L376.086 160.191
L376.13 160.094
L376.22 158.725
L376.354 152.409
L376.443 140.341
L376.487 112.839
L376.532 137.456
L376.711 157.686
L376.889 161.241
L376.978 160.306
L377.112 154.385
L377.201 142.455
L377.246 115.043
L377.291 139.593
L377.469 159.59
L377.603 162.364
L377.648 162.227
L377.737 160.251
L377.871 149.616
L377.96 129.152
L378.139 160.562
L378.272 163.628
L378.317 163.357
L378.406 160.635
L378.496 152.852
L378.585 126.333
L378.763 162.627
L378.853 164.941
L378.897 164.905
L378.986 162.208
L379.076 153.13
L379.12 138.89
L379.165 141.762
L379.343 165.657
L379.388 166.52
L379.433 166.389
L379.522 162.564
L379.656 140.104
L379.834 167.946
L379.879 168.359
L379.968 164.704
L380.058 142.389
L380.102 151.288
L380.281 170.433
L380.37 164.715
L380.459 150.766
L380.593 172.903
L380.638 172.2
L380.682 167.685
L380.727 150.698
L380.772 162.319
L380.861 176.018
L380.905 174.735
L380.995 164.419
L381.084 180.115
L381.129 166.842
L381.129 166.842
L381.129 166.842
L381.664 301.708
L382.244 373.368
L382.909 433
L382.909 433" style="fill:none;stroke:#00bfbf;stroke-linecap:square;"/>
   </g>
   <g id="matplotlib.axis_1">
    <g id="xtick_1">
     <g id="line2d_5">
      <path clip-path="url(#p7ff5b81e1d)" d="
M72 388.8
L72 43.2" style="fill:none;opacity:0.3;stroke:#808080;stroke-dasharray:1.000000,3.000000;stroke-dashoffset:0.0;stroke-width:0.5;"/>
     </g>
     <g id="line2d_6">
      <defs>
       <path d="
M0 0
L0 -4" id="m93b0483c22" style="stroke:#000000;stroke-width:0.5;"/>
      </defs>
      <g>
       <use style="stroke:#000000;stroke-width:0.5;" x="72.0" xlink:href="#m93b0483c22" y="388.8"/>
      </g>
     </g>
     <g id="line2d_7">
      <defs>
       <path d="
M0 0
L0 4" id="m741efc42ff" style="stroke:#000000;stroke-width:0.5;"/>
      </defs>
      <g>
       <use style="stroke:#000000;stroke-width:0.5;" x="72.0" xlink:href="#m741efc42ff" y="43.2"/>
      </g>
     </g>
     <g id="text_1">
      <!-- 0.0 -->
      <defs>
       <path d="
M31.7812 3.42188
Q39.2656 3.42188 42.9688 11.625
Q46.6875 19.8281 46.6875 36.375
Q46.6875 52.9844 42.9688 61.1875
Q39.2656 69.3906 31.7812 69.3906
Q24.3125 69.3906 20.5938 61.1875
Q16.8906 52.9844 16.8906 36.375
Q16.8906 19.8281 20.5938 11.625
Q24.3125 3.42188 31.7812 3.42188
M31.7812 -1.42188
Q19.9219 -1.42188 13.25 8.53125
Q6.59375 18.5 6.59375 36.375
Q6.59375 54.2969 13.25 64.25
Q19.9219 74.2188 31.7812 74.2188
Q43.7031 74.2188 50.3438 64.25
Q56.9844 54.2969 56.9844 36.375
Q56.9844 18.5 50.3438 8.53125
Q43.7031 -1.42188 31.7812 -1.42188" id="BitstreamVeraSerif-Roman-30"/>
       <path d="
M9.42188 5.07812
Q9.42188 7.8125 11.2812 9.71875
Q13.1406 11.625 15.9219 11.625
Q18.6094 11.625 20.5 9.71875
Q22.4062 7.8125 22.4062 5.07812
Q22.4062 2.39062 20.5 0.484375
Q18.6094 -1.42188 15.9219 -1.42188
Q13.1406 -1.42188 11.2812 0.453125
Q9.42188 2.34375 9.42188 5.07812" id="BitstreamVeraSerif-Roman-2e"/>
      </defs>
      <g transform="translate(60.33625 404.9575)scale(0.16 -0.16)">
       <use xlink:href="#BitstreamVeraSerif-Roman-30"/>
       <use x="63.623046875" xlink:href="#BitstreamVeraSerif-Roman-2e"/>
       <use x="95.41015625" xlink:href="#BitstreamVeraSerif-Roman-30"/>
      </g>
     </g>
    </g>
    <g id="xtick_2">
     <g id="line2d_8">
      <path clip-path="url(#p7ff5b81e1d)" d="
M161.28 388.8
L161.28 43.2" style="fill:none;opacity:0.3;stroke:#808080;stroke-dasharray:1.000000,3.000000;stroke-dashoffset:0.0;stroke-width:0.5;"/>
     </g>
     <g id="line2d_9">
      <g>
       <use style="stroke:#000000;stroke-width:0.5;" x="161.28" xlink:href="#m93b0483c22" y="388.8"/>
      </g>
     </g>
     <g id="line2d_10">
      <g>
       <use style="stroke:#000000;stroke-width:0.5;" x="161.28" xlink:href="#m741efc42ff" y="43.2"/>
      </g>
     </g>
     <g id="text_2">
      <!-- 0.5 -->
      <defs>
       <path d="
M50.2969 72.9062
L50.2969 64.8906
L16.8906 64.8906
L16.8906 44
Q19.4375 45.75 22.8281 46.625
Q26.2188 47.5156 30.4219 47.5156
Q42.2344 47.5156 49.0625 40.9688
Q55.9062 34.4219 55.9062 23.0938
Q55.9062 11.5312 49 5.04688
Q42.0938 -1.42188 29.5938 -1.42188
Q24.5625 -1.42188 19.2812 -0.1875
Q14.0156 1.03125 8.5 3.51562
L8.5 17.6719
L14.0156 17.6719
Q14.4531 10.75 18.4219 7.07812
Q22.4062 3.42188 29.5938 3.42188
Q37.3125 3.42188 41.4531 8.5
Q45.6094 13.5781 45.6094 23.0938
Q45.6094 32.5625 41.4844 37.6094
Q37.3594 42.6719 29.5938 42.6719
Q25.2031 42.6719 21.8438 41.1094
Q18.5 39.5469 15.9219 36.2812
L11.7188 36.2812
L11.7188 72.9062
z
" id="BitstreamVeraSerif-Roman-35"/>
      </defs>
      <g transform="translate(149.7025 404.9575)scale(0.16 -0.16)">
       <use xlink:href="#BitstreamVeraSerif-Roman-30"/>
       <use x="63.623046875" xlink:href="#BitstreamVeraSerif-Roman-2e"/>
       <use x="95.41015625" xlink:href="#BitstreamVeraSerif-Roman-35"/>
      </g>
     </g>
    </g>
    <g id="xtick_3">
     <g id="line2d_11">
      <path clip-path="url(#p7ff5b81e1d)" d="
M250.56 388.8
L250.56 43.2" style="fill:none;opacity:0.3;stroke:#808080;stroke-dasharray:1.000000,3.000000;stroke-dashoffset:0.0;stroke-width:0.5;"/>
     </g>
     <g id="line2d_12">
      <g>
       <use style="stroke:#000000;stroke-width:0.5;" x="250.56" xlink:href="#m93b0483c22" y="388.8"/>
      </g>
     </g>
     <g id="line2d_13">
      <g>
       <use style="stroke:#000000;stroke-width:0.5;" x="250.56" xlink:href="#m741efc42ff" y="43.2"/>
      </g>
     </g>
     <g id="text_3">
      <!-- 1.0 -->
      <defs>
       <path d="
M14.2031 0
L14.2031 5.17188
L26.9062 5.17188
L26.9062 65.8281
L12.2031 56.2969
L12.2031 62.7031
L29.9844 74.2188
L36.7188 74.2188
L36.7188 5.17188
L49.4219 5.17188
L49.4219 0
z
" id="BitstreamVeraSerif-Roman-31"/>
      </defs>
      <g transform="translate(239.345 404.9575)scale(0.16 -0.16)">
       <use xlink:href="#BitstreamVeraSerif-Roman-31"/>
       <use x="63.623046875" xlink:href="#BitstreamVeraSerif-Roman-2e"/>
       <use x="95.41015625" xlink:href="#BitstreamVeraSerif-Roman-30"/>
      </g>
     </g>
    </g>
    <g id="xtick_4">
     <g id="line2d_14">
      <path clip-path="url(#p7ff5b81e1d)" d="
M339.84 388.8
L339.84 43.2" style="fill:none;opacity:0.3;stroke:#808080;stroke-dasharray:1.000000,3.000000;stroke-dashoffset:0.0;stroke-width:0.5;"/>
     </g>
     <g id="line2d_15">
      <g>
       <use style="stroke:#000000;stroke-width:0.5;" x="339.84" xlink:href="#m93b0483c22" y="388.8"/>
      </g>
     </g>
     <g id="line2d_16">
      <g>
       <use style="stroke:#000000;stroke-width:0.5;" x="339.84" xlink:href="#m741efc42ff" y="43.2"/>
      </g>
     </g>
     <g id="text_4">
      <!-- 1.5 -->
      <g transform="translate(328.71125 404.9575)scale(0.16 -0.16)">
       <use xlink:href="#BitstreamVeraSerif-Roman-31"/>
       <use x="63.623046875" xlink:href="#BitstreamVeraSerif-Roman-2e"/>
       <use x="95.41015625" xlink:href="#BitstreamVeraSerif-Roman-35"/>
      </g>
     </g>
    </g>
    <g id="xtick_5">
     <g id="line2d_17">
      <path clip-path="url(#p7ff5b81e1d)" d="
M429.12 388.8
L429.12 43.2" style="fill:none;opacity:0.3;stroke:#808080;stroke-dasharray:1.000000,3.000000;stroke-dashoffset:0.0;stroke-width:0.5;"/>
     </g>
     <g id="line2d_18">
      <g>
       <use style="stroke:#000000;stroke-width:0.5;" x="429.12" xlink:href="#m93b0483c22" y="388.8"/>
      </g>
     </g>
     <g id="line2d_19">
      <g>
       <use style="stroke:#000000;stroke-width:0.5;" x="429.12" xlink:href="#m741efc42ff" y="43.2"/>
      </g>
     </g>
     <g id="text_5">
      <!-- 2.0 -->
      <defs>
       <path d="
M12.7969 55.5156
L7.32812 55.5156
L7.32812 68.5
Q12.5469 71.2969 17.8438 72.75
Q23.1406 74.2188 28.2188 74.2188
Q39.5938 74.2188 46.1875 68.7031
Q52.7812 63.1875 52.7812 53.7188
Q52.7812 43.0156 37.8438 28.125
Q36.6719 27 36.0781 26.4219
L17.6719 8.01562
L48.0938 8.01562
L48.0938 17
L53.8125 17
L53.8125 0
L6.78125 0
L6.78125 5.32812
L28.9062 27.3906
Q36.2344 34.7188 39.3594 40.8438
Q42.4844 46.9688 42.4844 53.7188
Q42.4844 61.0781 38.6406 65.2344
Q34.8125 69.3906 28.0781 69.3906
Q21.0938 69.3906 17.2812 65.9219
Q13.4844 62.4531 12.7969 55.5156" id="BitstreamVeraSerif-Roman-32"/>
      </defs>
      <g transform="translate(417.47125 404.9575)scale(0.16 -0.16)">
       <use xlink:href="#BitstreamVeraSerif-Roman-32"/>
       <use x="63.623046875" xlink:href="#BitstreamVeraSerif-Roman-2e"/>
       <use x="95.41015625" xlink:href="#BitstreamVeraSerif-Roman-30"/>
      </g>
     </g>
    </g>
    <g id="xtick_6">
     <g id="line2d_20">
      <path clip-path="url(#p7ff5b81e1d)" d="
M518.4 388.8
L518.4 43.2" style="fill:none;opacity:0.3;stroke:#808080;stroke-dasharray:1.000000,3.000000;stroke-dashoffset:0.0;stroke-width:0.5;"/>
     </g>
     <g id="line2d_21">
      <g>
       <use style="stroke:#000000;stroke-width:0.5;" x="518.4" xlink:href="#m93b0483c22" y="388.8"/>
      </g>
     </g>
     <g id="line2d_22">
      <g>
       <use style="stroke:#000000;stroke-width:0.5;" x="518.4" xlink:href="#m741efc42ff" y="43.2"/>
      </g>
     </g>
     <g id="text_6">
      <!-- 2.5 -->
      <g transform="translate(506.8375 404.9575)scale(0.16 -0.16)">
       <use xlink:href="#BitstreamVeraSerif-Roman-32"/>
       <use x="63.623046875" xlink:href="#BitstreamVeraSerif-Roman-2e"/>
       <use x="95.41015625" xlink:href="#BitstreamVeraSerif-Roman-35"/>
      </g>
     </g>
    </g>
    <g id="text_7">
     <!-- $\Omega$ -->
     <defs>
      <path d="
M7.71875 0
L4.39062 16.6094
L7.32812 16.6094
Q7.85938 13.7188 8.29688 11.5
Q8.73438 9.28125 9.4375 8.375
Q10.1562 7.46875 11.7188 7.17188
Q13.2812 6.89062 16.8906 6.89062
L23 6.89062
Q21.5312 12.5469 15.6875 21.6562
Q9.85938 30.7656 7.73438 34.8906
Q5.60938 39.0156 5.60938 45.5156
Q5.60938 53.0781 10.0938 58.7656
Q14.5938 64.4531 21.7031 67.4844
Q28.8125 70.5156 36.0781 70.5156
Q43.3125 70.5156 50.4062 67.4844
Q57.5156 64.4531 62 58.7188
Q66.5 52.9844 66.5 45.5156
Q66.5 40.4375 64.6406 35.9375
Q62.7969 31.4531 59.9062 26.9531
Q57.0312 22.4688 53.6875 16.9375
Q50.3438 11.4219 49.125 6.89062
L55.1719 6.89062
Q58.8438 6.89062 60.4531 7.17188
Q62.0625 7.46875 62.7344 8.375
Q63.4219 9.28125 63.8438 11.5
Q64.2656 13.7188 64.7969 16.6094
L67.6719 16.6094
L64.4062 0
L46.6875 0
Q45.7031 0 45.7031 1.3125
Q45.7031 6.39062 46.9375 11.2656
Q48.1875 16.1562 50.625 23.0938
Q53.0781 30.0312 54.4375 35.3281
Q55.8125 40.625 55.8125 45.5156
Q55.8125 51.5156 53.4688 56.6406
Q51.125 61.7656 46.625 64.8438
Q42.1406 67.9219 36.0781 67.9219
Q26.9531 67.9219 21.625 61.4062
Q16.3125 54.8906 16.3125 45.5156
Q16.3594 40.375 17.5312 35.8281
Q18.7031 31.2969 21.3125 23.7188
Q23.9219 16.1562 25.1719 11.2656
Q26.4219 6.39062 26.4219 1.3125
Q26.4219 0 25.3906 0
z
" id="Cmr10-ad"/>
     </defs>
     <g transform="translate(288.63 426.9621875)scale(0.18 -0.18)">
      <use transform="translate(0.0 0.484375)" xlink:href="#Cmr10-ad"/>
     </g>
    </g>
   </g>
   <g id="matplotlib.axis_2">
    <g id="ytick_1">
     <g id="line2d_23">
      <path clip-path="url(#p7ff5b81e1d)" d="
M72 388.8
L518.4 388.8" style="fill:none;opacity:0.3;stroke:#808080;stroke-dasharray:1.000000,3.000000;stroke-dashoffset:0.0;stroke-width:0.5;"/>
     </g>
     <g id="line2d_24">
      <defs>
       <path d="
M0 0
L4 0" id="m728421d6d4" style="stroke:#000000;stroke-width:0.5;"/>
      </defs>
      <g>
       <use style="stroke:#000000;stroke-width:0.5;" x="72.0" xlink:href="#m728421d6d4" y="388.8"/>
      </g>
     </g>
     <g id="line2d_25">
      <defs>
       <path d="
M0 0
L-4 0" id="mcb0005524f" style="stroke:#000000;stroke-width:0.5;"/>
      </defs>
      <g>
       <use style="stroke:#000000;stroke-width:0.5;" x="518.4" xlink:href="#mcb0005524f" y="388.8"/>
      </g>
     </g>
     <g id="text_8">
      <!-- $\mathdefault{10^{-9}}$ -->
      <defs>
       <path d="
M46.7812 32.6719
Q43.5 29 39.25 27.1875
Q35.0156 25.3906 29.6875 25.3906
Q18.8438 25.3906 12.5625 31.9375
Q6.29688 38.4844 6.29688 49.8125
Q6.29688 60.8906 13.1094 67.5469
Q19.9219 74.2188 31.2969 74.2188
Q43.6562 74.2188 50.2656 65.0156
Q56.8906 55.8125 56.8906 38.7188
Q56.8906 19.5781 49.0156 9.07812
Q41.1562 -1.42188 26.9062 -1.42188
Q23.0469 -1.42188 18.7969 -0.6875
Q14.5469 0.046875 10.1094 1.51562
L10.1094 13.625
L15.5781 13.625
Q16.2188 8.6875 19.3906 6.04688
Q22.5625 3.42188 27.875 3.42188
Q37.3594 3.42188 41.9844 10.5625
Q46.625 17.7188 46.7812 32.6719
M30.9062 69.3906
Q23.9688 69.3906 20.2812 64.3281
Q16.6094 59.2812 16.6094 49.8125
Q16.6094 40.3281 20.2812 35.25
Q23.9688 30.1719 30.9062 30.1719
Q37.8438 30.1719 41.5312 35.0781
Q45.2188 39.9844 45.2188 49.2188
Q45.2188 58.9375 41.5 64.1562
Q37.7969 69.3906 30.9062 69.3906" id="BitstreamVeraSerif-Roman-39"/>
       <path d="
M4.39062 30.6094
L29.3906 30.6094
L29.3906 23
L4.39062 23
z
" id="BitstreamVeraSerif-Roman-2d"/>
      </defs>
      <g transform="translate(33.44 393.7925)scale(0.16 -0.16)">
       <use transform="translate(0.0 0.21875)" xlink:href="#BitstreamVeraSerif-Roman-31"/>
       <use transform="translate(63.623046875 0.21875)" xlink:href="#BitstreamVeraSerif-Roman-30"/>
       <use transform="translate(127.24609375 50.046875)scale(0.7)" xlink:href="#BitstreamVeraSerif-Roman-2d"/>
       <use transform="translate(150.8984375 50.046875)scale(0.7)" xlink:href="#BitstreamVeraSerif-Roman-39"/>
      </g>
     </g>
    </g>
    <g id="ytick_2">
     <g id="line2d_26">
      <path clip-path="url(#p7ff5b81e1d)" d="
M72 302.4
L518.4 302.4" style="fill:none;opacity:0.3;stroke:#808080;stroke-dasharray:1.000000,3.000000;stroke-dashoffset:0.0;stroke-width:0.5;"/>
     </g>
     <g id="line2d_27">
      <g>
       <use style="stroke:#000000;stroke-width:0.5;" x="72.0" xlink:href="#m728421d6d4" y="302.4"/>
      </g>
     </g>
     <g id="line2d_28">
      <g>
       <use style="stroke:#000000;stroke-width:0.5;" x="518.4" xlink:href="#mcb0005524f" y="302.4"/>
      </g>
     </g>
     <g id="text_9">
      <!-- $\mathdefault{10^{-6}}$ -->
      <defs>
       <path d="
M32.7188 3.42188
Q39.5938 3.42188 43.2969 8.46875
Q47.0156 13.5312 47.0156 23
Q47.0156 32.4688 43.2969 37.5156
Q39.5938 42.5781 32.7188 42.5781
Q25.7344 42.5781 22.0625 37.6875
Q18.4062 32.8125 18.4062 23.5781
Q18.4062 13.875 22.1094 8.64062
Q25.8281 3.42188 32.7188 3.42188
M16.7969 40.1406
Q20.125 43.7969 24.3125 45.5938
Q28.5156 47.4062 33.7969 47.4062
Q44.6719 47.4062 51 40.8594
Q57.3281 34.3281 57.3281 23
Q57.3281 11.9219 50.5156 5.25
Q43.7031 -1.42188 32.3281 -1.42188
Q19.9688 -1.42188 13.3281 7.78125
Q6.6875 17 6.6875 34.0781
Q6.6875 53.2188 14.5469 63.7188
Q22.4062 74.2188 36.7188 74.2188
Q40.5781 74.2188 44.8281 73.4844
Q49.0781 72.75 53.5156 71.2969
L53.5156 59.2812
L48 59.2812
Q47.4062 64.2031 44.2344 66.7969
Q41.0625 69.3906 35.6875 69.3906
Q26.2188 69.3906 21.5781 62.2031
Q16.9375 55.0312 16.7969 40.1406" id="BitstreamVeraSerif-Roman-36"/>
      </defs>
      <g transform="translate(33.44 307.3925)scale(0.16 -0.16)">
       <use transform="translate(0.0 0.21875)" xlink:href="#BitstreamVeraSerif-Roman-31"/>
       <use transform="translate(63.623046875 0.21875)" xlink:href="#BitstreamVeraSerif-Roman-30"/>
       <use transform="translate(127.24609375 50.046875)scale(0.7)" xlink:href="#BitstreamVeraSerif-Roman-2d"/>
       <use transform="translate(150.8984375 50.046875)scale(0.7)" xlink:href="#BitstreamVeraSerif-Roman-36"/>
      </g>
     </g>
    </g>
    <g id="ytick_3">
     <g id="line2d_29">
      <path clip-path="url(#p7ff5b81e1d)" d="
M72 216
L518.4 216" style="fill:none;opacity:0.3;stroke:#808080;stroke-dasharray:1.000000,3.000000;stroke-dashoffset:0.0;stroke-width:0.5;"/>
     </g>
     <g id="line2d_30">
      <g>
       <use style="stroke:#000000;stroke-width:0.5;" x="72.0" xlink:href="#m728421d6d4" y="216.0"/>
      </g>
     </g>
     <g id="line2d_31">
      <g>
       <use style="stroke:#000000;stroke-width:0.5;" x="518.4" xlink:href="#mcb0005524f" y="216.0"/>
      </g>
     </g>
     <g id="text_10">
      <!-- $\mathdefault{10^{-3}}$ -->
      <defs>
       <path d="
M9.71875 69.8281
Q15.4375 71.9688 20.6719 73.0938
Q25.9219 74.2188 30.5156 74.2188
Q41.2188 74.2188 47.2188 69.5938
Q53.2188 64.9844 53.2188 56.7812
Q53.2188 50.2031 49.0625 45.7812
Q44.9219 41.3594 37.3125 39.7969
Q46.2969 38.5312 51.25 33.2812
Q56.2031 28.0312 56.2031 19.6719
Q56.2031 9.46875 49.3438 4.01562
Q42.4844 -1.42188 29.5938 -1.42188
Q23.875 -1.42188 18.4219 -0.1875
Q12.9844 1.03125 7.625 3.51562
L7.625 17.6719
L13.0938 17.6719
Q13.5781 10.6406 17.8281 7.03125
Q22.0781 3.42188 29.7812 3.42188
Q37.25 3.42188 41.5781 7.73438
Q45.9062 12.0625 45.9062 19.5781
Q45.9062 28.1719 41.4531 32.5938
Q37.0156 37.0156 28.4219 37.0156
L23.7812 37.0156
L23.7812 42
L26.2188 42
Q34.7656 42 39.0312 45.5312
Q43.3125 49.0781 43.3125 56.2031
Q43.3125 62.5938 39.7969 65.9844
Q36.2812 69.3906 29.6875 69.3906
Q23.0938 69.3906 19.4531 66.2656
Q15.8281 63.1406 15.1875 56.9844
L9.71875 56.9844
z
" id="BitstreamVeraSerif-Roman-33"/>
      </defs>
      <g transform="translate(33.44 220.9925)scale(0.16 -0.16)">
       <use transform="translate(0.0 0.21875)" xlink:href="#BitstreamVeraSerif-Roman-31"/>
       <use transform="translate(63.623046875 0.21875)" xlink:href="#BitstreamVeraSerif-Roman-30"/>
       <use transform="translate(127.24609375 50.046875)scale(0.7)" xlink:href="#BitstreamVeraSerif-Roman-2d"/>
       <use transform="translate(150.8984375 50.046875)scale(0.7)" xlink:href="#BitstreamVeraSerif-Roman-33"/>
      </g>
     </g>
    </g>
    <g id="ytick_4">
     <g id="line2d_32">
      <path clip-path="url(#p7ff5b81e1d)" d="
M72 129.6
L518.4 129.6" style="fill:none;opacity:0.3;stroke:#808080;stroke-dasharray:1.000000,3.000000;stroke-dashoffset:0.0;stroke-width:0.5;"/>
     </g>
     <g id="line2d_33">
      <g>
       <use style="stroke:#000000;stroke-width:0.5;" x="72.0" xlink:href="#m728421d6d4" y="129.6"/>
      </g>
     </g>
     <g id="line2d_34">
      <g>
       <use style="stroke:#000000;stroke-width:0.5;" x="518.4" xlink:href="#mcb0005524f" y="129.6"/>
      </g>
     </g>
     <g id="text_11">
      <!-- $\mathdefault{10^{0}}$ -->
      <g transform="translate(37.28 134.5925)scale(0.16 -0.16)">
       <use transform="translate(0.0 0.21875)" xlink:href="#BitstreamVeraSerif-Roman-31"/>
       <use transform="translate(63.623046875 0.21875)" xlink:href="#BitstreamVeraSerif-Roman-30"/>
       <use transform="translate(127.24609375 50.046875)scale(0.7)" xlink:href="#BitstreamVeraSerif-Roman-30"/>
      </g>
     </g>
    </g>
    <g id="ytick_5">
     <g id="line2d_35">
      <path clip-path="url(#p7ff5b81e1d)" d="
M72 43.2
L518.4 43.2" style="fill:none;opacity:0.3;stroke:#808080;stroke-dasharray:1.000000,3.000000;stroke-dashoffset:0.0;stroke-width:0.5;"/>
     </g>
     <g id="line2d_36">
      <g>
       <use style="stroke:#000000;stroke-width:0.5;" x="72.0" xlink:href="#m728421d6d4" y="43.2"/>
      </g>
     </g>
     <g id="line2d_37">
      <g>
       <use style="stroke:#000000;stroke-width:0.5;" x="518.4" xlink:href="#mcb0005524f" y="43.2"/>
      </g>
     </g>
     <g id="text_12">
      <!-- $\mathdefault{10^{3}}$ -->
      <g transform="translate(37.28 48.1925)scale(0.16 -0.16)">
       <use transform="translate(0.0 0.21875)" xlink:href="#BitstreamVeraSerif-Roman-31"/>
       <use transform="translate(63.623046875 0.21875)" xlink:href="#BitstreamVeraSerif-Roman-30"/>
       <use transform="translate(127.24609375 50.046875)scale(0.7)" xlink:href="#BitstreamVeraSerif-Roman-33"/>
      </g>
     </g>
    </g>
    <g id="ytick_6">
     <g id="line2d_38">
      <defs>
       <path d="
M0 0
L2 0" id="mf0c55a9a47" style="stroke:#000000;stroke-width:0.5;"/>
      </defs>
      <g>
       <use style="stroke:#000000;stroke-width:0.5;" x="72.0" xlink:href="#mf0c55a9a47" y="380.130336125"/>
      </g>
     </g>
     <g id="line2d_39">
      <defs>
       <path d="
M0 0
L-2 0" id="ma4f294b3af" style="stroke:#000000;stroke-width:0.5;"/>
      </defs>
      <g>
       <use style="stroke:#000000;stroke-width:0.5;" x="518.4" xlink:href="#ma4f294b3af" y="380.130336125"/>
      </g>
     </g>
    </g>
    <g id="ytick_7">
     <g id="line2d_40">
      <g>
       <use style="stroke:#000000;stroke-width:0.5;" x="72.0" xlink:href="#mf0c55a9a47" y="371.46067225"/>
      </g>
     </g>
     <g id="line2d_41">
      <g>
       <use style="stroke:#000000;stroke-width:0.5;" x="518.4" xlink:href="#ma4f294b3af" y="371.46067225"/>
      </g>
     </g>
    </g>
    <g id="ytick_8">
     <g id="line2d_42">
      <g>
       <use style="stroke:#000000;stroke-width:0.5;" x="72.0" xlink:href="#mf0c55a9a47" y="366.389243989"/>
      </g>
     </g>
     <g id="line2d_43">
      <g>
       <use style="stroke:#000000;stroke-width:0.5;" x="518.4" xlink:href="#ma4f294b3af" y="366.389243989"/>
      </g>
     </g>
    </g>
    <g id="ytick_9">
     <g id="line2d_44">
      <g>
       <use style="stroke:#000000;stroke-width:0.5;" x="72.0" xlink:href="#mf0c55a9a47" y="362.791008375"/>
      </g>
     </g>
     <g id="line2d_45">
      <g>
       <use style="stroke:#000000;stroke-width:0.5;" x="518.4" xlink:href="#ma4f294b3af" y="362.791008375"/>
      </g>
     </g>
    </g>
    <g id="ytick_10">
     <g id="line2d_46">
      <g>
       <use style="stroke:#000000;stroke-width:0.5;" x="72.0" xlink:href="#mf0c55a9a47" y="351.330336125"/>
      </g>
     </g>
     <g id="line2d_47">
      <g>
       <use style="stroke:#000000;stroke-width:0.5;" x="518.4" xlink:href="#ma4f294b3af" y="351.330336125"/>
      </g>
     </g>
    </g>
    <g id="ytick_11">
     <g id="line2d_48">
      <g>
       <use style="stroke:#000000;stroke-width:0.5;" x="72.0" xlink:href="#mf0c55a9a47" y="342.66067225"/>
      </g>
     </g>
     <g id="line2d_49">
      <g>
       <use style="stroke:#000000;stroke-width:0.5;" x="518.4" xlink:href="#ma4f294b3af" y="342.66067225"/>
      </g>
     </g>
    </g>
    <g id="ytick_12">
     <g id="line2d_50">
      <g>
       <use style="stroke:#000000;stroke-width:0.5;" x="72.0" xlink:href="#mf0c55a9a47" y="337.589243989"/>
      </g>
     </g>
     <g id="line2d_51">
      <g>
       <use style="stroke:#000000;stroke-width:0.5;" x="518.4" xlink:href="#ma4f294b3af" y="337.589243989"/>
      </g>
     </g>
    </g>
    <g id="ytick_13">
     <g id="line2d_52">
      <g>
       <use style="stroke:#000000;stroke-width:0.5;" x="72.0" xlink:href="#mf0c55a9a47" y="333.991008375"/>
      </g>
     </g>
     <g id="line2d_53">
      <g>
       <use style="stroke:#000000;stroke-width:0.5;" x="518.4" xlink:href="#ma4f294b3af" y="333.991008375"/>
      </g>
     </g>
    </g>
    <g id="ytick_14">
     <g id="line2d_54">
      <g>
       <use style="stroke:#000000;stroke-width:0.5;" x="72.0" xlink:href="#mf0c55a9a47" y="322.530336125"/>
      </g>
     </g>
     <g id="line2d_55">
      <g>
       <use style="stroke:#000000;stroke-width:0.5;" x="518.4" xlink:href="#ma4f294b3af" y="322.530336125"/>
      </g>
     </g>
    </g>
    <g id="ytick_15">
     <g id="line2d_56">
      <g>
       <use style="stroke:#000000;stroke-width:0.5;" x="72.0" xlink:href="#mf0c55a9a47" y="313.86067225"/>
      </g>
     </g>
     <g id="line2d_57">
      <g>
       <use style="stroke:#000000;stroke-width:0.5;" x="518.4" xlink:href="#ma4f294b3af" y="313.86067225"/>
      </g>
     </g>
    </g>
    <g id="ytick_16">
     <g id="line2d_58">
      <g>
       <use style="stroke:#000000;stroke-width:0.5;" x="72.0" xlink:href="#mf0c55a9a47" y="308.789243989"/>
      </g>
     </g>
     <g id="line2d_59">
      <g>
       <use style="stroke:#000000;stroke-width:0.5;" x="518.4" xlink:href="#ma4f294b3af" y="308.789243989"/>
      </g>
     </g>
    </g>
    <g id="ytick_17">
     <g id="line2d_60">
      <g>
       <use style="stroke:#000000;stroke-width:0.5;" x="72.0" xlink:href="#mf0c55a9a47" y="305.191008375"/>
      </g>
     </g>
     <g id="line2d_61">
      <g>
       <use style="stroke:#000000;stroke-width:0.5;" x="518.4" xlink:href="#ma4f294b3af" y="305.191008375"/>
      </g>
     </g>
    </g>
    <g id="ytick_18">
     <g id="line2d_62">
      <g>
       <use style="stroke:#000000;stroke-width:0.5;" x="72.0" xlink:href="#mf0c55a9a47" y="293.730336125"/>
      </g>
     </g>
     <g id="line2d_63">
      <g>
       <use style="stroke:#000000;stroke-width:0.5;" x="518.4" xlink:href="#ma4f294b3af" y="293.730336125"/>
      </g>
     </g>
    </g>
    <g id="ytick_19">
     <g id="line2d_64">
      <g>
       <use style="stroke:#000000;stroke-width:0.5;" x="72.0" xlink:href="#mf0c55a9a47" y="285.06067225"/>
      </g>
     </g>
     <g id="line2d_65">
      <g>
       <use style="stroke:#000000;stroke-width:0.5;" x="518.4" xlink:href="#ma4f294b3af" y="285.06067225"/>
      </g>
     </g>
    </g>
    <g id="ytick_20">
     <g id="line2d_66">
      <g>
       <use style="stroke:#000000;stroke-width:0.5;" x="72.0" xlink:href="#mf0c55a9a47" y="279.989243989"/>
      </g>
     </g>
     <g id="line2d_67">
      <g>
       <use style="stroke:#000000;stroke-width:0.5;" x="518.4" xlink:href="#ma4f294b3af" y="279.989243989"/>
      </g>
     </g>
    </g>
    <g id="ytick_21">
     <g id="line2d_68">
      <g>
       <use style="stroke:#000000;stroke-width:0.5;" x="72.0" xlink:href="#mf0c55a9a47" y="276.391008375"/>
      </g>
     </g>
     <g id="line2d_69">
      <g>
       <use style="stroke:#000000;stroke-width:0.5;" x="518.4" xlink:href="#ma4f294b3af" y="276.391008375"/>
      </g>
     </g>
    </g>
    <g id="ytick_22">
     <g id="line2d_70">
      <g>
       <use style="stroke:#000000;stroke-width:0.5;" x="72.0" xlink:href="#mf0c55a9a47" y="264.930336125"/>
      </g>
     </g>
     <g id="line2d_71">
      <g>
       <use style="stroke:#000000;stroke-width:0.5;" x="518.4" xlink:href="#ma4f294b3af" y="264.930336125"/>
      </g>
     </g>
    </g>
    <g id="ytick_23">
     <g id="line2d_72">
      <g>
       <use style="stroke:#000000;stroke-width:0.5;" x="72.0" xlink:href="#mf0c55a9a47" y="256.26067225"/>
      </g>
     </g>
     <g id="line2d_73">
      <g>
       <use style="stroke:#000000;stroke-width:0.5;" x="518.4" xlink:href="#ma4f294b3af" y="256.26067225"/>
      </g>
     </g>
    </g>
    <g id="ytick_24">
     <g id="line2d_74">
      <g>
       <use style="stroke:#000000;stroke-width:0.5;" x="72.0" xlink:href="#mf0c55a9a47" y="251.189243989"/>
      </g>
     </g>
     <g id="line2d_75">
      <g>
       <use style="stroke:#000000;stroke-width:0.5;" x="518.4" xlink:href="#ma4f294b3af" y="251.189243989"/>
      </g>
     </g>
    </g>
    <g id="ytick_25">
     <g id="line2d_76">
      <g>
       <use style="stroke:#000000;stroke-width:0.5;" x="72.0" xlink:href="#mf0c55a9a47" y="247.591008375"/>
      </g>
     </g>
     <g id="line2d_77">
      <g>
       <use style="stroke:#000000;stroke-width:0.5;" x="518.4" xlink:href="#ma4f294b3af" y="247.591008375"/>
      </g>
     </g>
    </g>
    <g id="ytick_26">
     <g id="line2d_78">
      <g>
       <use style="stroke:#000000;stroke-width:0.5;" x="72.0" xlink:href="#mf0c55a9a47" y="236.130336125"/>
      </g>
     </g>
     <g id="line2d_79">
      <g>
       <use style="stroke:#000000;stroke-width:0.5;" x="518.4" xlink:href="#ma4f294b3af" y="236.130336125"/>
      </g>
     </g>
    </g>
    <g id="ytick_27">
     <g id="line2d_80">
      <g>
       <use style="stroke:#000000;stroke-width:0.5;" x="72.0" xlink:href="#mf0c55a9a47" y="227.46067225"/>
      </g>
     </g>
     <g id="line2d_81">
      <g>
       <use style="stroke:#000000;stroke-width:0.5;" x="518.4" xlink:href="#ma4f294b3af" y="227.46067225"/>
      </g>
     </g>
    </g>
    <g id="ytick_28">
     <g id="line2d_82">
      <g>
       <use style="stroke:#000000;stroke-width:0.5;" x="72.0" xlink:href="#mf0c55a9a47" y="222.389243989"/>
      </g>
     </g>
     <g id="line2d_83">
      <g>
       <use style="stroke:#000000;stroke-width:0.5;" x="518.4" xlink:href="#ma4f294b3af" y="222.389243989"/>
      </g>
     </g>
    </g>
    <g id="ytick_29">
     <g id="line2d_84">
      <g>
       <use style="stroke:#000000;stroke-width:0.5;" x="72.0" xlink:href="#mf0c55a9a47" y="218.791008375"/>
      </g>
     </g>
     <g id="line2d_85">
      <g>
       <use style="stroke:#000000;stroke-width:0.5;" x="518.4" xlink:href="#ma4f294b3af" y="218.791008375"/>
      </g>
     </g>
    </g>
    <g id="ytick_30">
     <g id="line2d_86">
      <g>
       <use style="stroke:#000000;stroke-width:0.5;" x="72.0" xlink:href="#mf0c55a9a47" y="207.330336125"/>
      </g>
     </g>
     <g id="line2d_87">
      <g>
       <use style="stroke:#000000;stroke-width:0.5;" x="518.4" xlink:href="#ma4f294b3af" y="207.330336125"/>
      </g>
     </g>
    </g>
    <g id="ytick_31">
     <g id="line2d_88">
      <g>
       <use style="stroke:#000000;stroke-width:0.5;" x="72.0" xlink:href="#mf0c55a9a47" y="198.66067225"/>
      </g>
     </g>
     <g id="line2d_89">
      <g>
       <use style="stroke:#000000;stroke-width:0.5;" x="518.4" xlink:href="#ma4f294b3af" y="198.66067225"/>
      </g>
     </g>
    </g>
    <g id="ytick_32">
     <g id="line2d_90">
      <g>
       <use style="stroke:#000000;stroke-width:0.5;" x="72.0" xlink:href="#mf0c55a9a47" y="193.589243989"/>
      </g>
     </g>
     <g id="line2d_91">
      <g>
       <use style="stroke:#000000;stroke-width:0.5;" x="518.4" xlink:href="#ma4f294b3af" y="193.589243989"/>
      </g>
     </g>
    </g>
    <g id="ytick_33">
     <g id="line2d_92">
      <g>
       <use style="stroke:#000000;stroke-width:0.5;" x="72.0" xlink:href="#mf0c55a9a47" y="189.991008375"/>
      </g>
     </g>
     <g id="line2d_93">
      <g>
       <use style="stroke:#000000;stroke-width:0.5;" x="518.4" xlink:href="#ma4f294b3af" y="189.991008375"/>
      </g>
     </g>
    </g>
    <g id="ytick_34">
     <g id="line2d_94">
      <g>
       <use style="stroke:#000000;stroke-width:0.5;" x="72.0" xlink:href="#mf0c55a9a47" y="178.530336125"/>
      </g>
     </g>
     <g id="line2d_95">
      <g>
       <use style="stroke:#000000;stroke-width:0.5;" x="518.4" xlink:href="#ma4f294b3af" y="178.530336125"/>
      </g>
     </g>
    </g>
    <g id="ytick_35">
     <g id="line2d_96">
      <g>
       <use style="stroke:#000000;stroke-width:0.5;" x="72.0" xlink:href="#mf0c55a9a47" y="169.86067225"/>
      </g>
     </g>
     <g id="line2d_97">
      <g>
       <use style="stroke:#000000;stroke-width:0.5;" x="518.4" xlink:href="#ma4f294b3af" y="169.86067225"/>
      </g>
     </g>
    </g>
    <g id="ytick_36">
     <g id="line2d_98">
      <g>
       <use style="stroke:#000000;stroke-width:0.5;" x="72.0" xlink:href="#mf0c55a9a47" y="164.789243989"/>
      </g>
     </g>
     <g id="line2d_99">
      <g>
       <use style="stroke:#000000;stroke-width:0.5;" x="518.4" xlink:href="#ma4f294b3af" y="164.789243989"/>
      </g>
     </g>
    </g>
    <g id="ytick_37">
     <g id="line2d_100">
      <g>
       <use style="stroke:#000000;stroke-width:0.5;" x="72.0" xlink:href="#mf0c55a9a47" y="161.191008375"/>
      </g>
     </g>
     <g id="line2d_101">
      <g>
       <use style="stroke:#000000;stroke-width:0.5;" x="518.4" xlink:href="#ma4f294b3af" y="161.191008375"/>
      </g>
     </g>
    </g>
    <g id="ytick_38">
     <g id="line2d_102">
      <g>
       <use style="stroke:#000000;stroke-width:0.5;" x="72.0" xlink:href="#mf0c55a9a47" y="149.730336125"/>
      </g>
     </g>
     <g id="line2d_103">
      <g>
       <use style="stroke:#000000;stroke-width:0.5;" x="518.4" xlink:href="#ma4f294b3af" y="149.730336125"/>
      </g>
     </g>
    </g>
    <g id="ytick_39">
     <g id="line2d_104">
      <g>
       <use style="stroke:#000000;stroke-width:0.5;" x="72.0" xlink:href="#mf0c55a9a47" y="141.06067225"/>
      </g>
     </g>
     <g id="line2d_105">
      <g>
       <use style="stroke:#000000;stroke-width:0.5;" x="518.4" xlink:href="#ma4f294b3af" y="141.06067225"/>
      </g>
     </g>
    </g>
    <g id="ytick_40">
     <g id="line2d_106">
      <g>
       <use style="stroke:#000000;stroke-width:0.5;" x="72.0" xlink:href="#mf0c55a9a47" y="135.989243989"/>
      </g>
     </g>
     <g id="line2d_107">
      <g>
       <use style="stroke:#000000;stroke-width:0.5;" x="518.4" xlink:href="#ma4f294b3af" y="135.989243989"/>
      </g>
     </g>
    </g>
    <g id="ytick_41">
     <g id="line2d_108">
      <g>
       <use style="stroke:#000000;stroke-width:0.5;" x="72.0" xlink:href="#mf0c55a9a47" y="132.391008375"/>
      </g>
     </g>
     <g id="line2d_109">
      <g>
       <use style="stroke:#000000;stroke-width:0.5;" x="518.4" xlink:href="#ma4f294b3af" y="132.391008375"/>
      </g>
     </g>
    </g>
    <g id="ytick_42">
     <g id="line2d_110">
      <g>
       <use style="stroke:#000000;stroke-width:0.5;" x="72.0" xlink:href="#mf0c55a9a47" y="120.930336125"/>
      </g>
     </g>
     <g id="line2d_111">
      <g>
       <use style="stroke:#000000;stroke-width:0.5;" x="518.4" xlink:href="#ma4f294b3af" y="120.930336125"/>
      </g>
     </g>
    </g>
    <g id="ytick_43">
     <g id="line2d_112">
      <g>
       <use style="stroke:#000000;stroke-width:0.5;" x="72.0" xlink:href="#mf0c55a9a47" y="112.26067225"/>
      </g>
     </g>
     <g id="line2d_113">
      <g>
       <use style="stroke:#000000;stroke-width:0.5;" x="518.4" xlink:href="#ma4f294b3af" y="112.26067225"/>
      </g>
     </g>
    </g>
    <g id="ytick_44">
     <g id="line2d_114">
      <g>
       <use style="stroke:#000000;stroke-width:0.5;" x="72.0" xlink:href="#mf0c55a9a47" y="107.189243989"/>
      </g>
     </g>
     <g id="line2d_115">
      <g>
       <use style="stroke:#000000;stroke-width:0.5;" x="518.4" xlink:href="#ma4f294b3af" y="107.189243989"/>
      </g>
     </g>
    </g>
    <g id="ytick_45">
     <g id="line2d_116">
      <g>
       <use style="stroke:#000000;stroke-width:0.5;" x="72.0" xlink:href="#mf0c55a9a47" y="103.591008375"/>
      </g>
     </g>
     <g id="line2d_117">
      <g>
       <use style="stroke:#000000;stroke-width:0.5;" x="518.4" xlink:href="#ma4f294b3af" y="103.591008375"/>
      </g>
     </g>
    </g>
    <g id="ytick_46">
     <g id="line2d_118">
      <g>
       <use style="stroke:#000000;stroke-width:0.5;" x="72.0" xlink:href="#mf0c55a9a47" y="92.1303361249"/>
      </g>
     </g>
     <g id="line2d_119">
      <g>
       <use style="stroke:#000000;stroke-width:0.5;" x="518.4" xlink:href="#ma4f294b3af" y="92.1303361249"/>
      </g>
     </g>
    </g>
    <g id="ytick_47">
     <g id="line2d_120">
      <g>
       <use style="stroke:#000000;stroke-width:0.5;" x="72.0" xlink:href="#mf0c55a9a47" y="83.4606722498"/>
      </g>
     </g>
     <g id="line2d_121">
      <g>
       <use style="stroke:#000000;stroke-width:0.5;" x="518.4" xlink:href="#ma4f294b3af" y="83.4606722498"/>
      </g>
     </g>
    </g>
    <g id="ytick_48">
     <g id="line2d_122">
      <g>
       <use style="stroke:#000000;stroke-width:0.5;" x="72.0" xlink:href="#mf0c55a9a47" y="78.389243989"/>
      </g>
     </g>
     <g id="line2d_123">
      <g>
       <use style="stroke:#000000;stroke-width:0.5;" x="518.4" xlink:href="#ma4f294b3af" y="78.389243989"/>
      </g>
     </g>
    </g>
    <g id="ytick_49">
     <g id="line2d_124">
      <g>
       <use style="stroke:#000000;stroke-width:0.5;" x="72.0" xlink:href="#mf0c55a9a47" y="74.7910083746"/>
      </g>
     </g>
     <g id="line2d_125">
      <g>
       <use style="stroke:#000000;stroke-width:0.5;" x="518.4" xlink:href="#ma4f294b3af" y="74.7910083746"/>
      </g>
     </g>
    </g>
    <g id="ytick_50">
     <g id="line2d_126">
      <g>
       <use style="stroke:#000000;stroke-width:0.5;" x="72.0" xlink:href="#mf0c55a9a47" y="63.3303361249"/>
      </g>
     </g>
     <g id="line2d_127">
      <g>
       <use style="stroke:#000000;stroke-width:0.5;" x="518.4" xlink:href="#ma4f294b3af" y="63.3303361249"/>
      </g>
     </g>
    </g>
    <g id="ytick_51">
     <g id="line2d_128">
      <g>
       <use style="stroke:#000000;stroke-width:0.5;" x="72.0" xlink:href="#mf0c55a9a47" y="54.6606722498"/>
      </g>
     </g>
     <g id="line2d_129">
      <g>
       <use style="stroke:#000000;stroke-width:0.5;" x="518.4" xlink:href="#ma4f294b3af" y="54.6606722498"/>
      </g>
     </g>
    </g>
    <g id="ytick_52">
     <g id="line2d_130">
      <g>
       <use style="stroke:#000000;stroke-width:0.5;" x="72.0" xlink:href="#mf0c55a9a47" y="49.589243989"/>
      </g>
     </g>
     <g id="line2d_131">
      <g>
       <use style="stroke:#000000;stroke-width:0.5;" x="518.4" xlink:href="#ma4f294b3af" y="49.589243989"/>
      </g>
     </g>
    </g>
    <g id="ytick_53">
     <g id="line2d_132">
      <g>
       <use style="stroke:#000000;stroke-width:0.5;" x="72.0" xlink:href="#mf0c55a9a47" y="45.9910083746"/>
      </g>
     </g>
     <g id="line2d_133">
      <g>
       <use style="stroke:#000000;stroke-width:0.5;" x="518.4" xlink:href="#ma4f294b3af" y="45.9910083746"/>
      </g>
     </g>
    </g>
    <g id="text_13">
     <!-- $u_N/\hat{f}_0$ -->
     <defs>
      <path d="
M13.4844 53.8125
L11.5312 55.9062
L25 69.3906
L38.375 55.9062
L36.375 53.8125
L25 63.8125
z
" id="Cmr10-5e"/>
      <path d="
M4.6875 0
Q3.71875 0 3.71875 1.3125
Q3.76562 1.5625 3.90625 2.17188
Q4.04688 2.78125 4.3125 3.14062
Q4.59375 3.51562 4.98438 3.51562
Q14.5469 3.51562 16.1094 9.625
L29.6875 64.3125
Q26.9062 64.7969 20.9062 64.7969
Q19.9219 64.7969 19.9219 66.1094
Q19.9688 66.3594 20.1094 66.9688
Q20.2656 67.5781 20.5312 67.9375
Q20.7969 68.3125 21.1875 68.3125
L38.4844 68.3125
Q39.2031 68.3125 39.4062 67.6719
L61.625 14.7969
L72.7031 59.0781
Q72.9062 60.1562 72.9062 60.5938
Q72.9062 64.7969 65.1875 64.7969
Q64.2031 64.7969 64.2031 66.1094
Q64.5469 67.3906 64.7344 67.8438
Q64.9375 68.3125 65.9219 68.3125
L87.3125 68.3125
Q88.2812 68.3125 88.2812 67
Q88.2344 66.75 88.0781 66.1406
Q87.9375 65.5312 87.6719 65.1562
Q87.4062 64.7969 87.0156 64.7969
Q77.4375 64.7969 75.875 58.6875
L61.5312 0.875
Q61.1875 0 60.5 0
L59.2812 0
Q58.5938 0 58.4062 0.6875
L32.9062 61.1875
L32.7188 61.8125
Q32.5156 62.0156 32.5156 62.1094
L19.2812 9.1875
Q19.1875 8.9375 19.1406 8.5625
Q19.0938 8.20312 19 7.71875
Q19 5.125 21.2344 4.3125
Q23.4844 3.51562 26.8125 3.51562
Q27.7812 3.51562 27.7812 2.20312
Q27.4375 0.828125 27.1875 0.40625
Q26.9531 0 26.125 0
z
" id="Cmmi10-4e"/>
      <path d="
M25 -2.20312
Q12.75 -2.20312 8.32812 7.875
Q3.90625 17.9688 3.90625 31.8906
Q3.90625 40.5781 5.48438 48.2344
Q7.07812 55.9062 11.7812 61.25
Q16.5 66.6094 25 66.6094
Q31.5938 66.6094 35.7812 63.375
Q39.9844 60.1562 42.1875 55.0469
Q44.3906 49.9531 45.1875 44.1094
Q46 38.2812 46 31.8906
Q46 23.2969 44.4062 15.7969
Q42.8281 8.29688 38.1875 3.04688
Q33.5469 -2.20312 25 -2.20312
M25 0.390625
Q30.5625 0.390625 33.2969 6.09375
Q36.0312 11.8125 36.6719 18.75
Q37.3125 25.6875 37.3125 33.5
Q37.3125 41.0156 36.6719 47.3594
Q36.0312 53.7188 33.3125 58.8594
Q30.6094 64.0156 25 64.0156
Q19.3438 64.0156 16.6094 58.8281
Q13.875 53.6562 13.2344 47.3281
Q12.5938 41.0156 12.5938 33.5
Q12.5938 27.9375 12.8594 23
Q13.1406 18.0625 14.3125 12.8125
Q15.4844 7.5625 18.0938 3.96875
Q20.7031 0.390625 25 0.390625" id="Cmr10-30"/>
      <path d="
M10.5938 10.8906
Q10.5938 14.1562 11.4688 17.5938
Q12.3594 21.0469 13.9375 25.2656
Q15.5312 29.5 16.7031 32.625
Q18.0156 36.2812 18.0156 38.625
Q18.0156 41.6094 15.8281 41.6094
Q11.8594 41.6094 9.29688 37.5312
Q6.73438 33.4531 5.51562 28.4219
Q5.32812 27.7812 4.6875 27.7812
L3.51562 27.7812
Q2.6875 27.7812 2.6875 28.7188
L2.6875 29
Q4.29688 34.9688 7.60938 39.5781
Q10.9375 44.1875 16.0156 44.1875
Q19.5781 44.1875 22.0469 41.8438
Q24.5156 39.5 24.5156 35.8906
Q24.5156 34.0312 23.6875 31.9844
Q23.25 30.7656 21.6875 26.6562
Q20.125 22.5625 19.2812 19.875
Q18.4531 17.1875 17.9219 14.5938
Q17.3906 12.0156 17.3906 9.42188
Q17.3906 6.10938 18.7969 3.8125
Q20.2188 1.51562 23.3906 1.51562
Q29.7812 1.51562 34.625 9.42188
Q34.7188 9.8125 34.7812 10.1719
Q34.8594 10.5469 34.9062 10.8906
L42.0938 39.8906
Q42.4375 41.2188 43.6562 42.1562
Q44.875 43.1094 46.2969 43.1094
Q47.5156 43.1094 48.4062 42.3281
Q49.3125 41.5469 49.3125 40.2812
Q49.3125 39.7031 49.2188 39.5
L42 10.6875
Q41.3125 7.71875 41.3125 5.8125
Q41.3125 1.51562 44.1875 1.51562
Q47.4062 1.51562 49 5.48438
Q50.5938 9.46875 51.7031 14.7031
Q51.9062 15.2812 52.4844 15.2812
L53.7188 15.2812
Q54.1094 15.2812 54.3438 14.9375
Q54.5938 14.5938 54.5938 14.3125
Q53.5156 10.0156 52.5156 6.9375
Q51.5156 3.85938 49.3594 1.35938
Q47.2188 -1.125 44 -1.125
Q40.8281 -1.125 38.3125 0.609375
Q35.7969 2.34375 34.9062 5.32812
Q32.625 2.39062 29.5938 0.625
Q26.5625 -1.125 23.1875 -1.125
Q17.4375 -1.125 14.0156 2.01562
Q10.5938 5.17188 10.5938 10.8906" id="Cmmi10-75"/>
      <path d="
M9.71875 -16.5
Q11.5781 -17.9219 14.2031 -17.9219
Q17.7812 -17.9219 20.0156 -10.0156
Q20.9531 -6.20312 25.0938 15.0938
L29.6875 39.5938
L21.0938 39.5938
Q20.125 39.5938 20.125 40.9219
Q20.5156 43.1094 21.3906 43.1094
L30.3281 43.1094
L31.5 49.6094
Q32.0781 52.6406 32.5625 54.8125
Q33.0625 56.9844 33.625 58.8281
Q34.1875 60.6875 35.2969 62.9844
Q37.0156 66.2656 39.9219 68.3906
Q42.8281 70.5156 46.1875 70.5156
Q48.3906 70.5156 50.4688 69.7031
Q52.5469 68.8906 53.8594 67.2812
Q55.1719 65.6719 55.1719 63.4844
Q55.1719 60.9375 53.4844 59.0469
Q51.8125 57.1719 49.4219 57.1719
Q47.7969 57.1719 46.6562 58.1719
Q45.5156 59.1875 45.5156 60.7969
Q45.5156 62.9844 47 64.625
Q48.4844 66.2656 50.6875 66.5
Q48.8281 67.9219 46.0938 67.9219
Q44.5781 67.9219 43.2344 66.5
Q41.8906 65.0938 41.5 63.4844
Q40.875 60.9375 38.7188 49.7031
L37.5 43.1094
L47.7969 43.1094
Q48.7812 43.1094 48.7812 41.7969
Q48.7344 41.5469 48.5781 40.9375
Q48.4375 40.3281 48.1719 39.9531
Q47.9062 39.5938 47.5156 39.5938
L36.8125 39.5938
L32.1719 15.1875
Q31.2969 9.85938 30.1406 4.35938
Q29 -1.125 26.9219 -6.90625
Q24.8594 -12.7031 21.625 -16.6094
Q18.4062 -20.5156 14.0156 -20.5156
Q10.6406 -20.5156 7.98438 -18.5781
Q5.32812 -16.6562 5.32812 -13.4844
Q5.32812 -10.9375 6.95312 -9.04688
Q8.59375 -7.17188 11.0781 -7.17188
Q12.75 -7.17188 13.8594 -8.17188
Q14.9844 -9.1875 14.9844 -10.7969
Q14.9844 -12.9375 13.3906 -14.7188
Q11.8125 -16.5 9.71875 -16.5" id="Cmmi10-66"/>
      <path d="
M5.60938 -23
Q5.60938 -22.7031 5.71875 -22.6094
L40.4844 73.7812
Q40.6719 74.3594 41.1562 74.6719
Q41.6562 75 42.2812 75
Q43.1719 75 43.7188 74.4531
Q44.2812 73.9219 44.2812 73
L44.2812 72.6094
L9.51562 -23.7812
Q8.9375 -25 7.625 -25
Q6.78125 -25 6.1875 -24.4062
Q5.60938 -23.8281 5.60938 -23" id="Cmmi10-3d"/>
     </defs>
     <g transform="translate(23.4 241.83)rotate(-90.0)scale(0.18 -0.18)">
      <use transform="translate(0.0 0.40625)" xlink:href="#Cmmi10-75"/>
      <use transform="translate(57.177734375 -25.103125)scale(0.7)" xlink:href="#Cmmi10-4e"/>
      <use transform="translate(137.5 0.40625)" xlink:href="#Cmmi10-3d"/>
      <use transform="translate(186.96875 29.609375)" xlink:href="#Cmr10-5e"/>
      <use transform="translate(187.5 0.40625)" xlink:href="#Cmmi10-66"/>
      <use transform="translate(236.376953125 -25.103125)scale(0.7)" xlink:href="#Cmr10-30"/>
     </g>
    </g>
   </g>
   <g id="patch_3">
    <path d="
M72 43.2
L518.4 43.2" style="fill:none;stroke:#000000;"/>
   </g>
   <g id="patch_4">
    <path d="
M518.4 388.8
L518.4 43.2" style="fill:none;stroke:#000000;"/>
   </g>
   <g id="patch_5">
    <path d="
M72 388.8
L518.4 388.8" style="fill:none;stroke:#000000;"/>
   </g>
   <g id="patch_6">
    <path d="
M72 388.8
L72 43.2" style="fill:none;stroke:#000000;"/>
   </g>
   <g id="legend_1">
    <g id="patch_7">
     <path d="
M81.6 379.2
L205.827 379.2
L205.827 260.712
L81.6 260.712
L81.6 379.2
z
" style="fill:#ffffff;stroke:#000000;"/>
    </g>
    <g id="line2d_134">
     <path d="
M95.04 276.261
L121.92 276.261" style="fill:none;stroke:#0000ff;stroke-linecap:square;"/>
    </g>
    <g id="line2d_135"/>
    <g id="text_14">
     <!-- N=1 -->
     <defs>
      <path d="
M4.89062 0
L4.89062 5.17188
L14.7031 5.17188
L14.7031 67.6719
L4.89062 67.6719
L4.89062 72.9062
L23.5781 72.9062
L67.2812 15.375
L67.2812 67.6719
L57.5156 67.6719
L57.5156 72.9062
L83.1094 72.9062
L83.1094 67.6719
L73.2969 67.6719
L73.2969 -1.42188
L67.3906 -1.42188
L20.7031 60.0156
L20.7031 5.17188
L30.5156 5.17188
L30.5156 0
z
" id="BitstreamVeraSerif-Roman-4e"/>
      <path d="
M10.5938 45.2188
L73.1875 45.2188
L73.1875 37.4062
L10.5938 37.4062
z

M10.5938 25.2969
L73.1875 25.2969
L73.1875 17.4844
L10.5938 17.4844
z
" id="BitstreamVeraSerif-Roman-3d"/>
     </defs>
     <g transform="translate(143.04 282.981)scale(0.192 -0.192)">
      <use xlink:href="#BitstreamVeraSerif-Roman-4e"/>
      <use x="87.5" xlink:href="#BitstreamVeraSerif-Roman-3d"/>
      <use x="171.2890625" xlink:href="#BitstreamVeraSerif-Roman-31"/>
     </g>
    </g>
    <g id="line2d_136">
     <path d="
M95.04 304.443
L121.92 304.443" style="fill:none;stroke:#008000;stroke-linecap:square;"/>
    </g>
    <g id="line2d_137"/>
    <g id="text_15">
     <!-- N=5 -->
     <g transform="translate(143.04 311.163)scale(0.192 -0.192)">
      <use xlink:href="#BitstreamVeraSerif-Roman-4e"/>
      <use x="87.5" xlink:href="#BitstreamVeraSerif-Roman-3d"/>
      <use x="171.2890625" xlink:href="#BitstreamVeraSerif-Roman-35"/>
     </g>
    </g>
    <g id="line2d_138">
     <path d="
M95.04 332.625
L121.92 332.625" style="fill:none;stroke:#ff0000;stroke-linecap:square;"/>
    </g>
    <g id="line2d_139"/>
    <g id="text_16">
     <!-- N=10 -->
     <g transform="translate(143.04 339.345)scale(0.192 -0.192)">
      <use xlink:href="#BitstreamVeraSerif-Roman-4e"/>
      <use x="87.5" xlink:href="#BitstreamVeraSerif-Roman-3d"/>
      <use x="171.2890625" xlink:href="#BitstreamVeraSerif-Roman-31"/>
      <use x="234.912109375" xlink:href="#BitstreamVeraSerif-Roman-30"/>
     </g>
    </g>
    <g id="line2d_140">
     <path d="
M95.04 360.807
L121.92 360.807" style="fill:none;stroke:#00bfbf;stroke-linecap:square;"/>
    </g>
    <g id="line2d_141"/>
    <g id="text_17">
     <!-- N=50 -->
     <g transform="translate(143.04 367.527)scale(0.192 -0.192)">
      <use xlink:href="#BitstreamVeraSerif-Roman-4e"/>
      <use x="87.5" xlink:href="#BitstreamVeraSerif-Roman-3d"/>
      <use x="171.2890625" xlink:href="#BitstreamVeraSerif-Roman-35"/>
      <use x="234.912109375" xlink:href="#BitstreamVeraSerif-Roman-30"/>
     </g>
    </g>
   </g>
  </g>
 </g>
 <defs>
  <clipPath id="p7ff5b81e1d">
   <rect height="345.6" width="446.4" x="72.0" y="43.2"/>
  </clipPath>
 </defs>
</svg>
