<?xml version="1.0" encoding="utf-8" standalone="no"?>
<!DOCTYPE svg PUBLIC "-//W3C//DTD SVG 1.1//EN"
  "http://www.w3.org/Graphics/SVG/1.1/DTD/svg11.dtd">
<!-- Created with matplotlib (http://matplotlib.org/) -->
<svg height="158pt" version="1.1" viewBox="0 0 288 158" width="288pt" xmlns="http://www.w3.org/2000/svg" xmlns:xlink="http://www.w3.org/1999/xlink">
 <defs>
  <style type="text/css">
*{stroke-linecap:butt;stroke-linejoin:round;stroke-miterlimit:100000;}
  </style>
 </defs>
 <g id="figure_1">
  <g id="patch_1">
   <path d="M 0 158.4 
L 288 158.4 
L 288 0 
L 0 0 
z
" style="fill:#ffffff;"/>
  </g>
  <g id="axes_1">
   <g id="patch_2">
    <path d="M 36 138.6 
L 259.2 138.6 
L 259.2 15.84 
L 36 15.84 
z
" style="fill:#ffffff;"/>
   </g>
   <g id="line2d_1">
    <path clip-path="url(#p98edba43a2)" d="M 36.04464 40.391996 
L 43.878176 40.279538 
L 51.131451 39.958193 
L 57.380426 39.465831 
L 62.513513 38.845728 
L 66.597664 38.136705 
L 69.811423 37.36166 
L 72.311013 36.540332 
L 74.274976 35.669706 
L 75.814902 34.750627 
L 77.020062 33.779583 
L 77.979726 32.724368 
L 78.73853 31.56184 
L 79.341109 30.231675 
L 79.809783 28.659747 
L 80.166867 26.675465 
L 80.412362 24.084899 
L 80.568587 19.97077 
L 80.63554 10.116251 
L 80.680176 17.93071 
L 80.881035 24.30682 
L 81.193484 27.273826 
L 81.63984 29.393299 
L 82.197784 30.991247 
L 82.911952 32.360373 
L 83.782345 33.546759 
L 84.853598 34.630354 
L 86.192664 35.661738 
L 87.866497 36.660391 
L 89.964367 37.642725 
L 92.597864 38.620558 
L 95.900893 39.601571 
L 100.074316 40.599936 
L 105.318991 41.616552 
L 111.880415 42.653477 
L 120.071036 43.71475 
L 130.247938 44.801272 
L 142.812841 45.911533 
L 158.256736 47.045222 
L 177.092932 48.197539 
L 199.946327 49.365764 
L 227.553405 50.547369 
L 259.2 51.687649 
L 259.2 51.687649 
" style="fill:none;stroke:#0000ff;stroke-linecap:square;"/>
   </g>
   <g id="line2d_2">
    <path clip-path="url(#p98edba43a2)" d="M 36.060063 -1 
L 36.2455 9.125615 
L 36.557949 14.959718 
L 36.981986 18.973583 
L 37.53993 22.161765 
L 38.209463 24.710062 
L 38.990585 26.832781 
L 39.905614 28.684826 
L 40.954549 30.308287 
L 42.137391 31.733687 
L 43.476457 33.000404 
L 44.971747 34.108511 
L 46.623262 35.054555 
L 48.408683 35.820772 
L 50.283376 36.385574 
L 52.202704 36.733405 
L 54.077396 36.848942 
L 55.818182 36.736562 
L 57.358108 36.42015 
L 58.674857 35.930951 
L 59.790745 35.284718 
L 60.705773 34.505356 
L 61.464577 33.57236 
L 62.089475 32.450756 
L 62.602784 31.05111 
L 63.004503 29.258257 
L 63.294634 26.866398 
L 63.473177 23.579218 
L 63.562448 18.361257 
L 63.584765 11.865692 
L 63.607083 16.990293 
L 63.607083 16.990293 
L 63.763308 25.073263 
L 64.053439 28.598364 
L 64.455158 30.868187 
L 64.990785 32.647029 
L 65.660318 34.111179 
L 66.486075 35.38542 
L 67.490375 36.52387 
L 68.695534 37.549697 
L 70.123871 38.46781 
L 71.775386 39.259259 
L 73.605443 39.887895 
L 75.569407 40.326152 
L 77.555688 40.541762 
L 79.452698 40.526583 
L 81.171166 40.295482 
L 82.666457 39.876776 
L 83.93857 39.295289 
L 84.987505 38.579365 
L 85.857898 37.722763 
L 86.572066 36.713055 
L 87.152328 35.513042 
L 87.621001 34.029799 
L 87.978086 32.161116 
L 88.245899 29.464335 
L 88.402123 25.493058 
L 88.469077 17.699887 
L 88.513712 22.905735 
L 88.692254 29.251199 
L 89.004703 32.478277 
L 89.428741 34.6203 
L 89.986685 36.313018 
L 90.678536 37.708984 
L 91.526611 38.918861 
L 92.553228 39.988515 
L 93.758387 40.918199 
L 95.142089 41.703299 
L 96.682015 42.320729 
L 98.311212 42.734324 
L 99.918091 42.9168 
L 101.4357 42.868386 
L 102.774766 42.608833 
L 103.93529 42.161583 
L 104.917271 41.546011 
L 105.743029 40.761526 
L 106.412562 39.82081 
L 106.970506 38.650974 
L 107.416861 37.194425 
L 107.773946 35.211047 
L 108.019441 32.50462 
L 108.153348 28.910433 
L 108.220301 21.24897 
L 108.264937 26.280395 
L 108.443479 32.665965 
L 108.755927 35.916015 
L 109.179965 38.08341 
L 109.737909 39.804386 
L 110.42976 41.227624 
L 111.277835 42.457764 
L 112.259817 43.488727 
L 113.353388 44.318929 
L 114.513912 44.92528 
L 115.652118 45.273467 
L 116.678735 45.361503 
L 117.549128 45.224032 
L 118.285614 44.892355 
L 118.910512 44.372258 
L 119.446138 43.634939 
L 119.892494 42.643782 
L 120.271896 41.236956 
L 120.562027 39.272135 
L 120.762886 36.346028 
L 120.874475 31.39141 
L 120.919111 26.421473 
L 120.941429 30.929129 
L 120.941429 30.929129 
L 121.119971 37.82414 
L 121.43242 41.262917 
L 121.878775 43.734112 
L 122.481355 45.817289 
L 123.262476 47.7107 
L 124.244458 49.509303 
L 125.494253 51.325099 
L 127.034179 53.161395 
L 128.908872 55.045641 
L 131.185284 57.011109 
L 133.885734 59.043298 
L 137.077175 61.160404 
L 140.781924 63.345896 
L 145.044618 65.598254 
L 149.909891 67.913922 
L 155.42238 70.287952 
L 161.626719 72.714475 
L 168.567545 75.187053 
L 176.31181 77.705888 
L 184.881833 80.25604 
L 194.344567 82.836767 
L 204.766964 85.445605 
L 216.215979 88.07892 
L 228.758565 90.732328 
L 242.461674 93.40102 
L 257.436896 96.087699 
L 259.2 96.390062 
L 259.2 96.390062 
" style="fill:none;stroke:#008000;stroke-linecap:square;"/>
   </g>
   <g id="line2d_3">
    <path clip-path="url(#p98edba43a2)" d="M 36.04464 -0.528059 
L 36.2455 11.587901 
L 36.557949 17.416402 
L 36.981986 21.415669 
L 37.517613 24.470504 
L 38.164828 26.924467 
L 38.923632 28.944156 
L 39.771707 30.580622 
L 40.686736 31.88122 
L 41.668717 32.901881 
L 42.673017 33.63698 
L 43.677317 34.10764 
L 44.659298 34.327905 
L 45.574327 34.310269 
L 46.422402 34.070558 
L 47.181206 33.620288 
L 47.850739 32.956669 
L 48.431001 32.057111 
L 48.921992 30.868266 
L 49.323712 29.275758 
L 49.613843 27.229972 
L 49.814703 24.290523 
L 49.926292 19.597086 
L 49.970927 11.794546 
L 49.993245 18.172454 
L 49.993245 18.172454 
L 50.171787 25.458231 
L 50.484236 28.819482 
L 50.908273 31.033786 
L 51.466218 32.781916 
L 52.158068 34.213954 
L 52.961508 35.374459 
L 53.876536 36.316347 
L 54.903154 37.054261 
L 55.974407 37.553686 
L 57.067977 37.820186 
L 58.116912 37.852295 
L 59.098894 37.666187 
L 59.991605 37.276142 
L 60.795044 36.681815 
L 61.486895 35.893563 
L 62.089475 34.85898 
L 62.580466 33.56545 
L 62.982186 31.842398 
L 63.272317 29.583802 
L 63.473177 26.042517 
L 63.562448 20.824869 
L 63.584765 14.329321 
L 63.607083 19.453914 
L 63.607083 19.453914 
L 63.763308 27.536143 
L 64.053439 31.056665 
L 64.455158 33.313231 
L 64.990785 35.061736 
L 65.638 36.428544 
L 66.396804 37.529396 
L 67.267197 38.412224 
L 68.226861 39.077751 
L 69.253478 39.523462 
L 70.302414 39.737654 
L 71.306713 39.722003 
L 72.266377 39.48623 
L 73.13677 39.042942 
L 73.917892 38.389725 
L 74.587425 37.536051 
L 75.167687 36.420087 
L 75.63636 35.02173 
L 76.015762 33.13071 
L 76.283575 30.573423 
L 76.4398 27.078149 
L 76.506753 22.510523 
L 76.529071 15.134852 
L 76.551389 21.489305 
L 76.551389 21.489305 
L 76.729931 29.812284 
L 77.020062 33.050775 
L 77.444099 35.303152 
L 77.979726 36.96211 
L 78.626941 38.264956 
L 79.385745 39.306421 
L 80.256138 40.123458 
L 81.193484 40.698661 
L 82.153148 41.03296 
L 83.112812 41.137044 
L 84.027841 41.01771 
L 84.875916 40.687646 
L 85.657038 40.142324 
L 86.348889 39.380156 
L 86.951468 38.368958 
L 87.442459 37.104826 
L 87.844179 35.437571 
L 88.13431 33.307657 
L 88.33517 30.207705 
L 88.446759 24.772087 
L 88.469077 20.163514 
L 88.491394 21.967121 
L 88.491394 21.967121 
L 88.647619 30.880619 
L 88.93775 34.444565 
L 89.339469 36.699061 
L 89.852778 38.368773 
L 90.477676 39.676777 
L 91.214162 40.712059 
L 92.017602 41.471861 
L 92.887995 41.993873 
L 93.758387 42.263509 
L 94.606463 42.300482 
L 95.409902 42.117187 
L 96.146389 41.725633 
L 96.815922 41.120984 
L 97.418501 40.272541 
L 97.93181 39.163149 
L 98.355848 37.718975 
L 98.690614 35.778059 
L 98.93611 32.918948 
L 99.070016 28.789925 
L 99.13697 20.85879 
L 99.181605 28.207668 
L 99.382465 33.902524 
L 99.694914 36.797974 
L 100.141269 38.889963 
L 100.699213 40.443436 
L 101.346429 41.609208 
L 102.082915 42.484746 
L 102.841719 43.055737 
L 103.600523 43.363032 
L 104.337009 43.42918 
L 105.02886 43.270899 
L 105.676075 42.890953 
L 106.256337 42.293661 
L 106.791964 41.414136 
L 107.260637 40.189684 
L 107.640039 38.541577 
L 107.93017 36.205971 
L 108.108712 33.012144 
L 108.197983 28.215985 
L 108.220301 23.712594 
L 108.242619 25.285037 
L 108.242619 25.285037 
L 108.398843 34.290094 
L 108.688974 37.871302 
L 109.090694 40.133475 
L 109.604003 41.791436 
L 110.206582 43.013565 
L 110.853798 43.855737 
L 111.523331 44.378609 
L 112.148228 44.600207 
L 112.72849 44.577971 
L 113.264117 44.335503 
L 113.777425 43.845121 
L 114.246098 43.073648 
L 114.670136 41.918341 
L 115.02722 40.236803 
L 115.295033 37.78581 
L 115.451258 34.447804 
L 115.518211 30.368331 
L 115.540529 25.807388 
L 115.562847 27.518395 
L 115.562847 27.518395 
L 115.719071 36.49139 
L 116.009202 40.093466 
L 116.410922 42.371547 
L 116.92423 44.018943 
L 117.482175 45.105801 
L 118.040119 45.743613 
L 118.53111 46.000822 
L 118.955147 45.989554 
L 119.334549 45.76199 
L 119.713951 45.257539 
L 120.071036 44.387668 
L 120.383484 43.0291 
L 120.62898 41.002289 
L 120.807522 37.554142 
L 120.896793 30.406483 
L 120.919111 28.885085 
L 120.919111 28.885085 
L 120.919111 28.885085 
L 121.075335 39.40217 
L 121.365466 43.145789 
L 121.767186 45.500667 
L 122.235859 47.020413 
L 122.682215 47.803405 
L 123.016981 48.014969 
L 123.262476 47.92092 
L 123.485654 47.572602 
L 123.73115 46.693875 
L 123.93201 45.114235 
L 124.088234 41.994801 
L 124.155187 37.595391 
L 124.177505 30.375687 
L 124.199823 36.642681 
L 124.199823 36.642681 
L 124.378365 45.393628 
L 124.690814 49.489123 
L 125.181805 52.963121 
L 125.873655 56.244518 
L 126.788684 59.504057 
L 127.949208 62.815398 
L 129.377545 66.210572 
L 131.073695 69.660056 
L 133.037659 73.145492 
L 135.291753 76.687047 
L 137.835979 80.264843 
L 140.670335 83.86431 
L 143.817141 87.498933 
L 147.298712 91.176354 
L 151.115051 94.87952 
L 155.266155 98.595025 
L 159.774345 102.329957 
L 164.661936 106.088425 
L 169.951247 109.872354 
L 175.642277 113.667665 
L 181.757346 117.476282 
L 188.31877 121.298762 
L 195.348866 125.134628 
L 202.869954 128.982627 
L 210.904351 132.840939 
L 219.474373 136.70733 
L 228.60234 140.579283 
L 238.310569 144.454105 
L 248.643696 148.337145 
L 259.2 152.078276 
L 259.2 152.078276 
" style="fill:none;stroke:#ff0000;stroke-linecap:square;"/>
   </g>
   <g id="line2d_4">
    <path clip-path="url(#p98edba43a2)" d="M 36.04464 5.19089 
L 36.2455 17.265158 
L 36.557949 22.911585 
L 36.959668 26.288376 
L 37.361388 27.983836 
L 37.696155 28.573151 
L 37.897015 28.590997 
L 38.075557 28.362778 
L 38.298735 27.638604 
L 38.521912 26.031292 
L 38.700454 22.771767 
L 38.789725 15.927145 
L 38.812043 13.670674 
L 38.812043 13.670674 
L 38.812043 13.670674 
L 38.968268 24.716903 
L 39.258399 28.535505 
L 39.637801 30.708502 
L 40.017203 31.756817 
L 40.329651 32.069108 
L 40.552829 32.006208 
L 40.776007 31.670369 
L 41.021502 30.873723 
L 41.266998 29.280171 
L 41.467858 26.294103 
L 41.579446 20.511865 
L 41.601764 13.958084 
L 41.624082 19.195513 
L 41.624082 19.195513 
L 41.780306 27.313659 
L 42.070437 30.8315 
L 42.427522 32.706513 
L 42.784606 33.596243 
L 43.074737 33.844905 
L 43.297915 33.77065 
L 43.54341 33.390237 
L 43.811223 32.491854 
L 44.056719 30.86988 
L 44.257579 27.93455 
L 44.369167 22.731926 
L 44.391485 18.692985 
L 44.413803 19.119509 
L 44.413803 19.119509 
L 44.570027 28.601305 
L 44.837841 31.9774 
L 45.194925 33.905973 
L 45.552009 34.79496 
L 45.84214 35.035247 
L 46.065318 34.955565 
L 46.310813 34.574697 
L 46.578626 33.692695 
L 46.84644 31.930853 
L 47.0473 28.945173 
L 47.158888 23.560268 
L 47.181206 19.003791 
L 47.203524 20.707597 
L 47.203524 20.707597 
L 47.359748 29.668482 
L 47.627561 32.991579 
L 47.984646 34.876639 
L 48.34173 35.726458 
L 48.631861 35.9348 
L 48.855039 35.829106 
L 49.100534 35.416078 
L 49.368347 34.48865 
L 49.636161 32.644317 
L 49.83702 29.439436 
L 49.926292 25.316276 
L 49.970927 17.514902 
L 49.993245 23.8923 
L 49.993245 23.8923 
L 50.171787 31.147702 
L 50.461918 34.196546 
L 50.819002 35.83209 
L 51.153769 36.514968 
L 51.421582 36.656292 
L 51.64476 36.516974 
L 51.890255 36.059065 
L 52.158068 35.059308 
L 52.403564 33.292367 
L 52.604424 30.002102 
L 52.693695 25.580632 
L 52.73833 20.664015 
L 52.760648 25.121136 
L 52.760648 25.121136 
L 52.93919 31.895878 
L 53.229321 34.885171 
L 53.586405 36.486938 
L 53.921172 37.142302 
L 54.188985 37.259778 
L 54.412163 37.097078 
L 54.657658 36.605959 
L 54.925472 35.549103 
L 55.170967 33.665131 
L 55.349509 30.629338 
L 55.43878 26.298675 
L 55.483416 20.672215 
L 55.505734 25.550853 
L 55.505734 25.550853 
L 55.684276 32.45359 
L 55.974407 35.446821 
L 56.331491 37.0387 
L 56.666257 37.67933 
L 56.911753 37.78552 
L 57.134931 37.630486 
L 57.380426 37.146769 
L 57.648239 36.100144 
L 57.893735 34.238125 
L 58.072277 31.272159 
L 58.161548 27.219811 
L 58.206183 18.066666 
L 58.228501 25.498266 
L 58.228501 25.498266 
L 58.407043 32.892527 
L 58.697174 35.924386 
L 59.054259 37.519233 
L 59.389025 38.151694 
L 59.634521 38.247043 
L 59.857698 38.077762 
L 60.103194 37.57071 
L 60.371007 36.479123 
L 60.616502 34.515967 
L 60.795044 31.240028 
L 60.884316 25.750243 
L 60.906633 16.327685 
L 60.928951 25.217372 
L 60.928951 25.217372 
L 61.107493 33.274051 
L 61.397624 36.351511 
L 61.754708 37.951788 
L 62.089475 38.576881 
L 62.33497 38.661202 
L 62.558148 38.47673 
L 62.803644 37.943845 
L 63.071457 36.800366 
L 63.316952 34.713295 
L 63.495494 30.998978 
L 63.562448 26.544682 
L 63.584765 20.049677 
L 63.607083 25.174028 
L 63.607083 25.174028 
L 63.763308 33.232507 
L 64.031121 36.443465 
L 64.388205 38.219723 
L 64.722972 38.922119 
L 64.968467 39.046736 
L 65.169327 38.922078 
L 65.414822 38.462037 
L 65.682636 37.437091 
L 65.928131 35.603998 
L 66.106673 32.71457 
L 66.218262 26.622219 
L 66.24058 17.650487 
L 66.262898 26.008598 
L 66.262898 26.008598 
L 66.44144 34.099156 
L 66.731571 37.166667 
L 67.088655 38.74297 
L 67.423421 39.332728 
L 67.646599 39.388008 
L 67.847459 39.215865 
L 68.092955 38.678434 
L 68.360768 37.509201 
L 68.606263 35.342088 
L 68.762488 32.145428 
L 68.851759 25.150628 
L 68.874076 23.026864 
L 68.874076 23.026864 
L 68.874076 23.026864 
L 69.030301 33.800351 
L 69.298114 37.136023 
L 69.632881 38.85938 
L 69.967647 39.595129 
L 70.213142 39.722924 
L 70.414002 39.589777 
L 70.659498 39.102824 
L 70.927311 38.011335 
L 71.172806 36.011258 
L 71.351349 32.586642 
L 71.44062 26.048236 
L 71.462937 22.141756 
L 71.462937 22.141756 
L 71.462937 22.141756 
L 71.619162 34.110416 
L 71.886975 37.473911 
L 72.221742 39.195576 
L 72.556508 39.917028 
L 72.802004 40.026371 
L 73.002863 39.870977 
L 73.248359 39.342088 
L 73.516172 38.16374 
L 73.761668 35.94547 
L 73.917892 32.573765 
L 73.984845 28.31352 
L 74.007163 22.986527 
L 74.029481 26.218076 
L 74.029481 26.218076 
L 74.185705 34.675544 
L 74.453518 37.893135 
L 74.788285 39.558431 
L 75.100734 40.212279 
L 75.346229 40.314132 
L 75.547089 40.14484 
L 75.792584 39.584896 
L 76.060398 38.334963 
L 76.283575 36.23811 
L 76.4398 32.790836 
L 76.506753 28.230308 
L 76.529071 20.855213 
L 76.551389 27.209348 
L 76.551389 27.209348 
L 76.707613 35.07671 
L 76.975426 38.247263 
L 77.310193 39.885379 
L 77.622641 40.510583 
L 77.845819 40.589452 
L 78.046679 40.412394 
L 78.292174 39.8292 
L 78.559988 38.518472 
L 78.783165 36.266103 
L 78.93939 32.21548 
L 79.006343 22.492241 
L 79.050979 30.164947 
L 79.251838 36.514503 
L 79.541969 39.137111 
L 79.876736 40.430493 
L 80.166867 40.839383 
L 80.367727 40.821595 
L 80.568587 40.55436 
L 80.814082 39.815023 
L 81.059578 38.3586 
L 81.260438 35.904002 
L 81.394344 31.466594 
L 81.43898 24.866733 
L 81.483615 30.151553 
L 81.662157 36.439483 
L 81.952288 39.29643 
L 82.287055 40.661282 
L 82.577186 41.091871 
L 82.778046 41.076972 
L 82.978906 40.803184 
L 83.224401 40.037992 
L 83.469897 38.511321 
L 83.670756 35.851436 
L 83.782345 32.00618 
L 83.849299 26.111613 
L 83.893934 31.958869 
L 84.094794 37.365063 
L 84.407243 39.959731 
L 84.742009 41.087432 
L 85.009823 41.361047 
L 85.188365 41.284756 
L 85.411542 40.878437 
L 85.657038 39.9085 
L 85.902533 37.920457 
L 86.081075 34.414084 
L 86.192664 26.143648 
L 86.2373 32.222301 
L 86.43816 37.668013 
L 86.750608 40.25773 
L 87.085375 41.362443 
L 87.33087 41.601477 
L 87.509412 41.519312 
L 87.710272 41.15171 
L 87.955768 40.187692 
L 88.201263 38.183214 
L 88.379805 34.585728 
L 88.446759 30.49143 
L 88.469077 25.883808 
L 88.491394 27.68728 
L 88.491394 27.68728 
L 88.647619 36.569315 
L 88.915432 39.773716 
L 89.250198 41.342349 
L 89.540329 41.815436 
L 89.718872 41.803735 
L 89.919731 41.512455 
L 90.165227 40.660139 
L 90.410722 38.873201 
L 90.589264 35.93415 
L 90.678536 31.901931 
L 90.723171 22.337825 
L 90.745489 30.104884 
L 90.745489 30.104884 
L 90.924031 37.51309 
L 91.214162 40.449438 
L 91.526611 41.709271 
L 91.794424 42.062065 
L 91.972966 41.998838 
L 92.173826 41.627724 
L 92.419321 40.60936 
L 92.642499 38.691128 
L 92.798723 35.652597 
L 92.887995 29.813997 
L 92.910312 19.293297 
L 92.910312 19.293297 
L 92.910312 19.293297 
L 93.044219 36.388286 
L 93.289714 39.941194 
L 93.602163 41.66732 
L 93.892294 42.253846 
L 94.070836 42.274306 
L 94.249378 42.040813 
L 94.472556 41.321316 
L 94.718051 39.64452 
L 94.896594 36.930698 
L 95.008182 31.781337 
L 95.052818 27.77063 
L 95.075136 31.734006 
L 95.075136 31.734006 
L 95.253678 38.283481 
L 95.543809 41.106748 
L 95.856258 42.275305 
L 96.101753 42.520853 
L 96.257977 42.417285 
L 96.458837 41.959646 
L 96.704333 40.712659 
L 96.905193 38.540746 
L 97.039099 35.039316 
L 97.106053 27.898774 
L 97.150688 32.176953 
L 97.32923 38.624991 
L 97.619361 41.420742 
L 97.93181 42.547875 
L 98.154988 42.744132 
L 98.311212 42.621421 
L 98.512072 42.11386 
L 98.73525 40.901969 
L 98.93611 38.585391 
L 99.070016 34.50508 
L 99.13697 26.579101 
L 99.181605 33.924307 
L 99.382465 39.531429 
L 99.672596 41.938834 
L 99.962727 42.843395 
L 100.163587 42.961754 
L 100.319811 42.792126 
L 100.520671 42.186427 
L 100.743849 40.746549 
L 100.944709 37.729628 
L 101.056298 31.855357 
L 101.078615 24.930384 
L 101.100933 30.671752 
L 101.100933 30.671752 
L 101.257157 38.608004 
L 101.524971 41.679303 
L 101.837419 42.974234 
L 102.060597 43.190822 
L 102.216821 43.045643 
L 102.417681 42.45208 
L 102.640859 40.989912 
L 102.819401 38.383762 
L 102.93099 33.630198 
L 102.975626 26.81696 
L 102.997943 32.47427 
L 102.997943 32.47427 
L 103.176485 39.529879 
L 103.444299 42.205258 
L 103.73443 43.2696 
L 103.93529 43.410659 
L 104.091514 43.219267 
L 104.292374 42.518312 
L 104.515552 40.771129 
L 104.694094 37.219609 
L 104.761047 33.10744 
L 104.783365 28.396105 
L 104.805683 30.428527 
L 104.805683 30.428527 
L 104.961907 39.219965 
L 105.22972 42.312147 
L 105.519851 43.481275 
L 105.720711 43.638355 
L 105.854618 43.48274 
L 106.055478 42.795631 
L 106.256337 41.269914 
L 106.43488 38.018055 
L 106.524151 32.147105 
L 106.546468 22.618247 
L 106.546468 22.618247 
L 106.546468 22.618247 
L 106.680375 38.780383 
L 106.92587 42.243257 
L 107.216001 43.646505 
L 107.416861 43.874408 
L 107.550768 43.744556 
L 107.72931 43.176669 
L 107.93017 41.741235 
L 108.108712 38.702656 
L 108.197983 33.934366 
L 108.220301 29.432807 
L 108.242619 31.005027 
L 108.242619 31.005027 
L 108.398843 39.950435 
L 108.666656 43.002035 
L 108.93447 44.011077 
L 109.113012 44.087316 
L 109.246918 43.853347 
L 109.447778 42.920041 
L 109.648638 40.707288 
L 109.782545 36.612022 
L 109.849498 29.404033 
L 109.894134 36.201031 
L 110.094993 41.69642 
L 110.362807 43.795892 
L 110.608302 44.346182 
L 110.742209 44.258136 
L 110.898433 43.784783 
L 111.099293 42.328012 
L 111.255517 39.663173 
L 111.344788 35.344598 
L 111.389424 29.855243 
L 111.411742 34.650768 
L 111.411742 34.650768 
L 111.590284 41.455807 
L 111.858097 43.946764 
L 112.103593 44.589464 
L 112.215181 44.542903 
L 112.371406 44.107499 
L 112.549948 42.885722 
L 112.72849 39.877454 
L 112.817761 34.967177 
L 112.840079 29.872314 
L 112.862397 32.683371 
L 112.862397 32.683371 
L 113.018621 41.217065 
L 113.264117 43.998589 
L 113.509612 44.82745 
L 113.643519 44.790482 
L 113.799743 44.299408 
L 113.978285 42.887342 
L 114.134509 39.81161 
L 114.246098 31.409525 
L 114.290734 37.616903 
L 114.491594 42.979839 
L 114.759407 44.874803 
L 114.937949 45.110214 
L 115.049538 44.920012 
L 115.205762 44.131044 
L 115.384304 41.905416 
L 115.495893 38.006504 
L 115.540529 31.527506 
L 115.585164 36.663005 
L 115.763706 42.888828 
L 116.009202 45.026644 
L 116.187744 45.392924 
L 116.210062 45.38618 
L 116.321651 45.172939 
L 116.477875 44.2669 
L 116.634099 42.061603 
L 116.745688 37.262385 
L 116.790324 31.51973 
L 116.812642 36.478171 
L 116.812642 36.478171 
L 116.991184 43.28582 
L 117.236679 45.409914 
L 117.392904 45.680798 
L 117.415221 45.666481 
L 117.52681 45.385552 
L 117.683035 44.2461 
L 117.839259 41.174581 
L 117.906212 37.145609 
L 117.92853 32.61143 
L 117.950848 34.277187 
L 117.950848 34.277187 
L 118.107072 43.147074 
L 118.352568 45.68287 
L 118.508792 45.986174 
L 118.53111 45.96812 
L 118.642699 45.632502 
L 118.798923 44.243174 
L 118.93283 40.951146 
L 118.999783 33.957997 
L 119.044418 38.091599 
L 119.222961 44.44115 
L 119.446138 46.202442 
L 119.535409 46.31471 
L 119.580045 46.263375 
L 119.691634 45.787657 
L 119.847858 43.853758 
L 119.959447 39.468556 
L 120.004082 29.064448 
L 120.0264 37.572795 
L 120.0264 37.572795 
L 120.204942 44.904976 
L 120.42812 46.618639 
L 120.495073 46.659313 
L 120.517391 46.630152 
L 120.62898 46.127663 
L 120.762886 44.363649 
L 120.874475 39.565541 
L 120.919111 34.604878 
L 120.941429 39.105647 
L 120.941429 39.105647 
L 121.119971 45.654165 
L 121.320831 47.035594 
L 121.387784 46.994032 
L 121.499373 46.344278 
L 121.633279 43.890374 
L 121.744868 35.773537 
L 121.789504 41.86091 
L 121.990364 46.871713 
L 122.12427 47.465405 
L 122.146588 47.450263 
L 122.235859 47.041539 
L 122.369766 44.804863 
L 122.459037 38.335874 
L 122.481355 35.004175 
L 122.481355 35.004175 
L 122.481355 35.004175 
L 122.637579 46.408195 
L 122.816121 47.928668 
L 122.860757 47.868586 
L 122.950028 47.178499 
L 123.061617 44.295821 
L 123.106252 40.64049 
L 123.12857 30.315474 
L 123.150888 40.290937 
L 123.150888 40.290937 
L 123.307112 47.551847 
L 123.441019 48.454105 
L 123.463336 48.409387 
L 123.552607 47.577545 
L 123.641879 44.73747 
L 123.708832 38.825943 
L 123.73115 42.958732 
L 123.909692 48.879591 
L 123.954327 49.064292 
L 123.998963 48.944494 
L 124.088234 47.471616 
L 124.155187 43.29681 
L 124.177505 36.095738 
L 124.199823 42.35242 
L 124.199823 42.35242 
L 124.356047 49.595673 
L 124.400683 49.793818 
L 124.423 49.723292 
L 124.423 49.723292 
L 124.489954 48.627363 
L 124.556907 43.835215 
L 124.579225 37.61416 
L 124.579225 37.61416 
L 124.579225 37.61416 
L 124.713131 50.457657 
L 124.757767 50.690944 
L 124.780085 50.518741 
L 124.847038 47.951959 
L 124.891674 42.885833 
L 124.913991 47.736607 
L 124.913991 47.736607 
L 125.003262 51.880248 
L 125.047898 51.406634 
L 125.092533 46.802201 
L 125.137169 51.159984 
L 125.181805 53.72688 
L 125.204122 53.530103 
L 125.204122 53.530103 
L 125.22644 50.721441 
L 125.248758 53.125824 
L 125.248758 53.125824 
L 125.4273 70.964806 
L 125.82902 87.621282 
L 126.476235 104.977915 
L 127.346628 122.241661 
L 128.440199 139.481725 
L 129.756947 156.702257 
L 129.98365 159.4 
L 129.98365 159.4 
" style="fill:none;stroke:#00bfbf;stroke-linecap:square;"/>
   </g>
   <g id="patch_3">
    <path d="M 36 15.84 
L 259.2 15.84 
" style="fill:none;stroke:#000000;stroke-linecap:square;stroke-linejoin:miter;"/>
   </g>
   <g id="patch_4">
    <path d="M 259.2 138.6 
L 259.2 15.84 
" style="fill:none;stroke:#000000;stroke-linecap:square;stroke-linejoin:miter;"/>
   </g>
   <g id="patch_5">
    <path d="M 36 138.6 
L 259.2 138.6 
" style="fill:none;stroke:#000000;stroke-linecap:square;stroke-linejoin:miter;"/>
   </g>
   <g id="patch_6">
    <path d="M 36 138.6 
L 36 15.84 
" style="fill:none;stroke:#000000;stroke-linecap:square;stroke-linejoin:miter;"/>
   </g>
   <g id="matplotlib.axis_1">
    <g id="xtick_1">
     <g id="line2d_5">
      <path clip-path="url(#p98edba43a2)" d="M 36 138.6 
L 36 15.84 
" style="fill:none;opacity:0.3;stroke:#808080;stroke-dasharray:1.000000,3.000000;stroke-dashoffset:0.0;stroke-width:0.5;"/>
     </g>
     <g id="line2d_6">
      <defs>
       <path d="M 0 0 
L 0 -4 
" id="m9919ae4a74" style="stroke:#000000;stroke-width:0.5;"/>
      </defs>
      <g>
       <use style="stroke:#000000;stroke-width:0.5;" x="36.0" xlink:href="#m9919ae4a74" y="138.6"/>
      </g>
     </g>
     <g id="line2d_7">
      <defs>
       <path d="M 0 0 
L 0 4 
" id="m6750d1bf98" style="stroke:#000000;stroke-width:0.5;"/>
      </defs>
      <g>
       <use style="stroke:#000000;stroke-width:0.5;" x="36.0" xlink:href="#m6750d1bf98" y="15.84"/>
      </g>
     </g>
     <g id="text_1">
      <!-- 0 -->
      <defs>
       <path d="M 31.78125 3.421875 
Q 39.265625 3.421875 42.96875 11.625 
Q 46.6875 19.828125 46.6875 36.375 
Q 46.6875 52.984375 42.96875 61.1875 
Q 39.265625 69.390625 31.78125 69.390625 
Q 24.3125 69.390625 20.59375 61.1875 
Q 16.890625 52.984375 16.890625 36.375 
Q 16.890625 19.828125 20.59375 11.625 
Q 24.3125 3.421875 31.78125 3.421875 
M 31.78125 -1.421875 
Q 19.921875 -1.421875 13.25 8.53125 
Q 6.59375 18.5 6.59375 36.375 
Q 6.59375 54.296875 13.25 64.25 
Q 19.921875 74.21875 31.78125 74.21875 
Q 43.703125 74.21875 50.34375 64.25 
Q 56.984375 54.296875 56.984375 36.375 
Q 56.984375 18.5 50.34375 8.53125 
Q 43.703125 -1.421875 31.78125 -1.421875 
" id="BitstreamVeraSerif-Roman-30"/>
      </defs>
      <g transform="translate(33.455 148.67875)scale(0.08 -0.08)">
       <use xlink:href="#BitstreamVeraSerif-Roman-30"/>
      </g>
     </g>
    </g>
    <g id="xtick_2">
     <g id="line2d_8">
      <path clip-path="url(#p98edba43a2)" d="M 80.64 138.6 
L 80.64 15.84 
" style="fill:none;opacity:0.3;stroke:#808080;stroke-dasharray:1.000000,3.000000;stroke-dashoffset:0.0;stroke-width:0.5;"/>
     </g>
     <g id="line2d_9">
      <g>
       <use style="stroke:#000000;stroke-width:0.5;" x="80.64" xlink:href="#m9919ae4a74" y="138.6"/>
      </g>
     </g>
     <g id="line2d_10">
      <g>
       <use style="stroke:#000000;stroke-width:0.5;" x="80.64" xlink:href="#m6750d1bf98" y="15.84"/>
      </g>
     </g>
     <g id="text_2">
      <!-- 1 -->
      <defs>
       <path d="M 14.203125 0 
L 14.203125 5.171875 
L 26.90625 5.171875 
L 26.90625 65.828125 
L 12.203125 56.296875 
L 12.203125 62.703125 
L 29.984375 74.21875 
L 36.71875 74.21875 
L 36.71875 5.171875 
L 49.421875 5.171875 
L 49.421875 0 
z
" id="BitstreamVeraSerif-Roman-31"/>
      </defs>
      <g transform="translate(78.095 148.67875)scale(0.08 -0.08)">
       <use xlink:href="#BitstreamVeraSerif-Roman-31"/>
      </g>
     </g>
    </g>
    <g id="xtick_3">
     <g id="line2d_11">
      <path clip-path="url(#p98edba43a2)" d="M 125.28 138.6 
L 125.28 15.84 
" style="fill:none;opacity:0.3;stroke:#808080;stroke-dasharray:1.000000,3.000000;stroke-dashoffset:0.0;stroke-width:0.5;"/>
     </g>
     <g id="line2d_12">
      <g>
       <use style="stroke:#000000;stroke-width:0.5;" x="125.28" xlink:href="#m9919ae4a74" y="138.6"/>
      </g>
     </g>
     <g id="line2d_13">
      <g>
       <use style="stroke:#000000;stroke-width:0.5;" x="125.28" xlink:href="#m6750d1bf98" y="15.84"/>
      </g>
     </g>
     <g id="text_3">
      <!-- 2 -->
      <defs>
       <path d="M 12.796875 55.515625 
L 7.328125 55.515625 
L 7.328125 68.5 
Q 12.546875 71.296875 17.84375 72.75 
Q 23.140625 74.21875 28.21875 74.21875 
Q 39.59375 74.21875 46.1875 68.703125 
Q 52.78125 63.1875 52.78125 53.71875 
Q 52.78125 43.015625 37.84375 28.125 
Q 36.671875 27 36.078125 26.421875 
L 17.671875 8.015625 
L 48.09375 8.015625 
L 48.09375 17 
L 53.8125 17 
L 53.8125 0 
L 6.78125 0 
L 6.78125 5.328125 
L 28.90625 27.390625 
Q 36.234375 34.71875 39.359375 40.84375 
Q 42.484375 46.96875 42.484375 53.71875 
Q 42.484375 61.078125 38.640625 65.234375 
Q 34.8125 69.390625 28.078125 69.390625 
Q 21.09375 69.390625 17.28125 65.921875 
Q 13.484375 62.453125 12.796875 55.515625 
" id="BitstreamVeraSerif-Roman-32"/>
      </defs>
      <g transform="translate(122.735 148.67875)scale(0.08 -0.08)">
       <use xlink:href="#BitstreamVeraSerif-Roman-32"/>
      </g>
     </g>
    </g>
    <g id="xtick_4">
     <g id="line2d_14">
      <path clip-path="url(#p98edba43a2)" d="M 169.92 138.6 
L 169.92 15.84 
" style="fill:none;opacity:0.3;stroke:#808080;stroke-dasharray:1.000000,3.000000;stroke-dashoffset:0.0;stroke-width:0.5;"/>
     </g>
     <g id="line2d_15">
      <g>
       <use style="stroke:#000000;stroke-width:0.5;" x="169.92" xlink:href="#m9919ae4a74" y="138.6"/>
      </g>
     </g>
     <g id="line2d_16">
      <g>
       <use style="stroke:#000000;stroke-width:0.5;" x="169.92" xlink:href="#m6750d1bf98" y="15.84"/>
      </g>
     </g>
     <g id="text_4">
      <!-- 3 -->
      <defs>
       <path d="M 9.71875 69.828125 
Q 15.4375 71.96875 20.671875 73.09375 
Q 25.921875 74.21875 30.515625 74.21875 
Q 41.21875 74.21875 47.21875 69.59375 
Q 53.21875 64.984375 53.21875 56.78125 
Q 53.21875 50.203125 49.0625 45.78125 
Q 44.921875 41.359375 37.3125 39.796875 
Q 46.296875 38.53125 51.25 33.28125 
Q 56.203125 28.03125 56.203125 19.671875 
Q 56.203125 9.46875 49.34375 4.015625 
Q 42.484375 -1.421875 29.59375 -1.421875 
Q 23.875 -1.421875 18.421875 -0.1875 
Q 12.984375 1.03125 7.625 3.515625 
L 7.625 17.671875 
L 13.09375 17.671875 
Q 13.578125 10.640625 17.828125 7.03125 
Q 22.078125 3.421875 29.78125 3.421875 
Q 37.25 3.421875 41.578125 7.734375 
Q 45.90625 12.0625 45.90625 19.578125 
Q 45.90625 28.171875 41.453125 32.59375 
Q 37.015625 37.015625 28.421875 37.015625 
L 23.78125 37.015625 
L 23.78125 42 
L 26.21875 42 
Q 34.765625 42 39.03125 45.53125 
Q 43.3125 49.078125 43.3125 56.203125 
Q 43.3125 62.59375 39.796875 65.984375 
Q 36.28125 69.390625 29.6875 69.390625 
Q 23.09375 69.390625 19.453125 66.265625 
Q 15.828125 63.140625 15.1875 56.984375 
L 9.71875 56.984375 
z
" id="BitstreamVeraSerif-Roman-33"/>
      </defs>
      <g transform="translate(167.375 148.67875)scale(0.08 -0.08)">
       <use xlink:href="#BitstreamVeraSerif-Roman-33"/>
      </g>
     </g>
    </g>
    <g id="xtick_5">
     <g id="line2d_17">
      <path clip-path="url(#p98edba43a2)" d="M 214.56 138.6 
L 214.56 15.84 
" style="fill:none;opacity:0.3;stroke:#808080;stroke-dasharray:1.000000,3.000000;stroke-dashoffset:0.0;stroke-width:0.5;"/>
     </g>
     <g id="line2d_18">
      <g>
       <use style="stroke:#000000;stroke-width:0.5;" x="214.56" xlink:href="#m9919ae4a74" y="138.6"/>
      </g>
     </g>
     <g id="line2d_19">
      <g>
       <use style="stroke:#000000;stroke-width:0.5;" x="214.56" xlink:href="#m6750d1bf98" y="15.84"/>
      </g>
     </g>
     <g id="text_5">
      <!-- 4 -->
      <defs>
       <path d="M 34.90625 24.703125 
L 34.90625 63.484375 
L 10.015625 24.703125 
z
M 56.390625 0 
L 23.1875 0 
L 23.1875 5.171875 
L 34.90625 5.171875 
L 34.90625 19.484375 
L 3.078125 19.484375 
L 3.078125 24.8125 
L 35.015625 74.21875 
L 44.671875 74.21875 
L 44.671875 24.703125 
L 58.59375 24.703125 
L 58.59375 19.484375 
L 44.671875 19.484375 
L 44.671875 5.171875 
L 56.390625 5.171875 
z
" id="BitstreamVeraSerif-Roman-34"/>
      </defs>
      <g transform="translate(212.015 148.67875)scale(0.08 -0.08)">
       <use xlink:href="#BitstreamVeraSerif-Roman-34"/>
      </g>
     </g>
    </g>
    <g id="xtick_6">
     <g id="line2d_20">
      <path clip-path="url(#p98edba43a2)" d="M 259.2 138.6 
L 259.2 15.84 
" style="fill:none;opacity:0.3;stroke:#808080;stroke-dasharray:1.000000,3.000000;stroke-dashoffset:0.0;stroke-width:0.5;"/>
     </g>
     <g id="line2d_21">
      <g>
       <use style="stroke:#000000;stroke-width:0.5;" x="259.2" xlink:href="#m9919ae4a74" y="138.6"/>
      </g>
     </g>
     <g id="line2d_22">
      <g>
       <use style="stroke:#000000;stroke-width:0.5;" x="259.2" xlink:href="#m6750d1bf98" y="15.84"/>
      </g>
     </g>
     <g id="text_6">
      <!-- 5 -->
      <defs>
       <path d="M 50.296875 72.90625 
L 50.296875 64.890625 
L 16.890625 64.890625 
L 16.890625 44 
Q 19.4375 45.75 22.828125 46.625 
Q 26.21875 47.515625 30.421875 47.515625 
Q 42.234375 47.515625 49.0625 40.96875 
Q 55.90625 34.421875 55.90625 23.09375 
Q 55.90625 11.53125 49 5.046875 
Q 42.09375 -1.421875 29.59375 -1.421875 
Q 24.5625 -1.421875 19.28125 -0.1875 
Q 14.015625 1.03125 8.5 3.515625 
L 8.5 17.671875 
L 14.015625 17.671875 
Q 14.453125 10.75 18.421875 7.078125 
Q 22.40625 3.421875 29.59375 3.421875 
Q 37.3125 3.421875 41.453125 8.5 
Q 45.609375 13.578125 45.609375 23.09375 
Q 45.609375 32.5625 41.484375 37.609375 
Q 37.359375 42.671875 29.59375 42.671875 
Q 25.203125 42.671875 21.84375 41.109375 
Q 18.5 39.546875 15.921875 36.28125 
L 11.71875 36.28125 
L 11.71875 72.90625 
z
" id="BitstreamVeraSerif-Roman-35"/>
      </defs>
      <g transform="translate(256.655 148.67875)scale(0.08 -0.08)">
       <use xlink:href="#BitstreamVeraSerif-Roman-35"/>
      </g>
     </g>
    </g>
    <g id="text_7">
     <!-- $\Omega$ -->
     <defs>
      <path d="M 7.71875 0 
L 4.390625 16.609375 
L 7.328125 16.609375 
Q 7.859375 13.71875 8.296875 11.5 
Q 8.734375 9.28125 9.4375 8.375 
Q 10.15625 7.46875 11.71875 7.171875 
Q 13.28125 6.890625 16.890625 6.890625 
L 23 6.890625 
Q 21.53125 12.546875 15.6875 21.65625 
Q 9.859375 30.765625 7.734375 34.890625 
Q 5.609375 39.015625 5.609375 45.515625 
Q 5.609375 53.078125 10.09375 58.765625 
Q 14.59375 64.453125 21.703125 67.484375 
Q 28.8125 70.515625 36.078125 70.515625 
Q 43.3125 70.515625 50.40625 67.484375 
Q 57.515625 64.453125 62 58.71875 
Q 66.5 52.984375 66.5 45.515625 
Q 66.5 40.4375 64.640625 35.9375 
Q 62.796875 31.453125 59.90625 26.953125 
Q 57.03125 22.46875 53.6875 16.9375 
Q 50.34375 11.421875 49.125 6.890625 
L 55.171875 6.890625 
Q 58.84375 6.890625 60.453125 7.171875 
Q 62.0625 7.46875 62.734375 8.375 
Q 63.421875 9.28125 63.84375 11.5 
Q 64.265625 13.71875 64.796875 16.609375 
L 67.671875 16.609375 
L 64.40625 0 
L 46.6875 0 
Q 45.703125 0 45.703125 1.3125 
Q 45.703125 6.390625 46.9375 11.265625 
Q 48.1875 16.15625 50.625 23.09375 
Q 53.078125 30.03125 54.4375 35.328125 
Q 55.8125 40.625 55.8125 45.515625 
Q 55.8125 51.515625 53.46875 56.640625 
Q 51.125 61.765625 46.625 64.84375 
Q 42.140625 67.921875 36.078125 67.921875 
Q 26.953125 67.921875 21.625 61.40625 
Q 16.3125 54.890625 16.3125 45.515625 
Q 16.359375 40.375 17.53125 35.828125 
Q 18.703125 31.296875 21.3125 23.71875 
Q 23.921875 16.15625 25.171875 11.265625 
Q 26.421875 6.390625 26.421875 1.3125 
Q 26.421875 0 25.390625 0 
z
" id="Cmr10-ad"/>
     </defs>
     <g transform="translate(144.68 161.42125)scale(0.08 -0.08)">
      <use transform="translate(0.0 0.484375)" xlink:href="#Cmr10-ad"/>
     </g>
    </g>
   </g>
   <g id="matplotlib.axis_2">
    <g id="ytick_1">
     <g id="line2d_23">
      <path clip-path="url(#p98edba43a2)" d="M 36 138.6 
L 259.2 138.6 
" style="fill:none;opacity:0.3;stroke:#808080;stroke-dasharray:1.000000,3.000000;stroke-dashoffset:0.0;stroke-width:0.5;"/>
     </g>
     <g id="line2d_24">
      <defs>
       <path d="M 0 0 
L 4 0 
" id="mf0ef90f52a" style="stroke:#000000;stroke-width:0.5;"/>
      </defs>
      <g>
       <use style="stroke:#000000;stroke-width:0.5;" x="36.0" xlink:href="#mf0ef90f52a" y="138.6"/>
      </g>
     </g>
     <g id="line2d_25">
      <defs>
       <path d="M 0 0 
L -4 0 
" id="mdfb61f1870" style="stroke:#000000;stroke-width:0.5;"/>
      </defs>
      <g>
       <use style="stroke:#000000;stroke-width:0.5;" x="259.2" xlink:href="#mdfb61f1870" y="138.6"/>
      </g>
     </g>
     <g id="text_8">
      <!-- $\mathdefault{10^{-12}}$ -->
      <defs>
       <path d="M 4.390625 30.609375 
L 29.390625 30.609375 
L 29.390625 23 
L 4.390625 23 
z
" id="BitstreamVeraSerif-Roman-2d"/>
      </defs>
      <g transform="translate(11.76 140.89625)scale(0.08 -0.08)">
       <use transform="translate(0.0 0.2015625)" xlink:href="#BitstreamVeraSerif-Roman-31"/>
       <use transform="translate(63.623046875 0.2015625)" xlink:href="#BitstreamVeraSerif-Roman-30"/>
       <use transform="translate(132.478046875 45.046875)scale(0.7)" xlink:href="#BitstreamVeraSerif-Roman-2d"/>
       <use transform="translate(156.130390625 45.046875)scale(0.7)" xlink:href="#BitstreamVeraSerif-Roman-31"/>
       <use transform="translate(200.666523437 45.046875)scale(0.7)" xlink:href="#BitstreamVeraSerif-Roman-32"/>
      </g>
     </g>
    </g>
    <g id="ytick_2">
     <g id="line2d_26">
      <path clip-path="url(#p98edba43a2)" d="M 36 114.048 
L 259.2 114.048 
" style="fill:none;opacity:0.3;stroke:#808080;stroke-dasharray:1.000000,3.000000;stroke-dashoffset:0.0;stroke-width:0.5;"/>
     </g>
     <g id="line2d_27">
      <g>
       <use style="stroke:#000000;stroke-width:0.5;" x="36.0" xlink:href="#mf0ef90f52a" y="114.048"/>
      </g>
     </g>
     <g id="line2d_28">
      <g>
       <use style="stroke:#000000;stroke-width:0.5;" x="259.2" xlink:href="#mdfb61f1870" y="114.048"/>
      </g>
     </g>
     <g id="text_9">
      <!-- $\mathdefault{10^{-9}}$ -->
      <defs>
       <path d="M 46.78125 32.671875 
Q 43.5 29 39.25 27.1875 
Q 35.015625 25.390625 29.6875 25.390625 
Q 18.84375 25.390625 12.5625 31.9375 
Q 6.296875 38.484375 6.296875 49.8125 
Q 6.296875 60.890625 13.109375 67.546875 
Q 19.921875 74.21875 31.296875 74.21875 
Q 43.65625 74.21875 50.265625 65.015625 
Q 56.890625 55.8125 56.890625 38.71875 
Q 56.890625 19.578125 49.015625 9.078125 
Q 41.15625 -1.421875 26.90625 -1.421875 
Q 23.046875 -1.421875 18.796875 -0.6875 
Q 14.546875 0.046875 10.109375 1.515625 
L 10.109375 13.625 
L 15.578125 13.625 
Q 16.21875 8.6875 19.390625 6.046875 
Q 22.5625 3.421875 27.875 3.421875 
Q 37.359375 3.421875 41.984375 10.5625 
Q 46.625 17.71875 46.78125 32.671875 
M 30.90625 69.390625 
Q 23.96875 69.390625 20.28125 64.328125 
Q 16.609375 59.28125 16.609375 49.8125 
Q 16.609375 40.328125 20.28125 35.25 
Q 23.96875 30.171875 30.90625 30.171875 
Q 37.84375 30.171875 41.53125 35.078125 
Q 45.21875 39.984375 45.21875 49.21875 
Q 45.21875 58.9375 41.5 64.15625 
Q 37.796875 69.390625 30.90625 69.390625 
" id="BitstreamVeraSerif-Roman-39"/>
      </defs>
      <g transform="translate(15.28 116.34425)scale(0.08 -0.08)">
       <use transform="translate(0.0 0.2015625)" xlink:href="#BitstreamVeraSerif-Roman-31"/>
       <use transform="translate(63.623046875 0.2015625)" xlink:href="#BitstreamVeraSerif-Roman-30"/>
       <use transform="translate(132.478046875 45.046875)scale(0.7)" xlink:href="#BitstreamVeraSerif-Roman-2d"/>
       <use transform="translate(156.130390625 45.046875)scale(0.7)" xlink:href="#BitstreamVeraSerif-Roman-39"/>
      </g>
     </g>
    </g>
    <g id="ytick_3">
     <g id="line2d_29">
      <path clip-path="url(#p98edba43a2)" d="M 36 89.496 
L 259.2 89.496 
" style="fill:none;opacity:0.3;stroke:#808080;stroke-dasharray:1.000000,3.000000;stroke-dashoffset:0.0;stroke-width:0.5;"/>
     </g>
     <g id="line2d_30">
      <g>
       <use style="stroke:#000000;stroke-width:0.5;" x="36.0" xlink:href="#mf0ef90f52a" y="89.496"/>
      </g>
     </g>
     <g id="line2d_31">
      <g>
       <use style="stroke:#000000;stroke-width:0.5;" x="259.2" xlink:href="#mdfb61f1870" y="89.496"/>
      </g>
     </g>
     <g id="text_10">
      <!-- $\mathdefault{10^{-6}}$ -->
      <defs>
       <path d="M 32.71875 3.421875 
Q 39.59375 3.421875 43.296875 8.46875 
Q 47.015625 13.53125 47.015625 23 
Q 47.015625 32.46875 43.296875 37.515625 
Q 39.59375 42.578125 32.71875 42.578125 
Q 25.734375 42.578125 22.0625 37.6875 
Q 18.40625 32.8125 18.40625 23.578125 
Q 18.40625 13.875 22.109375 8.640625 
Q 25.828125 3.421875 32.71875 3.421875 
M 16.796875 40.140625 
Q 20.125 43.796875 24.3125 45.59375 
Q 28.515625 47.40625 33.796875 47.40625 
Q 44.671875 47.40625 51 40.859375 
Q 57.328125 34.328125 57.328125 23 
Q 57.328125 11.921875 50.515625 5.25 
Q 43.703125 -1.421875 32.328125 -1.421875 
Q 19.96875 -1.421875 13.328125 7.78125 
Q 6.6875 17 6.6875 34.078125 
Q 6.6875 53.21875 14.546875 63.71875 
Q 22.40625 74.21875 36.71875 74.21875 
Q 40.578125 74.21875 44.828125 73.484375 
Q 49.078125 72.75 53.515625 71.296875 
L 53.515625 59.28125 
L 48 59.28125 
Q 47.40625 64.203125 44.234375 66.796875 
Q 41.0625 69.390625 35.6875 69.390625 
Q 26.21875 69.390625 21.578125 62.203125 
Q 16.9375 55.03125 16.796875 40.140625 
" id="BitstreamVeraSerif-Roman-36"/>
      </defs>
      <g transform="translate(15.28 91.79225)scale(0.08 -0.08)">
       <use transform="translate(0.0 0.2015625)" xlink:href="#BitstreamVeraSerif-Roman-31"/>
       <use transform="translate(63.623046875 0.2015625)" xlink:href="#BitstreamVeraSerif-Roman-30"/>
       <use transform="translate(132.478046875 45.046875)scale(0.7)" xlink:href="#BitstreamVeraSerif-Roman-2d"/>
       <use transform="translate(156.130390625 45.046875)scale(0.7)" xlink:href="#BitstreamVeraSerif-Roman-36"/>
      </g>
     </g>
    </g>
    <g id="ytick_4">
     <g id="line2d_32">
      <path clip-path="url(#p98edba43a2)" d="M 36 64.944 
L 259.2 64.944 
" style="fill:none;opacity:0.3;stroke:#808080;stroke-dasharray:1.000000,3.000000;stroke-dashoffset:0.0;stroke-width:0.5;"/>
     </g>
     <g id="line2d_33">
      <g>
       <use style="stroke:#000000;stroke-width:0.5;" x="36.0" xlink:href="#mf0ef90f52a" y="64.944"/>
      </g>
     </g>
     <g id="line2d_34">
      <g>
       <use style="stroke:#000000;stroke-width:0.5;" x="259.2" xlink:href="#mdfb61f1870" y="64.944"/>
      </g>
     </g>
     <g id="text_11">
      <!-- $\mathdefault{10^{-3}}$ -->
      <g transform="translate(15.28 67.24025)scale(0.08 -0.08)">
       <use transform="translate(0.0 0.2015625)" xlink:href="#BitstreamVeraSerif-Roman-31"/>
       <use transform="translate(63.623046875 0.2015625)" xlink:href="#BitstreamVeraSerif-Roman-30"/>
       <use transform="translate(132.478046875 45.046875)scale(0.7)" xlink:href="#BitstreamVeraSerif-Roman-2d"/>
       <use transform="translate(156.130390625 45.046875)scale(0.7)" xlink:href="#BitstreamVeraSerif-Roman-33"/>
      </g>
     </g>
    </g>
    <g id="ytick_5">
     <g id="line2d_35">
      <path clip-path="url(#p98edba43a2)" d="M 36 40.392 
L 259.2 40.392 
" style="fill:none;opacity:0.3;stroke:#808080;stroke-dasharray:1.000000,3.000000;stroke-dashoffset:0.0;stroke-width:0.5;"/>
     </g>
     <g id="line2d_36">
      <g>
       <use style="stroke:#000000;stroke-width:0.5;" x="36.0" xlink:href="#mf0ef90f52a" y="40.392"/>
      </g>
     </g>
     <g id="line2d_37">
      <g>
       <use style="stroke:#000000;stroke-width:0.5;" x="259.2" xlink:href="#mdfb61f1870" y="40.392"/>
      </g>
     </g>
     <g id="text_12">
      <!-- $\mathdefault{10^{0}}$ -->
      <g transform="translate(17.2 42.68825)scale(0.08 -0.08)">
       <use transform="translate(0.0 0.2015625)" xlink:href="#BitstreamVeraSerif-Roman-31"/>
       <use transform="translate(63.623046875 0.2015625)" xlink:href="#BitstreamVeraSerif-Roman-30"/>
       <use transform="translate(132.478046875 45.046875)scale(0.7)" xlink:href="#BitstreamVeraSerif-Roman-30"/>
      </g>
     </g>
    </g>
    <g id="ytick_6">
     <g id="line2d_38">
      <path clip-path="url(#p98edba43a2)" d="M 36 15.84 
L 259.2 15.84 
" style="fill:none;opacity:0.3;stroke:#808080;stroke-dasharray:1.000000,3.000000;stroke-dashoffset:0.0;stroke-width:0.5;"/>
     </g>
     <g id="line2d_39">
      <g>
       <use style="stroke:#000000;stroke-width:0.5;" x="36.0" xlink:href="#mf0ef90f52a" y="15.84"/>
      </g>
     </g>
     <g id="line2d_40">
      <g>
       <use style="stroke:#000000;stroke-width:0.5;" x="259.2" xlink:href="#mdfb61f1870" y="15.84"/>
      </g>
     </g>
     <g id="text_13">
      <!-- $\mathdefault{10^{3}}$ -->
      <g transform="translate(17.2 18.13625)scale(0.08 -0.08)">
       <use transform="translate(0.0 0.2015625)" xlink:href="#BitstreamVeraSerif-Roman-31"/>
       <use transform="translate(63.623046875 0.2015625)" xlink:href="#BitstreamVeraSerif-Roman-30"/>
       <use transform="translate(132.478046875 45.046875)scale(0.7)" xlink:href="#BitstreamVeraSerif-Roman-33"/>
      </g>
     </g>
    </g>
    <g id="ytick_7">
     <g id="line2d_41">
      <defs>
       <path d="M 0 0 
L 2 0 
" id="m889f9922b1" style="stroke:#000000;stroke-width:0.5;"/>
      </defs>
      <g>
       <use style="stroke:#000000;stroke-width:0.5;" x="36.0" xlink:href="#m889f9922b1" y="138.6"/>
      </g>
     </g>
     <g id="line2d_42">
      <defs>
       <path d="M 0 0 
L -2 0 
" id="m55c709dc2f" style="stroke:#000000;stroke-width:0.5;"/>
      </defs>
      <g>
       <use style="stroke:#000000;stroke-width:0.5;" x="259.2" xlink:href="#m55c709dc2f" y="138.6"/>
      </g>
     </g>
    </g>
    <g id="ytick_8">
     <g id="line2d_43">
      <g>
       <use style="stroke:#000000;stroke-width:0.5;" x="36.0" xlink:href="#m889f9922b1" y="130.416"/>
      </g>
     </g>
     <g id="line2d_44">
      <g>
       <use style="stroke:#000000;stroke-width:0.5;" x="259.2" xlink:href="#m55c709dc2f" y="130.416"/>
      </g>
     </g>
    </g>
    <g id="ytick_9">
     <g id="line2d_45">
      <g>
       <use style="stroke:#000000;stroke-width:0.5;" x="36.0" xlink:href="#m889f9922b1" y="122.232"/>
      </g>
     </g>
     <g id="line2d_46">
      <g>
       <use style="stroke:#000000;stroke-width:0.5;" x="259.2" xlink:href="#m55c709dc2f" y="122.232"/>
      </g>
     </g>
    </g>
    <g id="ytick_10">
     <g id="line2d_47">
      <g>
       <use style="stroke:#000000;stroke-width:0.5;" x="36.0" xlink:href="#m889f9922b1" y="114.048"/>
      </g>
     </g>
     <g id="line2d_48">
      <g>
       <use style="stroke:#000000;stroke-width:0.5;" x="259.2" xlink:href="#m55c709dc2f" y="114.048"/>
      </g>
     </g>
    </g>
    <g id="ytick_11">
     <g id="line2d_49">
      <g>
       <use style="stroke:#000000;stroke-width:0.5;" x="36.0" xlink:href="#m889f9922b1" y="105.864"/>
      </g>
     </g>
     <g id="line2d_50">
      <g>
       <use style="stroke:#000000;stroke-width:0.5;" x="259.2" xlink:href="#m55c709dc2f" y="105.864"/>
      </g>
     </g>
    </g>
    <g id="ytick_12">
     <g id="line2d_51">
      <g>
       <use style="stroke:#000000;stroke-width:0.5;" x="36.0" xlink:href="#m889f9922b1" y="97.68"/>
      </g>
     </g>
     <g id="line2d_52">
      <g>
       <use style="stroke:#000000;stroke-width:0.5;" x="259.2" xlink:href="#m55c709dc2f" y="97.68"/>
      </g>
     </g>
    </g>
    <g id="ytick_13">
     <g id="line2d_53">
      <g>
       <use style="stroke:#000000;stroke-width:0.5;" x="36.0" xlink:href="#m889f9922b1" y="89.496"/>
      </g>
     </g>
     <g id="line2d_54">
      <g>
       <use style="stroke:#000000;stroke-width:0.5;" x="259.2" xlink:href="#m55c709dc2f" y="89.496"/>
      </g>
     </g>
    </g>
    <g id="ytick_14">
     <g id="line2d_55">
      <g>
       <use style="stroke:#000000;stroke-width:0.5;" x="36.0" xlink:href="#m889f9922b1" y="81.312"/>
      </g>
     </g>
     <g id="line2d_56">
      <g>
       <use style="stroke:#000000;stroke-width:0.5;" x="259.2" xlink:href="#m55c709dc2f" y="81.312"/>
      </g>
     </g>
    </g>
    <g id="ytick_15">
     <g id="line2d_57">
      <g>
       <use style="stroke:#000000;stroke-width:0.5;" x="36.0" xlink:href="#m889f9922b1" y="73.128"/>
      </g>
     </g>
     <g id="line2d_58">
      <g>
       <use style="stroke:#000000;stroke-width:0.5;" x="259.2" xlink:href="#m55c709dc2f" y="73.128"/>
      </g>
     </g>
    </g>
    <g id="ytick_16">
     <g id="line2d_59">
      <g>
       <use style="stroke:#000000;stroke-width:0.5;" x="36.0" xlink:href="#m889f9922b1" y="64.944"/>
      </g>
     </g>
     <g id="line2d_60">
      <g>
       <use style="stroke:#000000;stroke-width:0.5;" x="259.2" xlink:href="#m55c709dc2f" y="64.944"/>
      </g>
     </g>
    </g>
    <g id="ytick_17">
     <g id="line2d_61">
      <g>
       <use style="stroke:#000000;stroke-width:0.5;" x="36.0" xlink:href="#m889f9922b1" y="56.76"/>
      </g>
     </g>
     <g id="line2d_62">
      <g>
       <use style="stroke:#000000;stroke-width:0.5;" x="259.2" xlink:href="#m55c709dc2f" y="56.76"/>
      </g>
     </g>
    </g>
    <g id="ytick_18">
     <g id="line2d_63">
      <g>
       <use style="stroke:#000000;stroke-width:0.5;" x="36.0" xlink:href="#m889f9922b1" y="48.576"/>
      </g>
     </g>
     <g id="line2d_64">
      <g>
       <use style="stroke:#000000;stroke-width:0.5;" x="259.2" xlink:href="#m55c709dc2f" y="48.576"/>
      </g>
     </g>
    </g>
    <g id="ytick_19">
     <g id="line2d_65">
      <g>
       <use style="stroke:#000000;stroke-width:0.5;" x="36.0" xlink:href="#m889f9922b1" y="40.392"/>
      </g>
     </g>
     <g id="line2d_66">
      <g>
       <use style="stroke:#000000;stroke-width:0.5;" x="259.2" xlink:href="#m55c709dc2f" y="40.392"/>
      </g>
     </g>
    </g>
    <g id="ytick_20">
     <g id="line2d_67">
      <g>
       <use style="stroke:#000000;stroke-width:0.5;" x="36.0" xlink:href="#m889f9922b1" y="32.208"/>
      </g>
     </g>
     <g id="line2d_68">
      <g>
       <use style="stroke:#000000;stroke-width:0.5;" x="259.2" xlink:href="#m55c709dc2f" y="32.208"/>
      </g>
     </g>
    </g>
    <g id="ytick_21">
     <g id="line2d_69">
      <g>
       <use style="stroke:#000000;stroke-width:0.5;" x="36.0" xlink:href="#m889f9922b1" y="24.024"/>
      </g>
     </g>
     <g id="line2d_70">
      <g>
       <use style="stroke:#000000;stroke-width:0.5;" x="259.2" xlink:href="#m55c709dc2f" y="24.024"/>
      </g>
     </g>
    </g>
    <g id="ytick_22">
     <g id="line2d_71">
      <g>
       <use style="stroke:#000000;stroke-width:0.5;" x="36.0" xlink:href="#m889f9922b1" y="15.84"/>
      </g>
     </g>
     <g id="line2d_72">
      <g>
       <use style="stroke:#000000;stroke-width:0.5;" x="259.2" xlink:href="#m55c709dc2f" y="15.84"/>
      </g>
     </g>
    </g>
    <g id="text_14">
     <!-- $u_N/\hat{f}_0$ -->
     <defs>
      <path d="M 13.484375 53.8125 
L 11.53125 55.90625 
L 25 69.390625 
L 38.375 55.90625 
L 36.375 53.8125 
L 25 63.8125 
z
" id="Cmr10-5e"/>
      <path d="M 4.6875 0 
Q 3.71875 0 3.71875 1.3125 
Q 3.765625 1.5625 3.90625 2.171875 
Q 4.046875 2.78125 4.3125 3.140625 
Q 4.59375 3.515625 4.984375 3.515625 
Q 14.546875 3.515625 16.109375 9.625 
L 29.6875 64.3125 
Q 26.90625 64.796875 20.90625 64.796875 
Q 19.921875 64.796875 19.921875 66.109375 
Q 19.96875 66.359375 20.109375 66.96875 
Q 20.265625 67.578125 20.53125 67.9375 
Q 20.796875 68.3125 21.1875 68.3125 
L 38.484375 68.3125 
Q 39.203125 68.3125 39.40625 67.671875 
L 61.625 14.796875 
L 72.703125 59.078125 
Q 72.90625 60.15625 72.90625 60.59375 
Q 72.90625 64.796875 65.1875 64.796875 
Q 64.203125 64.796875 64.203125 66.109375 
Q 64.546875 67.390625 64.734375 67.84375 
Q 64.9375 68.3125 65.921875 68.3125 
L 87.3125 68.3125 
Q 88.28125 68.3125 88.28125 67 
Q 88.234375 66.75 88.078125 66.140625 
Q 87.9375 65.53125 87.671875 65.15625 
Q 87.40625 64.796875 87.015625 64.796875 
Q 77.4375 64.796875 75.875 58.6875 
L 61.53125 0.875 
Q 61.1875 0 60.5 0 
L 59.28125 0 
Q 58.59375 0 58.40625 0.6875 
L 32.90625 61.1875 
L 32.71875 61.8125 
Q 32.515625 62.015625 32.515625 62.109375 
L 19.28125 9.1875 
Q 19.1875 8.9375 19.140625 8.5625 
Q 19.09375 8.203125 19 7.71875 
Q 19 5.125 21.234375 4.3125 
Q 23.484375 3.515625 26.8125 3.515625 
Q 27.78125 3.515625 27.78125 2.203125 
Q 27.4375 0.828125 27.1875 0.40625 
Q 26.953125 0 26.125 0 
z
" id="Cmmi10-4e"/>
      <path d="M 25 -2.203125 
Q 12.75 -2.203125 8.328125 7.875 
Q 3.90625 17.96875 3.90625 31.890625 
Q 3.90625 40.578125 5.484375 48.234375 
Q 7.078125 55.90625 11.78125 61.25 
Q 16.5 66.609375 25 66.609375 
Q 31.59375 66.609375 35.78125 63.375 
Q 39.984375 60.15625 42.1875 55.046875 
Q 44.390625 49.953125 45.1875 44.109375 
Q 46 38.28125 46 31.890625 
Q 46 23.296875 44.40625 15.796875 
Q 42.828125 8.296875 38.1875 3.046875 
Q 33.546875 -2.203125 25 -2.203125 
M 25 0.390625 
Q 30.5625 0.390625 33.296875 6.09375 
Q 36.03125 11.8125 36.671875 18.75 
Q 37.3125 25.6875 37.3125 33.5 
Q 37.3125 41.015625 36.671875 47.359375 
Q 36.03125 53.71875 33.3125 58.859375 
Q 30.609375 64.015625 25 64.015625 
Q 19.34375 64.015625 16.609375 58.828125 
Q 13.875 53.65625 13.234375 47.328125 
Q 12.59375 41.015625 12.59375 33.5 
Q 12.59375 27.9375 12.859375 23 
Q 13.140625 18.0625 14.3125 12.8125 
Q 15.484375 7.5625 18.09375 3.96875 
Q 20.703125 0.390625 25 0.390625 
" id="Cmr10-30"/>
      <path d="M 10.59375 10.890625 
Q 10.59375 14.15625 11.46875 17.59375 
Q 12.359375 21.046875 13.9375 25.265625 
Q 15.53125 29.5 16.703125 32.625 
Q 18.015625 36.28125 18.015625 38.625 
Q 18.015625 41.609375 15.828125 41.609375 
Q 11.859375 41.609375 9.296875 37.53125 
Q 6.734375 33.453125 5.515625 28.421875 
Q 5.328125 27.78125 4.6875 27.78125 
L 3.515625 27.78125 
Q 2.6875 27.78125 2.6875 28.71875 
L 2.6875 29 
Q 4.296875 34.96875 7.609375 39.578125 
Q 10.9375 44.1875 16.015625 44.1875 
Q 19.578125 44.1875 22.046875 41.84375 
Q 24.515625 39.5 24.515625 35.890625 
Q 24.515625 34.03125 23.6875 31.984375 
Q 23.25 30.765625 21.6875 26.65625 
Q 20.125 22.5625 19.28125 19.875 
Q 18.453125 17.1875 17.921875 14.59375 
Q 17.390625 12.015625 17.390625 9.421875 
Q 17.390625 6.109375 18.796875 3.8125 
Q 20.21875 1.515625 23.390625 1.515625 
Q 29.78125 1.515625 34.625 9.421875 
Q 34.71875 9.8125 34.78125 10.171875 
Q 34.859375 10.546875 34.90625 10.890625 
L 42.09375 39.890625 
Q 42.4375 41.21875 43.65625 42.15625 
Q 44.875 43.109375 46.296875 43.109375 
Q 47.515625 43.109375 48.40625 42.328125 
Q 49.3125 41.546875 49.3125 40.28125 
Q 49.3125 39.703125 49.21875 39.5 
L 42 10.6875 
Q 41.3125 7.71875 41.3125 5.8125 
Q 41.3125 1.515625 44.1875 1.515625 
Q 47.40625 1.515625 49 5.484375 
Q 50.59375 9.46875 51.703125 14.703125 
Q 51.90625 15.28125 52.484375 15.28125 
L 53.71875 15.28125 
Q 54.109375 15.28125 54.34375 14.9375 
Q 54.59375 14.59375 54.59375 14.3125 
Q 53.515625 10.015625 52.515625 6.9375 
Q 51.515625 3.859375 49.359375 1.359375 
Q 47.21875 -1.125 44 -1.125 
Q 40.828125 -1.125 38.3125 0.609375 
Q 35.796875 2.34375 34.90625 5.328125 
Q 32.625 2.390625 29.59375 0.625 
Q 26.5625 -1.125 23.1875 -1.125 
Q 17.4375 -1.125 14.015625 2.015625 
Q 10.59375 5.171875 10.59375 10.890625 
" id="Cmmi10-75"/>
      <path d="M 9.71875 -16.5 
Q 11.578125 -17.921875 14.203125 -17.921875 
Q 17.78125 -17.921875 20.015625 -10.015625 
Q 20.953125 -6.203125 25.09375 15.09375 
L 29.6875 39.59375 
L 21.09375 39.59375 
Q 20.125 39.59375 20.125 40.921875 
Q 20.515625 43.109375 21.390625 43.109375 
L 30.328125 43.109375 
L 31.5 49.609375 
Q 32.078125 52.640625 32.5625 54.8125 
Q 33.0625 56.984375 33.625 58.828125 
Q 34.1875 60.6875 35.296875 62.984375 
Q 37.015625 66.265625 39.921875 68.390625 
Q 42.828125 70.515625 46.1875 70.515625 
Q 48.390625 70.515625 50.46875 69.703125 
Q 52.546875 68.890625 53.859375 67.28125 
Q 55.171875 65.671875 55.171875 63.484375 
Q 55.171875 60.9375 53.484375 59.046875 
Q 51.8125 57.171875 49.421875 57.171875 
Q 47.796875 57.171875 46.65625 58.171875 
Q 45.515625 59.1875 45.515625 60.796875 
Q 45.515625 62.984375 47 64.625 
Q 48.484375 66.265625 50.6875 66.5 
Q 48.828125 67.921875 46.09375 67.921875 
Q 44.578125 67.921875 43.234375 66.5 
Q 41.890625 65.09375 41.5 63.484375 
Q 40.875 60.9375 38.71875 49.703125 
L 37.5 43.109375 
L 47.796875 43.109375 
Q 48.78125 43.109375 48.78125 41.796875 
Q 48.734375 41.546875 48.578125 40.9375 
Q 48.4375 40.328125 48.171875 39.953125 
Q 47.90625 39.59375 47.515625 39.59375 
L 36.8125 39.59375 
L 32.171875 15.1875 
Q 31.296875 9.859375 30.140625 4.359375 
Q 29 -1.125 26.921875 -6.90625 
Q 24.859375 -12.703125 21.625 -16.609375 
Q 18.40625 -20.515625 14.015625 -20.515625 
Q 10.640625 -20.515625 7.984375 -18.578125 
Q 5.328125 -16.65625 5.328125 -13.484375 
Q 5.328125 -10.9375 6.953125 -9.046875 
Q 8.59375 -7.171875 11.078125 -7.171875 
Q 12.75 -7.171875 13.859375 -8.171875 
Q 14.984375 -9.1875 14.984375 -10.796875 
Q 14.984375 -12.9375 13.390625 -14.71875 
Q 11.8125 -16.5 9.71875 -16.5 
" id="Cmmi10-66"/>
      <path d="M 5.609375 -23 
Q 5.609375 -22.703125 5.71875 -22.609375 
L 40.484375 73.78125 
Q 40.671875 74.359375 41.15625 74.671875 
Q 41.65625 75 42.28125 75 
Q 43.171875 75 43.71875 74.453125 
Q 44.28125 73.921875 44.28125 73 
L 44.28125 72.609375 
L 9.515625 -23.78125 
Q 8.9375 -25 7.625 -25 
Q 6.78125 -25 6.1875 -24.40625 
Q 5.609375 -23.828125 5.609375 -23 
" id="Cmmi10-3d"/>
     </defs>
     <g transform="translate(4.76 87.82)rotate(-90.0)scale(0.08 -0.08)">
      <use transform="translate(0.0 0.40625)" xlink:href="#Cmmi10-75"/>
      <use transform="translate(57.177734375 -16.6)scale(0.7)" xlink:href="#Cmmi10-4e"/>
      <use transform="translate(119.780664062 0.40625)" xlink:href="#Cmmi10-3d"/>
      <use transform="translate(175.468652344 29.609375)" xlink:href="#Cmr10-5e"/>
      <use transform="translate(169.780664062 0.40625)" xlink:href="#Cmmi10-66"/>
      <use transform="translate(223.121757812 -16.6)scale(0.7)" xlink:href="#Cmr10-30"/>
     </g>
    </g>
   </g>
   <g id="legend_1">
    <g id="patch_7">
     <path d="M 40 134.6 
L 92.68375 134.6 
L 92.68375 85.23 
L 40 85.23 
z
" style="fill:#ffffff;stroke:#000000;stroke-linejoin:miter;"/>
    </g>
    <g id="line2d_73">
     <path d="M 45.6 91.70875 
L 56.8 91.70875 
" style="fill:none;stroke:#0000ff;stroke-linecap:square;"/>
    </g>
    <g id="line2d_74"/>
    <g id="text_15">
     <!-- N=1 -->
     <defs>
      <path d="M 4.890625 0 
L 4.890625 5.171875 
L 14.703125 5.171875 
L 14.703125 67.671875 
L 4.890625 67.671875 
L 4.890625 72.90625 
L 23.578125 72.90625 
L 67.28125 15.375 
L 67.28125 67.671875 
L 57.515625 67.671875 
L 57.515625 72.90625 
L 83.109375 72.90625 
L 83.109375 67.671875 
L 73.296875 67.671875 
L 73.296875 -1.421875 
L 67.390625 -1.421875 
L 20.703125 60.015625 
L 20.703125 5.171875 
L 30.515625 5.171875 
L 30.515625 0 
z
" id="BitstreamVeraSerif-Roman-4e"/>
      <path d="M 10.59375 45.21875 
L 73.1875 45.21875 
L 73.1875 37.40625 
L 10.59375 37.40625 
z
M 10.59375 25.296875 
L 73.1875 25.296875 
L 73.1875 17.484375 
L 10.59375 17.484375 
z
" id="BitstreamVeraSerif-Roman-3d"/>
     </defs>
     <g transform="translate(65.6 94.50875)scale(0.08 -0.08)">
      <use xlink:href="#BitstreamVeraSerif-Roman-4e"/>
      <use x="87.5" xlink:href="#BitstreamVeraSerif-Roman-3d"/>
      <use x="171.2890625" xlink:href="#BitstreamVeraSerif-Roman-31"/>
     </g>
    </g>
    <g id="line2d_75">
     <path d="M 45.6 103.45125 
L 56.8 103.45125 
" style="fill:none;stroke:#008000;stroke-linecap:square;"/>
    </g>
    <g id="line2d_76"/>
    <g id="text_16">
     <!-- N=5 -->
     <g transform="translate(65.6 106.25125)scale(0.08 -0.08)">
      <use xlink:href="#BitstreamVeraSerif-Roman-4e"/>
      <use x="87.5" xlink:href="#BitstreamVeraSerif-Roman-3d"/>
      <use x="171.2890625" xlink:href="#BitstreamVeraSerif-Roman-35"/>
     </g>
    </g>
    <g id="line2d_77">
     <path d="M 45.6 115.19375 
L 56.8 115.19375 
" style="fill:none;stroke:#ff0000;stroke-linecap:square;"/>
    </g>
    <g id="line2d_78"/>
    <g id="text_17">
     <!-- N=10 -->
     <g transform="translate(65.6 117.99375)scale(0.08 -0.08)">
      <use xlink:href="#BitstreamVeraSerif-Roman-4e"/>
      <use x="87.5" xlink:href="#BitstreamVeraSerif-Roman-3d"/>
      <use x="171.2890625" xlink:href="#BitstreamVeraSerif-Roman-31"/>
      <use x="234.912109375" xlink:href="#BitstreamVeraSerif-Roman-30"/>
     </g>
    </g>
    <g id="line2d_79">
     <path d="M 45.6 126.93625 
L 56.8 126.93625 
" style="fill:none;stroke:#00bfbf;stroke-linecap:square;"/>
    </g>
    <g id="line2d_80"/>
    <g id="text_18">
     <!-- N=50 -->
     <g transform="translate(65.6 129.73625)scale(0.08 -0.08)">
      <use xlink:href="#BitstreamVeraSerif-Roman-4e"/>
      <use x="87.5" xlink:href="#BitstreamVeraSerif-Roman-3d"/>
      <use x="171.2890625" xlink:href="#BitstreamVeraSerif-Roman-35"/>
      <use x="234.912109375" xlink:href="#BitstreamVeraSerif-Roman-30"/>
     </g>
    </g>
   </g>
  </g>
 </g>
 <defs>
  <clipPath id="p98edba43a2">
   <rect height="122.76" width="223.2" x="36.0" y="15.84"/>
  </clipPath>
 </defs>
</svg>
