<?xml version="1.0" encoding="utf-8" standalone="no"?>
<!DOCTYPE svg PUBLIC "-//W3C//DTD SVG 1.1//EN"
  "http://www.w3.org/Graphics/SVG/1.1/DTD/svg11.dtd">
<!-- Created with matplotlib (http://matplotlib.org/) -->
<svg height="432pt" version="1.1" viewBox="0 0 576 432" width="576pt" xmlns="http://www.w3.org/2000/svg" xmlns:xlink="http://www.w3.org/1999/xlink">
 <defs>
  <style type="text/css">
*{stroke-linecap:butt;stroke-linejoin:round;}
  </style>
 </defs>
 <g id="figure_1">
  <g id="patch_1">
   <path d="
M0 432
L576 432
L576 0
L0 0
z
" style="fill:#ffffff;"/>
  </g>
  <g id="axes_1">
   <g id="patch_2">
    <path d="
M72 388.8
L518.4 388.8
L518.4 43.2
L72 43.2
z
" style="fill:#ffffff;"/>
   </g>
   <g id="line2d_1">
    <path clip-path="url(#p7ff5b81e1d)" d="
M72.0893 112.32
L81.4627 112.207
L90.5684 111.878
L99.1831 111.347
L107.128 110.637
L114.27 109.78
L120.608 108.802
L126.188 107.723
L131.097 106.551
L135.382 105.304
L139.087 103.999
L142.301 102.637
L145.113 101.208
L147.523 99.7395
L149.621 98.2104
L151.451 96.611
L153.058 94.9196
L154.486 93.0937
L155.736 91.132
L156.808 89.0452
L157.745 86.7455
L158.593 84.0492
L159.307 80.9983
L159.887 77.5459
L160.378 73.2236
L160.735 68.198
L161.003 61.4399
L161.182 51.0822
L161.271 27.0862
L161.316 40.9702
L161.494 58.9071
L161.807 67.9248
L162.253 74.0915
L162.789 78.5095
L163.458 82.2215
L164.262 85.4076
L165.199 88.1944
L166.27 90.6709
L167.475 92.901
L168.859 94.9927
L170.421 96.9516
L172.207 98.8315
L174.26 100.662
L176.581 102.429
L179.259 104.18
L182.294 105.894
L185.776 107.601
L189.793 109.317
L194.391 111.033
L199.658 112.756
L205.683 114.489
L212.602 116.244
L220.547 118.024
L229.608 119.822
L239.964 121.645
L251.747 123.489
L265.183 125.362
L280.403 127.256
L297.633 129.17
L317.138 131.109
L339.099 133.065
L363.827 135.039
L391.59 137.028
L422.701 139.03
L457.517 141.043
L496.439 143.066
L518.4 144.12
L518.4 144.12" style="fill:none;stroke:#0000ff;stroke-linecap:square;"/>
   </g>
   <g id="line2d_2">
    <path clip-path="url(#p7ff5b81e1d)" d="
M72.1394 -1
L72.4017 20.2819
L72.8034 34.1507
L73.2944 43.6898
L73.9193 51.5626
L74.6335 57.8769
L75.4816 63.4376
L76.4189 68.1714
L77.4902 72.4618
L78.6953 76.3588
L79.9898 79.7993
L81.4181 82.9636
L82.9357 85.7943
L84.5872 88.4072
L86.328 90.7534
L88.2027 92.9095
L90.1667 94.8338
L92.2645 96.5757
L94.4517 98.0982
L96.6835 99.3819
L98.9599 100.439
L101.281 101.272
L103.602 101.868
L105.878 102.224
L108.066 102.345
L110.163 102.242
L112.127 101.93
L113.957 101.42
L115.654 100.724
L117.216 99.8484
L118.644 98.7972
L119.939 97.574
L121.144 96.1225
L122.215 94.4778
L123.152 92.6414
L124 90.4966
L124.759 87.9564
L125.429 84.8744
L125.964 81.3405
L126.411 76.8529
L126.768 70.6657
L126.991 62.8563
L127.125 50.298
L127.17 32.0113
L127.214 46.4384
L127.393 64.3152
L127.705 73.3689
L128.152 79.5964
L128.687 84.0863
L129.357 87.8835
L130.16 91.1639
L131.097 94.0497
L132.169 96.6246
L133.374 98.946
L134.713 101.054
L136.231 103.028
L137.882 104.817
L139.712 106.472
L141.676 107.951
L143.819 109.283
L146.05 110.409
L148.371 111.333
L150.737 112.038
L153.103 112.515
L155.468 112.764
L157.745 112.781
L159.887 112.578
L161.896 112.171
L163.771 111.568
L165.511 110.776
L167.118 109.797
L168.547 108.669
L169.841 107.37
L171.046 105.838
L172.118 104.107
L173.055 102.174
L173.903 99.9105
L174.662 97.211
L175.287 94.1534
L175.822 90.3819
L176.224 86.0737
L176.536 80.5498
L176.76 72.9641
L176.894 61.4104
L176.938 48.436
L176.983 53.5137
L177.161 73.5844
L177.474 82.8597
L177.92 89.1419
L178.456 93.6401
L179.125 97.4262
L179.929 100.682
L180.866 103.532
L181.937 106.061
L183.142 108.324
L184.482 110.361
L185.955 112.196
L187.561 113.843
L189.302 115.307
L191.132 116.558
L193.052 117.603
L195.016 118.422
L196.98 119.003
L198.899 119.344
L200.774 119.455
L202.559 119.337
L204.21 119.008
L205.773 118.469
L207.201 117.738
L208.495 116.831
L209.701 115.713
L210.817 114.364
L211.799 112.829
L212.691 111.027
L213.495 108.904
L214.209 106.379
L214.834 103.318
L215.369 99.4747
L215.771 94.9833
L216.084 89.0008
L216.307 79.9965
L216.396 71.1059
L216.441 58.4276
L216.485 62.8544
L216.664 83.1598
L216.976 92.484
L217.423 98.8118
L217.958 103.357
L218.628 107.196
L219.431 110.508
L220.369 113.414
L221.44 115.991
L222.6 118.213
L223.895 120.212
L225.278 121.94
L226.707 123.375
L228.18 124.543
L229.608 125.397
L230.992 125.969
L232.286 126.264
L233.447 126.305
L234.518 126.125
L235.5 125.734
L236.393 125.141
L237.241 124.303
L238 123.244
L238.714 121.87
L239.383 120.082
L239.964 117.908
L240.499 115.001
L240.946 111.288
L241.303 106.366
L241.57 99.3275
L241.749 86.9811
L241.838 72.9895
L242.017 97.2888
L242.329 107.101
L242.776 113.799
L243.356 119.056
L244.07 123.493
L244.963 127.594
L245.989 131.276
L247.239 134.916
L248.667 138.392
L250.319 141.832
L252.238 145.313
L254.425 148.813
L256.925 152.385
L259.737 156.005
L262.862 159.66
L266.343 163.386
L270.182 167.165
L274.422 171.023
L279.064 174.942
L284.108 178.906
L289.598 182.934
L295.535 187.012
L301.918 191.125
L308.792 195.288
L316.201 199.513
L324.102 203.76
L332.538 208.041
L341.554 212.366
L351.151 216.72
L361.372 221.111
L372.219 225.526
L383.69 229.953
L395.875 234.416
L408.73 238.885
L422.344 243.381
L436.717 247.891
L451.893 252.419
L467.873 256.953
L484.745 261.507
L502.51 266.069
L518.4 269.969
L518.4 269.969" style="fill:none;stroke:#008000;stroke-linecap:square;"/>
   </g>
   <g id="line2d_3">
    <path clip-path="url(#p7ff5b81e1d)" d="
M72.0996 -1
L72.3125 22.1872
L72.6695 37.4318
L73.1605 48.4207
L73.7408 56.5
L74.455 63.3174
L75.2584 68.8876
L76.1511 73.5947
L77.1777 77.8149
L78.2936 81.4476
L79.4541 84.4895
L80.7039 87.1474
L81.9984 89.3779
L83.2928 91.1782
L84.5872 92.6137
L85.8817 93.7258
L87.1315 94.5154
L88.3366 95.0216
L89.4971 95.2709
L90.613 95.2799
L91.6396 95.0712
L92.6216 94.6522
L93.559 94.0184
L94.4963 93.1059
L95.389 91.9047
L96.1925 90.4492
L96.9513 88.6086
L97.6208 86.4133
L98.2457 83.5632
L98.7813 79.9832
L99.1831 75.8613
L99.4955 70.5945
L99.7187 63.5397
L99.8526 53.7771
L99.9419 31.811
L100.12 62.3521
L100.433 72.277
L100.835 78.3123
L101.37 83.1427
L102.04 87.1533
L102.843 90.5746
L103.736 93.4201
L104.762 95.9514
L105.878 98.1175
L107.084 99.9787
L108.378 101.565
L109.717 102.849
L111.056 103.828
L112.395 104.537
L113.734 104.992
L115.029 105.195
L116.278 105.165
L117.484 104.911
L118.644 104.433
L119.76 103.724
L120.787 102.809
L121.769 101.637
L122.706 100.16
L123.554 98.4038
L124.313 96.3336
L125.027 93.7029
L125.607 90.732
L126.098 87.1166
L126.5 82.5628
L126.812 76.4562
L127.036 67.0738
L127.125 57.2336
L127.17 38.9471
L127.214 53.3741
L127.393 71.2501
L127.705 80.2998
L128.152 86.5157
L128.687 90.9823
L129.357 94.7363
L130.16 97.9437
L131.053 100.599
L132.035 102.85
L133.106 104.777
L134.267 106.42
L135.472 107.757
L136.722 108.824
L138.016 109.637
L139.266 110.169
L140.516 110.466
L141.721 110.53
L142.926 110.37
L144.086 109.984
L145.202 109.372
L146.274 108.522
L147.3 107.408
L148.238 106.061
L149.13 104.377
L149.934 102.381
L150.648 100.018
L151.273 97.2014
L151.808 93.783
L152.255 89.4914
L152.612 83.7462
L152.835 76.9933
L152.969 68.259
L153.058 41.2148
L153.103 59.1042
L153.281 76.4958
L153.594 85.4741
L154.04 91.6526
L154.576 96.0877
L155.245 99.8055
L156.004 102.818
L156.897 105.458
L157.879 107.673
L158.95 109.544
L160.066 111.058
L161.226 112.272
L162.432 113.213
L163.637 113.872
L164.797 114.26
L165.958 114.415
L167.074 114.34
L168.145 114.049
L169.172 113.546
L170.198 112.79
L171.18 111.78
L172.118 110.484
L172.966 108.937
L173.769 107.005
L174.483 104.715
L175.108 101.99
L175.644 98.7073
L176.09 94.6503
L176.447 89.3982
L176.715 81.95
L176.849 73.804
L176.938 55.3718
L176.983 60.4494
L177.161 80.5191
L177.474 89.789
L177.92 96.0552
L178.456 100.521
L179.125 104.247
L179.884 107.251
L180.732 109.752
L181.67 111.863
L182.696 113.641
L183.767 115.062
L184.883 116.172
L185.999 116.965
L187.07 117.457
L188.097 117.695
L189.124 117.703
L190.106 117.486
L191.043 117.052
L191.98 116.367
L192.873 115.434
L193.721 114.228
L194.525 112.706
L195.283 110.789
L195.998 108.337
L196.622 105.326
L197.158 101.531
L197.56 97.1077
L197.872 91.2815
L198.095 82.7908
L198.229 66.2711
L198.274 57.3291
L198.452 84.3155
L198.765 94.0505
L199.167 99.9724
L199.702 104.675
L200.327 108.311
L201.086 111.433
L201.934 113.989
L202.871 116.105
L203.853 117.774
L204.835 119.021
L205.817 119.924
L206.755 120.501
L207.647 120.809
L208.54 120.88
L209.388 120.721
L210.192 120.346
L210.995 119.723
L211.799 118.804
L212.557 117.591
L213.271 116.041
L213.941 114.073
L214.566 111.539
L215.102 108.45
L215.548 104.633
L215.905 99.7735
L216.173 93.2332
L216.351 83.448
L216.441 65.3633
L216.485 69.7901
L216.664 90.0936
L216.976 99.4075
L217.423 105.705
L217.958 110.188
L218.628 113.91
L219.387 116.873
L220.235 119.281
L221.127 121.141
L222.02 122.495
L222.868 123.397
L223.672 123.943
L224.43 124.192
L225.145 124.185
L225.814 123.95
L226.484 123.464
L227.153 122.682
L227.823 121.528
L228.448 120
L229.072 117.832
L229.608 115.154
L230.099 111.473
L230.501 106.556
L230.769 100.74
L230.947 93.0143
L231.036 84.1009
L231.081 71.2607
L231.126 76.0776
L231.304 96.2797
L231.617 105.624
L232.063 111.964
L232.599 116.482
L233.224 120.004
L233.938 122.835
L234.697 124.988
L235.455 126.515
L236.17 127.484
L236.794 127.991
L237.33 128.17
L237.821 128.113
L238.312 127.821
L238.803 127.252
L239.294 126.34
L239.785 124.969
L240.276 122.926
L240.722 120.104
L241.124 116.026
L241.437 110.407
L241.66 101.925
L241.749 93.916
L241.838 79.9252
L242.017 104.218
L242.329 113.993
L242.776 120.576
L243.311 125.253
L243.936 128.838
L244.606 131.413
L245.186 132.87
L245.677 133.583
L246.034 133.781
L246.346 133.694
L246.659 133.31
L246.971 132.535
L247.328 130.946
L247.641 128.509
L247.909 124.834
L248.132 118.837
L248.266 110.56
L248.355 84.1216
L248.4 101.765
L248.623 121.81
L248.98 131.621
L249.471 139.054
L250.14 145.856
L251.033 152.562
L252.104 158.932
L253.443 165.523
L255.006 172.076
L256.791 178.612
L258.844 185.281
L261.121 191.922
L263.665 198.659
L266.477 205.467
L269.512 212.232
L272.815 219.05
L276.386 225.905
L280.18 232.71
L284.242 239.54
L288.572 246.385
L293.169 253.239
L298.034 260.092
L303.167 266.939
L308.613 273.83
L314.326 280.698
L320.307 287.541
L326.601 294.401
L333.207 301.271
L340.081 308.098
L347.267 314.922
L354.766 321.736
L362.622 328.573
L370.79 335.385
L379.316 342.205
L388.198 349.022
L397.438 355.831
L407.034 362.626
L416.988 369.399
L427.344 376.176
L438.101 382.949
L449.26 389.71
L460.82 396.454
L472.827 403.2
L485.28 409.941
L498.18 416.67
L511.571 423.403
L518.4 426.745
L518.4 426.745" style="fill:none;stroke:#ff0000;stroke-linecap:square;"/>
   </g>
   <g id="line2d_4">
    <path clip-path="url(#p7ff5b81e1d)" d="
M72.0893 13.2201
L72.3125 38.2424
L72.6695 53.3099
L73.1159 63.1083
L73.6515 70.1445
L74.2318 74.8841
L74.7674 77.559
L75.2138 78.7929
L75.5262 79.1462
L75.7494 79.1293
L75.9726 78.8659
L76.2404 78.1733
L76.5528 76.7011
L76.8653 74.1548
L77.1777 69.5164
L77.4009 62.7147
L77.5348 52.6336
L77.6241 37.0928
L77.8026 62.7451
L78.1151 72.7598
L78.5168 78.941
L79.0078 83.3829
L79.5434 86.3684
L80.0344 88.0098
L80.4361 88.7232
L80.7486 88.9089
L81.0164 88.8041
L81.2842 88.4354
L81.5966 87.6219
L81.9537 86.053
L82.3108 83.4823
L82.6679 79.049
L82.9357 72.6309
L83.1143 62.4234
L83.2035 37.9019
L83.2482 52.6466
L83.4267 70.576
L83.7392 79.7097
L84.1409 85.4048
L84.6319 89.4247
L85.1675 92.0314
L85.6585 93.3677
L86.0156 93.8234
L86.2834 93.8953
L86.5512 93.7307
L86.8636 93.2161
L87.2207 92.1328
L87.6224 90.0791
L87.9795 87.0935
L88.292 82.7453
L88.5598 75.6093
L88.6937 67.7621
L88.783 51.2319
L88.8276 52.4326
L89.0061 73.9993
L89.3186 83.4144
L89.7203 89.1132
L90.2113 93.0627
L90.7023 95.4146
L91.1487 96.6544
L91.5504 97.1801
L91.8182 97.2411
L92.086 97.0676
L92.3984 96.5482
L92.7555 95.4723
L93.1573 93.4598
L93.559 90.1107
L93.8714 85.6845
L94.1392 78.4225
L94.2731 70.3548
L94.3624 52.1069
L94.407 56.9035
L94.5856 77.0996
L94.898 86.3525
L95.2998 91.9598
L95.7907 95.824
L96.2817 98.0986
L96.7281 99.27
L97.0852 99.7081
L97.353 99.7652
L97.6208 99.5877
L97.9333 99.0647
L98.2903 97.9891
L98.6921 95.9897
L99.0938 92.6888
L99.4062 88.3783
L99.674 81.4858
L99.8526 69.8781
L99.9419 47.9153
L100.12 78.4383
L100.433 88.2522
L100.835 93.9939
L101.326 97.8961
L101.817 100.171
L102.263 101.329
L102.62 101.751
L102.888 101.794
L103.156 101.6
L103.468 101.056
L103.825 99.9518
L104.227 97.9124
L104.629 94.5532
L104.941 90.1595
L105.209 83.0698
L105.387 70.6223
L105.477 56.7808
L105.655 80.8105
L105.968 90.3142
L106.369 95.9481
L106.86 99.7775
L107.351 101.994
L107.798 103.1
L108.155 103.479
L108.423 103.487
L108.69 103.254
L109.003 102.658
L109.36 101.481
L109.762 99.3256
L110.163 95.7636
L110.476 91.0186
L110.699 84.8357
L110.878 72.6438
L110.967 56.8039
L111.145 82.3162
L111.458 91.8918
L111.86 97.531
L112.351 101.345
L112.842 103.537
L113.288 104.616
L113.645 104.967
L113.913 104.95
L114.181 104.689
L114.493 104.053
L114.85 102.817
L115.252 100.563
L115.654 96.8191
L115.966 91.7383
L116.189 84.7957
L116.323 75.237
L116.412 49.4686
L116.457 70.3904
L116.68 87.2451
L116.993 94.7831
L117.439 100.144
L117.93 103.424
L118.421 105.286
L118.823 106.071
L119.135 106.289
L119.403 106.212
L119.671 105.885
L120.028 105.02
L120.43 103.335
L120.831 100.564
L121.188 96.4738
L121.456 91.1265
L121.679 81.5814
L121.769 71.0998
L121.813 44.573
L121.858 69.5996
L122.081 88.2018
L122.394 95.9275
L122.795 100.945
L123.286 104.413
L123.777 106.373
L124.179 107.21
L124.491 107.457
L124.759 107.401
L125.027 107.091
L125.339 106.381
L125.697 105.028
L126.098 102.566
L126.455 99.0026
L126.768 93.6092
L126.991 85.8763
L127.125 73.3363
L127.17 55.0513
L127.214 69.4776
L127.393 87.3288
L127.705 96.2492
L128.107 101.658
L128.598 105.313
L129.089 107.367
L129.491 108.249
L129.803 108.522
L130.071 108.481
L130.339 108.182
L130.651 107.48
L131.008 106.13
L131.41 103.662
L131.767 100.08
L132.079 94.6352
L132.303 86.7619
L132.437 73.5546
L132.481 48.297
L132.526 71.8271
L132.749 90.5242
L133.061 98.2451
L133.463 103.24
L133.954 106.665
L134.4 108.44
L134.802 109.283
L135.115 109.517
L135.382 109.438
L135.65 109.094
L136.007 108.179
L136.409 106.385
L136.811 103.402
L137.168 98.8897
L137.436 92.6425
L137.614 83.504
L137.748 63.4328
L137.927 88.5362
L138.239 98.0511
L138.641 103.617
L139.087 107.064
L139.578 109.226
L139.98 110.147
L140.292 110.427
L140.56 110.38
L140.828 110.062
L141.14 109.319
L141.498 107.888
L141.899 105.254
L142.256 101.36
L142.569 95.1736
L142.747 87.9994
L142.881 71.9387
L142.926 60.941
L142.926 60.941
L142.926 60.941
L143.104 89.3101
L143.417 98.9723
L143.819 104.57
L144.265 108.016
L144.711 110.015
L145.113 110.983
L145.425 111.285
L145.693 111.248
L145.961 110.934
L146.274 110.186
L146.631 108.735
L147.032 106.047
L147.389 102.038
L147.657 96.809
L147.88 87.6697
L147.97 78.3161
L148.014 63.3193
L148.059 72.4169
L148.238 91.3218
L148.55 100.339
L148.952 105.735
L149.398 109.072
L149.844 110.987
L150.246 111.879
L150.559 112.116
L150.782 112.051
L151.05 111.71
L151.362 110.917
L151.719 109.383
L152.121 106.529
L152.478 102.198
L152.746 96.3034
L152.924 88.1743
L153.014 78.0818
L153.058 57.3191
L153.103 75.2075
L153.281 92.5703
L153.594 101.4
L153.995 106.726
L154.442 110.013
L154.888 111.876
L155.29 112.712
L155.558 112.894
L155.781 112.824
L156.049 112.467
L156.361 111.641
L156.718 110.042
L157.075 107.464
L157.432 103.164
L157.7 97.316
L157.879 89.3011
L157.968 79.5514
L158.013 61.9277
L158.057 75.3594
L158.236 93.3636
L158.548 102.267
L158.95 107.604
L159.396 110.876
L159.843 112.707
L160.244 113.499
L160.512 113.641
L160.735 113.529
L161.003 113.111
L161.316 112.188
L161.673 110.426
L162.03 107.566
L162.387 102.645
L162.655 95.3241
L162.789 87.1928
L162.878 68.6125
L162.923 73.9828
L163.101 93.9293
L163.414 103.035
L163.815 108.421
L164.262 111.694
L164.708 113.501
L165.065 114.205
L165.333 114.358
L165.556 114.248
L165.824 113.821
L166.136 112.87
L166.493 111.042
L166.851 108.05
L167.163 103.663
L167.431 96.4972
L167.609 83.6702
L167.699 72.1171
L167.877 94.493
L168.19 103.798
L168.591 109.229
L169.038 112.501
L169.484 114.278
L169.841 114.939
L170.109 115.049
L170.332 114.892
L170.6 114.393
L170.912 113.326
L171.269 111.292
L171.627 107.92
L171.939 102.755
L172.162 95.4907
L172.296 84.8006
L172.385 72.2073
L172.564 95.3012
L172.876 104.651
L173.278 110.079
L173.724 113.323
L174.171 115.052
L174.528 115.656
L174.751 115.724
L174.974 115.556
L175.242 115.028
L175.554 113.902
L175.912 111.745
L176.269 108.117
L176.581 102.359
L176.804 93.3978
L176.894 84.4474
L176.938 71.4758
L176.983 76.553
L177.161 96.5906
L177.474 105.685
L177.875 111.018
L178.322 114.189
L178.724 115.724
L179.081 116.327
L179.304 116.38
L179.527 116.187
L179.795 115.61
L180.107 114.392
L180.464 112.053
L180.821 108.044
L181.089 102.641
L181.268 95.6524
L181.402 80.7938
L181.446 61.493
L181.446 61.493
L181.446 61.493
L181.625 96.3455
L181.937 106.145
L182.339 111.665
L182.785 114.892
L183.187 116.426
L183.5 116.963
L183.723 117.033
L183.946 116.844
L184.214 116.256
L184.526 114.997
L184.883 112.55
L185.24 108.284
L185.508 102.315
L185.687 93.8431
L185.776 82.5403
L185.821 52.9219
L185.821 52.9219
L185.821 52.9219
L185.955 94.2181
L186.222 105.022
L186.579 111.051
L187.026 114.938
L187.428 116.793
L187.785 117.562
L188.008 117.679
L188.231 117.524
L188.499 116.962
L188.811 115.71
L189.168 113.234
L189.481 109.562
L189.749 103.971
L189.927 96.4772
L190.016 88.0788
L190.106 76.7877
L190.284 98.9827
L190.597 108.236
L190.998 113.55
L191.445 116.603
L191.846 117.953
L192.114 118.292
L192.337 118.259
L192.561 117.932
L192.828 117.119
L193.141 115.469
L193.498 112.231
L193.81 107.108
L194.034 99.7659
L194.167 88.6618
L194.212 77.1485
L194.257 78.6767
L194.435 100.009
L194.748 109.183
L195.149 114.447
L195.551 117.216
L195.953 118.6
L196.221 118.93
L196.399 118.905
L196.622 118.596
L196.89 117.782
L197.203 116.091
L197.56 112.716
L197.872 107.234
L198.095 98.8676
L198.229 82.3743
L198.274 73.4332
L198.452 100.383
L198.765 109.897
L199.167 115.232
L199.568 117.988
L199.925 119.221
L200.193 119.56
L200.372 119.527
L200.595 119.187
L200.863 118.301
L201.175 116.457
L201.488 113.318
L201.8 107.554
L202.023 98.2447
L202.113 88.2872
L202.157 68.7917
L202.202 84.9551
L202.38 102.524
L202.693 111.285
L203.095 116.351
L203.496 118.931
L203.853 120.003
L204.077 120.201
L204.255 120.11
L204.478 119.673
L204.746 118.62
L205.059 116.458
L205.371 112.696
L205.639 106.666
L205.817 97.7982
L205.951 74.1029
L205.996 90.0296
L206.219 106.056
L206.532 113.307
L206.933 117.784
L207.335 120.011
L207.647 120.748
L207.871 120.818
L208.049 120.605
L208.317 119.801
L208.629 117.975
L208.942 114.729
L209.21 109.73
L209.433 100.813
L209.522 91.8121
L209.567 78.5486
L209.611 84.2703
L209.79 104.094
L210.102 113.075
L210.504 118.124
L210.906 120.569
L211.218 121.376
L211.441 121.459
L211.62 121.235
L211.843 120.564
L212.156 118.754
L212.468 115.45
L212.736 110.248
L212.914 103.407
L213.048 89.1086
L213.093 62.2825
L213.093 62.2825
L213.093 62.2825
L213.227 100.995
L213.495 111.711
L213.852 117.532
L214.253 120.711
L214.611 121.945
L214.834 122.124
L215.012 121.952
L215.235 121.322
L215.503 119.852
L215.816 116.743
L216.084 111.831
L216.307 103.002
L216.396 94.1401
L216.441 81.4671
L216.485 85.8933
L216.664 106.136
L216.976 115.115
L217.333 119.668
L217.69 121.934
L218.003 122.732
L218.181 122.763
L218.36 122.487
L218.583 121.671
L218.851 119.853
L219.163 115.946
L219.431 109.128
L219.61 96.9715
L219.699 81.3861
L219.878 106.67
L220.19 115.992
L220.547 120.584
L220.904 122.784
L221.172 123.42
L221.351 123.423
L221.529 123.087
L221.752 122.141
L222.02 120.032
L222.288 116.246
L222.511 110.268
L222.69 98.1103
L222.779 82.6564
L222.957 107.841
L223.27 117.128
L223.627 121.637
L223.984 123.69
L224.252 124.157
L224.386 124.079
L224.564 123.641
L224.832 122.166
L225.1 119.34
L225.368 113.937
L225.546 106.244
L225.636 97.0478
L225.68 82.7045
L225.725 90.6183
L225.903 109.798
L226.216 118.576
L226.573 122.842
L226.885 124.512
L227.108 124.875
L227.242 124.785
L227.421 124.292
L227.644 122.991
L227.912 120.048
L228.18 114.18
L228.358 105.036
L228.492 87.0321
L228.671 110.502
L228.983 119.605
L229.34 123.867
L229.653 125.407
L229.831 125.621
L229.965 125.48
L230.144 124.866
L230.367 123.293
L230.635 119.667
L230.858 113.585
L230.992 105.604
L231.081 87.3642
L231.126 92.18
L231.304 112.28
L231.617 121.055
L231.974 125.081
L232.242 126.262
L232.42 126.38
L232.554 126.124
L232.777 124.971
L233.045 121.983
L233.268 117.02
L233.447 108.158
L233.581 87.3423
L233.759 113.079
L234.027 121.39
L234.339 125.52
L234.607 127
L234.786 127.209
L234.92 126.974
L235.098 126.091
L235.321 123.83
L235.545 119.433
L235.723 112.009
L235.812 103.181
L235.857 90.4158
L235.902 95.1053
L236.08 115.238
L236.348 123.098
L236.66 126.912
L236.928 128.042
L237.062 128.018
L237.196 127.597
L237.419 125.86
L237.642 122.212
L237.821 116.334
L237.955 105.462
L238 94.2067
L238.044 95.1268
L238.223 116.684
L238.491 124.584
L238.803 128.212
L239.026 128.99
L239.115 128.947
L239.249 128.492
L239.428 127.045
L239.651 123.253
L239.83 116.747
L239.964 102.298
L240.008 80.4301
L240.008 80.4301
L240.008 80.4301
L240.187 117.501
L240.455 125.917
L240.767 129.473
L240.946 129.985
L241.035 129.882
L241.169 129.25
L241.347 127.331
L241.57 122.03
L241.704 114.751
L241.838 96.0278
L242.017 120.117
L242.285 127.954
L242.552 130.738
L242.686 131.058
L242.731 131.019
L242.865 130.446
L243.043 128.4
L243.222 123.972
L243.356 116.675
L243.49 99.3179
L243.668 122.354
L243.936 129.926
L244.204 132.186
L244.249 132.233
L244.293 132.191
L244.427 131.488
L244.606 128.867
L244.784 122.561
L244.918 106.531
L244.963 97.1519
L245.141 124.371
L245.409 131.913
L245.632 133.538
L245.722 133.368
L245.855 132.147
L246.034 127.843
L246.168 119.535
L246.213 113.02
L246.257 83.9521
L246.302 112.035
L246.48 128.406
L246.748 134.475
L246.882 135.017
L246.971 134.601
L247.105 132.549
L247.239 127.593
L247.328 119.775
L247.418 107.911
L247.596 130.511
L247.819 136.215
L247.909 136.735
L247.953 136.678
L248.043 135.87
L248.176 132.251
L248.31 120.498
L248.355 100.225
L248.4 117.839
L248.578 134.852
L248.801 138.788
L248.891 138.033
L249.025 133.144
L249.114 122.014
L249.158 104.5
L249.158 104.5
L249.158 104.5
L249.337 137.857
L249.516 141.314
L249.605 139.655
L249.694 133.603
L249.783 119.341
L249.962 143.709
L250.007 144.662
L250.051 144.621
L250.14 139.937
L250.185 130.366
L250.23 131.078
L250.364 149.861
L250.408 149.307
L250.453 141.4
L250.498 148.169
L250.721 186.392
L251.167 219.801
L251.837 253.204
L252.729 286.824
L253.845 320.627
L255.184 354.559
L256.746 388.573
L258.532 422.632
L259.12 433
L259.12 433" style="fill:none;stroke:#00bfbf;stroke-linecap:square;"/>
   </g>
   <g id="matplotlib.axis_1">
    <g id="xtick_1">
     <g id="line2d_5">
      <path clip-path="url(#p7ff5b81e1d)" d="
M72 388.8
L72 43.2" style="fill:none;opacity:0.3;stroke:#808080;stroke-dasharray:1.000000,3.000000;stroke-dashoffset:0.0;stroke-width:0.5;"/>
     </g>
     <g id="line2d_6">
      <defs>
       <path d="
M0 0
L0 -4" id="m93b0483c22" style="stroke:#000000;stroke-width:0.5;"/>
      </defs>
      <g>
       <use style="stroke:#000000;stroke-width:0.5;" x="72.0" xlink:href="#m93b0483c22" y="388.8"/>
      </g>
     </g>
     <g id="line2d_7">
      <defs>
       <path d="
M0 0
L0 4" id="m741efc42ff" style="stroke:#000000;stroke-width:0.5;"/>
      </defs>
      <g>
       <use style="stroke:#000000;stroke-width:0.5;" x="72.0" xlink:href="#m741efc42ff" y="43.2"/>
      </g>
     </g>
     <g id="text_1">
      <!-- 0 -->
      <defs>
       <path d="
M31.7812 3.42188
Q39.2656 3.42188 42.9688 11.625
Q46.6875 19.8281 46.6875 36.375
Q46.6875 52.9844 42.9688 61.1875
Q39.2656 69.3906 31.7812 69.3906
Q24.3125 69.3906 20.5938 61.1875
Q16.8906 52.9844 16.8906 36.375
Q16.8906 19.8281 20.5938 11.625
Q24.3125 3.42188 31.7812 3.42188
M31.7812 -1.42188
Q19.9219 -1.42188 13.25 8.53125
Q6.59375 18.5 6.59375 36.375
Q6.59375 54.2969 13.25 64.25
Q19.9219 74.2188 31.7812 74.2188
Q43.7031 74.2188 50.3438 64.25
Q56.9844 54.2969 56.9844 36.375
Q56.9844 18.5 50.3438 8.53125
Q43.7031 -1.42188 31.7812 -1.42188" id="BitstreamVeraSerif-Roman-30"/>
      </defs>
      <g transform="translate(67.96875 404.9575)scale(0.16 -0.16)">
       <use xlink:href="#BitstreamVeraSerif-Roman-30"/>
      </g>
     </g>
    </g>
    <g id="xtick_2">
     <g id="line2d_8">
      <path clip-path="url(#p7ff5b81e1d)" d="
M161.28 388.8
L161.28 43.2" style="fill:none;opacity:0.3;stroke:#808080;stroke-dasharray:1.000000,3.000000;stroke-dashoffset:0.0;stroke-width:0.5;"/>
     </g>
     <g id="line2d_9">
      <g>
       <use style="stroke:#000000;stroke-width:0.5;" x="161.28" xlink:href="#m93b0483c22" y="388.8"/>
      </g>
     </g>
     <g id="line2d_10">
      <g>
       <use style="stroke:#000000;stroke-width:0.5;" x="161.28" xlink:href="#m741efc42ff" y="43.2"/>
      </g>
     </g>
     <g id="text_2">
      <!-- 1 -->
      <defs>
       <path d="
M14.2031 0
L14.2031 5.17188
L26.9062 5.17188
L26.9062 65.8281
L12.2031 56.2969
L12.2031 62.7031
L29.9844 74.2188
L36.7188 74.2188
L36.7188 5.17188
L49.4219 5.17188
L49.4219 0
z
" id="BitstreamVeraSerif-Roman-31"/>
      </defs>
      <g transform="translate(158.3025 404.9575)scale(0.16 -0.16)">
       <use xlink:href="#BitstreamVeraSerif-Roman-31"/>
      </g>
     </g>
    </g>
    <g id="xtick_3">
     <g id="line2d_11">
      <path clip-path="url(#p7ff5b81e1d)" d="
M250.56 388.8
L250.56 43.2" style="fill:none;opacity:0.3;stroke:#808080;stroke-dasharray:1.000000,3.000000;stroke-dashoffset:0.0;stroke-width:0.5;"/>
     </g>
     <g id="line2d_12">
      <g>
       <use style="stroke:#000000;stroke-width:0.5;" x="250.56" xlink:href="#m93b0483c22" y="388.8"/>
      </g>
     </g>
     <g id="line2d_13">
      <g>
       <use style="stroke:#000000;stroke-width:0.5;" x="250.56" xlink:href="#m741efc42ff" y="43.2"/>
      </g>
     </g>
     <g id="text_3">
      <!-- 2 -->
      <defs>
       <path d="
M12.7969 55.5156
L7.32812 55.5156
L7.32812 68.5
Q12.5469 71.2969 17.8438 72.75
Q23.1406 74.2188 28.2188 74.2188
Q39.5938 74.2188 46.1875 68.7031
Q52.7812 63.1875 52.7812 53.7188
Q52.7812 43.0156 37.8438 28.125
Q36.6719 27 36.0781 26.4219
L17.6719 8.01562
L48.0938 8.01562
L48.0938 17
L53.8125 17
L53.8125 0
L6.78125 0
L6.78125 5.32812
L28.9062 27.3906
Q36.2344 34.7188 39.3594 40.8438
Q42.4844 46.9688 42.4844 53.7188
Q42.4844 61.0781 38.6406 65.2344
Q34.8125 69.3906 28.0781 69.3906
Q21.0938 69.3906 17.2812 65.9219
Q13.4844 62.4531 12.7969 55.5156" id="BitstreamVeraSerif-Roman-32"/>
      </defs>
      <g transform="translate(246.7975 404.9575)scale(0.16 -0.16)">
       <use xlink:href="#BitstreamVeraSerif-Roman-32"/>
      </g>
     </g>
    </g>
    <g id="xtick_4">
     <g id="line2d_14">
      <path clip-path="url(#p7ff5b81e1d)" d="
M339.84 388.8
L339.84 43.2" style="fill:none;opacity:0.3;stroke:#808080;stroke-dasharray:1.000000,3.000000;stroke-dashoffset:0.0;stroke-width:0.5;"/>
     </g>
     <g id="line2d_15">
      <g>
       <use style="stroke:#000000;stroke-width:0.5;" x="339.84" xlink:href="#m93b0483c22" y="388.8"/>
      </g>
     </g>
     <g id="line2d_16">
      <g>
       <use style="stroke:#000000;stroke-width:0.5;" x="339.84" xlink:href="#m741efc42ff" y="43.2"/>
      </g>
     </g>
     <g id="text_4">
      <!-- 3 -->
      <defs>
       <path d="
M9.71875 69.8281
Q15.4375 71.9688 20.6719 73.0938
Q25.9219 74.2188 30.5156 74.2188
Q41.2188 74.2188 47.2188 69.5938
Q53.2188 64.9844 53.2188 56.7812
Q53.2188 50.2031 49.0625 45.7812
Q44.9219 41.3594 37.3125 39.7969
Q46.2969 38.5312 51.25 33.2812
Q56.2031 28.0312 56.2031 19.6719
Q56.2031 9.46875 49.3438 4.01562
Q42.4844 -1.42188 29.5938 -1.42188
Q23.875 -1.42188 18.4219 -0.1875
Q12.9844 1.03125 7.625 3.51562
L7.625 17.6719
L13.0938 17.6719
Q13.5781 10.6406 17.8281 7.03125
Q22.0781 3.42188 29.7812 3.42188
Q37.25 3.42188 41.5781 7.73438
Q45.9062 12.0625 45.9062 19.5781
Q45.9062 28.1719 41.4531 32.5938
Q37.0156 37.0156 28.4219 37.0156
L23.7812 37.0156
L23.7812 42
L26.2188 42
Q34.7656 42 39.0312 45.5312
Q43.3125 49.0781 43.3125 56.2031
Q43.3125 62.5938 39.7969 65.9844
Q36.2812 69.3906 29.6875 69.3906
Q23.0938 69.3906 19.4531 66.2656
Q15.8281 63.1406 15.1875 56.9844
L9.71875 56.9844
z
" id="BitstreamVeraSerif-Roman-33"/>
      </defs>
      <g transform="translate(335.95375 404.9575)scale(0.16 -0.16)">
       <use xlink:href="#BitstreamVeraSerif-Roman-33"/>
      </g>
     </g>
    </g>
    <g id="xtick_5">
     <g id="line2d_17">
      <path clip-path="url(#p7ff5b81e1d)" d="
M429.12 388.8
L429.12 43.2" style="fill:none;opacity:0.3;stroke:#808080;stroke-dasharray:1.000000,3.000000;stroke-dashoffset:0.0;stroke-width:0.5;"/>
     </g>
     <g id="line2d_18">
      <g>
       <use style="stroke:#000000;stroke-width:0.5;" x="429.12" xlink:href="#m93b0483c22" y="388.8"/>
      </g>
     </g>
     <g id="line2d_19">
      <g>
       <use style="stroke:#000000;stroke-width:0.5;" x="429.12" xlink:href="#m741efc42ff" y="43.2"/>
      </g>
     </g>
     <g id="text_5">
      <!-- 4 -->
      <defs>
       <path d="
M34.9062 24.7031
L34.9062 63.4844
L10.0156 24.7031
z

M56.3906 0
L23.1875 0
L23.1875 5.17188
L34.9062 5.17188
L34.9062 19.4844
L3.07812 19.4844
L3.07812 24.8125
L35.0156 74.2188
L44.6719 74.2188
L44.6719 24.7031
L58.5938 24.7031
L58.5938 19.4844
L44.6719 19.4844
L44.6719 5.17188
L56.3906 5.17188
z
" id="BitstreamVeraSerif-Roman-34"/>
      </defs>
      <g transform="translate(424.67875 404.9575)scale(0.16 -0.16)">
       <use xlink:href="#BitstreamVeraSerif-Roman-34"/>
      </g>
     </g>
    </g>
    <g id="xtick_6">
     <g id="line2d_20">
      <path clip-path="url(#p7ff5b81e1d)" d="
M518.4 388.8
L518.4 43.2" style="fill:none;opacity:0.3;stroke:#808080;stroke-dasharray:1.000000,3.000000;stroke-dashoffset:0.0;stroke-width:0.5;"/>
     </g>
     <g id="line2d_21">
      <g>
       <use style="stroke:#000000;stroke-width:0.5;" x="518.4" xlink:href="#m93b0483c22" y="388.8"/>
      </g>
     </g>
     <g id="line2d_22">
      <g>
       <use style="stroke:#000000;stroke-width:0.5;" x="518.4" xlink:href="#m741efc42ff" y="43.2"/>
      </g>
     </g>
     <g id="text_6">
      <!-- 5 -->
      <defs>
       <path d="
M50.2969 72.9062
L50.2969 64.8906
L16.8906 64.8906
L16.8906 44
Q19.4375 45.75 22.8281 46.625
Q26.2188 47.5156 30.4219 47.5156
Q42.2344 47.5156 49.0625 40.9688
Q55.9062 34.4219 55.9062 23.0938
Q55.9062 11.5312 49 5.04688
Q42.0938 -1.42188 29.5938 -1.42188
Q24.5625 -1.42188 19.2812 -0.1875
Q14.0156 1.03125 8.5 3.51562
L8.5 17.6719
L14.0156 17.6719
Q14.4531 10.75 18.4219 7.07812
Q22.4062 3.42188 29.5938 3.42188
Q37.3125 3.42188 41.4531 8.5
Q45.6094 13.5781 45.6094 23.0938
Q45.6094 32.5625 41.4844 37.6094
Q37.3594 42.6719 29.5938 42.6719
Q25.2031 42.6719 21.8438 41.1094
Q18.5 39.5469 15.9219 36.2812
L11.7188 36.2812
L11.7188 72.9062
z
" id="BitstreamVeraSerif-Roman-35"/>
      </defs>
      <g transform="translate(514.6075 404.9575)scale(0.16 -0.16)">
       <use xlink:href="#BitstreamVeraSerif-Roman-35"/>
      </g>
     </g>
    </g>
    <g id="text_7">
     <!-- $\Omega$ -->
     <defs>
      <path d="
M7.71875 0
L4.39062 16.6094
L7.32812 16.6094
Q7.85938 13.7188 8.29688 11.5
Q8.73438 9.28125 9.4375 8.375
Q10.1562 7.46875 11.7188 7.17188
Q13.2812 6.89062 16.8906 6.89062
L23 6.89062
Q21.5312 12.5469 15.6875 21.6562
Q9.85938 30.7656 7.73438 34.8906
Q5.60938 39.0156 5.60938 45.5156
Q5.60938 53.0781 10.0938 58.7656
Q14.5938 64.4531 21.7031 67.4844
Q28.8125 70.5156 36.0781 70.5156
Q43.3125 70.5156 50.4062 67.4844
Q57.5156 64.4531 62 58.7188
Q66.5 52.9844 66.5 45.5156
Q66.5 40.4375 64.6406 35.9375
Q62.7969 31.4531 59.9062 26.9531
Q57.0312 22.4688 53.6875 16.9375
Q50.3438 11.4219 49.125 6.89062
L55.1719 6.89062
Q58.8438 6.89062 60.4531 7.17188
Q62.0625 7.46875 62.7344 8.375
Q63.4219 9.28125 63.8438 11.5
Q64.2656 13.7188 64.7969 16.6094
L67.6719 16.6094
L64.4062 0
L46.6875 0
Q45.7031 0 45.7031 1.3125
Q45.7031 6.39062 46.9375 11.2656
Q48.1875 16.1562 50.625 23.0938
Q53.0781 30.0312 54.4375 35.3281
Q55.8125 40.625 55.8125 45.5156
Q55.8125 51.5156 53.4688 56.6406
Q51.125 61.7656 46.625 64.8438
Q42.1406 67.9219 36.0781 67.9219
Q26.9531 67.9219 21.625 61.4062
Q16.3125 54.8906 16.3125 45.5156
Q16.3594 40.375 17.5312 35.8281
Q18.7031 31.2969 21.3125 23.7188
Q23.9219 16.1562 25.1719 11.2656
Q26.4219 6.39062 26.4219 1.3125
Q26.4219 0 25.3906 0
z
" id="Cmr10-ad"/>
     </defs>
     <g transform="translate(288.63 426.9621875)scale(0.18 -0.18)">
      <use transform="translate(0.0 0.484375)" xlink:href="#Cmr10-ad"/>
     </g>
    </g>
   </g>
   <g id="matplotlib.axis_2">
    <g id="ytick_1">
     <g id="line2d_23">
      <path clip-path="url(#p7ff5b81e1d)" d="
M72 388.8
L518.4 388.8" style="fill:none;opacity:0.3;stroke:#808080;stroke-dasharray:1.000000,3.000000;stroke-dashoffset:0.0;stroke-width:0.5;"/>
     </g>
     <g id="line2d_24">
      <defs>
       <path d="
M0 0
L4 0" id="m728421d6d4" style="stroke:#000000;stroke-width:0.5;"/>
      </defs>
      <g>
       <use style="stroke:#000000;stroke-width:0.5;" x="72.0" xlink:href="#m728421d6d4" y="388.8"/>
      </g>
     </g>
     <g id="line2d_25">
      <defs>
       <path d="
M0 0
L-4 0" id="mcb0005524f" style="stroke:#000000;stroke-width:0.5;"/>
      </defs>
      <g>
       <use style="stroke:#000000;stroke-width:0.5;" x="518.4" xlink:href="#mcb0005524f" y="388.8"/>
      </g>
     </g>
     <g id="text_8">
      <!-- $\mathdefault{10^{-12}}$ -->
      <defs>
       <path d="
M4.39062 30.6094
L29.3906 30.6094
L29.3906 23
L4.39062 23
z
" id="BitstreamVeraSerif-Roman-2d"/>
      </defs>
      <g transform="translate(26.4 393.7925)scale(0.16 -0.16)">
       <use transform="translate(0.0 0.21875)" xlink:href="#BitstreamVeraSerif-Roman-31"/>
       <use transform="translate(63.623046875 0.21875)" xlink:href="#BitstreamVeraSerif-Roman-30"/>
       <use transform="translate(127.24609375 50.046875)scale(0.7)" xlink:href="#BitstreamVeraSerif-Roman-2d"/>
       <use transform="translate(150.8984375 50.046875)scale(0.7)" xlink:href="#BitstreamVeraSerif-Roman-31"/>
       <use transform="translate(195.434570312 50.046875)scale(0.7)" xlink:href="#BitstreamVeraSerif-Roman-32"/>
      </g>
     </g>
    </g>
    <g id="ytick_2">
     <g id="line2d_26">
      <path clip-path="url(#p7ff5b81e1d)" d="
M72 319.68
L518.4 319.68" style="fill:none;opacity:0.3;stroke:#808080;stroke-dasharray:1.000000,3.000000;stroke-dashoffset:0.0;stroke-width:0.5;"/>
     </g>
     <g id="line2d_27">
      <g>
       <use style="stroke:#000000;stroke-width:0.5;" x="72.0" xlink:href="#m728421d6d4" y="319.68"/>
      </g>
     </g>
     <g id="line2d_28">
      <g>
       <use style="stroke:#000000;stroke-width:0.5;" x="518.4" xlink:href="#mcb0005524f" y="319.68"/>
      </g>
     </g>
     <g id="text_9">
      <!-- $\mathdefault{10^{-9}}$ -->
      <defs>
       <path d="
M46.7812 32.6719
Q43.5 29 39.25 27.1875
Q35.0156 25.3906 29.6875 25.3906
Q18.8438 25.3906 12.5625 31.9375
Q6.29688 38.4844 6.29688 49.8125
Q6.29688 60.8906 13.1094 67.5469
Q19.9219 74.2188 31.2969 74.2188
Q43.6562 74.2188 50.2656 65.0156
Q56.8906 55.8125 56.8906 38.7188
Q56.8906 19.5781 49.0156 9.07812
Q41.1562 -1.42188 26.9062 -1.42188
Q23.0469 -1.42188 18.7969 -0.6875
Q14.5469 0.046875 10.1094 1.51562
L10.1094 13.625
L15.5781 13.625
Q16.2188 8.6875 19.3906 6.04688
Q22.5625 3.42188 27.875 3.42188
Q37.3594 3.42188 41.9844 10.5625
Q46.625 17.7188 46.7812 32.6719
M30.9062 69.3906
Q23.9688 69.3906 20.2812 64.3281
Q16.6094 59.2812 16.6094 49.8125
Q16.6094 40.3281 20.2812 35.25
Q23.9688 30.1719 30.9062 30.1719
Q37.8438 30.1719 41.5312 35.0781
Q45.2188 39.9844 45.2188 49.2188
Q45.2188 58.9375 41.5 64.1562
Q37.7969 69.3906 30.9062 69.3906" id="BitstreamVeraSerif-Roman-39"/>
      </defs>
      <g transform="translate(33.44 324.6725)scale(0.16 -0.16)">
       <use transform="translate(0.0 0.21875)" xlink:href="#BitstreamVeraSerif-Roman-31"/>
       <use transform="translate(63.623046875 0.21875)" xlink:href="#BitstreamVeraSerif-Roman-30"/>
       <use transform="translate(127.24609375 50.046875)scale(0.7)" xlink:href="#BitstreamVeraSerif-Roman-2d"/>
       <use transform="translate(150.8984375 50.046875)scale(0.7)" xlink:href="#BitstreamVeraSerif-Roman-39"/>
      </g>
     </g>
    </g>
    <g id="ytick_3">
     <g id="line2d_29">
      <path clip-path="url(#p7ff5b81e1d)" d="
M72 250.56
L518.4 250.56" style="fill:none;opacity:0.3;stroke:#808080;stroke-dasharray:1.000000,3.000000;stroke-dashoffset:0.0;stroke-width:0.5;"/>
     </g>
     <g id="line2d_30">
      <g>
       <use style="stroke:#000000;stroke-width:0.5;" x="72.0" xlink:href="#m728421d6d4" y="250.56"/>
      </g>
     </g>
     <g id="line2d_31">
      <g>
       <use style="stroke:#000000;stroke-width:0.5;" x="518.4" xlink:href="#mcb0005524f" y="250.56"/>
      </g>
     </g>
     <g id="text_10">
      <!-- $\mathdefault{10^{-6}}$ -->
      <defs>
       <path d="
M32.7188 3.42188
Q39.5938 3.42188 43.2969 8.46875
Q47.0156 13.5312 47.0156 23
Q47.0156 32.4688 43.2969 37.5156
Q39.5938 42.5781 32.7188 42.5781
Q25.7344 42.5781 22.0625 37.6875
Q18.4062 32.8125 18.4062 23.5781
Q18.4062 13.875 22.1094 8.64062
Q25.8281 3.42188 32.7188 3.42188
M16.7969 40.1406
Q20.125 43.7969 24.3125 45.5938
Q28.5156 47.4062 33.7969 47.4062
Q44.6719 47.4062 51 40.8594
Q57.3281 34.3281 57.3281 23
Q57.3281 11.9219 50.5156 5.25
Q43.7031 -1.42188 32.3281 -1.42188
Q19.9688 -1.42188 13.3281 7.78125
Q6.6875 17 6.6875 34.0781
Q6.6875 53.2188 14.5469 63.7188
Q22.4062 74.2188 36.7188 74.2188
Q40.5781 74.2188 44.8281 73.4844
Q49.0781 72.75 53.5156 71.2969
L53.5156 59.2812
L48 59.2812
Q47.4062 64.2031 44.2344 66.7969
Q41.0625 69.3906 35.6875 69.3906
Q26.2188 69.3906 21.5781 62.2031
Q16.9375 55.0312 16.7969 40.1406" id="BitstreamVeraSerif-Roman-36"/>
      </defs>
      <g transform="translate(33.44 255.5525)scale(0.16 -0.16)">
       <use transform="translate(0.0 0.21875)" xlink:href="#BitstreamVeraSerif-Roman-31"/>
       <use transform="translate(63.623046875 0.21875)" xlink:href="#BitstreamVeraSerif-Roman-30"/>
       <use transform="translate(127.24609375 50.046875)scale(0.7)" xlink:href="#BitstreamVeraSerif-Roman-2d"/>
       <use transform="translate(150.8984375 50.046875)scale(0.7)" xlink:href="#BitstreamVeraSerif-Roman-36"/>
      </g>
     </g>
    </g>
    <g id="ytick_4">
     <g id="line2d_32">
      <path clip-path="url(#p7ff5b81e1d)" d="
M72 181.44
L518.4 181.44" style="fill:none;opacity:0.3;stroke:#808080;stroke-dasharray:1.000000,3.000000;stroke-dashoffset:0.0;stroke-width:0.5;"/>
     </g>
     <g id="line2d_33">
      <g>
       <use style="stroke:#000000;stroke-width:0.5;" x="72.0" xlink:href="#m728421d6d4" y="181.44"/>
      </g>
     </g>
     <g id="line2d_34">
      <g>
       <use style="stroke:#000000;stroke-width:0.5;" x="518.4" xlink:href="#mcb0005524f" y="181.44"/>
      </g>
     </g>
     <g id="text_11">
      <!-- $\mathdefault{10^{-3}}$ -->
      <g transform="translate(33.44 186.4325)scale(0.16 -0.16)">
       <use transform="translate(0.0 0.21875)" xlink:href="#BitstreamVeraSerif-Roman-31"/>
       <use transform="translate(63.623046875 0.21875)" xlink:href="#BitstreamVeraSerif-Roman-30"/>
       <use transform="translate(127.24609375 50.046875)scale(0.7)" xlink:href="#BitstreamVeraSerif-Roman-2d"/>
       <use transform="translate(150.8984375 50.046875)scale(0.7)" xlink:href="#BitstreamVeraSerif-Roman-33"/>
      </g>
     </g>
    </g>
    <g id="ytick_5">
     <g id="line2d_35">
      <path clip-path="url(#p7ff5b81e1d)" d="
M72 112.32
L518.4 112.32" style="fill:none;opacity:0.3;stroke:#808080;stroke-dasharray:1.000000,3.000000;stroke-dashoffset:0.0;stroke-width:0.5;"/>
     </g>
     <g id="line2d_36">
      <g>
       <use style="stroke:#000000;stroke-width:0.5;" x="72.0" xlink:href="#m728421d6d4" y="112.32"/>
      </g>
     </g>
     <g id="line2d_37">
      <g>
       <use style="stroke:#000000;stroke-width:0.5;" x="518.4" xlink:href="#mcb0005524f" y="112.32"/>
      </g>
     </g>
     <g id="text_12">
      <!-- $\mathdefault{10^{0}}$ -->
      <g transform="translate(37.28 117.3125)scale(0.16 -0.16)">
       <use transform="translate(0.0 0.21875)" xlink:href="#BitstreamVeraSerif-Roman-31"/>
       <use transform="translate(63.623046875 0.21875)" xlink:href="#BitstreamVeraSerif-Roman-30"/>
       <use transform="translate(127.24609375 50.046875)scale(0.7)" xlink:href="#BitstreamVeraSerif-Roman-30"/>
      </g>
     </g>
    </g>
    <g id="ytick_6">
     <g id="line2d_38">
      <path clip-path="url(#p7ff5b81e1d)" d="
M72 43.2
L518.4 43.2" style="fill:none;opacity:0.3;stroke:#808080;stroke-dasharray:1.000000,3.000000;stroke-dashoffset:0.0;stroke-width:0.5;"/>
     </g>
     <g id="line2d_39">
      <g>
       <use style="stroke:#000000;stroke-width:0.5;" x="72.0" xlink:href="#m728421d6d4" y="43.2"/>
      </g>
     </g>
     <g id="line2d_40">
      <g>
       <use style="stroke:#000000;stroke-width:0.5;" x="518.4" xlink:href="#mcb0005524f" y="43.2"/>
      </g>
     </g>
     <g id="text_13">
      <!-- $\mathdefault{10^{3}}$ -->
      <g transform="translate(37.28 48.1925)scale(0.16 -0.16)">
       <use transform="translate(0.0 0.21875)" xlink:href="#BitstreamVeraSerif-Roman-31"/>
       <use transform="translate(63.623046875 0.21875)" xlink:href="#BitstreamVeraSerif-Roman-30"/>
       <use transform="translate(127.24609375 50.046875)scale(0.7)" xlink:href="#BitstreamVeraSerif-Roman-33"/>
      </g>
     </g>
    </g>
    <g id="ytick_7">
     <g id="line2d_41">
      <defs>
       <path d="
M0 0
L2 0" id="mf0c55a9a47" style="stroke:#000000;stroke-width:0.5;"/>
      </defs>
      <g>
       <use style="stroke:#000000;stroke-width:0.5;" x="72.0" xlink:href="#mf0c55a9a47" y="388.8"/>
      </g>
     </g>
     <g id="line2d_42">
      <defs>
       <path d="
M0 0
L-2 0" id="ma4f294b3af" style="stroke:#000000;stroke-width:0.5;"/>
      </defs>
      <g>
       <use style="stroke:#000000;stroke-width:0.5;" x="518.4" xlink:href="#ma4f294b3af" y="388.8"/>
      </g>
     </g>
    </g>
    <g id="ytick_8">
     <g id="line2d_43">
      <g>
       <use style="stroke:#000000;stroke-width:0.5;" x="72.0" xlink:href="#mf0c55a9a47" y="365.76"/>
      </g>
     </g>
     <g id="line2d_44">
      <g>
       <use style="stroke:#000000;stroke-width:0.5;" x="518.4" xlink:href="#ma4f294b3af" y="365.76"/>
      </g>
     </g>
    </g>
    <g id="ytick_9">
     <g id="line2d_45">
      <g>
       <use style="stroke:#000000;stroke-width:0.5;" x="72.0" xlink:href="#mf0c55a9a47" y="342.72"/>
      </g>
     </g>
     <g id="line2d_46">
      <g>
       <use style="stroke:#000000;stroke-width:0.5;" x="518.4" xlink:href="#ma4f294b3af" y="342.72"/>
      </g>
     </g>
    </g>
    <g id="ytick_10">
     <g id="line2d_47">
      <g>
       <use style="stroke:#000000;stroke-width:0.5;" x="72.0" xlink:href="#mf0c55a9a47" y="319.68"/>
      </g>
     </g>
     <g id="line2d_48">
      <g>
       <use style="stroke:#000000;stroke-width:0.5;" x="518.4" xlink:href="#ma4f294b3af" y="319.68"/>
      </g>
     </g>
    </g>
    <g id="ytick_11">
     <g id="line2d_49">
      <g>
       <use style="stroke:#000000;stroke-width:0.5;" x="72.0" xlink:href="#mf0c55a9a47" y="296.64"/>
      </g>
     </g>
     <g id="line2d_50">
      <g>
       <use style="stroke:#000000;stroke-width:0.5;" x="518.4" xlink:href="#ma4f294b3af" y="296.64"/>
      </g>
     </g>
    </g>
    <g id="ytick_12">
     <g id="line2d_51">
      <g>
       <use style="stroke:#000000;stroke-width:0.5;" x="72.0" xlink:href="#mf0c55a9a47" y="273.6"/>
      </g>
     </g>
     <g id="line2d_52">
      <g>
       <use style="stroke:#000000;stroke-width:0.5;" x="518.4" xlink:href="#ma4f294b3af" y="273.6"/>
      </g>
     </g>
    </g>
    <g id="ytick_13">
     <g id="line2d_53">
      <g>
       <use style="stroke:#000000;stroke-width:0.5;" x="72.0" xlink:href="#mf0c55a9a47" y="250.56"/>
      </g>
     </g>
     <g id="line2d_54">
      <g>
       <use style="stroke:#000000;stroke-width:0.5;" x="518.4" xlink:href="#ma4f294b3af" y="250.56"/>
      </g>
     </g>
    </g>
    <g id="ytick_14">
     <g id="line2d_55">
      <g>
       <use style="stroke:#000000;stroke-width:0.5;" x="72.0" xlink:href="#mf0c55a9a47" y="227.52"/>
      </g>
     </g>
     <g id="line2d_56">
      <g>
       <use style="stroke:#000000;stroke-width:0.5;" x="518.4" xlink:href="#ma4f294b3af" y="227.52"/>
      </g>
     </g>
    </g>
    <g id="ytick_15">
     <g id="line2d_57">
      <g>
       <use style="stroke:#000000;stroke-width:0.5;" x="72.0" xlink:href="#mf0c55a9a47" y="204.48"/>
      </g>
     </g>
     <g id="line2d_58">
      <g>
       <use style="stroke:#000000;stroke-width:0.5;" x="518.4" xlink:href="#ma4f294b3af" y="204.48"/>
      </g>
     </g>
    </g>
    <g id="ytick_16">
     <g id="line2d_59">
      <g>
       <use style="stroke:#000000;stroke-width:0.5;" x="72.0" xlink:href="#mf0c55a9a47" y="181.44"/>
      </g>
     </g>
     <g id="line2d_60">
      <g>
       <use style="stroke:#000000;stroke-width:0.5;" x="518.4" xlink:href="#ma4f294b3af" y="181.44"/>
      </g>
     </g>
    </g>
    <g id="ytick_17">
     <g id="line2d_61">
      <g>
       <use style="stroke:#000000;stroke-width:0.5;" x="72.0" xlink:href="#mf0c55a9a47" y="158.4"/>
      </g>
     </g>
     <g id="line2d_62">
      <g>
       <use style="stroke:#000000;stroke-width:0.5;" x="518.4" xlink:href="#ma4f294b3af" y="158.4"/>
      </g>
     </g>
    </g>
    <g id="ytick_18">
     <g id="line2d_63">
      <g>
       <use style="stroke:#000000;stroke-width:0.5;" x="72.0" xlink:href="#mf0c55a9a47" y="135.36"/>
      </g>
     </g>
     <g id="line2d_64">
      <g>
       <use style="stroke:#000000;stroke-width:0.5;" x="518.4" xlink:href="#ma4f294b3af" y="135.36"/>
      </g>
     </g>
    </g>
    <g id="ytick_19">
     <g id="line2d_65">
      <g>
       <use style="stroke:#000000;stroke-width:0.5;" x="72.0" xlink:href="#mf0c55a9a47" y="112.32"/>
      </g>
     </g>
     <g id="line2d_66">
      <g>
       <use style="stroke:#000000;stroke-width:0.5;" x="518.4" xlink:href="#ma4f294b3af" y="112.32"/>
      </g>
     </g>
    </g>
    <g id="ytick_20">
     <g id="line2d_67">
      <g>
       <use style="stroke:#000000;stroke-width:0.5;" x="72.0" xlink:href="#mf0c55a9a47" y="89.28"/>
      </g>
     </g>
     <g id="line2d_68">
      <g>
       <use style="stroke:#000000;stroke-width:0.5;" x="518.4" xlink:href="#ma4f294b3af" y="89.28"/>
      </g>
     </g>
    </g>
    <g id="ytick_21">
     <g id="line2d_69">
      <g>
       <use style="stroke:#000000;stroke-width:0.5;" x="72.0" xlink:href="#mf0c55a9a47" y="66.24"/>
      </g>
     </g>
     <g id="line2d_70">
      <g>
       <use style="stroke:#000000;stroke-width:0.5;" x="518.4" xlink:href="#ma4f294b3af" y="66.24"/>
      </g>
     </g>
    </g>
    <g id="ytick_22">
     <g id="line2d_71">
      <g>
       <use style="stroke:#000000;stroke-width:0.5;" x="72.0" xlink:href="#mf0c55a9a47" y="43.2"/>
      </g>
     </g>
     <g id="line2d_72">
      <g>
       <use style="stroke:#000000;stroke-width:0.5;" x="518.4" xlink:href="#ma4f294b3af" y="43.2"/>
      </g>
     </g>
    </g>
    <g id="text_14">
     <!-- $u_N/\hat{f}_0$ -->
     <defs>
      <path d="
M13.4844 53.8125
L11.5312 55.9062
L25 69.3906
L38.375 55.9062
L36.375 53.8125
L25 63.8125
z
" id="Cmr10-5e"/>
      <path d="
M4.6875 0
Q3.71875 0 3.71875 1.3125
Q3.76562 1.5625 3.90625 2.17188
Q4.04688 2.78125 4.3125 3.14062
Q4.59375 3.51562 4.98438 3.51562
Q14.5469 3.51562 16.1094 9.625
L29.6875 64.3125
Q26.9062 64.7969 20.9062 64.7969
Q19.9219 64.7969 19.9219 66.1094
Q19.9688 66.3594 20.1094 66.9688
Q20.2656 67.5781 20.5312 67.9375
Q20.7969 68.3125 21.1875 68.3125
L38.4844 68.3125
Q39.2031 68.3125 39.4062 67.6719
L61.625 14.7969
L72.7031 59.0781
Q72.9062 60.1562 72.9062 60.5938
Q72.9062 64.7969 65.1875 64.7969
Q64.2031 64.7969 64.2031 66.1094
Q64.5469 67.3906 64.7344 67.8438
Q64.9375 68.3125 65.9219 68.3125
L87.3125 68.3125
Q88.2812 68.3125 88.2812 67
Q88.2344 66.75 88.0781 66.1406
Q87.9375 65.5312 87.6719 65.1562
Q87.4062 64.7969 87.0156 64.7969
Q77.4375 64.7969 75.875 58.6875
L61.5312 0.875
Q61.1875 0 60.5 0
L59.2812 0
Q58.5938 0 58.4062 0.6875
L32.9062 61.1875
L32.7188 61.8125
Q32.5156 62.0156 32.5156 62.1094
L19.2812 9.1875
Q19.1875 8.9375 19.1406 8.5625
Q19.0938 8.20312 19 7.71875
Q19 5.125 21.2344 4.3125
Q23.4844 3.51562 26.8125 3.51562
Q27.7812 3.51562 27.7812 2.20312
Q27.4375 0.828125 27.1875 0.40625
Q26.9531 0 26.125 0
z
" id="Cmmi10-4e"/>
      <path d="
M25 -2.20312
Q12.75 -2.20312 8.32812 7.875
Q3.90625 17.9688 3.90625 31.8906
Q3.90625 40.5781 5.48438 48.2344
Q7.07812 55.9062 11.7812 61.25
Q16.5 66.6094 25 66.6094
Q31.5938 66.6094 35.7812 63.375
Q39.9844 60.1562 42.1875 55.0469
Q44.3906 49.9531 45.1875 44.1094
Q46 38.2812 46 31.8906
Q46 23.2969 44.4062 15.7969
Q42.8281 8.29688 38.1875 3.04688
Q33.5469 -2.20312 25 -2.20312
M25 0.390625
Q30.5625 0.390625 33.2969 6.09375
Q36.0312 11.8125 36.6719 18.75
Q37.3125 25.6875 37.3125 33.5
Q37.3125 41.0156 36.6719 47.3594
Q36.0312 53.7188 33.3125 58.8594
Q30.6094 64.0156 25 64.0156
Q19.3438 64.0156 16.6094 58.8281
Q13.875 53.6562 13.2344 47.3281
Q12.5938 41.0156 12.5938 33.5
Q12.5938 27.9375 12.8594 23
Q13.1406 18.0625 14.3125 12.8125
Q15.4844 7.5625 18.0938 3.96875
Q20.7031 0.390625 25 0.390625" id="Cmr10-30"/>
      <path d="
M10.5938 10.8906
Q10.5938 14.1562 11.4688 17.5938
Q12.3594 21.0469 13.9375 25.2656
Q15.5312 29.5 16.7031 32.625
Q18.0156 36.2812 18.0156 38.625
Q18.0156 41.6094 15.8281 41.6094
Q11.8594 41.6094 9.29688 37.5312
Q6.73438 33.4531 5.51562 28.4219
Q5.32812 27.7812 4.6875 27.7812
L3.51562 27.7812
Q2.6875 27.7812 2.6875 28.7188
L2.6875 29
Q4.29688 34.9688 7.60938 39.5781
Q10.9375 44.1875 16.0156 44.1875
Q19.5781 44.1875 22.0469 41.8438
Q24.5156 39.5 24.5156 35.8906
Q24.5156 34.0312 23.6875 31.9844
Q23.25 30.7656 21.6875 26.6562
Q20.125 22.5625 19.2812 19.875
Q18.4531 17.1875 17.9219 14.5938
Q17.3906 12.0156 17.3906 9.42188
Q17.3906 6.10938 18.7969 3.8125
Q20.2188 1.51562 23.3906 1.51562
Q29.7812 1.51562 34.625 9.42188
Q34.7188 9.8125 34.7812 10.1719
Q34.8594 10.5469 34.9062 10.8906
L42.0938 39.8906
Q42.4375 41.2188 43.6562 42.1562
Q44.875 43.1094 46.2969 43.1094
Q47.5156 43.1094 48.4062 42.3281
Q49.3125 41.5469 49.3125 40.2812
Q49.3125 39.7031 49.2188 39.5
L42 10.6875
Q41.3125 7.71875 41.3125 5.8125
Q41.3125 1.51562 44.1875 1.51562
Q47.4062 1.51562 49 5.48438
Q50.5938 9.46875 51.7031 14.7031
Q51.9062 15.2812 52.4844 15.2812
L53.7188 15.2812
Q54.1094 15.2812 54.3438 14.9375
Q54.5938 14.5938 54.5938 14.3125
Q53.5156 10.0156 52.5156 6.9375
Q51.5156 3.85938 49.3594 1.35938
Q47.2188 -1.125 44 -1.125
Q40.8281 -1.125 38.3125 0.609375
Q35.7969 2.34375 34.9062 5.32812
Q32.625 2.39062 29.5938 0.625
Q26.5625 -1.125 23.1875 -1.125
Q17.4375 -1.125 14.0156 2.01562
Q10.5938 5.17188 10.5938 10.8906" id="Cmmi10-75"/>
      <path d="
M9.71875 -16.5
Q11.5781 -17.9219 14.2031 -17.9219
Q17.7812 -17.9219 20.0156 -10.0156
Q20.9531 -6.20312 25.0938 15.0938
L29.6875 39.5938
L21.0938 39.5938
Q20.125 39.5938 20.125 40.9219
Q20.5156 43.1094 21.3906 43.1094
L30.3281 43.1094
L31.5 49.6094
Q32.0781 52.6406 32.5625 54.8125
Q33.0625 56.9844 33.625 58.8281
Q34.1875 60.6875 35.2969 62.9844
Q37.0156 66.2656 39.9219 68.3906
Q42.8281 70.5156 46.1875 70.5156
Q48.3906 70.5156 50.4688 69.7031
Q52.5469 68.8906 53.8594 67.2812
Q55.1719 65.6719 55.1719 63.4844
Q55.1719 60.9375 53.4844 59.0469
Q51.8125 57.1719 49.4219 57.1719
Q47.7969 57.1719 46.6562 58.1719
Q45.5156 59.1875 45.5156 60.7969
Q45.5156 62.9844 47 64.625
Q48.4844 66.2656 50.6875 66.5
Q48.8281 67.9219 46.0938 67.9219
Q44.5781 67.9219 43.2344 66.5
Q41.8906 65.0938 41.5 63.4844
Q40.875 60.9375 38.7188 49.7031
L37.5 43.1094
L47.7969 43.1094
Q48.7812 43.1094 48.7812 41.7969
Q48.7344 41.5469 48.5781 40.9375
Q48.4375 40.3281 48.1719 39.9531
Q47.9062 39.5938 47.5156 39.5938
L36.8125 39.5938
L32.1719 15.1875
Q31.2969 9.85938 30.1406 4.35938
Q29 -1.125 26.9219 -6.90625
Q24.8594 -12.7031 21.625 -16.6094
Q18.4062 -20.5156 14.0156 -20.5156
Q10.6406 -20.5156 7.98438 -18.5781
Q5.32812 -16.6562 5.32812 -13.4844
Q5.32812 -10.9375 6.95312 -9.04688
Q8.59375 -7.17188 11.0781 -7.17188
Q12.75 -7.17188 13.8594 -8.17188
Q14.9844 -9.1875 14.9844 -10.7969
Q14.9844 -12.9375 13.3906 -14.7188
Q11.8125 -16.5 9.71875 -16.5" id="Cmmi10-66"/>
      <path d="
M5.60938 -23
Q5.60938 -22.7031 5.71875 -22.6094
L40.4844 73.7812
Q40.6719 74.3594 41.1562 74.6719
Q41.6562 75 42.2812 75
Q43.1719 75 43.7188 74.4531
Q44.2812 73.9219 44.2812 73
L44.2812 72.6094
L9.51562 -23.7812
Q8.9375 -25 7.625 -25
Q6.78125 -25 6.1875 -24.4062
Q5.60938 -23.8281 5.60938 -23" id="Cmmi10-3d"/>
     </defs>
     <g transform="translate(16.36 241.83)rotate(-90.0)scale(0.18 -0.18)">
      <use transform="translate(0.0 0.40625)" xlink:href="#Cmmi10-75"/>
      <use transform="translate(57.177734375 -25.103125)scale(0.7)" xlink:href="#Cmmi10-4e"/>
      <use transform="translate(137.5 0.40625)" xlink:href="#Cmmi10-3d"/>
      <use transform="translate(186.96875 29.609375)" xlink:href="#Cmr10-5e"/>
      <use transform="translate(187.5 0.40625)" xlink:href="#Cmmi10-66"/>
      <use transform="translate(236.376953125 -25.103125)scale(0.7)" xlink:href="#Cmr10-30"/>
     </g>
    </g>
   </g>
   <g id="patch_3">
    <path d="
M72 43.2
L518.4 43.2" style="fill:none;stroke:#000000;"/>
   </g>
   <g id="patch_4">
    <path d="
M518.4 388.8
L518.4 43.2" style="fill:none;stroke:#000000;"/>
   </g>
   <g id="patch_5">
    <path d="
M72 388.8
L518.4 388.8" style="fill:none;stroke:#000000;"/>
   </g>
   <g id="patch_6">
    <path d="
M72 388.8
L72 43.2" style="fill:none;stroke:#000000;"/>
   </g>
   <g id="legend_1">
    <g id="patch_7">
     <path d="
M81.6 379.2
L205.827 379.2
L205.827 260.712
L81.6 260.712
L81.6 379.2
z
" style="fill:#ffffff;stroke:#000000;"/>
    </g>
    <g id="line2d_73">
     <path d="
M95.04 276.261
L121.92 276.261" style="fill:none;stroke:#0000ff;stroke-linecap:square;"/>
    </g>
    <g id="line2d_74"/>
    <g id="text_15">
     <!-- N=1 -->
     <defs>
      <path d="
M4.89062 0
L4.89062 5.17188
L14.7031 5.17188
L14.7031 67.6719
L4.89062 67.6719
L4.89062 72.9062
L23.5781 72.9062
L67.2812 15.375
L67.2812 67.6719
L57.5156 67.6719
L57.5156 72.9062
L83.1094 72.9062
L83.1094 67.6719
L73.2969 67.6719
L73.2969 -1.42188
L67.3906 -1.42188
L20.7031 60.0156
L20.7031 5.17188
L30.5156 5.17188
L30.5156 0
z
" id="BitstreamVeraSerif-Roman-4e"/>
      <path d="
M10.5938 45.2188
L73.1875 45.2188
L73.1875 37.4062
L10.5938 37.4062
z

M10.5938 25.2969
L73.1875 25.2969
L73.1875 17.4844
L10.5938 17.4844
z
" id="BitstreamVeraSerif-Roman-3d"/>
     </defs>
     <g transform="translate(143.04 282.981)scale(0.192 -0.192)">
      <use xlink:href="#BitstreamVeraSerif-Roman-4e"/>
      <use x="87.5" xlink:href="#BitstreamVeraSerif-Roman-3d"/>
      <use x="171.2890625" xlink:href="#BitstreamVeraSerif-Roman-31"/>
     </g>
    </g>
    <g id="line2d_75">
     <path d="
M95.04 304.443
L121.92 304.443" style="fill:none;stroke:#008000;stroke-linecap:square;"/>
    </g>
    <g id="line2d_76"/>
    <g id="text_16">
     <!-- N=5 -->
     <g transform="translate(143.04 311.163)scale(0.192 -0.192)">
      <use xlink:href="#BitstreamVeraSerif-Roman-4e"/>
      <use x="87.5" xlink:href="#BitstreamVeraSerif-Roman-3d"/>
      <use x="171.2890625" xlink:href="#BitstreamVeraSerif-Roman-35"/>
     </g>
    </g>
    <g id="line2d_77">
     <path d="
M95.04 332.625
L121.92 332.625" style="fill:none;stroke:#ff0000;stroke-linecap:square;"/>
    </g>
    <g id="line2d_78"/>
    <g id="text_17">
     <!-- N=10 -->
     <g transform="translate(143.04 339.345)scale(0.192 -0.192)">
      <use xlink:href="#BitstreamVeraSerif-Roman-4e"/>
      <use x="87.5" xlink:href="#BitstreamVeraSerif-Roman-3d"/>
      <use x="171.2890625" xlink:href="#BitstreamVeraSerif-Roman-31"/>
      <use x="234.912109375" xlink:href="#BitstreamVeraSerif-Roman-30"/>
     </g>
    </g>
    <g id="line2d_79">
     <path d="
M95.04 360.807
L121.92 360.807" style="fill:none;stroke:#00bfbf;stroke-linecap:square;"/>
    </g>
    <g id="line2d_80"/>
    <g id="text_18">
     <!-- N=50 -->
     <g transform="translate(143.04 367.527)scale(0.192 -0.192)">
      <use xlink:href="#BitstreamVeraSerif-Roman-4e"/>
      <use x="87.5" xlink:href="#BitstreamVeraSerif-Roman-3d"/>
      <use x="171.2890625" xlink:href="#BitstreamVeraSerif-Roman-35"/>
      <use x="234.912109375" xlink:href="#BitstreamVeraSerif-Roman-30"/>
     </g>
    </g>
   </g>
  </g>
 </g>
 <defs>
  <clipPath id="p7ff5b81e1d">
   <rect height="345.6" width="446.4" x="72.0" y="43.2"/>
  </clipPath>
 </defs>
</svg>
