<?xml version="1.0" encoding="UTF-8" standalone="no"?>
<!-- Created with Inkscape (http://www.inkscape.org/) -->

<svg
   xmlns:dc="http://purl.org/dc/elements/1.1/"
   xmlns:cc="http://creativecommons.org/ns#"
   xmlns:rdf="http://www.w3.org/1999/02/22-rdf-syntax-ns#"
   xmlns:svg="http://www.w3.org/2000/svg"
   xmlns="http://www.w3.org/2000/svg"
   xmlns:xlink="http://www.w3.org/1999/xlink"
   xmlns:sodipodi="http://sodipodi.sourceforge.net/DTD/sodipodi-0.dtd"
   xmlns:inkscape="http://www.inkscape.org/namespaces/inkscape"
   sodipodi:docname="spring-mass-plot.svg"
   inkscape:version="0.48.2 r9819"
   version="1.1"
   id="svg2"
   height="486.92316"
   width="688.60431">
  <sodipodi:namedview
     id="base"
     pagecolor="#ffffff"
     bordercolor="#666666"
     borderopacity="1.0"
     inkscape:pageopacity="0.0"
     inkscape:pageshadow="2"
     inkscape:zoom="1.2260661"
     inkscape:cx="344.30215"
     inkscape:cy="243.46158"
     inkscape:document-units="px"
     inkscape:current-layer="layer1"
     showgrid="false"
     inkscape:window-width="1280"
     inkscape:window-height="776"
     inkscape:window-x="0"
     inkscape:window-y="24"
     inkscape:window-maximized="1"
     fit-margin-top="0"
     fit-margin-left="0"
     fit-margin-right="0"
     fit-margin-bottom="0"
     showguides="true"
     inkscape:guide-bbox="true" />
  <defs
     id="defs4">
    <defs
       id="defs4898">
      <path
         inkscape:connector-curvature="0"
         d="M 4.6,-3.2 C 4.6,-4 4.55,-4.8 4.2,-5.54 3.74,-6.5 2.92,-6.66 2.5,-6.66 1.9,-6.66 1.17,-6.4 0.76,-5.47 0.44,-4.78 0.39,-4 0.39,-3.2 c 0,0.75 0.04,1.65 0.45,2.41 C 1.27,0.02 2,0.22 2.49,0.22 3.03,0.22 3.79,0.01 4.23,-0.94 4.55,-1.63 4.6,-2.41 4.6,-3.2 z M 2.49,0 C 2.1,0 1.51,-0.25 1.33,-1.21 1.22,-1.81 1.22,-2.73 1.22,-3.32 c 0,-0.64 0,-1.3 0.08,-1.84 0.19,-1.19 0.94,-1.28 1.19,-1.28 0.33,0 0.99,0.18 1.18,1.17 0.1,0.56 0.1,1.32 0.1,1.95 0,0.75 0,1.43 -0.11,2.07 C 3.51,-0.3 2.94,0 2.49,0 z"
         id="equation_06_00" />
    </defs>
    <defs
       id="defs4725">
      <path
         inkscape:connector-curvature="0"
         id="equation_05_00"
         d="m 6.59,-2.3 c 0.17,0 0.35,0 0.35,-0.2 0,-0.2 -0.18,-0.2 -0.35,-0.2 H 1.18 c -0.17,0 -0.35,0 -0.35,0.2 0,0.2 0.18,0.2 0.35,0.2 h 5.41 z" />
      <path
         inkscape:connector-curvature="0"
         id="equation_05_01"
         d="M 2.954,-2.674 C 2.807,-2.905 2.569,-3.087 2.233,-3.087 c -0.896,0 -1.806,0.987 -1.806,1.995 0,0.679 0.455,1.162 1.057,1.162 0.378,0 0.714,-0.217 0.994,-0.49 0.133,0.42 0.539,0.49 0.721,0.49 0.252,0 0.427,-0.154 0.553,-0.371 0.154,-0.273 0.245,-0.672 0.245,-0.7 0,-0.091 -0.091,-0.091 -0.112,-0.091 -0.098,0 -0.105,0.028 -0.154,0.217 -0.084,0.336 -0.217,0.749 -0.511,0.749 -0.182,0 -0.231,-0.154 -0.231,-0.343 0,-0.119 0.056,-0.371 0.105,-0.553 0.049,-0.189 0.119,-0.476 0.154,-0.63 l 0.14,-0.532 c 0.042,-0.182 0.126,-0.511 0.126,-0.546 0,-0.154 -0.126,-0.224 -0.238,-0.224 -0.119,0 -0.28,0.084 -0.322,0.28 z m -0.448,1.799 c -0.049,0.196 -0.203,0.336 -0.357,0.469 -0.063,0.056 -0.343,0.28 -0.644,0.28 -0.259,0 -0.511,-0.182 -0.511,-0.679 0,-0.371 0.203,-1.141 0.364,-1.421 0.322,-0.56 0.679,-0.665 0.875,-0.665 0.49,0 0.623,0.532 0.623,0.609 0,0.028 -0.014,0.077 -0.021,0.098 l -0.329,1.309 z" />
      <path
         inkscape:connector-curvature="0"
         id="equation_05_02"
         d="m 2.345,-4.452 c 0,-0.189 -0.014,-0.196 -0.21,-0.196 C 1.687,-4.207 1.05,-4.2 0.763,-4.2 v 0.252 c 0.168,0 0.63,0 1.015,-0.196 v 3.57 c 0,0.231 0,0.322 -0.7,0.322 H 0.812 V 0 c 0.126,-0.007 0.987,-0.028 1.246,-0.028 0.217,0 1.099,0.021 1.253,0.028 V -0.252 H 3.045 c -0.7,0 -0.7,-0.091 -0.7,-0.322 v -3.878 z" />
    </defs>
    <defs
       id="defs4572">
      <path
         inkscape:connector-curvature="0"
         d="M 2.177,-2.541 H 3.01 c -0.105,0.42 -0.259,1.057 -0.259,1.61 0,0.28 0.035,0.469 0.077,0.623 0.112,0.35 0.203,0.378 0.315,0.378 0.161,0 0.329,-0.147 0.329,-0.315 0,-0.056 -0.014,-0.084 -0.056,-0.154 -0.133,-0.259 -0.259,-0.658 -0.259,-1.232 0,-0.133 0,-0.413 0.098,-0.91 H 4.13 c 0.126,0 0.182,0 0.259,-0.056 0.098,-0.07 0.119,-0.182 0.119,-0.217 0,-0.203 -0.182,-0.203 -0.301,-0.203 H 1.568 c -0.287,0 -0.483,0.063 -0.798,0.357 -0.182,0.161 -0.455,0.539 -0.455,0.602 0,0.084 0.091,0.084 0.119,0.084 0.077,0 0.084,-0.014 0.126,-0.077 0.357,-0.49 0.791,-0.49 0.945,-0.49 h 0.427 c -0.217,0.77 -0.595,1.596 -0.805,2.016 -0.042,0.091 -0.112,0.238 -0.133,0.266 -0.007,0.028 -0.021,0.056 -0.021,0.105 0,0.112 0.084,0.224 0.245,0.224 0.28,0 0.357,-0.315 0.525,-0.945 l 0.434,-1.666 z"
         id="equation_04_00" />
      <path
         inkscape:connector-curvature="0"
         d="M 2.954,-2.674 C 2.807,-2.905 2.569,-3.087 2.233,-3.087 c -0.896,0 -1.806,0.987 -1.806,1.995 0,0.679 0.455,1.162 1.057,1.162 0.378,0 0.714,-0.217 0.994,-0.49 0.133,0.42 0.539,0.49 0.721,0.49 0.252,0 0.427,-0.154 0.553,-0.371 0.154,-0.273 0.245,-0.672 0.245,-0.7 0,-0.091 -0.091,-0.091 -0.112,-0.091 -0.098,0 -0.105,0.028 -0.154,0.217 -0.084,0.336 -0.217,0.749 -0.511,0.749 -0.182,0 -0.231,-0.154 -0.231,-0.343 0,-0.119 0.056,-0.371 0.105,-0.553 0.049,-0.189 0.119,-0.476 0.154,-0.63 l 0.14,-0.532 c 0.042,-0.182 0.126,-0.511 0.126,-0.546 0,-0.154 -0.126,-0.224 -0.238,-0.224 -0.119,0 -0.28,0.084 -0.322,0.28 z m -0.448,1.799 c -0.049,0.196 -0.203,0.336 -0.357,0.469 -0.063,0.056 -0.343,0.28 -0.644,0.28 -0.259,0 -0.511,-0.182 -0.511,-0.679 0,-0.371 0.203,-1.141 0.364,-1.421 0.322,-0.56 0.679,-0.665 0.875,-0.665 0.49,0 0.623,0.532 0.623,0.609 0,0.028 -0.014,0.077 -0.021,0.098 l -0.329,1.309 z"
         id="equation_04_01" />
      <path
         inkscape:connector-curvature="0"
         d="M 3.535,-1.274 H 3.297 C 3.276,-1.12 3.206,-0.707 3.115,-0.637 3.059,-0.595 2.52,-0.595 2.422,-0.595 H 1.134 c 0.735,-0.651 0.98,-0.847 1.4,-1.176 0.518,-0.413 1.001,-0.847 1.001,-1.512 0,-0.847 -0.742,-1.365 -1.638,-1.365 -0.868,0 -1.456,0.609 -1.456,1.253 0,0.357 0.301,0.392 0.371,0.392 0.168,0 0.371,-0.119 0.371,-0.371 0,-0.126 -0.049,-0.371 -0.413,-0.371 0.217,-0.497 0.693,-0.651 1.022,-0.651 0.7,0 1.064,0.546 1.064,1.113 0,0.609 -0.434,1.092 -0.658,1.344 L 0.511,-0.273 C 0.441,-0.21 0.441,-0.196 0.441,0 h 2.884 l 0.21,-1.274 z"
         id="equation_04_02" />
    </defs>
    <defs
       id="defs4436">
      <path
         inkscape:connector-curvature="0"
         id="equation_03_00"
         d="m 6.59,-2.3 c 0.17,0 0.35,0 0.35,-0.2 0,-0.2 -0.18,-0.2 -0.35,-0.2 H 1.18 c -0.17,0 -0.35,0 -0.35,0.2 0,0.2 0.18,0.2 0.35,0.2 h 5.41 z" />
      <path
         inkscape:connector-curvature="0"
         id="equation_03_01"
         d="M 2.177,-2.541 H 3.01 c -0.105,0.42 -0.259,1.057 -0.259,1.61 0,0.28 0.035,0.469 0.077,0.623 0.112,0.35 0.203,0.378 0.315,0.378 0.161,0 0.329,-0.147 0.329,-0.315 0,-0.056 -0.014,-0.084 -0.056,-0.154 -0.133,-0.259 -0.259,-0.658 -0.259,-1.232 0,-0.133 0,-0.413 0.098,-0.91 H 4.13 c 0.126,0 0.182,0 0.259,-0.056 0.098,-0.07 0.119,-0.182 0.119,-0.217 0,-0.203 -0.182,-0.203 -0.301,-0.203 H 1.568 c -0.287,0 -0.483,0.063 -0.798,0.357 -0.182,0.161 -0.455,0.539 -0.455,0.602 0,0.084 0.091,0.084 0.119,0.084 0.077,0 0.084,-0.014 0.126,-0.077 0.357,-0.49 0.791,-0.49 0.945,-0.49 h 0.427 c -0.217,0.77 -0.595,1.596 -0.805,2.016 -0.042,0.091 -0.112,0.238 -0.133,0.266 -0.007,0.028 -0.021,0.056 -0.021,0.105 0,0.112 0.084,0.224 0.245,0.224 0.28,0 0.357,-0.315 0.525,-0.945 l 0.434,-1.666 z" />
      <path
         inkscape:connector-curvature="0"
         id="equation_03_02"
         d="M 2.954,-2.674 C 2.807,-2.905 2.569,-3.087 2.233,-3.087 c -0.896,0 -1.806,0.987 -1.806,1.995 0,0.679 0.455,1.162 1.057,1.162 0.378,0 0.714,-0.217 0.994,-0.49 0.133,0.42 0.539,0.49 0.721,0.49 0.252,0 0.427,-0.154 0.553,-0.371 0.154,-0.273 0.245,-0.672 0.245,-0.7 0,-0.091 -0.091,-0.091 -0.112,-0.091 -0.098,0 -0.105,0.028 -0.154,0.217 -0.084,0.336 -0.217,0.749 -0.511,0.749 -0.182,0 -0.231,-0.154 -0.231,-0.343 0,-0.119 0.056,-0.371 0.105,-0.553 0.049,-0.189 0.119,-0.476 0.154,-0.63 l 0.14,-0.532 c 0.042,-0.182 0.126,-0.511 0.126,-0.546 0,-0.154 -0.126,-0.224 -0.238,-0.224 -0.119,0 -0.28,0.084 -0.322,0.28 z m -0.448,1.799 c -0.049,0.196 -0.203,0.336 -0.357,0.469 -0.063,0.056 -0.343,0.28 -0.644,0.28 -0.259,0 -0.511,-0.182 -0.511,-0.679 0,-0.371 0.203,-1.141 0.364,-1.421 0.322,-0.56 0.679,-0.665 0.875,-0.665 0.49,0 0.623,0.532 0.623,0.609 0,0.028 -0.014,0.077 -0.021,0.098 l -0.329,1.309 z" />
      <path
         inkscape:connector-curvature="0"
         id="equation_03_03"
         d="M 3.535,-1.274 H 3.297 C 3.276,-1.12 3.206,-0.707 3.115,-0.637 3.059,-0.595 2.52,-0.595 2.422,-0.595 H 1.134 c 0.735,-0.651 0.98,-0.847 1.4,-1.176 0.518,-0.413 1.001,-0.847 1.001,-1.512 0,-0.847 -0.742,-1.365 -1.638,-1.365 -0.868,0 -1.456,0.609 -1.456,1.253 0,0.357 0.301,0.392 0.371,0.392 0.168,0 0.371,-0.119 0.371,-0.371 0,-0.126 -0.049,-0.371 -0.413,-0.371 0.217,-0.497 0.693,-0.651 1.022,-0.651 0.7,0 1.064,0.546 1.064,1.113 0,0.609 -0.434,1.092 -0.658,1.344 L 0.511,-0.273 C 0.441,-0.21 0.441,-0.196 0.441,0 h 2.884 l 0.21,-1.274 z" />
    </defs>
    <defs
       id="defs4327">
      <path
         inkscape:connector-curvature="0"
         d="m 6.59,-2.3 c 0.17,0 0.35,0 0.35,-0.2 0,-0.2 -0.18,-0.2 -0.35,-0.2 H 1.18 c -0.17,0 -0.35,0 -0.35,0.2 0,0.2 0.18,0.2 0.35,0.2 h 5.41 z"
         id="equation_02_00" />
      <path
         inkscape:connector-curvature="0"
         d="M 2.177,-2.541 H 3.01 c -0.105,0.42 -0.259,1.057 -0.259,1.61 0,0.28 0.035,0.469 0.077,0.623 0.112,0.35 0.203,0.378 0.315,0.378 0.161,0 0.329,-0.147 0.329,-0.315 0,-0.056 -0.014,-0.084 -0.056,-0.154 -0.133,-0.259 -0.259,-0.658 -0.259,-1.232 0,-0.133 0,-0.413 0.098,-0.91 H 4.13 c 0.126,0 0.182,0 0.259,-0.056 0.098,-0.07 0.119,-0.182 0.119,-0.217 0,-0.203 -0.182,-0.203 -0.301,-0.203 H 1.568 c -0.287,0 -0.483,0.063 -0.798,0.357 -0.182,0.161 -0.455,0.539 -0.455,0.602 0,0.084 0.091,0.084 0.119,0.084 0.077,0 0.084,-0.014 0.126,-0.077 0.357,-0.49 0.791,-0.49 0.945,-0.49 h 0.427 c -0.217,0.77 -0.595,1.596 -0.805,2.016 -0.042,0.091 -0.112,0.238 -0.133,0.266 -0.007,0.028 -0.021,0.056 -0.021,0.105 0,0.112 0.084,0.224 0.245,0.224 0.28,0 0.357,-0.315 0.525,-0.945 l 0.434,-1.666 z"
         id="equation_02_01" />
      <path
         inkscape:connector-curvature="0"
         d="M 2.954,-2.674 C 2.807,-2.905 2.569,-3.087 2.233,-3.087 c -0.896,0 -1.806,0.987 -1.806,1.995 0,0.679 0.455,1.162 1.057,1.162 0.378,0 0.714,-0.217 0.994,-0.49 0.133,0.42 0.539,0.49 0.721,0.49 0.252,0 0.427,-0.154 0.553,-0.371 0.154,-0.273 0.245,-0.672 0.245,-0.7 0,-0.091 -0.091,-0.091 -0.112,-0.091 -0.098,0 -0.105,0.028 -0.154,0.217 -0.084,0.336 -0.217,0.749 -0.511,0.749 -0.182,0 -0.231,-0.154 -0.231,-0.343 0,-0.119 0.056,-0.371 0.105,-0.553 0.049,-0.189 0.119,-0.476 0.154,-0.63 l 0.14,-0.532 c 0.042,-0.182 0.126,-0.511 0.126,-0.546 0,-0.154 -0.126,-0.224 -0.238,-0.224 -0.119,0 -0.28,0.084 -0.322,0.28 z m -0.448,1.799 c -0.049,0.196 -0.203,0.336 -0.357,0.469 -0.063,0.056 -0.343,0.28 -0.644,0.28 -0.259,0 -0.511,-0.182 -0.511,-0.679 0,-0.371 0.203,-1.141 0.364,-1.421 0.322,-0.56 0.679,-0.665 0.875,-0.665 0.49,0 0.623,0.532 0.623,0.609 0,0.028 -0.014,0.077 -0.021,0.098 l -0.329,1.309 z"
         id="equation_02_02" />
    </defs>
    <defs
       id="defs4241">
      <path
         inkscape:connector-curvature="0"
         id="equation_01_00"
         d="M 2.177,-2.541 H 3.01 c -0.105,0.42 -0.259,1.057 -0.259,1.61 0,0.28 0.035,0.469 0.077,0.623 0.112,0.35 0.203,0.378 0.315,0.378 0.161,0 0.329,-0.147 0.329,-0.315 0,-0.056 -0.014,-0.084 -0.056,-0.154 -0.133,-0.259 -0.259,-0.658 -0.259,-1.232 0,-0.133 0,-0.413 0.098,-0.91 H 4.13 c 0.126,0 0.182,0 0.259,-0.056 0.098,-0.07 0.119,-0.182 0.119,-0.217 0,-0.203 -0.182,-0.203 -0.301,-0.203 H 1.568 c -0.287,0 -0.483,0.063 -0.798,0.357 -0.182,0.161 -0.455,0.539 -0.455,0.602 0,0.084 0.091,0.084 0.119,0.084 0.077,0 0.084,-0.014 0.126,-0.077 0.357,-0.49 0.791,-0.49 0.945,-0.49 h 0.427 c -0.217,0.77 -0.595,1.596 -0.805,2.016 -0.042,0.091 -0.112,0.238 -0.133,0.266 -0.007,0.028 -0.021,0.056 -0.021,0.105 0,0.112 0.084,0.224 0.245,0.224 0.28,0 0.357,-0.315 0.525,-0.945 l 0.434,-1.666 z" />
      <path
         inkscape:connector-curvature="0"
         id="equation_01_01"
         d="M 2.954,-2.674 C 2.807,-2.905 2.569,-3.087 2.233,-3.087 c -0.896,0 -1.806,0.987 -1.806,1.995 0,0.679 0.455,1.162 1.057,1.162 0.378,0 0.714,-0.217 0.994,-0.49 0.133,0.42 0.539,0.49 0.721,0.49 0.252,0 0.427,-0.154 0.553,-0.371 0.154,-0.273 0.245,-0.672 0.245,-0.7 0,-0.091 -0.091,-0.091 -0.112,-0.091 -0.098,0 -0.105,0.028 -0.154,0.217 -0.084,0.336 -0.217,0.749 -0.511,0.749 -0.182,0 -0.231,-0.154 -0.231,-0.343 0,-0.119 0.056,-0.371 0.105,-0.553 0.049,-0.189 0.119,-0.476 0.154,-0.63 l 0.14,-0.532 c 0.042,-0.182 0.126,-0.511 0.126,-0.546 0,-0.154 -0.126,-0.224 -0.238,-0.224 -0.119,0 -0.28,0.084 -0.322,0.28 z m -0.448,1.799 c -0.049,0.196 -0.203,0.336 -0.357,0.469 -0.063,0.056 -0.343,0.28 -0.644,0.28 -0.259,0 -0.511,-0.182 -0.511,-0.679 0,-0.371 0.203,-1.141 0.364,-1.421 0.322,-0.56 0.679,-0.665 0.875,-0.665 0.49,0 0.623,0.532 0.623,0.609 0,0.028 -0.014,0.077 -0.021,0.098 l -0.329,1.309 z" />
    </defs>
    <defs
       id="defs4137">
      <path
         id="equation_00_00"
         d="M 2.954,-2.674 C 2.807,-2.905 2.569,-3.087 2.233,-3.087 c -0.896,0 -1.806,0.987 -1.806,1.995 0,0.679 0.455,1.162 1.057,1.162 0.378,0 0.714,-0.217 0.994,-0.49 0.133,0.42 0.539,0.49 0.721,0.49 0.252,0 0.427,-0.154 0.553,-0.371 0.154,-0.273 0.245,-0.672 0.245,-0.7 0,-0.091 -0.091,-0.091 -0.112,-0.091 -0.098,0 -0.105,0.028 -0.154,0.217 -0.084,0.336 -0.217,0.749 -0.511,0.749 -0.182,0 -0.231,-0.154 -0.231,-0.343 0,-0.119 0.056,-0.371 0.105,-0.553 0.049,-0.189 0.119,-0.476 0.154,-0.63 l 0.14,-0.532 c 0.042,-0.182 0.126,-0.511 0.126,-0.546 0,-0.154 -0.126,-0.224 -0.238,-0.224 -0.119,0 -0.28,0.084 -0.322,0.28 z m -0.448,1.799 c -0.049,0.196 -0.203,0.336 -0.357,0.469 -0.063,0.056 -0.343,0.28 -0.644,0.28 -0.259,0 -0.511,-0.182 -0.511,-0.679 0,-0.371 0.203,-1.141 0.364,-1.421 0.322,-0.56 0.679,-0.665 0.875,-0.665 0.49,0 0.623,0.532 0.623,0.609 0,0.028 -0.014,0.077 -0.021,0.098 l -0.329,1.309 z"
         inkscape:connector-curvature="0" />
      <path
         id="equation_00_01"
         d="m 2.345,-4.452 c 0,-0.189 -0.014,-0.196 -0.21,-0.196 C 1.687,-4.207 1.05,-4.2 0.763,-4.2 v 0.252 c 0.168,0 0.63,0 1.015,-0.196 v 3.57 c 0,0.231 0,0.322 -0.7,0.322 H 0.812 V 0 c 0.126,-0.007 0.987,-0.028 1.246,-0.028 0.217,0 1.099,0.021 1.253,0.028 V -0.252 H 3.045 c -0.7,0 -0.7,-0.091 -0.7,-0.322 v -3.878 z"
         inkscape:connector-curvature="0" />
    </defs>
    <defs
       id="defs4137-7">
      <path
         id="equation_00_00-1"
         d="M 2.954,-2.674 C 2.807,-2.905 2.569,-3.087 2.233,-3.087 c -0.896,0 -1.806,0.987 -1.806,1.995 0,0.679 0.455,1.162 1.057,1.162 0.378,0 0.714,-0.217 0.994,-0.49 0.133,0.42 0.539,0.49 0.721,0.49 0.252,0 0.427,-0.154 0.553,-0.371 0.154,-0.273 0.245,-0.672 0.245,-0.7 0,-0.091 -0.091,-0.091 -0.112,-0.091 -0.098,0 -0.105,0.028 -0.154,0.217 -0.084,0.336 -0.217,0.749 -0.511,0.749 -0.182,0 -0.231,-0.154 -0.231,-0.343 0,-0.119 0.056,-0.371 0.105,-0.553 0.049,-0.189 0.119,-0.476 0.154,-0.63 l 0.14,-0.532 c 0.042,-0.182 0.126,-0.511 0.126,-0.546 0,-0.154 -0.126,-0.224 -0.238,-0.224 -0.119,0 -0.28,0.084 -0.322,0.28 z m -0.448,1.799 c -0.049,0.196 -0.203,0.336 -0.357,0.469 -0.063,0.056 -0.343,0.28 -0.644,0.28 -0.259,0 -0.511,-0.182 -0.511,-0.679 0,-0.371 0.203,-1.141 0.364,-1.421 0.322,-0.56 0.679,-0.665 0.875,-0.665 0.49,0 0.623,0.532 0.623,0.609 0,0.028 -0.014,0.077 -0.021,0.098 l -0.329,1.309 z"
         inkscape:connector-curvature="0" />
      <path
         id="equation_00_01-2"
         d="m 2.345,-4.452 c 0,-0.189 -0.014,-0.196 -0.21,-0.196 C 1.687,-4.207 1.05,-4.2 0.763,-4.2 v 0.252 c 0.168,0 0.63,0 1.015,-0.196 v 3.57 c 0,0.231 0,0.322 -0.7,0.322 H 0.812 V 0 c 0.126,-0.007 0.987,-0.028 1.246,-0.028 0.217,0 1.099,0.021 1.253,0.028 V -0.252 H 3.045 c -0.7,0 -0.7,-0.091 -0.7,-0.322 v -3.878 z"
         inkscape:connector-curvature="0" />
    </defs>
  </defs>
  <metadata
     id="metadata7">
    <rdf:RDF>
      <cc:Work
         rdf:about="">
        <dc:format>image/svg+xml</dc:format>
        <dc:type
           rdf:resource="http://purl.org/dc/dcmitype/StillImage" />
        <dc:title />
      </cc:Work>
    </rdf:RDF>
  </metadata>
  <g
     transform="translate(26.648493,-328.4375)"
     id="layer1"
     inkscape:groupmode="layer"
     inkscape:label="Capa 1">
    <path
       id="path3141"
       d="m 240.89216,366.91893 0,360.19873"
       style="fill:none;stroke:#4d4d4d;stroke-width:2.08481693"
       inkscape:label="MajorXDiv1"
       inkscape:connector-curvature="0" />
    <path
       id="path3143"
       d="m 361.5606,366.91893 0,360.19873"
       style="fill:none;stroke:#4d4d4d;stroke-width:2.08481693"
       inkscape:label="MajorXDiv2"
       inkscape:connector-curvature="0" />
    <path
       id="path3145"
       d="m 482.22903,366.91893 0,360.19873"
       style="fill:none;stroke:#4d4d4d;stroke-width:2.08481693"
       inkscape:label="MajorXDiv3"
       inkscape:connector-curvature="0" />
    <path
       id="path3143-7-3"
       d="m 401.37866,368.11564 0,360.19866"
       style="fill:none;stroke:#999999;stroke-width:2.08481693;stroke-miterlimit:4;stroke-dasharray:4.16963403, 4.16963403;stroke-dashoffset:0"
       inkscape:label="MajorXDiv2"
       inkscape:connector-curvature="0" />
    <path
       id="path3143-7-5-0"
       d="m 321.32213,367.37832 0,360.19865"
       style="fill:none;stroke:#999999;stroke-width:2.08481693;stroke-miterlimit:4;stroke-dasharray:4.16963403, 4.16963403;stroke-dashoffset:0"
       inkscape:label="MajorXDiv2"
       inkscape:connector-curvature="0" />
    <path
       sodipodi:nodetypes="cssssssssssssssssssssssssssssssssssssssssssssssssscsssssssssssssssssssssssssssssssssssssssssssssssssc"
       inkscape:connector-curvature="0"
       style="fill:none;stroke:#000000;stroke-width:2.7014904;stroke-miterlimit:4;stroke-dasharray:none"
       d="m 119.55127,723.90257 4.28736,-12.29249 c 1.97905,-5.67427 3.23051,-11.38051 4.84572,-17.04488 1.61528,-5.66438 3.23057,-11.30765 4.84579,-16.91881 1.61528,-5.61116 3.2305,-11.19002 4.84579,-16.72577 1.61521,-5.53574 3.2305,-11.02812 4.84579,-16.46655 1.61522,-5.43843 3.2305,-10.82259 4.84571,-16.14219 1.6153,-5.31958 3.23058,-10.57422 4.84579,-15.75392 1.6153,-5.1797 3.23051,-10.28401 4.8458,-15.30333 1.61521,-5.01931 3.2305,-9.95312 4.84579,-14.79219 1.61521,-4.83905 3.23051,-9.58283 4.84572,-14.22249 1.61528,-4.63967 3.23049,-9.17463 4.84579,-13.59654 1.61529,-4.42192 3.2305,-8.73011 4.84579,-12.91677 1.61521,-4.18666 3.2305,-8.25105 4.84571,-12.18589 1.6153,-3.93484 3.23058,-7.73935 4.84579,-11.40679 1.6153,-3.66745 3.23051,-7.19701 4.8458,-10.58255 1.61529,-3.38554 3.2305,-6.62619 4.84579,-9.71644 1.61521,-3.09024 3.2305,-6.02917 4.84572,-8.81187 1.61528,-2.78272 3.23058,-5.40828 4.84579,-7.87244 1.61528,-2.46417 3.2305,-4.76598 4.84579,-6.90186 1.61521,-2.13587 3.2305,-4.10483 4.84579,-5.90395 1.61521,-1.79913 3.2305,-3.42743 4.84572,-4.8827 1.61529,-1.45527 3.23057,-2.73647 4.84579,-3.84211 1.61529,-1.10565 3.23057,-2.03469 4.84579,-2.78634 1.61529,-0.75164 3.2305,-1.32484 4.84579,-1.71952 1.61522,-0.39467 3.2305,-0.60975 4.84579,-0.6459 1.61522,-0.0362 3.23051,0.10773 4.84572,0.43026 1.61528,0.32253 3.23051,0.8248 4.84579,1.50473 1.61529,0.67993 3.23051,1.5386 4.84579,2.57325 1.61521,1.03463 3.2305,2.2463 4.84572,3.63158 1.61529,1.38525 3.23057,2.94513 4.84579,4.67553 1.61529,1.73039 3.2305,3.63231 4.8458,5.701 1.61528,2.06866 3.23049,4.30511 4.84578,6.70388 1.61522,2.39879 3.2305,4.96088 4.84572,7.68027 1.61531,2.71939 3.23053,5.59702 4.84576,8.62625 1.61531,3.02924 3.23053,6.21099 4.84584,9.53808 1.61522,3.3271 3.23044,6.80041 4.84575,10.4122 1.61522,3.61179 3.23053,7.3629 4.84576,11.24509 1.61531,3.8822 3.23044,7.89626 4.84575,12.03349 1.61531,4.13723 3.23053,8.39837 4.84584,12.77428 1.61522,4.3759 3.23045,8.86725 4.84576,13.46451 1.61522,4.59726 3.23053,9.30104 4.84575,14.10147 1.61522,4.80041 3.23044,9.69802 4.84575,14.6826 1.61531,4.98459 3.23054,10.05665 4.84576,15.20568 1.61522,5.14901 3.23053,10.37546 4.84575,15.66855 1.61531,5.29309 3.23062,10.65321 4.84575,16.06942 1.61532,5.41621 3.23054,10.88883 4.84585,16.40672 1.61522,5.5179 3.23053,11.08134 4.84575,16.67908 1.61522,5.59775 3.23053,11.23001 4.84575,16.88546 1.61532,5.65546 3.23054,11.33423 4.84576,17.02501 1.61531,5.69075 3.23053,11.39364 4.84584,17.09719 1.61522,5.70355 3.23044,-9.12143 4.84576,-14.81522 1.61522,-5.69382 3.23053,-11.37705 4.84575,-17.03855 1.61522,-5.66153 3.23044,-11.30118 4.84575,-16.908 1.61531,-5.60681 3.23053,-11.18058 4.84585,-16.71049 1.61522,-5.52994 3.23044,-11.01576 4.84566,-16.44691 1.61531,-5.43115 3.23062,-10.80732 4.84584,-16.11821 1.61522,-5.3109 3.23045,-10.55613 4.84576,-15.72575 1.61522,-5.16961 3.23053,-10.26316 4.84575,-15.27105 1.61522,-5.00788 3.23053,-9.92958 4.84575,-14.75591 1.61531,-4.82634 3.23063,-9.55672 4.84576,-14.18241 1.61531,-4.62569 3.23053,-9.14604 4.84584,-13.55276 1.61522,-4.40674 3.23053,-8.69917 4.84575,-12.86951 1.61522,-4.17034 3.23054,-8.21785 4.84576,-12.1353 1.61531,-3.91745 3.23053,-7.70404 4.84575,-11.35309 1.61531,-3.64905 3.23053,-7.15973 4.84584,-10.52595 1.61523,-3.36622 3.23045,-6.58709 4.84567,-9.65715 1.61531,-3.07006 3.23062,-5.9884 4.84584,-8.75015 1.61522,-2.76176 3.23044,-5.366 4.84575,-7.80852 1.61523,-2.44253 3.23054,-4.72237 4.84585,-6.83599 1.61513,-2.11363 3.23044,-4.06005 4.84566,-5.83641 1.61531,-1.77636 3.23062,-3.38165 4.84585,-4.81372 1.61522,-1.43208 3.23044,-2.68989 4.84575,-3.77201 1.61522,-1.0821 3.23053,-1.98746 4.84575,-2.71534 1.61522,-0.72788 3.23053,-1.27721 4.84576,-1.64796 1.61531,-0.37075 3.23053,-0.56186 4.84575,-0.57404 1.61531,-0.0122 3.23053,0.15569 4.84584,0.50216 1.61522,0.34647 3.23054,0.87263 4.84567,1.57636 1.61531,0.70373 3.23062,1.58611 4.84584,2.64432 1.61531,1.05822 3.23053,2.29332 4.84575,3.70182 1.61531,1.40851 3.23054,2.99146 4.84585,4.74468 1.61522,1.75323 3.23044,3.67774 4.84566,5.76876 1.61531,2.091 3.23062,4.34949 4.84584,6.76999 1.61523,2.42051 3.23045,5.00403 4.84576,7.74446 1.61522,2.74044 3.23053,5.63876 4.84584,8.68828 1.61513,3.04952 3.23044,6.25117 4.84566,9.59771 1.61532,3.34655 3.23054,6.83885 4.84585,10.46917 1.61522,3.63032 3.23044,7.39946 4.84575,11.29919 1.61522,3.89972 3.23053,7.9308 4.84576,12.08451 1.61522,4.15369 3.23053,8.43075 4.84575,12.822 1.61531,4.39124 3.23053,8.89735 4.84575,13.50876 1.61531,4.6114 3.23053,9.32873 4.84585,14.14206 1.61522,4.81331 3.23044,9.7232 4.84566,14.71939 1.61531,4.99619 3.23062,10.07921 4.84584,15.23851 1.61531,5.15927 3.23044,10.3953 4.84576,15.69727 1.61522,5.30197 3.23053,10.67029 4.84584,16.09396 1.61522,5.42369 3.23044,10.90304 4.84566,16.42696 1.61531,5.52391 3.23054,11.09265 4.84585,16.69495 1.61522,5.60228 3.23044,11.23836 4.84575,16.89686 1.61522,5.65851 3.23053,11.3396 4.84584,17.03193 1.61513,5.69233 3.23045,11.41176 4.84567,17.0996"
       title="2*abs(sin(0.5*x))"
       id="path3066" />
    <rect
       style="fill:none;stroke:#000000;stroke-width:3.1272254"
       width="482.67377"
       height="360.19873"
       inkscape:label="Border"
       y="366.91895"
       x="120.22372"
       id="rect3155" />
    <path
       style="fill:none;stroke:#000000;stroke-width:1.80099368;stroke-linecap:butt;stroke-linejoin:miter;stroke-miterlimit:4;stroke-opacity:1;stroke-dasharray:none"
       d="m 114.44068,660.63453 12.02464,0"
       id="path3187"
       inkscape:connector-curvature="0" />
    <path
       style="fill:none;stroke:#000000;stroke-width:1.80099368;stroke-linecap:butt;stroke-linejoin:miter;stroke-miterlimit:4;stroke-opacity:1;stroke-dasharray:none"
       d="m 114.44068,525.03674 12.02464,0"
       id="path3187-8"
       inkscape:connector-curvature="0" />
    <path
       style="fill:none;stroke:#000000;stroke-width:1.80099368;stroke-linecap:butt;stroke-linejoin:miter;stroke-miterlimit:4;stroke-opacity:1;stroke-dasharray:none"
       d="m 114.44068,457.23784 12.02464,0"
       id="path3187-4"
       inkscape:connector-curvature="0" />
    <path
       style="fill:none;stroke:#000000;stroke-width:1.80099368;stroke-linecap:butt;stroke-linejoin:miter;stroke-miterlimit:4;stroke-opacity:1;stroke-dasharray:none"
       d="m 114.44068,592.83564 12.02464,0"
       id="path3187-8-5"
       inkscape:connector-curvature="0" />
    <path
       style="fill:none;stroke:#000000;stroke-width:1.80099368;stroke-linecap:butt;stroke-linejoin:miter;stroke-miterlimit:4;stroke-opacity:1;stroke-dasharray:none"
       d="m 114.44083,389.38601 12.02464,0"
       id="path3187-4-6"
       inkscape:connector-curvature="0" />
    <g
       transform="matrix(2.944044,0,0,2.944044,168.19092,571.61528)"
       id="equation_00_g"
       style="fill:#000000">
      <use
         id="use4142"
         y="59.062698"
         xlink:href="#equation_00_01"
         x="78.375801"
         width="744.09448"
         height="1052.3622" />
      <rect
         id="rect4144"
         y="60.299999"
         x="78.199997"
         width="4.3376498"
         height="0.399979" />
      <use
         id="use4146"
         y="66.448402"
         xlink:href="#equation_00_00"
         x="78.199997"
         width="744.09448"
         height="1052.3622" />
    </g>
    <g
       style="fill:#000000"
       id="equation_01_g"
       transform="matrix(2.944044,0,0,2.944044,247.77656,569.21441)">
      <use
         x="78.199997"
         xlink:href="#equation_01_00"
         y="59.062698"
         id="use4246"
         width="744.09448"
         height="1052.3622" />
      <rect
         height="0.399979"
         width="4.9274702"
         x="78.199997"
         y="60.299999"
         id="rect4248" />
      <use
         x="78.494904"
         xlink:href="#equation_01_01"
         y="66.448402"
         id="use4250"
         width="744.09448"
         height="1052.3622" />
    </g>
    <g
       style="fill:#000000"
       id="equation_02_g"
       transform="matrix(2.944044,0,0,2.944044,-16.162387,569.21441)">
      <use
         id="use4333"
         y="63"
         xlink:href="#equation_02_00"
         x="77"
         width="744.09448"
         height="1052.3622" />
      <use
         id="use4335"
         y="59.062698"
         xlink:href="#equation_02_01"
         x="85.977798"
         width="744.09448"
         height="1052.3622" />
      <rect
         id="rect4337"
         y="60.299999"
         x="85.977798"
         width="4.9274702"
         height="0.399979" />
      <use
         id="use4339"
         y="66.448402"
         xlink:href="#equation_02_02"
         x="86.272697"
         width="744.09448"
         height="1052.3622" />
    </g>
    <g
       style="fill:#000000"
       id="equation_03_g"
       transform="matrix(2.944044,0,0,2.944044,-130.68353,571.61528)">
      <use
         x="77"
         xlink:href="#equation_03_00"
         y="63"
         id="use4443"
         width="744.09448"
         height="1052.3622" />
      <use
         x="85.977798"
         xlink:href="#equation_03_03"
         y="59.062698"
         id="use4445"
         width="744.09448"
         height="1052.3622" />
      <use
         x="89.963898"
         xlink:href="#equation_03_01"
         y="59.062698"
         id="use4447"
         width="744.09448"
         height="1052.3622" />
      <rect
         height="0.399979"
         width="8.9136"
         x="85.977798"
         y="60.299999"
         id="rect4449" />
      <use
         x="88.2658"
         xlink:href="#equation_03_02"
         y="66.448402"
         id="use4451"
         width="744.09448"
         height="1052.3622" />
    </g>
    <g
       style="fill:#000000"
       id="equation_04_g"
       transform="matrix(2.944044,0,0,2.944044,359.69777,571.61528)">
      <use
         id="use4578"
         y="59.062698"
         xlink:href="#equation_04_02"
         x="78.199997"
         width="744.09448"
         height="1052.3622" />
      <use
         id="use4580"
         y="59.062698"
         xlink:href="#equation_04_00"
         x="82.186096"
         width="744.09448"
         height="1052.3622" />
      <rect
         id="rect4582"
         y="60.299999"
         x="78.199997"
         width="8.9136"
         height="0.399979" />
      <use
         id="use4584"
         y="66.448402"
         xlink:href="#equation_04_01"
         x="80.487999"
         width="744.09448"
         height="1052.3622" />
    </g>
    <g
       style="fill:#000000"
       id="equation_05_g"
       transform="matrix(2.944044,0,0,2.944044,65.013916,571.61528)">
      <use
         x="77"
         xlink:href="#equation_05_00"
         y="63"
         id="use4731"
         width="744.09448"
         height="1052.3622" />
      <use
         x="86.153603"
         xlink:href="#equation_05_02"
         y="59.062698"
         id="use4733"
         width="744.09448"
         height="1052.3622" />
      <rect
         height="0.399979"
         width="4.3376498"
         x="85.977798"
         y="60.299999"
         id="rect4735" />
      <use
         x="85.977798"
         xlink:href="#equation_05_01"
         y="66.448402"
         id="use4737"
         width="744.09448"
         height="1052.3622" />
    </g>
    <g
       style="fill:#000000"
       id="equation_06_g"
       transform="matrix(2.944044,0,0,2.944044,129.79492,573.63652)">
      <use
         id="use4902"
         y="63"
         xlink:href="#equation_06_00"
         x="77"
         width="744.09448"
         height="1052.3622" />
    </g>
    <text
       sodipodi:linespacing="125%"
       id="text4987"
       y="730.12091"
       x="70.851418"
       style="font-size:29.96051979px;font-style:normal;font-weight:normal;line-height:125%;letter-spacing:0px;word-spacing:0px;fill:#000000;fill-opacity:1;stroke:none;font-family:Times New Roman;-inkscape-font-specification:'Times New Roman,'"
       xml:space="preserve"><tspan
         y="730.12091"
         x="70.851418"
         id="tspan4989"
         sodipodi:role="line">0.0</tspan></text>
    <text
       sodipodi:linespacing="125%"
       id="text4987-5"
       y="599.39276"
       x="71.304924"
       style="font-size:29.96051979px;font-style:normal;font-weight:normal;line-height:125%;letter-spacing:0px;word-spacing:0px;fill:#000000;fill-opacity:1;stroke:none;font-family:Times New Roman;-inkscape-font-specification:'Times New Roman,'"
       xml:space="preserve"><tspan
         y="599.39276"
         x="71.304924"
         id="tspan4989-9"
         sodipodi:role="line">0.5</tspan></text>
    <text
       sodipodi:linespacing="125%"
       id="text4987-7"
       y="465.36133"
       x="69.637199"
       style="font-size:29.96051979px;font-style:normal;font-weight:normal;line-height:125%;letter-spacing:0px;word-spacing:0px;fill:#000000;fill-opacity:1;stroke:none;font-family:Times New Roman;-inkscape-font-specification:'Times New Roman,'"
       xml:space="preserve"><tspan
         y="465.36133"
         x="69.637199"
         id="tspan4989-2"
         sodipodi:role="line">1.0</tspan></text>
    <g
       title="$\frac{\omega}{(4c/m)^{1/2}}$"
       style="fill:#000000"
       id="equation_00">
      <defs
         id="defs5261">
        <path
           id="path5263"
           d="m 4.781,-2.59 c 0,-0.21 -0.091,-0.497 -0.378,-0.497 -0.168,0 -0.357,0.21 -0.357,0.385 0,0.231 0.378,0.28 0.378,0.756 0,0.448 -0.448,1.456 -1.232,1.456 -0.336,0 -0.616,-0.231 -0.714,-0.539 0.091,-0.154 0.259,-0.637 0.259,-0.819 0,-0.105 -0.063,-0.21 -0.182,-0.21 -0.357,0 -0.385,0.756 -0.385,1.001 -0.196,0.252 -0.546,0.567 -1.001,0.567 -0.378,0 -0.658,-0.343 -0.658,-0.812 0,-0.812 0.721,-1.491 0.721,-1.596 0,-0.084 -0.07,-0.161 -0.147,-0.161 -0.07,0 -0.112,0.035 -0.161,0.098 -0.091,0.105 -0.182,0.259 -0.266,0.399 -0.245,0.42 -0.42,1.015 -0.42,1.519 0,0.56 0.224,1.113 0.868,1.113 0.469,0 0.875,-0.308 1.127,-0.686 0.133,0.42 0.441,0.679 0.889,0.679 1.232,0 1.659,-2.072 1.659,-2.653 z"
           inkscape:connector-curvature="0" />
        <path
           id="path5265"
           d="m 3.507,-4.942 c 0.042,-0.091 0.042,-0.105 0.042,-0.133 0,-0.112 -0.091,-0.175 -0.168,-0.175 -0.119,0 -0.154,0.084 -0.189,0.175 L 0.581,1.442 C 0.539,1.533 0.539,1.547 0.539,1.575 c 0,0.112 0.091,0.175 0.168,0.175 0.119,0 0.154,-0.084 0.189,-0.175 l 2.611,-6.517 z"
           inkscape:connector-curvature="0" />
        <path
           id="equation_00_02"
           d="m 3.066,-2.681 c -0.252,0.042 -0.357,0.238 -0.357,0.392 0,0.189 0.147,0.259 0.273,0.259 0.154,0 0.399,-0.112 0.399,-0.448 0,-0.476 -0.546,-0.609 -0.924,-0.609 -1.05,0 -2.023,0.966 -2.023,1.939 0,0.602 0.42,1.218 1.295,1.218 1.183,0 1.736,-0.693 1.736,-0.791 0,-0.042 -0.063,-0.119 -0.119,-0.119 -0.042,0 -0.056,0.014 -0.112,0.07 -0.546,0.644 -1.365,0.644 -1.491,0.644 -0.504,0 -0.728,-0.343 -0.728,-0.777 0,-0.203 0.098,-0.966 0.462,-1.449 0.266,-0.343 0.63,-0.539 0.98,-0.539 0.098,0 0.434,0.014 0.609,0.21 z"
           inkscape:connector-curvature="0" />
        <path
           id="equation_00_03"
           d="M 3.038,-0.567 C 3.003,-0.427 2.94,-0.189 2.94,-0.154 2.94,0 3.066,0.07 3.178,0.07 c 0.126,0 0.238,-0.091 0.273,-0.154 0.035,-0.063 0.091,-0.287 0.126,-0.434 0.035,-0.133 0.112,-0.455 0.154,-0.63 0.042,-0.154 0.084,-0.308 0.119,-0.469 0.077,-0.301 0.077,-0.315 0.217,-0.532 0.224,-0.343 0.574,-0.742 1.12,-0.742 0.392,0 0.413,0.322 0.413,0.49 0,0.42 -0.301,1.197 -0.413,1.491 -0.077,0.196 -0.105,0.259 -0.105,0.378 0,0.371 0.308,0.602 0.665,0.602 0.7,0 1.008,-0.966 1.008,-1.071 0,-0.091 -0.091,-0.091 -0.112,-0.091 -0.098,0 -0.105,0.042 -0.133,0.119 -0.161,0.56 -0.462,0.847 -0.742,0.847 -0.147,0 -0.175,-0.098 -0.175,-0.245 0,-0.161 0.035,-0.252 0.161,-0.567 0.084,-0.217 0.371,-0.959 0.371,-1.351 0,-0.112 0,-0.406 -0.259,-0.609 C 5.747,-2.989 5.544,-3.087 5.215,-3.087 4.585,-3.087 4.2,-2.674 3.976,-2.38 3.92,-2.975 3.423,-3.087 3.066,-3.087 2.485,-3.087 2.093,-2.73 1.883,-2.45 1.834,-2.933 1.421,-3.087 1.134,-3.087 c -0.301,0 -0.462,0.217 -0.553,0.378 -0.154,0.259 -0.252,0.658 -0.252,0.693 0,0.091 0.098,0.091 0.119,0.091 0.098,0 0.105,-0.021 0.154,-0.21 0.105,-0.413 0.238,-0.756 0.511,-0.756 0.182,0 0.231,0.154 0.231,0.343 0,0.133 -0.063,0.392 -0.112,0.581 -0.049,0.189 -0.119,0.476 -0.154,0.63 l -0.224,0.896 c -0.028,0.091 -0.07,0.266 -0.07,0.287 0,0.154 0.126,0.224 0.238,0.224 0.126,0 0.238,-0.091 0.273,-0.154 0.035,-0.063 0.091,-0.287 0.126,-0.434 0.035,-0.133 0.112,-0.455 0.154,-0.63 0.042,-0.154 0.084,-0.308 0.119,-0.469 0.077,-0.287 0.091,-0.343 0.294,-0.63 0.196,-0.28 0.525,-0.644 1.05,-0.644 0.406,0 0.413,0.357 0.413,0.49 0,0.175 -0.021,0.266 -0.119,0.658 l -0.294,1.176 z"
           inkscape:connector-curvature="0" />
        <path
           id="equation_00_04"
           d="m 3.02,-3.5 c 0.035,-0.075 0.035,-0.095 0.035,-0.11 0,-0.075 -0.065,-0.14 -0.14,-0.14 -0.08,0 -0.12,0.055 -0.15,0.125 L 0.66,1 C 0.625,1.075 0.625,1.095 0.625,1.11 c 0,0.075 0.065,0.14 0.14,0.14 0.08,0 0.12,-0.055 0.15,-0.125 L 3.02,-3.5 z"
           inkscape:connector-curvature="0" />
        <path
           id="equation_00_05"
           d="m 2.485,-5.25 c -1.33,0.938 -1.68,2.422 -1.68,3.493 0,0.987 0.294,2.52 1.68,3.5 0.056,0 0.14,0 0.14,-0.084 0,-0.042 -0.021,-0.056 -0.07,-0.105 -0.931,-0.84 -1.274,-2.03 -1.274,-3.304 0,-1.89 0.721,-2.814 1.295,-3.332 0.028,-0.028 0.049,-0.049 0.049,-0.084 0,-0.084 -0.084,-0.084 -0.14,-0.084 z"
           inkscape:connector-curvature="0" />
        <path
           id="equation_00_06"
           d="m 0.63,-5.25 c -0.049,0 -0.133,0 -0.133,0.084 0,0.035 0.021,0.056 0.063,0.105 0.602,0.553 1.274,1.498 1.274,3.304 0,1.463 -0.455,2.569 -1.211,3.255 -0.119,0.119 -0.126,0.126 -0.126,0.161 0,0.035 0.021,0.084 0.091,0.084 0.084,0 0.749,-0.462 1.211,-1.337 0.308,-0.581 0.511,-1.337 0.511,-2.156 0,-0.987 -0.294,-2.52 -1.68,-3.5 z"
           inkscape:connector-curvature="0" />
        <path
           id="equation_00_07"
           d="M 3.703,-1.148 V -1.4 H 2.926 v -3.122 c 0,-0.147 0,-0.196 -0.154,-0.196 -0.084,0 -0.112,0 -0.182,0.098 L 0.273,-1.4 v 0.252 h 2.058 v 0.574 c 0,0.238 0,0.322 -0.567,0.322 H 1.575 V 0 c 0.35,-0.014 0.798,-0.028 1.05,-0.028 0.259,0 0.707,0.014 1.057,0.028 V -0.252 H 3.493 c -0.567,0 -0.567,-0.084 -0.567,-0.322 V -1.148 H 3.703 z M 2.38,-3.962 V -1.4 H 0.532 L 2.38,-3.962 z"
           inkscape:connector-curvature="0" />
        <path
           id="equation_00_08"
           d="M 1.99,-3.18 C 1.99,-3.33 1.975,-3.33 1.81,-3.33 1.455,-3.01 0.9,-3.01 0.8,-3.01 H 0.715 v 0.22 H 0.8 c 0.115,0 0.44,-0.015 0.73,-0.14 v 2.5 c 0,0.155 0,0.21 -0.53,0.21 H 0.75 V 0 c 0.275,-0.02 0.72,-0.02 1.01,-0.02 0.29,0 0.735,0 1.01,0.02 V -0.22 H 2.52 c -0.53,0 -0.53,-0.055 -0.53,-0.21 v -2.75 z"
           inkscape:connector-curvature="0" />
        <path
           id="equation_00_09"
           d="M 2.945,-0.965 H 2.735 C 2.72,-0.87 2.67,-0.56 2.59,-0.51 2.55,-0.48 2.13,-0.48 2.055,-0.48 h -0.98 c 0.33,-0.245 0.7,-0.525 1,-0.725 0.45,-0.31 0.87,-0.6 0.87,-1.13 0,-0.64 -0.605,-0.995 -1.32,-0.995 -0.675,0 -1.17,0.39 -1.17,0.88 0,0.26 0.22,0.305 0.29,0.305 0.135,0 0.295,-0.09 0.295,-0.295 0,-0.18 -0.13,-0.28 -0.285,-0.295 0.14,-0.225 0.43,-0.375 0.765,-0.375 0.485,0 0.89,0.29 0.89,0.78 0,0.42 -0.29,0.74 -0.675,1.065 l -1.22,1.035 c -0.05,0.045 -0.055,0.045 -0.06,0.08 V 0 H 2.78 l 0.165,-0.965 z"
           inkscape:connector-curvature="0" />
      </defs>
      <g
         id="g5275" />
    </g>
    <g
       id="g3167"
       transform="matrix(0,-1.277421,1.505381,0,-262.63792,885.42659)">
      <g
         word-spacing="normal"
         letter-spacing="normal"
         font-size-adjust="none"
         font-stretch="normal"
         font-weight="normal"
         font-variant="normal"
         font-style="normal"
         stroke-miterlimit="10.433"
         xml:space="preserve"
         transform="matrix(0.63790113,0,0,-0.63790113,-111.6327,453.27485)"
         id="content"
         style="font-style:normal;font-variant:normal;font-weight:normal;font-stretch:normal;letter-spacing:normal;word-spacing:normal;text-anchor:start;fill:none;stroke:#000000;stroke-linecap:butt;stroke-linejoin:miter;stroke-miterlimit:10.43299961;stroke-opacity:1;stroke-dasharray:none;stroke-dashoffset:0"><path
           id="path3170"
           d="m 561.76,438.65 0,0.1 -0.01,0.1 0,0.1 -0.01,0.11 -0.02,0.1 -0.01,0.11 -0.02,0.1 -0.03,0.11 -0.02,0.1 -0.03,0.11 -0.03,0.1 -0.04,0.1 -0.04,0.1 -0.05,0.1 -0.04,0.1 -0.06,0.09 -0.05,0.09 -0.06,0.08 -0.07,0.09 -0.07,0.08 -0.07,0.07 -0.08,0.07 -0.09,0.06 -0.08,0.06 -0.1,0.06 -0.1,0.04 -0.1,0.04 -0.11,0.04 -0.11,0.02 -0.06,0.02 -0.06,0 -0.06,0.01 -0.07,0.01 -0.06,0 -0.07,0 c -0.84,0 -1.78,-1.03 -1.78,-1.91 0,-1.15 1.88,-1.39 1.88,-3.76 0,-2.24 -2.22,-7.25 -6.13,-7.25 -1.67,0 -3.06,1.16 -3.56,2.69 0.45,0.76 1.3,3.17 1.3,4.07 0,0.52 -0.32,1.05 -0.91,1.05 -1.78,0 -1.92,-3.76 -1.92,-4.98 -0.97,-1.27 -2.72,-2.83 -4.99,-2.83 -1.87,0 -3.26,1.7 -3.26,4.05 0,4.03 3.58,7.42 3.58,7.93 0,0.43 -0.35,0.82 -0.72,0.82 -0.36,0 -0.57,-0.19 -0.82,-0.5 -0.45,-0.52 -0.9,-1.29 -1.31,-1.99 -1.22,-2.09 -2.09,-5.05 -2.09,-7.56 0,-2.78 1.11,-5.53 4.31,-5.53 2.34,0 4.36,1.53 5.61,3.4 0.67,-2.09 2.2,-3.37 4.44,-3.37 6.12,0 8.25,10.31 8.25,13.2 z"
           inkscape:connector-curvature="0"
           style="fill:#000000;stroke-width:0" /><polyline
           id="polyline3172"
           points="462,418 641.28,418 641.28,420.04 462,420.04 "
           style="fill:#000000;fill-rule:nonzero;stroke-width:0" /><path
           id="path3174"
           d="m 473.89,413.14 -0.6,-0.44 -0.58,-0.47 -0.55,-0.47 -0.53,-0.49 -0.5,-0.5 -0.47,-0.51 -0.45,-0.53 -0.42,-0.53 -0.4,-0.54 -0.37,-0.55 -0.36,-0.56 -0.33,-0.56 -0.31,-0.57 -0.28,-0.57 -0.27,-0.58 -0.25,-0.58 -0.22,-0.58 -0.21,-0.58 -0.19,-0.59 -0.18,-0.58 -0.15,-0.58 -0.14,-0.58 -0.13,-0.57 -0.1,-0.57 -0.1,-0.57 -0.07,-0.56 -0.07,-0.55 -0.05,-0.54 -0.04,-0.54 -0.03,-0.53 -0.01,-0.51 -0.01,-0.51 c 0,-4.92 1.47,-12.55 8.37,-17.42 0.29,0 0.69,0 0.69,0.4 0,0.22 -0.09,0.29 -0.34,0.54 -4.64,4.18 -6.35,10.11 -6.35,16.45 0,9.4 3.6,14 6.46,16.58 0.14,0.14 0.23,0.25 0.23,0.42 0,0.42 -0.4,0.42 -0.69,0.42 z"
           inkscape:connector-curvature="0"
           style="fill:#000000;stroke-width:0" /><path
           id="path3176"
           d="m 495.55,392.72 v 1.25 h -3.87 v 15.55 c 0,0.71 0,0.96 -0.77,0.96 -0.42,0 -0.56,0 -0.9,-0.48 l -11.53,-16.03 v -1.25 h 10.25 l 0.23,1.25 h -9.2 l 9.2,12.75 v -12.75 l -0.23,-1.25 v -2.86 c 0,-1.19 0,-1.61 -2.83,-1.61 h -0.94 V 387 c 1.74,0.06 3.97,0.14 5.22,0.14 1.3,0 3.52,-0.08 5.27,-0.14 v 1.25 h -0.94 c -2.83,0 -2.83,0.42 -2.83,1.61 v 2.86 z"
           inkscape:connector-curvature="0"
           style="fill:#000000;stroke-width:0" /><path
           id="path3178"
           d="m 512.18,400.34 -0.12,-0.02 -0.11,-0.02 -0.11,-0.03 -0.1,-0.04 -0.1,-0.03 -0.09,-0.05 -0.1,-0.04 -0.08,-0.05 -0.09,-0.05 -0.07,-0.05 -0.08,-0.06 -0.07,-0.06 -0.07,-0.06 -0.06,-0.07 -0.06,-0.06 -0.06,-0.07 -0.05,-0.07 -0.05,-0.07 -0.04,-0.07 -0.04,-0.08 -0.04,-0.07 -0.03,-0.08 -0.03,-0.07 -0.03,-0.08 -0.03,-0.08 -0.02,-0.07 -0.01,-0.08 -0.02,-0.07 -0.01,-0.08 -0.01,-0.07 0,-0.08 0,-0.07 c 0,-0.94 0.73,-1.28 1.36,-1.28 0.76,0 1.98,0.55 1.98,2.22 0,2.37 -2.72,3.03 -4.59,3.03 -5.24,0 -10.08,-4.8 -10.08,-9.64 0,-3 2.09,-6.06 6.45,-6.06 5.89,0 8.64,3.43 8.64,3.93 0,0.21 -0.31,0.6 -0.59,0.6 -0.2,0 -0.28,-0.08 -0.56,-0.36 -2.72,-3.21 -6.8,-3.21 -7.42,-3.21 -2.5,0 -3.63,1.71 -3.63,3.88 0,1 0.5,4.8 2.31,7.2 1.32,1.72 3.13,2.69 4.88,2.69 0.48,0 2.15,-0.06 3.03,-1.05 z"
           inkscape:connector-curvature="0"
           style="fill:#000000;stroke-width:0" /><path
           id="path3180"
           d="m 532.12,411.59 0.02,0.02 0,0.03 0.01,0.02 0.01,0.01 0.01,0.02 0.01,0.02 0.01,0.02 0.01,0.02 0.01,0.01 0,0.02 0.02,0.03 0.01,0.03 0.01,0.03 0.01,0.03 0.01,0.02 0.01,0.03 0.01,0.02 0.01,0.02 0.01,0.02 0,0.02 0.01,0.02 0,0.01 0.01,0.02 0,0.02 0,0.01 0.01,0.02 0,0.01 0,0.01 0,0.02 0,0.02 0,0.03 0,0.02 0,0.03 c 0,0.54 -0.45,0.87 -0.84,0.87 -0.59,0 -0.77,-0.42 -0.94,-0.87 l -13,-32.44 c -0.2,-0.45 -0.2,-0.53 -0.2,-0.67 0,-0.55 0.45,-0.88 0.83,-0.88 0.59,0 0.76,0.42 0.93,0.88 z"
           inkscape:connector-curvature="0"
           style="fill:#000000;stroke-width:0" /><path
           id="path3182"
           d="m 550.2,389.83 -0.02,-0.07 -0.02,-0.07 -0.02,-0.07 -0.02,-0.08 -0.01,-0.07 -0.02,-0.08 -0.04,-0.16 -0.04,-0.16 -0.04,-0.16 -0.04,-0.16 -0.02,-0.08 -0.02,-0.07 -0.02,-0.08 -0.02,-0.07 -0.01,-0.07 -0.02,-0.07 -0.02,-0.07 -0.01,-0.06 -0.02,-0.06 -0.01,-0.06 -0.01,-0.05 -0.01,-0.05 -0.01,-0.04 -0.01,-0.04 0,-0.04 -0.01,-0.03 0,-0.02 0,-0.02 c 0,-0.77 0.63,-1.11 1.17,-1.11 0.64,0 1.19,0.45 1.36,0.76 0.19,0.31 0.46,1.42 0.64,2.16 0.17,0.65 0.55,2.26 0.77,3.14 0.2,0.76 0.4,1.53 0.59,2.33 0.38,1.5 0.38,1.56 1.08,2.65 1.11,1.71 2.86,3.69 5.56,3.69 1.96,0 2.07,-1.61 2.07,-2.44 0,-2.09 -1.5,-5.95 -2.07,-7.42 -0.37,-0.98 -0.51,-1.3 -0.51,-1.89 0,-1.84 1.53,-2.98 3.31,-2.98 3.48,0 5.02,4.79 5.02,5.32 0,0.46 -0.46,0.46 -0.57,0.46 -0.48,0 -0.51,-0.21 -0.65,-0.6 -0.8,-2.78 -2.3,-4.22 -3.69,-4.22 -0.74,0 -0.88,0.49 -0.88,1.22 0,0.8 0.18,1.25 0.8,2.83 0.42,1.08 1.84,4.77 1.84,6.72 0,0.56 0,2.03 -1.28,3.03 -0.59,0.46 -1.61,0.94 -3.25,0.94 -3.12,0 -5.04,-2.05 -6.15,-3.52 -0.28,2.97 -2.77,3.52 -4.53,3.52 -2.89,0 -4.85,-1.77 -5.89,-3.16 -0.25,2.39 -2.3,3.16 -3.74,3.16 -1.5,0 -2.3,-1.08 -2.75,-1.88 -0.76,-1.28 -1.25,-3.28 -1.25,-3.45 0,-0.45 0.49,-0.45 0.59,-0.45 0.49,0 0.52,0.11 0.77,1.04 0.52,2.07 1.19,3.77 2.55,3.77 0.9,0 1.14,-0.77 1.14,-1.7 0,-0.67 -0.31,-1.96 -0.56,-2.89 -0.24,-0.96 -0.58,-2.38 -0.77,-3.14 l -1.11,-4.47 c -0.14,-0.44 -0.34,-1.31 -0.34,-1.42 0,-0.77 0.62,-1.11 1.18,-1.11 0.63,0 1.18,0.45 1.36,0.76 0.18,0.31 0.46,1.42 0.63,2.16 0.17,0.65 0.55,2.26 0.76,3.14 0.21,0.76 0.43,1.53 0.6,2.33 0.37,1.43 0.45,1.7 1.45,3.14 0.99,1.39 2.63,3.2 5.24,3.2 2.01,0 2.04,-1.78 2.04,-2.44 0,-0.87 -0.09,-1.33 -0.59,-3.28 z"
           inkscape:connector-curvature="0"
           style="fill:#000000;stroke-width:0" /><path
           id="path3184"
           d="m 573.61,413.14 -0.02,0 -0.03,0 -0.03,0 -0.02,0 -0.03,0 -0.03,0 -0.02,0 -0.03,-0.01 -0.03,0 -0.03,0 -0.03,-0.01 -0.02,0 -0.03,-0.01 -0.03,0 -0.02,-0.01 -0.03,-0.01 -0.03,-0.01 -0.02,-0.01 -0.02,-0.02 -0.03,-0.01 -0.02,-0.02 -0.02,-0.02 -0.02,-0.02 0,-0.01 -0.01,-0.01 -0.01,-0.01 -0.01,-0.01 0,-0.01 -0.01,-0.02 -0.01,-0.01 0,-0.01 -0.01,-0.02 0,-0.01 -0.01,-0.02 0,-0.01 0,-0.02 -0.01,-0.02 0,-0.01 0,-0.02 0,-0.02 0,-0.02 c 0,-0.17 0.11,-0.28 0.31,-0.53 3,-2.75 6.34,-7.46 6.34,-16.44 0,-7.28 -2.26,-12.8 -6.03,-16.2 -0.58,-0.6 -0.62,-0.63 -0.62,-0.82 0,-0.17 0.11,-0.4 0.45,-0.4 0.42,0 3.73,2.29 6.03,6.65 1.53,2.9 2.55,6.66 2.55,10.74 0,4.9 -1.47,12.53 -8.36,17.42 z"
           inkscape:connector-curvature="0"
           style="fill:#000000;stroke-width:0" /><path
           id="path3186"
           d="m 596,412.8 0,0.04 0,0.03 0,0.04 0,0.03 0,0.03 0,0.03 0,0.03 0,0.02 -0.01,0.03 0,0.02 0,0.03 0,0.02 -0.01,0.03 0,0.02 0,0.02 -0.01,0.02 0,0.02 0,0.02 -0.01,0.03 -0.01,0.03 -0.02,0.03 -0.01,0.03 -0.02,0.02 -0.02,0.02 -0.02,0.02 -0.03,0.02 -0.02,0.01 -0.03,0.01 -0.04,0.02 -0.03,0 -0.04,0.01 -0.04,0.01 -0.02,0 -0.03,0 -0.02,0.01 -0.02,0 -0.03,0 -0.02,0 -0.03,0 -0.03,0 -0.03,0 -0.03,0 -0.03,0 -0.03,0 -0.04,0 -0.03,0 -0.03,0 -0.04,0 -0.04,0 -0.04,0 c -1.76,-1.59 -4.53,-1.59 -5.03,-1.59 h -0.42 v -1.09 h 0.42 c 0.58,0 2.19,0.06 3.64,0.68 V 399.1 c 0,-0.76 0,-1.05 -2.64,-1.05 h -1.25 v -1.09 c 1.38,0.09 3.6,0.09 5.03,0.09 1.46,0 3.68,0 5.04,-0.09 v 1.09 h -1.24 c -2.64,0 -2.64,0.29 -2.64,1.05 z"
           inkscape:connector-curvature="0"
           style="fill:#000000;stroke-width:0" /><path
           id="path3188"
           d="m 618.04,414.4 0.01,0.02 0.01,0.01 0.01,0.02 0,0.02 0.01,0.01 0.01,0.02 0,0.01 0.01,0.02 0.01,0.02 0.01,0.03 0.01,0.03 0.01,0.02 0.01,0.02 0.01,0.03 0.01,0.02 0,0.02 0.01,0.01 0,0.02 0.01,0.02 0,0.01 0.01,0.02 0,0.01 0,0.01 0.01,0.02 0,0.01 0,0.01 0,0.01 0,0.01 0,0.01 0,0.01 0,0.01 0,0.02 0.01,0.02 c 0,0.37 -0.33,0.7 -0.71,0.7 -0.39,0 -0.59,-0.28 -0.73,-0.63 l -10.5,-23.04 c -0.18,-0.38 -0.18,-0.47 -0.18,-0.55 0,-0.38 0.33,-0.7 0.71,-0.7 0.39,0 0.59,0.28 0.75,0.62 z"
           inkscape:connector-curvature="0"
           style="fill:#000000;stroke-width:0" /><path
           id="path3190"
           d="m 636.03,401.77 h -1.05 c -0.08,-0.48 -0.33,-2.01 -0.72,-2.26 -0.2,-0.16 -2.29,-0.16 -2.67,-0.16 h -4.87 c 1.63,1.22 3.48,2.61 4.98,3.61 2.23,1.55 4.33,3 4.33,5.64 0,3.19 -3.02,4.95 -6.58,4.95 -3.36,0 -5.83,-1.95 -5.83,-4.39 0,-1.29 1.1,-1.51 1.45,-1.51 0.68,0 1.47,0.45 1.47,1.47 0,0.89 -0.65,1.39 -1.42,1.47 0.69,1.12 2.14,1.87 3.81,1.87 2.41,0 4.42,-1.45 4.42,-3.89 0,-2.09 -1.43,-3.69 -3.35,-5.31 l -6.08,-5.16 c -0.25,-0.22 -0.27,-0.22 -0.3,-0.39 v -0.75 h 11.58 z"
           inkscape:connector-curvature="0"
           style="fill:#000000;stroke-width:0" /></g>    </g>
    <g
       transform="matrix(0.90049682,0,0,0.90049682,324.5121,268.95784)"
       id="g3406">
      <g
         style="font-style:normal;font-variant:normal;font-weight:normal;font-stretch:normal;letter-spacing:normal;word-spacing:normal;text-anchor:start;fill:none;stroke:#000000;stroke-linecap:butt;stroke-linejoin:miter;stroke-miterlimit:10.43299961;stroke-opacity:1;stroke-dasharray:none;stroke-dashoffset:0"
         id="g3408"
         transform="matrix(0.63790113,0,0,-0.63790113,-111.6327,453.27485)"
         xml:space="preserve"
         stroke-miterlimit="10.433"
         font-style="normal"
         font-variant="normal"
         font-weight="normal"
         font-stretch="normal"
         font-size-adjust="none"
         letter-spacing="normal"
         word-spacing="normal"><path
           style="fill:#000000;stroke-width:0"
           inkscape:connector-curvature="0"
           d="m 463.44,441.78 0,0.16 0,0.17 -0.01,0.16 0,0.08 0,0.08 -0.01,0.08 -0.01,0.08 -0.01,0.07 -0.01,0.07 -0.02,0.07 -0.01,0.07 -0.02,0.07 -0.02,0.06 -0.03,0.06 -0.03,0.06 -0.03,0.06 -0.03,0.05 -0.04,0.05 -0.04,0.05 -0.05,0.04 -0.05,0.04 -0.03,0.01 -0.03,0.02 -0.03,0.02 -0.03,0.01 -0.03,0.01 -0.03,0.02 -0.03,0.01 -0.04,0.01 -0.04,0.01 -0.03,0.01 -0.04,0 -0.04,0.01 -0.04,0 -0.05,0.01 -0.04,0 -0.05,0 c -1,0 -1,-0.89 -1,-1.78 v -46.24 c 0,-0.9 0,-1.79 1,-1.79 1,0 1,0.89 1,1.79 z"
           id="path3410" /><path
           style="fill:#000000;stroke-width:0"
           inkscape:connector-curvature="0"
           d="m 487.96,415.87 0.11,-0.02 0.13,-0.02 0.14,-0.03 0.15,-0.04 0.17,-0.04 0.18,-0.04 0.19,-0.05 0.2,-0.06 0.2,-0.06 0.22,-0.07 0.21,-0.08 0.22,-0.08 0.22,-0.1 0.22,-0.1 0.22,-0.11 0.22,-0.12 0.22,-0.14 0.21,-0.14 0.2,-0.15 0.2,-0.16 0.19,-0.18 0.18,-0.19 0.17,-0.2 0.16,-0.21 0.14,-0.22 0.07,-0.12 0.06,-0.12 0.06,-0.13 0.05,-0.12 0.05,-0.14 0.05,-0.13 0.04,-0.14 0.03,-0.14 0.03,-0.15 0.03,-0.15 0.02,-0.16 0.01,-0.15 0.01,-0.17 0,-0.16 c 0,-2.53 -1.75,-4.53 -5.62,-4.53 -4.19,0 -5.98,2.84 -6.94,7.07 -0.14,0.64 -0.19,0.85 -0.69,0.85 -0.65,0 -0.65,-0.35 -0.65,-1.25 v -6.58 c 0,-0.84 0,-1.19 0.55,-1.19 0.25,0 0.29,0.05 1.25,1 0.09,0.1 0.09,0.19 1,1.14 2.18,-2.09 4.43,-2.14 5.48,-2.14 5.72,0 8.02,3.35 8.02,6.92 0,2.64 -1.5,4.14 -2.1,4.74 -1.64,1.59 -3.59,2 -5.69,2.39 -2.78,0.55 -6.12,1.2 -6.12,4.09 0,1.74 1.3,3.78 5.58,3.78 5.48,0 5.73,-4.48 5.83,-6.03 0.06,-0.45 0.5,-0.45 0.6,-0.45 0.65,0 0.65,0.25 0.65,1.2 v 5.03 c 0,0.85 0,1.19 -0.55,1.19 -0.25,0 -0.35,0 -1,-0.59 -0.14,-0.21 -0.64,-0.64 -0.85,-0.8 -1.89,1.39 -3.93,1.39 -4.68,1.39 -6.08,0 -7.97,-3.33 -7.97,-6.12 0,-1.74 0.8,-3.14 2.14,-4.24 1.59,-1.29 3,-1.59 6.58,-2.28 z"
           id="path3412" /><path
           style="fill:#000000;stroke-width:0"
           inkscape:connector-curvature="0"
           d="m 506.09,428.21 -6.97,-0.54 v -1.55 c 3.24,0 3.69,-0.3 3.69,-2.73 v -13.41 c 0,-2.23 -0.55,-2.23 -3.89,-2.23 v -1.55 c 1.59,0.05 4.28,0.16 5.48,0.16 1.75,0 3.49,-0.11 5.19,-0.16 v 1.55 c -3.3,0 -3.5,0.25 -3.5,2.18 z"
           id="path3414" /><path
           style="fill:#000000;stroke-width:0"
           inkscape:connector-curvature="0"
           d="m 506.29,436.89 0,0.14 -0.01,0.15 -0.02,0.14 -0.02,0.14 -0.03,0.13 -0.04,0.13 -0.04,0.13 -0.05,0.12 -0.06,0.12 -0.06,0.12 -0.07,0.11 -0.07,0.1 -0.07,0.1 -0.08,0.1 -0.09,0.1 -0.09,0.08 -0.09,0.09 -0.1,0.08 -0.1,0.07 -0.1,0.07 -0.11,0.07 -0.11,0.06 -0.11,0.05 -0.12,0.05 -0.12,0.04 -0.12,0.04 -0.12,0.03 -0.13,0.03 -0.12,0.02 -0.13,0.01 -0.13,0.01 -0.13,0.01 c -1.54,0 -2.64,-1.35 -2.64,-2.64 0,-1.35 1.1,-2.64 2.64,-2.64 1.39,0 2.64,1.04 2.64,2.64 z"
           id="path3416" /><path
           style="fill:#000000;stroke-width:0"
           inkscape:connector-curvature="0"
           d="m 516.56,423.34 v -13.36 c 0,-2.23 -0.55,-2.23 -3.89,-2.23 v -1.55 c 1.75,0.05 4.28,0.16 5.62,0.16 1.3,0 3.89,-0.11 5.58,-0.16 v 1.55 c -3.33,0 -3.87,0 -3.87,2.23 v 9.17 c 0,5.19 3.53,7.97 6.72,7.97 3.13,0 3.68,-2.69 3.68,-5.53 v -11.61 c 0,-2.23 -0.55,-2.23 -3.89,-2.23 v -1.55 c 1.75,0.05 4.3,0.16 5.64,0.16 1.3,0 3.88,-0.11 5.58,-0.16 v 1.55 c -2.59,0 -3.84,0 -3.89,1.5 v 9.51 c 0,4.28 0,5.83 -1.55,7.61 -0.69,0.86 -2.34,1.84 -5.22,1.84 -3.64,0 -5.98,-2.14 -7.37,-5.21 v 5.21 l -7.03,-0.54 v -1.55 c 3.48,0 3.89,-0.34 3.89,-2.78 z"
           id="path3418" /><path
           style="fill:#000000;stroke-width:0"
           inkscape:connector-curvature="0"
           d="m 564.75,447.92 0,0.04 0,0.04 0,0.05 0,0.04 0,0.03 0,0.04 0,0.04 0,0.03 -0.01,0.04 0,0.03 0,0.03 0,0.03 0,0.03 -0.01,0.03 0,0.03 -0.01,0.02 0,0.03 0,0.02 -0.01,0.03 0,0.02 -0.02,0.04 -0.01,0.04 -0.02,0.03 -0.02,0.03 -0.02,0.03 -0.02,0.03 -0.03,0.02 -0.03,0.02 -0.04,0.02 -0.03,0.01 -0.04,0.01 -0.05,0.02 -0.02,0 -0.03,0 -0.02,0.01 -0.03,0 -0.03,0.01 -0.02,0 -0.03,0 -0.03,0 -0.04,0 -0.03,0.01 -0.03,0 -0.04,0 -0.04,0 -0.03,0 -0.04,0 -0.04,0 -0.04,0 -0.05,0 -0.04,0 -0.05,0 c -2.23,-2.2 -5.39,-2.23 -6.82,-2.23 v -1.25 c 0.84,0 3.14,0 5.04,0.97 v -17.77 c 0,-1.16 0,-1.61 -3.48,-1.61 h -1.32 v -1.25 c 0.63,0.03 4.91,0.14 6.21,0.14 1.08,0 5.47,-0.11 6.23,-0.14 v 1.25 h -1.33 c -3.48,0 -3.48,0.45 -3.48,1.61 z"
           id="path3420" /><polyline
           style="fill:#000000;fill-rule:nonzero;stroke-width:0"
           points="553,418 572.92,418 572.92,420.04 553,420.04 "
           id="polyline3422" /><path
           style="fill:#000000;stroke-width:0"
           inkscape:connector-curvature="0"
           d="m 570.67,395.38 h -1.19 c -0.09,-0.76 -0.45,-2.83 -0.9,-3.17 -0.27,-0.2 -2.96,-0.2 -3.44,-0.2 h -6.42 c 3.66,3.23 4.87,4.2 6.97,5.84 2.58,2.06 4.98,4.22 4.98,7.53 0,4.22 -3.69,6.8 -8.15,6.8 -4.32,0 -7.25,-3.03 -7.25,-6.23 0,-1.79 1.5,-1.96 1.85,-1.96 0.83,0 1.85,0.6 1.85,1.85 0,0.62 -0.25,1.84 -2.06,1.84 1.07,2.47 3.45,3.23 5.09,3.23 3.48,0 5.3,-2.7 5.3,-5.53 0,-3.03 -2.16,-5.43 -3.28,-6.68 l -8.4,-8.3 c -0.35,-0.31 -0.35,-0.39 -0.35,-1.36 h 14.35 z"
           id="path3424" /><path
           style="fill:#000000;stroke-width:0"
           inkscape:connector-curvature="0"
           d="m 593.3,440.23 0,0 0,0.01 0,0 0,0.01 0,0.02 -0.01,0.01 0,0.02 0,0.02 0,0.02 -0.01,0.02 0,0.02 -0.01,0.02 -0.01,0.02 -0.01,0.03 -0.01,0.02 -0.01,0.03 -0.01,0.02 -0.02,0.03 -0.02,0.02 -0.02,0.02 -0.02,0.03 -0.01,0.01 -0.01,0.01 -0.02,0.01 -0.01,0.01 -0.02,0.01 -0.01,0.01 -0.02,0.01 -0.01,0.01 -0.02,0.01 -0.02,0.01 -0.02,0 -0.02,0.01 -0.02,0.01 -0.02,0 -0.02,0.01 -0.02,0.01 -0.03,0 -0.02,0 -0.03,0.01 -0.02,0 -0.03,0 -0.03,0.01 -0.02,0 -0.03,0 c -1.16,0 -4.78,-0.41 -6.08,-0.5 -0.41,-0.05 -0.96,-0.1 -0.96,-1 0,-0.6 0.46,-0.6 1.21,-0.6 2.39,0 2.48,-0.34 2.48,-0.84 l -0.15,-1 -7.22,-28.7 c -0.21,-0.69 -0.21,-0.8 -0.21,-1.1 0,-1.14 1,-1.39 1.46,-1.39 0.64,0 1.39,0.46 1.69,1.05 0.24,0.45 2.5,9.66 2.79,10.91 1.69,-0.15 5.78,-0.94 5.78,-4.24 0,-0.34 0,-0.55 -0.15,-1.05 -0.1,-0.59 -0.21,-1.18 -0.21,-1.73 0,-2.95 2,-4.94 4.6,-4.94 1.48,0 2.83,0.8 3.93,2.64 1.24,2.19 1.79,4.94 1.79,5.03 0,0.5 -0.44,0.5 -0.6,0.5 -0.5,0 -0.54,-0.2 -0.7,-0.9 -0.99,-3.63 -2.14,-6.17 -4.33,-6.17 -0.94,0 -1.59,0.54 -1.59,2.34 0,0.84 0.2,1.98 0.4,2.78 0.19,0.86 0.19,1.05 0.19,1.55 0,3.25 -3.14,4.69 -7.37,5.23 1.54,0.91 3.14,2.5 4.29,3.69 2.39,2.64 4.68,4.78 7.13,4.78 0.29,0 0.34,0 0.44,-0.05 0.61,-0.09 0.65,-0.09 1.04,-0.39 0.11,-0.06 0.11,-0.11 0.21,-0.2 -2.4,-0.16 -2.85,-2.09 -2.85,-2.69 0,-0.79 0.55,-1.75 1.89,-1.75 1.3,0 2.75,1.1 2.75,3.03 0,1.5 -1.15,3.14 -3.39,3.14 -1.39,0 -3.69,-0.39 -7.28,-4.37 -1.69,-1.89 -3.62,-3.89 -5.52,-4.64 z"
           id="path3426" /><path
           style="fill:#000000;stroke-width:0"
           inkscape:connector-curvature="0"
           d="m 625.05,425.03 -0.08,0.17 -0.09,0.17 -0.09,0.16 -0.1,0.16 -0.09,0.16 -0.11,0.16 -0.1,0.15 -0.11,0.14 -0.12,0.15 -0.11,0.13 -0.12,0.14 -0.13,0.13 -0.12,0.12 -0.14,0.12 -0.13,0.11 -0.14,0.11 -0.14,0.11 -0.15,0.09 -0.15,0.1 -0.16,0.08 -0.16,0.08 -0.16,0.08 -0.17,0.06 -0.17,0.07 -0.18,0.05 -0.18,0.05 -0.18,0.04 -0.19,0.03 -0.2,0.03 -0.19,0.02 -0.21,0.01 -0.2,0 0.04,-1.09 c 3.24,0 3.94,-4.08 3.94,-4.37 0,-0.32 -0.09,-0.61 -0.14,-0.86 l -2.5,-9.77 c -0.25,-0.89 -0.25,-0.98 -1,-1.84 -2.19,-2.74 -4.23,-3.53 -5.62,-3.53 -2.49,0 -3.19,2.73 -3.19,4.68 0,2.49 1.59,8.61 2.73,10.91 1.55,2.94 3.8,4.78 5.78,4.78 l -0.04,1.09 c -5.83,0 -12,-7.31 -12,-14.59 0,-4.69 2.73,-7.97 6.62,-7.97 0.99,0 3.49,0.21 6.47,3.74 0.41,-2.1 2.14,-3.74 4.53,-3.74 1.75,0 2.89,1.14 3.69,2.74 0.84,1.79 1.5,4.84 1.5,4.93 0,0.5 -0.45,0.5 -0.59,0.5 -0.5,0 -0.55,-0.2 -0.71,-0.9 -0.84,-3.24 -1.75,-6.17 -3.78,-6.17 -1.34,0 -1.5,1.29 -1.5,2.29 0,1.1 0.09,1.49 0.64,3.69 0.56,2.09 0.66,2.59 1.11,4.48 l 1.78,6.97 c 0.36,1.39 0.36,1.5 0.36,1.69 0,0.86 -0.61,1.36 -1.45,1.36 -1.19,0 -1.94,-1.11 -2.1,-2.2 z"
           id="path3428" /><path
           style="fill:#000000;stroke-width:0"
           inkscape:connector-curvature="0"
           d="m 640.68,441.78 0,0.16 -0.01,0.17 0,0.16 0,0.08 -0.01,0.08 -0.01,0.08 0,0.08 -0.01,0.07 -0.02,0.07 -0.01,0.07 -0.02,0.07 -0.02,0.07 -0.02,0.06 -0.02,0.06 -0.03,0.06 -0.03,0.06 -0.04,0.05 -0.04,0.05 -0.04,0.05 -0.05,0.04 -0.05,0.04 -0.02,0.01 -0.03,0.02 -0.03,0.02 -0.03,0.01 -0.03,0.01 -0.03,0.02 -0.04,0.01 -0.03,0.01 -0.04,0.01 -0.04,0.01 -0.04,0 -0.04,0.01 -0.04,0 -0.04,0.01 -0.05,0 -0.04,0 c -1,0 -1,-0.89 -1,-1.78 v -46.24 c 0,-0.9 0,-1.79 1,-1.79 1,0 1,0.89 1,1.79 z"
           id="path3430" /></g>    </g>
    <g
       id="g3672"
       transform="matrix(1.1409429,0,0,1.1409429,150.24412,580.70209)">
      <g
         word-spacing="normal"
         letter-spacing="normal"
         font-size-adjust="none"
         font-stretch="normal"
         font-weight="normal"
         font-variant="normal"
         font-style="normal"
         stroke-miterlimit="10.433"
         xml:space="preserve"
         transform="matrix(0.63790113,0,0,-0.63790113,-111.6327,453.27485)"
         id="g3674"
         style="font-style:normal;font-variant:normal;font-weight:normal;font-stretch:normal;letter-spacing:normal;word-spacing:normal;text-anchor:start;fill:none;stroke:#000000;stroke-linecap:butt;stroke-linejoin:miter;stroke-miterlimit:10.43299961;stroke-opacity:1;stroke-dasharray:none;stroke-dashoffset:0"><path
           id="path3676"
           d="m 469.82,440.23 0,0 0,0.01 0,0 0,0.01 -0.01,0.02 0,0.01 0,0.02 0,0.02 0,0.02 -0.01,0.02 0,0.02 -0.01,0.02 -0.01,0.02 -0.01,0.03 -0.01,0.02 -0.01,0.03 -0.01,0.02 -0.02,0.03 -0.02,0.02 -0.02,0.02 -0.02,0.03 -0.01,0.01 -0.01,0.01 -0.02,0.01 -0.01,0.01 -0.02,0.01 -0.01,0.01 -0.02,0.01 -0.01,0.01 -0.02,0.01 -0.02,0.01 -0.02,0 -0.02,0.01 -0.02,0.01 -0.02,0 -0.02,0.01 -0.02,0.01 -0.03,0 -0.02,0 -0.03,0.01 -0.02,0 -0.03,0 -0.03,0.01 -0.02,0 -0.03,0 c -1.16,0 -4.79,-0.41 -6.08,-0.5 -0.41,-0.05 -0.96,-0.1 -0.96,-1 0,-0.6 0.46,-0.6 1.21,-0.6 2.39,0 2.48,-0.34 2.48,-0.84 l -0.15,-1 -7.22,-28.7 c -0.21,-0.69 -0.21,-0.8 -0.21,-1.1 0,-1.14 1,-1.39 1.46,-1.39 0.64,0 1.39,0.46 1.68,1.05 0.25,0.45 2.5,9.66 2.8,10.91 1.69,-0.15 5.78,-0.94 5.78,-4.24 0,-0.34 0,-0.55 -0.15,-1.05 -0.1,-0.59 -0.21,-1.18 -0.21,-1.73 0,-2.95 2,-4.94 4.6,-4.94 1.48,0 2.83,0.8 3.93,2.64 1.24,2.19 1.79,4.94 1.79,5.03 0,0.5 -0.44,0.5 -0.6,0.5 -0.5,0 -0.54,-0.2 -0.7,-0.9 -0.99,-3.63 -2.14,-6.17 -4.33,-6.17 -0.94,0 -1.59,0.54 -1.59,2.34 0,0.84 0.2,1.98 0.4,2.78 0.19,0.86 0.19,1.05 0.19,1.55 0,3.25 -3.14,4.69 -7.37,5.23 1.54,0.91 3.14,2.5 4.29,3.69 2.39,2.64 4.67,4.78 7.13,4.78 0.29,0 0.34,0 0.44,-0.05 0.6,-0.09 0.65,-0.09 1.04,-0.39 0.11,-0.06 0.11,-0.11 0.21,-0.2 -2.4,-0.16 -2.85,-2.09 -2.85,-2.69 0,-0.79 0.55,-1.75 1.89,-1.75 1.3,0 2.75,1.1 2.75,3.03 0,1.5 -1.15,3.14 -3.39,3.14 -1.39,0 -3.69,-0.39 -7.28,-4.37 -1.69,-1.89 -3.62,-3.89 -5.52,-4.64 z"
           inkscape:connector-curvature="0"
           style="fill:#000000;stroke-width:0" /></g>    </g>
  </g>
</svg>
