<?xml version="1.0" encoding="utf-8" standalone="no"?>
<!DOCTYPE svg PUBLIC "-//W3C//DTD SVG 1.1//EN"
  "http://www.w3.org/Graphics/SVG/1.1/DTD/svg11.dtd">
<!-- Created with matplotlib (http://matplotlib.org/) -->
<svg height="136pt" version="1.1" viewBox="0 0 216 136" width="216pt" xmlns="http://www.w3.org/2000/svg" xmlns:xlink="http://www.w3.org/1999/xlink">
 <defs>
  <style type="text/css">
*{stroke-linecap:butt;stroke-linejoin:round;stroke-miterlimit:100000;}
  </style>
 </defs>
 <g id="figure_1">
  <g id="patch_1">
   <path d="M 0 136.8 
L 216 136.8 
L 216 0 
L 0 0 
z
" style="fill:#ffffff;"/>
  </g>
  <g id="axes_1">
   <g id="patch_2">
    <path d="M 27 119.7 
L 194.4 119.7 
L 194.4 13.68 
L 27 13.68 
z
" style="fill:#ffffff;"/>
   </g>
   <g id="line2d_1">
    <path clip-path="url(#p389679edc7)" d="M 27.118228 -1 
L 27.36819 7.721368 
L 27.736359 13.039165 
L 28.221673 16.921399 
L 28.824133 19.99238 
L 29.543737 22.534968 
L 30.397221 24.740306 
L 31.384584 26.675557 
L 32.522563 28.412932 
L 33.811156 29.975038 
L 35.283834 31.410581 
L 36.957332 32.730276 
L 38.865119 33.947822 
L 41.007196 35.048329 
L 43.400298 36.025554 
L 46.02769 36.857178 
L 48.872636 37.522439 
L 51.834727 37.9868 
L 54.830288 38.231986 
L 57.708704 38.247566 
L 60.369565 38.043902 
L 62.729197 37.644943 
L 64.737394 37.087035 
L 66.427627 36.392537 
L 67.81663 35.58682 
L 68.954609 34.673429 
L 69.875032 33.654769 
L 70.628106 32.492195 
L 71.247301 31.114819 
L 71.732615 29.477456 
L 72.100784 27.445122 
L 72.368544 24.673823 
L 72.535894 20.450754 
L 72.602834 14.162282 
L 72.619569 1.706539 
L 72.619569 1.706539 
L 72.619569 1.706539 
L 72.753449 22.315523 
L 73.021208 26.536266 
L 73.406113 29.135778 
L 73.908162 31.057296 
L 74.544091 32.628253 
L 75.330635 33.977036 
L 76.284529 35.166474 
L 77.439242 36.243946 
L 78.828245 37.227994 
L 80.468273 38.113074 
L 82.392796 38.895072 
L 84.585078 39.542392 
L 86.978179 40.016154 
L 89.471691 40.284169 
L 91.931733 40.327943 
L 94.24116 40.150933 
L 96.316297 39.774334 
L 98.123674 39.2265 
L 99.663292 38.533927 
L 100.968621 37.705616 
L 102.039659 36.768398 
L 102.926613 35.703456 
L 103.662952 34.471942 
L 104.265411 33.018739 
L 104.733991 31.300424 
L 105.085425 29.180261 
L 105.33645 26.312376 
L 105.487065 22.107869 
L 105.570739 13.449406 
L 105.604209 19.787343 
L 105.788294 26.284238 
L 106.089524 29.526779 
L 106.507898 31.746998 
L 107.043417 33.430654 
L 107.696082 34.768855 
L 108.465891 35.851875 
L 109.352844 36.721953 
L 110.340208 37.381419 
L 111.377777 37.810266 
L 112.39861 37.996903 
L 113.335769 37.950516 
L 114.172518 37.691552 
L 114.892122 37.240319 
L 115.511316 36.593021 
L 116.046835 35.709707 
L 116.49868 34.531038 
L 116.866849 32.946258 
L 117.151344 30.723883 
L 117.352164 27.234347 
L 117.452573 21.496092 
L 117.486043 14.851088 
L 117.502778 20.492249 
L 117.502778 20.492249 
L 117.670128 28.884859 
L 117.971358 32.70779 
L 118.406467 35.381746 
L 118.975456 37.522598 
L 119.711795 39.4389 
L 120.648954 41.249949 
L 121.803668 42.991947 
L 123.226141 44.72872 
L 124.949843 46.476795 
L 127.024981 48.259716 
L 129.501757 50.089698 
L 132.430378 51.97243 
L 135.877784 53.918515 
L 139.877443 55.916265 
L 144.513032 57.977764 
L 149.81802 60.089128 
L 155.876082 62.25639 
L 162.737423 64.470713 
L 170.485717 66.733263 
L 179.17117 69.03391 
L 188.877457 71.371302 
L 194.4 72.609924 
L 194.4 72.609924 
" style="fill:none;stroke:#0000ff;stroke-linecap:square;"/>
   </g>
   <g id="line2d_2">
    <path clip-path="url(#p389679edc7)" d="M 27.06696 0.350876 
L 27.284515 11.447553 
L 27.619214 17.394776 
L 28.071059 21.547589 
L 28.623313 24.636122 
L 29.275977 27.051494 
L 29.995581 28.887747 
L 30.748655 30.230788 
L 31.518464 31.165475 
L 32.254803 31.720694 
L 32.924202 31.959084 
L 33.526661 31.948242 
L 34.078916 31.722426 
L 34.5977 31.2713 
L 35.083014 30.551865 
L 35.534859 29.460031 
L 35.919763 27.902689 
L 36.220993 25.684203 
L 36.421812 22.537965 
L 36.538957 16.892744 
L 36.572427 2.755001 
L 36.605897 16.723562 
L 36.605897 16.723562 
L 36.789982 24.062416 
L 37.091212 27.510893 
L 37.526321 29.974423 
L 38.078575 31.837279 
L 38.731239 33.278294 
L 39.467578 34.37762 
L 40.237387 35.140847 
L 41.007196 35.602121 
L 41.743535 35.792709 
L 42.429669 35.7481 
L 43.082333 35.481383 
L 43.684793 34.991825 
L 44.237047 34.255617 
L 44.739096 33.207524 
L 45.174206 31.757959 
L 45.52564 29.751879 
L 45.776665 26.94186 
L 45.92728 22.705299 
L 45.99422 13.483914 
L 46.044424 20.72445 
L 46.228509 27.107534 
L 46.546474 30.517348 
L 46.981583 32.818477 
L 47.533837 34.554317 
L 48.169767 35.84928 
L 48.889371 36.822567 
L 49.642445 37.473616 
L 50.378784 37.827603 
L 51.081653 37.929822 
L 51.751052 37.806886 
L 52.386981 37.460016 
L 52.972705 36.884124 
L 53.508224 36.044728 
L 53.993539 34.853451 
L 54.395178 33.257825 
L 54.713143 31.02985 
L 54.930698 27.850627 
L 55.047842 23.0881 
L 55.098047 12.603542 
L 55.131517 22.127311 
L 55.131517 22.127311 
L 55.315602 29.063862 
L 55.616832 32.415297 
L 56.035206 34.716728 
L 56.570725 36.458696 
L 57.206654 37.783866 
L 57.909524 38.743629 
L 58.629128 39.363591 
L 59.331997 39.687789 
L 59.984661 39.756068 
L 60.603855 39.598077 
L 61.172844 39.220362 
L 61.708363 38.585435 
L 62.193678 37.643411 
L 62.612052 36.319241 
L 62.946752 34.506424 
L 63.197776 31.888829 
L 63.348391 28.18532 
L 63.415331 22.987671 
L 63.432066 18.020695 
L 63.448801 19.964188 
L 63.448801 19.964188 
L 63.599416 30.529637 
L 63.88391 34.549155 
L 64.28555 37.159299 
L 64.821069 39.199397 
L 65.473733 40.829833 
L 66.243542 42.166209 
L 67.097026 43.21655 
L 68.01745 44.007761 
L 68.971344 44.542827 
L 69.941972 44.834761 
L 70.895866 44.890312 
L 71.81629 44.723536 
L 72.703244 44.338559 
L 73.556727 43.722169 
L 74.343271 42.879416 
L 75.062875 41.781602 
L 75.698805 40.398983 
L 76.234324 38.684963 
L 76.652698 36.580832 
L 76.953928 33.921862 
L 77.154748 30.0414 
L 77.255158 22.84705 
L 77.271892 13.706997 
L 77.288627 22.046265 
L 77.288627 22.046265 
L 77.439242 31.182262 
L 77.707002 34.73231 
L 78.075171 36.872522 
L 78.527016 38.274187 
L 79.029065 39.153467 
L 79.547849 39.636844 
L 80.049899 39.812062 
L 80.535213 39.747467 
L 81.020527 39.453443 
L 81.522577 38.870801 
L 82.007891 37.942703 
L 82.443001 36.611733 
L 82.81117 34.731614 
L 83.07893 32.202433 
L 83.263014 28.125972 
L 83.346689 20.413042 
L 83.363424 15.723025 
L 83.363424 15.723025 
L 83.363424 15.723025 
L 83.497304 29.492244 
L 83.765064 33.624247 
L 84.133233 36.052466 
L 84.601813 37.745352 
L 85.137332 38.891749 
L 85.689586 39.585425 
L 86.225105 39.923098 
L 86.71042 39.983592 
L 87.178999 39.819341 
L 87.647579 39.40431 
L 88.099423 38.692088 
L 88.517797 37.611992 
L 88.885967 36.035414 
L 89.187196 33.679333 
L 89.388016 30.200671 
L 89.488426 24.79139 
L 89.521896 12.506294 
L 89.538631 22.584203 
L 89.538631 22.584203 
L 89.705981 31.555505 
L 89.990475 35.157238 
L 90.392115 37.52868 
L 90.894164 39.196323 
L 91.446418 40.295879 
L 91.998673 40.931832 
L 92.500722 41.197317 
L 92.952566 41.195544 
L 93.370941 40.971607 
L 93.789315 40.482922 
L 94.190955 39.659961 
L 94.559124 38.390429 
L 94.877089 36.444444 
L 95.111379 33.500123 
L 95.245258 28.972755 
L 95.295463 21.356224 
L 95.345668 27.784718 
L 95.529753 34.281843 
L 95.830983 37.591404 
L 96.249357 39.849204 
L 96.751406 41.382816 
L 97.253456 42.263823 
L 97.688565 42.638372 
L 98.04 42.682094 
L 98.341229 42.502532 
L 98.642459 42.05279 
L 98.943688 41.175869 
L 99.211448 39.685986 
L 99.429003 37.109569 
L 99.562883 32.68527 
L 99.613087 24.731772 
L 99.663292 31.743231 
L 99.864112 38.672854 
L 100.198812 42.426893 
L 100.684126 45.341497 
L 101.320055 47.796597 
L 102.089864 49.884108 
L 102.943348 51.573418 
L 103.830302 52.853399 
L 104.667051 53.694841 
L 105.420125 54.157819 
L 106.072789 54.309652 
L 106.625043 54.216493 
L 107.110357 53.91142 
L 107.562202 53.355372 
L 107.980576 52.460872 
L 108.348746 51.097748 
L 108.63324 49.177297 
L 108.850795 46.031435 
L 108.96794 40.937252 
L 109.00141 34.429994 
L 109.03488 39.248663 
L 109.03488 39.248663 
L 109.20223 47.068129 
L 109.503459 50.878063 
L 109.938569 53.565072 
L 110.490823 55.632619 
L 111.160222 57.305554 
L 111.896561 58.564694 
L 112.616165 59.375101 
L 113.252094 59.776417 
L 113.770878 59.861881 
L 114.222723 59.712263 
L 114.624362 59.334538 
L 114.992532 58.674131 
L 115.327231 57.609722 
L 115.611726 55.953969 
L 115.829281 53.338446 
L 115.96316 49.027398 
L 116.0301 40.37222 
L 116.06357 47.514984 
L 116.247655 54.359757 
L 116.56562 58.100921 
L 117.034199 60.976652 
L 117.653393 63.398615 
L 118.439937 65.573587 
L 119.360361 67.473528 
L 120.381195 69.085904 
L 121.452233 70.376621 
L 122.523272 71.329469 
L 123.544105 71.948101 
L 124.481264 72.266402 
L 125.351483 72.333457 
L 126.154762 72.177102 
L 126.924571 71.799205 
L 127.66091 71.186886 
L 128.380514 70.292422 
L 129.083383 69.048557 
L 129.752782 67.390122 
L 130.371976 65.234611 
L 130.92423 62.457742 
L 131.35934 59.130036 
L 131.677304 54.994527 
L 131.861389 49.711635 
L 131.928329 43.006972 
L 131.945064 32.80055 
L 131.945064 32.80055 
L 131.945064 32.80055 
L 132.078944 50.498764 
L 132.296499 52.820663 
L 132.430378 53.028214 
L 132.447113 53.015998 
L 132.564258 52.715293 
L 132.731608 51.560499 
L 132.898958 48.881327 
L 133.016103 42.825307 
L 133.049572 34.474509 
L 133.066307 41.278944 
L 133.066307 41.278944 
L 133.233657 49.668108 
L 133.484682 52.263008 
L 133.668767 52.705695 
L 133.685502 52.701781 
L 133.785912 52.516471 
L 133.936526 51.590242 
L 134.087141 49.119587 
L 134.187551 43.352701 
L 134.221021 38.306992 
L 134.237756 43.021735 
L 134.237756 43.021735 
L 134.405106 51.144638 
L 134.65613 53.830611 
L 134.739805 53.997153 
L 134.79001 53.911124 
L 134.89042 53.108734 
L 134.99083 50.156184 
L 135.041035 41.742939 
L 135.074505 48.285742 
L 135.074505 48.285742 
L 135.25859 57.607437 
L 135.626759 64.124776 
L 136.195748 70.129056 
L 136.965557 75.85696 
L 137.919451 81.296378 
L 139.074164 86.604066 
L 140.446433 91.858439 
L 142.036255 97.055966 
L 143.843633 102.202389 
L 145.8853 107.345535 
L 148.177992 112.51679 
L 150.721709 117.704423 
L 153.533185 122.930399 
L 156.612421 128.18173 
L 159.959416 133.448326 
L 162.923071 137.8 
L 162.923071 137.8 
" style="fill:none;stroke:#008000;stroke-linecap:square;"/>
   </g>
   <g id="line2d_3">
    <path clip-path="url(#p389679edc7)" d="M 27.06696 2.947202 
L 27.284515 14.028807 
L 27.619214 19.916008 
L 28.054324 23.803215 
L 28.556373 26.426508 
L 29.091892 28.121687 
L 29.577207 29.004258 
L 29.978846 29.338614 
L 30.296811 29.346163 
L 30.59804 29.112516 
L 30.89927 28.576185 
L 31.217234 27.503915 
L 31.501729 25.654855 
L 31.702549 22.873655 
L 31.819694 18.547974 
L 31.869899 8.365027 
L 31.920103 18.052556 
L 32.120923 24.607746 
L 32.438888 27.944276 
L 32.873997 30.248243 
L 33.376047 31.77605 
L 33.878096 32.66021 
L 34.32994 33.055007 
L 34.714845 33.117893 
L 35.066279 32.94166 
L 35.417714 32.497365 
L 35.785883 31.63119 
L 36.120583 30.235173 
L 36.405077 27.999911 
L 36.589162 24.848314 
L 36.689572 19.907523 
L 36.723042 11.473206 
L 36.756512 18.975787 
L 36.756512 18.975787 
L 36.940597 26.655605 
L 37.241826 30.092834 
L 37.643466 32.302209 
L 38.12878 33.794724 
L 38.614094 34.636798 
L 39.065939 35.01526 
L 39.450843 35.066123 
L 39.802278 34.886854 
L 40.170447 34.427157 
L 40.538617 33.588744 
L 40.890051 32.197835 
L 41.174546 30.150416 
L 41.375366 27.17177 
L 41.492511 22.411232 
L 41.542716 12.18014 
L 41.576185 21.492217 
L 41.576185 21.492217 
L 41.76027 28.414981 
L 42.0615 31.739207 
L 42.463139 33.876315 
L 42.931719 35.26358 
L 43.417033 36.058869 
L 43.852142 36.383084 
L 44.220312 36.403612 
L 44.571746 36.198257 
L 44.939916 35.705354 
L 45.308085 34.822739 
L 45.65952 33.363552 
L 45.944015 31.190939 
L 46.144834 27.881435 
L 46.245244 23.186752 
L 46.278714 16.857485 
L 46.312184 21.347163 
L 46.312184 21.347163 
L 46.479534 29.134929 
L 46.764029 32.623464 
L 47.165668 34.899851 
L 47.634247 36.333753 
L 48.102827 37.119878 
L 48.521201 37.443889 
L 48.889371 37.470793 
L 49.240805 37.264617 
L 49.608975 36.763367 
L 49.977144 35.861465 
L 50.328579 34.361573 
L 50.613073 32.098225 
L 50.813893 28.504794 
L 50.914303 22.372028 
L 50.947773 18.080498 
L 50.964508 22.341269 
L 50.964508 22.341269 
L 51.131858 30.199839 
L 51.416352 33.687222 
L 51.801257 35.88258 
L 52.253101 37.286966 
L 52.721681 38.078077 
L 53.140055 38.388354 
L 53.491489 38.394526 
L 53.826189 38.176288 
L 54.177624 37.669081 
L 54.545793 36.713815 
L 54.880493 35.192666 
L 55.148252 32.933083 
L 55.332337 29.523626 
L 55.432747 23.297081 
L 55.449482 18.882765 
L 55.466217 19.465404 
L 55.466217 19.465404 
L 55.616832 30.525145 
L 55.884591 34.313148 
L 56.269496 36.70682 
L 56.72134 38.187808 
L 57.173185 38.982576 
L 57.574824 39.292809 
L 57.909524 39.298856 
L 58.227488 39.082543 
L 58.578923 38.542503 
L 58.930357 37.555509 
L 59.248322 35.973225 
L 59.499346 33.60208 
L 59.666696 29.999508 
L 59.750371 23.820567 
L 59.767106 17.494368 
L 59.783841 21.970209 
L 59.783841 21.970209 
L 59.934456 31.78667 
L 60.202215 35.527486 
L 60.58712 37.907616 
L 61.022229 39.327004 
L 61.457339 40.076345 
L 61.825508 40.331789 
L 62.126738 40.300331 
L 62.427967 40.031633 
L 62.745932 39.423498 
L 63.063897 38.30888 
L 63.348391 36.459173 
L 63.565946 33.457876 
L 63.683091 29.065553 
L 63.733296 18.185962 
L 63.783501 28.638655 
L 63.98432 35.08394 
L 64.302285 38.293802 
L 64.703924 40.269189 
L 65.139034 41.3985 
L 65.507203 41.822827 
L 65.774963 41.843746 
L 66.009253 41.628538 
L 66.260277 41.066132 
L 66.511302 39.924755 
L 66.728857 37.847816 
L 66.879471 34.198636 
L 66.946411 28.253404 
L 66.963146 15.420895 
L 66.979881 28.034386 
L 66.979881 28.034386 
L 67.147231 37.651122 
L 67.448461 41.853184 
L 67.88357 44.910187 
L 68.469294 47.462321 
L 69.155428 49.488593 
L 69.908502 51.048652 
L 70.678311 52.154221 
L 71.41465 52.845608 
L 72.100784 53.205218 
L 72.753449 53.303239 
L 73.372643 53.171981 
L 73.991837 52.805047 
L 74.611031 52.167079 
L 75.230225 51.190031 
L 75.815949 49.827292 
L 76.334734 48.032785 
L 76.753108 45.765587 
L 77.054338 42.918769 
L 77.255158 38.717815 
L 77.338832 32.979702 
L 77.355567 28.667392 
L 77.372302 28.886501 
L 77.372302 28.886501 
L 77.522917 39.916758 
L 77.790677 43.392693 
L 78.142111 45.232424 
L 78.527016 46.181033 
L 78.895185 46.576219 
L 79.229885 46.644919 
L 79.564584 46.488666 
L 79.949489 46.05158 
L 80.401333 45.169791 
L 80.869913 43.731831 
L 81.305022 41.642882 
L 81.656457 38.809923 
L 81.890746 35.058631 
L 82.007891 30.043037 
L 82.058096 20.089616 
L 82.091566 29.008171 
L 82.091566 29.008171 
L 82.275651 35.500641 
L 82.54341 37.926866 
L 82.84464 38.921594 
L 83.07893 39.117397 
L 83.263014 39.008311 
L 83.497304 38.542308 
L 83.765064 37.453232 
L 84.016088 35.480072 
L 84.200173 32.373839 
L 84.300583 27.657216 
L 84.334053 21.207545 
L 84.367523 25.8815 
L 84.367523 25.8815 
L 84.534873 33.594114 
L 84.819367 36.956169 
L 85.187537 38.819563 
L 85.555706 39.649901 
L 85.840201 39.844228 
L 86.074491 39.746079 
L 86.325515 39.364417 
L 86.61001 38.491935 
L 86.894505 36.842886 
L 87.128794 34.0196 
L 87.262674 29.841548 
L 87.312879 24.47479 
L 87.329614 9.680261 
L 87.329614 9.680261 
L 87.329614 9.680261 
L 87.463494 32.561996 
L 87.714518 36.570414 
L 88.065953 38.859089 
L 88.450857 40.039419 
L 88.785557 40.450105 
L 89.036582 40.452906 
L 89.270871 40.214881 
L 89.538631 39.603748 
L 89.823126 38.374882 
L 90.07415 36.297028 
L 90.258235 32.898256 
L 90.358645 26.532235 
L 90.37538 21.696041 
L 90.392115 23.333474 
L 90.392115 23.333474 
L 90.54273 33.959545 
L 90.810489 37.671556 
L 91.161924 39.739599 
L 91.530093 40.756463 
L 91.831323 41.060021 
L 92.048878 41.022156 
L 92.283167 40.724885 
L 92.550927 39.978459 
L 92.818687 38.545051 
L 93.052976 35.988688 
L 93.203591 31.764781 
L 93.270531 22.10941 
L 93.320736 29.901742 
L 93.504821 36.202045 
L 93.80605 39.323677 
L 94.17422 40.987557 
L 94.508919 41.607233 
L 94.743209 41.66192 
L 94.944029 41.457084 
L 95.178318 40.863475 
L 95.429343 39.593246 
L 95.663633 37.114255 
L 95.814248 32.973791 
L 95.881187 24.149072 
L 95.931392 30.909961 
L 96.115477 37.333016 
L 96.416707 40.451652 
L 96.751406 41.924247 
L 97.035901 42.378726 
L 97.219986 42.344378 
L 97.40407 42.024085 
L 97.621625 41.151306 
L 97.83918 39.30899 
L 98.00653 35.919286 
L 98.090205 30.205188 
L 98.106939 25.537625 
L 98.123674 26.804149 
L 98.123674 26.804149 
L 98.274289 37.629979 
L 98.542049 41.343077 
L 98.860013 43.037973 
L 99.094303 43.403745 
L 99.228183 43.301051 
L 99.395533 42.769735 
L 99.579617 41.338762 
L 99.730232 38.440398 
L 99.813907 33.245114 
L 99.847377 27.491231 
L 99.864112 32.615358 
L 99.864112 32.615358 
L 100.031462 40.95117 
L 100.299222 44.247499 
L 100.533511 45.13431 
L 100.617186 45.058681 
L 100.734331 44.407968 
L 100.851476 42.340603 
L 100.935151 35.780912 
L 100.951886 27.096238 
L 100.951886 27.096238 
L 100.951886 27.096238 
L 101.085765 45.225368 
L 101.386995 51.609337 
L 101.872309 57.088663 
L 102.541709 62.180923 
L 103.378457 66.861398 
L 104.298881 70.791033 
L 105.23604 73.867434 
L 106.089524 75.965461 
L 106.792393 77.160052 
L 107.311177 77.653471 
L 107.662612 77.726198 
L 107.947106 77.558175 
L 108.214866 77.113474 
L 108.482626 76.178277 
L 108.716915 74.45848 
L 108.884265 71.566 
L 108.984675 65.50243 
L 109.00141 61.040625 
L 109.018145 61.868909 
L 109.018145 61.868909 
L 109.16876 73.13196 
L 109.453254 77.637349 
L 109.888364 81.091252 
L 110.490823 84.135223 
L 111.243897 86.82332 
L 112.080646 89.009234 
L 112.883925 90.516282 
L 113.553324 91.343287 
L 114.072108 91.668785 
L 114.457012 91.675557 
L 114.791712 91.451569 
L 115.109677 90.935963 
L 115.410906 89.969664 
L 115.661931 88.400143 
L 115.862751 85.642795 
L 115.979895 80.857619 
L 116.0301 73.446693 
L 116.06357 80.604991 
L 116.06357 80.604991 
L 116.247655 87.538111 
L 116.56562 91.422678 
L 117.034199 94.487775 
L 117.670128 97.178429 
L 118.439937 99.491174 
L 119.310156 101.424191 
L 120.213845 102.909445 
L 121.084064 103.934719 
L 121.904077 104.572132 
L 122.657151 104.88382 
L 123.343286 104.934932 
L 124.012685 104.759534 
L 124.682084 104.344205 
L 125.368218 103.643364 
L 126.071087 102.597731 
L 126.807426 101.085478 
L 127.5605 99.001493 
L 128.313574 96.223727 
L 129.033178 92.696218 
L 129.719312 88.187366 
L 130.338506 82.606179 
L 130.874025 75.684052 
L 131.275665 67.566597 
L 131.509955 58.46762 
L 131.576894 50.823798 
L 131.593629 36.515684 
L 131.610364 50.264154 
L 131.610364 50.264154 
L 131.710774 55.012336 
L 131.744244 54.921507 
L 131.827919 53.248123 
L 131.911594 47.28414 
L 131.928329 42.259451 
L 131.945064 44.06304 
L 131.945064 44.06304 
L 132.095679 53.147978 
L 132.162619 53.445504 
L 132.212824 53.222053 
L 132.313233 51.551402 
L 132.413643 45.310659 
L 132.430378 40.561252 
L 132.447113 41.907692 
L 132.447113 41.907692 
L 132.597728 51.883641 
L 132.714873 52.775498 
L 132.748343 52.73429 
L 132.832018 52.084546 
L 132.949163 49.078699 
L 133.032838 39.072173 
L 133.083042 47.801138 
L 133.267127 52.39854 
L 133.334067 52.623266 
L 133.384272 52.489954 
L 133.484682 51.306726 
L 133.585092 47.427864 
L 133.635297 33.71854 
L 133.668767 46.19989 
L 133.668767 46.19989 
L 133.836116 52.321995 
L 133.936526 52.857045 
L 133.969996 52.768241 
L 134.053671 51.853584 
L 134.154081 47.939481 
L 134.204286 39.659206 
L 134.237756 47.484004 
L 134.237756 47.484004 
L 134.405106 53.201365 
L 134.455311 53.460329 
L 134.505516 53.303232 
L 134.58919 51.756435 
L 134.65613 46.97774 
L 134.672865 41.979251 
L 134.6896 44.193826 
L 134.6896 44.193826 
L 134.840215 54.191398 
L 134.89042 54.528689 
L 134.92389 54.34234 
L 134.92389 54.34234 
L 134.99083 52.309631 
L 135.0243 48.627131 
L 135.041035 36.645747 
L 135.05777 48.591661 
L 135.05777 48.591661 
L 135.19165 56.391631 
L 135.208385 56.195702 
L 135.25859 50.866972 
L 135.292059 56.17079 
L 135.492879 70.560014 
L 135.911254 83.45795 
L 136.530448 95.685776 
L 137.350462 107.450412 
L 138.35456 118.638832 
L 139.542744 129.389407 
L 140.634539 137.8 
L 140.634539 137.8 
" style="fill:none;stroke:#ff0000;stroke-linecap:square;"/>
   </g>
   <g id="line2d_4">
    <path clip-path="url(#p389679edc7)" d="M 27.06696 9.044124 
L 27.26778 19.234814 
L 27.518804 22.854148 
L 27.635949 23.243588 
L 27.669419 23.215078 
L 27.753094 22.816208 
L 27.870239 21.000797 
L 27.953914 16.705112 
L 27.987384 3.045979 
L 28.004119 13.919015 
L 28.004119 13.919015 
L 28.171469 23.696789 
L 28.422493 26.666877 
L 28.556373 26.975314 
L 28.589843 26.935811 
L 28.690253 26.492524 
L 28.824133 24.759477 
L 28.924543 20.969983 
L 28.974747 8.035398 
L 29.024952 20.902971 
L 29.225772 27.15442 
L 29.460062 28.838813 
L 29.527002 28.881649 
L 29.560472 28.835139 
L 29.677616 28.265239 
L 29.828231 26.042795 
L 29.928641 21.149064 
L 29.962111 10.452913 
L 29.995581 20.740991 
L 29.995581 20.740991 
L 30.179666 28.07208 
L 30.413955 30.063391 
L 30.49763 30.163775 
L 30.5311 30.126254 
L 30.63151 29.721626 
L 30.782125 27.938083 
L 30.89927 23.713875 
L 30.949475 11.384938 
L 30.99968 23.498653 
L 31.183764 29.369252 
L 31.418054 31.08056 
L 31.484994 31.121303 
L 31.518464 31.075113 
L 31.635609 30.524276 
L 31.786224 28.466657 
L 31.903368 23.041804 
L 31.936838 10.344739 
L 31.970308 22.806825 
L 31.970308 22.806825 
L 32.154393 29.9526 
L 32.388683 31.826626 
L 32.455623 31.897696 
L 32.505828 31.834887 
L 32.622973 31.258559 
L 32.773587 29.155548 
L 32.890732 23.563493 
L 32.924202 7.032709 
L 32.940937 21.09279 
L 32.940937 21.09279 
L 33.108287 30.088708 
L 33.342577 32.386231 
L 33.442986 32.540017 
L 33.476456 32.502803 
L 33.593601 31.993017 
L 33.744216 30.074465 
L 33.861361 25.505468 
L 33.911566 15.254832 
L 33.945036 24.608203 
L 33.945036 24.608203 
L 34.129121 31.282598 
L 34.36341 33.046739 
L 34.43035 33.090707 
L 34.46382 33.04622 
L 34.580965 32.507561 
L 34.73158 30.524521 
L 34.848725 25.692815 
L 34.898929 18.89875 
L 34.932399 25.529413 
L 34.932399 25.529413 
L 35.116484 31.850204 
L 35.350774 33.544384 
L 35.417714 33.571885 
L 35.451184 33.518852 
L 35.568329 32.945377 
L 35.718943 30.878025 
L 35.836088 25.642333 
L 35.869558 17.09638 
L 35.903028 24.750287 
L 35.903028 24.750287 
L 36.070378 31.860128 
L 36.304668 33.919351 
L 36.388342 34.012395 
L 36.421812 33.971732 
L 36.538957 33.448262 
L 36.689572 31.510224 
L 36.806717 26.930447 
L 36.856922 16.517884 
L 36.890392 25.997754 
L 36.890392 25.997754 
L 37.074477 32.651001 
L 37.292031 34.334608 
L 37.358971 34.40757 
L 37.409176 34.345037 
L 37.526321 33.770882 
L 37.676936 31.705155 
L 37.794081 26.51494 
L 37.827551 18.498819 
L 37.86102 25.459629 
L 37.86102 25.459629 
L 38.02837 32.633346 
L 38.26266 34.677212 
L 38.346335 34.760959 
L 38.379805 34.715966 
L 38.49695 34.173224 
L 38.647564 32.186514 
L 38.764709 27.40256 
L 38.814914 19.96563 
L 38.848384 27.049506 
L 38.848384 27.049506 
L 39.032469 33.415835 
L 39.250024 35.038104 
L 39.316964 35.093554 
L 39.350433 35.053806 
L 39.467578 34.530885 
L 39.618193 32.591 
L 39.735338 28.023914 
L 39.785543 17.12489 
L 39.819013 27.020146 
L 39.819013 27.020146 
L 40.003098 33.685344 
L 40.220652 35.340666 
L 40.287592 35.401142 
L 40.337797 35.327559 
L 40.454942 34.718525 
L 40.605557 32.554632 
L 40.705967 28.416693 
L 40.756172 15.51717 
L 40.789642 27.210128 
L 40.789642 27.210128 
L 40.973726 33.970171 
L 41.191281 35.628773 
L 41.258221 35.68764 
L 41.291691 35.648921 
L 41.408836 35.126679 
L 41.559451 33.180152 
L 41.676595 28.580567 
L 41.7268 18.368544 
L 41.76027 27.667618 
L 41.76027 27.667618 
L 41.944355 34.277062 
L 42.16191 35.905683 
L 42.22885 35.955545 
L 42.26232 35.911874 
L 42.379464 35.367609 
L 42.530079 33.360638 
L 42.647224 28.474801 
L 42.697429 21.963476 
L 42.730899 28.381474 
L 42.730899 28.381474 
L 42.914984 34.610294 
L 43.132538 36.173165 
L 43.199478 36.20583 
L 43.232948 36.152988 
L 43.350093 35.569125 
L 43.500708 33.454068 
L 43.617853 27.985846 
L 43.651323 15.665347 
L 43.684793 27.683377 
L 43.684793 27.683377 
L 43.868877 34.73427 
L 44.086432 36.400773 
L 44.153372 36.453463 
L 44.186842 36.410297 
L 44.303987 35.863053 
L 44.454602 33.833896 
L 44.571746 28.818734 
L 44.605216 22.17538 
L 44.638686 27.175541 
L 44.638686 27.175541 
L 44.806036 34.618798 
L 45.023591 36.577985 
L 45.107266 36.686704 
L 45.140736 36.648408 
L 45.241146 36.235254 
L 45.39176 34.459506 
L 45.508905 30.505906 
L 45.575845 22.578119 
L 45.609315 29.108242 
L 45.7934 35.345599 
L 46.010955 36.878242 
L 46.061159 36.908403 
L 46.111364 36.832435 
L 46.228509 36.199765 
L 46.379124 33.926482 
L 46.479534 29.32596 
L 46.513004 22.827316 
L 46.546474 27.600975 
L 46.546474 27.600975 
L 46.713824 35.080926 
L 46.931378 37.023641 
L 47.015053 37.119568 
L 47.048523 37.074734 
L 47.165668 36.511038 
L 47.316283 34.409457 
L 47.433428 28.951922 
L 47.466898 16.905936 
L 47.500368 28.6225 
L 47.500368 28.6225 
L 47.684452 35.668202 
L 47.902007 37.289554 
L 47.968947 37.318853 
L 48.002417 37.261392 
L 48.119562 36.642234 
L 48.270176 34.380853 
L 48.370586 29.799021 
L 48.404056 23.405066 
L 48.437526 28.011972 
L 48.437526 28.011972 
L 48.604876 35.518505 
L 48.822431 37.441258 
L 48.889371 37.53007 
L 48.939576 37.469415 
L 49.05672 36.865804 
L 49.207335 34.631935 
L 49.307745 30.143374 
L 49.35795 23.547095 
L 49.39142 30.020113 
L 49.39142 30.020113 
L 49.575505 36.229058 
L 49.793059 37.706036 
L 49.843264 37.715381 
L 49.876734 37.660228 
L 49.993879 37.041473 
L 50.144494 34.75025 
L 50.244904 30.001626 
L 50.278374 22.406461 
L 50.311844 28.787461 
L 50.311844 28.787461 
L 50.479194 35.984396 
L 50.696748 37.845261 
L 50.763688 37.912406 
L 50.797158 37.871651 
L 50.897568 37.431733 
L 51.048183 35.512909 
L 51.165328 30.871393 
L 51.215533 21.582569 
L 51.249002 30.103782 
L 51.249002 30.103782 
L 51.433087 36.596426 
L 51.650642 38.085261 
L 51.700847 38.089413 
L 51.734317 38.029155 
L 51.851462 37.378263 
L 52.002076 34.958296 
L 52.102486 29.531742 
L 52.135956 20.315648 
L 52.152691 27.806147 
L 52.152691 27.806147 
L 52.320041 36.250101 
L 52.537596 38.207585 
L 52.604536 38.283562 
L 52.654741 38.206582 
L 52.771885 37.532847 
L 52.9225 35.02332 
L 53.02291 29.033726 
L 53.05638 24.583129 
L 53.073115 28.923382 
L 53.073115 28.923382 
L 53.240465 36.54818 
L 53.45802 38.409933 
L 53.524959 38.460106 
L 53.558429 38.407519 
L 53.675574 37.77481 
L 53.826189 35.357954 
L 53.926599 29.866867 
L 53.960069 21.598368 
L 53.976804 28.363379 
L 53.976804 28.363379 
L 54.144154 36.677345 
L 54.361708 38.587827 
L 54.428648 38.641115 
L 54.462118 38.588775 
L 54.579263 37.949161 
L 54.729878 35.483629 
L 54.830288 29.662323 
L 54.863758 24.273498 
L 54.880493 29.127379 
L 54.880493 29.127379 
L 55.047842 36.941428 
L 55.265397 38.783146 
L 55.315602 38.826591 
L 55.365807 38.7493 
L 55.482952 38.047716 
L 55.633567 35.363157 
L 55.717241 30.57029 
L 55.750711 18.10648 
L 55.767446 28.348984 
L 55.767446 28.348984 
L 55.934796 37.060771 
L 56.152351 38.96126 
L 56.202556 39.007792 
L 56.252761 38.931119 
L 56.369906 38.219948 
L 56.503785 35.962012 
L 56.604195 30.325649 
L 56.637665 23.628801 
L 56.6544 29.291695 
L 56.6544 29.291695 
L 56.82175 37.343805 
L 57.039305 39.159831 
L 57.08951 39.186034 
L 57.12298 39.133524 
L 57.223389 38.611066 
L 57.357269 36.684849 
L 57.457679 32.563917 
L 57.507884 20.084828 
L 57.541354 31.388909 
L 57.541354 31.388909 
L 57.725439 38.03833 
L 57.926259 39.36981 
L 57.993198 39.312005 
L 58.110343 38.606528 
L 58.244223 36.289034 
L 58.344633 30.101915 
L 58.361368 25.447187 
L 58.378103 26.663373 
L 58.378103 26.663373 
L 58.528718 37.249057 
L 58.746272 39.492282 
L 58.813212 39.561761 
L 58.846682 39.507898 
L 58.947092 38.959782 
L 59.080972 36.894852 
L 59.181382 32.069144 
L 59.214852 23.384885 
L 59.248322 31.202376 
L 59.248322 31.202376 
L 59.415672 38.174571 
L 59.616491 39.742974 
L 59.666696 39.747556 
L 59.700166 39.673953 
L 59.817311 38.866932 
L 59.951191 36.169148 
L 60.034866 30.072712 
L 60.051601 23.693204 
L 60.068336 28.260196 
L 60.068336 28.260196 
L 60.21895 37.820246 
L 60.436505 39.928852 
L 60.48671 39.960549 
L 60.52018 39.902572 
L 60.62059 39.311061 
L 60.75447 37.022509 
L 60.85488 30.646435 
L 60.871615 25.316461 
L 60.88835 28.021129 
L 60.88835 28.021129 
L 61.038964 38.063668 
L 61.256519 40.153646 
L 61.306724 40.167546 
L 61.340194 40.093952 
L 61.457339 39.238693 
L 61.591219 36.229748 
L 61.658158 31.160271 
L 61.674893 26.401197 
L 61.691628 27.875399 
L 61.691628 27.875399 
L 61.842243 38.337759 
L 62.043063 40.360885 
L 62.093268 40.402541 
L 62.126738 40.343667 
L 62.227148 39.70642 
L 62.361028 37.117332 
L 62.444702 31.239648 
L 62.461437 25.760443 
L 62.478172 28.760602 
L 62.478172 28.760602 
L 62.628787 38.698263 
L 62.829607 40.627829 
L 62.863077 40.649127 
L 62.896547 40.597039 
L 62.996957 39.954602 
L 63.130837 37.228147 
L 63.214511 30.09816 
L 63.231246 22.314115 
L 63.231246 22.314115 
L 63.231246 22.314115 
L 63.365126 38.464431 
L 63.565946 40.85915 
L 63.616151 40.913487 
L 63.649621 40.851305 
L 63.750031 40.134273 
L 63.867176 37.648775 
L 63.95085 30.603699 
L 63.967585 22.04661 
L 63.967585 22.04661 
L 63.967585 22.04661 
L 64.101465 38.874624 
L 64.302285 41.184095 
L 64.335755 41.209533 
L 64.369225 41.149319 
L 64.469635 40.388592 
L 64.58678 37.605426 
L 64.653719 31.88579 
L 64.670454 23.091116 
L 64.687189 31.045734 
L 64.687189 31.045734 
L 64.837804 40.016702 
L 65.021889 41.542783 
L 65.088829 41.330282 
L 65.205974 39.756157 
L 65.306384 35.033051 
L 65.339854 25.725529 
L 65.373323 34.354247 
L 65.373323 34.354247 
L 65.540673 41.088736 
L 65.674553 41.923811 
L 65.708023 41.854174 
L 65.808433 40.883344 
L 65.908843 37.707047 
L 65.975783 27.41948 
L 66.025988 37.28711 
L 66.210072 42.133695 
L 66.277012 42.373659 
L 66.327217 42.21593 
L 66.427627 40.783309 
L 66.511302 36.763269 
L 66.544772 29.246463 
L 66.578242 35.626587 
L 66.578242 35.626587 
L 66.745592 42.459436 
L 66.829267 42.915705 
L 66.879471 42.706441 
L 66.979881 40.743782 
L 67.046821 35.756016 
L 67.063556 30.517576 
L 67.080291 33.135261 
L 67.080291 33.135261 
L 67.230906 42.970789 
L 67.314581 43.593672 
L 67.364786 43.31675 
L 67.448461 41.198659 
L 67.498666 36.601537 
L 67.515401 29.001111 
L 67.532136 35.495887 
L 67.532136 35.495887 
L 67.68275 44.262091 
L 67.71622 44.473609 
L 67.74969 44.368058 
L 67.74969 44.368058 
L 67.81663 42.835047 
L 67.866835 38.230164 
L 67.88357 28.148019 
L 67.900305 37.837681 
L 67.900305 37.837681 
L 68.05092 45.703043 
L 68.101125 44.650919 
L 68.15133 37.243099 
L 68.1848 43.074113 
L 68.1848 43.074113 
L 68.268475 47.679729 
L 68.301945 46.353599 
L 68.31868 42.837304 
L 68.335415 44.215637 
L 68.335415 44.215637 
L 68.502764 62.353023 
L 68.887669 77.346025 
L 69.456658 90.86973 
L 70.159527 102.405434 
L 70.929336 111.549747 
L 71.71588 118.389578 
L 72.468954 123.109401 
L 73.138353 126.01577 
L 73.707342 127.602303 
L 74.159187 128.296768 
L 74.510621 128.487161 
L 74.811851 128.399194 
L 75.129815 128.042611 
L 75.497985 127.265303 
L 75.933094 125.772548 
L 76.384939 123.385335 
L 76.803313 119.968514 
L 77.121278 115.506033 
L 77.288627 110.273157 
L 77.372302 101.141682 
L 77.422507 108.581021 
L 77.606592 113.071764 
L 77.840882 114.269816 
L 77.991497 114.339119 
L 78.008232 114.326504 
L 78.175581 114.028027 
L 78.460076 112.956006 
L 78.87845 110.394235 
L 79.41397 105.61055 
L 79.999694 98.291328 
L 80.585418 88.048743 
L 81.087467 75.308914 
L 81.455637 60.435886 
L 81.639722 45.628106 
L 81.790336 28.924342 
L 81.807071 35.172579 
L 81.874011 38.708649 
L 81.924216 37.471217 
L 81.991156 30.019937 
L 82.024626 36.106766 
L 82.108301 38.788306 
L 82.158506 38.355833 
L 82.225446 35.201078 
L 82.258916 28.346792 
L 82.292386 33.656389 
L 82.292386 33.656389 
L 82.443001 38.906966 
L 82.493205 38.421392 
L 82.57688 34.98796 
L 82.627085 27.208349 
L 82.660555 34.493068 
L 82.660555 34.493068 
L 82.827905 39.042033 
L 82.87811 38.724477 
L 82.961785 36.57266 
L 83.04546 27.806908 
L 83.07893 34.299964 
L 83.246279 39.142969 
L 83.263014 39.179917 
L 83.279749 39.167885 
L 83.279749 39.167885 
L 83.346689 38.610704 
L 83.447099 35.315863 
L 83.497304 27.146829 
L 83.547509 34.333912 
L 83.714859 39.208502 
L 83.748329 39.320763 
L 83.781799 39.265112 
L 83.781799 39.265112 
L 83.865474 38.323663 
L 83.965883 34.14488 
L 84.016088 27.498106 
L 84.049558 33.98947 
L 84.049558 33.98947 
L 84.216908 39.238796 
L 84.283848 39.459398 
L 84.317318 39.343965 
L 84.417728 37.926485 
L 84.518138 32.112552 
L 84.551608 27.80179 
L 84.568343 32.063337 
L 84.568343 32.063337 
L 84.735692 39.133736 
L 84.819367 39.604584 
L 84.869572 39.464838 
L 84.969982 38.083025 
L 85.070392 32.855565 
L 85.103862 23.62648 
L 85.120597 31.128523 
L 85.120597 31.128523 
L 85.287947 39.128375 
L 85.388357 39.742165 
L 85.438562 39.597909 
L 85.538971 38.269491 
L 85.639381 33.537009 
L 85.672851 23.87901 
L 85.706321 32.885583 
L 85.706321 32.885583 
L 85.873671 39.342685 
L 85.974081 39.875103 
L 86.007551 39.79781 
L 86.107961 38.715267 
L 86.20837 35.100443 
L 86.258575 25.15294 
L 86.30878 34.521442 
L 86.492865 39.750893 
L 86.559805 40.006331 
L 86.61001 39.877933 
L 86.71042 38.664287 
L 86.81083 34.634335 
L 86.861035 24.707685 
L 86.894505 33.762486 
L 86.894505 33.762486 
L 87.061854 39.614678 
L 87.162264 40.133003 
L 87.195734 40.062369 
L 87.296144 39.042102 
L 87.396554 35.726679 
L 87.463494 26.906642 
L 87.496964 34.116811 
L 87.664314 39.755497 
L 87.764723 40.256607 
L 87.798193 40.182447 
L 87.898603 39.154037 
L 87.999013 35.825074 
L 88.065953 27.202414 
L 88.099423 34.260744 
L 88.283508 40.042024 
L 88.367183 40.37793 
L 88.417388 40.220745 
L 88.517797 38.947394 
L 88.618207 34.719101 
L 88.668412 27.52148 
L 88.701882 34.418424 
L 88.701882 34.418424 
L 88.885967 40.168737 
L 88.969642 40.496426 
L 89.003112 40.417412 
L 89.103522 39.362841 
L 89.203931 35.923772 
L 89.254136 28.31135 
L 89.304341 34.764974 
L 89.488426 40.315596 
L 89.572101 40.610505 
L 89.605571 40.516125 
L 89.705981 39.389495 
L 89.806391 35.667548 
L 89.856596 23.061677 
L 89.906801 35.403024 
L 90.090885 40.492086 
L 90.157825 40.73109 
L 90.20803 40.58673 
L 90.30844 39.309271 
L 90.40885 34.93044 
L 90.44232 28.516187 
L 90.47579 33.178288 
L 90.47579 33.178288 
L 90.64314 40.242668 
L 90.743549 40.845966 
L 90.793754 40.713618 
L 90.894164 39.44576 
L 90.994574 35.030723 
L 91.028044 28.342 
L 91.061514 33.432044 
L 91.061514 33.432044 
L 91.228864 40.394312 
L 91.329274 40.96023 
L 91.362744 40.8858 
L 91.446418 40.073429 
L 91.546828 37.002255 
L 91.597033 31.566367 
L 91.613768 21.59585 
L 91.613768 21.59585 
L 91.613768 21.59585 
L 91.747648 39.537359 
L 91.898263 41.075074 
L 91.914998 41.061981 
L 91.981938 40.665697 
L 92.082348 38.632952 
L 92.166022 31.736842 
L 92.182757 21.84315 
L 92.182757 21.84315 
L 92.182757 21.84315 
L 92.316637 39.70355 
L 92.467252 41.189894 
L 92.483987 41.166776 
L 92.567662 40.497984 
L 92.668072 37.727727 
L 92.735012 28.253655 
L 92.785217 35.911607 
L 92.969301 41.153146 
L 93.019506 41.306731 
L 93.069711 41.138975 
L 93.170121 39.610692 
L 93.253796 35.316253 
L 93.287266 25.316579 
L 93.320736 34.736744 
L 93.320736 34.736744 
L 93.488086 41.058902 
L 93.555026 41.421836 
L 93.605231 41.299835 
L 93.70564 39.851038 
L 93.789315 35.725785 
L 93.822785 27.726861 
L 93.856255 34.677245 
L 93.856255 34.677245 
L 94.023605 41.202766 
L 94.090545 41.544802 
L 94.14075 41.389085 
L 94.24116 39.772931 
L 94.324835 34.772628 
L 94.358305 28.508296 
L 94.375039 33.896172 
L 94.375039 33.896172 
L 94.542389 41.3061 
L 94.609329 41.668252 
L 94.659534 41.505953 
L 94.759944 39.791255 
L 94.843619 34.014372 
L 94.860354 28.338747 
L 94.877089 31.714964 
L 94.877089 31.714964 
L 95.027704 41.144347 
L 95.111379 41.792993 
L 95.161583 41.649511 
L 95.261993 39.903787 
L 95.345668 33.593288 
L 95.362403 23.959143 
L 95.379138 32.931665 
L 95.379138 32.931665 
L 95.529753 41.394973 
L 95.613428 41.927286 
L 95.663633 41.685093 
L 95.764043 39.492282 
L 95.830983 33.571249 
L 95.847718 16.720186 
L 95.864452 33.48982 
L 95.864452 33.48982 
L 96.015067 41.619483 
L 96.082007 42.06502 
L 96.132212 41.878165 
L 96.215887 40.346522 
L 96.299562 33.870729 
L 96.316297 18.936889 
L 96.333032 33.727604 
L 96.333032 33.727604 
L 96.483647 41.833488 
L 96.550587 42.209702 
L 96.600792 41.932762 
L 96.701201 39.296881 
L 96.751406 34.325969 
L 96.768141 23.718824 
L 96.784876 33.831151 
L 96.784876 33.831151 
L 96.935491 42.049451 
L 96.985696 42.360821 
L 97.035901 42.158543 
L 97.119576 40.359461 
L 97.186516 34.76742 
L 97.203251 25.764437 
L 97.219986 33.980034 
L 97.219986 33.980034 
L 97.3706 42.277475 
L 97.420805 42.525168 
L 97.454275 42.382042 
L 97.454275 42.382042 
L 97.53795 40.653944 
L 97.60489 35.044888 
L 97.621625 25.493235 
L 97.63836 34.378284 
L 97.63836 34.378284 
L 97.788975 42.52445 
L 97.822445 42.696561 
L 97.855915 42.60036 
L 97.855915 42.60036 
L 97.93959 40.907188 
L 98.00653 34.97932 
L 98.023265 20.924696 
L 98.023265 20.924696 
L 98.023265 20.924696 
L 98.157144 42.394922 
L 98.224084 42.8801 
L 98.257554 42.670207 
L 98.341229 40.297232 
L 98.408169 30.67363 
L 98.441639 38.623986 
L 98.592254 43.085336 
L 98.642459 42.636294 
L 98.726134 38.94291 
L 98.759604 30.806232 
L 98.793074 38.016078 
L 98.793074 38.016078 
L 98.943688 43.303664 
L 98.993893 42.775692 
L 99.077568 38.063382 
L 99.111038 33.085961 
L 99.127773 37.730841 
L 99.127773 37.730841 
L 99.261653 43.541677 
L 99.278388 43.529365 
L 99.345328 42.266117 
L 99.412268 34.97731 
L 99.429003 33.304723 
L 99.429003 33.304723 
L 99.429003 33.304723 
L 99.562883 43.781509 
L 99.579617 43.81309 
L 99.579617 43.81309 
L 99.579617 43.81309 
L 99.629822 43.127607 
L 99.696762 38.453769 
L 99.713497 33.033392 
L 99.730232 36.030428 
L 99.730232 36.030428 
L 99.864112 44.111287 
L 99.914317 43.308587 
L 99.981257 36.447921 
L 99.997992 34.06615 
L 99.997992 34.06615 
L 99.997992 34.06615 
L 100.115137 44.433118 
L 100.131872 44.421868 
L 100.182077 43.194159 
L 100.249017 35.522341 
L 100.282487 42.143083 
L 100.366161 44.816532 
L 100.399631 44.198649 
L 100.449836 39.782879 
L 100.466571 28.698829 
L 100.483306 39.453575 
L 100.483306 39.453575 
L 100.566981 45.247064 
L 100.617186 44.234217 
L 100.650656 40.670745 
L 100.667391 28.891743 
L 100.684126 40.453968 
L 100.684126 40.453968 
L 100.767801 45.752856 
L 100.801271 44.632054 
L 100.851476 38.99555 
L 100.868211 43.246597 
L 100.868211 43.246597 
L 100.918416 46.359847 
L 100.968621 44.070106 
L 100.985356 39.752937 
L 101.002091 40.983596 
L 101.002091 40.983596 
L 101.052296 47.055532 
L 101.1025 43.456195 
L 101.119235 39.300028 
L 101.119235 39.300028 
L 101.119235 39.300028 
L 101.253115 49.351227 
L 101.286585 46.813536 
L 101.286585 46.813536 
L 101.286585 46.813536 
L 101.30332 51.238783 
L 101.30332 51.238783 
L 101.30332 51.238783 
L 101.320055 44.468552 
L 101.320055 44.468552 
L 101.320055 44.468552 
L 101.47067 83.522837 
L 101.855574 116.765928 
L 102.222338 137.8 
M 131.218083 137.8 
L 131.42628 92.280082 
L 131.643834 46.207936 
L 131.677304 55.220141 
L 131.760979 51.123132 
L 131.777714 50.553481 
L 131.811184 54.4801 
L 131.827919 52.745548 
L 131.844654 39.046383 
L 131.861389 52.357246 
L 131.861389 52.357246 
L 131.878124 54.102644 
L 131.894859 53.937326 
L 131.894859 53.937326 
L 131.928329 41.012274 
L 132.028739 50.372478 
L 132.062209 53.673397 
L 132.095679 50.732184 
L 132.112414 41.832668 
L 132.112414 41.832668 
L 132.112414 41.832668 
L 132.162619 53.440307 
L 132.229559 50.928085 
L 132.263029 53.268286 
L 132.279764 52.73317 
L 132.279764 52.73317 
L 132.313233 43.38932 
L 132.346703 52.204474 
L 132.346703 52.204474 
L 132.363438 53.05256 
L 132.380173 52.928061 
L 132.380173 52.928061 
L 132.430378 45.86551 
L 132.463848 52.550122 
L 132.463848 52.550122 
L 132.480583 52.979648 
L 132.480583 52.979648 
L 132.480583 52.979648 
L 132.514053 51.002671 
L 132.530788 46.430163 
L 132.547523 47.915849 
L 132.547523 47.915849 
L 132.597728 52.857936 
L 132.631198 50.589722 
L 132.647933 45.238022 
L 132.664668 48.270392 
L 132.664668 48.270392 
L 132.714873 52.7695 
L 132.748343 50.576338 
L 132.765078 45.676392 
L 132.781813 47.843914 
L 132.781813 47.843914 
L 132.832018 52.714355 
L 132.865488 50.842917 
L 132.865488 50.842917 
L 132.898958 46.649432 
L 132.915693 50.724189 
L 132.915693 50.724189 
L 132.949163 52.662362 
L 132.982633 51.233724 
L 133.016103 43.956474 
L 133.032838 50.066922 
L 133.032838 50.066922 
L 133.066307 52.581025 
L 133.099777 51.633102 
L 133.099777 51.633102 
L 133.133247 37.361517 
L 133.166717 51.499878 
L 133.166717 51.499878 
L 133.200187 52.587498 
L 133.216922 51.97813 
L 133.216922 51.97813 
L 133.250392 45.255808 
L 133.283862 50.996648 
L 133.283862 50.996648 
L 133.317332 52.622052 
L 133.334067 52.24508 
L 133.334067 52.24508 
L 133.384272 45.626481 
L 133.417742 52.037929 
L 133.417742 52.037929 
L 133.434477 52.614023 
L 133.451212 52.435012 
L 133.451212 52.435012 
L 133.484682 48.81409 
L 133.501417 41.756374 
L 133.501417 41.756374 
L 133.501417 41.756374 
L 133.551622 52.587323 
L 133.601827 49.537658 
L 133.618562 36.777997 
L 133.635297 49.299677 
L 133.635297 49.299677 
L 133.685502 52.651613 
L 133.718972 49.885215 
L 133.735707 41.189781 
L 133.752442 49.119402 
L 133.752442 49.119402 
L 133.802646 52.714966 
L 133.836116 49.867079 
L 133.852851 39.2653 
L 133.869586 49.439837 
L 133.869586 49.439837 
L 133.919791 52.745166 
L 133.936526 51.841062 
L 133.936526 51.841062 
L 133.969996 41.972947 
L 133.986731 50.259343 
L 133.986731 50.259343 
L 134.020201 52.910853 
L 134.053671 51.392646 
L 134.053671 51.392646 
L 134.087141 47.307306 
L 134.103876 51.367915 
L 134.103876 51.367915 
L 134.137346 53.018893 
L 134.154081 52.33209 
L 134.154081 52.33209 
L 134.187551 34.658932 
L 134.204286 50.315733 
L 134.204286 50.315733 
L 134.237756 53.14351 
L 134.271226 51.172489 
L 134.287961 45.164006 
L 134.304696 49.514062 
L 134.304696 49.514062 
L 134.338166 53.239447 
L 134.371636 51.524349 
L 134.371636 51.524349 
L 134.388371 45.974366 
L 134.405106 49.622628 
L 134.405106 49.622628 
L 134.438576 53.409765 
L 134.472046 51.251633 
L 134.488781 41.236699 
L 134.505516 50.830936 
L 134.505516 50.830936 
L 134.538985 53.601485 
L 134.55572 52.799771 
L 134.55572 52.799771 
L 134.58919 47.919992 
L 134.605925 52.502114 
L 134.605925 52.502114 
L 134.62266 53.725687 
L 134.639395 53.461961 
L 134.639395 53.461961 
L 134.672865 43.490415 
L 134.6896 52.169056 
L 134.6896 52.169056 
L 134.706335 53.843971 
L 134.72307 53.765797 
L 134.72307 53.765797 
L 134.75654 44.164397 
L 134.773275 52.601416 
L 134.773275 52.601416 
L 134.79001 54.151705 
L 134.806745 53.788144 
L 134.806745 53.788144 
L 134.840215 49.549657 
L 134.85695 53.743093 
L 134.85695 53.743093 
L 134.873685 54.462332 
L 134.873685 54.462332 
L 134.873685 54.462332 
L 134.89042 52.954791 
L 134.907155 38.783269 
L 134.907155 38.783269 
L 134.907155 38.783269 
L 135.007565 55.082818 
L 135.0243 53.502034 
L 135.041035 48.347396 
L 135.041035 48.347396 
L 135.041035 48.347396 
L 135.12471 55.792907 
L 135.15818 54.703834 
L 135.174915 56.144064 
L 135.19165 45.642235 
L 135.19165 45.642235 
L 135.19165 45.642235 
L 135.325529 60.418013 
L 135.495973 137.8 
L 135.495973 137.8 
" style="fill:none;stroke:#00bfbf;stroke-linecap:square;"/>
   </g>
   <g id="patch_3">
    <path d="M 27 13.68 
L 194.4 13.68 
" style="fill:none;stroke:#000000;stroke-linecap:square;stroke-linejoin:miter;"/>
   </g>
   <g id="patch_4">
    <path d="M 194.4 119.7 
L 194.4 13.68 
" style="fill:none;stroke:#000000;stroke-linecap:square;stroke-linejoin:miter;"/>
   </g>
   <g id="patch_5">
    <path d="M 27 119.7 
L 194.4 119.7 
" style="fill:none;stroke:#000000;stroke-linecap:square;stroke-linejoin:miter;"/>
   </g>
   <g id="patch_6">
    <path d="M 27 119.7 
L 27 13.68 
" style="fill:none;stroke:#000000;stroke-linecap:square;stroke-linejoin:miter;"/>
   </g>
   <g id="matplotlib.axis_1">
    <g id="xtick_1">
     <g id="line2d_5">
      <path clip-path="url(#p389679edc7)" d="M 27 119.7 
L 27 13.68 
" style="fill:none;opacity:0.3;stroke:#808080;stroke-dasharray:1.000000,3.000000;stroke-dashoffset:0.0;stroke-width:0.5;"/>
     </g>
     <g id="line2d_6">
      <defs>
       <path d="M 0 0 
L 0 -4 
" id="m68a655780a" style="stroke:#000000;stroke-width:0.5;"/>
      </defs>
      <g>
       <use style="stroke:#000000;stroke-width:0.5;" x="27.0" xlink:href="#m68a655780a" y="119.7"/>
      </g>
     </g>
     <g id="line2d_7">
      <defs>
       <path d="M 0 0 
L 0 4 
" id="mdd53e03884" style="stroke:#000000;stroke-width:0.5;"/>
      </defs>
      <g>
       <use style="stroke:#000000;stroke-width:0.5;" x="27.0" xlink:href="#mdd53e03884" y="13.68"/>
      </g>
     </g>
     <g id="text_1">
      <!-- 0.0 -->
      <defs>
       <path d="M 31.78125 3.421875 
Q 39.265625 3.421875 42.96875 11.625 
Q 46.6875 19.828125 46.6875 36.375 
Q 46.6875 52.984375 42.96875 61.1875 
Q 39.265625 69.390625 31.78125 69.390625 
Q 24.3125 69.390625 20.59375 61.1875 
Q 16.890625 52.984375 16.890625 36.375 
Q 16.890625 19.828125 20.59375 11.625 
Q 24.3125 3.421875 31.78125 3.421875 
M 31.78125 -1.421875 
Q 19.921875 -1.421875 13.25 8.53125 
Q 6.59375 18.5 6.59375 36.375 
Q 6.59375 54.296875 13.25 64.25 
Q 19.921875 74.21875 31.78125 74.21875 
Q 43.703125 74.21875 50.34375 64.25 
Q 56.984375 54.296875 56.984375 36.375 
Q 56.984375 18.5 50.34375 8.53125 
Q 43.703125 -1.421875 31.78125 -1.421875 
" id="BitstreamVeraSerif-Roman-30"/>
       <path d="M 9.421875 5.078125 
Q 9.421875 7.8125 11.28125 9.71875 
Q 13.140625 11.625 15.921875 11.625 
Q 18.609375 11.625 20.5 9.71875 
Q 22.40625 7.8125 22.40625 5.078125 
Q 22.40625 2.390625 20.5 0.484375 
Q 18.609375 -1.421875 15.921875 -1.421875 
Q 13.140625 -1.421875 11.28125 0.453125 
Q 9.421875 2.34375 9.421875 5.078125 
" id="BitstreamVeraSerif-Roman-2e"/>
      </defs>
      <g transform="translate(20.63875 129.77875)scale(0.08 -0.08)">
       <use xlink:href="#BitstreamVeraSerif-Roman-30"/>
       <use x="63.623046875" xlink:href="#BitstreamVeraSerif-Roman-2e"/>
       <use x="95.41015625" xlink:href="#BitstreamVeraSerif-Roman-30"/>
      </g>
     </g>
    </g>
    <g id="xtick_2">
     <g id="line2d_8">
      <path clip-path="url(#p389679edc7)" d="M 60.48 119.7 
L 60.48 13.68 
" style="fill:none;opacity:0.3;stroke:#808080;stroke-dasharray:1.000000,3.000000;stroke-dashoffset:0.0;stroke-width:0.5;"/>
     </g>
     <g id="line2d_9">
      <g>
       <use style="stroke:#000000;stroke-width:0.5;" x="60.48" xlink:href="#m68a655780a" y="119.7"/>
      </g>
     </g>
     <g id="line2d_10">
      <g>
       <use style="stroke:#000000;stroke-width:0.5;" x="60.48" xlink:href="#mdd53e03884" y="13.68"/>
      </g>
     </g>
     <g id="text_2">
      <!-- 0.5 -->
      <defs>
       <path d="M 50.296875 72.90625 
L 50.296875 64.890625 
L 16.890625 64.890625 
L 16.890625 44 
Q 19.4375 45.75 22.828125 46.625 
Q 26.21875 47.515625 30.421875 47.515625 
Q 42.234375 47.515625 49.0625 40.96875 
Q 55.90625 34.421875 55.90625 23.09375 
Q 55.90625 11.53125 49 5.046875 
Q 42.09375 -1.421875 29.59375 -1.421875 
Q 24.5625 -1.421875 19.28125 -0.1875 
Q 14.015625 1.03125 8.5 3.515625 
L 8.5 17.671875 
L 14.015625 17.671875 
Q 14.453125 10.75 18.421875 7.078125 
Q 22.40625 3.421875 29.59375 3.421875 
Q 37.3125 3.421875 41.453125 8.5 
Q 45.609375 13.578125 45.609375 23.09375 
Q 45.609375 32.5625 41.484375 37.609375 
Q 37.359375 42.671875 29.59375 42.671875 
Q 25.203125 42.671875 21.84375 41.109375 
Q 18.5 39.546875 15.921875 36.28125 
L 11.71875 36.28125 
L 11.71875 72.90625 
z
" id="BitstreamVeraSerif-Roman-35"/>
      </defs>
      <g transform="translate(54.11875 129.77875)scale(0.08 -0.08)">
       <use xlink:href="#BitstreamVeraSerif-Roman-30"/>
       <use x="63.623046875" xlink:href="#BitstreamVeraSerif-Roman-2e"/>
       <use x="95.41015625" xlink:href="#BitstreamVeraSerif-Roman-35"/>
      </g>
     </g>
    </g>
    <g id="xtick_3">
     <g id="line2d_11">
      <path clip-path="url(#p389679edc7)" d="M 93.96 119.7 
L 93.96 13.68 
" style="fill:none;opacity:0.3;stroke:#808080;stroke-dasharray:1.000000,3.000000;stroke-dashoffset:0.0;stroke-width:0.5;"/>
     </g>
     <g id="line2d_12">
      <g>
       <use style="stroke:#000000;stroke-width:0.5;" x="93.96" xlink:href="#m68a655780a" y="119.7"/>
      </g>
     </g>
     <g id="line2d_13">
      <g>
       <use style="stroke:#000000;stroke-width:0.5;" x="93.96" xlink:href="#mdd53e03884" y="13.68"/>
      </g>
     </g>
     <g id="text_3">
      <!-- 1.0 -->
      <defs>
       <path d="M 14.203125 0 
L 14.203125 5.171875 
L 26.90625 5.171875 
L 26.90625 65.828125 
L 12.203125 56.296875 
L 12.203125 62.703125 
L 29.984375 74.21875 
L 36.71875 74.21875 
L 36.71875 5.171875 
L 49.421875 5.171875 
L 49.421875 0 
z
" id="BitstreamVeraSerif-Roman-31"/>
      </defs>
      <g transform="translate(87.59875 129.77875)scale(0.08 -0.08)">
       <use xlink:href="#BitstreamVeraSerif-Roman-31"/>
       <use x="63.623046875" xlink:href="#BitstreamVeraSerif-Roman-2e"/>
       <use x="95.41015625" xlink:href="#BitstreamVeraSerif-Roman-30"/>
      </g>
     </g>
    </g>
    <g id="xtick_4">
     <g id="line2d_14">
      <path clip-path="url(#p389679edc7)" d="M 127.44 119.7 
L 127.44 13.68 
" style="fill:none;opacity:0.3;stroke:#808080;stroke-dasharray:1.000000,3.000000;stroke-dashoffset:0.0;stroke-width:0.5;"/>
     </g>
     <g id="line2d_15">
      <g>
       <use style="stroke:#000000;stroke-width:0.5;" x="127.44" xlink:href="#m68a655780a" y="119.7"/>
      </g>
     </g>
     <g id="line2d_16">
      <g>
       <use style="stroke:#000000;stroke-width:0.5;" x="127.44" xlink:href="#mdd53e03884" y="13.68"/>
      </g>
     </g>
     <g id="text_4">
      <!-- 1.5 -->
      <g transform="translate(121.07875 129.77875)scale(0.08 -0.08)">
       <use xlink:href="#BitstreamVeraSerif-Roman-31"/>
       <use x="63.623046875" xlink:href="#BitstreamVeraSerif-Roman-2e"/>
       <use x="95.41015625" xlink:href="#BitstreamVeraSerif-Roman-35"/>
      </g>
     </g>
    </g>
    <g id="xtick_5">
     <g id="line2d_17">
      <path clip-path="url(#p389679edc7)" d="M 160.92 119.7 
L 160.92 13.68 
" style="fill:none;opacity:0.3;stroke:#808080;stroke-dasharray:1.000000,3.000000;stroke-dashoffset:0.0;stroke-width:0.5;"/>
     </g>
     <g id="line2d_18">
      <g>
       <use style="stroke:#000000;stroke-width:0.5;" x="160.92" xlink:href="#m68a655780a" y="119.7"/>
      </g>
     </g>
     <g id="line2d_19">
      <g>
       <use style="stroke:#000000;stroke-width:0.5;" x="160.92" xlink:href="#mdd53e03884" y="13.68"/>
      </g>
     </g>
     <g id="text_5">
      <!-- 2.0 -->
      <defs>
       <path d="M 12.796875 55.515625 
L 7.328125 55.515625 
L 7.328125 68.5 
Q 12.546875 71.296875 17.84375 72.75 
Q 23.140625 74.21875 28.21875 74.21875 
Q 39.59375 74.21875 46.1875 68.703125 
Q 52.78125 63.1875 52.78125 53.71875 
Q 52.78125 43.015625 37.84375 28.125 
Q 36.671875 27 36.078125 26.421875 
L 17.671875 8.015625 
L 48.09375 8.015625 
L 48.09375 17 
L 53.8125 17 
L 53.8125 0 
L 6.78125 0 
L 6.78125 5.328125 
L 28.90625 27.390625 
Q 36.234375 34.71875 39.359375 40.84375 
Q 42.484375 46.96875 42.484375 53.71875 
Q 42.484375 61.078125 38.640625 65.234375 
Q 34.8125 69.390625 28.078125 69.390625 
Q 21.09375 69.390625 17.28125 65.921875 
Q 13.484375 62.453125 12.796875 55.515625 
" id="BitstreamVeraSerif-Roman-32"/>
      </defs>
      <g transform="translate(154.55875 129.77875)scale(0.08 -0.08)">
       <use xlink:href="#BitstreamVeraSerif-Roman-32"/>
       <use x="63.623046875" xlink:href="#BitstreamVeraSerif-Roman-2e"/>
       <use x="95.41015625" xlink:href="#BitstreamVeraSerif-Roman-30"/>
      </g>
     </g>
    </g>
    <g id="xtick_6">
     <g id="line2d_20">
      <path clip-path="url(#p389679edc7)" d="M 194.4 119.7 
L 194.4 13.68 
" style="fill:none;opacity:0.3;stroke:#808080;stroke-dasharray:1.000000,3.000000;stroke-dashoffset:0.0;stroke-width:0.5;"/>
     </g>
     <g id="line2d_21">
      <g>
       <use style="stroke:#000000;stroke-width:0.5;" x="194.4" xlink:href="#m68a655780a" y="119.7"/>
      </g>
     </g>
     <g id="line2d_22">
      <g>
       <use style="stroke:#000000;stroke-width:0.5;" x="194.4" xlink:href="#mdd53e03884" y="13.68"/>
      </g>
     </g>
     <g id="text_6">
      <!-- 2.5 -->
      <g transform="translate(188.03875 129.77875)scale(0.08 -0.08)">
       <use xlink:href="#BitstreamVeraSerif-Roman-32"/>
       <use x="63.623046875" xlink:href="#BitstreamVeraSerif-Roman-2e"/>
       <use x="95.41015625" xlink:href="#BitstreamVeraSerif-Roman-35"/>
      </g>
     </g>
    </g>
    <g id="text_7">
     <!-- $\Omega$ -->
     <defs>
      <path d="M 7.71875 0 
L 4.390625 16.609375 
L 7.328125 16.609375 
Q 7.859375 13.71875 8.296875 11.5 
Q 8.734375 9.28125 9.4375 8.375 
Q 10.15625 7.46875 11.71875 7.171875 
Q 13.28125 6.890625 16.890625 6.890625 
L 23 6.890625 
Q 21.53125 12.546875 15.6875 21.65625 
Q 9.859375 30.765625 7.734375 34.890625 
Q 5.609375 39.015625 5.609375 45.515625 
Q 5.609375 53.078125 10.09375 58.765625 
Q 14.59375 64.453125 21.703125 67.484375 
Q 28.8125 70.515625 36.078125 70.515625 
Q 43.3125 70.515625 50.40625 67.484375 
Q 57.515625 64.453125 62 58.71875 
Q 66.5 52.984375 66.5 45.515625 
Q 66.5 40.4375 64.640625 35.9375 
Q 62.796875 31.453125 59.90625 26.953125 
Q 57.03125 22.46875 53.6875 16.9375 
Q 50.34375 11.421875 49.125 6.890625 
L 55.171875 6.890625 
Q 58.84375 6.890625 60.453125 7.171875 
Q 62.0625 7.46875 62.734375 8.375 
Q 63.421875 9.28125 63.84375 11.5 
Q 64.265625 13.71875 64.796875 16.609375 
L 67.671875 16.609375 
L 64.40625 0 
L 46.6875 0 
Q 45.703125 0 45.703125 1.3125 
Q 45.703125 6.390625 46.9375 11.265625 
Q 48.1875 16.15625 50.625 23.09375 
Q 53.078125 30.03125 54.4375 35.328125 
Q 55.8125 40.625 55.8125 45.515625 
Q 55.8125 51.515625 53.46875 56.640625 
Q 51.125 61.765625 46.625 64.84375 
Q 42.140625 67.921875 36.078125 67.921875 
Q 26.953125 67.921875 21.625 61.40625 
Q 16.3125 54.890625 16.3125 45.515625 
Q 16.359375 40.375 17.53125 35.828125 
Q 18.703125 31.296875 21.3125 23.71875 
Q 23.921875 16.15625 25.171875 11.265625 
Q 26.421875 6.390625 26.421875 1.3125 
Q 26.421875 0 25.390625 0 
z
" id="Cmr10-ad"/>
     </defs>
     <g transform="translate(107.78 142.52125)scale(0.08 -0.08)">
      <use transform="translate(0.0 0.484375)" xlink:href="#Cmr10-ad"/>
     </g>
    </g>
   </g>
   <g id="matplotlib.axis_2">
    <g id="ytick_1">
     <g id="line2d_23">
      <path clip-path="url(#p389679edc7)" d="M 27 119.7 
L 194.4 119.7 
" style="fill:none;opacity:0.3;stroke:#808080;stroke-dasharray:1.000000,3.000000;stroke-dashoffset:0.0;stroke-width:0.5;"/>
     </g>
     <g id="line2d_24">
      <defs>
       <path d="M 0 0 
L 4 0 
" id="m3df398ed4c" style="stroke:#000000;stroke-width:0.5;"/>
      </defs>
      <g>
       <use style="stroke:#000000;stroke-width:0.5;" x="27.0" xlink:href="#m3df398ed4c" y="119.7"/>
      </g>
     </g>
     <g id="line2d_25">
      <defs>
       <path d="M 0 0 
L -4 0 
" id="md19ec9b503" style="stroke:#000000;stroke-width:0.5;"/>
      </defs>
      <g>
       <use style="stroke:#000000;stroke-width:0.5;" x="194.4" xlink:href="#md19ec9b503" y="119.7"/>
      </g>
     </g>
     <g id="text_8">
      <!-- $\mathdefault{10^{-9}}$ -->
      <defs>
       <path d="M 46.78125 32.671875 
Q 43.5 29 39.25 27.1875 
Q 35.015625 25.390625 29.6875 25.390625 
Q 18.84375 25.390625 12.5625 31.9375 
Q 6.296875 38.484375 6.296875 49.8125 
Q 6.296875 60.890625 13.109375 67.546875 
Q 19.921875 74.21875 31.296875 74.21875 
Q 43.65625 74.21875 50.265625 65.015625 
Q 56.890625 55.8125 56.890625 38.71875 
Q 56.890625 19.578125 49.015625 9.078125 
Q 41.15625 -1.421875 26.90625 -1.421875 
Q 23.046875 -1.421875 18.796875 -0.6875 
Q 14.546875 0.046875 10.109375 1.515625 
L 10.109375 13.625 
L 15.578125 13.625 
Q 16.21875 8.6875 19.390625 6.046875 
Q 22.5625 3.421875 27.875 3.421875 
Q 37.359375 3.421875 41.984375 10.5625 
Q 46.625 17.71875 46.78125 32.671875 
M 30.90625 69.390625 
Q 23.96875 69.390625 20.28125 64.328125 
Q 16.609375 59.28125 16.609375 49.8125 
Q 16.609375 40.328125 20.28125 35.25 
Q 23.96875 30.171875 30.90625 30.171875 
Q 37.84375 30.171875 41.53125 35.078125 
Q 45.21875 39.984375 45.21875 49.21875 
Q 45.21875 58.9375 41.5 64.15625 
Q 37.796875 69.390625 30.90625 69.390625 
" id="BitstreamVeraSerif-Roman-39"/>
       <path d="M 4.390625 30.609375 
L 29.390625 30.609375 
L 29.390625 23 
L 4.390625 23 
z
" id="BitstreamVeraSerif-Roman-2d"/>
      </defs>
      <g transform="translate(6.28 121.99625)scale(0.08 -0.08)">
       <use transform="translate(0.0 0.2015625)" xlink:href="#BitstreamVeraSerif-Roman-31"/>
       <use transform="translate(63.623046875 0.2015625)" xlink:href="#BitstreamVeraSerif-Roman-30"/>
       <use transform="translate(132.478046875 45.046875)scale(0.7)" xlink:href="#BitstreamVeraSerif-Roman-2d"/>
       <use transform="translate(156.130390625 45.046875)scale(0.7)" xlink:href="#BitstreamVeraSerif-Roman-39"/>
      </g>
     </g>
    </g>
    <g id="ytick_2">
     <g id="line2d_26">
      <path clip-path="url(#p389679edc7)" d="M 27 93.195 
L 194.4 93.195 
" style="fill:none;opacity:0.3;stroke:#808080;stroke-dasharray:1.000000,3.000000;stroke-dashoffset:0.0;stroke-width:0.5;"/>
     </g>
     <g id="line2d_27">
      <g>
       <use style="stroke:#000000;stroke-width:0.5;" x="27.0" xlink:href="#m3df398ed4c" y="93.195"/>
      </g>
     </g>
     <g id="line2d_28">
      <g>
       <use style="stroke:#000000;stroke-width:0.5;" x="194.4" xlink:href="#md19ec9b503" y="93.195"/>
      </g>
     </g>
     <g id="text_9">
      <!-- $\mathdefault{10^{-6}}$ -->
      <defs>
       <path d="M 32.71875 3.421875 
Q 39.59375 3.421875 43.296875 8.46875 
Q 47.015625 13.53125 47.015625 23 
Q 47.015625 32.46875 43.296875 37.515625 
Q 39.59375 42.578125 32.71875 42.578125 
Q 25.734375 42.578125 22.0625 37.6875 
Q 18.40625 32.8125 18.40625 23.578125 
Q 18.40625 13.875 22.109375 8.640625 
Q 25.828125 3.421875 32.71875 3.421875 
M 16.796875 40.140625 
Q 20.125 43.796875 24.3125 45.59375 
Q 28.515625 47.40625 33.796875 47.40625 
Q 44.671875 47.40625 51 40.859375 
Q 57.328125 34.328125 57.328125 23 
Q 57.328125 11.921875 50.515625 5.25 
Q 43.703125 -1.421875 32.328125 -1.421875 
Q 19.96875 -1.421875 13.328125 7.78125 
Q 6.6875 17 6.6875 34.078125 
Q 6.6875 53.21875 14.546875 63.71875 
Q 22.40625 74.21875 36.71875 74.21875 
Q 40.578125 74.21875 44.828125 73.484375 
Q 49.078125 72.75 53.515625 71.296875 
L 53.515625 59.28125 
L 48 59.28125 
Q 47.40625 64.203125 44.234375 66.796875 
Q 41.0625 69.390625 35.6875 69.390625 
Q 26.21875 69.390625 21.578125 62.203125 
Q 16.9375 55.03125 16.796875 40.140625 
" id="BitstreamVeraSerif-Roman-36"/>
      </defs>
      <g transform="translate(6.28 95.49125)scale(0.08 -0.08)">
       <use transform="translate(0.0 0.2015625)" xlink:href="#BitstreamVeraSerif-Roman-31"/>
       <use transform="translate(63.623046875 0.2015625)" xlink:href="#BitstreamVeraSerif-Roman-30"/>
       <use transform="translate(132.478046875 45.046875)scale(0.7)" xlink:href="#BitstreamVeraSerif-Roman-2d"/>
       <use transform="translate(156.130390625 45.046875)scale(0.7)" xlink:href="#BitstreamVeraSerif-Roman-36"/>
      </g>
     </g>
    </g>
    <g id="ytick_3">
     <g id="line2d_29">
      <path clip-path="url(#p389679edc7)" d="M 27 66.69 
L 194.4 66.69 
" style="fill:none;opacity:0.3;stroke:#808080;stroke-dasharray:1.000000,3.000000;stroke-dashoffset:0.0;stroke-width:0.5;"/>
     </g>
     <g id="line2d_30">
      <g>
       <use style="stroke:#000000;stroke-width:0.5;" x="27.0" xlink:href="#m3df398ed4c" y="66.69"/>
      </g>
     </g>
     <g id="line2d_31">
      <g>
       <use style="stroke:#000000;stroke-width:0.5;" x="194.4" xlink:href="#md19ec9b503" y="66.69"/>
      </g>
     </g>
     <g id="text_10">
      <!-- $\mathdefault{10^{-3}}$ -->
      <defs>
       <path d="M 9.71875 69.828125 
Q 15.4375 71.96875 20.671875 73.09375 
Q 25.921875 74.21875 30.515625 74.21875 
Q 41.21875 74.21875 47.21875 69.59375 
Q 53.21875 64.984375 53.21875 56.78125 
Q 53.21875 50.203125 49.0625 45.78125 
Q 44.921875 41.359375 37.3125 39.796875 
Q 46.296875 38.53125 51.25 33.28125 
Q 56.203125 28.03125 56.203125 19.671875 
Q 56.203125 9.46875 49.34375 4.015625 
Q 42.484375 -1.421875 29.59375 -1.421875 
Q 23.875 -1.421875 18.421875 -0.1875 
Q 12.984375 1.03125 7.625 3.515625 
L 7.625 17.671875 
L 13.09375 17.671875 
Q 13.578125 10.640625 17.828125 7.03125 
Q 22.078125 3.421875 29.78125 3.421875 
Q 37.25 3.421875 41.578125 7.734375 
Q 45.90625 12.0625 45.90625 19.578125 
Q 45.90625 28.171875 41.453125 32.59375 
Q 37.015625 37.015625 28.421875 37.015625 
L 23.78125 37.015625 
L 23.78125 42 
L 26.21875 42 
Q 34.765625 42 39.03125 45.53125 
Q 43.3125 49.078125 43.3125 56.203125 
Q 43.3125 62.59375 39.796875 65.984375 
Q 36.28125 69.390625 29.6875 69.390625 
Q 23.09375 69.390625 19.453125 66.265625 
Q 15.828125 63.140625 15.1875 56.984375 
L 9.71875 56.984375 
z
" id="BitstreamVeraSerif-Roman-33"/>
      </defs>
      <g transform="translate(6.28 68.98625)scale(0.08 -0.08)">
       <use transform="translate(0.0 0.2015625)" xlink:href="#BitstreamVeraSerif-Roman-31"/>
       <use transform="translate(63.623046875 0.2015625)" xlink:href="#BitstreamVeraSerif-Roman-30"/>
       <use transform="translate(132.478046875 45.046875)scale(0.7)" xlink:href="#BitstreamVeraSerif-Roman-2d"/>
       <use transform="translate(156.130390625 45.046875)scale(0.7)" xlink:href="#BitstreamVeraSerif-Roman-33"/>
      </g>
     </g>
    </g>
    <g id="ytick_4">
     <g id="line2d_32">
      <path clip-path="url(#p389679edc7)" d="M 27 40.185 
L 194.4 40.185 
" style="fill:none;opacity:0.3;stroke:#808080;stroke-dasharray:1.000000,3.000000;stroke-dashoffset:0.0;stroke-width:0.5;"/>
     </g>
     <g id="line2d_33">
      <g>
       <use style="stroke:#000000;stroke-width:0.5;" x="27.0" xlink:href="#m3df398ed4c" y="40.185"/>
      </g>
     </g>
     <g id="line2d_34">
      <g>
       <use style="stroke:#000000;stroke-width:0.5;" x="194.4" xlink:href="#md19ec9b503" y="40.185"/>
      </g>
     </g>
     <g id="text_11">
      <!-- $\mathdefault{10^{0}}$ -->
      <g transform="translate(8.2 42.48125)scale(0.08 -0.08)">
       <use transform="translate(0.0 0.2015625)" xlink:href="#BitstreamVeraSerif-Roman-31"/>
       <use transform="translate(63.623046875 0.2015625)" xlink:href="#BitstreamVeraSerif-Roman-30"/>
       <use transform="translate(132.478046875 45.046875)scale(0.7)" xlink:href="#BitstreamVeraSerif-Roman-30"/>
      </g>
     </g>
    </g>
    <g id="ytick_5">
     <g id="line2d_35">
      <path clip-path="url(#p389679edc7)" d="M 27 13.68 
L 194.4 13.68 
" style="fill:none;opacity:0.3;stroke:#808080;stroke-dasharray:1.000000,3.000000;stroke-dashoffset:0.0;stroke-width:0.5;"/>
     </g>
     <g id="line2d_36">
      <g>
       <use style="stroke:#000000;stroke-width:0.5;" x="27.0" xlink:href="#m3df398ed4c" y="13.68"/>
      </g>
     </g>
     <g id="line2d_37">
      <g>
       <use style="stroke:#000000;stroke-width:0.5;" x="194.4" xlink:href="#md19ec9b503" y="13.68"/>
      </g>
     </g>
     <g id="text_12">
      <!-- $\mathdefault{10^{3}}$ -->
      <g transform="translate(8.2 15.97625)scale(0.08 -0.08)">
       <use transform="translate(0.0 0.2015625)" xlink:href="#BitstreamVeraSerif-Roman-31"/>
       <use transform="translate(63.623046875 0.2015625)" xlink:href="#BitstreamVeraSerif-Roman-30"/>
       <use transform="translate(132.478046875 45.046875)scale(0.7)" xlink:href="#BitstreamVeraSerif-Roman-33"/>
      </g>
     </g>
    </g>
    <g id="ytick_6">
     <g id="line2d_38">
      <defs>
       <path d="M 0 0 
L 2 0 
" id="mfc2a280417" style="stroke:#000000;stroke-width:0.5;"/>
      </defs>
      <g>
       <use style="stroke:#000000;stroke-width:0.5;" x="27.0" xlink:href="#mfc2a280417" y="117.040399988"/>
      </g>
     </g>
     <g id="line2d_39">
      <defs>
       <path d="M 0 0 
L -2 0 
" id="m16ae5d1864" style="stroke:#000000;stroke-width:0.5;"/>
      </defs>
      <g>
       <use style="stroke:#000000;stroke-width:0.5;" x="194.4" xlink:href="#m16ae5d1864" y="117.040399988"/>
      </g>
     </g>
    </g>
    <g id="ytick_7">
     <g id="line2d_40">
      <g>
       <use style="stroke:#000000;stroke-width:0.5;" x="27.0" xlink:href="#mfc2a280417" y="114.380799977"/>
      </g>
     </g>
     <g id="line2d_41">
      <g>
       <use style="stroke:#000000;stroke-width:0.5;" x="194.4" xlink:href="#m16ae5d1864" y="114.380799977"/>
      </g>
     </g>
    </g>
    <g id="ytick_8">
     <g id="line2d_42">
      <g>
       <use style="stroke:#000000;stroke-width:0.5;" x="27.0" xlink:href="#mfc2a280417" y="112.825033703"/>
      </g>
     </g>
     <g id="line2d_43">
      <g>
       <use style="stroke:#000000;stroke-width:0.5;" x="194.4" xlink:href="#m16ae5d1864" y="112.825033703"/>
      </g>
     </g>
    </g>
    <g id="ytick_9">
     <g id="line2d_44">
      <g>
       <use style="stroke:#000000;stroke-width:0.5;" x="27.0" xlink:href="#mfc2a280417" y="111.721199965"/>
      </g>
     </g>
     <g id="line2d_45">
      <g>
       <use style="stroke:#000000;stroke-width:0.5;" x="194.4" xlink:href="#m16ae5d1864" y="111.721199965"/>
      </g>
     </g>
    </g>
    <g id="ytick_10">
     <g id="line2d_46">
      <g>
       <use style="stroke:#000000;stroke-width:0.5;" x="27.0" xlink:href="#mfc2a280417" y="108.205399988"/>
      </g>
     </g>
     <g id="line2d_47">
      <g>
       <use style="stroke:#000000;stroke-width:0.5;" x="194.4" xlink:href="#m16ae5d1864" y="108.205399988"/>
      </g>
     </g>
    </g>
    <g id="ytick_11">
     <g id="line2d_48">
      <g>
       <use style="stroke:#000000;stroke-width:0.5;" x="27.0" xlink:href="#mfc2a280417" y="105.545799977"/>
      </g>
     </g>
     <g id="line2d_49">
      <g>
       <use style="stroke:#000000;stroke-width:0.5;" x="194.4" xlink:href="#m16ae5d1864" y="105.545799977"/>
      </g>
     </g>
    </g>
    <g id="ytick_12">
     <g id="line2d_50">
      <g>
       <use style="stroke:#000000;stroke-width:0.5;" x="27.0" xlink:href="#mfc2a280417" y="103.990033703"/>
      </g>
     </g>
     <g id="line2d_51">
      <g>
       <use style="stroke:#000000;stroke-width:0.5;" x="194.4" xlink:href="#m16ae5d1864" y="103.990033703"/>
      </g>
     </g>
    </g>
    <g id="ytick_13">
     <g id="line2d_52">
      <g>
       <use style="stroke:#000000;stroke-width:0.5;" x="27.0" xlink:href="#mfc2a280417" y="102.886199965"/>
      </g>
     </g>
     <g id="line2d_53">
      <g>
       <use style="stroke:#000000;stroke-width:0.5;" x="194.4" xlink:href="#m16ae5d1864" y="102.886199965"/>
      </g>
     </g>
    </g>
    <g id="ytick_14">
     <g id="line2d_54">
      <g>
       <use style="stroke:#000000;stroke-width:0.5;" x="27.0" xlink:href="#mfc2a280417" y="99.3703999883"/>
      </g>
     </g>
     <g id="line2d_55">
      <g>
       <use style="stroke:#000000;stroke-width:0.5;" x="194.4" xlink:href="#m16ae5d1864" y="99.3703999883"/>
      </g>
     </g>
    </g>
    <g id="ytick_15">
     <g id="line2d_56">
      <g>
       <use style="stroke:#000000;stroke-width:0.5;" x="27.0" xlink:href="#mfc2a280417" y="96.7107999766"/>
      </g>
     </g>
     <g id="line2d_57">
      <g>
       <use style="stroke:#000000;stroke-width:0.5;" x="194.4" xlink:href="#m16ae5d1864" y="96.7107999766"/>
      </g>
     </g>
    </g>
    <g id="ytick_16">
     <g id="line2d_58">
      <g>
       <use style="stroke:#000000;stroke-width:0.5;" x="27.0" xlink:href="#mfc2a280417" y="95.1550337029"/>
      </g>
     </g>
     <g id="line2d_59">
      <g>
       <use style="stroke:#000000;stroke-width:0.5;" x="194.4" xlink:href="#m16ae5d1864" y="95.1550337029"/>
      </g>
     </g>
    </g>
    <g id="ytick_17">
     <g id="line2d_60">
      <g>
       <use style="stroke:#000000;stroke-width:0.5;" x="27.0" xlink:href="#mfc2a280417" y="94.0511999649"/>
      </g>
     </g>
     <g id="line2d_61">
      <g>
       <use style="stroke:#000000;stroke-width:0.5;" x="194.4" xlink:href="#m16ae5d1864" y="94.0511999649"/>
      </g>
     </g>
    </g>
    <g id="ytick_18">
     <g id="line2d_62">
      <g>
       <use style="stroke:#000000;stroke-width:0.5;" x="27.0" xlink:href="#mfc2a280417" y="90.5353999883"/>
      </g>
     </g>
     <g id="line2d_63">
      <g>
       <use style="stroke:#000000;stroke-width:0.5;" x="194.4" xlink:href="#m16ae5d1864" y="90.5353999883"/>
      </g>
     </g>
    </g>
    <g id="ytick_19">
     <g id="line2d_64">
      <g>
       <use style="stroke:#000000;stroke-width:0.5;" x="27.0" xlink:href="#mfc2a280417" y="87.8757999766"/>
      </g>
     </g>
     <g id="line2d_65">
      <g>
       <use style="stroke:#000000;stroke-width:0.5;" x="194.4" xlink:href="#m16ae5d1864" y="87.8757999766"/>
      </g>
     </g>
    </g>
    <g id="ytick_20">
     <g id="line2d_66">
      <g>
       <use style="stroke:#000000;stroke-width:0.5;" x="27.0" xlink:href="#mfc2a280417" y="86.3200337029"/>
      </g>
     </g>
     <g id="line2d_67">
      <g>
       <use style="stroke:#000000;stroke-width:0.5;" x="194.4" xlink:href="#m16ae5d1864" y="86.3200337029"/>
      </g>
     </g>
    </g>
    <g id="ytick_21">
     <g id="line2d_68">
      <g>
       <use style="stroke:#000000;stroke-width:0.5;" x="27.0" xlink:href="#mfc2a280417" y="85.2161999649"/>
      </g>
     </g>
     <g id="line2d_69">
      <g>
       <use style="stroke:#000000;stroke-width:0.5;" x="194.4" xlink:href="#m16ae5d1864" y="85.2161999649"/>
      </g>
     </g>
    </g>
    <g id="ytick_22">
     <g id="line2d_70">
      <g>
       <use style="stroke:#000000;stroke-width:0.5;" x="27.0" xlink:href="#mfc2a280417" y="81.7003999883"/>
      </g>
     </g>
     <g id="line2d_71">
      <g>
       <use style="stroke:#000000;stroke-width:0.5;" x="194.4" xlink:href="#m16ae5d1864" y="81.7003999883"/>
      </g>
     </g>
    </g>
    <g id="ytick_23">
     <g id="line2d_72">
      <g>
       <use style="stroke:#000000;stroke-width:0.5;" x="27.0" xlink:href="#mfc2a280417" y="79.0407999766"/>
      </g>
     </g>
     <g id="line2d_73">
      <g>
       <use style="stroke:#000000;stroke-width:0.5;" x="194.4" xlink:href="#m16ae5d1864" y="79.0407999766"/>
      </g>
     </g>
    </g>
    <g id="ytick_24">
     <g id="line2d_74">
      <g>
       <use style="stroke:#000000;stroke-width:0.5;" x="27.0" xlink:href="#mfc2a280417" y="77.4850337029"/>
      </g>
     </g>
     <g id="line2d_75">
      <g>
       <use style="stroke:#000000;stroke-width:0.5;" x="194.4" xlink:href="#m16ae5d1864" y="77.4850337029"/>
      </g>
     </g>
    </g>
    <g id="ytick_25">
     <g id="line2d_76">
      <g>
       <use style="stroke:#000000;stroke-width:0.5;" x="27.0" xlink:href="#mfc2a280417" y="76.3811999649"/>
      </g>
     </g>
     <g id="line2d_77">
      <g>
       <use style="stroke:#000000;stroke-width:0.5;" x="194.4" xlink:href="#m16ae5d1864" y="76.3811999649"/>
      </g>
     </g>
    </g>
    <g id="ytick_26">
     <g id="line2d_78">
      <g>
       <use style="stroke:#000000;stroke-width:0.5;" x="27.0" xlink:href="#mfc2a280417" y="72.8653999883"/>
      </g>
     </g>
     <g id="line2d_79">
      <g>
       <use style="stroke:#000000;stroke-width:0.5;" x="194.4" xlink:href="#m16ae5d1864" y="72.8653999883"/>
      </g>
     </g>
    </g>
    <g id="ytick_27">
     <g id="line2d_80">
      <g>
       <use style="stroke:#000000;stroke-width:0.5;" x="27.0" xlink:href="#mfc2a280417" y="70.2057999766"/>
      </g>
     </g>
     <g id="line2d_81">
      <g>
       <use style="stroke:#000000;stroke-width:0.5;" x="194.4" xlink:href="#m16ae5d1864" y="70.2057999766"/>
      </g>
     </g>
    </g>
    <g id="ytick_28">
     <g id="line2d_82">
      <g>
       <use style="stroke:#000000;stroke-width:0.5;" x="27.0" xlink:href="#mfc2a280417" y="68.6500337029"/>
      </g>
     </g>
     <g id="line2d_83">
      <g>
       <use style="stroke:#000000;stroke-width:0.5;" x="194.4" xlink:href="#m16ae5d1864" y="68.6500337029"/>
      </g>
     </g>
    </g>
    <g id="ytick_29">
     <g id="line2d_84">
      <g>
       <use style="stroke:#000000;stroke-width:0.5;" x="27.0" xlink:href="#mfc2a280417" y="67.5461999649"/>
      </g>
     </g>
     <g id="line2d_85">
      <g>
       <use style="stroke:#000000;stroke-width:0.5;" x="194.4" xlink:href="#m16ae5d1864" y="67.5461999649"/>
      </g>
     </g>
    </g>
    <g id="ytick_30">
     <g id="line2d_86">
      <g>
       <use style="stroke:#000000;stroke-width:0.5;" x="27.0" xlink:href="#mfc2a280417" y="64.0303999883"/>
      </g>
     </g>
     <g id="line2d_87">
      <g>
       <use style="stroke:#000000;stroke-width:0.5;" x="194.4" xlink:href="#m16ae5d1864" y="64.0303999883"/>
      </g>
     </g>
    </g>
    <g id="ytick_31">
     <g id="line2d_88">
      <g>
       <use style="stroke:#000000;stroke-width:0.5;" x="27.0" xlink:href="#mfc2a280417" y="61.3707999766"/>
      </g>
     </g>
     <g id="line2d_89">
      <g>
       <use style="stroke:#000000;stroke-width:0.5;" x="194.4" xlink:href="#m16ae5d1864" y="61.3707999766"/>
      </g>
     </g>
    </g>
    <g id="ytick_32">
     <g id="line2d_90">
      <g>
       <use style="stroke:#000000;stroke-width:0.5;" x="27.0" xlink:href="#mfc2a280417" y="59.8150337029"/>
      </g>
     </g>
     <g id="line2d_91">
      <g>
       <use style="stroke:#000000;stroke-width:0.5;" x="194.4" xlink:href="#m16ae5d1864" y="59.8150337029"/>
      </g>
     </g>
    </g>
    <g id="ytick_33">
     <g id="line2d_92">
      <g>
       <use style="stroke:#000000;stroke-width:0.5;" x="27.0" xlink:href="#mfc2a280417" y="58.7111999649"/>
      </g>
     </g>
     <g id="line2d_93">
      <g>
       <use style="stroke:#000000;stroke-width:0.5;" x="194.4" xlink:href="#m16ae5d1864" y="58.7111999649"/>
      </g>
     </g>
    </g>
    <g id="ytick_34">
     <g id="line2d_94">
      <g>
       <use style="stroke:#000000;stroke-width:0.5;" x="27.0" xlink:href="#mfc2a280417" y="55.1953999883"/>
      </g>
     </g>
     <g id="line2d_95">
      <g>
       <use style="stroke:#000000;stroke-width:0.5;" x="194.4" xlink:href="#m16ae5d1864" y="55.1953999883"/>
      </g>
     </g>
    </g>
    <g id="ytick_35">
     <g id="line2d_96">
      <g>
       <use style="stroke:#000000;stroke-width:0.5;" x="27.0" xlink:href="#mfc2a280417" y="52.5357999766"/>
      </g>
     </g>
     <g id="line2d_97">
      <g>
       <use style="stroke:#000000;stroke-width:0.5;" x="194.4" xlink:href="#m16ae5d1864" y="52.5357999766"/>
      </g>
     </g>
    </g>
    <g id="ytick_36">
     <g id="line2d_98">
      <g>
       <use style="stroke:#000000;stroke-width:0.5;" x="27.0" xlink:href="#mfc2a280417" y="50.9800337029"/>
      </g>
     </g>
     <g id="line2d_99">
      <g>
       <use style="stroke:#000000;stroke-width:0.5;" x="194.4" xlink:href="#m16ae5d1864" y="50.9800337029"/>
      </g>
     </g>
    </g>
    <g id="ytick_37">
     <g id="line2d_100">
      <g>
       <use style="stroke:#000000;stroke-width:0.5;" x="27.0" xlink:href="#mfc2a280417" y="49.8761999649"/>
      </g>
     </g>
     <g id="line2d_101">
      <g>
       <use style="stroke:#000000;stroke-width:0.5;" x="194.4" xlink:href="#m16ae5d1864" y="49.8761999649"/>
      </g>
     </g>
    </g>
    <g id="ytick_38">
     <g id="line2d_102">
      <g>
       <use style="stroke:#000000;stroke-width:0.5;" x="27.0" xlink:href="#mfc2a280417" y="46.3603999883"/>
      </g>
     </g>
     <g id="line2d_103">
      <g>
       <use style="stroke:#000000;stroke-width:0.5;" x="194.4" xlink:href="#m16ae5d1864" y="46.3603999883"/>
      </g>
     </g>
    </g>
    <g id="ytick_39">
     <g id="line2d_104">
      <g>
       <use style="stroke:#000000;stroke-width:0.5;" x="27.0" xlink:href="#mfc2a280417" y="43.7007999766"/>
      </g>
     </g>
     <g id="line2d_105">
      <g>
       <use style="stroke:#000000;stroke-width:0.5;" x="194.4" xlink:href="#m16ae5d1864" y="43.7007999766"/>
      </g>
     </g>
    </g>
    <g id="ytick_40">
     <g id="line2d_106">
      <g>
       <use style="stroke:#000000;stroke-width:0.5;" x="27.0" xlink:href="#mfc2a280417" y="42.1450337029"/>
      </g>
     </g>
     <g id="line2d_107">
      <g>
       <use style="stroke:#000000;stroke-width:0.5;" x="194.4" xlink:href="#m16ae5d1864" y="42.1450337029"/>
      </g>
     </g>
    </g>
    <g id="ytick_41">
     <g id="line2d_108">
      <g>
       <use style="stroke:#000000;stroke-width:0.5;" x="27.0" xlink:href="#mfc2a280417" y="41.0411999649"/>
      </g>
     </g>
     <g id="line2d_109">
      <g>
       <use style="stroke:#000000;stroke-width:0.5;" x="194.4" xlink:href="#m16ae5d1864" y="41.0411999649"/>
      </g>
     </g>
    </g>
    <g id="ytick_42">
     <g id="line2d_110">
      <g>
       <use style="stroke:#000000;stroke-width:0.5;" x="27.0" xlink:href="#mfc2a280417" y="37.5253999883"/>
      </g>
     </g>
     <g id="line2d_111">
      <g>
       <use style="stroke:#000000;stroke-width:0.5;" x="194.4" xlink:href="#m16ae5d1864" y="37.5253999883"/>
      </g>
     </g>
    </g>
    <g id="ytick_43">
     <g id="line2d_112">
      <g>
       <use style="stroke:#000000;stroke-width:0.5;" x="27.0" xlink:href="#mfc2a280417" y="34.8657999766"/>
      </g>
     </g>
     <g id="line2d_113">
      <g>
       <use style="stroke:#000000;stroke-width:0.5;" x="194.4" xlink:href="#m16ae5d1864" y="34.8657999766"/>
      </g>
     </g>
    </g>
    <g id="ytick_44">
     <g id="line2d_114">
      <g>
       <use style="stroke:#000000;stroke-width:0.5;" x="27.0" xlink:href="#mfc2a280417" y="33.3100337029"/>
      </g>
     </g>
     <g id="line2d_115">
      <g>
       <use style="stroke:#000000;stroke-width:0.5;" x="194.4" xlink:href="#m16ae5d1864" y="33.3100337029"/>
      </g>
     </g>
    </g>
    <g id="ytick_45">
     <g id="line2d_116">
      <g>
       <use style="stroke:#000000;stroke-width:0.5;" x="27.0" xlink:href="#mfc2a280417" y="32.2061999649"/>
      </g>
     </g>
     <g id="line2d_117">
      <g>
       <use style="stroke:#000000;stroke-width:0.5;" x="194.4" xlink:href="#m16ae5d1864" y="32.2061999649"/>
      </g>
     </g>
    </g>
    <g id="ytick_46">
     <g id="line2d_118">
      <g>
       <use style="stroke:#000000;stroke-width:0.5;" x="27.0" xlink:href="#mfc2a280417" y="28.6903999883"/>
      </g>
     </g>
     <g id="line2d_119">
      <g>
       <use style="stroke:#000000;stroke-width:0.5;" x="194.4" xlink:href="#m16ae5d1864" y="28.6903999883"/>
      </g>
     </g>
    </g>
    <g id="ytick_47">
     <g id="line2d_120">
      <g>
       <use style="stroke:#000000;stroke-width:0.5;" x="27.0" xlink:href="#mfc2a280417" y="26.0307999766"/>
      </g>
     </g>
     <g id="line2d_121">
      <g>
       <use style="stroke:#000000;stroke-width:0.5;" x="194.4" xlink:href="#m16ae5d1864" y="26.0307999766"/>
      </g>
     </g>
    </g>
    <g id="ytick_48">
     <g id="line2d_122">
      <g>
       <use style="stroke:#000000;stroke-width:0.5;" x="27.0" xlink:href="#mfc2a280417" y="24.4750337029"/>
      </g>
     </g>
     <g id="line2d_123">
      <g>
       <use style="stroke:#000000;stroke-width:0.5;" x="194.4" xlink:href="#m16ae5d1864" y="24.4750337029"/>
      </g>
     </g>
    </g>
    <g id="ytick_49">
     <g id="line2d_124">
      <g>
       <use style="stroke:#000000;stroke-width:0.5;" x="27.0" xlink:href="#mfc2a280417" y="23.3711999649"/>
      </g>
     </g>
     <g id="line2d_125">
      <g>
       <use style="stroke:#000000;stroke-width:0.5;" x="194.4" xlink:href="#m16ae5d1864" y="23.3711999649"/>
      </g>
     </g>
    </g>
    <g id="ytick_50">
     <g id="line2d_126">
      <g>
       <use style="stroke:#000000;stroke-width:0.5;" x="27.0" xlink:href="#mfc2a280417" y="19.8553999883"/>
      </g>
     </g>
     <g id="line2d_127">
      <g>
       <use style="stroke:#000000;stroke-width:0.5;" x="194.4" xlink:href="#m16ae5d1864" y="19.8553999883"/>
      </g>
     </g>
    </g>
    <g id="ytick_51">
     <g id="line2d_128">
      <g>
       <use style="stroke:#000000;stroke-width:0.5;" x="27.0" xlink:href="#mfc2a280417" y="17.1957999766"/>
      </g>
     </g>
     <g id="line2d_129">
      <g>
       <use style="stroke:#000000;stroke-width:0.5;" x="194.4" xlink:href="#m16ae5d1864" y="17.1957999766"/>
      </g>
     </g>
    </g>
    <g id="ytick_52">
     <g id="line2d_130">
      <g>
       <use style="stroke:#000000;stroke-width:0.5;" x="27.0" xlink:href="#mfc2a280417" y="15.6400337029"/>
      </g>
     </g>
     <g id="line2d_131">
      <g>
       <use style="stroke:#000000;stroke-width:0.5;" x="194.4" xlink:href="#m16ae5d1864" y="15.6400337029"/>
      </g>
     </g>
    </g>
    <g id="ytick_53">
     <g id="line2d_132">
      <g>
       <use style="stroke:#000000;stroke-width:0.5;" x="27.0" xlink:href="#mfc2a280417" y="14.5361999649"/>
      </g>
     </g>
     <g id="line2d_133">
      <g>
       <use style="stroke:#000000;stroke-width:0.5;" x="194.4" xlink:href="#m16ae5d1864" y="14.5361999649"/>
      </g>
     </g>
    </g>
    <g id="text_13">
     <!-- $u_N/\hat{f}_0$ -->
     <defs>
      <path d="M 13.484375 53.8125 
L 11.53125 55.90625 
L 25 69.390625 
L 38.375 55.90625 
L 36.375 53.8125 
L 25 63.8125 
z
" id="Cmr10-5e"/>
      <path d="M 4.6875 0 
Q 3.71875 0 3.71875 1.3125 
Q 3.765625 1.5625 3.90625 2.171875 
Q 4.046875 2.78125 4.3125 3.140625 
Q 4.59375 3.515625 4.984375 3.515625 
Q 14.546875 3.515625 16.109375 9.625 
L 29.6875 64.3125 
Q 26.90625 64.796875 20.90625 64.796875 
Q 19.921875 64.796875 19.921875 66.109375 
Q 19.96875 66.359375 20.109375 66.96875 
Q 20.265625 67.578125 20.53125 67.9375 
Q 20.796875 68.3125 21.1875 68.3125 
L 38.484375 68.3125 
Q 39.203125 68.3125 39.40625 67.671875 
L 61.625 14.796875 
L 72.703125 59.078125 
Q 72.90625 60.15625 72.90625 60.59375 
Q 72.90625 64.796875 65.1875 64.796875 
Q 64.203125 64.796875 64.203125 66.109375 
Q 64.546875 67.390625 64.734375 67.84375 
Q 64.9375 68.3125 65.921875 68.3125 
L 87.3125 68.3125 
Q 88.28125 68.3125 88.28125 67 
Q 88.234375 66.75 88.078125 66.140625 
Q 87.9375 65.53125 87.671875 65.15625 
Q 87.40625 64.796875 87.015625 64.796875 
Q 77.4375 64.796875 75.875 58.6875 
L 61.53125 0.875 
Q 61.1875 0 60.5 0 
L 59.28125 0 
Q 58.59375 0 58.40625 0.6875 
L 32.90625 61.1875 
L 32.71875 61.8125 
Q 32.515625 62.015625 32.515625 62.109375 
L 19.28125 9.1875 
Q 19.1875 8.9375 19.140625 8.5625 
Q 19.09375 8.203125 19 7.71875 
Q 19 5.125 21.234375 4.3125 
Q 23.484375 3.515625 26.8125 3.515625 
Q 27.78125 3.515625 27.78125 2.203125 
Q 27.4375 0.828125 27.1875 0.40625 
Q 26.953125 0 26.125 0 
z
" id="Cmmi10-4e"/>
      <path d="M 25 -2.203125 
Q 12.75 -2.203125 8.328125 7.875 
Q 3.90625 17.96875 3.90625 31.890625 
Q 3.90625 40.578125 5.484375 48.234375 
Q 7.078125 55.90625 11.78125 61.25 
Q 16.5 66.609375 25 66.609375 
Q 31.59375 66.609375 35.78125 63.375 
Q 39.984375 60.15625 42.1875 55.046875 
Q 44.390625 49.953125 45.1875 44.109375 
Q 46 38.28125 46 31.890625 
Q 46 23.296875 44.40625 15.796875 
Q 42.828125 8.296875 38.1875 3.046875 
Q 33.546875 -2.203125 25 -2.203125 
M 25 0.390625 
Q 30.5625 0.390625 33.296875 6.09375 
Q 36.03125 11.8125 36.671875 18.75 
Q 37.3125 25.6875 37.3125 33.5 
Q 37.3125 41.015625 36.671875 47.359375 
Q 36.03125 53.71875 33.3125 58.859375 
Q 30.609375 64.015625 25 64.015625 
Q 19.34375 64.015625 16.609375 58.828125 
Q 13.875 53.65625 13.234375 47.328125 
Q 12.59375 41.015625 12.59375 33.5 
Q 12.59375 27.9375 12.859375 23 
Q 13.140625 18.0625 14.3125 12.8125 
Q 15.484375 7.5625 18.09375 3.96875 
Q 20.703125 0.390625 25 0.390625 
" id="Cmr10-30"/>
      <path d="M 10.59375 10.890625 
Q 10.59375 14.15625 11.46875 17.59375 
Q 12.359375 21.046875 13.9375 25.265625 
Q 15.53125 29.5 16.703125 32.625 
Q 18.015625 36.28125 18.015625 38.625 
Q 18.015625 41.609375 15.828125 41.609375 
Q 11.859375 41.609375 9.296875 37.53125 
Q 6.734375 33.453125 5.515625 28.421875 
Q 5.328125 27.78125 4.6875 27.78125 
L 3.515625 27.78125 
Q 2.6875 27.78125 2.6875 28.71875 
L 2.6875 29 
Q 4.296875 34.96875 7.609375 39.578125 
Q 10.9375 44.1875 16.015625 44.1875 
Q 19.578125 44.1875 22.046875 41.84375 
Q 24.515625 39.5 24.515625 35.890625 
Q 24.515625 34.03125 23.6875 31.984375 
Q 23.25 30.765625 21.6875 26.65625 
Q 20.125 22.5625 19.28125 19.875 
Q 18.453125 17.1875 17.921875 14.59375 
Q 17.390625 12.015625 17.390625 9.421875 
Q 17.390625 6.109375 18.796875 3.8125 
Q 20.21875 1.515625 23.390625 1.515625 
Q 29.78125 1.515625 34.625 9.421875 
Q 34.71875 9.8125 34.78125 10.171875 
Q 34.859375 10.546875 34.90625 10.890625 
L 42.09375 39.890625 
Q 42.4375 41.21875 43.65625 42.15625 
Q 44.875 43.109375 46.296875 43.109375 
Q 47.515625 43.109375 48.40625 42.328125 
Q 49.3125 41.546875 49.3125 40.28125 
Q 49.3125 39.703125 49.21875 39.5 
L 42 10.6875 
Q 41.3125 7.71875 41.3125 5.8125 
Q 41.3125 1.515625 44.1875 1.515625 
Q 47.40625 1.515625 49 5.484375 
Q 50.59375 9.46875 51.703125 14.703125 
Q 51.90625 15.28125 52.484375 15.28125 
L 53.71875 15.28125 
Q 54.109375 15.28125 54.34375 14.9375 
Q 54.59375 14.59375 54.59375 14.3125 
Q 53.515625 10.015625 52.515625 6.9375 
Q 51.515625 3.859375 49.359375 1.359375 
Q 47.21875 -1.125 44 -1.125 
Q 40.828125 -1.125 38.3125 0.609375 
Q 35.796875 2.34375 34.90625 5.328125 
Q 32.625 2.390625 29.59375 0.625 
Q 26.5625 -1.125 23.1875 -1.125 
Q 17.4375 -1.125 14.015625 2.015625 
Q 10.59375 5.171875 10.59375 10.890625 
" id="Cmmi10-75"/>
      <path d="M 9.71875 -16.5 
Q 11.578125 -17.921875 14.203125 -17.921875 
Q 17.78125 -17.921875 20.015625 -10.015625 
Q 20.953125 -6.203125 25.09375 15.09375 
L 29.6875 39.59375 
L 21.09375 39.59375 
Q 20.125 39.59375 20.125 40.921875 
Q 20.515625 43.109375 21.390625 43.109375 
L 30.328125 43.109375 
L 31.5 49.609375 
Q 32.078125 52.640625 32.5625 54.8125 
Q 33.0625 56.984375 33.625 58.828125 
Q 34.1875 60.6875 35.296875 62.984375 
Q 37.015625 66.265625 39.921875 68.390625 
Q 42.828125 70.515625 46.1875 70.515625 
Q 48.390625 70.515625 50.46875 69.703125 
Q 52.546875 68.890625 53.859375 67.28125 
Q 55.171875 65.671875 55.171875 63.484375 
Q 55.171875 60.9375 53.484375 59.046875 
Q 51.8125 57.171875 49.421875 57.171875 
Q 47.796875 57.171875 46.65625 58.171875 
Q 45.515625 59.1875 45.515625 60.796875 
Q 45.515625 62.984375 47 64.625 
Q 48.484375 66.265625 50.6875 66.5 
Q 48.828125 67.921875 46.09375 67.921875 
Q 44.578125 67.921875 43.234375 66.5 
Q 41.890625 65.09375 41.5 63.484375 
Q 40.875 60.9375 38.71875 49.703125 
L 37.5 43.109375 
L 47.796875 43.109375 
Q 48.78125 43.109375 48.78125 41.796875 
Q 48.734375 41.546875 48.578125 40.9375 
Q 48.4375 40.328125 48.171875 39.953125 
Q 47.90625 39.59375 47.515625 39.59375 
L 36.8125 39.59375 
L 32.171875 15.1875 
Q 31.296875 9.859375 30.140625 4.359375 
Q 29 -1.125 26.921875 -6.90625 
Q 24.859375 -12.703125 21.625 -16.609375 
Q 18.40625 -20.515625 14.015625 -20.515625 
Q 10.640625 -20.515625 7.984375 -18.578125 
Q 5.328125 -16.65625 5.328125 -13.484375 
Q 5.328125 -10.9375 6.953125 -9.046875 
Q 8.59375 -7.171875 11.078125 -7.171875 
Q 12.75 -7.171875 13.859375 -8.171875 
Q 14.984375 -9.1875 14.984375 -10.796875 
Q 14.984375 -12.9375 13.390625 -14.71875 
Q 11.8125 -16.5 9.71875 -16.5 
" id="Cmmi10-66"/>
      <path d="M 5.609375 -23 
Q 5.609375 -22.703125 5.71875 -22.609375 
L 40.484375 73.78125 
Q 40.671875 74.359375 41.15625 74.671875 
Q 41.65625 75 42.28125 75 
Q 43.171875 75 43.71875 74.453125 
Q 44.28125 73.921875 44.28125 73 
L 44.28125 72.609375 
L 9.515625 -23.78125 
Q 8.9375 -25 7.625 -25 
Q 6.78125 -25 6.1875 -24.40625 
Q 5.609375 -23.828125 5.609375 -23 
" id="Cmmi10-3d"/>
     </defs>
     <g transform="translate(-0.72 77.29)rotate(-90.0)scale(0.08 -0.08)">
      <use transform="translate(0.0 0.40625)" xlink:href="#Cmmi10-75"/>
      <use transform="translate(57.177734375 -16.6)scale(0.7)" xlink:href="#Cmmi10-4e"/>
      <use transform="translate(119.780664062 0.40625)" xlink:href="#Cmmi10-3d"/>
      <use transform="translate(175.468652344 29.609375)" xlink:href="#Cmr10-5e"/>
      <use transform="translate(169.780664062 0.40625)" xlink:href="#Cmmi10-66"/>
      <use transform="translate(223.121757812 -16.6)scale(0.7)" xlink:href="#Cmr10-30"/>
     </g>
    </g>
   </g>
   <g id="legend_1">
    <g id="patch_7">
     <path d="M 151.887188 53.7075 
L 191.4 53.7075 
L 191.4 16.68 
L 151.887188 16.68 
z
" style="fill:#ffffff;stroke:#000000;stroke-linejoin:miter;"/>
    </g>
    <g id="line2d_134">
     <path d="M 156.087188 21.539062 
L 164.487188 21.539062 
" style="fill:none;stroke:#0000ff;stroke-linecap:square;"/>
    </g>
    <g id="line2d_135"/>
    <g id="text_14">
     <!-- N=1 -->
     <defs>
      <path d="M 4.890625 0 
L 4.890625 5.171875 
L 14.703125 5.171875 
L 14.703125 67.671875 
L 4.890625 67.671875 
L 4.890625 72.90625 
L 23.578125 72.90625 
L 67.28125 15.375 
L 67.28125 67.671875 
L 57.515625 67.671875 
L 57.515625 72.90625 
L 83.109375 72.90625 
L 83.109375 67.671875 
L 73.296875 67.671875 
L 73.296875 -1.421875 
L 67.390625 -1.421875 
L 20.703125 60.015625 
L 20.703125 5.171875 
L 30.515625 5.171875 
L 30.515625 0 
z
" id="BitstreamVeraSerif-Roman-4e"/>
      <path d="M 10.59375 45.21875 
L 73.1875 45.21875 
L 73.1875 37.40625 
L 10.59375 37.40625 
z
M 10.59375 25.296875 
L 73.1875 25.296875 
L 73.1875 17.484375 
L 10.59375 17.484375 
z
" id="BitstreamVeraSerif-Roman-3d"/>
     </defs>
     <g transform="translate(171.0871875 23.6390625)scale(0.06 -0.06)">
      <use xlink:href="#BitstreamVeraSerif-Roman-4e"/>
      <use x="87.5" xlink:href="#BitstreamVeraSerif-Roman-3d"/>
      <use x="171.2890625" xlink:href="#BitstreamVeraSerif-Roman-31"/>
     </g>
    </g>
    <g id="line2d_136">
     <path d="M 156.087188 30.345937 
L 164.487188 30.345937 
" style="fill:none;stroke:#008000;stroke-linecap:square;"/>
    </g>
    <g id="line2d_137"/>
    <g id="text_15">
     <!-- N=5 -->
     <g transform="translate(171.0871875 32.4459375)scale(0.06 -0.06)">
      <use xlink:href="#BitstreamVeraSerif-Roman-4e"/>
      <use x="87.5" xlink:href="#BitstreamVeraSerif-Roman-3d"/>
      <use x="171.2890625" xlink:href="#BitstreamVeraSerif-Roman-35"/>
     </g>
    </g>
    <g id="line2d_138">
     <path d="M 156.087188 39.152812 
L 164.487188 39.152812 
" style="fill:none;stroke:#ff0000;stroke-linecap:square;"/>
    </g>
    <g id="line2d_139"/>
    <g id="text_16">
     <!-- N=10 -->
     <g transform="translate(171.0871875 41.2528125)scale(0.06 -0.06)">
      <use xlink:href="#BitstreamVeraSerif-Roman-4e"/>
      <use x="87.5" xlink:href="#BitstreamVeraSerif-Roman-3d"/>
      <use x="171.2890625" xlink:href="#BitstreamVeraSerif-Roman-31"/>
      <use x="234.912109375" xlink:href="#BitstreamVeraSerif-Roman-30"/>
     </g>
    </g>
    <g id="line2d_140">
     <path d="M 156.087188 47.959687 
L 164.487188 47.959687 
" style="fill:none;stroke:#00bfbf;stroke-linecap:square;"/>
    </g>
    <g id="line2d_141"/>
    <g id="text_17">
     <!-- N=50 -->
     <g transform="translate(171.0871875 50.0596875)scale(0.06 -0.06)">
      <use xlink:href="#BitstreamVeraSerif-Roman-4e"/>
      <use x="87.5" xlink:href="#BitstreamVeraSerif-Roman-3d"/>
      <use x="171.2890625" xlink:href="#BitstreamVeraSerif-Roman-35"/>
      <use x="234.912109375" xlink:href="#BitstreamVeraSerif-Roman-30"/>
     </g>
    </g>
   </g>
  </g>
 </g>
 <defs>
  <clipPath id="p389679edc7">
   <rect height="106.02" width="167.4" x="27.0" y="13.68"/>
  </clipPath>
 </defs>
</svg>
