<?xml version="1.0" encoding="utf-8" standalone="no"?>
<!DOCTYPE svg PUBLIC "-//W3C//DTD SVG 1.1//EN"
  "http://www.w3.org/Graphics/SVG/1.1/DTD/svg11.dtd">
<!-- Created with matplotlib (http://matplotlib.org/) -->
<svg height="136pt" version="1.1" viewBox="0 0 216 136" width="216pt" xmlns="http://www.w3.org/2000/svg" xmlns:xlink="http://www.w3.org/1999/xlink">
 <defs>
  <style type="text/css">
*{stroke-linecap:butt;stroke-linejoin:round;stroke-miterlimit:100000;}
  </style>
 </defs>
 <g id="figure_1">
  <g id="patch_1">
   <path d="M 0 136.8 
L 216 136.8 
L 216 0 
L 0 0 
z
" style="fill:#ffffff;"/>
  </g>
  <g id="axes_1">
   <g id="patch_2">
    <path d="M 27 119.7 
L 194.4 119.7 
L 194.4 13.68 
L 27 13.68 
z
" style="fill:#ffffff;"/>
   </g>
   <g id="line2d_1">
    <path clip-path="url(#pb3e519da5f)" d="M 27.088742 -1 
L 27.30125 8.406429 
L 27.635949 14.139422 
L 28.087794 18.256617 
L 28.656783 21.481037 
L 29.342917 24.132787 
L 30.162931 26.423524 
L 31.116825 28.427387 
L 32.204598 30.198996 
L 33.459721 31.816831 
L 34.882194 33.2879 
L 36.505487 34.646493 
L 38.36307 35.907188 
L 40.454942 37.055272 
L 42.814574 38.092816 
L 45.42523 38.994768 
L 48.270176 39.739843 
L 51.282472 40.297431 
L 54.361708 40.641481 
L 57.374004 40.757031 
L 60.202215 40.647193 
L 62.745932 40.331027 
L 64.954949 39.8378 
L 66.812532 39.20197 
L 68.352149 38.447129 
L 69.624008 37.58002 
L 70.661576 36.605375 
L 71.498325 35.518883 
L 72.184459 34.263178 
L 72.736714 32.781117 
L 73.171823 30.954234 
L 73.489788 28.648624 
L 73.707342 25.42298 
L 73.824487 20.629197 
L 73.874692 10.369001 
L 73.908162 19.688072 
L 73.908162 19.688072 
L 74.092247 26.582536 
L 74.393476 29.89964 
L 74.811851 32.177695 
L 75.364105 33.973098 
L 76.050239 35.447236 
L 76.886988 36.714124 
L 77.891087 37.828366 
L 79.096005 38.82915 
L 80.518478 39.71808 
L 82.175241 40.486956 
L 84.016088 41.095532 
L 85.974081 41.509962 
L 87.915338 41.69683 
L 89.705981 41.651784 
L 91.279069 41.395349 
L 92.601132 40.960351 
L 93.688905 40.375848 
L 94.592594 39.64209 
L 95.345668 38.740679 
L 95.964862 37.644216 
L 96.466912 36.293957 
L 96.868551 34.554624 
L 97.169781 32.220941 
L 97.3706 28.884086 
L 97.47101 24.139692 
L 97.50448 17.495345 
L 97.53795 22.488483 
L 97.53795 22.488483 
L 97.7053 30.199075 
L 98.00653 33.887561 
L 98.424904 36.359754 
L 98.977158 38.332047 
L 99.680027 40.031986 
L 100.566981 41.589947 
L 101.654755 43.046907 
L 102.993553 44.463787 
L 104.633581 45.870053 
L 106.641778 47.290956 
L 109.06835 48.727248 
L 111.963501 50.175796 
L 115.377436 51.629417 
L 119.326891 53.064862 
L 123.811865 54.45449 
L 128.765418 55.753581 
L 134.036936 56.905576 
L 139.425599 57.856811 
L 144.663647 58.558165 
L 149.466585 58.981494 
L 153.65033 59.133835 
L 157.164675 59.046799 
L 160.026356 58.762151 
L 162.335783 58.3166 
L 164.176631 57.741877 
L 165.632574 57.063108 
L 166.804022 56.278502 
L 167.741181 55.39089 
L 168.51099 54.357172 
L 169.130184 53.155484 
L 169.632233 51.692385 
L 170.033873 49.797327 
L 170.318367 47.368364 
L 170.502452 43.987721 
L 170.602862 38.136137 
L 170.636332 32.087654 
L 170.653067 37.335391 
L 170.653067 37.335391 
L 170.820417 45.557473 
L 171.104911 49.127361 
L 171.523286 51.635703 
L 172.07554 53.591239 
L 172.761674 55.215201 
L 173.615158 56.672026 
L 174.686197 58.053282 
L 176.00826 59.386004 
L 177.648288 60.713795 
L 179.67322 62.059311 
L 182.183466 63.453165 
L 185.296172 64.919174 
L 189.128482 66.47036 
L 193.814276 68.119615 
L 194.4 68.3114 
L 194.4 68.3114 
" style="fill:none;stroke:#0000ff;stroke-linecap:square;"/>
   </g>
   <g id="line2d_2">
    <path clip-path="url(#pb3e519da5f)" d="M 27.06696 2.787266 
L 27.284515 13.879649 
L 27.619214 19.80981 
L 28.071059 23.919004 
L 28.606578 26.847693 
L 29.209037 28.989829 
L 29.844966 30.48995 
L 30.46416 31.42911 
L 31.03315 31.917679 
L 31.518464 32.061581 
L 31.936838 31.965861 
L 32.338478 31.642292 
L 32.740117 31.010386 
L 33.108287 30.003468 
L 33.442986 28.395634 
L 33.694011 26.087307 
L 33.861361 22.578309 
L 33.945036 16.733543 
L 33.961771 11.717985 
L 33.978506 13.776681 
L 33.978506 13.776681 
L 34.129121 24.324814 
L 34.413615 28.37124 
L 34.815255 30.992799 
L 35.334039 32.945836 
L 35.936498 34.367381 
L 36.555692 35.291111 
L 37.141416 35.799322 
L 37.676936 35.986431 
L 38.145515 35.924244 
L 38.597359 35.630398 
L 39.032469 35.062247 
L 39.450843 34.115584 
L 39.819013 32.690381 
L 40.120242 30.557796 
L 40.321062 27.576637 
L 40.438207 22.735733 
L 40.488412 14.18007 
L 40.521882 22.125886 
L 40.521882 22.125886 
L 40.705967 28.946328 
L 41.007196 32.326192 
L 41.425571 34.656784 
L 41.944355 36.34385 
L 42.513344 37.478324 
L 43.065598 38.121108 
L 43.550913 38.375446 
L 43.969287 38.358011 
L 44.354192 38.116257 
L 44.739096 37.589649 
L 45.107266 36.680009 
L 45.441965 35.211832 
L 45.709725 32.961757 
L 45.89381 29.368615 
L 45.977485 24.167967 
L 46.010955 17.476581 
L 46.02769 23.150684 
L 46.02769 23.150684 
L 46.195039 31.554825 
L 46.496269 35.351631 
L 46.914643 37.833645 
L 47.399958 39.471675 
L 47.902007 40.44707 
L 48.303646 40.811678 
L 48.604876 40.822473 
L 48.855901 40.609191 
L 49.12366 40.052603 
L 49.374685 38.985752 
L 49.59224 37.058521 
L 49.742855 33.81033 
L 49.826529 26.601927 
L 49.843264 19.850799 
L 49.843264 19.850799 
L 49.843264 19.850799 
L 49.977144 35.565621 
L 50.244904 40.269424 
L 50.663278 43.787388 
L 51.265737 46.953315 
L 52.052281 49.897485 
L 53.039645 52.730014 
L 54.211094 55.413803 
L 55.549892 57.92331 
L 57.02257 60.210997 
L 58.595658 62.24511 
L 60.21895 63.987018 
L 61.875713 65.443189 
L 63.499006 66.581052 
L 65.072094 67.417026 
L 66.528037 67.946251 
L 67.8501 68.198793 
L 69.021549 68.205007 
L 70.042382 67.996541 
L 70.929336 67.59385 
L 71.699145 66.999706 
L 72.351809 66.216045 
L 72.920798 65.17352 
L 73.389378 63.835419 
L 73.774282 62.012098 
L 74.058777 59.486678 
L 74.242862 55.665677 
L 74.326536 49.579289 
L 74.343271 43.697041 
L 74.360006 47.426371 
L 74.360006 47.426371 
L 74.510621 57.43801 
L 74.795116 61.409396 
L 75.196755 63.991763 
L 75.732275 66.020017 
L 76.401674 67.701568 
L 77.221688 69.163931 
L 78.192316 70.43831 
L 79.296825 71.522855 
L 80.518478 72.414495 
L 81.840541 73.104948 
L 83.21281 73.571852 
L 84.601813 73.811291 
L 85.974081 73.825066 
L 87.312879 73.619239 
L 88.618207 73.192843 
L 89.856596 72.554564 
L 91.028044 71.701996 
L 92.132553 70.621988 
L 93.153386 69.309292 
L 94.07381 67.758656 
L 94.877089 65.963212 
L 95.546488 63.914269 
L 96.065272 61.618016 
L 96.450177 58.909746 
L 96.701201 55.628182 
L 96.851816 50.625174 
L 96.918756 42.50013 
L 96.952226 49.053557 
L 97.136311 55.386003 
L 97.420805 58.167804 
L 97.788975 59.758527 
L 98.190614 60.611339 
L 98.592254 61.005394 
L 98.993893 61.104942 
L 99.412268 60.970009 
L 99.880847 60.569494 
L 100.416366 59.799932 
L 101.002091 58.539217 
L 101.587815 56.716097 
L 102.123334 54.290917 
L 102.558443 51.296851 
L 102.876408 47.59661 
L 103.060493 43.113802 
L 103.144168 36.586891 
L 103.160903 30.014028 
L 103.177638 34.716889 
L 103.177638 34.716889 
L 103.328252 43.862118 
L 103.562542 46.227885 
L 103.780097 46.715312 
L 103.897242 46.624337 
L 104.064591 46.113972 
L 104.282146 44.607036 
L 104.466231 41.754985 
L 104.583376 36.316647 
L 104.616846 27.393069 
L 104.650316 35.473957 
L 104.650316 35.473957 
L 104.8344 42.917357 
L 105.10216 45.607108 
L 105.36992 46.502692 
L 105.520535 46.526879 
L 105.654414 46.254063 
L 105.838499 45.272977 
L 106.022584 42.878645 
L 106.139729 38.382084 
L 106.189934 25.637976 
L 106.223404 37.266002 
L 106.223404 37.266002 
L 106.407488 44.406917 
L 106.675248 47.245111 
L 106.892803 47.924095 
L 106.976478 47.833619 
L 107.093622 47.210036 
L 107.227502 44.896254 
L 107.311177 38.152224 
L 107.327912 30.904821 
L 107.327912 30.904821 
L 107.327912 30.904821 
L 107.461792 47.685432 
L 107.746287 53.660671 
L 108.214866 58.869781 
L 108.884265 63.830899 
L 109.737749 68.507187 
L 110.775317 72.961814 
L 111.996971 77.222376 
L 113.385974 81.260671 
L 114.942327 85.10745 
L 116.682765 88.815012 
L 118.590552 92.353295 
L 120.648954 95.70459 
L 122.857971 98.880115 
L 125.217603 101.883864 
L 127.69438 104.678114 
L 130.271566 107.251583 
L 132.915693 109.578952 
L 135.593289 111.641066 
L 138.25415 113.413314 
L 140.881542 114.899362 
L 143.425259 116.086769 
L 145.868565 116.985864 
L 148.177992 117.603684 
L 150.353539 117.960023 
L 152.395206 118.071608 
L 154.286259 117.95535 
L 156.043432 117.627611 
L 157.683459 117.096662 
L 159.206342 116.370958 
L 160.628815 115.447508 
L 161.967614 114.311263 
L 163.222737 112.950855 
L 164.394185 111.351125 
L 165.498694 109.459742 
L 166.519527 107.264456 
L 167.456686 104.717229 
L 168.31017 101.740306 
L 169.063244 98.276425 
L 169.682438 94.34812 
L 170.134283 90.071083 
L 170.418777 85.361784 
L 170.569392 78.920219 
L 170.619597 71.285671 
L 170.653067 78.135507 
L 170.653067 78.135507 
L 170.837152 83.768831 
L 171.071441 85.123547 
L 171.222056 85.225158 
L 171.238791 85.2142 
L 171.389406 84.955492 
L 171.640431 83.978874 
L 171.97513 81.682843 
L 172.3433 77.46983 
L 172.661264 71.085657 
L 172.878819 61.794538 
L 172.962494 50.624699 
L 173.046169 56.680189 
L 173.113109 53.757086 
L 173.146579 46.333407 
L 173.180049 52.289744 
L 173.180049 52.289744 
L 173.280458 56.125166 
L 173.313928 55.567783 
L 173.364133 52.05185 
L 173.380868 47.605181 
L 173.397603 48.784131 
L 173.397603 48.784131 
L 173.498013 57.222681 
L 173.531483 56.633463 
L 173.564953 51.810059 
L 173.581688 52.602248 
L 173.581688 52.602248 
L 173.749038 69.10744 
L 174.100472 79.78137 
L 174.602522 88.309051 
L 175.255186 95.614237 
L 176.04173 101.961961 
L 176.978888 107.747563 
L 178.066662 113.096795 
L 179.321785 118.165125 
L 180.760993 123.047986 
L 182.384286 127.763708 
L 184.208399 132.374216 
L 186.233331 136.887892 
L 186.672157 137.8 
L 186.672157 137.8 
" style="fill:none;stroke:#008000;stroke-linecap:square;"/>
   </g>
   <g id="line2d_3">
    <path clip-path="url(#pb3e519da5f)" d="M 27.06696 5.412256 
L 27.284515 16.476013 
L 27.619214 22.291482 
L 28.037589 25.893817 
L 28.489433 28.042703 
L 28.907808 29.0926 
L 29.225772 29.397825 
L 29.443327 29.354317 
L 29.660882 29.068407 
L 29.911906 28.329528 
L 30.162931 26.829039 
L 30.363751 24.22061 
L 30.49763 18.987156 
L 30.547835 11.955421 
L 30.581305 18.799325 
L 30.581305 18.799325 
L 30.76539 25.559655 
L 31.083355 29.140961 
L 31.484994 31.324855 
L 31.920103 32.587369 
L 32.305008 33.107616 
L 32.589503 33.17811 
L 32.840527 33.004314 
L 33.108287 32.522142 
L 33.392781 31.525698 
L 33.660541 29.724121 
L 33.861361 26.822825 
L 33.978506 22.030081 
L 34.028711 13.200208 
L 34.062181 21.376226 
L 34.062181 21.376226 
L 34.246265 28.233903 
L 34.547495 31.575618 
L 34.932399 33.598993 
L 35.350774 34.727542 
L 35.702208 35.14061 
L 35.969968 35.170892 
L 36.220993 34.963154 
L 36.505487 34.39038 
L 36.806717 33.2005 
L 37.074477 31.107265 
L 37.258561 27.867294 
L 37.358971 22.300235 
L 37.392441 13.85208 
L 37.409176 20.759925 
L 37.409176 20.759925 
L 37.576526 29.39238 
L 37.86102 32.95561 
L 38.245925 35.105451 
L 38.647564 36.207845 
L 38.982264 36.587676 
L 39.233289 36.59312 
L 39.467578 36.368836 
L 39.735338 35.780452 
L 40.019833 34.574782 
L 40.270857 32.492342 
L 40.454942 28.964301 
L 40.538617 24.049503 
L 40.572087 13.074642 
L 40.588822 22.018463 
L 40.588822 22.018463 
L 40.756172 30.91437 
L 41.040666 34.474189 
L 41.408836 36.511323 
L 41.79374 37.524314 
L 42.09497 37.809022 
L 42.312525 37.762325 
L 42.546814 37.450916 
L 42.814574 36.665067 
L 43.082333 35.111211 
L 43.299888 32.445364 
L 43.433768 28.075245 
L 43.500708 19.278872 
L 43.534178 26.473896 
L 43.718263 33.170991 
L 44.019492 36.401825 
L 44.387662 38.154397 
L 44.722361 38.842751 
L 44.956651 38.939127 
L 45.157471 38.76374 
L 45.39176 38.191366 
L 45.642785 36.906619 
L 45.86034 34.554308 
L 46.010955 30.259033 
L 46.061159 25.325594 
L 46.077894 17.06861 
L 46.094629 24.335066 
L 46.094629 24.335066 
L 46.245244 33.725702 
L 46.513004 37.414959 
L 46.847703 39.341563 
L 47.148933 40.055157 
L 47.349753 40.120538 
L 47.517103 39.906648 
L 47.717922 39.233018 
L 47.935477 37.635618 
L 48.102827 34.79766 
L 48.203237 29.56535 
L 48.236707 13.301495 
L 48.253442 27.118936 
L 48.253442 27.118936 
L 48.420791 36.336942 
L 48.705286 39.875805 
L 49.006515 41.325598 
L 49.207335 41.569509 
L 49.32448 41.438363 
L 49.475095 40.878869 
L 49.642445 39.380675 
L 49.776324 36.348075 
L 49.843264 31.588516 
L 49.876734 27.097077 
L 49.893469 31.525199 
L 49.893469 31.525199 
L 50.060819 39.663284 
L 50.328579 42.950955 
L 50.529398 43.656204 
L 50.546133 43.652353 
L 50.629808 43.438325 
L 50.746953 42.260572 
L 50.847363 38.570569 
L 50.897568 31.576432 
L 50.914303 36.666096 
L 50.914303 36.666096 
L 51.098388 46.522409 
L 51.449822 52.77134 
L 52.018811 58.859527 
L 52.805355 64.851005 
L 53.792719 70.64934 
L 54.947433 76.116067 
L 56.252761 81.233087 
L 57.675234 85.924566 
L 59.181382 90.143675 
L 60.75447 93.898918 
L 62.344293 97.127168 
L 63.900645 99.799182 
L 65.406793 101.955735 
L 66.812532 103.592397 
L 68.08439 104.744993 
L 69.188898 105.463207 
L 70.142792 105.831303 
L 70.946071 105.911327 
L 71.61547 105.762295 
L 72.201194 105.40306 
L 72.719979 104.813403 
L 73.171823 103.954038 
L 73.573462 102.678183 
L 73.891427 100.897138 
L 74.125717 98.309714 
L 74.276332 94.07179 
L 74.343271 83.589348 
L 74.393476 92.428271 
L 74.594296 99.041814 
L 74.912261 102.435413 
L 75.364105 104.978133 
L 75.966564 107.113086 
L 76.719638 108.96198 
L 77.606592 110.556169 
L 78.610691 111.910705 
L 79.698464 113.010011 
L 80.819708 113.835095 
L 81.957686 114.402304 
L 83.095665 114.722464 
L 84.216908 114.806694 
L 85.321417 114.666174 
L 86.425925 114.297623 
L 87.530434 113.688157 
L 88.634942 112.817471 
L 89.739451 111.65586 
L 90.843959 110.160339 
L 91.931733 108.299096 
L 92.969301 106.076591 
L 93.956665 103.424112 
L 94.843619 100.391666 
L 95.596693 97.005599 
L 96.165682 93.418439 
L 96.550587 89.58668 
L 96.784876 84.890014 
L 96.885286 78.540005 
L 96.918756 73.553079 
L 96.935491 78.067378 
L 96.935491 78.067378 
L 97.102841 85.507466 
L 97.353865 87.911751 
L 97.63836 88.846247 
L 97.889385 89.078516 
L 98.123674 89.011927 
L 98.424904 88.648789 
L 98.843278 87.753456 
L 99.395533 85.998148 
L 100.048197 83.120374 
L 100.717596 79.128382 
L 101.353525 73.980508 
L 101.905779 67.705287 
L 102.340889 60.151498 
L 102.591913 52.064843 
L 102.675588 44.663213 
L 102.692323 38.826182 
L 102.709058 41.625336 
L 102.709058 41.625336 
L 102.842938 48.607126 
L 102.859673 48.628369 
L 102.876408 48.591797 
L 102.876408 48.591797 
L 102.960083 47.655596 
L 103.077228 43.296763 
L 103.127433 32.835585 
L 103.177638 42.360932 
L 103.344987 46.875077 
L 103.411927 47.123054 
L 103.462132 47.035598 
L 103.562542 46.187004 
L 103.696422 42.785734 
L 103.763362 36.222642 
L 103.780097 28.350888 
L 103.780097 28.350888 
L 103.780097 28.350888 
L 103.913977 44.334463 
L 104.114796 46.490899 
L 104.165001 46.517781 
L 104.198471 46.448781 
L 104.315616 45.614916 
L 104.449496 42.815541 
L 104.533171 36.328051 
L 104.549906 27.230937 
L 104.566641 35.528349 
L 104.566641 35.528349 
L 104.717256 44.453642 
L 104.918075 46.382993 
L 104.96828 46.430969 
L 105.018485 46.335298 
L 105.13563 45.477597 
L 105.26951 42.543375 
L 105.33645 37.822666 
L 105.36992 32.669145 
L 105.386655 37.397495 
L 105.386655 37.397495 
L 105.554004 45.14332 
L 105.754824 46.705718 
L 105.821764 46.613579 
L 105.922174 45.859724 
L 106.039319 43.307333 
L 106.106259 38.723088 
L 106.139729 33.101231 
L 106.156464 38.128468 
L 106.156464 38.128468 
L 106.323813 46.019488 
L 106.491163 47.339246 
L 106.507898 47.335697 
L 106.574838 47.06494 
L 106.675248 45.586484 
L 106.758923 41.648757 
L 106.792393 34.490683 
L 106.825863 40.463972 
L 106.825863 40.463972 
L 106.993213 47.710663 
L 107.093622 48.417526 
L 107.127092 48.329246 
L 107.210767 47.080207 
L 107.277707 43.238412 
L 107.311177 35.089626 
L 107.327912 42.025108 
L 107.327912 42.025108 
L 107.495262 50.227095 
L 107.511997 50.291765 
L 107.528732 50.245467 
L 107.528732 50.245467 
L 107.578937 49.037302 
L 107.629142 38.14786 
L 107.645877 47.203238 
L 107.645877 47.203238 
L 107.829961 60.442955 
L 108.214866 71.054598 
L 108.817325 81.450741 
L 109.603869 91.176253 
L 110.557763 100.253025 
L 111.679006 108.819204 
L 112.950865 116.849801 
L 114.373338 124.434064 
L 115.946425 131.628656 
L 117.490512 137.8 
M 170.314217 137.8 
L 170.535922 130.220689 
L 170.619597 119.699395 
L 170.669802 127.471701 
L 170.837152 130.671388 
L 170.904092 130.797397 
L 170.954297 130.731382 
L 171.104911 129.998906 
L 171.389406 127.21294 
L 171.791045 120.875837 
L 172.20942 110.59435 
L 172.560854 96.391649 
L 172.811879 76.66836 
L 173.046169 49.772602 
L 173.062904 54.786739 
L 173.096374 56.377947 
L 173.113109 55.673319 
L 173.113109 55.673319 
L 173.146579 46.485814 
L 173.180049 54.960972 
L 173.180049 54.960972 
L 173.213518 56.090867 
L 173.230253 55.450271 
L 173.230253 55.450271 
L 173.263723 48.00456 
L 173.297193 54.739646 
L 173.297193 54.739646 
L 173.330663 56.241304 
L 173.347398 55.748443 
L 173.347398 55.748443 
L 173.380868 48.635509 
L 173.414338 55.363657 
L 173.414338 55.363657 
L 173.447808 56.694278 
L 173.464543 55.73799 
L 173.464543 55.73799 
L 173.498013 52.085886 
L 173.498013 52.085886 
L 173.498013 52.085886 
L 173.715568 79.320248 
L 174.016797 103.316904 
L 174.468642 122.066467 
L 175.064351 137.8 
L 175.064351 137.8 
" style="fill:none;stroke:#ff0000;stroke-linecap:square;"/>
   </g>
   <g id="line2d_4">
    <path clip-path="url(#pb3e519da5f)" d="M 27.06696 11.507838 
L 27.26778 21.270184 
L 27.468599 23.247435 
L 27.535539 22.918566 
L 27.635949 20.760282 
L 27.702889 14.011695 
L 27.719624 10.453582 
L 27.719624 10.453582 
L 27.719624 10.453582 
L 27.853504 23.882528 
L 28.071059 26.898121 
L 28.121264 26.984571 
L 28.171469 26.865526 
L 28.271878 25.839906 
L 28.372288 22.513223 
L 28.422493 14.606428 
L 28.472698 21.73355 
L 28.656783 27.914778 
L 28.824133 28.893419 
L 28.840868 28.870333 
L 28.924543 28.394147 
L 29.041687 26.15699 
L 29.125362 19.722183 
L 29.142097 8.19333 
L 29.158832 19.386668 
L 29.158832 19.386668 
L 29.309447 28.318945 
L 29.510267 30.17488 
L 29.560472 30.114173 
L 29.660882 29.332307 
L 29.778026 26.359825 
L 29.861701 17.15947 
L 29.895171 24.074411 
L 30.079256 30.286578 
L 30.229871 31.14293 
L 30.246606 31.127833 
L 30.330281 30.70896 
L 30.447425 28.738344 
L 30.5311 24.236394 
L 30.56457 8.86797 
L 30.59804 24.170861 
L 30.59804 24.170861 
L 30.76539 30.780103 
L 30.93274 31.919026 
L 30.949475 31.908072 
L 31.03315 31.512671 
L 31.150295 29.617183 
L 31.250704 23.341894 
L 31.267439 17.988795 
L 31.284174 20.772757 
L 31.284174 20.772757 
L 31.434789 30.80125 
L 31.635609 32.568806 
L 31.685814 32.475719 
L 31.786224 31.618516 
L 31.903368 28.494781 
L 31.970308 19.777406 
L 32.020513 26.51626 
L 32.204598 32.404196 
L 32.338478 33.129375 
L 32.371948 33.08605 
L 32.472358 32.377396 
L 32.589503 29.719908 
L 32.656442 24.596438 
L 32.673177 19.487437 
L 32.689912 21.764156 
L 32.689912 21.764156 
L 32.840527 31.917811 
L 33.041347 33.622657 
L 33.108287 33.419686 
L 33.225432 31.983118 
L 33.325842 28.133877 
L 33.359312 24.060212 
L 33.376047 11.182326 
L 33.392781 23.806409 
L 33.392781 23.806409 
L 33.543396 32.498361 
L 33.727481 34.065563 
L 33.777686 33.980756 
L 33.878096 33.128147 
L 33.995241 29.998468 
L 34.062181 21.33137 
L 34.112386 27.978626 
L 34.29647 33.815006 
L 34.43035 34.465325 
L 34.46382 34.395806 
L 34.56423 33.571093 
L 34.681375 30.512336 
L 34.76505 21.546002 
L 34.79852 28.205704 
L 34.982604 34.186902 
L 35.099749 34.836363 
L 35.149954 34.759944 
L 35.250364 33.908895 
L 35.367509 30.734298 
L 35.434449 21.342475 
L 35.484654 28.901109 
L 35.668738 34.592188 
L 35.785883 35.181035 
L 35.819353 35.13365 
L 35.919763 34.370731 
L 36.036908 31.448412 
L 36.103848 24.712536 
L 36.120583 19.297811 
L 36.120583 19.297811 
L 36.120583 19.297811 
L 36.254463 33.431363 
L 36.455282 35.50126 
L 36.505487 35.408418 
L 36.605897 34.488598 
L 36.723042 30.99092 
L 36.773247 25.280876 
L 36.789982 18.588676 
L 36.789982 18.588676 
L 36.789982 18.588676 
L 36.923862 33.753886 
L 37.124681 35.803973 
L 37.174886 35.695698 
L 37.275296 34.719268 
L 37.392441 30.947764 
L 37.442646 23.389922 
L 37.492851 29.790407 
L 37.676936 35.564781 
L 37.777346 36.088574 
L 37.827551 36.0067 
L 37.92796 35.08063 
L 38.045105 31.448285 
L 38.112045 22.611481 
L 38.145515 29.853536 
L 38.3296 35.839769 
L 38.43001 36.362879 
L 38.480215 36.272022 
L 38.580625 35.30197 
L 38.697769 31.421962 
L 38.747974 22.52858 
L 38.798179 30.658599 
L 38.982264 36.187293 
L 39.082674 36.625673 
L 39.116144 36.558618 
L 39.216554 35.642013 
L 39.333699 31.89932 
L 39.383903 24.326554 
L 39.434108 30.74789 
L 39.618193 36.448843 
L 39.718603 36.877606 
L 39.752073 36.801069 
L 39.852483 35.825198 
L 39.969628 31.740854 
L 40.003098 27.736219 
L 40.019833 16.99615 
L 40.036568 27.255879 
L 40.036568 27.255879 
L 40.187182 35.931967 
L 40.337797 37.125155 
L 40.354532 37.107792 
L 40.438207 36.575009 
L 40.555352 33.877271 
L 40.622292 28.020804 
L 40.639027 16.933766 
L 40.655762 27.585983 
L 40.655762 27.585983 
L 40.806377 36.223792 
L 40.956991 37.361581 
L 40.973726 37.334121 
L 41.057401 36.726833 
L 41.174546 33.69338 
L 41.241486 24.775079 
L 41.291691 31.746143 
L 41.475776 37.282001 
L 41.559451 37.595794 
L 41.59292 37.509509 
L 41.69333 36.407194 
L 41.79374 32.703714 
L 41.843945 19.834893 
L 41.89415 32.482959 
L 42.078235 37.59013 
L 42.145175 37.828535 
L 42.19538 37.676844 
L 42.29579 36.342786 
L 42.396199 31.513987 
L 42.429669 19.232962 
L 42.463139 31.225872 
L 42.463139 31.225872 
L 42.630489 37.550057 
L 42.730899 38.051887 
L 42.764369 37.953395 
L 42.864779 36.720966 
L 42.965189 32.215545 
L 42.998659 24.572737 
L 43.032129 31.05519 
L 43.032129 31.05519 
L 43.199478 37.783665 
L 43.283153 38.279553 
L 43.333358 38.158735 
L 43.433768 36.807068 
L 43.534178 31.480206 
L 43.567648 24.054099 
L 43.584383 30.224532 
L 43.584383 30.224532 
L 43.751733 37.977067 
L 43.835407 38.503824 
L 43.885612 38.379142 
L 43.986022 36.951286 
L 44.069697 32.926344 
L 44.103167 25.734281 
L 44.136637 31.593609 
L 44.136637 31.593609 
L 44.303987 38.336056 
L 44.387662 38.72664 
L 44.421132 38.61387 
L 44.521542 37.149269 
L 44.605216 32.80974 
L 44.638686 20.882448 
L 44.672156 32.495908 
L 44.672156 32.495908 
L 44.839506 38.663341 
L 44.906446 38.956202 
L 44.956651 38.748094 
L 45.057061 36.889737 
L 45.140736 30.007083 
L 45.157471 20.964987 
L 45.157471 20.964987 
L 45.157471 20.964987 
L 45.29135 38.001919 
L 45.408495 39.184846 
L 45.441965 39.111804 
L 45.52564 38.066946 
L 45.609315 34.559916 
L 45.65952 24.937918 
L 45.69299 33.771597 
L 45.69299 33.771597 
L 45.86034 39.272128 
L 45.910545 39.411767 
L 45.944015 39.274231 
L 46.02769 37.937514 
L 46.111364 32.961588 
L 46.144834 27.130903 
L 46.161569 32.260981 
L 46.161569 32.260981 
L 46.328919 39.450734 
L 46.379124 39.652961 
L 46.412594 39.53996 
L 46.412594 39.53996 
L 46.496269 38.20835 
L 46.579944 32.913308 
L 46.596679 28.548473 
L 46.613414 29.069148 
L 46.613414 29.069148 
L 46.764029 39.426971 
L 46.830968 39.895056 
L 46.881173 39.673669 
L 46.964848 37.895584 
L 47.031788 32.564733 
L 47.048523 25.76708 
L 47.065258 31.015672 
L 47.065258 31.015672 
L 47.215873 39.820886 
L 47.266078 40.14216 
L 47.316283 39.932046 
L 47.399958 38.035994 
L 47.466898 31.482603 
L 47.483633 25.942356 
L 47.483633 25.942356 
L 47.483633 25.942356 
L 47.617512 39.781247 
L 47.684452 40.399807 
L 47.734657 40.173097 
L 47.818332 38.041379 
L 47.868537 33.55999 
L 47.885272 27.332101 
L 47.902007 31.696697 
L 47.902007 31.696697 
L 48.052622 40.505622 
L 48.086092 40.671732 
L 48.119562 40.553576 
L 48.119562 40.553576 
L 48.203237 38.655455 
L 48.270176 30.253255 
L 48.320381 36.78035 
L 48.470996 40.952792 
L 48.487731 40.8945 
L 48.554671 39.723417 
L 48.621611 35.039997 
L 48.638346 30.401274 
L 48.655081 31.680041 
L 48.655081 31.680041 
L 48.805696 41.200806 
L 48.822431 41.2522 
L 48.839166 41.21452 
L 48.839166 41.21452 
L 48.906106 40.01919 
L 48.973046 34.545172 
L 48.989781 24.424223 
L 49.006515 34.008679 
L 49.006515 34.008679 
L 49.15713 41.568268 
L 49.1906 41.373737 
L 49.25754 39.294713 
L 49.307745 31.301409 
L 49.35795 38.522033 
L 49.475095 41.901534 
L 49.508565 41.580547 
L 49.575505 38.61123 
L 49.608975 31.265991 
L 49.642445 37.515951 
L 49.642445 37.515951 
L 49.759589 42.271706 
L 49.793059 41.960611 
L 49.859999 38.466684 
L 49.893469 29.107473 
L 49.910204 36.827208 
L 49.910204 36.827208 
L 50.027349 42.663973 
L 50.044084 42.530997 
L 50.111024 39.344834 
L 50.144494 27.888334 
L 50.161229 37.407859 
L 50.161229 37.407859 
L 50.261639 43.109205 
L 50.295109 42.691549 
L 50.345314 39.296466 
L 50.362049 35.125277 
L 50.378784 35.431229 
L 50.378784 35.431229 
L 50.479194 43.598413 
L 50.512663 42.946836 
L 50.579603 36.004242 
L 50.613073 42.282831 
L 50.663278 44.155309 
L 50.713483 42.410985 
L 50.746953 28.530801 
L 50.763688 39.971003 
L 50.763688 39.971003 
L 50.830628 44.806 
L 50.880833 41.233466 
L 50.897568 25.33889 
L 50.897568 25.33889 
L 50.897568 25.33889 
L 50.964508 45.588104 
L 51.014713 38.851396 
L 51.081653 46.44532 
L 51.098388 44.971095 
L 51.115123 34.443474 
L 51.115123 34.443474 
L 51.115123 34.443474 
L 51.265737 64.02907 
L 51.516762 96.904508 
L 52.002076 130.202844 
L 52.145566 137.8 
M 102.186342 137.8 
L 102.458034 94.170364 
L 102.692323 42.000111 
L 102.759263 44.505346 
L 102.792733 49.027945 
L 102.809468 47.242536 
L 102.826203 31.520393 
L 102.842938 46.843818 
L 102.842938 46.843818 
L 102.859673 48.532025 
L 102.876408 48.357071 
L 102.876408 48.357071 
L 102.893143 46.366664 
L 102.909878 29.968368 
L 102.926613 46.052965 
L 102.926613 46.052965 
L 102.960083 48.180838 
L 102.976818 47.109605 
L 102.976818 47.109605 
L 103.010288 42.204289 
L 103.027023 46.513385 
L 103.027023 46.513385 
L 103.060493 47.794475 
L 103.077228 46.738609 
L 103.077228 46.738609 
L 103.110698 40.255618 
L 103.127433 45.667121 
L 103.127433 45.667121 
L 103.160903 47.613974 
L 103.177638 47.100439 
L 103.177638 47.100439 
L 103.211108 40.387023 
L 103.244578 45.961935 
L 103.244578 45.961935 
L 103.278048 47.357089 
L 103.294783 46.815814 
L 103.294783 46.815814 
L 103.328252 40.984462 
L 103.378457 46.709159 
L 103.378457 46.709159 
L 103.395192 47.157872 
L 103.411927 46.916356 
L 103.411927 46.916356 
L 103.445397 43.558386 
L 103.462132 24.525515 
L 103.478867 43.438845 
L 103.478867 43.438845 
L 103.529072 46.98628 
L 103.562542 45.52094 
L 103.562542 45.52094 
L 103.596012 30.888535 
L 103.612747 43.276302 
L 103.612747 43.276302 
L 103.662952 46.841865 
L 103.713157 43.785387 
L 103.729892 38.017167 
L 103.746627 41.669726 
L 103.746627 41.669726 
L 103.813567 46.665332 
L 103.847037 44.940062 
L 103.880507 33.414866 
L 103.897242 42.933032 
L 103.897242 42.933032 
L 103.947447 46.599174 
L 103.997652 44.603612 
L 104.031122 35.764576 
L 104.047856 43.011541 
L 104.047856 43.011541 
L 104.098061 46.516323 
L 104.148266 44.720751 
L 104.181736 26.633151 
L 104.198471 42.34294 
L 104.198471 42.34294 
L 104.265411 46.457978 
L 104.315616 43.240478 
L 104.332351 38.058136 
L 104.349086 40.636815 
L 104.349086 40.636815 
L 104.416026 46.447628 
L 104.466231 44.281603 
L 104.499701 34.995359 
L 104.516436 42.613812 
L 104.516436 42.613812 
L 104.583376 46.399346 
L 104.633581 43.441057 
L 104.650316 39.195038 
L 104.667051 39.651151 
L 104.667051 39.651151 
L 104.733991 46.398772 
L 104.784195 44.737882 
L 104.817665 35.277689 
L 104.851135 44.179169 
L 104.851135 44.179169 
L 104.90134 46.426298 
L 104.951545 44.318876 
L 104.985015 33.055009 
L 105.00175 42.364668 
L 105.00175 42.364668 
L 105.06869 46.439756 
L 105.118895 43.837392 
L 105.152365 38.230881 
L 105.1691 43.200933 
L 105.1691 43.200933 
L 105.23604 46.4359 
L 105.26951 45.055582 
L 105.30298 37.928628 
L 105.33645 43.990145 
L 105.33645 43.990145 
L 105.386655 46.531355 
L 105.43686 44.564517 
L 105.47033 31.268969 
L 105.487065 42.438913 
L 105.487065 42.438913 
L 105.554004 46.585719 
L 105.604209 43.666222 
L 105.620944 39.291346 
L 105.637679 40.14711 
L 105.637679 40.14711 
L 105.704619 46.673635 
L 105.754824 44.559852 
L 105.788294 36.42508 
L 105.805029 43.186503 
L 105.805029 43.186503 
L 105.855234 46.729035 
L 105.905439 45.024957 
L 105.938909 29.053722 
L 105.955644 42.79554 
L 105.955644 42.79554 
L 106.022584 46.820072 
L 106.056054 45.15134 
L 106.089524 32.593881 
L 106.106259 43.141638 
L 106.106259 43.141638 
L 106.156464 46.967193 
L 106.206669 44.858624 
L 106.240139 39.158613 
L 106.256874 44.226544 
L 106.256874 44.226544 
L 106.307078 47.133553 
L 106.340548 45.860167 
L 106.340548 45.860167 
L 106.374018 34.579894 
L 106.407488 45.656993 
L 106.407488 45.656993 
L 106.440958 47.269246 
L 106.474428 46.317216 
L 106.474428 46.317216 
L 106.507898 38.394222 
L 106.541368 45.685953 
L 106.541368 45.685953 
L 106.574838 47.438353 
L 106.608308 46.379709 
L 106.608308 46.379709 
L 106.641778 33.838629 
L 106.675248 46.311761 
L 106.675248 46.311761 
L 106.708718 47.638993 
L 106.725453 47.202566 
L 106.725453 47.202566 
L 106.775658 41.522726 
L 106.792393 45.767391 
L 106.792393 45.767391 
L 106.825863 47.838822 
L 106.859333 46.401008 
L 106.892803 41.023453 
L 106.909538 45.937808 
L 106.909538 45.937808 
L 106.943008 48.077722 
L 106.976478 46.201424 
L 106.993213 41.280064 
L 107.009948 43.771462 
L 107.009948 43.771462 
L 107.060152 48.252169 
L 107.093622 44.073211 
L 107.093622 44.073211 
L 107.110357 42.103033 
L 107.110357 42.103033 
L 107.110357 42.103033 
L 107.244237 48.878385 
L 107.277707 46.471958 
L 107.294442 38.70534 
L 107.294442 38.70534 
L 107.294442 38.70534 
L 107.411587 49.662637 
L 107.445057 43.855217 
L 107.461792 47.440819 
L 107.461792 47.440819 
L 107.478527 49.975424 
L 107.495262 49.63676 
L 107.495262 49.63676 
L 107.511997 44.25453 
L 107.528732 48.581066 
L 107.528732 48.581066 
L 107.545467 50.663539 
L 107.562202 49.03143 
L 107.562202 49.03143 
L 107.578937 46.327108 
L 107.578937 46.327108 
L 107.578937 46.327108 
L 107.645877 52.055702 
L 107.645877 52.055702 
L 107.645877 52.055702 
L 107.662612 42.871189 
L 107.662612 42.871189 
L 107.662612 42.871189 
L 107.896901 119.766907 
L 107.994905 137.8 
M 172.841068 137.8 
L 172.995964 56.469719 
L 173.029434 56.818853 
L 173.062904 53.884801 
L 173.079639 48.476014 
L 173.079639 48.476014 
L 173.079639 48.476014 
L 173.113109 56.324698 
L 173.129844 54.758479 
L 173.129844 54.758479 
L 173.146579 47.525307 
L 173.146579 47.525307 
L 173.146579 47.525307 
L 173.230253 56.120147 
L 173.263723 51.496593 
L 173.280458 55.958259 
L 173.297193 55.365929 
L 173.297193 55.365929 
L 173.313928 38.064448 
L 173.330663 55.343535 
L 173.330663 55.343535 
L 173.347398 56.191653 
L 173.347398 56.191653 
L 173.347398 56.191653 
L 173.380868 52.627156 
L 173.380868 52.627156 
L 173.380868 52.627156 
L 173.414338 56.309251 
L 173.431073 53.772076 
L 173.431073 53.772076 
L 173.447808 49.732331 
L 173.447808 49.732331 
L 173.447808 49.732331 
L 173.564953 58.267696 
L 173.598423 56.500543 
L 173.615158 57.319659 
L 173.615158 57.319659 
L 173.631893 59.283034 
L 173.676437 137.8 
L 173.676437 137.8 
" style="fill:none;stroke:#00bfbf;stroke-linecap:square;"/>
   </g>
   <g id="patch_3">
    <path d="M 27 13.68 
L 194.4 13.68 
" style="fill:none;stroke:#000000;stroke-linecap:square;stroke-linejoin:miter;"/>
   </g>
   <g id="patch_4">
    <path d="M 194.4 119.7 
L 194.4 13.68 
" style="fill:none;stroke:#000000;stroke-linecap:square;stroke-linejoin:miter;"/>
   </g>
   <g id="patch_5">
    <path d="M 27 119.7 
L 194.4 119.7 
" style="fill:none;stroke:#000000;stroke-linecap:square;stroke-linejoin:miter;"/>
   </g>
   <g id="patch_6">
    <path d="M 27 119.7 
L 27 13.68 
" style="fill:none;stroke:#000000;stroke-linecap:square;stroke-linejoin:miter;"/>
   </g>
   <g id="matplotlib.axis_1">
    <g id="xtick_1">
     <g id="line2d_5">
      <path clip-path="url(#pb3e519da5f)" d="M 27 119.7 
L 27 13.68 
" style="fill:none;opacity:0.3;stroke:#808080;stroke-dasharray:1.000000,3.000000;stroke-dashoffset:0.0;stroke-width:0.5;"/>
     </g>
     <g id="line2d_6">
      <defs>
       <path d="M 0 0 
L 0 -4 
" id="m956da1561b" style="stroke:#000000;stroke-width:0.5;"/>
      </defs>
      <g>
       <use style="stroke:#000000;stroke-width:0.5;" x="27.0" xlink:href="#m956da1561b" y="119.7"/>
      </g>
     </g>
     <g id="line2d_7">
      <defs>
       <path d="M 0 0 
L 0 4 
" id="m922121ccd0" style="stroke:#000000;stroke-width:0.5;"/>
      </defs>
      <g>
       <use style="stroke:#000000;stroke-width:0.5;" x="27.0" xlink:href="#m922121ccd0" y="13.68"/>
      </g>
     </g>
     <g id="text_1">
      <!-- 0.0 -->
      <defs>
       <path d="M 31.78125 3.421875 
Q 39.265625 3.421875 42.96875 11.625 
Q 46.6875 19.828125 46.6875 36.375 
Q 46.6875 52.984375 42.96875 61.1875 
Q 39.265625 69.390625 31.78125 69.390625 
Q 24.3125 69.390625 20.59375 61.1875 
Q 16.890625 52.984375 16.890625 36.375 
Q 16.890625 19.828125 20.59375 11.625 
Q 24.3125 3.421875 31.78125 3.421875 
M 31.78125 -1.421875 
Q 19.921875 -1.421875 13.25 8.53125 
Q 6.59375 18.5 6.59375 36.375 
Q 6.59375 54.296875 13.25 64.25 
Q 19.921875 74.21875 31.78125 74.21875 
Q 43.703125 74.21875 50.34375 64.25 
Q 56.984375 54.296875 56.984375 36.375 
Q 56.984375 18.5 50.34375 8.53125 
Q 43.703125 -1.421875 31.78125 -1.421875 
" id="BitstreamVeraSerif-Roman-30"/>
       <path d="M 9.421875 5.078125 
Q 9.421875 7.8125 11.28125 9.71875 
Q 13.140625 11.625 15.921875 11.625 
Q 18.609375 11.625 20.5 9.71875 
Q 22.40625 7.8125 22.40625 5.078125 
Q 22.40625 2.390625 20.5 0.484375 
Q 18.609375 -1.421875 15.921875 -1.421875 
Q 13.140625 -1.421875 11.28125 0.453125 
Q 9.421875 2.34375 9.421875 5.078125 
" id="BitstreamVeraSerif-Roman-2e"/>
      </defs>
      <g transform="translate(20.63875 129.77875)scale(0.08 -0.08)">
       <use xlink:href="#BitstreamVeraSerif-Roman-30"/>
       <use x="63.623046875" xlink:href="#BitstreamVeraSerif-Roman-2e"/>
       <use x="95.41015625" xlink:href="#BitstreamVeraSerif-Roman-30"/>
      </g>
     </g>
    </g>
    <g id="xtick_2">
     <g id="line2d_8">
      <path clip-path="url(#pb3e519da5f)" d="M 60.48 119.7 
L 60.48 13.68 
" style="fill:none;opacity:0.3;stroke:#808080;stroke-dasharray:1.000000,3.000000;stroke-dashoffset:0.0;stroke-width:0.5;"/>
     </g>
     <g id="line2d_9">
      <g>
       <use style="stroke:#000000;stroke-width:0.5;" x="60.48" xlink:href="#m956da1561b" y="119.7"/>
      </g>
     </g>
     <g id="line2d_10">
      <g>
       <use style="stroke:#000000;stroke-width:0.5;" x="60.48" xlink:href="#m922121ccd0" y="13.68"/>
      </g>
     </g>
     <g id="text_2">
      <!-- 0.5 -->
      <defs>
       <path d="M 50.296875 72.90625 
L 50.296875 64.890625 
L 16.890625 64.890625 
L 16.890625 44 
Q 19.4375 45.75 22.828125 46.625 
Q 26.21875 47.515625 30.421875 47.515625 
Q 42.234375 47.515625 49.0625 40.96875 
Q 55.90625 34.421875 55.90625 23.09375 
Q 55.90625 11.53125 49 5.046875 
Q 42.09375 -1.421875 29.59375 -1.421875 
Q 24.5625 -1.421875 19.28125 -0.1875 
Q 14.015625 1.03125 8.5 3.515625 
L 8.5 17.671875 
L 14.015625 17.671875 
Q 14.453125 10.75 18.421875 7.078125 
Q 22.40625 3.421875 29.59375 3.421875 
Q 37.3125 3.421875 41.453125 8.5 
Q 45.609375 13.578125 45.609375 23.09375 
Q 45.609375 32.5625 41.484375 37.609375 
Q 37.359375 42.671875 29.59375 42.671875 
Q 25.203125 42.671875 21.84375 41.109375 
Q 18.5 39.546875 15.921875 36.28125 
L 11.71875 36.28125 
L 11.71875 72.90625 
z
" id="BitstreamVeraSerif-Roman-35"/>
      </defs>
      <g transform="translate(54.11875 129.77875)scale(0.08 -0.08)">
       <use xlink:href="#BitstreamVeraSerif-Roman-30"/>
       <use x="63.623046875" xlink:href="#BitstreamVeraSerif-Roman-2e"/>
       <use x="95.41015625" xlink:href="#BitstreamVeraSerif-Roman-35"/>
      </g>
     </g>
    </g>
    <g id="xtick_3">
     <g id="line2d_11">
      <path clip-path="url(#pb3e519da5f)" d="M 93.96 119.7 
L 93.96 13.68 
" style="fill:none;opacity:0.3;stroke:#808080;stroke-dasharray:1.000000,3.000000;stroke-dashoffset:0.0;stroke-width:0.5;"/>
     </g>
     <g id="line2d_12">
      <g>
       <use style="stroke:#000000;stroke-width:0.5;" x="93.96" xlink:href="#m956da1561b" y="119.7"/>
      </g>
     </g>
     <g id="line2d_13">
      <g>
       <use style="stroke:#000000;stroke-width:0.5;" x="93.96" xlink:href="#m922121ccd0" y="13.68"/>
      </g>
     </g>
     <g id="text_3">
      <!-- 1.0 -->
      <defs>
       <path d="M 14.203125 0 
L 14.203125 5.171875 
L 26.90625 5.171875 
L 26.90625 65.828125 
L 12.203125 56.296875 
L 12.203125 62.703125 
L 29.984375 74.21875 
L 36.71875 74.21875 
L 36.71875 5.171875 
L 49.421875 5.171875 
L 49.421875 0 
z
" id="BitstreamVeraSerif-Roman-31"/>
      </defs>
      <g transform="translate(87.59875 129.77875)scale(0.08 -0.08)">
       <use xlink:href="#BitstreamVeraSerif-Roman-31"/>
       <use x="63.623046875" xlink:href="#BitstreamVeraSerif-Roman-2e"/>
       <use x="95.41015625" xlink:href="#BitstreamVeraSerif-Roman-30"/>
      </g>
     </g>
    </g>
    <g id="xtick_4">
     <g id="line2d_14">
      <path clip-path="url(#pb3e519da5f)" d="M 127.44 119.7 
L 127.44 13.68 
" style="fill:none;opacity:0.3;stroke:#808080;stroke-dasharray:1.000000,3.000000;stroke-dashoffset:0.0;stroke-width:0.5;"/>
     </g>
     <g id="line2d_15">
      <g>
       <use style="stroke:#000000;stroke-width:0.5;" x="127.44" xlink:href="#m956da1561b" y="119.7"/>
      </g>
     </g>
     <g id="line2d_16">
      <g>
       <use style="stroke:#000000;stroke-width:0.5;" x="127.44" xlink:href="#m922121ccd0" y="13.68"/>
      </g>
     </g>
     <g id="text_4">
      <!-- 1.5 -->
      <g transform="translate(121.07875 129.77875)scale(0.08 -0.08)">
       <use xlink:href="#BitstreamVeraSerif-Roman-31"/>
       <use x="63.623046875" xlink:href="#BitstreamVeraSerif-Roman-2e"/>
       <use x="95.41015625" xlink:href="#BitstreamVeraSerif-Roman-35"/>
      </g>
     </g>
    </g>
    <g id="xtick_5">
     <g id="line2d_17">
      <path clip-path="url(#pb3e519da5f)" d="M 160.92 119.7 
L 160.92 13.68 
" style="fill:none;opacity:0.3;stroke:#808080;stroke-dasharray:1.000000,3.000000;stroke-dashoffset:0.0;stroke-width:0.5;"/>
     </g>
     <g id="line2d_18">
      <g>
       <use style="stroke:#000000;stroke-width:0.5;" x="160.92" xlink:href="#m956da1561b" y="119.7"/>
      </g>
     </g>
     <g id="line2d_19">
      <g>
       <use style="stroke:#000000;stroke-width:0.5;" x="160.92" xlink:href="#m922121ccd0" y="13.68"/>
      </g>
     </g>
     <g id="text_5">
      <!-- 2.0 -->
      <defs>
       <path d="M 12.796875 55.515625 
L 7.328125 55.515625 
L 7.328125 68.5 
Q 12.546875 71.296875 17.84375 72.75 
Q 23.140625 74.21875 28.21875 74.21875 
Q 39.59375 74.21875 46.1875 68.703125 
Q 52.78125 63.1875 52.78125 53.71875 
Q 52.78125 43.015625 37.84375 28.125 
Q 36.671875 27 36.078125 26.421875 
L 17.671875 8.015625 
L 48.09375 8.015625 
L 48.09375 17 
L 53.8125 17 
L 53.8125 0 
L 6.78125 0 
L 6.78125 5.328125 
L 28.90625 27.390625 
Q 36.234375 34.71875 39.359375 40.84375 
Q 42.484375 46.96875 42.484375 53.71875 
Q 42.484375 61.078125 38.640625 65.234375 
Q 34.8125 69.390625 28.078125 69.390625 
Q 21.09375 69.390625 17.28125 65.921875 
Q 13.484375 62.453125 12.796875 55.515625 
" id="BitstreamVeraSerif-Roman-32"/>
      </defs>
      <g transform="translate(154.55875 129.77875)scale(0.08 -0.08)">
       <use xlink:href="#BitstreamVeraSerif-Roman-32"/>
       <use x="63.623046875" xlink:href="#BitstreamVeraSerif-Roman-2e"/>
       <use x="95.41015625" xlink:href="#BitstreamVeraSerif-Roman-30"/>
      </g>
     </g>
    </g>
    <g id="xtick_6">
     <g id="line2d_20">
      <path clip-path="url(#pb3e519da5f)" d="M 194.4 119.7 
L 194.4 13.68 
" style="fill:none;opacity:0.3;stroke:#808080;stroke-dasharray:1.000000,3.000000;stroke-dashoffset:0.0;stroke-width:0.5;"/>
     </g>
     <g id="line2d_21">
      <g>
       <use style="stroke:#000000;stroke-width:0.5;" x="194.4" xlink:href="#m956da1561b" y="119.7"/>
      </g>
     </g>
     <g id="line2d_22">
      <g>
       <use style="stroke:#000000;stroke-width:0.5;" x="194.4" xlink:href="#m922121ccd0" y="13.68"/>
      </g>
     </g>
     <g id="text_6">
      <!-- 2.5 -->
      <g transform="translate(188.03875 129.77875)scale(0.08 -0.08)">
       <use xlink:href="#BitstreamVeraSerif-Roman-32"/>
       <use x="63.623046875" xlink:href="#BitstreamVeraSerif-Roman-2e"/>
       <use x="95.41015625" xlink:href="#BitstreamVeraSerif-Roman-35"/>
      </g>
     </g>
    </g>
    <g id="text_7">
     <!-- $\Omega$ -->
     <defs>
      <path d="M 7.71875 0 
L 4.390625 16.609375 
L 7.328125 16.609375 
Q 7.859375 13.71875 8.296875 11.5 
Q 8.734375 9.28125 9.4375 8.375 
Q 10.15625 7.46875 11.71875 7.171875 
Q 13.28125 6.890625 16.890625 6.890625 
L 23 6.890625 
Q 21.53125 12.546875 15.6875 21.65625 
Q 9.859375 30.765625 7.734375 34.890625 
Q 5.609375 39.015625 5.609375 45.515625 
Q 5.609375 53.078125 10.09375 58.765625 
Q 14.59375 64.453125 21.703125 67.484375 
Q 28.8125 70.515625 36.078125 70.515625 
Q 43.3125 70.515625 50.40625 67.484375 
Q 57.515625 64.453125 62 58.71875 
Q 66.5 52.984375 66.5 45.515625 
Q 66.5 40.4375 64.640625 35.9375 
Q 62.796875 31.453125 59.90625 26.953125 
Q 57.03125 22.46875 53.6875 16.9375 
Q 50.34375 11.421875 49.125 6.890625 
L 55.171875 6.890625 
Q 58.84375 6.890625 60.453125 7.171875 
Q 62.0625 7.46875 62.734375 8.375 
Q 63.421875 9.28125 63.84375 11.5 
Q 64.265625 13.71875 64.796875 16.609375 
L 67.671875 16.609375 
L 64.40625 0 
L 46.6875 0 
Q 45.703125 0 45.703125 1.3125 
Q 45.703125 6.390625 46.9375 11.265625 
Q 48.1875 16.15625 50.625 23.09375 
Q 53.078125 30.03125 54.4375 35.328125 
Q 55.8125 40.625 55.8125 45.515625 
Q 55.8125 51.515625 53.46875 56.640625 
Q 51.125 61.765625 46.625 64.84375 
Q 42.140625 67.921875 36.078125 67.921875 
Q 26.953125 67.921875 21.625 61.40625 
Q 16.3125 54.890625 16.3125 45.515625 
Q 16.359375 40.375 17.53125 35.828125 
Q 18.703125 31.296875 21.3125 23.71875 
Q 23.921875 16.15625 25.171875 11.265625 
Q 26.421875 6.390625 26.421875 1.3125 
Q 26.421875 0 25.390625 0 
z
" id="Cmr10-ad"/>
     </defs>
     <g transform="translate(107.78 142.52125)scale(0.08 -0.08)">
      <use transform="translate(0.0 0.484375)" xlink:href="#Cmr10-ad"/>
     </g>
    </g>
   </g>
   <g id="matplotlib.axis_2">
    <g id="ytick_1">
     <g id="line2d_23">
      <path clip-path="url(#pb3e519da5f)" d="M 27 119.7 
L 194.4 119.7 
" style="fill:none;opacity:0.3;stroke:#808080;stroke-dasharray:1.000000,3.000000;stroke-dashoffset:0.0;stroke-width:0.5;"/>
     </g>
     <g id="line2d_24">
      <defs>
       <path d="M 0 0 
L 4 0 
" id="mbe372de536" style="stroke:#000000;stroke-width:0.5;"/>
      </defs>
      <g>
       <use style="stroke:#000000;stroke-width:0.5;" x="27.0" xlink:href="#mbe372de536" y="119.7"/>
      </g>
     </g>
     <g id="line2d_25">
      <defs>
       <path d="M 0 0 
L -4 0 
" id="m5a7dd56241" style="stroke:#000000;stroke-width:0.5;"/>
      </defs>
      <g>
       <use style="stroke:#000000;stroke-width:0.5;" x="194.4" xlink:href="#m5a7dd56241" y="119.7"/>
      </g>
     </g>
     <g id="text_8">
      <!-- $\mathdefault{10^{-9}}$ -->
      <defs>
       <path d="M 46.78125 32.671875 
Q 43.5 29 39.25 27.1875 
Q 35.015625 25.390625 29.6875 25.390625 
Q 18.84375 25.390625 12.5625 31.9375 
Q 6.296875 38.484375 6.296875 49.8125 
Q 6.296875 60.890625 13.109375 67.546875 
Q 19.921875 74.21875 31.296875 74.21875 
Q 43.65625 74.21875 50.265625 65.015625 
Q 56.890625 55.8125 56.890625 38.71875 
Q 56.890625 19.578125 49.015625 9.078125 
Q 41.15625 -1.421875 26.90625 -1.421875 
Q 23.046875 -1.421875 18.796875 -0.6875 
Q 14.546875 0.046875 10.109375 1.515625 
L 10.109375 13.625 
L 15.578125 13.625 
Q 16.21875 8.6875 19.390625 6.046875 
Q 22.5625 3.421875 27.875 3.421875 
Q 37.359375 3.421875 41.984375 10.5625 
Q 46.625 17.71875 46.78125 32.671875 
M 30.90625 69.390625 
Q 23.96875 69.390625 20.28125 64.328125 
Q 16.609375 59.28125 16.609375 49.8125 
Q 16.609375 40.328125 20.28125 35.25 
Q 23.96875 30.171875 30.90625 30.171875 
Q 37.84375 30.171875 41.53125 35.078125 
Q 45.21875 39.984375 45.21875 49.21875 
Q 45.21875 58.9375 41.5 64.15625 
Q 37.796875 69.390625 30.90625 69.390625 
" id="BitstreamVeraSerif-Roman-39"/>
       <path d="M 4.390625 30.609375 
L 29.390625 30.609375 
L 29.390625 23 
L 4.390625 23 
z
" id="BitstreamVeraSerif-Roman-2d"/>
      </defs>
      <g transform="translate(6.28 121.99625)scale(0.08 -0.08)">
       <use transform="translate(0.0 0.2015625)" xlink:href="#BitstreamVeraSerif-Roman-31"/>
       <use transform="translate(63.623046875 0.2015625)" xlink:href="#BitstreamVeraSerif-Roman-30"/>
       <use transform="translate(132.478046875 45.046875)scale(0.7)" xlink:href="#BitstreamVeraSerif-Roman-2d"/>
       <use transform="translate(156.130390625 45.046875)scale(0.7)" xlink:href="#BitstreamVeraSerif-Roman-39"/>
      </g>
     </g>
    </g>
    <g id="ytick_2">
     <g id="line2d_26">
      <path clip-path="url(#pb3e519da5f)" d="M 27 93.195 
L 194.4 93.195 
" style="fill:none;opacity:0.3;stroke:#808080;stroke-dasharray:1.000000,3.000000;stroke-dashoffset:0.0;stroke-width:0.5;"/>
     </g>
     <g id="line2d_27">
      <g>
       <use style="stroke:#000000;stroke-width:0.5;" x="27.0" xlink:href="#mbe372de536" y="93.195"/>
      </g>
     </g>
     <g id="line2d_28">
      <g>
       <use style="stroke:#000000;stroke-width:0.5;" x="194.4" xlink:href="#m5a7dd56241" y="93.195"/>
      </g>
     </g>
     <g id="text_9">
      <!-- $\mathdefault{10^{-6}}$ -->
      <defs>
       <path d="M 32.71875 3.421875 
Q 39.59375 3.421875 43.296875 8.46875 
Q 47.015625 13.53125 47.015625 23 
Q 47.015625 32.46875 43.296875 37.515625 
Q 39.59375 42.578125 32.71875 42.578125 
Q 25.734375 42.578125 22.0625 37.6875 
Q 18.40625 32.8125 18.40625 23.578125 
Q 18.40625 13.875 22.109375 8.640625 
Q 25.828125 3.421875 32.71875 3.421875 
M 16.796875 40.140625 
Q 20.125 43.796875 24.3125 45.59375 
Q 28.515625 47.40625 33.796875 47.40625 
Q 44.671875 47.40625 51 40.859375 
Q 57.328125 34.328125 57.328125 23 
Q 57.328125 11.921875 50.515625 5.25 
Q 43.703125 -1.421875 32.328125 -1.421875 
Q 19.96875 -1.421875 13.328125 7.78125 
Q 6.6875 17 6.6875 34.078125 
Q 6.6875 53.21875 14.546875 63.71875 
Q 22.40625 74.21875 36.71875 74.21875 
Q 40.578125 74.21875 44.828125 73.484375 
Q 49.078125 72.75 53.515625 71.296875 
L 53.515625 59.28125 
L 48 59.28125 
Q 47.40625 64.203125 44.234375 66.796875 
Q 41.0625 69.390625 35.6875 69.390625 
Q 26.21875 69.390625 21.578125 62.203125 
Q 16.9375 55.03125 16.796875 40.140625 
" id="BitstreamVeraSerif-Roman-36"/>
      </defs>
      <g transform="translate(6.28 95.49125)scale(0.08 -0.08)">
       <use transform="translate(0.0 0.2015625)" xlink:href="#BitstreamVeraSerif-Roman-31"/>
       <use transform="translate(63.623046875 0.2015625)" xlink:href="#BitstreamVeraSerif-Roman-30"/>
       <use transform="translate(132.478046875 45.046875)scale(0.7)" xlink:href="#BitstreamVeraSerif-Roman-2d"/>
       <use transform="translate(156.130390625 45.046875)scale(0.7)" xlink:href="#BitstreamVeraSerif-Roman-36"/>
      </g>
     </g>
    </g>
    <g id="ytick_3">
     <g id="line2d_29">
      <path clip-path="url(#pb3e519da5f)" d="M 27 66.69 
L 194.4 66.69 
" style="fill:none;opacity:0.3;stroke:#808080;stroke-dasharray:1.000000,3.000000;stroke-dashoffset:0.0;stroke-width:0.5;"/>
     </g>
     <g id="line2d_30">
      <g>
       <use style="stroke:#000000;stroke-width:0.5;" x="27.0" xlink:href="#mbe372de536" y="66.69"/>
      </g>
     </g>
     <g id="line2d_31">
      <g>
       <use style="stroke:#000000;stroke-width:0.5;" x="194.4" xlink:href="#m5a7dd56241" y="66.69"/>
      </g>
     </g>
     <g id="text_10">
      <!-- $\mathdefault{10^{-3}}$ -->
      <defs>
       <path d="M 9.71875 69.828125 
Q 15.4375 71.96875 20.671875 73.09375 
Q 25.921875 74.21875 30.515625 74.21875 
Q 41.21875 74.21875 47.21875 69.59375 
Q 53.21875 64.984375 53.21875 56.78125 
Q 53.21875 50.203125 49.0625 45.78125 
Q 44.921875 41.359375 37.3125 39.796875 
Q 46.296875 38.53125 51.25 33.28125 
Q 56.203125 28.03125 56.203125 19.671875 
Q 56.203125 9.46875 49.34375 4.015625 
Q 42.484375 -1.421875 29.59375 -1.421875 
Q 23.875 -1.421875 18.421875 -0.1875 
Q 12.984375 1.03125 7.625 3.515625 
L 7.625 17.671875 
L 13.09375 17.671875 
Q 13.578125 10.640625 17.828125 7.03125 
Q 22.078125 3.421875 29.78125 3.421875 
Q 37.25 3.421875 41.578125 7.734375 
Q 45.90625 12.0625 45.90625 19.578125 
Q 45.90625 28.171875 41.453125 32.59375 
Q 37.015625 37.015625 28.421875 37.015625 
L 23.78125 37.015625 
L 23.78125 42 
L 26.21875 42 
Q 34.765625 42 39.03125 45.53125 
Q 43.3125 49.078125 43.3125 56.203125 
Q 43.3125 62.59375 39.796875 65.984375 
Q 36.28125 69.390625 29.6875 69.390625 
Q 23.09375 69.390625 19.453125 66.265625 
Q 15.828125 63.140625 15.1875 56.984375 
L 9.71875 56.984375 
z
" id="BitstreamVeraSerif-Roman-33"/>
      </defs>
      <g transform="translate(6.28 68.98625)scale(0.08 -0.08)">
       <use transform="translate(0.0 0.2015625)" xlink:href="#BitstreamVeraSerif-Roman-31"/>
       <use transform="translate(63.623046875 0.2015625)" xlink:href="#BitstreamVeraSerif-Roman-30"/>
       <use transform="translate(132.478046875 45.046875)scale(0.7)" xlink:href="#BitstreamVeraSerif-Roman-2d"/>
       <use transform="translate(156.130390625 45.046875)scale(0.7)" xlink:href="#BitstreamVeraSerif-Roman-33"/>
      </g>
     </g>
    </g>
    <g id="ytick_4">
     <g id="line2d_32">
      <path clip-path="url(#pb3e519da5f)" d="M 27 40.185 
L 194.4 40.185 
" style="fill:none;opacity:0.3;stroke:#808080;stroke-dasharray:1.000000,3.000000;stroke-dashoffset:0.0;stroke-width:0.5;"/>
     </g>
     <g id="line2d_33">
      <g>
       <use style="stroke:#000000;stroke-width:0.5;" x="27.0" xlink:href="#mbe372de536" y="40.185"/>
      </g>
     </g>
     <g id="line2d_34">
      <g>
       <use style="stroke:#000000;stroke-width:0.5;" x="194.4" xlink:href="#m5a7dd56241" y="40.185"/>
      </g>
     </g>
     <g id="text_11">
      <!-- $\mathdefault{10^{0}}$ -->
      <g transform="translate(8.2 42.48125)scale(0.08 -0.08)">
       <use transform="translate(0.0 0.2015625)" xlink:href="#BitstreamVeraSerif-Roman-31"/>
       <use transform="translate(63.623046875 0.2015625)" xlink:href="#BitstreamVeraSerif-Roman-30"/>
       <use transform="translate(132.478046875 45.046875)scale(0.7)" xlink:href="#BitstreamVeraSerif-Roman-30"/>
      </g>
     </g>
    </g>
    <g id="ytick_5">
     <g id="line2d_35">
      <path clip-path="url(#pb3e519da5f)" d="M 27 13.68 
L 194.4 13.68 
" style="fill:none;opacity:0.3;stroke:#808080;stroke-dasharray:1.000000,3.000000;stroke-dashoffset:0.0;stroke-width:0.5;"/>
     </g>
     <g id="line2d_36">
      <g>
       <use style="stroke:#000000;stroke-width:0.5;" x="27.0" xlink:href="#mbe372de536" y="13.68"/>
      </g>
     </g>
     <g id="line2d_37">
      <g>
       <use style="stroke:#000000;stroke-width:0.5;" x="194.4" xlink:href="#m5a7dd56241" y="13.68"/>
      </g>
     </g>
     <g id="text_12">
      <!-- $\mathdefault{10^{3}}$ -->
      <g transform="translate(8.2 15.97625)scale(0.08 -0.08)">
       <use transform="translate(0.0 0.2015625)" xlink:href="#BitstreamVeraSerif-Roman-31"/>
       <use transform="translate(63.623046875 0.2015625)" xlink:href="#BitstreamVeraSerif-Roman-30"/>
       <use transform="translate(132.478046875 45.046875)scale(0.7)" xlink:href="#BitstreamVeraSerif-Roman-33"/>
      </g>
     </g>
    </g>
    <g id="ytick_6">
     <g id="line2d_38">
      <defs>
       <path d="M 0 0 
L 2 0 
" id="mab312272ce" style="stroke:#000000;stroke-width:0.5;"/>
      </defs>
      <g>
       <use style="stroke:#000000;stroke-width:0.5;" x="27.0" xlink:href="#mab312272ce" y="117.040399988"/>
      </g>
     </g>
     <g id="line2d_39">
      <defs>
       <path d="M 0 0 
L -2 0 
" id="m98aaf5f362" style="stroke:#000000;stroke-width:0.5;"/>
      </defs>
      <g>
       <use style="stroke:#000000;stroke-width:0.5;" x="194.4" xlink:href="#m98aaf5f362" y="117.040399988"/>
      </g>
     </g>
    </g>
    <g id="ytick_7">
     <g id="line2d_40">
      <g>
       <use style="stroke:#000000;stroke-width:0.5;" x="27.0" xlink:href="#mab312272ce" y="114.380799977"/>
      </g>
     </g>
     <g id="line2d_41">
      <g>
       <use style="stroke:#000000;stroke-width:0.5;" x="194.4" xlink:href="#m98aaf5f362" y="114.380799977"/>
      </g>
     </g>
    </g>
    <g id="ytick_8">
     <g id="line2d_42">
      <g>
       <use style="stroke:#000000;stroke-width:0.5;" x="27.0" xlink:href="#mab312272ce" y="112.825033703"/>
      </g>
     </g>
     <g id="line2d_43">
      <g>
       <use style="stroke:#000000;stroke-width:0.5;" x="194.4" xlink:href="#m98aaf5f362" y="112.825033703"/>
      </g>
     </g>
    </g>
    <g id="ytick_9">
     <g id="line2d_44">
      <g>
       <use style="stroke:#000000;stroke-width:0.5;" x="27.0" xlink:href="#mab312272ce" y="111.721199965"/>
      </g>
     </g>
     <g id="line2d_45">
      <g>
       <use style="stroke:#000000;stroke-width:0.5;" x="194.4" xlink:href="#m98aaf5f362" y="111.721199965"/>
      </g>
     </g>
    </g>
    <g id="ytick_10">
     <g id="line2d_46">
      <g>
       <use style="stroke:#000000;stroke-width:0.5;" x="27.0" xlink:href="#mab312272ce" y="108.205399988"/>
      </g>
     </g>
     <g id="line2d_47">
      <g>
       <use style="stroke:#000000;stroke-width:0.5;" x="194.4" xlink:href="#m98aaf5f362" y="108.205399988"/>
      </g>
     </g>
    </g>
    <g id="ytick_11">
     <g id="line2d_48">
      <g>
       <use style="stroke:#000000;stroke-width:0.5;" x="27.0" xlink:href="#mab312272ce" y="105.545799977"/>
      </g>
     </g>
     <g id="line2d_49">
      <g>
       <use style="stroke:#000000;stroke-width:0.5;" x="194.4" xlink:href="#m98aaf5f362" y="105.545799977"/>
      </g>
     </g>
    </g>
    <g id="ytick_12">
     <g id="line2d_50">
      <g>
       <use style="stroke:#000000;stroke-width:0.5;" x="27.0" xlink:href="#mab312272ce" y="103.990033703"/>
      </g>
     </g>
     <g id="line2d_51">
      <g>
       <use style="stroke:#000000;stroke-width:0.5;" x="194.4" xlink:href="#m98aaf5f362" y="103.990033703"/>
      </g>
     </g>
    </g>
    <g id="ytick_13">
     <g id="line2d_52">
      <g>
       <use style="stroke:#000000;stroke-width:0.5;" x="27.0" xlink:href="#mab312272ce" y="102.886199965"/>
      </g>
     </g>
     <g id="line2d_53">
      <g>
       <use style="stroke:#000000;stroke-width:0.5;" x="194.4" xlink:href="#m98aaf5f362" y="102.886199965"/>
      </g>
     </g>
    </g>
    <g id="ytick_14">
     <g id="line2d_54">
      <g>
       <use style="stroke:#000000;stroke-width:0.5;" x="27.0" xlink:href="#mab312272ce" y="99.3703999883"/>
      </g>
     </g>
     <g id="line2d_55">
      <g>
       <use style="stroke:#000000;stroke-width:0.5;" x="194.4" xlink:href="#m98aaf5f362" y="99.3703999883"/>
      </g>
     </g>
    </g>
    <g id="ytick_15">
     <g id="line2d_56">
      <g>
       <use style="stroke:#000000;stroke-width:0.5;" x="27.0" xlink:href="#mab312272ce" y="96.7107999766"/>
      </g>
     </g>
     <g id="line2d_57">
      <g>
       <use style="stroke:#000000;stroke-width:0.5;" x="194.4" xlink:href="#m98aaf5f362" y="96.7107999766"/>
      </g>
     </g>
    </g>
    <g id="ytick_16">
     <g id="line2d_58">
      <g>
       <use style="stroke:#000000;stroke-width:0.5;" x="27.0" xlink:href="#mab312272ce" y="95.1550337029"/>
      </g>
     </g>
     <g id="line2d_59">
      <g>
       <use style="stroke:#000000;stroke-width:0.5;" x="194.4" xlink:href="#m98aaf5f362" y="95.1550337029"/>
      </g>
     </g>
    </g>
    <g id="ytick_17">
     <g id="line2d_60">
      <g>
       <use style="stroke:#000000;stroke-width:0.5;" x="27.0" xlink:href="#mab312272ce" y="94.0511999649"/>
      </g>
     </g>
     <g id="line2d_61">
      <g>
       <use style="stroke:#000000;stroke-width:0.5;" x="194.4" xlink:href="#m98aaf5f362" y="94.0511999649"/>
      </g>
     </g>
    </g>
    <g id="ytick_18">
     <g id="line2d_62">
      <g>
       <use style="stroke:#000000;stroke-width:0.5;" x="27.0" xlink:href="#mab312272ce" y="90.5353999883"/>
      </g>
     </g>
     <g id="line2d_63">
      <g>
       <use style="stroke:#000000;stroke-width:0.5;" x="194.4" xlink:href="#m98aaf5f362" y="90.5353999883"/>
      </g>
     </g>
    </g>
    <g id="ytick_19">
     <g id="line2d_64">
      <g>
       <use style="stroke:#000000;stroke-width:0.5;" x="27.0" xlink:href="#mab312272ce" y="87.8757999766"/>
      </g>
     </g>
     <g id="line2d_65">
      <g>
       <use style="stroke:#000000;stroke-width:0.5;" x="194.4" xlink:href="#m98aaf5f362" y="87.8757999766"/>
      </g>
     </g>
    </g>
    <g id="ytick_20">
     <g id="line2d_66">
      <g>
       <use style="stroke:#000000;stroke-width:0.5;" x="27.0" xlink:href="#mab312272ce" y="86.3200337029"/>
      </g>
     </g>
     <g id="line2d_67">
      <g>
       <use style="stroke:#000000;stroke-width:0.5;" x="194.4" xlink:href="#m98aaf5f362" y="86.3200337029"/>
      </g>
     </g>
    </g>
    <g id="ytick_21">
     <g id="line2d_68">
      <g>
       <use style="stroke:#000000;stroke-width:0.5;" x="27.0" xlink:href="#mab312272ce" y="85.2161999649"/>
      </g>
     </g>
     <g id="line2d_69">
      <g>
       <use style="stroke:#000000;stroke-width:0.5;" x="194.4" xlink:href="#m98aaf5f362" y="85.2161999649"/>
      </g>
     </g>
    </g>
    <g id="ytick_22">
     <g id="line2d_70">
      <g>
       <use style="stroke:#000000;stroke-width:0.5;" x="27.0" xlink:href="#mab312272ce" y="81.7003999883"/>
      </g>
     </g>
     <g id="line2d_71">
      <g>
       <use style="stroke:#000000;stroke-width:0.5;" x="194.4" xlink:href="#m98aaf5f362" y="81.7003999883"/>
      </g>
     </g>
    </g>
    <g id="ytick_23">
     <g id="line2d_72">
      <g>
       <use style="stroke:#000000;stroke-width:0.5;" x="27.0" xlink:href="#mab312272ce" y="79.0407999766"/>
      </g>
     </g>
     <g id="line2d_73">
      <g>
       <use style="stroke:#000000;stroke-width:0.5;" x="194.4" xlink:href="#m98aaf5f362" y="79.0407999766"/>
      </g>
     </g>
    </g>
    <g id="ytick_24">
     <g id="line2d_74">
      <g>
       <use style="stroke:#000000;stroke-width:0.5;" x="27.0" xlink:href="#mab312272ce" y="77.4850337029"/>
      </g>
     </g>
     <g id="line2d_75">
      <g>
       <use style="stroke:#000000;stroke-width:0.5;" x="194.4" xlink:href="#m98aaf5f362" y="77.4850337029"/>
      </g>
     </g>
    </g>
    <g id="ytick_25">
     <g id="line2d_76">
      <g>
       <use style="stroke:#000000;stroke-width:0.5;" x="27.0" xlink:href="#mab312272ce" y="76.3811999649"/>
      </g>
     </g>
     <g id="line2d_77">
      <g>
       <use style="stroke:#000000;stroke-width:0.5;" x="194.4" xlink:href="#m98aaf5f362" y="76.3811999649"/>
      </g>
     </g>
    </g>
    <g id="ytick_26">
     <g id="line2d_78">
      <g>
       <use style="stroke:#000000;stroke-width:0.5;" x="27.0" xlink:href="#mab312272ce" y="72.8653999883"/>
      </g>
     </g>
     <g id="line2d_79">
      <g>
       <use style="stroke:#000000;stroke-width:0.5;" x="194.4" xlink:href="#m98aaf5f362" y="72.8653999883"/>
      </g>
     </g>
    </g>
    <g id="ytick_27">
     <g id="line2d_80">
      <g>
       <use style="stroke:#000000;stroke-width:0.5;" x="27.0" xlink:href="#mab312272ce" y="70.2057999766"/>
      </g>
     </g>
     <g id="line2d_81">
      <g>
       <use style="stroke:#000000;stroke-width:0.5;" x="194.4" xlink:href="#m98aaf5f362" y="70.2057999766"/>
      </g>
     </g>
    </g>
    <g id="ytick_28">
     <g id="line2d_82">
      <g>
       <use style="stroke:#000000;stroke-width:0.5;" x="27.0" xlink:href="#mab312272ce" y="68.6500337029"/>
      </g>
     </g>
     <g id="line2d_83">
      <g>
       <use style="stroke:#000000;stroke-width:0.5;" x="194.4" xlink:href="#m98aaf5f362" y="68.6500337029"/>
      </g>
     </g>
    </g>
    <g id="ytick_29">
     <g id="line2d_84">
      <g>
       <use style="stroke:#000000;stroke-width:0.5;" x="27.0" xlink:href="#mab312272ce" y="67.5461999649"/>
      </g>
     </g>
     <g id="line2d_85">
      <g>
       <use style="stroke:#000000;stroke-width:0.5;" x="194.4" xlink:href="#m98aaf5f362" y="67.5461999649"/>
      </g>
     </g>
    </g>
    <g id="ytick_30">
     <g id="line2d_86">
      <g>
       <use style="stroke:#000000;stroke-width:0.5;" x="27.0" xlink:href="#mab312272ce" y="64.0303999883"/>
      </g>
     </g>
     <g id="line2d_87">
      <g>
       <use style="stroke:#000000;stroke-width:0.5;" x="194.4" xlink:href="#m98aaf5f362" y="64.0303999883"/>
      </g>
     </g>
    </g>
    <g id="ytick_31">
     <g id="line2d_88">
      <g>
       <use style="stroke:#000000;stroke-width:0.5;" x="27.0" xlink:href="#mab312272ce" y="61.3707999766"/>
      </g>
     </g>
     <g id="line2d_89">
      <g>
       <use style="stroke:#000000;stroke-width:0.5;" x="194.4" xlink:href="#m98aaf5f362" y="61.3707999766"/>
      </g>
     </g>
    </g>
    <g id="ytick_32">
     <g id="line2d_90">
      <g>
       <use style="stroke:#000000;stroke-width:0.5;" x="27.0" xlink:href="#mab312272ce" y="59.8150337029"/>
      </g>
     </g>
     <g id="line2d_91">
      <g>
       <use style="stroke:#000000;stroke-width:0.5;" x="194.4" xlink:href="#m98aaf5f362" y="59.8150337029"/>
      </g>
     </g>
    </g>
    <g id="ytick_33">
     <g id="line2d_92">
      <g>
       <use style="stroke:#000000;stroke-width:0.5;" x="27.0" xlink:href="#mab312272ce" y="58.7111999649"/>
      </g>
     </g>
     <g id="line2d_93">
      <g>
       <use style="stroke:#000000;stroke-width:0.5;" x="194.4" xlink:href="#m98aaf5f362" y="58.7111999649"/>
      </g>
     </g>
    </g>
    <g id="ytick_34">
     <g id="line2d_94">
      <g>
       <use style="stroke:#000000;stroke-width:0.5;" x="27.0" xlink:href="#mab312272ce" y="55.1953999883"/>
      </g>
     </g>
     <g id="line2d_95">
      <g>
       <use style="stroke:#000000;stroke-width:0.5;" x="194.4" xlink:href="#m98aaf5f362" y="55.1953999883"/>
      </g>
     </g>
    </g>
    <g id="ytick_35">
     <g id="line2d_96">
      <g>
       <use style="stroke:#000000;stroke-width:0.5;" x="27.0" xlink:href="#mab312272ce" y="52.5357999766"/>
      </g>
     </g>
     <g id="line2d_97">
      <g>
       <use style="stroke:#000000;stroke-width:0.5;" x="194.4" xlink:href="#m98aaf5f362" y="52.5357999766"/>
      </g>
     </g>
    </g>
    <g id="ytick_36">
     <g id="line2d_98">
      <g>
       <use style="stroke:#000000;stroke-width:0.5;" x="27.0" xlink:href="#mab312272ce" y="50.9800337029"/>
      </g>
     </g>
     <g id="line2d_99">
      <g>
       <use style="stroke:#000000;stroke-width:0.5;" x="194.4" xlink:href="#m98aaf5f362" y="50.9800337029"/>
      </g>
     </g>
    </g>
    <g id="ytick_37">
     <g id="line2d_100">
      <g>
       <use style="stroke:#000000;stroke-width:0.5;" x="27.0" xlink:href="#mab312272ce" y="49.8761999649"/>
      </g>
     </g>
     <g id="line2d_101">
      <g>
       <use style="stroke:#000000;stroke-width:0.5;" x="194.4" xlink:href="#m98aaf5f362" y="49.8761999649"/>
      </g>
     </g>
    </g>
    <g id="ytick_38">
     <g id="line2d_102">
      <g>
       <use style="stroke:#000000;stroke-width:0.5;" x="27.0" xlink:href="#mab312272ce" y="46.3603999883"/>
      </g>
     </g>
     <g id="line2d_103">
      <g>
       <use style="stroke:#000000;stroke-width:0.5;" x="194.4" xlink:href="#m98aaf5f362" y="46.3603999883"/>
      </g>
     </g>
    </g>
    <g id="ytick_39">
     <g id="line2d_104">
      <g>
       <use style="stroke:#000000;stroke-width:0.5;" x="27.0" xlink:href="#mab312272ce" y="43.7007999766"/>
      </g>
     </g>
     <g id="line2d_105">
      <g>
       <use style="stroke:#000000;stroke-width:0.5;" x="194.4" xlink:href="#m98aaf5f362" y="43.7007999766"/>
      </g>
     </g>
    </g>
    <g id="ytick_40">
     <g id="line2d_106">
      <g>
       <use style="stroke:#000000;stroke-width:0.5;" x="27.0" xlink:href="#mab312272ce" y="42.1450337029"/>
      </g>
     </g>
     <g id="line2d_107">
      <g>
       <use style="stroke:#000000;stroke-width:0.5;" x="194.4" xlink:href="#m98aaf5f362" y="42.1450337029"/>
      </g>
     </g>
    </g>
    <g id="ytick_41">
     <g id="line2d_108">
      <g>
       <use style="stroke:#000000;stroke-width:0.5;" x="27.0" xlink:href="#mab312272ce" y="41.0411999649"/>
      </g>
     </g>
     <g id="line2d_109">
      <g>
       <use style="stroke:#000000;stroke-width:0.5;" x="194.4" xlink:href="#m98aaf5f362" y="41.0411999649"/>
      </g>
     </g>
    </g>
    <g id="ytick_42">
     <g id="line2d_110">
      <g>
       <use style="stroke:#000000;stroke-width:0.5;" x="27.0" xlink:href="#mab312272ce" y="37.5253999883"/>
      </g>
     </g>
     <g id="line2d_111">
      <g>
       <use style="stroke:#000000;stroke-width:0.5;" x="194.4" xlink:href="#m98aaf5f362" y="37.5253999883"/>
      </g>
     </g>
    </g>
    <g id="ytick_43">
     <g id="line2d_112">
      <g>
       <use style="stroke:#000000;stroke-width:0.5;" x="27.0" xlink:href="#mab312272ce" y="34.8657999766"/>
      </g>
     </g>
     <g id="line2d_113">
      <g>
       <use style="stroke:#000000;stroke-width:0.5;" x="194.4" xlink:href="#m98aaf5f362" y="34.8657999766"/>
      </g>
     </g>
    </g>
    <g id="ytick_44">
     <g id="line2d_114">
      <g>
       <use style="stroke:#000000;stroke-width:0.5;" x="27.0" xlink:href="#mab312272ce" y="33.3100337029"/>
      </g>
     </g>
     <g id="line2d_115">
      <g>
       <use style="stroke:#000000;stroke-width:0.5;" x="194.4" xlink:href="#m98aaf5f362" y="33.3100337029"/>
      </g>
     </g>
    </g>
    <g id="ytick_45">
     <g id="line2d_116">
      <g>
       <use style="stroke:#000000;stroke-width:0.5;" x="27.0" xlink:href="#mab312272ce" y="32.2061999649"/>
      </g>
     </g>
     <g id="line2d_117">
      <g>
       <use style="stroke:#000000;stroke-width:0.5;" x="194.4" xlink:href="#m98aaf5f362" y="32.2061999649"/>
      </g>
     </g>
    </g>
    <g id="ytick_46">
     <g id="line2d_118">
      <g>
       <use style="stroke:#000000;stroke-width:0.5;" x="27.0" xlink:href="#mab312272ce" y="28.6903999883"/>
      </g>
     </g>
     <g id="line2d_119">
      <g>
       <use style="stroke:#000000;stroke-width:0.5;" x="194.4" xlink:href="#m98aaf5f362" y="28.6903999883"/>
      </g>
     </g>
    </g>
    <g id="ytick_47">
     <g id="line2d_120">
      <g>
       <use style="stroke:#000000;stroke-width:0.5;" x="27.0" xlink:href="#mab312272ce" y="26.0307999766"/>
      </g>
     </g>
     <g id="line2d_121">
      <g>
       <use style="stroke:#000000;stroke-width:0.5;" x="194.4" xlink:href="#m98aaf5f362" y="26.0307999766"/>
      </g>
     </g>
    </g>
    <g id="ytick_48">
     <g id="line2d_122">
      <g>
       <use style="stroke:#000000;stroke-width:0.5;" x="27.0" xlink:href="#mab312272ce" y="24.4750337029"/>
      </g>
     </g>
     <g id="line2d_123">
      <g>
       <use style="stroke:#000000;stroke-width:0.5;" x="194.4" xlink:href="#m98aaf5f362" y="24.4750337029"/>
      </g>
     </g>
    </g>
    <g id="ytick_49">
     <g id="line2d_124">
      <g>
       <use style="stroke:#000000;stroke-width:0.5;" x="27.0" xlink:href="#mab312272ce" y="23.3711999649"/>
      </g>
     </g>
     <g id="line2d_125">
      <g>
       <use style="stroke:#000000;stroke-width:0.5;" x="194.4" xlink:href="#m98aaf5f362" y="23.3711999649"/>
      </g>
     </g>
    </g>
    <g id="ytick_50">
     <g id="line2d_126">
      <g>
       <use style="stroke:#000000;stroke-width:0.5;" x="27.0" xlink:href="#mab312272ce" y="19.8553999883"/>
      </g>
     </g>
     <g id="line2d_127">
      <g>
       <use style="stroke:#000000;stroke-width:0.5;" x="194.4" xlink:href="#m98aaf5f362" y="19.8553999883"/>
      </g>
     </g>
    </g>
    <g id="ytick_51">
     <g id="line2d_128">
      <g>
       <use style="stroke:#000000;stroke-width:0.5;" x="27.0" xlink:href="#mab312272ce" y="17.1957999766"/>
      </g>
     </g>
     <g id="line2d_129">
      <g>
       <use style="stroke:#000000;stroke-width:0.5;" x="194.4" xlink:href="#m98aaf5f362" y="17.1957999766"/>
      </g>
     </g>
    </g>
    <g id="ytick_52">
     <g id="line2d_130">
      <g>
       <use style="stroke:#000000;stroke-width:0.5;" x="27.0" xlink:href="#mab312272ce" y="15.6400337029"/>
      </g>
     </g>
     <g id="line2d_131">
      <g>
       <use style="stroke:#000000;stroke-width:0.5;" x="194.4" xlink:href="#m98aaf5f362" y="15.6400337029"/>
      </g>
     </g>
    </g>
    <g id="ytick_53">
     <g id="line2d_132">
      <g>
       <use style="stroke:#000000;stroke-width:0.5;" x="27.0" xlink:href="#mab312272ce" y="14.5361999649"/>
      </g>
     </g>
     <g id="line2d_133">
      <g>
       <use style="stroke:#000000;stroke-width:0.5;" x="194.4" xlink:href="#m98aaf5f362" y="14.5361999649"/>
      </g>
     </g>
    </g>
    <g id="text_13">
     <!-- $u_N/\hat{f}_0$ -->
     <defs>
      <path d="M 13.484375 53.8125 
L 11.53125 55.90625 
L 25 69.390625 
L 38.375 55.90625 
L 36.375 53.8125 
L 25 63.8125 
z
" id="Cmr10-5e"/>
      <path d="M 4.6875 0 
Q 3.71875 0 3.71875 1.3125 
Q 3.765625 1.5625 3.90625 2.171875 
Q 4.046875 2.78125 4.3125 3.140625 
Q 4.59375 3.515625 4.984375 3.515625 
Q 14.546875 3.515625 16.109375 9.625 
L 29.6875 64.3125 
Q 26.90625 64.796875 20.90625 64.796875 
Q 19.921875 64.796875 19.921875 66.109375 
Q 19.96875 66.359375 20.109375 66.96875 
Q 20.265625 67.578125 20.53125 67.9375 
Q 20.796875 68.3125 21.1875 68.3125 
L 38.484375 68.3125 
Q 39.203125 68.3125 39.40625 67.671875 
L 61.625 14.796875 
L 72.703125 59.078125 
Q 72.90625 60.15625 72.90625 60.59375 
Q 72.90625 64.796875 65.1875 64.796875 
Q 64.203125 64.796875 64.203125 66.109375 
Q 64.546875 67.390625 64.734375 67.84375 
Q 64.9375 68.3125 65.921875 68.3125 
L 87.3125 68.3125 
Q 88.28125 68.3125 88.28125 67 
Q 88.234375 66.75 88.078125 66.140625 
Q 87.9375 65.53125 87.671875 65.15625 
Q 87.40625 64.796875 87.015625 64.796875 
Q 77.4375 64.796875 75.875 58.6875 
L 61.53125 0.875 
Q 61.1875 0 60.5 0 
L 59.28125 0 
Q 58.59375 0 58.40625 0.6875 
L 32.90625 61.1875 
L 32.71875 61.8125 
Q 32.515625 62.015625 32.515625 62.109375 
L 19.28125 9.1875 
Q 19.1875 8.9375 19.140625 8.5625 
Q 19.09375 8.203125 19 7.71875 
Q 19 5.125 21.234375 4.3125 
Q 23.484375 3.515625 26.8125 3.515625 
Q 27.78125 3.515625 27.78125 2.203125 
Q 27.4375 0.828125 27.1875 0.40625 
Q 26.953125 0 26.125 0 
z
" id="Cmmi10-4e"/>
      <path d="M 25 -2.203125 
Q 12.75 -2.203125 8.328125 7.875 
Q 3.90625 17.96875 3.90625 31.890625 
Q 3.90625 40.578125 5.484375 48.234375 
Q 7.078125 55.90625 11.78125 61.25 
Q 16.5 66.609375 25 66.609375 
Q 31.59375 66.609375 35.78125 63.375 
Q 39.984375 60.15625 42.1875 55.046875 
Q 44.390625 49.953125 45.1875 44.109375 
Q 46 38.28125 46 31.890625 
Q 46 23.296875 44.40625 15.796875 
Q 42.828125 8.296875 38.1875 3.046875 
Q 33.546875 -2.203125 25 -2.203125 
M 25 0.390625 
Q 30.5625 0.390625 33.296875 6.09375 
Q 36.03125 11.8125 36.671875 18.75 
Q 37.3125 25.6875 37.3125 33.5 
Q 37.3125 41.015625 36.671875 47.359375 
Q 36.03125 53.71875 33.3125 58.859375 
Q 30.609375 64.015625 25 64.015625 
Q 19.34375 64.015625 16.609375 58.828125 
Q 13.875 53.65625 13.234375 47.328125 
Q 12.59375 41.015625 12.59375 33.5 
Q 12.59375 27.9375 12.859375 23 
Q 13.140625 18.0625 14.3125 12.8125 
Q 15.484375 7.5625 18.09375 3.96875 
Q 20.703125 0.390625 25 0.390625 
" id="Cmr10-30"/>
      <path d="M 10.59375 10.890625 
Q 10.59375 14.15625 11.46875 17.59375 
Q 12.359375 21.046875 13.9375 25.265625 
Q 15.53125 29.5 16.703125 32.625 
Q 18.015625 36.28125 18.015625 38.625 
Q 18.015625 41.609375 15.828125 41.609375 
Q 11.859375 41.609375 9.296875 37.53125 
Q 6.734375 33.453125 5.515625 28.421875 
Q 5.328125 27.78125 4.6875 27.78125 
L 3.515625 27.78125 
Q 2.6875 27.78125 2.6875 28.71875 
L 2.6875 29 
Q 4.296875 34.96875 7.609375 39.578125 
Q 10.9375 44.1875 16.015625 44.1875 
Q 19.578125 44.1875 22.046875 41.84375 
Q 24.515625 39.5 24.515625 35.890625 
Q 24.515625 34.03125 23.6875 31.984375 
Q 23.25 30.765625 21.6875 26.65625 
Q 20.125 22.5625 19.28125 19.875 
Q 18.453125 17.1875 17.921875 14.59375 
Q 17.390625 12.015625 17.390625 9.421875 
Q 17.390625 6.109375 18.796875 3.8125 
Q 20.21875 1.515625 23.390625 1.515625 
Q 29.78125 1.515625 34.625 9.421875 
Q 34.71875 9.8125 34.78125 10.171875 
Q 34.859375 10.546875 34.90625 10.890625 
L 42.09375 39.890625 
Q 42.4375 41.21875 43.65625 42.15625 
Q 44.875 43.109375 46.296875 43.109375 
Q 47.515625 43.109375 48.40625 42.328125 
Q 49.3125 41.546875 49.3125 40.28125 
Q 49.3125 39.703125 49.21875 39.5 
L 42 10.6875 
Q 41.3125 7.71875 41.3125 5.8125 
Q 41.3125 1.515625 44.1875 1.515625 
Q 47.40625 1.515625 49 5.484375 
Q 50.59375 9.46875 51.703125 14.703125 
Q 51.90625 15.28125 52.484375 15.28125 
L 53.71875 15.28125 
Q 54.109375 15.28125 54.34375 14.9375 
Q 54.59375 14.59375 54.59375 14.3125 
Q 53.515625 10.015625 52.515625 6.9375 
Q 51.515625 3.859375 49.359375 1.359375 
Q 47.21875 -1.125 44 -1.125 
Q 40.828125 -1.125 38.3125 0.609375 
Q 35.796875 2.34375 34.90625 5.328125 
Q 32.625 2.390625 29.59375 0.625 
Q 26.5625 -1.125 23.1875 -1.125 
Q 17.4375 -1.125 14.015625 2.015625 
Q 10.59375 5.171875 10.59375 10.890625 
" id="Cmmi10-75"/>
      <path d="M 9.71875 -16.5 
Q 11.578125 -17.921875 14.203125 -17.921875 
Q 17.78125 -17.921875 20.015625 -10.015625 
Q 20.953125 -6.203125 25.09375 15.09375 
L 29.6875 39.59375 
L 21.09375 39.59375 
Q 20.125 39.59375 20.125 40.921875 
Q 20.515625 43.109375 21.390625 43.109375 
L 30.328125 43.109375 
L 31.5 49.609375 
Q 32.078125 52.640625 32.5625 54.8125 
Q 33.0625 56.984375 33.625 58.828125 
Q 34.1875 60.6875 35.296875 62.984375 
Q 37.015625 66.265625 39.921875 68.390625 
Q 42.828125 70.515625 46.1875 70.515625 
Q 48.390625 70.515625 50.46875 69.703125 
Q 52.546875 68.890625 53.859375 67.28125 
Q 55.171875 65.671875 55.171875 63.484375 
Q 55.171875 60.9375 53.484375 59.046875 
Q 51.8125 57.171875 49.421875 57.171875 
Q 47.796875 57.171875 46.65625 58.171875 
Q 45.515625 59.1875 45.515625 60.796875 
Q 45.515625 62.984375 47 64.625 
Q 48.484375 66.265625 50.6875 66.5 
Q 48.828125 67.921875 46.09375 67.921875 
Q 44.578125 67.921875 43.234375 66.5 
Q 41.890625 65.09375 41.5 63.484375 
Q 40.875 60.9375 38.71875 49.703125 
L 37.5 43.109375 
L 47.796875 43.109375 
Q 48.78125 43.109375 48.78125 41.796875 
Q 48.734375 41.546875 48.578125 40.9375 
Q 48.4375 40.328125 48.171875 39.953125 
Q 47.90625 39.59375 47.515625 39.59375 
L 36.8125 39.59375 
L 32.171875 15.1875 
Q 31.296875 9.859375 30.140625 4.359375 
Q 29 -1.125 26.921875 -6.90625 
Q 24.859375 -12.703125 21.625 -16.609375 
Q 18.40625 -20.515625 14.015625 -20.515625 
Q 10.640625 -20.515625 7.984375 -18.578125 
Q 5.328125 -16.65625 5.328125 -13.484375 
Q 5.328125 -10.9375 6.953125 -9.046875 
Q 8.59375 -7.171875 11.078125 -7.171875 
Q 12.75 -7.171875 13.859375 -8.171875 
Q 14.984375 -9.1875 14.984375 -10.796875 
Q 14.984375 -12.9375 13.390625 -14.71875 
Q 11.8125 -16.5 9.71875 -16.5 
" id="Cmmi10-66"/>
      <path d="M 5.609375 -23 
Q 5.609375 -22.703125 5.71875 -22.609375 
L 40.484375 73.78125 
Q 40.671875 74.359375 41.15625 74.671875 
Q 41.65625 75 42.28125 75 
Q 43.171875 75 43.71875 74.453125 
Q 44.28125 73.921875 44.28125 73 
L 44.28125 72.609375 
L 9.515625 -23.78125 
Q 8.9375 -25 7.625 -25 
Q 6.78125 -25 6.1875 -24.40625 
Q 5.609375 -23.828125 5.609375 -23 
" id="Cmmi10-3d"/>
     </defs>
     <g transform="translate(-0.72 77.29)rotate(-90.0)scale(0.08 -0.08)">
      <use transform="translate(0.0 0.40625)" xlink:href="#Cmmi10-75"/>
      <use transform="translate(57.177734375 -16.6)scale(0.7)" xlink:href="#Cmmi10-4e"/>
      <use transform="translate(119.780664062 0.40625)" xlink:href="#Cmmi10-3d"/>
      <use transform="translate(175.468652344 29.609375)" xlink:href="#Cmr10-5e"/>
      <use transform="translate(169.780664062 0.40625)" xlink:href="#Cmmi10-66"/>
      <use transform="translate(223.121757812 -16.6)scale(0.7)" xlink:href="#Cmr10-30"/>
     </g>
    </g>
   </g>
   <g id="legend_1">
    <g id="patch_7">
     <path d="M 151.887188 53.7075 
L 191.4 53.7075 
L 191.4 16.68 
L 151.887188 16.68 
z
" style="fill:#ffffff;stroke:#000000;stroke-linejoin:miter;"/>
    </g>
    <g id="line2d_134">
     <path d="M 156.087188 21.539062 
L 164.487188 21.539062 
" style="fill:none;stroke:#0000ff;stroke-linecap:square;"/>
    </g>
    <g id="line2d_135"/>
    <g id="text_14">
     <!-- N=1 -->
     <defs>
      <path d="M 4.890625 0 
L 4.890625 5.171875 
L 14.703125 5.171875 
L 14.703125 67.671875 
L 4.890625 67.671875 
L 4.890625 72.90625 
L 23.578125 72.90625 
L 67.28125 15.375 
L 67.28125 67.671875 
L 57.515625 67.671875 
L 57.515625 72.90625 
L 83.109375 72.90625 
L 83.109375 67.671875 
L 73.296875 67.671875 
L 73.296875 -1.421875 
L 67.390625 -1.421875 
L 20.703125 60.015625 
L 20.703125 5.171875 
L 30.515625 5.171875 
L 30.515625 0 
z
" id="BitstreamVeraSerif-Roman-4e"/>
      <path d="M 10.59375 45.21875 
L 73.1875 45.21875 
L 73.1875 37.40625 
L 10.59375 37.40625 
z
M 10.59375 25.296875 
L 73.1875 25.296875 
L 73.1875 17.484375 
L 10.59375 17.484375 
z
" id="BitstreamVeraSerif-Roman-3d"/>
     </defs>
     <g transform="translate(171.0871875 23.6390625)scale(0.06 -0.06)">
      <use xlink:href="#BitstreamVeraSerif-Roman-4e"/>
      <use x="87.5" xlink:href="#BitstreamVeraSerif-Roman-3d"/>
      <use x="171.2890625" xlink:href="#BitstreamVeraSerif-Roman-31"/>
     </g>
    </g>
    <g id="line2d_136">
     <path d="M 156.087188 30.345937 
L 164.487188 30.345937 
" style="fill:none;stroke:#008000;stroke-linecap:square;"/>
    </g>
    <g id="line2d_137"/>
    <g id="text_15">
     <!-- N=5 -->
     <g transform="translate(171.0871875 32.4459375)scale(0.06 -0.06)">
      <use xlink:href="#BitstreamVeraSerif-Roman-4e"/>
      <use x="87.5" xlink:href="#BitstreamVeraSerif-Roman-3d"/>
      <use x="171.2890625" xlink:href="#BitstreamVeraSerif-Roman-35"/>
     </g>
    </g>
    <g id="line2d_138">
     <path d="M 156.087188 39.152812 
L 164.487188 39.152812 
" style="fill:none;stroke:#ff0000;stroke-linecap:square;"/>
    </g>
    <g id="line2d_139"/>
    <g id="text_16">
     <!-- N=10 -->
     <g transform="translate(171.0871875 41.2528125)scale(0.06 -0.06)">
      <use xlink:href="#BitstreamVeraSerif-Roman-4e"/>
      <use x="87.5" xlink:href="#BitstreamVeraSerif-Roman-3d"/>
      <use x="171.2890625" xlink:href="#BitstreamVeraSerif-Roman-31"/>
      <use x="234.912109375" xlink:href="#BitstreamVeraSerif-Roman-30"/>
     </g>
    </g>
    <g id="line2d_140">
     <path d="M 156.087188 47.959687 
L 164.487188 47.959687 
" style="fill:none;stroke:#00bfbf;stroke-linecap:square;"/>
    </g>
    <g id="line2d_141"/>
    <g id="text_17">
     <!-- N=50 -->
     <g transform="translate(171.0871875 50.0596875)scale(0.06 -0.06)">
      <use xlink:href="#BitstreamVeraSerif-Roman-4e"/>
      <use x="87.5" xlink:href="#BitstreamVeraSerif-Roman-3d"/>
      <use x="171.2890625" xlink:href="#BitstreamVeraSerif-Roman-35"/>
      <use x="234.912109375" xlink:href="#BitstreamVeraSerif-Roman-30"/>
     </g>
    </g>
   </g>
  </g>
 </g>
 <defs>
  <clipPath id="pb3e519da5f">
   <rect height="106.02" width="167.4" x="27.0" y="13.68"/>
  </clipPath>
 </defs>
</svg>
