<?xml version="1.0" encoding="utf-8" standalone="no"?>
<!DOCTYPE svg PUBLIC "-//W3C//DTD SVG 1.1//EN"
  "http://www.w3.org/Graphics/SVG/1.1/DTD/svg11.dtd">
<!-- Created with matplotlib (http://matplotlib.org/) -->
<svg height="432pt" version="1.1" viewBox="0 0 576 432" width="576pt" xmlns="http://www.w3.org/2000/svg" xmlns:xlink="http://www.w3.org/1999/xlink">
 <defs>
  <style type="text/css">
*{stroke-linecap:butt;stroke-linejoin:round;}
  </style>
 </defs>
 <g id="figure_1">
  <g id="patch_1">
   <path d="
M0 432
L576 432
L576 0
L0 0
z
" style="fill:#ffffff;"/>
  </g>
  <g id="axes_1">
   <g id="patch_2">
    <path d="
M72 388.8
L518.4 388.8
L518.4 43.2
L72 43.2
z
" style="fill:#ffffff;"/>
   </g>
   <g id="line2d_1">
    <path clip-path="url(#p7ff5b81e1d)" d="
M72.2732 -1
L72.5802 17.8699
L73.0265 32.1404
L73.6066 43.3455
L74.276 52.0551
L75.0793 59.6112
L75.9718 65.9705
L76.9982 71.7091
L78.1585 76.915
L79.4081 81.5151
L80.7915 85.7703
L82.3088 89.7169
L83.96 93.3876
L85.745 96.8102
L87.664 100.009
L89.7168 103.003
L91.9481 105.864
L94.358 108.588
L96.9463 111.172
L99.7132 113.616
L102.659 115.92
L105.827 118.113
L109.174 120.159
L112.744 122.079
L116.537 123.864
L120.509 125.486
L124.659 126.941
L128.988 128.221
L133.451 129.308
L137.958 130.177
L142.51 130.83
L147.017 131.254
L151.48 131.45
L155.764 131.419
L159.87 131.169
L163.752 130.713
L167.367 130.067
L170.714 129.246
L173.793 128.265
L176.605 127.137
L179.149 125.88
L181.469 124.485
L183.522 122.997
L185.396 121.367
L187.092 119.596
L188.609 117.687
L189.948 115.654
L191.153 113.428
L192.224 110.995
L193.206 108.198
L194.054 105.098
L194.768 101.672
L195.393 97.5928
L195.928 92.5276
L196.33 86.6169
L196.642 78.6327
L196.865 65.8527
L196.955 50.2626
L196.999 32.4069
L196.999 32.4069
L196.999 32.4069
L197.178 70.8965
L197.49 83.1972
L197.892 90.6029
L198.427 96.4695
L199.097 101.293
L199.855 105.182
L200.748 108.619
L201.774 111.685
L202.935 114.446
L204.229 116.95
L205.657 119.234
L207.263 121.383
L209.048 123.391
L211.012 125.259
L213.154 126.984
L215.475 128.566
L217.974 130
L220.651 131.278
L223.463 132.372
L226.363 133.26
L229.309 133.927
L232.21 134.357
L235.021 134.549
L237.699 134.51
L240.198 134.253
L242.518 133.79
L244.616 133.148
L246.535 132.331
L248.275 131.351
L249.837 130.222
L251.265 128.92
L252.559 127.443
L253.764 125.72
L254.835 123.793
L255.817 121.551
L256.665 119.064
L257.424 116.155
L258.093 112.693
L258.673 108.459
L259.119 103.639
L259.476 97.5542
L259.744 89.4063
L259.923 77.2961
L260.012 55.6371
L260.057 59.242
L260.235 85.3192
L260.547 97.0483
L260.994 104.999
L261.529 110.722
L262.199 115.579
L263.002 119.805
L263.939 123.56
L265.01 126.957
L266.26 130.182
L267.688 133.24
L269.294 136.15
L271.124 138.994
L273.177 141.764
L275.453 144.462
L278.041 147.179
L280.897 149.853
L284.11 152.551
L287.68 155.254
L291.608 157.946
L295.936 160.643
L300.711 163.352
L305.933 166.057
L311.6 168.738
L317.714 171.383
L324.274 173.976
L331.236 176.486
L338.555 178.889
L346.186 181.16
L354.04 183.266
L362.028 185.177
L370.017 186.861
L377.871 188.291
L385.457 189.449
L392.687 190.332
L399.47 190.939
L405.718 191.279
L411.43 191.372
L416.607 191.238
L421.248 190.9
L425.398 190.379
L429.058 189.701
L432.315 188.878
L435.216 187.919
L437.804 186.831
L440.08 185.636
L442.089 184.337
L443.874 182.926
L445.48 181.379
L446.908 179.704
L448.202 177.848
L449.363 175.798
L450.389 173.543
L451.326 170.94
L452.129 168.064
L452.844 164.681
L453.468 160.589
L453.959 155.932
L454.361 150.041
L454.673 141.996
L454.852 132.798
L454.986 111.371
L455.03 103.205
L455.209 135.028
L455.521 147.113
L455.923 154.516
L456.458 160.444
L457.128 165.37
L457.931 169.592
L458.868 173.301
L459.939 176.623
L461.144 179.646
L462.527 182.517
L464.089 185.246
L465.874 187.908
L467.883 190.496
L470.159 193.057
L472.702 195.58
L475.558 198.1
L478.816 200.672
L482.476 203.274
L486.626 205.946
L491.267 208.666
L496.488 211.466
L502.379 214.367
L508.984 217.367
L516.347 220.462
L518.4 221.285
L518.4 221.285" style="fill:none;stroke:#0000ff;stroke-linecap:square;"/>
   </g>
   <g id="line2d_2">
    <path clip-path="url(#p7ff5b81e1d)" d="
M72.1786 7.69228
L72.4909 32.9812
L72.8926 47.9034
L73.4281 59.5893
L74.0529 68.5428
L74.8115 76.1974
L75.6594 82.4721
L76.552 87.4999
L77.5338 91.7912
L78.5602 95.2832
L79.5866 97.9964
L80.5684 99.9931
L81.5055 101.42
L82.3534 102.337
L83.1121 102.863
L83.8261 103.099
L84.4955 103.08
L85.1203 102.834
L85.745 102.341
L86.3698 101.558
L86.9946 100.423
L87.6194 98.8312
L88.2441 96.6019
L88.8243 93.6553
L89.3152 90.0401
L89.7614 85.0094
L90.1185 78.1587
L90.3416 70.1053
L90.4755 59.9768
L90.5647 36.8043
L90.6093 43.5152
L90.7879 68.5856
L91.1002 80.3195
L91.5465 88.3604
L92.082 94.1759
L92.7514 99.0959
L93.5101 103.109
L94.358 106.475
L95.2951 109.317
L96.2769 111.596
L97.2587 113.322
L98.1959 114.536
L99.0884 115.336
L99.8917 115.77
L100.65 115.929
L101.364 115.844
L102.034 115.541
L102.703 114.995
L103.373 114.167
L104.087 112.901
L104.756 111.25
L105.425 108.969
L106.05 105.971
L106.586 102.267
L107.032 97.6583
L107.389 91.7848
L107.657 83.9572
L107.835 72.7195
L107.969 44.8301
L108.014 63.5289
L108.237 83.461
L108.594 93.8918
L109.04 100.707
L109.62 106.256
L110.29 110.631
L111.048 114.226
L111.896 117.216
L112.789 119.575
L113.681 121.33
L114.529 122.533
L115.332 123.296
L116.047 123.674
L116.671 123.768
L117.251 123.644
L117.832 123.296
L118.412 122.692
L119.036 121.697
L119.661 120.249
L120.286 118.175
L120.866 115.403
L121.357 111.998
L121.803 107.309
L122.16 101.12
L122.428 92.3576
L122.607 77.3883
L122.696 55.576
L122.874 89.1593
L123.187 101.468
L123.633 109.671
L124.169 115.526
L124.838 120.411
L125.597 124.299
L126.4 127.275
L127.203 129.416
L127.917 130.735
L128.542 131.46
L129.033 131.733
L129.479 131.731
L129.881 131.492
L130.282 130.983
L130.729 130.015
L131.175 128.462
L131.621 126.008
L132.023 122.437
L132.38 116.943
L132.648 108.82
L132.826 94.9013
L132.915 63.3153
L132.96 89.2215
L133.183 110.795
L133.54 122.108
L134.031 130.489
L134.656 137.486
L135.459 144.021
L136.441 150.195
L137.601 156.097
L138.985 161.964
L140.547 167.606
L142.287 173.057
L144.206 178.33
L146.259 183.325
L148.445 188.068
L150.766 192.572
L153.176 196.765
L155.675 200.665
L158.219 204.221
L160.762 207.4
L163.306 210.232
L165.85 212.734
L168.349 214.883
L170.759 216.669
L173.079 218.121
L175.311 219.262
L177.453 220.11
L179.461 220.668
L181.335 220.961
L183.076 221.014
L184.682 220.847
L186.2 220.469
L187.628 219.879
L188.922 219.106
L190.127 218.134
L191.287 216.903
L192.358 215.429
L193.34 213.69
L194.232 211.655
L195.036 209.279
L195.75 206.496
L196.374 203.211
L196.91 199.28
L197.356 194.463
L197.713 188.342
L197.981 180.063
L198.159 167.448
L198.249 141.048
L198.293 153.205
L198.472 176.721
L198.784 188.216
L199.231 196.108
L199.766 201.817
L200.435 206.669
L201.239 210.887
L202.176 214.623
L203.247 217.98
L204.452 221.028
L205.791 223.813
L207.263 226.366
L208.87 228.704
L210.566 230.788
L212.395 232.684
L214.314 234.349
L216.278 235.761
L218.286 236.935
L220.339 237.878
L222.392 238.58
L224.445 239.049
L226.497 239.291
L228.55 239.307
L230.558 239.099
L232.522 238.676
L234.486 238.024
L236.404 237.152
L238.279 236.058
L240.153 234.701
L241.983 233.094
L243.768 231.222
L245.464 229.12
L247.115 226.717
L248.677 224.05
L250.149 221.101
L251.533 217.834
L252.827 214.19
L253.987 210.239
L255.014 205.93
L255.906 201.175
L256.62 196.185
L257.2 190.638
L257.647 184.427
L258.004 176.348
L258.227 166.788
L258.361 153.201
L258.45 137.147
L258.629 165.877
L258.941 177.267
L259.343 183.929
L259.833 188.553
L260.414 191.939
L261.038 194.294
L261.663 195.848
L262.288 196.86
L262.913 197.47
L263.493 197.746
L264.073 197.786
L264.698 197.595
L265.367 197.144
L266.126 196.342
L266.974 195.087
L267.866 193.346
L268.803 191.017
L269.785 187.948
L270.722 184.283
L271.659 179.674
L272.507 174.341
L273.266 168.079
L273.891 161.01
L274.382 152.85
L274.739 142.992
L274.962 130.365
L275.051 117.871
L275.096 96.445
L275.14 111.775
L275.319 133.697
L275.587 142.582
L275.944 147.638
L276.301 149.962
L276.613 150.79
L276.836 150.875
L277.015 150.676
L277.282 149.947
L277.595 148.404
L277.952 145.516
L278.309 140.76
L278.621 133.306
L278.844 121.644
L278.934 109.486
L278.978 87.9013
L279.023 103.965
L279.201 126.527
L279.514 137.54
L279.915 144.026
L280.362 147.864
L280.763 149.687
L281.076 150.304
L281.299 150.349
L281.477 150.141
L281.745 149.384
L282.057 147.682
L282.37 144.721
L282.682 139.466
L282.905 132.335
L283.084 118.511
L283.173 82.1802
L283.218 111.946
L283.441 133.626
L283.753 143.362
L284.155 149.718
L284.601 153.473
L284.914 154.671
L285.092 154.828
L285.226 154.654
L285.404 153.945
L285.628 151.982
L285.851 147.848
L286.029 140.509
L286.163 122.974
L286.208 99.3488
L286.208 99.3488
L286.208 99.3488
L286.386 144.205
L286.699 158.977
L287.19 171.039
L287.859 181.83
L288.707 191.942
L289.778 202
L291.027 211.606
L292.455 220.862
L294.062 229.821
L295.847 238.516
L297.811 246.968
L299.953 255.193
L302.229 263.058
L304.683 270.745
L307.316 278.257
L310.083 285.483
L313.028 292.554
L316.108 299.372
L319.365 306.042
L322.757 312.478
L326.282 318.689
L329.942 324.682
L333.69 330.396
L337.528 335.845
L341.456 341.038
L345.472 345.982
L349.533 350.63
L353.639 354.992
L357.744 359.033
L361.85 362.764
L365.956 366.195
L370.017 369.298
L373.988 372.057
L377.915 374.514
L381.709 376.63
L385.413 378.445
L389.027 379.97
L392.508 381.199
L395.855 382.15
L399.068 382.836
L402.192 383.277
L405.182 383.477
L408.038 383.449
L410.805 383.201
L413.483 382.736
L416.027 382.072
L418.481 381.205
L420.846 380.137
L423.167 378.845
L425.398 377.348
L427.585 375.61
L429.682 373.658
L431.735 371.442
L433.743 368.94
L435.662 366.193
L437.537 363.119
L439.366 359.682
L441.107 355.937
L442.803 351.753
L444.409 347.193
L445.971 342.071
L447.444 336.45
L448.827 330.256
L450.077 323.631
L451.237 316.238
L452.219 308.574
L453.067 300.233
L453.736 291.545
L454.272 281.568
L454.629 270.557
L454.852 255.868
L454.986 230.981
L455.164 260.367
L455.432 269.405
L455.744 273.701
L456.101 275.822
L456.369 276.394
L456.548 276.443
L456.726 276.276
L456.994 275.678
L457.395 274.1
L457.886 271.164
L458.466 266.25
L459.091 258.908
L459.671 249.477
L460.207 237.167
L460.653 221.768
L460.966 203.843
L461.144 182.144
L461.233 163.631
L461.412 183.534
L461.456 183.37
L461.546 180.673
L461.68 166.982
L461.724 149.642
L461.769 157.978
L461.947 179.664
L462.081 181.561
L462.17 179.744
L462.304 168.283
L462.349 153.788
L462.394 157.631
L462.572 182.91
L462.661 185.139
L462.706 184.843
L462.795 179.186
L462.84 167.495
L462.885 170.077
L463.063 204.575
L463.42 228.581
L463.956 249.575
L464.67 268.5
L465.517 284.975
L466.499 299.766
L467.615 313.293
L468.864 325.829
L470.293 337.912
L471.854 349.238
L473.55 359.944
L475.425 370.368
L477.477 380.517
L479.664 390.218
L482.029 399.714
L484.573 409.016
L487.295 418.141
L490.241 427.236
L492.231 433
L492.231 433" style="fill:none;stroke:#008000;stroke-linecap:square;"/>
   </g>
   <g id="line2d_3">
    <path clip-path="url(#p7ff5b81e1d)" d="
M72.1786 16.2491
L72.4909 41.5022
L72.8926 56.3289
L73.4281 67.7992
L74.0529 76.3693
L74.7223 82.6667
L75.4363 87.4103
L76.1503 90.7386
L76.8197 92.8447
L77.3552 93.9028
L77.8015 94.3708
L78.1585 94.4659
L78.4709 94.3314
L78.8279 93.9027
L79.2296 93.0126
L79.6758 91.3822
L80.1221 88.7865
L80.5237 85.078
L80.8807 79.5739
L81.1485 71.912
L81.327 60.5001
L81.4609 37.5783
L81.6394 67.5621
L81.9518 79.8128
L82.3981 88.0967
L82.9336 94.0008
L83.5583 98.556
L84.2277 101.918
L84.8971 104.243
L85.5219 105.69
L86.0574 106.445
L86.5037 106.747
L86.9053 106.759
L87.2624 106.554
L87.664 106.056
L88.1103 105.124
L88.6012 103.527
L89.092 101.109
L89.5383 97.7985
L89.9399 93.1698
L90.2523 87.2226
L90.5201 77.222
L90.654 64.7461
L90.7432 41.636
L90.9217 76.2472
L91.2341 88.5588
L91.6358 96.0489
L92.1713 101.929
L92.7961 106.31
L93.4655 109.434
L94.0902 111.388
L94.6704 112.56
L95.1613 113.124
L95.5629 113.306
L95.9199 113.255
L96.3216 112.945
L96.7232 112.342
L97.1695 111.275
L97.6604 109.496
L98.1512 106.832
L98.5975 103.177
L98.9992 97.9677
L99.3115 90.9211
L99.5347 80.5828
L99.6685 61.1977
L99.7132 43.7609
L99.7132 43.7609
L99.7132 43.7609
L99.8917 82.0277
L100.204 94.4186
L100.606 101.871
L101.141 107.66
L101.721 111.664
L102.346 114.543
L102.971 116.432
L103.506 117.431
L103.953 117.874
L104.354 117.979
L104.711 117.833
L105.113 117.383
L105.559 116.483
L106.05 114.901
L106.541 112.48
L106.987 109.157
L107.389 104.524
L107.701 98.6076
L107.969 88.7988
L108.103 77.0021
L108.192 41.2267
L108.237 70.3814
L108.46 91.832
L108.817 102.396
L109.263 109.1
L109.799 113.981
L110.379 117.415
L110.959 119.681
L111.495 121.013
L111.985 121.692
L112.343 121.877
L112.655 121.825
L113.012 121.509
L113.414 120.793
L113.86 119.468
L114.306 117.42
L114.752 114.303
L115.154 109.92
L115.511 103.29
L115.734 95.5399
L115.913 80.1978
L116.002 61.451
L116.18 92.6164
L116.493 104.692
L116.894 112.012
L117.385 117.268
L117.965 121.163
L118.546 123.612
L119.036 124.868
L119.438 125.417
L119.751 125.557
L120.018 125.472
L120.331 125.121
L120.688 124.348
L121.089 122.906
L121.536 120.341
L121.937 116.656
L122.294 111.245
L122.562 103.935
L122.741 93.819
L122.83 81.1619
L122.874 54.2461
L122.919 77.933
L123.098 99.6059
L123.41 110.879
L123.812 117.952
L124.302 123.021
L124.838 126.43
L125.329 128.325
L125.73 129.177
L126.043 129.431
L126.266 129.39
L126.534 129.077
L126.846 128.302
L127.203 126.752
L127.56 124.212
L127.917 120.019
L128.23 113.437
L128.453 103.614
L128.587 86.1922
L128.631 41.9662
L128.631 41.9662
L128.631 41.9662
L128.765 100.617
L129.033 114.504
L129.434 123.275
L129.925 128.989
L130.416 132.25
L130.818 133.684
L131.13 134.107
L131.309 134.065
L131.532 133.686
L131.8 132.663
L132.112 130.401
L132.424 126.197
L132.692 119.024
L132.871 107.731
L133.005 86.9365
L133.183 115.603
L133.496 127.899
L133.897 135.306
L134.299 139.288
L134.611 140.745
L134.79 140.903
L134.924 140.625
L135.102 139.55
L135.325 136.366
L135.504 130.495
L135.638 118.787
L135.727 101.538
L135.905 133.899
L136.218 148.796
L136.709 161.594
L137.423 174.123
L138.36 186.45
L139.475 198.219
L140.814 210.005
L142.332 221.429
L144.027 232.55
L145.902 243.386
L147.91 253.719
L150.052 263.603
L152.328 273.063
L154.693 281.951
L157.148 290.311
L159.647 298.035
L162.146 305.054
L164.69 311.541
L167.189 317.317
L169.643 322.448
L172.053 326.982
L174.373 330.887
L176.605 334.216
L178.702 336.956
L180.666 339.166
L182.496 340.895
L184.147 342.158
L185.664 343.044
L187.003 343.578
L188.208 343.831
L189.323 343.841
L190.35 343.624
L191.287 343.197
L192.18 342.54
L193.027 341.63
L193.831 340.431
L194.589 338.89
L195.303 336.921
L195.973 334.378
L196.553 331.282
L197.044 327.507
L197.49 322.205
L197.802 315.989
L198.026 307.848
L198.159 297.446
L198.249 271.088
L198.293 283.265
L198.472 306.862
L198.784 318.497
L199.231 326.584
L199.811 332.923
L200.525 338.222
L201.373 342.834
L202.354 346.955
L203.47 350.699
L204.72 354.135
L206.103 357.302
L207.62 360.218
L209.227 362.823
L210.878 365.084
L212.574 367.039
L214.314 368.708
L216.055 370.069
L217.751 371.122
L219.446 371.919
L221.142 372.47
L222.793 372.774
L224.445 372.853
L226.096 372.704
L227.747 372.326
L229.398 371.715
L231.049 370.862
L232.7 369.76
L234.396 368.355
L236.092 366.66
L237.833 364.597
L239.573 362.182
L241.313 359.383
L243.054 356.159
L244.794 352.459
L246.49 348.331
L248.141 343.732
L249.748 338.6
L251.265 333.015
L252.693 326.907
L253.987 320.388
L255.103 313.652
L256.04 306.696
L256.799 299.496
L257.424 291.358
L257.87 282.475
L258.182 271.163
L258.361 254.628
L258.45 238.372
L258.629 266.686
L258.896 276.368
L259.253 282.096
L259.655 285.461
L260.101 287.503
L260.547 288.554
L260.904 288.925
L261.261 288.988
L261.619 288.803
L262.065 288.282
L262.645 287.205
L263.359 285.35
L264.207 282.481
L265.189 278.321
L266.26 272.76
L267.375 265.749
L268.491 257.294
L269.562 247.489
L270.588 236.012
L271.526 222.939
L272.329 208.519
L272.954 193.421
L273.4 177.719
L273.668 161.832
L273.802 144.198
L273.846 125.171
L273.891 134.295
L274.069 154.067
L274.248 157.054
L274.292 157.123
L274.337 157.004
L274.471 155.653
L274.694 149.975
L274.873 139.744
L274.962 127.314
L275.006 105.643
L275.051 121.341
L275.23 142.825
L275.497 150.383
L275.721 152.15
L275.81 152.201
L275.944 151.679
L276.122 149.849
L276.345 145.238
L276.568 135.237
L276.702 116.684
L276.747 91.0236
L276.747 91.0236
L276.747 91.0236
L276.925 135.392
L277.193 145.381
L277.506 149.533
L277.729 150.271
L277.818 150.159
L277.996 149.246
L278.22 146.619
L278.443 141.497
L278.621 133.361
L278.755 117.027
L278.8 87.3728
L278.844 114.42
L279.023 135.407
L279.291 144.527
L279.603 148.843
L279.826 149.908
L279.915 149.96
L279.96 149.909
L280.094 149.437
L280.317 147.462
L280.54 143.413
L280.763 134.935
L280.897 121.899
L280.986 105.1
L281.165 134.688
L281.433 144.789
L281.745 149.557
L282.013 150.856
L282.102 150.824
L282.236 150.328
L282.415 148.71
L282.638 144.482
L282.816 137.504
L282.95 124.835
L283.039 106.509
L283.218 137.417
L283.486 147.65
L283.798 152.201
L283.976 152.921
L284.066 152.818
L284.2 152.027
L284.378 149.453
L284.557 143.887
L284.69 134.371
L284.78 111.038
L284.824 118.704
L285.003 143.622
L285.271 153.28
L285.538 156.372
L285.583 156.436
L285.628 156.365
L285.761 155.214
L285.94 150.309
L286.074 139.553
L286.163 112.99
L286.342 151.82
L286.609 161.81
L286.699 162.546
L286.743 162.395
L286.833 160.587
L286.922 154.664
L287.011 122.959
L287.19 172.76
L287.547 195.636
L288.127 217.534
L288.93 239.004
L289.912 259.28
L291.072 278.751
L292.411 297.568
L293.928 315.801
L295.624 333.49
L297.454 350.279
L299.462 366.66
L301.604 382.324
L303.925 397.643
L306.379 412.354
L308.967 426.52
L310.229 433
M454.591 433
L454.807 419.425
L454.941 395.439
L454.986 388.798
L455.164 416.719
L455.432 423.476
L455.655 424.888
L455.744 424.975
L455.789 424.945
L455.923 424.611
L456.191 423.084
L456.592 419.238
L457.172 411.201
L457.842 398.675
L458.556 381.04
L459.225 359.118
L459.85 331.23
L460.385 296.66
L460.787 255.116
L461.01 207.889
L461.055 170.774
L461.144 188.24
L461.233 173.879
L461.323 184.926
L461.367 181.469
L461.456 160.853
L461.59 182.385
L461.68 173.665
L461.724 150.139
L461.769 169.15
L461.903 181.449
L461.992 173.612
L462.037 155.09
L462.081 167.109
L462.215 181.94
L462.304 175.033
L462.349 157.147
L462.394 168.928
L462.527 183.416
L462.572 180.299
L462.661 168.394
L462.751 186.516
L462.795 185.603
L462.84 174.48
L462.885 179.533
L463.331 270.215
L463.777 315.719
L464.402 357.069
L465.16 392.918
L466.053 424.959
L466.314 433
L466.314 433" style="fill:none;stroke:#ff0000;stroke-linecap:square;"/>
   </g>
   <g id="line2d_4">
    <path clip-path="url(#p7ff5b81e1d)" d="
M72.1786 36.1193
L72.4463 58.069
L72.8033 70.0277
L73.1157 74.0701
L73.2496 74.3876
L73.3389 74.0902
L73.4727 72.7157
L73.6512 68.2301
L73.7851 60.1996
L73.919 32.6826
L73.9636 52.0104
L74.1868 72.8331
L74.4991 82.2655
L74.8115 86.0518
L74.99 86.5697
L75.0793 86.39
L75.2132 85.5032
L75.3917 82.8384
L75.5702 77.2489
L75.7041 67.8792
L75.7933 46.2199
L75.8379 50.6469
L76.0164 76.7403
L76.2842 86.9616
L76.5966 91.7733
L76.8197 92.7964
L76.909 92.7169
L77.0429 92.0391
L77.2214 89.8789
L77.4445 83.872
L77.623 71.1198
L77.6676 62.8961
L77.7123 25.3148
L77.7569 61.8024
L77.98 84.8548
L78.2924 93.6678
L78.5602 96.542
L78.7387 96.9738
L78.8279 96.7715
L79.0064 95.4415
L79.2296 91.4354
L79.4081 84.5332
L79.542 71.7739
L79.6312 54.5422
L79.8097 84.6595
L80.0775 94.814
L80.3899 99.3278
L80.613 100.125
L80.7022 99.9558
L80.8807 98.7104
L81.1039 94.9133
L81.327 85.9063
L81.4609 69.2604
L81.5055 27.5139
L81.5501 68.4664
L81.7733 91.1638
L82.0857 99.6995
L82.3534 102.345
L82.4873 102.655
L82.5319 102.619
L82.6658 102.08
L82.8443 100.216
L83.0675 95.1514
L83.246 85.9817
L83.3352 74.6955
L83.3798 57.2456
L83.4245 66.3207
L83.603 90.5114
L83.8707 100.046
L84.1831 104.189
L84.3616 104.773
L84.4509 104.643
L84.5848 103.894
L84.8079 100.844
L85.031 93.8704
L85.1649 84.2635
L85.2542 63.0761
L85.2988 65.9565
L85.4773 92.1924
L85.745 101.875
L86.0574 106.031
L86.2359 106.6
L86.3252 106.459
L86.4591 105.689
L86.6822 102.583
L86.9053 95.4863
L87.0392 85.6092
L87.1285 62.1309
L87.1731 69.5524
L87.3516 94.178
L87.6194 103.674
L87.9318 107.709
L88.1103 108.208
L88.1995 108.027
L88.378 106.739
L88.6012 102.864
L88.8243 93.7567
L88.9582 77.037
L89.0028 35.0582
L89.0474 76.2097
L89.2706 98.7646
L89.5829 107.073
L89.8507 109.473
L89.9399 109.652
L89.9846 109.633
L90.1185 109.133
L90.297 107.305
L90.5201 102.301
L90.6986 93.341
L90.7879 82.6915
L90.8325 68.1416
L90.8771 70.6065
L91.0556 96.9486
L91.3234 106.539
L91.6358 110.523
L91.8143 110.955
L91.9035 110.729
L92.082 109.315
L92.3052 105.151
L92.4837 98.0694
L92.6175 85.0372
L92.7068 68.8413
L92.8853 97.9586
L93.1531 107.73
L93.4208 111.444
L93.5993 112.165
L93.6886 112.074
L93.8225 111.359
L94.001 109.141
L94.2241 103.18
L94.4026 91.3597
L94.4919 68.1778
L94.5365 75.0092
L94.715 99.7605
L94.9828 109.146
L95.2505 112.682
L95.429 113.288
L95.5183 113.134
L95.6522 112.304
L95.8753 108.955
L96.0984 101.121
L96.2323 89.2076
L96.3216 61.5127
L96.5001 99.7431
L96.7678 109.884
L97.0356 113.644
L97.2141 114.332
L97.3033 114.209
L97.4372 113.42
L97.6604 110.128
L97.8835 102.377
L98.0174 90.6694
L98.1066 59.2011
L98.1512 84.8018
L98.3744 105.441
L98.6868 113.29
L98.9545 115.277
L99.0438 115.282
L99.1777 114.683
L99.3562 112.592
L99.5793 106.795
L99.7578 95.3502
L99.8471 74.852
L99.8917 76.085
L100.07 102.877
L100.338 112.354
L100.606 115.782
L100.784 116.239
L100.873 115.98
L101.052 114.395
L101.275 109.666
L101.454 101.12
L101.543 91.3579
L101.632 72.3145
L101.811 103.475
L102.078 113.217
L102.346 116.687
L102.48 117.141
L102.525 117.126
L102.659 116.574
L102.837 114.498
L103.06 108.604
L103.239 96.6572
L103.328 72.0443
L103.373 81.4199
L103.551 105.364
L103.819 114.501
L104.087 117.684
L104.22 117.997
L104.31 117.779
L104.488 116.231
L104.711 111.441
L104.89 102.591
L104.979 92.055
L105.024 77.9052
L105.068 79.2631
L105.247 105.975
L105.515 115.333
L105.782 118.532
L105.916 118.819
L106.006 118.569
L106.184 116.916
L106.407 111.818
L106.586 102.074
L106.675 89.0199
L106.72 54.0099
L106.764 87.4541
L106.943 108.003
L107.21 116.632
L107.478 119.467
L107.567 119.626
L107.612 119.569
L107.746 118.837
L107.924 116.328
L108.148 109.038
L108.281 98.1939
L108.326 89.9476
L108.371 53.8065
L108.415 88.5302
L108.594 109.003
L108.862 117.57
L109.129 120.294
L109.219 120.396
L109.308 120.122
L109.486 118.327
L109.71 112.713
L109.888 101.168
L109.977 79.3673
L110.022 83.4987
L110.2 109.086
L110.468 118.2
L110.736 121.05
L110.825 121.16
L110.914 120.879
L111.093 119.02
L111.316 113.133
L111.495 100.465
L111.539 92.4901
L111.584 63.2635
L111.628 89.8708
L111.807 110.855
L112.075 119.379
L112.298 121.737
L112.387 121.918
L112.432 121.857
L112.566 121.043
L112.744 118.204
L112.923 112.042
L113.057 101.335
L113.101 93.2391
L113.146 61.3013
L113.19 91.1881
L113.369 111.901
L113.637 120.317
L113.86 122.541
L113.949 122.647
L114.038 122.325
L114.217 120.255
L114.395 115.456
L114.574 103.621
L114.663 78.7077
L114.708 88.6327
L114.886 112.345
L115.154 121.067
L115.377 123.297
L115.466 123.37
L115.556 122.995
L115.734 120.721
L115.913 115.429
L116.047 106.767
L116.18 77.0171
L116.225 97.1312
L116.448 116.674
L116.716 123.003
L116.894 124.12
L116.984 123.968
L117.118 122.816
L117.296 119.059
L117.475 110.22
L117.564 99.1345
L117.608 82.4941
L117.653 89.8781
L117.832 114.293
L118.099 122.911
L118.322 124.843
L118.367 124.846
L118.456 124.478
L118.635 122.049
L118.813 116.14
L118.947 105.558
L118.992 97.5252
L119.036 66.6783
L119.081 95.2751
L119.26 116.007
L119.527 124.05
L119.751 125.594
L119.84 125.279
L119.974 123.73
L120.152 118.858
L120.286 110.694
L120.375 96.4224
L120.42 66.9473
L120.42 66.9473
L120.42 66.9473
L120.598 114.954
L120.866 124.433
L121.089 126.34
L121.179 126.102
L121.312 124.615
L121.491 119.706
L121.625 111.264
L121.714 95.5877
L121.759 79.8981
L121.759 79.8981
L121.759 79.8981
L121.937 116.479
L122.205 125.539
L122.383 127.077
L122.428 127.079
L122.517 126.631
L122.696 123.616
L122.874 115.667
L122.964 106.053
L123.053 87.0467
L123.231 118.029
L123.499 126.65
L123.678 127.866
L123.767 127.497
L123.901 125.597
L124.079 119.218
L124.213 105.896
L124.258 91.6677
L124.302 93.365
L124.481 119.72
L124.749 127.79
L124.883 128.655
L124.927 128.594
L125.061 127.311
L125.24 122.137
L125.373 112.182
L125.463 82.601
L125.507 99.7102
L125.686 121.645
L125.954 128.959
L126.043 129.46
L126.088 129.427
L126.177 128.775
L126.311 126.075
L126.489 116.464
L126.578 101.232
L126.623 83.1724
L126.623 83.1724
L126.623 83.1724
L126.802 121.453
L127.025 129.133
L127.159 130.3
L127.203 130.268
L127.292 129.561
L127.426 126.571
L127.56 119.573
L127.649 108.004
L127.694 87.7026
L127.739 101.93
L127.917 124.307
L128.14 130.645
L128.23 131.187
L128.274 131.112
L128.408 129.401
L128.542 124.614
L128.676 111.532
L128.72 97.2249
L128.765 99.2676
L128.944 125.292
L129.167 131.709
L129.256 132.103
L129.301 131.913
L129.434 129.601
L129.568 123.267
L129.658 112.829
L129.702 97.7074
L129.747 101.876
L129.925 126.988
L130.149 132.911
L130.193 133.079
L130.238 132.956
L130.372 130.65
L130.506 123.783
L130.595 111.216
L130.639 78.2236
L130.684 109.467
L130.863 129.44
L131.086 134.109
L131.175 133.475
L131.309 129.383
L131.443 116.291
L131.487 100.642
L131.532 106.176
L131.71 130.573
L131.889 135.118
L131.934 135.195
L132.023 134.149
L132.157 128.452
L132.246 117.799
L132.291 100.526
L132.335 109.561
L132.514 132.667
L132.692 136.402
L132.781 135.388
L132.915 128.914
L133.005 114.572
L133.049 93.4899
L133.049 93.4899
L133.049 93.4899
L133.228 133.653
L133.406 137.681
L133.496 136.196
L133.629 126.861
L133.719 89.5158
L133.763 120.547
L133.942 137.709
L134.031 139.132
L134.076 138.823
L134.165 135.795
L134.254 126.704
L134.299 113.107
L134.343 114.104
L134.522 139.235
L134.611 140.727
L134.656 140.17
L134.745 135.65
L134.879 115.972
L135.057 141.812
L135.102 142.542
L135.147 142.142
L135.236 136.856
L135.281 129.446
L135.325 91.6101
L135.37 128.902
L135.548 144.663
L135.638 140.454
L135.682 133.018
L135.727 81.2052
L135.727 81.2052
L135.727 81.2052
L135.861 146.025
L135.905 147.213
L135.905 147.213
L135.905 147.213
L135.95 146.015
L136.039 125.253
L136.084 134.799
L136.218 150.007
L136.262 145.202
L136.307 110.884
L136.307 110.884
L136.307 110.884
L136.396 153.835
L136.441 153.505
L136.486 133.436
L136.486 133.436
L136.486 133.436
L136.753 219.448
L137.155 287.875
L137.78 354.193
L138.628 420.002
L138.822 433
M272.596 433
L273.043 351.052
L273.355 258.479
L273.578 159.09
L273.623 164.269
L273.668 162.053
L273.712 147.757
L273.712 147.757
L273.712 147.757
L273.757 162.831
L273.802 158.307
L273.846 135.517
L273.846 135.517
L273.846 135.517
L273.935 159.952
L273.98 150.426
L274.025 143.683
L274.114 158.426
L274.159 152.606
L274.203 101.355
L274.248 151.306
L274.292 156.809
L274.337 156.239
L274.382 149.751
L274.426 96.2962
L274.471 148.728
L274.56 155.665
L274.605 152.173
L274.694 136.182
L274.828 154.405
L274.917 141.02
L274.962 129.83
L275.096 153.817
L275.185 146.74
L275.23 130.259
L275.274 138.035
L275.408 152.979
L275.497 146.138
L275.542 132.206
L275.587 134.276
L275.721 152.33
L275.765 151.543
L275.854 140.596
L275.899 78.5538
L275.944 140.207
L276.078 151.771
L276.167 146.994
L276.211 138.912
L276.256 99.2957
L276.256 99.2957
L276.256 99.2957
L276.39 150.291
L276.435 151.3
L276.479 150.477
L276.568 141.336
L276.613 122.533
L276.658 134.44
L276.836 150.724
L276.925 145.1
L277.015 107.531
L277.059 138.558
L277.193 150.509
L277.238 150.222
L277.327 144.004
L277.416 115.19
L277.461 138.814
L277.595 150.239
L277.639 150.035
L277.729 144.385
L277.773 136.304
L277.818 85.4242
L277.818 85.4242
L277.818 85.4242
L277.952 148.173
L278.041 150.048
L278.13 145.698
L278.22 122.667
L278.264 131.073
L278.443 150.015
L278.487 149.414
L278.577 142.954
L278.666 112.683
L278.71 137.517
L278.889 149.857
L278.978 145.818
L279.068 126.373
L279.112 127.86
L279.291 149.855
L279.335 149.608
L279.425 144.441
L279.514 113.603
L279.558 133.319
L279.737 149.945
L279.826 147.257
L279.915 134.393
L279.96 106.358
L279.96 106.358
L279.96 106.358
L280.094 147.831
L280.183 149.989
L280.228 149.027
L280.317 141.506
L280.406 123.23
L280.585 149.974
L280.629 149.976
L280.719 145.477
L280.808 122.245
L280.853 131.088
L281.031 150.288
L281.076 149.831
L281.165 143.876
L281.21 135.525
L281.254 100.536
L281.254 100.536
L281.254 100.536
L281.388 148.363
L281.477 150.465
L281.522 149.372
L281.611 140.948
L281.656 126.687
L281.7 129.476
L281.879 150.751
L281.924 150.268
L282.013 143.861
L282.102 117.344
L282.281 150.932
L282.325 150.833
L282.415 145.377
L282.459 137.327
L282.504 93.3147
L282.504 93.3147
L282.504 93.3147
L282.638 149.596
L282.727 151.229
L282.816 145.789
L282.861 137.504
L282.905 104.855
L282.905 104.855
L282.905 104.855
L283.039 150.272
L283.084 151.708
L283.129 151.467
L283.218 144.835
L283.307 126.254
L283.486 152.251
L283.575 148.1
L283.619 141.058
L283.664 111.329
L283.709 138.878
L283.843 152.693
L283.887 152.209
L283.976 143.468
L284.021 123.762
L284.066 137.701
L284.2 153.244
L284.244 152.698
L284.333 142.766
L284.378 108.912
L284.423 141.378
L284.557 153.898
L284.646 147.988
L284.735 133.961
L284.869 154.55
L284.914 153.736
L285.003 139.237
L285.047 132.333
L285.181 155.328
L285.226 154.134
L285.315 133.17
L285.36 141.291
L285.494 155.897
L285.583 142.275
L285.628 135.852
L285.761 156.882
L285.806 153.419
L285.851 141.01
L285.895 141.9
L285.985 157.938
L286.029 157.014
L286.074 150.094
L286.119 124.777
L286.119 124.777
L286.119 124.777
L286.208 158.722
L286.252 158.527
L286.342 132.959
L286.431 160.495
L286.476 158.184
L286.52 141.564
L286.565 153.252
L286.609 161.514
L286.654 160.41
L286.699 142.866
L286.743 156.969
L286.788 163.758
L286.833 158.437
L286.877 149.622
L286.922 165.251
L286.966 161.392
L287.011 156.338
L287.056 168.296
L287.1 138.356
L287.1 138.356
L287.1 138.356
L287.234 172.743
L287.279 177.216
L287.502 322.443
L287.915 433
M460.921 433
L461.144 183.686
L461.189 187.806
L461.233 185.171
L461.323 182.684
L461.367 183.524
L461.412 183.822
L461.456 181.864
L461.546 156.627
L461.635 182.212
L461.68 177.106
L461.724 153.528
L461.724 153.528
L461.724 153.528
L461.813 181.062
L461.858 167.932
L461.947 181.545
L461.992 175.289
L462.037 166.473
L462.081 181.017
L462.126 179.086
L462.17 122.688
L462.215 179.013
L462.26 181.778
L462.349 170.158
L462.438 182.161
L462.527 160.722
L462.661 185.202
L462.751 185.7
L462.84 188.545
L462.929 182.785
L462.974 185.455
L463.018 191.855
L463.127 433
L463.127 433" style="fill:none;stroke:#00bfbf;stroke-linecap:square;"/>
   </g>
   <g id="matplotlib.axis_1">
    <g id="xtick_1">
     <g id="line2d_5">
      <path clip-path="url(#p7ff5b81e1d)" d="
M72 388.8
L72 43.2" style="fill:none;opacity:0.3;stroke:#808080;stroke-dasharray:1.000000,3.000000;stroke-dashoffset:0.0;stroke-width:0.5;"/>
     </g>
     <g id="line2d_6">
      <defs>
       <path d="
M0 0
L0 -4" id="m93b0483c22" style="stroke:#000000;stroke-width:0.5;"/>
      </defs>
      <g>
       <use style="stroke:#000000;stroke-width:0.5;" x="72.0" xlink:href="#m93b0483c22" y="388.8"/>
      </g>
     </g>
     <g id="line2d_7">
      <defs>
       <path d="
M0 0
L0 4" id="m741efc42ff" style="stroke:#000000;stroke-width:0.5;"/>
      </defs>
      <g>
       <use style="stroke:#000000;stroke-width:0.5;" x="72.0" xlink:href="#m741efc42ff" y="43.2"/>
      </g>
     </g>
     <g id="text_1">
      <!-- 0.0 -->
      <defs>
       <path d="
M31.7812 3.42188
Q39.2656 3.42188 42.9688 11.625
Q46.6875 19.8281 46.6875 36.375
Q46.6875 52.9844 42.9688 61.1875
Q39.2656 69.3906 31.7812 69.3906
Q24.3125 69.3906 20.5938 61.1875
Q16.8906 52.9844 16.8906 36.375
Q16.8906 19.8281 20.5938 11.625
Q24.3125 3.42188 31.7812 3.42188
M31.7812 -1.42188
Q19.9219 -1.42188 13.25 8.53125
Q6.59375 18.5 6.59375 36.375
Q6.59375 54.2969 13.25 64.25
Q19.9219 74.2188 31.7812 74.2188
Q43.7031 74.2188 50.3438 64.25
Q56.9844 54.2969 56.9844 36.375
Q56.9844 18.5 50.3438 8.53125
Q43.7031 -1.42188 31.7812 -1.42188" id="BitstreamVeraSerif-Roman-30"/>
       <path d="
M9.42188 5.07812
Q9.42188 7.8125 11.2812 9.71875
Q13.1406 11.625 15.9219 11.625
Q18.6094 11.625 20.5 9.71875
Q22.4062 7.8125 22.4062 5.07812
Q22.4062 2.39062 20.5 0.484375
Q18.6094 -1.42188 15.9219 -1.42188
Q13.1406 -1.42188 11.2812 0.453125
Q9.42188 2.34375 9.42188 5.07812" id="BitstreamVeraSerif-Roman-2e"/>
      </defs>
      <g transform="translate(60.33625 404.9575)scale(0.16 -0.16)">
       <use xlink:href="#BitstreamVeraSerif-Roman-30"/>
       <use x="63.623046875" xlink:href="#BitstreamVeraSerif-Roman-2e"/>
       <use x="95.41015625" xlink:href="#BitstreamVeraSerif-Roman-30"/>
      </g>
     </g>
    </g>
    <g id="xtick_2">
     <g id="line2d_8">
      <path clip-path="url(#p7ff5b81e1d)" d="
M161.28 388.8
L161.28 43.2" style="fill:none;opacity:0.3;stroke:#808080;stroke-dasharray:1.000000,3.000000;stroke-dashoffset:0.0;stroke-width:0.5;"/>
     </g>
     <g id="line2d_9">
      <g>
       <use style="stroke:#000000;stroke-width:0.5;" x="161.28" xlink:href="#m93b0483c22" y="388.8"/>
      </g>
     </g>
     <g id="line2d_10">
      <g>
       <use style="stroke:#000000;stroke-width:0.5;" x="161.28" xlink:href="#m741efc42ff" y="43.2"/>
      </g>
     </g>
     <g id="text_2">
      <!-- 0.5 -->
      <defs>
       <path d="
M50.2969 72.9062
L50.2969 64.8906
L16.8906 64.8906
L16.8906 44
Q19.4375 45.75 22.8281 46.625
Q26.2188 47.5156 30.4219 47.5156
Q42.2344 47.5156 49.0625 40.9688
Q55.9062 34.4219 55.9062 23.0938
Q55.9062 11.5312 49 5.04688
Q42.0938 -1.42188 29.5938 -1.42188
Q24.5625 -1.42188 19.2812 -0.1875
Q14.0156 1.03125 8.5 3.51562
L8.5 17.6719
L14.0156 17.6719
Q14.4531 10.75 18.4219 7.07812
Q22.4062 3.42188 29.5938 3.42188
Q37.3125 3.42188 41.4531 8.5
Q45.6094 13.5781 45.6094 23.0938
Q45.6094 32.5625 41.4844 37.6094
Q37.3594 42.6719 29.5938 42.6719
Q25.2031 42.6719 21.8438 41.1094
Q18.5 39.5469 15.9219 36.2812
L11.7188 36.2812
L11.7188 72.9062
z
" id="BitstreamVeraSerif-Roman-35"/>
      </defs>
      <g transform="translate(149.7025 404.9575)scale(0.16 -0.16)">
       <use xlink:href="#BitstreamVeraSerif-Roman-30"/>
       <use x="63.623046875" xlink:href="#BitstreamVeraSerif-Roman-2e"/>
       <use x="95.41015625" xlink:href="#BitstreamVeraSerif-Roman-35"/>
      </g>
     </g>
    </g>
    <g id="xtick_3">
     <g id="line2d_11">
      <path clip-path="url(#p7ff5b81e1d)" d="
M250.56 388.8
L250.56 43.2" style="fill:none;opacity:0.3;stroke:#808080;stroke-dasharray:1.000000,3.000000;stroke-dashoffset:0.0;stroke-width:0.5;"/>
     </g>
     <g id="line2d_12">
      <g>
       <use style="stroke:#000000;stroke-width:0.5;" x="250.56" xlink:href="#m93b0483c22" y="388.8"/>
      </g>
     </g>
     <g id="line2d_13">
      <g>
       <use style="stroke:#000000;stroke-width:0.5;" x="250.56" xlink:href="#m741efc42ff" y="43.2"/>
      </g>
     </g>
     <g id="text_3">
      <!-- 1.0 -->
      <defs>
       <path d="
M14.2031 0
L14.2031 5.17188
L26.9062 5.17188
L26.9062 65.8281
L12.2031 56.2969
L12.2031 62.7031
L29.9844 74.2188
L36.7188 74.2188
L36.7188 5.17188
L49.4219 5.17188
L49.4219 0
z
" id="BitstreamVeraSerif-Roman-31"/>
      </defs>
      <g transform="translate(239.345 404.9575)scale(0.16 -0.16)">
       <use xlink:href="#BitstreamVeraSerif-Roman-31"/>
       <use x="63.623046875" xlink:href="#BitstreamVeraSerif-Roman-2e"/>
       <use x="95.41015625" xlink:href="#BitstreamVeraSerif-Roman-30"/>
      </g>
     </g>
    </g>
    <g id="xtick_4">
     <g id="line2d_14">
      <path clip-path="url(#p7ff5b81e1d)" d="
M339.84 388.8
L339.84 43.2" style="fill:none;opacity:0.3;stroke:#808080;stroke-dasharray:1.000000,3.000000;stroke-dashoffset:0.0;stroke-width:0.5;"/>
     </g>
     <g id="line2d_15">
      <g>
       <use style="stroke:#000000;stroke-width:0.5;" x="339.84" xlink:href="#m93b0483c22" y="388.8"/>
      </g>
     </g>
     <g id="line2d_16">
      <g>
       <use style="stroke:#000000;stroke-width:0.5;" x="339.84" xlink:href="#m741efc42ff" y="43.2"/>
      </g>
     </g>
     <g id="text_4">
      <!-- 1.5 -->
      <g transform="translate(328.71125 404.9575)scale(0.16 -0.16)">
       <use xlink:href="#BitstreamVeraSerif-Roman-31"/>
       <use x="63.623046875" xlink:href="#BitstreamVeraSerif-Roman-2e"/>
       <use x="95.41015625" xlink:href="#BitstreamVeraSerif-Roman-35"/>
      </g>
     </g>
    </g>
    <g id="xtick_5">
     <g id="line2d_17">
      <path clip-path="url(#p7ff5b81e1d)" d="
M429.12 388.8
L429.12 43.2" style="fill:none;opacity:0.3;stroke:#808080;stroke-dasharray:1.000000,3.000000;stroke-dashoffset:0.0;stroke-width:0.5;"/>
     </g>
     <g id="line2d_18">
      <g>
       <use style="stroke:#000000;stroke-width:0.5;" x="429.12" xlink:href="#m93b0483c22" y="388.8"/>
      </g>
     </g>
     <g id="line2d_19">
      <g>
       <use style="stroke:#000000;stroke-width:0.5;" x="429.12" xlink:href="#m741efc42ff" y="43.2"/>
      </g>
     </g>
     <g id="text_5">
      <!-- 2.0 -->
      <defs>
       <path d="
M12.7969 55.5156
L7.32812 55.5156
L7.32812 68.5
Q12.5469 71.2969 17.8438 72.75
Q23.1406 74.2188 28.2188 74.2188
Q39.5938 74.2188 46.1875 68.7031
Q52.7812 63.1875 52.7812 53.7188
Q52.7812 43.0156 37.8438 28.125
Q36.6719 27 36.0781 26.4219
L17.6719 8.01562
L48.0938 8.01562
L48.0938 17
L53.8125 17
L53.8125 0
L6.78125 0
L6.78125 5.32812
L28.9062 27.3906
Q36.2344 34.7188 39.3594 40.8438
Q42.4844 46.9688 42.4844 53.7188
Q42.4844 61.0781 38.6406 65.2344
Q34.8125 69.3906 28.0781 69.3906
Q21.0938 69.3906 17.2812 65.9219
Q13.4844 62.4531 12.7969 55.5156" id="BitstreamVeraSerif-Roman-32"/>
      </defs>
      <g transform="translate(417.47125 404.9575)scale(0.16 -0.16)">
       <use xlink:href="#BitstreamVeraSerif-Roman-32"/>
       <use x="63.623046875" xlink:href="#BitstreamVeraSerif-Roman-2e"/>
       <use x="95.41015625" xlink:href="#BitstreamVeraSerif-Roman-30"/>
      </g>
     </g>
    </g>
    <g id="xtick_6">
     <g id="line2d_20">
      <path clip-path="url(#p7ff5b81e1d)" d="
M518.4 388.8
L518.4 43.2" style="fill:none;opacity:0.3;stroke:#808080;stroke-dasharray:1.000000,3.000000;stroke-dashoffset:0.0;stroke-width:0.5;"/>
     </g>
     <g id="line2d_21">
      <g>
       <use style="stroke:#000000;stroke-width:0.5;" x="518.4" xlink:href="#m93b0483c22" y="388.8"/>
      </g>
     </g>
     <g id="line2d_22">
      <g>
       <use style="stroke:#000000;stroke-width:0.5;" x="518.4" xlink:href="#m741efc42ff" y="43.2"/>
      </g>
     </g>
     <g id="text_6">
      <!-- 2.5 -->
      <g transform="translate(506.8375 404.9575)scale(0.16 -0.16)">
       <use xlink:href="#BitstreamVeraSerif-Roman-32"/>
       <use x="63.623046875" xlink:href="#BitstreamVeraSerif-Roman-2e"/>
       <use x="95.41015625" xlink:href="#BitstreamVeraSerif-Roman-35"/>
      </g>
     </g>
    </g>
    <g id="text_7">
     <!-- $\Omega$ -->
     <defs>
      <path d="
M7.71875 0
L4.39062 16.6094
L7.32812 16.6094
Q7.85938 13.7188 8.29688 11.5
Q8.73438 9.28125 9.4375 8.375
Q10.1562 7.46875 11.7188 7.17188
Q13.2812 6.89062 16.8906 6.89062
L23 6.89062
Q21.5312 12.5469 15.6875 21.6562
Q9.85938 30.7656 7.73438 34.8906
Q5.60938 39.0156 5.60938 45.5156
Q5.60938 53.0781 10.0938 58.7656
Q14.5938 64.4531 21.7031 67.4844
Q28.8125 70.5156 36.0781 70.5156
Q43.3125 70.5156 50.4062 67.4844
Q57.5156 64.4531 62 58.7188
Q66.5 52.9844 66.5 45.5156
Q66.5 40.4375 64.6406 35.9375
Q62.7969 31.4531 59.9062 26.9531
Q57.0312 22.4688 53.6875 16.9375
Q50.3438 11.4219 49.125 6.89062
L55.1719 6.89062
Q58.8438 6.89062 60.4531 7.17188
Q62.0625 7.46875 62.7344 8.375
Q63.4219 9.28125 63.8438 11.5
Q64.2656 13.7188 64.7969 16.6094
L67.6719 16.6094
L64.4062 0
L46.6875 0
Q45.7031 0 45.7031 1.3125
Q45.7031 6.39062 46.9375 11.2656
Q48.1875 16.1562 50.625 23.0938
Q53.0781 30.0312 54.4375 35.3281
Q55.8125 40.625 55.8125 45.5156
Q55.8125 51.5156 53.4688 56.6406
Q51.125 61.7656 46.625 64.8438
Q42.1406 67.9219 36.0781 67.9219
Q26.9531 67.9219 21.625 61.4062
Q16.3125 54.8906 16.3125 45.5156
Q16.3594 40.375 17.5312 35.8281
Q18.7031 31.2969 21.3125 23.7188
Q23.9219 16.1562 25.1719 11.2656
Q26.4219 6.39062 26.4219 1.3125
Q26.4219 0 25.3906 0
z
" id="Cmr10-ad"/>
     </defs>
     <g transform="translate(288.63 426.9621875)scale(0.18 -0.18)">
      <use transform="translate(0.0 0.484375)" xlink:href="#Cmr10-ad"/>
     </g>
    </g>
   </g>
   <g id="matplotlib.axis_2">
    <g id="ytick_1">
     <g id="line2d_23">
      <path clip-path="url(#p7ff5b81e1d)" d="
M72 388.8
L518.4 388.8" style="fill:none;opacity:0.3;stroke:#808080;stroke-dasharray:1.000000,3.000000;stroke-dashoffset:0.0;stroke-width:0.5;"/>
     </g>
     <g id="line2d_24">
      <defs>
       <path d="
M0 0
L4 0" id="m728421d6d4" style="stroke:#000000;stroke-width:0.5;"/>
      </defs>
      <g>
       <use style="stroke:#000000;stroke-width:0.5;" x="72.0" xlink:href="#m728421d6d4" y="388.8"/>
      </g>
     </g>
     <g id="line2d_25">
      <defs>
       <path d="
M0 0
L-4 0" id="mcb0005524f" style="stroke:#000000;stroke-width:0.5;"/>
      </defs>
      <g>
       <use style="stroke:#000000;stroke-width:0.5;" x="518.4" xlink:href="#mcb0005524f" y="388.8"/>
      </g>
     </g>
     <g id="text_8">
      <!-- $\mathdefault{10^{-9}}$ -->
      <defs>
       <path d="
M46.7812 32.6719
Q43.5 29 39.25 27.1875
Q35.0156 25.3906 29.6875 25.3906
Q18.8438 25.3906 12.5625 31.9375
Q6.29688 38.4844 6.29688 49.8125
Q6.29688 60.8906 13.1094 67.5469
Q19.9219 74.2188 31.2969 74.2188
Q43.6562 74.2188 50.2656 65.0156
Q56.8906 55.8125 56.8906 38.7188
Q56.8906 19.5781 49.0156 9.07812
Q41.1562 -1.42188 26.9062 -1.42188
Q23.0469 -1.42188 18.7969 -0.6875
Q14.5469 0.046875 10.1094 1.51562
L10.1094 13.625
L15.5781 13.625
Q16.2188 8.6875 19.3906 6.04688
Q22.5625 3.42188 27.875 3.42188
Q37.3594 3.42188 41.9844 10.5625
Q46.625 17.7188 46.7812 32.6719
M30.9062 69.3906
Q23.9688 69.3906 20.2812 64.3281
Q16.6094 59.2812 16.6094 49.8125
Q16.6094 40.3281 20.2812 35.25
Q23.9688 30.1719 30.9062 30.1719
Q37.8438 30.1719 41.5312 35.0781
Q45.2188 39.9844 45.2188 49.2188
Q45.2188 58.9375 41.5 64.1562
Q37.7969 69.3906 30.9062 69.3906" id="BitstreamVeraSerif-Roman-39"/>
       <path d="
M4.39062 30.6094
L29.3906 30.6094
L29.3906 23
L4.39062 23
z
" id="BitstreamVeraSerif-Roman-2d"/>
      </defs>
      <g transform="translate(33.44 393.7925)scale(0.16 -0.16)">
       <use transform="translate(0.0 0.21875)" xlink:href="#BitstreamVeraSerif-Roman-31"/>
       <use transform="translate(63.623046875 0.21875)" xlink:href="#BitstreamVeraSerif-Roman-30"/>
       <use transform="translate(127.24609375 50.046875)scale(0.7)" xlink:href="#BitstreamVeraSerif-Roman-2d"/>
       <use transform="translate(150.8984375 50.046875)scale(0.7)" xlink:href="#BitstreamVeraSerif-Roman-39"/>
      </g>
     </g>
    </g>
    <g id="ytick_2">
     <g id="line2d_26">
      <path clip-path="url(#p7ff5b81e1d)" d="
M72 302.4
L518.4 302.4" style="fill:none;opacity:0.3;stroke:#808080;stroke-dasharray:1.000000,3.000000;stroke-dashoffset:0.0;stroke-width:0.5;"/>
     </g>
     <g id="line2d_27">
      <g>
       <use style="stroke:#000000;stroke-width:0.5;" x="72.0" xlink:href="#m728421d6d4" y="302.4"/>
      </g>
     </g>
     <g id="line2d_28">
      <g>
       <use style="stroke:#000000;stroke-width:0.5;" x="518.4" xlink:href="#mcb0005524f" y="302.4"/>
      </g>
     </g>
     <g id="text_9">
      <!-- $\mathdefault{10^{-6}}$ -->
      <defs>
       <path d="
M32.7188 3.42188
Q39.5938 3.42188 43.2969 8.46875
Q47.0156 13.5312 47.0156 23
Q47.0156 32.4688 43.2969 37.5156
Q39.5938 42.5781 32.7188 42.5781
Q25.7344 42.5781 22.0625 37.6875
Q18.4062 32.8125 18.4062 23.5781
Q18.4062 13.875 22.1094 8.64062
Q25.8281 3.42188 32.7188 3.42188
M16.7969 40.1406
Q20.125 43.7969 24.3125 45.5938
Q28.5156 47.4062 33.7969 47.4062
Q44.6719 47.4062 51 40.8594
Q57.3281 34.3281 57.3281 23
Q57.3281 11.9219 50.5156 5.25
Q43.7031 -1.42188 32.3281 -1.42188
Q19.9688 -1.42188 13.3281 7.78125
Q6.6875 17 6.6875 34.0781
Q6.6875 53.2188 14.5469 63.7188
Q22.4062 74.2188 36.7188 74.2188
Q40.5781 74.2188 44.8281 73.4844
Q49.0781 72.75 53.5156 71.2969
L53.5156 59.2812
L48 59.2812
Q47.4062 64.2031 44.2344 66.7969
Q41.0625 69.3906 35.6875 69.3906
Q26.2188 69.3906 21.5781 62.2031
Q16.9375 55.0312 16.7969 40.1406" id="BitstreamVeraSerif-Roman-36"/>
      </defs>
      <g transform="translate(33.44 307.3925)scale(0.16 -0.16)">
       <use transform="translate(0.0 0.21875)" xlink:href="#BitstreamVeraSerif-Roman-31"/>
       <use transform="translate(63.623046875 0.21875)" xlink:href="#BitstreamVeraSerif-Roman-30"/>
       <use transform="translate(127.24609375 50.046875)scale(0.7)" xlink:href="#BitstreamVeraSerif-Roman-2d"/>
       <use transform="translate(150.8984375 50.046875)scale(0.7)" xlink:href="#BitstreamVeraSerif-Roman-36"/>
      </g>
     </g>
    </g>
    <g id="ytick_3">
     <g id="line2d_29">
      <path clip-path="url(#p7ff5b81e1d)" d="
M72 216
L518.4 216" style="fill:none;opacity:0.3;stroke:#808080;stroke-dasharray:1.000000,3.000000;stroke-dashoffset:0.0;stroke-width:0.5;"/>
     </g>
     <g id="line2d_30">
      <g>
       <use style="stroke:#000000;stroke-width:0.5;" x="72.0" xlink:href="#m728421d6d4" y="216.0"/>
      </g>
     </g>
     <g id="line2d_31">
      <g>
       <use style="stroke:#000000;stroke-width:0.5;" x="518.4" xlink:href="#mcb0005524f" y="216.0"/>
      </g>
     </g>
     <g id="text_10">
      <!-- $\mathdefault{10^{-3}}$ -->
      <defs>
       <path d="
M9.71875 69.8281
Q15.4375 71.9688 20.6719 73.0938
Q25.9219 74.2188 30.5156 74.2188
Q41.2188 74.2188 47.2188 69.5938
Q53.2188 64.9844 53.2188 56.7812
Q53.2188 50.2031 49.0625 45.7812
Q44.9219 41.3594 37.3125 39.7969
Q46.2969 38.5312 51.25 33.2812
Q56.2031 28.0312 56.2031 19.6719
Q56.2031 9.46875 49.3438 4.01562
Q42.4844 -1.42188 29.5938 -1.42188
Q23.875 -1.42188 18.4219 -0.1875
Q12.9844 1.03125 7.625 3.51562
L7.625 17.6719
L13.0938 17.6719
Q13.5781 10.6406 17.8281 7.03125
Q22.0781 3.42188 29.7812 3.42188
Q37.25 3.42188 41.5781 7.73438
Q45.9062 12.0625 45.9062 19.5781
Q45.9062 28.1719 41.4531 32.5938
Q37.0156 37.0156 28.4219 37.0156
L23.7812 37.0156
L23.7812 42
L26.2188 42
Q34.7656 42 39.0312 45.5312
Q43.3125 49.0781 43.3125 56.2031
Q43.3125 62.5938 39.7969 65.9844
Q36.2812 69.3906 29.6875 69.3906
Q23.0938 69.3906 19.4531 66.2656
Q15.8281 63.1406 15.1875 56.9844
L9.71875 56.9844
z
" id="BitstreamVeraSerif-Roman-33"/>
      </defs>
      <g transform="translate(33.44 220.9925)scale(0.16 -0.16)">
       <use transform="translate(0.0 0.21875)" xlink:href="#BitstreamVeraSerif-Roman-31"/>
       <use transform="translate(63.623046875 0.21875)" xlink:href="#BitstreamVeraSerif-Roman-30"/>
       <use transform="translate(127.24609375 50.046875)scale(0.7)" xlink:href="#BitstreamVeraSerif-Roman-2d"/>
       <use transform="translate(150.8984375 50.046875)scale(0.7)" xlink:href="#BitstreamVeraSerif-Roman-33"/>
      </g>
     </g>
    </g>
    <g id="ytick_4">
     <g id="line2d_32">
      <path clip-path="url(#p7ff5b81e1d)" d="
M72 129.6
L518.4 129.6" style="fill:none;opacity:0.3;stroke:#808080;stroke-dasharray:1.000000,3.000000;stroke-dashoffset:0.0;stroke-width:0.5;"/>
     </g>
     <g id="line2d_33">
      <g>
       <use style="stroke:#000000;stroke-width:0.5;" x="72.0" xlink:href="#m728421d6d4" y="129.6"/>
      </g>
     </g>
     <g id="line2d_34">
      <g>
       <use style="stroke:#000000;stroke-width:0.5;" x="518.4" xlink:href="#mcb0005524f" y="129.6"/>
      </g>
     </g>
     <g id="text_11">
      <!-- $\mathdefault{10^{0}}$ -->
      <g transform="translate(37.28 134.5925)scale(0.16 -0.16)">
       <use transform="translate(0.0 0.21875)" xlink:href="#BitstreamVeraSerif-Roman-31"/>
       <use transform="translate(63.623046875 0.21875)" xlink:href="#BitstreamVeraSerif-Roman-30"/>
       <use transform="translate(127.24609375 50.046875)scale(0.7)" xlink:href="#BitstreamVeraSerif-Roman-30"/>
      </g>
     </g>
    </g>
    <g id="ytick_5">
     <g id="line2d_35">
      <path clip-path="url(#p7ff5b81e1d)" d="
M72 43.2
L518.4 43.2" style="fill:none;opacity:0.3;stroke:#808080;stroke-dasharray:1.000000,3.000000;stroke-dashoffset:0.0;stroke-width:0.5;"/>
     </g>
     <g id="line2d_36">
      <g>
       <use style="stroke:#000000;stroke-width:0.5;" x="72.0" xlink:href="#m728421d6d4" y="43.2"/>
      </g>
     </g>
     <g id="line2d_37">
      <g>
       <use style="stroke:#000000;stroke-width:0.5;" x="518.4" xlink:href="#mcb0005524f" y="43.2"/>
      </g>
     </g>
     <g id="text_12">
      <!-- $\mathdefault{10^{3}}$ -->
      <g transform="translate(37.28 48.1925)scale(0.16 -0.16)">
       <use transform="translate(0.0 0.21875)" xlink:href="#BitstreamVeraSerif-Roman-31"/>
       <use transform="translate(63.623046875 0.21875)" xlink:href="#BitstreamVeraSerif-Roman-30"/>
       <use transform="translate(127.24609375 50.046875)scale(0.7)" xlink:href="#BitstreamVeraSerif-Roman-33"/>
      </g>
     </g>
    </g>
    <g id="ytick_6">
     <g id="line2d_38">
      <defs>
       <path d="
M0 0
L2 0" id="mf0c55a9a47" style="stroke:#000000;stroke-width:0.5;"/>
      </defs>
      <g>
       <use style="stroke:#000000;stroke-width:0.5;" x="72.0" xlink:href="#mf0c55a9a47" y="380.130336125"/>
      </g>
     </g>
     <g id="line2d_39">
      <defs>
       <path d="
M0 0
L-2 0" id="ma4f294b3af" style="stroke:#000000;stroke-width:0.5;"/>
      </defs>
      <g>
       <use style="stroke:#000000;stroke-width:0.5;" x="518.4" xlink:href="#ma4f294b3af" y="380.130336125"/>
      </g>
     </g>
    </g>
    <g id="ytick_7">
     <g id="line2d_40">
      <g>
       <use style="stroke:#000000;stroke-width:0.5;" x="72.0" xlink:href="#mf0c55a9a47" y="371.46067225"/>
      </g>
     </g>
     <g id="line2d_41">
      <g>
       <use style="stroke:#000000;stroke-width:0.5;" x="518.4" xlink:href="#ma4f294b3af" y="371.46067225"/>
      </g>
     </g>
    </g>
    <g id="ytick_8">
     <g id="line2d_42">
      <g>
       <use style="stroke:#000000;stroke-width:0.5;" x="72.0" xlink:href="#mf0c55a9a47" y="366.389243989"/>
      </g>
     </g>
     <g id="line2d_43">
      <g>
       <use style="stroke:#000000;stroke-width:0.5;" x="518.4" xlink:href="#ma4f294b3af" y="366.389243989"/>
      </g>
     </g>
    </g>
    <g id="ytick_9">
     <g id="line2d_44">
      <g>
       <use style="stroke:#000000;stroke-width:0.5;" x="72.0" xlink:href="#mf0c55a9a47" y="362.791008375"/>
      </g>
     </g>
     <g id="line2d_45">
      <g>
       <use style="stroke:#000000;stroke-width:0.5;" x="518.4" xlink:href="#ma4f294b3af" y="362.791008375"/>
      </g>
     </g>
    </g>
    <g id="ytick_10">
     <g id="line2d_46">
      <g>
       <use style="stroke:#000000;stroke-width:0.5;" x="72.0" xlink:href="#mf0c55a9a47" y="351.330336125"/>
      </g>
     </g>
     <g id="line2d_47">
      <g>
       <use style="stroke:#000000;stroke-width:0.5;" x="518.4" xlink:href="#ma4f294b3af" y="351.330336125"/>
      </g>
     </g>
    </g>
    <g id="ytick_11">
     <g id="line2d_48">
      <g>
       <use style="stroke:#000000;stroke-width:0.5;" x="72.0" xlink:href="#mf0c55a9a47" y="342.66067225"/>
      </g>
     </g>
     <g id="line2d_49">
      <g>
       <use style="stroke:#000000;stroke-width:0.5;" x="518.4" xlink:href="#ma4f294b3af" y="342.66067225"/>
      </g>
     </g>
    </g>
    <g id="ytick_12">
     <g id="line2d_50">
      <g>
       <use style="stroke:#000000;stroke-width:0.5;" x="72.0" xlink:href="#mf0c55a9a47" y="337.589243989"/>
      </g>
     </g>
     <g id="line2d_51">
      <g>
       <use style="stroke:#000000;stroke-width:0.5;" x="518.4" xlink:href="#ma4f294b3af" y="337.589243989"/>
      </g>
     </g>
    </g>
    <g id="ytick_13">
     <g id="line2d_52">
      <g>
       <use style="stroke:#000000;stroke-width:0.5;" x="72.0" xlink:href="#mf0c55a9a47" y="333.991008375"/>
      </g>
     </g>
     <g id="line2d_53">
      <g>
       <use style="stroke:#000000;stroke-width:0.5;" x="518.4" xlink:href="#ma4f294b3af" y="333.991008375"/>
      </g>
     </g>
    </g>
    <g id="ytick_14">
     <g id="line2d_54">
      <g>
       <use style="stroke:#000000;stroke-width:0.5;" x="72.0" xlink:href="#mf0c55a9a47" y="322.530336125"/>
      </g>
     </g>
     <g id="line2d_55">
      <g>
       <use style="stroke:#000000;stroke-width:0.5;" x="518.4" xlink:href="#ma4f294b3af" y="322.530336125"/>
      </g>
     </g>
    </g>
    <g id="ytick_15">
     <g id="line2d_56">
      <g>
       <use style="stroke:#000000;stroke-width:0.5;" x="72.0" xlink:href="#mf0c55a9a47" y="313.86067225"/>
      </g>
     </g>
     <g id="line2d_57">
      <g>
       <use style="stroke:#000000;stroke-width:0.5;" x="518.4" xlink:href="#ma4f294b3af" y="313.86067225"/>
      </g>
     </g>
    </g>
    <g id="ytick_16">
     <g id="line2d_58">
      <g>
       <use style="stroke:#000000;stroke-width:0.5;" x="72.0" xlink:href="#mf0c55a9a47" y="308.789243989"/>
      </g>
     </g>
     <g id="line2d_59">
      <g>
       <use style="stroke:#000000;stroke-width:0.5;" x="518.4" xlink:href="#ma4f294b3af" y="308.789243989"/>
      </g>
     </g>
    </g>
    <g id="ytick_17">
     <g id="line2d_60">
      <g>
       <use style="stroke:#000000;stroke-width:0.5;" x="72.0" xlink:href="#mf0c55a9a47" y="305.191008375"/>
      </g>
     </g>
     <g id="line2d_61">
      <g>
       <use style="stroke:#000000;stroke-width:0.5;" x="518.4" xlink:href="#ma4f294b3af" y="305.191008375"/>
      </g>
     </g>
    </g>
    <g id="ytick_18">
     <g id="line2d_62">
      <g>
       <use style="stroke:#000000;stroke-width:0.5;" x="72.0" xlink:href="#mf0c55a9a47" y="293.730336125"/>
      </g>
     </g>
     <g id="line2d_63">
      <g>
       <use style="stroke:#000000;stroke-width:0.5;" x="518.4" xlink:href="#ma4f294b3af" y="293.730336125"/>
      </g>
     </g>
    </g>
    <g id="ytick_19">
     <g id="line2d_64">
      <g>
       <use style="stroke:#000000;stroke-width:0.5;" x="72.0" xlink:href="#mf0c55a9a47" y="285.06067225"/>
      </g>
     </g>
     <g id="line2d_65">
      <g>
       <use style="stroke:#000000;stroke-width:0.5;" x="518.4" xlink:href="#ma4f294b3af" y="285.06067225"/>
      </g>
     </g>
    </g>
    <g id="ytick_20">
     <g id="line2d_66">
      <g>
       <use style="stroke:#000000;stroke-width:0.5;" x="72.0" xlink:href="#mf0c55a9a47" y="279.989243989"/>
      </g>
     </g>
     <g id="line2d_67">
      <g>
       <use style="stroke:#000000;stroke-width:0.5;" x="518.4" xlink:href="#ma4f294b3af" y="279.989243989"/>
      </g>
     </g>
    </g>
    <g id="ytick_21">
     <g id="line2d_68">
      <g>
       <use style="stroke:#000000;stroke-width:0.5;" x="72.0" xlink:href="#mf0c55a9a47" y="276.391008375"/>
      </g>
     </g>
     <g id="line2d_69">
      <g>
       <use style="stroke:#000000;stroke-width:0.5;" x="518.4" xlink:href="#ma4f294b3af" y="276.391008375"/>
      </g>
     </g>
    </g>
    <g id="ytick_22">
     <g id="line2d_70">
      <g>
       <use style="stroke:#000000;stroke-width:0.5;" x="72.0" xlink:href="#mf0c55a9a47" y="264.930336125"/>
      </g>
     </g>
     <g id="line2d_71">
      <g>
       <use style="stroke:#000000;stroke-width:0.5;" x="518.4" xlink:href="#ma4f294b3af" y="264.930336125"/>
      </g>
     </g>
    </g>
    <g id="ytick_23">
     <g id="line2d_72">
      <g>
       <use style="stroke:#000000;stroke-width:0.5;" x="72.0" xlink:href="#mf0c55a9a47" y="256.26067225"/>
      </g>
     </g>
     <g id="line2d_73">
      <g>
       <use style="stroke:#000000;stroke-width:0.5;" x="518.4" xlink:href="#ma4f294b3af" y="256.26067225"/>
      </g>
     </g>
    </g>
    <g id="ytick_24">
     <g id="line2d_74">
      <g>
       <use style="stroke:#000000;stroke-width:0.5;" x="72.0" xlink:href="#mf0c55a9a47" y="251.189243989"/>
      </g>
     </g>
     <g id="line2d_75">
      <g>
       <use style="stroke:#000000;stroke-width:0.5;" x="518.4" xlink:href="#ma4f294b3af" y="251.189243989"/>
      </g>
     </g>
    </g>
    <g id="ytick_25">
     <g id="line2d_76">
      <g>
       <use style="stroke:#000000;stroke-width:0.5;" x="72.0" xlink:href="#mf0c55a9a47" y="247.591008375"/>
      </g>
     </g>
     <g id="line2d_77">
      <g>
       <use style="stroke:#000000;stroke-width:0.5;" x="518.4" xlink:href="#ma4f294b3af" y="247.591008375"/>
      </g>
     </g>
    </g>
    <g id="ytick_26">
     <g id="line2d_78">
      <g>
       <use style="stroke:#000000;stroke-width:0.5;" x="72.0" xlink:href="#mf0c55a9a47" y="236.130336125"/>
      </g>
     </g>
     <g id="line2d_79">
      <g>
       <use style="stroke:#000000;stroke-width:0.5;" x="518.4" xlink:href="#ma4f294b3af" y="236.130336125"/>
      </g>
     </g>
    </g>
    <g id="ytick_27">
     <g id="line2d_80">
      <g>
       <use style="stroke:#000000;stroke-width:0.5;" x="72.0" xlink:href="#mf0c55a9a47" y="227.46067225"/>
      </g>
     </g>
     <g id="line2d_81">
      <g>
       <use style="stroke:#000000;stroke-width:0.5;" x="518.4" xlink:href="#ma4f294b3af" y="227.46067225"/>
      </g>
     </g>
    </g>
    <g id="ytick_28">
     <g id="line2d_82">
      <g>
       <use style="stroke:#000000;stroke-width:0.5;" x="72.0" xlink:href="#mf0c55a9a47" y="222.389243989"/>
      </g>
     </g>
     <g id="line2d_83">
      <g>
       <use style="stroke:#000000;stroke-width:0.5;" x="518.4" xlink:href="#ma4f294b3af" y="222.389243989"/>
      </g>
     </g>
    </g>
    <g id="ytick_29">
     <g id="line2d_84">
      <g>
       <use style="stroke:#000000;stroke-width:0.5;" x="72.0" xlink:href="#mf0c55a9a47" y="218.791008375"/>
      </g>
     </g>
     <g id="line2d_85">
      <g>
       <use style="stroke:#000000;stroke-width:0.5;" x="518.4" xlink:href="#ma4f294b3af" y="218.791008375"/>
      </g>
     </g>
    </g>
    <g id="ytick_30">
     <g id="line2d_86">
      <g>
       <use style="stroke:#000000;stroke-width:0.5;" x="72.0" xlink:href="#mf0c55a9a47" y="207.330336125"/>
      </g>
     </g>
     <g id="line2d_87">
      <g>
       <use style="stroke:#000000;stroke-width:0.5;" x="518.4" xlink:href="#ma4f294b3af" y="207.330336125"/>
      </g>
     </g>
    </g>
    <g id="ytick_31">
     <g id="line2d_88">
      <g>
       <use style="stroke:#000000;stroke-width:0.5;" x="72.0" xlink:href="#mf0c55a9a47" y="198.66067225"/>
      </g>
     </g>
     <g id="line2d_89">
      <g>
       <use style="stroke:#000000;stroke-width:0.5;" x="518.4" xlink:href="#ma4f294b3af" y="198.66067225"/>
      </g>
     </g>
    </g>
    <g id="ytick_32">
     <g id="line2d_90">
      <g>
       <use style="stroke:#000000;stroke-width:0.5;" x="72.0" xlink:href="#mf0c55a9a47" y="193.589243989"/>
      </g>
     </g>
     <g id="line2d_91">
      <g>
       <use style="stroke:#000000;stroke-width:0.5;" x="518.4" xlink:href="#ma4f294b3af" y="193.589243989"/>
      </g>
     </g>
    </g>
    <g id="ytick_33">
     <g id="line2d_92">
      <g>
       <use style="stroke:#000000;stroke-width:0.5;" x="72.0" xlink:href="#mf0c55a9a47" y="189.991008375"/>
      </g>
     </g>
     <g id="line2d_93">
      <g>
       <use style="stroke:#000000;stroke-width:0.5;" x="518.4" xlink:href="#ma4f294b3af" y="189.991008375"/>
      </g>
     </g>
    </g>
    <g id="ytick_34">
     <g id="line2d_94">
      <g>
       <use style="stroke:#000000;stroke-width:0.5;" x="72.0" xlink:href="#mf0c55a9a47" y="178.530336125"/>
      </g>
     </g>
     <g id="line2d_95">
      <g>
       <use style="stroke:#000000;stroke-width:0.5;" x="518.4" xlink:href="#ma4f294b3af" y="178.530336125"/>
      </g>
     </g>
    </g>
    <g id="ytick_35">
     <g id="line2d_96">
      <g>
       <use style="stroke:#000000;stroke-width:0.5;" x="72.0" xlink:href="#mf0c55a9a47" y="169.86067225"/>
      </g>
     </g>
     <g id="line2d_97">
      <g>
       <use style="stroke:#000000;stroke-width:0.5;" x="518.4" xlink:href="#ma4f294b3af" y="169.86067225"/>
      </g>
     </g>
    </g>
    <g id="ytick_36">
     <g id="line2d_98">
      <g>
       <use style="stroke:#000000;stroke-width:0.5;" x="72.0" xlink:href="#mf0c55a9a47" y="164.789243989"/>
      </g>
     </g>
     <g id="line2d_99">
      <g>
       <use style="stroke:#000000;stroke-width:0.5;" x="518.4" xlink:href="#ma4f294b3af" y="164.789243989"/>
      </g>
     </g>
    </g>
    <g id="ytick_37">
     <g id="line2d_100">
      <g>
       <use style="stroke:#000000;stroke-width:0.5;" x="72.0" xlink:href="#mf0c55a9a47" y="161.191008375"/>
      </g>
     </g>
     <g id="line2d_101">
      <g>
       <use style="stroke:#000000;stroke-width:0.5;" x="518.4" xlink:href="#ma4f294b3af" y="161.191008375"/>
      </g>
     </g>
    </g>
    <g id="ytick_38">
     <g id="line2d_102">
      <g>
       <use style="stroke:#000000;stroke-width:0.5;" x="72.0" xlink:href="#mf0c55a9a47" y="149.730336125"/>
      </g>
     </g>
     <g id="line2d_103">
      <g>
       <use style="stroke:#000000;stroke-width:0.5;" x="518.4" xlink:href="#ma4f294b3af" y="149.730336125"/>
      </g>
     </g>
    </g>
    <g id="ytick_39">
     <g id="line2d_104">
      <g>
       <use style="stroke:#000000;stroke-width:0.5;" x="72.0" xlink:href="#mf0c55a9a47" y="141.06067225"/>
      </g>
     </g>
     <g id="line2d_105">
      <g>
       <use style="stroke:#000000;stroke-width:0.5;" x="518.4" xlink:href="#ma4f294b3af" y="141.06067225"/>
      </g>
     </g>
    </g>
    <g id="ytick_40">
     <g id="line2d_106">
      <g>
       <use style="stroke:#000000;stroke-width:0.5;" x="72.0" xlink:href="#mf0c55a9a47" y="135.989243989"/>
      </g>
     </g>
     <g id="line2d_107">
      <g>
       <use style="stroke:#000000;stroke-width:0.5;" x="518.4" xlink:href="#ma4f294b3af" y="135.989243989"/>
      </g>
     </g>
    </g>
    <g id="ytick_41">
     <g id="line2d_108">
      <g>
       <use style="stroke:#000000;stroke-width:0.5;" x="72.0" xlink:href="#mf0c55a9a47" y="132.391008375"/>
      </g>
     </g>
     <g id="line2d_109">
      <g>
       <use style="stroke:#000000;stroke-width:0.5;" x="518.4" xlink:href="#ma4f294b3af" y="132.391008375"/>
      </g>
     </g>
    </g>
    <g id="ytick_42">
     <g id="line2d_110">
      <g>
       <use style="stroke:#000000;stroke-width:0.5;" x="72.0" xlink:href="#mf0c55a9a47" y="120.930336125"/>
      </g>
     </g>
     <g id="line2d_111">
      <g>
       <use style="stroke:#000000;stroke-width:0.5;" x="518.4" xlink:href="#ma4f294b3af" y="120.930336125"/>
      </g>
     </g>
    </g>
    <g id="ytick_43">
     <g id="line2d_112">
      <g>
       <use style="stroke:#000000;stroke-width:0.5;" x="72.0" xlink:href="#mf0c55a9a47" y="112.26067225"/>
      </g>
     </g>
     <g id="line2d_113">
      <g>
       <use style="stroke:#000000;stroke-width:0.5;" x="518.4" xlink:href="#ma4f294b3af" y="112.26067225"/>
      </g>
     </g>
    </g>
    <g id="ytick_44">
     <g id="line2d_114">
      <g>
       <use style="stroke:#000000;stroke-width:0.5;" x="72.0" xlink:href="#mf0c55a9a47" y="107.189243989"/>
      </g>
     </g>
     <g id="line2d_115">
      <g>
       <use style="stroke:#000000;stroke-width:0.5;" x="518.4" xlink:href="#ma4f294b3af" y="107.189243989"/>
      </g>
     </g>
    </g>
    <g id="ytick_45">
     <g id="line2d_116">
      <g>
       <use style="stroke:#000000;stroke-width:0.5;" x="72.0" xlink:href="#mf0c55a9a47" y="103.591008375"/>
      </g>
     </g>
     <g id="line2d_117">
      <g>
       <use style="stroke:#000000;stroke-width:0.5;" x="518.4" xlink:href="#ma4f294b3af" y="103.591008375"/>
      </g>
     </g>
    </g>
    <g id="ytick_46">
     <g id="line2d_118">
      <g>
       <use style="stroke:#000000;stroke-width:0.5;" x="72.0" xlink:href="#mf0c55a9a47" y="92.1303361249"/>
      </g>
     </g>
     <g id="line2d_119">
      <g>
       <use style="stroke:#000000;stroke-width:0.5;" x="518.4" xlink:href="#ma4f294b3af" y="92.1303361249"/>
      </g>
     </g>
    </g>
    <g id="ytick_47">
     <g id="line2d_120">
      <g>
       <use style="stroke:#000000;stroke-width:0.5;" x="72.0" xlink:href="#mf0c55a9a47" y="83.4606722498"/>
      </g>
     </g>
     <g id="line2d_121">
      <g>
       <use style="stroke:#000000;stroke-width:0.5;" x="518.4" xlink:href="#ma4f294b3af" y="83.4606722498"/>
      </g>
     </g>
    </g>
    <g id="ytick_48">
     <g id="line2d_122">
      <g>
       <use style="stroke:#000000;stroke-width:0.5;" x="72.0" xlink:href="#mf0c55a9a47" y="78.389243989"/>
      </g>
     </g>
     <g id="line2d_123">
      <g>
       <use style="stroke:#000000;stroke-width:0.5;" x="518.4" xlink:href="#ma4f294b3af" y="78.389243989"/>
      </g>
     </g>
    </g>
    <g id="ytick_49">
     <g id="line2d_124">
      <g>
       <use style="stroke:#000000;stroke-width:0.5;" x="72.0" xlink:href="#mf0c55a9a47" y="74.7910083746"/>
      </g>
     </g>
     <g id="line2d_125">
      <g>
       <use style="stroke:#000000;stroke-width:0.5;" x="518.4" xlink:href="#ma4f294b3af" y="74.7910083746"/>
      </g>
     </g>
    </g>
    <g id="ytick_50">
     <g id="line2d_126">
      <g>
       <use style="stroke:#000000;stroke-width:0.5;" x="72.0" xlink:href="#mf0c55a9a47" y="63.3303361249"/>
      </g>
     </g>
     <g id="line2d_127">
      <g>
       <use style="stroke:#000000;stroke-width:0.5;" x="518.4" xlink:href="#ma4f294b3af" y="63.3303361249"/>
      </g>
     </g>
    </g>
    <g id="ytick_51">
     <g id="line2d_128">
      <g>
       <use style="stroke:#000000;stroke-width:0.5;" x="72.0" xlink:href="#mf0c55a9a47" y="54.6606722498"/>
      </g>
     </g>
     <g id="line2d_129">
      <g>
       <use style="stroke:#000000;stroke-width:0.5;" x="518.4" xlink:href="#ma4f294b3af" y="54.6606722498"/>
      </g>
     </g>
    </g>
    <g id="ytick_52">
     <g id="line2d_130">
      <g>
       <use style="stroke:#000000;stroke-width:0.5;" x="72.0" xlink:href="#mf0c55a9a47" y="49.589243989"/>
      </g>
     </g>
     <g id="line2d_131">
      <g>
       <use style="stroke:#000000;stroke-width:0.5;" x="518.4" xlink:href="#ma4f294b3af" y="49.589243989"/>
      </g>
     </g>
    </g>
    <g id="ytick_53">
     <g id="line2d_132">
      <g>
       <use style="stroke:#000000;stroke-width:0.5;" x="72.0" xlink:href="#mf0c55a9a47" y="45.9910083746"/>
      </g>
     </g>
     <g id="line2d_133">
      <g>
       <use style="stroke:#000000;stroke-width:0.5;" x="518.4" xlink:href="#ma4f294b3af" y="45.9910083746"/>
      </g>
     </g>
    </g>
    <g id="text_13">
     <!-- $u_N/\hat{f}_0$ -->
     <defs>
      <path d="
M13.4844 53.8125
L11.5312 55.9062
L25 69.3906
L38.375 55.9062
L36.375 53.8125
L25 63.8125
z
" id="Cmr10-5e"/>
      <path d="
M4.6875 0
Q3.71875 0 3.71875 1.3125
Q3.76562 1.5625 3.90625 2.17188
Q4.04688 2.78125 4.3125 3.14062
Q4.59375 3.51562 4.98438 3.51562
Q14.5469 3.51562 16.1094 9.625
L29.6875 64.3125
Q26.9062 64.7969 20.9062 64.7969
Q19.9219 64.7969 19.9219 66.1094
Q19.9688 66.3594 20.1094 66.9688
Q20.2656 67.5781 20.5312 67.9375
Q20.7969 68.3125 21.1875 68.3125
L38.4844 68.3125
Q39.2031 68.3125 39.4062 67.6719
L61.625 14.7969
L72.7031 59.0781
Q72.9062 60.1562 72.9062 60.5938
Q72.9062 64.7969 65.1875 64.7969
Q64.2031 64.7969 64.2031 66.1094
Q64.5469 67.3906 64.7344 67.8438
Q64.9375 68.3125 65.9219 68.3125
L87.3125 68.3125
Q88.2812 68.3125 88.2812 67
Q88.2344 66.75 88.0781 66.1406
Q87.9375 65.5312 87.6719 65.1562
Q87.4062 64.7969 87.0156 64.7969
Q77.4375 64.7969 75.875 58.6875
L61.5312 0.875
Q61.1875 0 60.5 0
L59.2812 0
Q58.5938 0 58.4062 0.6875
L32.9062 61.1875
L32.7188 61.8125
Q32.5156 62.0156 32.5156 62.1094
L19.2812 9.1875
Q19.1875 8.9375 19.1406 8.5625
Q19.0938 8.20312 19 7.71875
Q19 5.125 21.2344 4.3125
Q23.4844 3.51562 26.8125 3.51562
Q27.7812 3.51562 27.7812 2.20312
Q27.4375 0.828125 27.1875 0.40625
Q26.9531 0 26.125 0
z
" id="Cmmi10-4e"/>
      <path d="
M25 -2.20312
Q12.75 -2.20312 8.32812 7.875
Q3.90625 17.9688 3.90625 31.8906
Q3.90625 40.5781 5.48438 48.2344
Q7.07812 55.9062 11.7812 61.25
Q16.5 66.6094 25 66.6094
Q31.5938 66.6094 35.7812 63.375
Q39.9844 60.1562 42.1875 55.0469
Q44.3906 49.9531 45.1875 44.1094
Q46 38.2812 46 31.8906
Q46 23.2969 44.4062 15.7969
Q42.8281 8.29688 38.1875 3.04688
Q33.5469 -2.20312 25 -2.20312
M25 0.390625
Q30.5625 0.390625 33.2969 6.09375
Q36.0312 11.8125 36.6719 18.75
Q37.3125 25.6875 37.3125 33.5
Q37.3125 41.0156 36.6719 47.3594
Q36.0312 53.7188 33.3125 58.8594
Q30.6094 64.0156 25 64.0156
Q19.3438 64.0156 16.6094 58.8281
Q13.875 53.6562 13.2344 47.3281
Q12.5938 41.0156 12.5938 33.5
Q12.5938 27.9375 12.8594 23
Q13.1406 18.0625 14.3125 12.8125
Q15.4844 7.5625 18.0938 3.96875
Q20.7031 0.390625 25 0.390625" id="Cmr10-30"/>
      <path d="
M10.5938 10.8906
Q10.5938 14.1562 11.4688 17.5938
Q12.3594 21.0469 13.9375 25.2656
Q15.5312 29.5 16.7031 32.625
Q18.0156 36.2812 18.0156 38.625
Q18.0156 41.6094 15.8281 41.6094
Q11.8594 41.6094 9.29688 37.5312
Q6.73438 33.4531 5.51562 28.4219
Q5.32812 27.7812 4.6875 27.7812
L3.51562 27.7812
Q2.6875 27.7812 2.6875 28.7188
L2.6875 29
Q4.29688 34.9688 7.60938 39.5781
Q10.9375 44.1875 16.0156 44.1875
Q19.5781 44.1875 22.0469 41.8438
Q24.5156 39.5 24.5156 35.8906
Q24.5156 34.0312 23.6875 31.9844
Q23.25 30.7656 21.6875 26.6562
Q20.125 22.5625 19.2812 19.875
Q18.4531 17.1875 17.9219 14.5938
Q17.3906 12.0156 17.3906 9.42188
Q17.3906 6.10938 18.7969 3.8125
Q20.2188 1.51562 23.3906 1.51562
Q29.7812 1.51562 34.625 9.42188
Q34.7188 9.8125 34.7812 10.1719
Q34.8594 10.5469 34.9062 10.8906
L42.0938 39.8906
Q42.4375 41.2188 43.6562 42.1562
Q44.875 43.1094 46.2969 43.1094
Q47.5156 43.1094 48.4062 42.3281
Q49.3125 41.5469 49.3125 40.2812
Q49.3125 39.7031 49.2188 39.5
L42 10.6875
Q41.3125 7.71875 41.3125 5.8125
Q41.3125 1.51562 44.1875 1.51562
Q47.4062 1.51562 49 5.48438
Q50.5938 9.46875 51.7031 14.7031
Q51.9062 15.2812 52.4844 15.2812
L53.7188 15.2812
Q54.1094 15.2812 54.3438 14.9375
Q54.5938 14.5938 54.5938 14.3125
Q53.5156 10.0156 52.5156 6.9375
Q51.5156 3.85938 49.3594 1.35938
Q47.2188 -1.125 44 -1.125
Q40.8281 -1.125 38.3125 0.609375
Q35.7969 2.34375 34.9062 5.32812
Q32.625 2.39062 29.5938 0.625
Q26.5625 -1.125 23.1875 -1.125
Q17.4375 -1.125 14.0156 2.01562
Q10.5938 5.17188 10.5938 10.8906" id="Cmmi10-75"/>
      <path d="
M9.71875 -16.5
Q11.5781 -17.9219 14.2031 -17.9219
Q17.7812 -17.9219 20.0156 -10.0156
Q20.9531 -6.20312 25.0938 15.0938
L29.6875 39.5938
L21.0938 39.5938
Q20.125 39.5938 20.125 40.9219
Q20.5156 43.1094 21.3906 43.1094
L30.3281 43.1094
L31.5 49.6094
Q32.0781 52.6406 32.5625 54.8125
Q33.0625 56.9844 33.625 58.8281
Q34.1875 60.6875 35.2969 62.9844
Q37.0156 66.2656 39.9219 68.3906
Q42.8281 70.5156 46.1875 70.5156
Q48.3906 70.5156 50.4688 69.7031
Q52.5469 68.8906 53.8594 67.2812
Q55.1719 65.6719 55.1719 63.4844
Q55.1719 60.9375 53.4844 59.0469
Q51.8125 57.1719 49.4219 57.1719
Q47.7969 57.1719 46.6562 58.1719
Q45.5156 59.1875 45.5156 60.7969
Q45.5156 62.9844 47 64.625
Q48.4844 66.2656 50.6875 66.5
Q48.8281 67.9219 46.0938 67.9219
Q44.5781 67.9219 43.2344 66.5
Q41.8906 65.0938 41.5 63.4844
Q40.875 60.9375 38.7188 49.7031
L37.5 43.1094
L47.7969 43.1094
Q48.7812 43.1094 48.7812 41.7969
Q48.7344 41.5469 48.5781 40.9375
Q48.4375 40.3281 48.1719 39.9531
Q47.9062 39.5938 47.5156 39.5938
L36.8125 39.5938
L32.1719 15.1875
Q31.2969 9.85938 30.1406 4.35938
Q29 -1.125 26.9219 -6.90625
Q24.8594 -12.7031 21.625 -16.6094
Q18.4062 -20.5156 14.0156 -20.5156
Q10.6406 -20.5156 7.98438 -18.5781
Q5.32812 -16.6562 5.32812 -13.4844
Q5.32812 -10.9375 6.95312 -9.04688
Q8.59375 -7.17188 11.0781 -7.17188
Q12.75 -7.17188 13.8594 -8.17188
Q14.9844 -9.1875 14.9844 -10.7969
Q14.9844 -12.9375 13.3906 -14.7188
Q11.8125 -16.5 9.71875 -16.5" id="Cmmi10-66"/>
      <path d="
M5.60938 -23
Q5.60938 -22.7031 5.71875 -22.6094
L40.4844 73.7812
Q40.6719 74.3594 41.1562 74.6719
Q41.6562 75 42.2812 75
Q43.1719 75 43.7188 74.4531
Q44.2812 73.9219 44.2812 73
L44.2812 72.6094
L9.51562 -23.7812
Q8.9375 -25 7.625 -25
Q6.78125 -25 6.1875 -24.4062
Q5.60938 -23.8281 5.60938 -23" id="Cmmi10-3d"/>
     </defs>
     <g transform="translate(23.4 241.83)rotate(-90.0)scale(0.18 -0.18)">
      <use transform="translate(0.0 0.40625)" xlink:href="#Cmmi10-75"/>
      <use transform="translate(57.177734375 -25.103125)scale(0.7)" xlink:href="#Cmmi10-4e"/>
      <use transform="translate(137.5 0.40625)" xlink:href="#Cmmi10-3d"/>
      <use transform="translate(186.96875 29.609375)" xlink:href="#Cmr10-5e"/>
      <use transform="translate(187.5 0.40625)" xlink:href="#Cmmi10-66"/>
      <use transform="translate(236.376953125 -25.103125)scale(0.7)" xlink:href="#Cmr10-30"/>
     </g>
    </g>
   </g>
   <g id="patch_3">
    <path d="
M72 43.2
L518.4 43.2" style="fill:none;stroke:#000000;"/>
   </g>
   <g id="patch_4">
    <path d="
M518.4 388.8
L518.4 43.2" style="fill:none;stroke:#000000;"/>
   </g>
   <g id="patch_5">
    <path d="
M72 388.8
L518.4 388.8" style="fill:none;stroke:#000000;"/>
   </g>
   <g id="patch_6">
    <path d="
M72 388.8
L72 43.2" style="fill:none;stroke:#000000;"/>
   </g>
   <g id="legend_1">
    <g id="patch_7">
     <path d="
M384.573 171.288
L508.8 171.288
L508.8 52.8
L384.573 52.8
L384.573 171.288
z
" style="fill:#ffffff;stroke:#000000;"/>
    </g>
    <g id="line2d_134">
     <path d="
M398.013 68.349
L424.893 68.349" style="fill:none;stroke:#0000ff;stroke-linecap:square;"/>
    </g>
    <g id="line2d_135"/>
    <g id="text_14">
     <!-- N=1 -->
     <defs>
      <path d="
M4.89062 0
L4.89062 5.17188
L14.7031 5.17188
L14.7031 67.6719
L4.89062 67.6719
L4.89062 72.9062
L23.5781 72.9062
L67.2812 15.375
L67.2812 67.6719
L57.5156 67.6719
L57.5156 72.9062
L83.1094 72.9062
L83.1094 67.6719
L73.2969 67.6719
L73.2969 -1.42188
L67.3906 -1.42188
L20.7031 60.0156
L20.7031 5.17188
L30.5156 5.17188
L30.5156 0
z
" id="BitstreamVeraSerif-Roman-4e"/>
      <path d="
M10.5938 45.2188
L73.1875 45.2188
L73.1875 37.4062
L10.5938 37.4062
z

M10.5938 25.2969
L73.1875 25.2969
L73.1875 17.4844
L10.5938 17.4844
z
" id="BitstreamVeraSerif-Roman-3d"/>
     </defs>
     <g transform="translate(446.013 75.069)scale(0.192 -0.192)">
      <use xlink:href="#BitstreamVeraSerif-Roman-4e"/>
      <use x="87.5" xlink:href="#BitstreamVeraSerif-Roman-3d"/>
      <use x="171.2890625" xlink:href="#BitstreamVeraSerif-Roman-31"/>
     </g>
    </g>
    <g id="line2d_136">
     <path d="
M398.013 96.531
L424.893 96.531" style="fill:none;stroke:#008000;stroke-linecap:square;"/>
    </g>
    <g id="line2d_137"/>
    <g id="text_15">
     <!-- N=5 -->
     <g transform="translate(446.013 103.251)scale(0.192 -0.192)">
      <use xlink:href="#BitstreamVeraSerif-Roman-4e"/>
      <use x="87.5" xlink:href="#BitstreamVeraSerif-Roman-3d"/>
      <use x="171.2890625" xlink:href="#BitstreamVeraSerif-Roman-35"/>
     </g>
    </g>
    <g id="line2d_138">
     <path d="
M398.013 124.713
L424.893 124.713" style="fill:none;stroke:#ff0000;stroke-linecap:square;"/>
    </g>
    <g id="line2d_139"/>
    <g id="text_16">
     <!-- N=10 -->
     <g transform="translate(446.013 131.433)scale(0.192 -0.192)">
      <use xlink:href="#BitstreamVeraSerif-Roman-4e"/>
      <use x="87.5" xlink:href="#BitstreamVeraSerif-Roman-3d"/>
      <use x="171.2890625" xlink:href="#BitstreamVeraSerif-Roman-31"/>
      <use x="234.912109375" xlink:href="#BitstreamVeraSerif-Roman-30"/>
     </g>
    </g>
    <g id="line2d_140">
     <path d="
M398.013 152.895
L424.893 152.895" style="fill:none;stroke:#00bfbf;stroke-linecap:square;"/>
    </g>
    <g id="line2d_141"/>
    <g id="text_17">
     <!-- N=50 -->
     <g transform="translate(446.013 159.615)scale(0.192 -0.192)">
      <use xlink:href="#BitstreamVeraSerif-Roman-4e"/>
      <use x="87.5" xlink:href="#BitstreamVeraSerif-Roman-3d"/>
      <use x="171.2890625" xlink:href="#BitstreamVeraSerif-Roman-35"/>
      <use x="234.912109375" xlink:href="#BitstreamVeraSerif-Roman-30"/>
     </g>
    </g>
   </g>
  </g>
 </g>
 <defs>
  <clipPath id="p7ff5b81e1d">
   <rect height="345.6" width="446.4" x="72.0" y="43.2"/>
  </clipPath>
 </defs>
</svg>
