<?xml version="1.0" encoding="utf-8" standalone="no"?>
<!DOCTYPE svg PUBLIC "-//W3C//DTD SVG 1.1//EN"
  "http://www.w3.org/Graphics/SVG/1.1/DTD/svg11.dtd">
<!-- Created with matplotlib (http://matplotlib.org/) -->
<svg height="136pt" version="1.1" viewBox="0 0 216 136" width="216pt" xmlns="http://www.w3.org/2000/svg" xmlns:xlink="http://www.w3.org/1999/xlink">
 <defs>
  <style type="text/css">
*{stroke-linecap:butt;stroke-linejoin:round;stroke-miterlimit:100000;}
  </style>
 </defs>
 <g id="figure_1">
  <g id="patch_1">
   <path d="M 0 136.8 
L 216 136.8 
L 216 0 
L 0 0 
z
" style="fill:#ffffff;"/>
  </g>
  <g id="axes_1">
   <g id="patch_2">
    <path d="M 27 119.7 
L 194.4 119.7 
L 194.4 13.68 
L 27 13.68 
z
" style="fill:#ffffff;"/>
   </g>
   <g id="line2d_1">
    <path clip-path="url(#pda9b7bee1d)" d="M 27.083568 -1 
L 27.284515 8.402621 
L 27.619214 14.369329 
L 28.071059 18.571544 
L 28.640048 21.835691 
L 29.326182 24.507937 
L 30.129461 26.768429 
L 31.06662 28.754171 
L 32.154393 30.536657 
L 33.392781 32.136639 
L 34.79852 33.58829 
L 36.388342 34.910045 
L 38.19572 36.120028 
L 40.220652 37.204182 
L 42.463139 38.149777 
L 44.906446 38.936961 
L 47.500368 39.539038 
L 50.177964 39.932833 
L 52.82209 40.099135 
L 55.315602 40.037802 
L 57.574824 39.765556 
L 59.549551 39.308962 
L 61.223049 38.698511 
L 62.612052 37.959446 
L 63.750031 37.106757 
L 64.687189 36.128004 
L 65.456998 34.997082 
L 66.076193 33.686076 
L 66.578242 32.079347 
L 66.963146 30.060878 
L 67.230906 27.476417 
L 67.398256 23.888075 
L 67.481931 18.101298 
L 67.498666 13.412002 
L 67.515401 14.692998 
L 67.515401 14.692998 
L 67.666015 25.451141 
L 67.933775 29.242763 
L 68.31868 31.736406 
L 68.837464 33.67147 
L 69.490128 35.249219 
L 70.293407 36.604734 
L 71.264036 37.802569 
L 72.435484 38.890018 
L 73.841222 39.884755 
L 75.497985 40.77928 
L 77.405772 41.554319 
L 79.547849 42.183168 
L 81.840541 42.624973 
L 84.166703 42.849546 
L 86.40919 42.845668 
L 88.450857 42.62381 
L 90.2415 42.209375 
L 91.764383 41.631795 
L 93.036241 40.913648 
L 94.07381 40.078527 
L 94.944029 39.092276 
L 95.646898 37.962034 
L 96.232622 36.586903 
L 96.701201 34.883284 
L 97.052636 32.720955 
L 97.303661 29.651218 
L 97.43754 25.501471 
L 97.487745 20.411079 
L 97.50448 10.498482 
L 97.521215 19.786595 
L 97.521215 19.786595 
L 97.688565 29.302398 
L 97.97306 32.932186 
L 98.374699 35.348681 
L 98.910218 37.234121 
L 99.579617 38.775007 
L 100.382896 40.07249 
L 101.353525 41.217262 
L 102.491504 42.214225 
L 103.796832 43.061711 
L 105.23604 43.731448 
L 106.725453 44.182726 
L 108.164661 44.392206 
L 109.469989 44.363203 
L 110.591233 44.12207 
L 111.528391 43.700695 
L 112.314935 43.109097 
L 112.984334 42.324554 
L 113.536589 41.334264 
L 114.005168 40.020696 
L 114.373338 38.311412 
L 114.657832 35.860914 
L 114.841917 32.214306 
L 114.925592 26.966463 
L 114.959062 20.539009 
L 114.975797 26.035386 
L 114.975797 26.035386 
L 115.143147 34.372599 
L 115.444376 38.16358 
L 115.879486 40.797048 
L 116.448475 42.889159 
L 117.184814 44.747789 
L 118.105238 46.465469 
L 119.259951 48.141328 
L 120.682424 49.805456 
L 122.422862 51.492545 
L 124.548204 53.23476 
L 127.108655 55.037944 
L 130.154421 56.904674 
L 133.752442 58.843514 
L 137.969656 60.857327 
L 142.856269 62.938399 
L 148.462487 65.079133 
L 154.855248 67.277434 
L 162.084758 69.524227 
L 170.234692 71.819915 
L 179.355255 74.153946 
L 189.530122 76.524237 
L 194.4 77.585711 
L 194.4 77.585711 
" style="fill:none;stroke:#0000ff;stroke-linecap:square;"/>
   </g>
   <g id="line2d_2">
    <path clip-path="url(#pda9b7bee1d)" d="M 27.06696 3.250041 
L 27.284515 14.341173 
L 27.619214 20.266358 
L 28.054324 24.247035 
L 28.589843 27.194263 
L 29.192302 29.319898 
L 29.811496 30.742846 
L 30.397221 31.584075 
L 30.916005 31.980192 
L 31.367849 32.06041 
L 31.769489 31.899931 
L 32.154393 31.490349 
L 32.539298 30.724266 
L 32.890732 29.495883 
L 33.191962 27.567497 
L 33.409516 24.637022 
L 33.543396 19.21832 
L 33.576866 13.051946 
L 33.610336 17.309008 
L 33.610336 17.309008 
L 33.777686 25.218742 
L 34.078916 28.984027 
L 34.49729 31.492349 
L 35.016074 33.317712 
L 35.601799 34.615966 
L 36.204258 35.444712 
L 36.756512 35.859392 
L 37.258561 35.971491 
L 37.710406 35.841913 
L 38.145515 35.468828 
L 38.56389 34.797738 
L 38.965529 33.694383 
L 39.300229 32.10735 
L 39.567988 29.720376 
L 39.752073 25.827982 
L 39.835748 19.08164 
L 39.852483 5.383128 
L 39.869218 18.874092 
L 39.869218 18.874092 
L 40.036568 28.243158 
L 40.321062 31.92297 
L 40.722702 34.37415 
L 41.224751 36.126333 
L 41.777005 37.302962 
L 42.329259 37.996639 
L 42.814574 38.286978 
L 43.249683 38.298644 
L 43.634588 38.087417 
L 44.019492 37.610701 
L 44.404397 36.743376 
L 44.755831 35.339298 
L 45.040326 33.197254 
L 45.241146 29.806259 
L 45.341555 24.495665 
L 45.375025 9.16303 
L 45.39176 22.069859 
L 45.39176 22.069859 
L 45.55911 31.235197 
L 45.843605 34.931362 
L 46.245244 37.403259 
L 46.730559 39.100523 
L 47.232608 40.133446 
L 47.684452 40.606958 
L 48.019152 40.67931 
L 48.303646 40.512967 
L 48.588141 40.05302 
L 48.872636 39.103403 
L 49.12366 37.384211 
L 49.307745 34.457801 
L 49.408155 29.534094 
L 49.441625 19.437043 
L 49.475095 29.070002 
L 49.475095 29.070002 
L 49.65918 36.838796 
L 49.977144 40.862552 
L 50.445724 44.026156 
L 51.081653 46.831286 
L 51.901667 49.442293 
L 52.872295 51.801475 
L 53.976804 53.91538 
L 55.181722 55.752642 
L 56.45358 57.292841 
L 57.742174 58.509655 
L 59.014032 59.409272 
L 60.21895 59.998146 
L 61.356929 60.314823 
L 62.411232 60.383486 
L 63.381861 60.226718 
L 64.268815 59.857086 
L 65.072094 59.276459 
L 65.791698 58.472476 
L 66.410892 57.443513 
L 66.946411 56.110288 
L 67.381521 54.410884 
L 67.71622 52.1708 
L 67.95051 48.992111 
L 68.08439 43.804436 
L 68.134595 33.93518 
L 68.168065 42.921015 
L 68.168065 42.921015 
L 68.352149 49.779299 
L 68.653379 53.072404 
L 69.071754 55.304839 
L 69.607273 56.971347 
L 70.226467 58.198602 
L 70.929336 59.115109 
L 71.68241 59.745602 
L 72.468954 60.124535 
L 73.272233 60.272094 
L 74.092247 60.19911 
L 74.928996 59.898163 
L 75.765745 59.358378 
L 76.602493 58.552363 
L 77.439242 57.429481 
L 78.242521 55.970711 
L 78.995595 54.133176 
L 79.681729 51.849085 
L 80.250718 49.173546 
L 80.702563 45.94454 
L 81.003792 42.179225 
L 81.171142 37.48551 
L 81.238082 30.975342 
L 81.254817 19.197784 
L 81.254817 19.197784 
L 81.254817 19.197784 
L 81.388697 38.692295 
L 81.622987 41.763947 
L 81.890746 42.794373 
L 82.074831 42.910537 
L 82.225446 42.749778 
L 82.443001 42.119863 
L 82.694025 40.622667 
L 82.91158 37.892632 
L 83.04546 33.485218 
L 83.1124 24.23086 
L 83.14587 31.735714 
L 83.329954 38.363769 
L 83.614449 41.265942 
L 83.949149 42.651671 
L 84.216908 43.011489 
L 84.384258 42.959956 
L 84.568343 42.637212 
L 84.802632 41.688413 
L 85.020187 39.808204 
L 85.187537 36.296143 
L 85.271212 29.704636 
L 85.287947 18.901905 
L 85.304682 29.247653 
L 85.304682 29.247653 
L 85.472031 38.786967 
L 85.756526 42.393246 
L 86.091226 44.103907 
L 86.325515 44.466019 
L 86.44266 44.379029 
L 86.593275 43.897491 
L 86.760625 42.467682 
L 86.894505 39.160857 
L 86.961444 31.010017 
L 87.011649 37.41904 
L 87.212469 44.979343 
L 87.563904 49.710522 
L 88.099423 53.895521 
L 88.802292 57.664836 
L 89.672511 61.128717 
L 90.659874 64.159247 
L 91.714178 66.698387 
L 92.768482 68.684649 
L 93.755845 70.095799 
L 94.592594 70.935447 
L 95.261993 71.323405 
L 95.780778 71.392793 
L 96.215887 71.228769 
L 96.600792 70.826825 
L 96.952226 70.108612 
L 97.270191 68.900385 
L 97.521215 67.052463 
L 97.7053 64.024852 
L 97.80571 58.949392 
L 97.83918 45.945114 
L 97.87265 58.781882 
L 97.87265 58.781882 
L 98.056735 66.341975 
L 98.374699 70.255937 
L 98.843278 73.3054 
L 99.495943 76.067264 
L 100.332691 78.640369 
L 101.37026 81.113153 
L 102.575178 83.417113 
L 103.913977 85.502307 
L 105.30298 87.26318 
L 106.675248 88.656068 
L 107.980576 89.673547 
L 109.152025 90.31619 
L 110.172858 90.635391 
L 111.059812 90.686422 
L 111.812886 90.510771 
L 112.46555 90.129121 
L 113.034539 89.534669 
L 113.536589 88.678673 
L 113.971698 87.475678 
L 114.323133 85.835326 
L 114.590892 83.516683 
L 114.774977 79.864533 
L 114.858652 74.497228 
L 114.892122 69.045574 
L 114.908857 73.948911 
L 114.908857 73.948911 
L 115.076207 82.117699 
L 115.377436 85.913856 
L 115.812546 88.558378 
L 116.381535 90.643296 
L 117.084404 92.379741 
L 117.904418 93.826189 
L 118.824842 95.007085 
L 119.79547 95.895904 
L 120.749364 96.479176 
L 121.669788 96.791628 
L 122.540007 96.859959 
L 123.376755 96.702642 
L 124.180034 96.320084 
L 124.949843 95.703882 
L 125.702917 94.813029 
L 126.439256 93.592424 
L 127.15886 91.955243 
L 127.844994 89.81894 
L 128.480924 87.085964 
L 129.049913 83.643894 
L 129.551962 79.195945 
L 129.953602 73.63983 
L 130.254831 66.201188 
L 130.405446 56.59719 
L 130.438916 48.113104 
L 130.472386 55.970923 
L 130.472386 55.970923 
L 130.556061 58.030856 
L 130.606266 57.37229 
L 130.689941 52.7066 
L 130.723411 43.470172 
L 130.740146 50.858676 
L 130.740146 50.858676 
L 130.89076 57.322652 
L 130.92423 57.175699 
L 130.99117 55.541535 
L 131.041375 50.957201 
L 131.05811 42.321378 
L 131.074845 50.222598 
L 131.074845 50.222598 
L 131.22546 58.309478 
L 131.275665 57.284308 
L 131.309135 53.834066 
L 131.32587 44.76385 
L 131.32587 44.76385 
L 131.32587 44.76385 
L 131.45975 65.659095 
L 131.777714 75.381445 
L 132.263029 83.434097 
L 132.898958 90.350873 
L 133.685502 96.533048 
L 134.639395 102.291875 
L 135.777374 107.795342 
L 137.099437 113.086768 
L 138.62232 118.263337 
L 140.362758 123.389098 
L 142.337485 128.508066 
L 144.546502 133.614448 
L 146.53694 137.8 
L 146.53694 137.8 
" style="fill:none;stroke:#008000;stroke-linecap:square;"/>
   </g>
   <g id="line2d_3">
    <path clip-path="url(#pda9b7bee1d)" d="M 27.06696 5.878573 
L 27.284515 16.937375 
L 27.619214 22.732823 
L 28.037589 26.286494 
L 28.472698 28.290619 
L 28.857603 29.191718 
L 29.142097 29.409665 
L 29.342917 29.320028 
L 29.560472 28.946172 
L 29.811496 28.000788 
L 30.045786 26.153468 
L 30.213136 23.108568 
L 30.313546 16.751779 
L 30.330281 11.649839 
L 30.347016 13.923775 
L 30.347016 13.923775 
L 30.49763 24.472476 
L 30.782125 28.579637 
L 31.167029 31.060174 
L 31.585404 32.466698 
L 31.970308 33.079026 
L 32.254803 33.179166 
L 32.489093 33.026181 
L 32.756852 32.536225 
L 33.041347 31.48154 
L 33.292372 29.670396 
L 33.493191 26.439765 
L 33.593601 21.649914 
L 33.627071 14.368837 
L 33.660541 20.334046 
L 33.660541 20.334046 
L 33.827891 27.915815 
L 34.112386 31.424909 
L 34.49729 33.590581 
L 34.898929 34.72217 
L 35.250364 35.138567 
L 35.501389 35.151275 
L 35.735678 34.936111 
L 36.003438 34.362601 
L 36.287933 33.184431 
L 36.538957 31.160738 
L 36.723042 27.815031 
L 36.823452 21.558689 
L 36.840187 16.982871 
L 36.856922 18.005088 
L 36.856922 18.005088 
L 37.007537 28.910316 
L 37.275296 32.706023 
L 37.643466 34.95975 
L 38.045105 36.150097 
L 38.379805 36.554913 
L 38.630829 36.560094 
L 38.865119 36.320945 
L 39.132879 35.692266 
L 39.417373 34.389531 
L 39.668398 32.059164 
L 39.835748 28.27644 
L 39.919423 20.167914 
L 39.936158 17.305497 
L 39.936158 17.305497 
L 39.936158 17.305497 
L 40.086772 30.275184 
L 40.354532 34.113825 
L 40.722702 36.340426 
L 41.107606 37.428763 
L 41.408836 37.746281 
L 41.62639 37.717536 
L 41.86068 37.424338 
L 42.12844 36.664678 
L 42.396199 35.163032 
L 42.613754 32.639356 
L 42.764369 27.859727 
L 42.831309 20.391878 
L 42.864779 26.605675 
L 43.048864 33.125376 
L 43.350093 36.324732 
L 43.718263 38.061985 
L 44.052962 38.74706 
L 44.287252 38.849783 
L 44.488072 38.689526 
L 44.722361 38.155874 
L 44.973386 36.973043 
L 45.207676 34.662009 
L 45.35829 31.012133 
L 45.42523 25.772129 
L 45.441965 20.592392 
L 45.4587 22.998408 
L 45.4587 22.998408 
L 45.609315 33.403168 
L 45.877075 37.142226 
L 46.228509 39.162698 
L 46.546474 39.910668 
L 46.764029 39.986637 
L 46.931378 39.792653 
L 47.148933 39.12233 
L 47.366488 37.684823 
L 47.550572 34.983068 
L 47.667717 29.78118 
L 47.701187 22.19149 
L 47.734657 28.611271 
L 47.734657 28.611271 
L 47.902007 36.142894 
L 48.186502 39.547218 
L 48.504466 41.073222 
L 48.738756 41.386719 
L 48.872636 41.262636 
L 49.039985 40.703423 
L 49.22407 39.214087 
L 49.374685 36.111422 
L 49.45836 29.535211 
L 49.475095 16.916642 
L 49.49183 29.302735 
L 49.49183 29.302735 
L 49.65918 38.869481 
L 49.926939 42.33527 
L 50.177964 43.408947 
L 50.244904 43.408834 
L 50.278374 43.3517 
L 50.395519 42.732277 
L 50.512663 40.787588 
L 50.596338 35.303158 
L 50.613073 29.559177 
L 50.629808 33.364414 
L 50.629808 33.364414 
L 50.780423 44.377816 
L 51.098388 50.521542 
L 51.617172 56.127328 
L 52.336776 61.473341 
L 53.240465 66.513731 
L 54.278033 71.059558 
L 55.416012 75.073353 
L 56.62093 78.528853 
L 57.842584 81.377748 
L 59.047502 83.641783 
L 60.202215 85.352786 
L 61.273254 86.556579 
L 62.243883 87.327117 
L 63.114102 87.74477 
L 63.88391 87.876816 
L 64.58678 87.772778 
L 65.222709 87.454645 
L 65.825168 86.899511 
L 66.394157 86.055324 
L 66.896206 84.900539 
L 67.331316 83.320912 
L 67.68275 81.138452 
L 67.933775 77.998414 
L 68.067655 73.64118 
L 68.134595 62.587662 
L 68.1848 73.00518 
L 68.385619 78.95675 
L 68.703584 82.022327 
L 69.121958 84.030456 
L 69.624008 85.427879 
L 70.192997 86.386744 
L 70.778721 86.96305 
L 71.364445 87.245073 
L 71.966905 87.288693 
L 72.586099 87.104922 
L 73.255498 86.662066 
L 73.975102 85.906126 
L 74.744911 84.763312 
L 75.564925 83.129399 
L 76.401674 80.949071 
L 77.238423 78.131538 
L 78.058436 74.556479 
L 78.81151 70.259455 
L 79.48091 65.142705 
L 80.033164 59.206498 
L 80.434803 52.491765 
L 80.652358 45.394663 
L 80.736033 33.919693 
L 80.802973 41.963286 
L 80.953588 44.350521 
L 80.970323 44.338792 
L 81.053997 43.843175 
L 81.187877 41.39117 
L 81.288287 35.448018 
L 81.321757 29.10165 
L 81.338492 34.430454 
L 81.338492 34.430454 
L 81.505842 41.909055 
L 81.706662 43.114347 
L 81.773601 43.002563 
L 81.907481 42.106292 
L 82.058096 39.423526 
L 82.158506 33.509395 
L 82.191976 27.942661 
L 82.208711 32.867525 
L 82.208711 32.867525 
L 82.376061 40.630477 
L 82.61035 42.65724 
L 82.71076 42.770088 
L 82.74423 42.731374 
L 82.861375 42.285578 
L 83.028725 40.530227 
L 83.162605 36.673128 
L 83.229544 26.084078 
L 83.279749 34.97786 
L 83.463834 40.918697 
L 83.698124 42.741527 
L 83.798534 42.884983 
L 83.848739 42.840342 
L 83.965883 42.414656 
L 84.133233 40.720632 
L 84.267113 36.937082 
L 84.334053 26.716366 
L 84.384258 35.233448 
L 84.568343 41.280406 
L 84.802632 43.162367 
L 84.903042 43.299607 
L 84.936512 43.269367 
L 85.053657 42.833936 
L 85.204272 41.200112 
L 85.338152 36.713842 
L 85.388357 26.04822 
L 85.438562 36.317084 
L 85.622646 42.283317 
L 85.856936 43.987375 
L 85.907141 44.00764 
L 85.940611 43.956321 
L 86.041021 43.441598 
L 86.174901 41.395353 
L 86.27531 35.865289 
L 86.30878 29.775508 
L 86.325515 35.114321 
L 86.325515 35.114321 
L 86.492865 43.313732 
L 86.693685 45.120862 
L 86.727155 45.118267 
L 86.74389 45.082945 
L 86.827565 44.489787 
L 86.927975 42.096351 
L 87.011649 33.315589 
L 87.045119 40.226929 
L 87.229204 46.680379 
L 87.296144 47.015524 
L 87.329614 46.828763 
L 87.396554 44.984294 
L 87.430024 41.355113 
L 87.446759 28.099255 
L 87.446759 28.099255 
L 87.446759 28.099255 
L 87.580639 52.10881 
L 87.898603 61.303069 
L 88.434122 70.248765 
L 89.153727 78.606915 
L 90.04068 86.381015 
L 91.061514 93.426392 
L 92.182757 99.661971 
L 93.337471 104.880434 
L 94.441979 108.901959 
L 95.379138 111.550729 
L 96.082007 112.950754 
L 96.550587 113.4596 
L 96.835081 113.499553 
L 97.052636 113.308595 
L 97.270191 112.798922 
L 97.487745 111.671584 
L 97.67183 109.434393 
L 97.788975 105.249774 
L 97.822445 101.309207 
L 97.83918 90.843206 
L 97.855915 100.885396 
L 97.855915 100.885396 
L 98.023265 110.860963 
L 98.341229 115.702721 
L 98.843278 119.855745 
L 99.579617 124.039533 
L 100.566981 128.344773 
L 101.7719 132.611042 
L 103.144168 136.658327 
L 103.578353 137.8 
M 114.815411 137.8 
L 114.892122 128.7394 
L 114.925592 135.738308 
L 114.954136 137.8 
M 127.188222 137.8 
L 127.878464 132.320404 
L 128.531129 125.324743 
L 129.116853 116.532527 
L 129.602167 105.868054 
L 129.987072 92.575493 
L 130.254831 75.410662 
L 130.556061 49.904116 
L 130.572796 52.448542 
L 130.639736 57.657063 
L 130.689941 55.044621 
L 130.723411 47.706533 
L 130.740146 53.714681 
L 130.740146 53.714681 
L 130.807086 57.330007 
L 130.85729 55.155127 
L 130.89076 35.031542 
L 130.907495 52.75201 
L 130.907495 52.75201 
L 130.974435 57.398907 
L 131.02464 55.601386 
L 131.05811 40.46247 
L 131.074845 53.154881 
L 131.074845 53.154881 
L 131.141785 57.859991 
L 131.19199 54.154832 
L 131.208725 44.132641 
L 131.208725 44.132641 
L 131.208725 44.132641 
L 131.275665 58.817173 
L 131.32587 48.623909 
L 131.476485 75.084023 
L 131.760979 96.002648 
L 132.229559 113.985339 
L 132.848753 129.204595 
L 133.313269 137.8 
L 133.313269 137.8 
" style="fill:none;stroke:#ff0000;stroke-linecap:square;"/>
   </g>
   <g id="line2d_4">
    <path clip-path="url(#pda9b7bee1d)" d="M 27.06696 11.970253 
L 27.26778 21.611588 
L 27.43513 23.25073 
L 27.451864 23.231379 
L 27.518804 22.745078 
L 27.619214 19.660837 
L 27.669419 9.184151 
L 27.702889 17.998897 
L 27.702889 17.998897 
L 27.886974 25.750191 
L 28.054324 26.985235 
L 28.071059 26.968503 
L 28.154734 26.450859 
L 28.255143 24.296498 
L 28.322083 19.345352 
L 28.338818 14.320336 
L 28.355553 16.532768 
L 28.355553 16.532768 
L 28.506168 26.99017 
L 28.706988 28.896915 
L 28.757193 28.787027 
L 28.857603 27.754719 
L 28.958012 24.43606 
L 29.008217 17.085986 
L 29.058422 23.373073 
L 29.242507 29.449666 
L 29.376387 30.176655 
L 29.409857 30.113038 
L 29.510267 29.244677 
L 29.627412 25.65696 
L 29.694351 17.680843 
L 29.727821 24.353142 
L 29.911906 30.451664 
L 30.045786 31.13886 
L 30.079256 31.065013 
L 30.179666 30.166072 
L 30.296811 26.54153 
L 30.363751 18.584694 
L 30.397221 25.219536 
L 30.581305 31.262087 
L 30.69845 31.915836 
L 30.73192 31.880542 
L 30.815595 31.333714 
L 30.93274 28.807678 
L 30.99968 23.932117 
L 31.016415 19.548223 
L 31.03315 20.115636 
L 31.03315 20.115636 
L 31.183764 30.939412 
L 31.367849 32.56531 
L 31.418054 32.455064 
L 31.518464 31.465604 
L 31.635609 27.541817 
L 31.685814 17.687165 
L 31.736019 27.015655 
L 31.920103 32.575827 
L 32.037248 33.122693 
L 32.070718 33.055548 
L 32.171128 32.18522 
L 32.288273 28.749717 
L 32.338478 23.162657 
L 32.355213 15.427012 
L 32.355213 15.427012 
L 32.355213 15.427012 
L 32.489093 31.52121 
L 32.689912 33.616507 
L 32.740117 33.514685 
L 32.840527 32.542248 
L 32.957672 28.705281 
L 33.007877 20.23609 
L 33.058082 27.860462 
L 33.242167 33.525729 
L 33.359312 34.054138 
L 33.392781 33.97797 
L 33.493191 33.065169 
L 33.610336 29.460252 
L 33.677276 20.443227 
L 33.710746 27.840288 
L 33.894831 33.891887 
L 34.011976 34.45604 
L 34.045446 34.387187 
L 34.145855 33.496306 
L 34.263 29.959767 
L 34.32994 19.613796 
L 34.380145 29.486389 
L 34.56423 34.424376 
L 34.66464 34.822779 
L 34.69811 34.750605 
L 34.79852 33.839775 
L 34.915664 30.205083 
L 34.982604 21.645836 
L 35.016074 28.681613 
L 35.200159 34.643298 
L 35.300569 35.164147 
L 35.350774 35.071122 
L 35.451184 34.091272 
L 35.568329 30.146413 
L 35.618534 20.188561 
L 35.668738 29.602231 
L 35.852823 35.043231 
L 35.953233 35.48232 
L 35.986703 35.417561 
L 36.087113 34.516496 
L 36.204258 30.857373 
L 36.271198 22.720059 
L 36.304668 29.433626 
L 36.488752 35.305973 
L 36.589162 35.782062 
L 36.639367 35.657014 
L 36.739777 34.567159 
L 36.840187 31.225251 
L 36.907127 22.614991 
L 36.940597 29.68462 
L 37.124681 35.602625 
L 37.225091 36.064784 
L 37.258561 36.000341 
L 37.358971 35.076489 
L 37.476116 31.237669 
L 37.526321 22.583831 
L 37.576526 30.418342 
L 37.760611 35.938593 
L 37.844286 36.333581 
L 37.89449 36.237413 
L 37.9949 35.19357 
L 38.09531 31.924653 
L 38.16225 22.209422 
L 38.19572 30.152114 
L 38.379805 36.161592 
L 38.480215 36.590099 
L 38.513685 36.506175 
L 38.614094 35.476328 
L 38.714504 32.206688 
L 38.781444 22.654647 
L 38.814914 30.464811 
L 38.998999 36.436678 
L 39.082674 36.841265 
L 39.132879 36.736163 
L 39.233289 35.628558 
L 39.333699 32.049271 
L 39.383903 22.682448 
L 39.434108 31.390025 
L 39.618193 36.765164 
L 39.701868 37.081221 
L 39.735338 37.001078 
L 39.835748 35.947106 
L 39.936158 32.489251 
L 39.986363 24.528093 
L 40.036568 31.473439 
L 40.220652 37.004821 
L 40.304327 37.314057 
L 40.337797 37.225704 
L 40.438207 36.115917 
L 40.538617 32.395124 
L 40.588822 18.926433 
L 40.639027 32.211744 
L 40.823112 37.303465 
L 40.890051 37.54593 
L 40.940256 37.400846 
L 41.040666 36.100345 
L 41.141076 31.498547 
L 41.174546 23.192121 
L 41.208016 30.549714 
L 41.208016 30.549714 
L 41.375366 37.209196 
L 41.475776 37.769968 
L 41.509246 37.696081 
L 41.59292 36.885558 
L 41.69333 33.798944 
L 41.743535 28.213127 
L 41.76027 20.490114 
L 41.76027 20.490114 
L 41.76027 20.490114 
L 41.89415 36.437622 
L 42.044765 37.991009 
L 42.0615 37.980514 
L 42.12844 37.595388 
L 42.22885 35.581368 
L 42.312525 28.711382 
L 42.329259 18.638593 
L 42.329259 18.638593 
L 42.329259 18.638593 
L 42.463139 36.693157 
L 42.613754 38.210429 
L 42.630489 38.190786 
L 42.697429 37.751831 
L 42.797839 35.52176 
L 42.864779 30.46371 
L 42.881514 25.445892 
L 42.898249 27.521697 
L 42.898249 27.521697 
L 43.048864 37.494512 
L 43.166008 38.428338 
L 43.199478 38.359386 
L 43.283153 37.486854 
L 43.383563 33.895195 
L 43.433768 22.270553 
L 43.483973 33.572354 
L 43.668058 38.53362 
L 43.718263 38.640743 
L 43.751733 38.525935 
L 43.852142 37.082195 
L 43.935817 32.913391 
L 43.969287 24.272949 
L 44.002757 32.064323 
L 44.002757 32.064323 
L 44.170107 38.520315 
L 44.237047 38.863928 
L 44.287252 38.708131 
L 44.387662 37.076103 
L 44.471337 31.902795 
L 44.504807 26.936714 
L 44.521542 31.560087 
L 44.521542 31.560087 
L 44.688891 38.731336 
L 44.755831 39.084673 
L 44.806036 38.914161 
L 44.906446 37.1545 
L 44.990121 30.9493 
L 45.006856 22.510697 
L 45.023591 30.014123 
L 45.023591 30.014123 
L 45.174206 38.688137 
L 45.257881 39.307016 
L 45.308085 39.144745 
L 45.408495 37.316675 
L 45.49217 30.161464 
L 45.508905 23.893459 
L 45.508905 23.893459 
L 45.508905 23.893459 
L 45.642785 38.484889 
L 45.75993 39.531447 
L 45.7934 39.395604 
L 45.877075 38.063628 
L 45.96075 33.115899 
L 45.99422 27.066579 
L 46.010955 32.330506 
L 46.010955 32.330506 
L 46.178304 39.563203 
L 46.228509 39.769408 
L 46.261979 39.660119 
L 46.261979 39.660119 
L 46.345654 38.348079 
L 46.429329 33.199581 
L 46.462799 28.600597 
L 46.479534 33.02919 
L 46.479534 33.02919 
L 46.646884 39.872795 
L 46.680354 40.007996 
L 46.713824 39.931816 
L 46.713824 39.931816 
L 46.797498 38.648797 
L 46.881173 33.282159 
L 46.897908 28.641517 
L 46.914643 29.880169 
L 46.914643 29.880169 
L 47.065258 39.874379 
L 47.132198 40.255542 
L 47.165668 40.097615 
L 47.249343 38.400391 
L 47.316283 33.1905 
L 47.333018 26.962655 
L 47.349753 31.320162 
L 47.349753 31.320162 
L 47.500368 40.252252 
L 47.550572 40.518683 
L 47.584042 40.381004 
L 47.584042 40.381004 
L 47.667717 38.625472 
L 47.734657 32.604922 
L 47.751392 21.423648 
L 47.751392 21.423648 
L 47.751392 21.423648 
L 47.885272 40.214711 
L 47.952212 40.791384 
L 48.002417 40.478601 
L 48.086092 37.883086 
L 48.136297 30.440035 
L 48.186502 36.827853 
L 48.337116 41.079252 
L 48.353851 41.036946 
L 48.420791 39.980448 
L 48.487731 35.914453 
L 48.521201 28.372825 
L 48.537936 34.656739 
L 48.537936 34.656739 
L 48.688551 41.37082 
L 48.705286 41.378537 
L 48.722021 41.298845 
L 48.788961 39.903636 
L 48.855901 33.18515 
L 48.872636 29.279611 
L 48.872636 29.279611 
L 48.872636 29.279611 
L 49.006515 41.537701 
L 49.039985 41.714026 
L 49.05672 41.65323 
L 49.05672 41.65323 
L 49.12366 40.19007 
L 49.173865 36.065243 
L 49.1906 30.880445 
L 49.207335 33.402556 
L 49.207335 33.402556 
L 49.35795 42.068054 
L 49.408155 41.427966 
L 49.475095 37.179684 
L 49.508565 32.926098 
L 49.508565 32.926098 
L 49.508565 32.926098 
L 49.642445 42.456579 
L 49.675915 42.235868 
L 49.742855 39.244151 
L 49.776324 29.998149 
L 49.809794 38.715711 
L 49.809794 38.715711 
L 49.910204 42.889421 
L 49.943674 42.58297 
L 50.010614 38.194051 
L 50.027349 32.659763 
L 50.044084 35.956805 
L 50.044084 35.956805 
L 50.144494 43.354317 
L 50.177964 43.105941 
L 50.228169 40.290675 
L 50.261639 32.252042 
L 50.278374 39.027382 
L 50.278374 39.027382 
L 50.362049 43.924203 
L 50.412254 42.548304 
L 50.462459 35.820614 
L 50.479194 40.706939 
L 50.479194 40.706939 
L 50.546133 44.568281 
L 50.596338 42.435202 
L 50.629808 36.120902 
L 50.646543 41.820426 
L 50.646543 41.820426 
L 50.696748 45.320953 
L 50.746953 42.291364 
L 50.763688 29.180606 
L 50.763688 29.180606 
L 50.763688 29.180606 
L 50.830628 46.272928 
L 50.880833 41.743318 
L 50.981243 49.62895 
L 50.997978 40.603686 
L 50.997978 40.603686 
L 50.997978 40.603686 
L 51.148593 79.477624 
L 51.533497 110.516597 
L 52.070909 137.8 
M 79.932947 137.8 
L 80.334393 100.384231 
L 80.518478 66.347318 
L 80.618888 38.742328 
L 80.685828 39.868587 
L 80.719298 45.784496 
L 80.736033 44.574264 
L 80.736033 44.574264 
L 80.752768 39.748992 
L 80.786238 44.525281 
L 80.786238 44.525281 
L 80.802973 45.133737 
L 80.802973 45.133737 
L 80.802973 45.133737 
L 80.836443 42.093043 
L 80.853178 31.272666 
L 80.853178 31.272666 
L 80.853178 31.272666 
L 80.903383 44.609541 
L 80.970323 39.044036 
L 81.020527 44.190048 
L 81.070732 39.66183 
L 81.087467 34.358931 
L 81.087467 34.358931 
L 81.087467 34.358931 
L 81.154407 43.833949 
L 81.204612 39.736714 
L 81.221347 25.590096 
L 81.221347 25.590096 
L 81.221347 25.590096 
L 81.288287 43.56421 
L 81.338492 41.594821 
L 81.371962 29.981879 
L 81.388697 39.503192 
L 81.388697 39.503192 
L 81.455637 43.334636 
L 81.505842 40.414862 
L 81.539312 35.770951 
L 81.556047 40.100368 
L 81.556047 40.100368 
L 81.622987 43.16089 
L 81.656457 42.04544 
L 81.706662 31.813841 
L 81.740131 41.133253 
L 81.740131 41.133253 
L 81.790336 43.054424 
L 81.840541 41.596868 
L 81.890746 33.850663 
L 81.924216 41.075783 
L 81.924216 41.075783 
L 81.974421 42.942318 
L 82.024626 41.753044 
L 82.058096 37.993061 
L 82.074831 24.979669 
L 82.091566 37.708964 
L 82.091566 37.708964 
L 82.175241 42.872236 
L 82.225446 41.372908 
L 82.275651 30.598509 
L 82.309121 40.424111 
L 82.309121 40.424111 
L 82.376061 42.818189 
L 82.426266 41.433822 
L 82.459736 37.635737 
L 82.47647 24.582595 
L 82.493205 37.36616 
L 82.493205 37.36616 
L 82.57688 42.778641 
L 82.627085 41.791537 
L 82.694025 34.393968 
L 82.727495 40.626233 
L 82.794435 42.768962 
L 82.84464 41.532744 
L 82.894845 32.927571 
L 82.94505 40.860836 
L 83.01199 42.765326 
L 83.062195 41.467893 
L 83.1124 32.481996 
L 83.162605 40.869196 
L 83.229544 42.783012 
L 83.279749 41.556607 
L 83.329954 33.711045 
L 83.380159 40.732625 
L 83.447099 42.815162 
L 83.497304 41.734971 
L 83.564244 33.937999 
L 83.597714 40.498287 
L 83.664654 42.851989 
L 83.714859 41.944685 
L 83.765064 36.523466 
L 83.781799 31.035691 
L 83.781799 31.035691 
L 83.781799 31.035691 
L 83.882209 42.890013 
L 83.915679 42.637723 
L 83.982618 37.431643 
L 83.999353 19.18721 
L 84.016088 37.378436 
L 84.016088 37.378436 
L 84.116498 42.958909 
L 84.149968 42.308169 
L 84.200173 37.978718 
L 84.216908 29.925925 
L 84.233643 36.951316 
L 84.233643 36.951316 
L 84.334053 43.040956 
L 84.367523 42.417324 
L 84.417728 38.131685 
L 84.434463 30.314637 
L 84.451198 37.031891 
L 84.451198 37.031891 
L 84.551608 43.122681 
L 84.585078 42.447489 
L 84.635283 37.736313 
L 84.652018 18.800666 
L 84.652018 18.800666 
L 84.652018 18.800666 
L 84.752427 43.220043 
L 84.769162 43.190172 
L 84.819367 41.384235 
L 84.869572 34.15559 
L 84.903042 41.091849 
L 84.903042 41.091849 
L 84.969982 43.344213 
L 85.020187 41.994607 
L 85.053657 38.204913 
L 85.070392 23.409586 
L 85.087127 38.071906 
L 85.087127 38.071906 
L 85.170802 43.462565 
L 85.221007 42.289569 
L 85.254477 38.780891 
L 85.271212 30.402607 
L 85.287947 37.874325 
L 85.287947 37.874325 
L 85.371622 43.59579 
L 85.421827 42.292756 
L 85.472031 29.678439 
L 85.505501 41.321066 
L 85.505501 41.321066 
L 85.572441 43.728391 
L 85.622646 41.847615 
L 85.656116 34.596769 
L 85.689586 40.801618 
L 85.689586 40.801618 
L 85.756526 43.89712 
L 85.806731 42.165447 
L 85.840201 35.229786 
L 85.873671 41.037719 
L 85.873671 41.037719 
L 85.940611 44.058808 
L 85.990816 41.877581 
L 86.024286 27.204339 
L 86.041021 39.684236 
L 86.041021 39.684236 
L 86.107961 44.2502 
L 86.158166 42.464893 
L 86.191635 31.644058 
L 86.225105 42.196774 
L 86.225105 42.196774 
L 86.27531 44.455635 
L 86.325515 42.29477 
L 86.358985 34.343122 
L 86.37572 41.012024 
L 86.37572 41.012024 
L 86.425925 44.621723 
L 86.47613 42.996853 
L 86.5096 28.223073 
L 86.526335 40.891708 
L 86.526335 40.891708 
L 86.57654 44.876483 
L 86.626745 42.795806 
L 86.660215 37.730294 
L 86.67695 42.452079 
L 86.67695 42.452079 
L 86.727155 45.169544 
L 86.760625 43.468401 
L 86.794095 37.26741 
L 86.81083 42.742271 
L 86.81083 42.742271 
L 86.861035 45.418308 
L 86.894505 42.927697 
L 86.91124 36.536041 
L 86.927975 41.477599 
L 86.927975 41.477599 
L 86.978179 45.785553 
L 87.011649 43.350205 
L 87.028384 35.697656 
L 87.045119 42.467056 
L 87.045119 42.467056 
L 87.078589 46.064755 
L 87.112059 44.816542 
L 87.112059 44.816542 
L 87.128794 40.859149 
L 87.145529 41.450857 
L 87.145529 41.450857 
L 87.178999 46.441852 
L 87.212469 44.869261 
L 87.212469 44.869261 
L 87.229204 37.792359 
L 87.245939 43.978144 
L 87.245939 43.978144 
L 87.279409 47.00831 
L 87.296144 45.869879 
L 87.296144 45.869879 
L 87.312879 39.952891 
L 87.329614 44.676571 
L 87.329614 44.676571 
L 87.363084 47.381701 
L 87.379819 44.829618 
L 87.379819 44.829618 
L 87.396554 42.988283 
L 87.396554 42.988283 
L 87.396554 42.988283 
L 87.530434 49.804783 
L 87.547169 44.248857 
L 87.547169 44.248857 
L 87.547169 44.248857 
L 87.848398 123.939043 
L 87.950357 137.8 
M 130.271242 137.8 
L 130.505856 46.199118 
L 130.522591 57.875491 
L 130.623001 51.752841 
L 130.639736 57.46859 
L 130.740146 56.922769 
L 130.756881 54.384167 
L 130.756881 54.384167 
L 130.756881 54.384167 
L 130.773616 56.969722 
L 130.773616 56.969722 
L 130.773616 56.969722 
L 130.790351 53.825906 
L 130.790351 53.825906 
L 130.790351 53.825906 
L 130.807086 57.067546 
L 130.807086 57.067546 
L 130.807086 57.067546 
L 130.82382 52.925482 
L 130.82382 52.925482 
L 130.82382 52.925482 
L 130.840555 57.173056 
L 130.840555 57.173056 
L 130.840555 57.173056 
L 130.85729 51.551504 
L 130.85729 51.551504 
L 130.85729 51.551504 
L 130.874025 57.25966 
L 130.874025 57.25966 
L 130.874025 57.25966 
L 130.89076 49.353024 
L 130.89076 49.353024 
L 130.89076 49.353024 
L 130.907495 57.318979 
L 130.907495 57.318979 
L 130.907495 57.318979 
L 130.92423 44.811408 
L 130.92423 44.811408 
L 130.92423 44.811408 
L 130.940965 57.35852 
L 130.940965 57.35852 
L 130.940965 57.35852 
L 130.9577 43.427777 
L 130.9577 43.427777 
L 130.9577 43.427777 
L 131.074845 57.601577 
L 131.09158 51.665488 
L 131.175255 54.80768 
L 131.19199 58.116277 
L 131.19199 58.116277 
L 131.19199 58.116277 
L 131.25893 49.810624 
L 131.275665 57.638224 
L 131.275665 57.638224 
L 131.2924 59.047861 
L 131.309135 58.194392 
L 131.309135 58.194392 
L 131.342605 49.568759 
L 131.376075 58.064358 
L 131.376075 58.064358 
L 131.42628 83.633198 
L 131.469118 137.8 
L 131.469118 137.8 
" style="fill:none;stroke:#00bfbf;stroke-linecap:square;"/>
   </g>
   <g id="patch_3">
    <path d="M 27 13.68 
L 194.4 13.68 
" style="fill:none;stroke:#000000;stroke-linecap:square;stroke-linejoin:miter;"/>
   </g>
   <g id="patch_4">
    <path d="M 194.4 119.7 
L 194.4 13.68 
" style="fill:none;stroke:#000000;stroke-linecap:square;stroke-linejoin:miter;"/>
   </g>
   <g id="patch_5">
    <path d="M 27 119.7 
L 194.4 119.7 
" style="fill:none;stroke:#000000;stroke-linecap:square;stroke-linejoin:miter;"/>
   </g>
   <g id="patch_6">
    <path d="M 27 119.7 
L 27 13.68 
" style="fill:none;stroke:#000000;stroke-linecap:square;stroke-linejoin:miter;"/>
   </g>
   <g id="matplotlib.axis_1">
    <g id="xtick_1">
     <g id="line2d_5">
      <path clip-path="url(#pda9b7bee1d)" d="M 27 119.7 
L 27 13.68 
" style="fill:none;opacity:0.3;stroke:#808080;stroke-dasharray:1.000000,3.000000;stroke-dashoffset:0.0;stroke-width:0.5;"/>
     </g>
     <g id="line2d_6">
      <defs>
       <path d="M 0 0 
L 0 -4 
" id="mb477e4f8ee" style="stroke:#000000;stroke-width:0.5;"/>
      </defs>
      <g>
       <use style="stroke:#000000;stroke-width:0.5;" x="27.0" xlink:href="#mb477e4f8ee" y="119.7"/>
      </g>
     </g>
     <g id="line2d_7">
      <defs>
       <path d="M 0 0 
L 0 4 
" id="mee8fea86ce" style="stroke:#000000;stroke-width:0.5;"/>
      </defs>
      <g>
       <use style="stroke:#000000;stroke-width:0.5;" x="27.0" xlink:href="#mee8fea86ce" y="13.68"/>
      </g>
     </g>
     <g id="text_1">
      <!-- 0.0 -->
      <defs>
       <path d="M 31.78125 3.421875 
Q 39.265625 3.421875 42.96875 11.625 
Q 46.6875 19.828125 46.6875 36.375 
Q 46.6875 52.984375 42.96875 61.1875 
Q 39.265625 69.390625 31.78125 69.390625 
Q 24.3125 69.390625 20.59375 61.1875 
Q 16.890625 52.984375 16.890625 36.375 
Q 16.890625 19.828125 20.59375 11.625 
Q 24.3125 3.421875 31.78125 3.421875 
M 31.78125 -1.421875 
Q 19.921875 -1.421875 13.25 8.53125 
Q 6.59375 18.5 6.59375 36.375 
Q 6.59375 54.296875 13.25 64.25 
Q 19.921875 74.21875 31.78125 74.21875 
Q 43.703125 74.21875 50.34375 64.25 
Q 56.984375 54.296875 56.984375 36.375 
Q 56.984375 18.5 50.34375 8.53125 
Q 43.703125 -1.421875 31.78125 -1.421875 
" id="BitstreamVeraSerif-Roman-30"/>
       <path d="M 9.421875 5.078125 
Q 9.421875 7.8125 11.28125 9.71875 
Q 13.140625 11.625 15.921875 11.625 
Q 18.609375 11.625 20.5 9.71875 
Q 22.40625 7.8125 22.40625 5.078125 
Q 22.40625 2.390625 20.5 0.484375 
Q 18.609375 -1.421875 15.921875 -1.421875 
Q 13.140625 -1.421875 11.28125 0.453125 
Q 9.421875 2.34375 9.421875 5.078125 
" id="BitstreamVeraSerif-Roman-2e"/>
      </defs>
      <g transform="translate(20.63875 129.77875)scale(0.08 -0.08)">
       <use xlink:href="#BitstreamVeraSerif-Roman-30"/>
       <use x="63.623046875" xlink:href="#BitstreamVeraSerif-Roman-2e"/>
       <use x="95.41015625" xlink:href="#BitstreamVeraSerif-Roman-30"/>
      </g>
     </g>
    </g>
    <g id="xtick_2">
     <g id="line2d_8">
      <path clip-path="url(#pda9b7bee1d)" d="M 60.48 119.7 
L 60.48 13.68 
" style="fill:none;opacity:0.3;stroke:#808080;stroke-dasharray:1.000000,3.000000;stroke-dashoffset:0.0;stroke-width:0.5;"/>
     </g>
     <g id="line2d_9">
      <g>
       <use style="stroke:#000000;stroke-width:0.5;" x="60.48" xlink:href="#mb477e4f8ee" y="119.7"/>
      </g>
     </g>
     <g id="line2d_10">
      <g>
       <use style="stroke:#000000;stroke-width:0.5;" x="60.48" xlink:href="#mee8fea86ce" y="13.68"/>
      </g>
     </g>
     <g id="text_2">
      <!-- 0.5 -->
      <defs>
       <path d="M 50.296875 72.90625 
L 50.296875 64.890625 
L 16.890625 64.890625 
L 16.890625 44 
Q 19.4375 45.75 22.828125 46.625 
Q 26.21875 47.515625 30.421875 47.515625 
Q 42.234375 47.515625 49.0625 40.96875 
Q 55.90625 34.421875 55.90625 23.09375 
Q 55.90625 11.53125 49 5.046875 
Q 42.09375 -1.421875 29.59375 -1.421875 
Q 24.5625 -1.421875 19.28125 -0.1875 
Q 14.015625 1.03125 8.5 3.515625 
L 8.5 17.671875 
L 14.015625 17.671875 
Q 14.453125 10.75 18.421875 7.078125 
Q 22.40625 3.421875 29.59375 3.421875 
Q 37.3125 3.421875 41.453125 8.5 
Q 45.609375 13.578125 45.609375 23.09375 
Q 45.609375 32.5625 41.484375 37.609375 
Q 37.359375 42.671875 29.59375 42.671875 
Q 25.203125 42.671875 21.84375 41.109375 
Q 18.5 39.546875 15.921875 36.28125 
L 11.71875 36.28125 
L 11.71875 72.90625 
z
" id="BitstreamVeraSerif-Roman-35"/>
      </defs>
      <g transform="translate(54.11875 129.77875)scale(0.08 -0.08)">
       <use xlink:href="#BitstreamVeraSerif-Roman-30"/>
       <use x="63.623046875" xlink:href="#BitstreamVeraSerif-Roman-2e"/>
       <use x="95.41015625" xlink:href="#BitstreamVeraSerif-Roman-35"/>
      </g>
     </g>
    </g>
    <g id="xtick_3">
     <g id="line2d_11">
      <path clip-path="url(#pda9b7bee1d)" d="M 93.96 119.7 
L 93.96 13.68 
" style="fill:none;opacity:0.3;stroke:#808080;stroke-dasharray:1.000000,3.000000;stroke-dashoffset:0.0;stroke-width:0.5;"/>
     </g>
     <g id="line2d_12">
      <g>
       <use style="stroke:#000000;stroke-width:0.5;" x="93.96" xlink:href="#mb477e4f8ee" y="119.7"/>
      </g>
     </g>
     <g id="line2d_13">
      <g>
       <use style="stroke:#000000;stroke-width:0.5;" x="93.96" xlink:href="#mee8fea86ce" y="13.68"/>
      </g>
     </g>
     <g id="text_3">
      <!-- 1.0 -->
      <defs>
       <path d="M 14.203125 0 
L 14.203125 5.171875 
L 26.90625 5.171875 
L 26.90625 65.828125 
L 12.203125 56.296875 
L 12.203125 62.703125 
L 29.984375 74.21875 
L 36.71875 74.21875 
L 36.71875 5.171875 
L 49.421875 5.171875 
L 49.421875 0 
z
" id="BitstreamVeraSerif-Roman-31"/>
      </defs>
      <g transform="translate(87.59875 129.77875)scale(0.08 -0.08)">
       <use xlink:href="#BitstreamVeraSerif-Roman-31"/>
       <use x="63.623046875" xlink:href="#BitstreamVeraSerif-Roman-2e"/>
       <use x="95.41015625" xlink:href="#BitstreamVeraSerif-Roman-30"/>
      </g>
     </g>
    </g>
    <g id="xtick_4">
     <g id="line2d_14">
      <path clip-path="url(#pda9b7bee1d)" d="M 127.44 119.7 
L 127.44 13.68 
" style="fill:none;opacity:0.3;stroke:#808080;stroke-dasharray:1.000000,3.000000;stroke-dashoffset:0.0;stroke-width:0.5;"/>
     </g>
     <g id="line2d_15">
      <g>
       <use style="stroke:#000000;stroke-width:0.5;" x="127.44" xlink:href="#mb477e4f8ee" y="119.7"/>
      </g>
     </g>
     <g id="line2d_16">
      <g>
       <use style="stroke:#000000;stroke-width:0.5;" x="127.44" xlink:href="#mee8fea86ce" y="13.68"/>
      </g>
     </g>
     <g id="text_4">
      <!-- 1.5 -->
      <g transform="translate(121.07875 129.77875)scale(0.08 -0.08)">
       <use xlink:href="#BitstreamVeraSerif-Roman-31"/>
       <use x="63.623046875" xlink:href="#BitstreamVeraSerif-Roman-2e"/>
       <use x="95.41015625" xlink:href="#BitstreamVeraSerif-Roman-35"/>
      </g>
     </g>
    </g>
    <g id="xtick_5">
     <g id="line2d_17">
      <path clip-path="url(#pda9b7bee1d)" d="M 160.92 119.7 
L 160.92 13.68 
" style="fill:none;opacity:0.3;stroke:#808080;stroke-dasharray:1.000000,3.000000;stroke-dashoffset:0.0;stroke-width:0.5;"/>
     </g>
     <g id="line2d_18">
      <g>
       <use style="stroke:#000000;stroke-width:0.5;" x="160.92" xlink:href="#mb477e4f8ee" y="119.7"/>
      </g>
     </g>
     <g id="line2d_19">
      <g>
       <use style="stroke:#000000;stroke-width:0.5;" x="160.92" xlink:href="#mee8fea86ce" y="13.68"/>
      </g>
     </g>
     <g id="text_5">
      <!-- 2.0 -->
      <defs>
       <path d="M 12.796875 55.515625 
L 7.328125 55.515625 
L 7.328125 68.5 
Q 12.546875 71.296875 17.84375 72.75 
Q 23.140625 74.21875 28.21875 74.21875 
Q 39.59375 74.21875 46.1875 68.703125 
Q 52.78125 63.1875 52.78125 53.71875 
Q 52.78125 43.015625 37.84375 28.125 
Q 36.671875 27 36.078125 26.421875 
L 17.671875 8.015625 
L 48.09375 8.015625 
L 48.09375 17 
L 53.8125 17 
L 53.8125 0 
L 6.78125 0 
L 6.78125 5.328125 
L 28.90625 27.390625 
Q 36.234375 34.71875 39.359375 40.84375 
Q 42.484375 46.96875 42.484375 53.71875 
Q 42.484375 61.078125 38.640625 65.234375 
Q 34.8125 69.390625 28.078125 69.390625 
Q 21.09375 69.390625 17.28125 65.921875 
Q 13.484375 62.453125 12.796875 55.515625 
" id="BitstreamVeraSerif-Roman-32"/>
      </defs>
      <g transform="translate(154.55875 129.77875)scale(0.08 -0.08)">
       <use xlink:href="#BitstreamVeraSerif-Roman-32"/>
       <use x="63.623046875" xlink:href="#BitstreamVeraSerif-Roman-2e"/>
       <use x="95.41015625" xlink:href="#BitstreamVeraSerif-Roman-30"/>
      </g>
     </g>
    </g>
    <g id="xtick_6">
     <g id="line2d_20">
      <path clip-path="url(#pda9b7bee1d)" d="M 194.4 119.7 
L 194.4 13.68 
" style="fill:none;opacity:0.3;stroke:#808080;stroke-dasharray:1.000000,3.000000;stroke-dashoffset:0.0;stroke-width:0.5;"/>
     </g>
     <g id="line2d_21">
      <g>
       <use style="stroke:#000000;stroke-width:0.5;" x="194.4" xlink:href="#mb477e4f8ee" y="119.7"/>
      </g>
     </g>
     <g id="line2d_22">
      <g>
       <use style="stroke:#000000;stroke-width:0.5;" x="194.4" xlink:href="#mee8fea86ce" y="13.68"/>
      </g>
     </g>
     <g id="text_6">
      <!-- 2.5 -->
      <g transform="translate(188.03875 129.77875)scale(0.08 -0.08)">
       <use xlink:href="#BitstreamVeraSerif-Roman-32"/>
       <use x="63.623046875" xlink:href="#BitstreamVeraSerif-Roman-2e"/>
       <use x="95.41015625" xlink:href="#BitstreamVeraSerif-Roman-35"/>
      </g>
     </g>
    </g>
    <g id="text_7">
     <!-- $\Omega$ -->
     <defs>
      <path d="M 7.71875 0 
L 4.390625 16.609375 
L 7.328125 16.609375 
Q 7.859375 13.71875 8.296875 11.5 
Q 8.734375 9.28125 9.4375 8.375 
Q 10.15625 7.46875 11.71875 7.171875 
Q 13.28125 6.890625 16.890625 6.890625 
L 23 6.890625 
Q 21.53125 12.546875 15.6875 21.65625 
Q 9.859375 30.765625 7.734375 34.890625 
Q 5.609375 39.015625 5.609375 45.515625 
Q 5.609375 53.078125 10.09375 58.765625 
Q 14.59375 64.453125 21.703125 67.484375 
Q 28.8125 70.515625 36.078125 70.515625 
Q 43.3125 70.515625 50.40625 67.484375 
Q 57.515625 64.453125 62 58.71875 
Q 66.5 52.984375 66.5 45.515625 
Q 66.5 40.4375 64.640625 35.9375 
Q 62.796875 31.453125 59.90625 26.953125 
Q 57.03125 22.46875 53.6875 16.9375 
Q 50.34375 11.421875 49.125 6.890625 
L 55.171875 6.890625 
Q 58.84375 6.890625 60.453125 7.171875 
Q 62.0625 7.46875 62.734375 8.375 
Q 63.421875 9.28125 63.84375 11.5 
Q 64.265625 13.71875 64.796875 16.609375 
L 67.671875 16.609375 
L 64.40625 0 
L 46.6875 0 
Q 45.703125 0 45.703125 1.3125 
Q 45.703125 6.390625 46.9375 11.265625 
Q 48.1875 16.15625 50.625 23.09375 
Q 53.078125 30.03125 54.4375 35.328125 
Q 55.8125 40.625 55.8125 45.515625 
Q 55.8125 51.515625 53.46875 56.640625 
Q 51.125 61.765625 46.625 64.84375 
Q 42.140625 67.921875 36.078125 67.921875 
Q 26.953125 67.921875 21.625 61.40625 
Q 16.3125 54.890625 16.3125 45.515625 
Q 16.359375 40.375 17.53125 35.828125 
Q 18.703125 31.296875 21.3125 23.71875 
Q 23.921875 16.15625 25.171875 11.265625 
Q 26.421875 6.390625 26.421875 1.3125 
Q 26.421875 0 25.390625 0 
z
" id="Cmr10-ad"/>
     </defs>
     <g transform="translate(107.78 142.52125)scale(0.08 -0.08)">
      <use transform="translate(0.0 0.484375)" xlink:href="#Cmr10-ad"/>
     </g>
    </g>
   </g>
   <g id="matplotlib.axis_2">
    <g id="ytick_1">
     <g id="line2d_23">
      <path clip-path="url(#pda9b7bee1d)" d="M 27 119.7 
L 194.4 119.7 
" style="fill:none;opacity:0.3;stroke:#808080;stroke-dasharray:1.000000,3.000000;stroke-dashoffset:0.0;stroke-width:0.5;"/>
     </g>
     <g id="line2d_24">
      <defs>
       <path d="M 0 0 
L 4 0 
" id="m6b4361dba8" style="stroke:#000000;stroke-width:0.5;"/>
      </defs>
      <g>
       <use style="stroke:#000000;stroke-width:0.5;" x="27.0" xlink:href="#m6b4361dba8" y="119.7"/>
      </g>
     </g>
     <g id="line2d_25">
      <defs>
       <path d="M 0 0 
L -4 0 
" id="mb6782000a7" style="stroke:#000000;stroke-width:0.5;"/>
      </defs>
      <g>
       <use style="stroke:#000000;stroke-width:0.5;" x="194.4" xlink:href="#mb6782000a7" y="119.7"/>
      </g>
     </g>
     <g id="text_8">
      <!-- $\mathdefault{10^{-9}}$ -->
      <defs>
       <path d="M 46.78125 32.671875 
Q 43.5 29 39.25 27.1875 
Q 35.015625 25.390625 29.6875 25.390625 
Q 18.84375 25.390625 12.5625 31.9375 
Q 6.296875 38.484375 6.296875 49.8125 
Q 6.296875 60.890625 13.109375 67.546875 
Q 19.921875 74.21875 31.296875 74.21875 
Q 43.65625 74.21875 50.265625 65.015625 
Q 56.890625 55.8125 56.890625 38.71875 
Q 56.890625 19.578125 49.015625 9.078125 
Q 41.15625 -1.421875 26.90625 -1.421875 
Q 23.046875 -1.421875 18.796875 -0.6875 
Q 14.546875 0.046875 10.109375 1.515625 
L 10.109375 13.625 
L 15.578125 13.625 
Q 16.21875 8.6875 19.390625 6.046875 
Q 22.5625 3.421875 27.875 3.421875 
Q 37.359375 3.421875 41.984375 10.5625 
Q 46.625 17.71875 46.78125 32.671875 
M 30.90625 69.390625 
Q 23.96875 69.390625 20.28125 64.328125 
Q 16.609375 59.28125 16.609375 49.8125 
Q 16.609375 40.328125 20.28125 35.25 
Q 23.96875 30.171875 30.90625 30.171875 
Q 37.84375 30.171875 41.53125 35.078125 
Q 45.21875 39.984375 45.21875 49.21875 
Q 45.21875 58.9375 41.5 64.15625 
Q 37.796875 69.390625 30.90625 69.390625 
" id="BitstreamVeraSerif-Roman-39"/>
       <path d="M 4.390625 30.609375 
L 29.390625 30.609375 
L 29.390625 23 
L 4.390625 23 
z
" id="BitstreamVeraSerif-Roman-2d"/>
      </defs>
      <g transform="translate(6.28 121.99625)scale(0.08 -0.08)">
       <use transform="translate(0.0 0.2015625)" xlink:href="#BitstreamVeraSerif-Roman-31"/>
       <use transform="translate(63.623046875 0.2015625)" xlink:href="#BitstreamVeraSerif-Roman-30"/>
       <use transform="translate(132.478046875 45.046875)scale(0.7)" xlink:href="#BitstreamVeraSerif-Roman-2d"/>
       <use transform="translate(156.130390625 45.046875)scale(0.7)" xlink:href="#BitstreamVeraSerif-Roman-39"/>
      </g>
     </g>
    </g>
    <g id="ytick_2">
     <g id="line2d_26">
      <path clip-path="url(#pda9b7bee1d)" d="M 27 93.195 
L 194.4 93.195 
" style="fill:none;opacity:0.3;stroke:#808080;stroke-dasharray:1.000000,3.000000;stroke-dashoffset:0.0;stroke-width:0.5;"/>
     </g>
     <g id="line2d_27">
      <g>
       <use style="stroke:#000000;stroke-width:0.5;" x="27.0" xlink:href="#m6b4361dba8" y="93.195"/>
      </g>
     </g>
     <g id="line2d_28">
      <g>
       <use style="stroke:#000000;stroke-width:0.5;" x="194.4" xlink:href="#mb6782000a7" y="93.195"/>
      </g>
     </g>
     <g id="text_9">
      <!-- $\mathdefault{10^{-6}}$ -->
      <defs>
       <path d="M 32.71875 3.421875 
Q 39.59375 3.421875 43.296875 8.46875 
Q 47.015625 13.53125 47.015625 23 
Q 47.015625 32.46875 43.296875 37.515625 
Q 39.59375 42.578125 32.71875 42.578125 
Q 25.734375 42.578125 22.0625 37.6875 
Q 18.40625 32.8125 18.40625 23.578125 
Q 18.40625 13.875 22.109375 8.640625 
Q 25.828125 3.421875 32.71875 3.421875 
M 16.796875 40.140625 
Q 20.125 43.796875 24.3125 45.59375 
Q 28.515625 47.40625 33.796875 47.40625 
Q 44.671875 47.40625 51 40.859375 
Q 57.328125 34.328125 57.328125 23 
Q 57.328125 11.921875 50.515625 5.25 
Q 43.703125 -1.421875 32.328125 -1.421875 
Q 19.96875 -1.421875 13.328125 7.78125 
Q 6.6875 17 6.6875 34.078125 
Q 6.6875 53.21875 14.546875 63.71875 
Q 22.40625 74.21875 36.71875 74.21875 
Q 40.578125 74.21875 44.828125 73.484375 
Q 49.078125 72.75 53.515625 71.296875 
L 53.515625 59.28125 
L 48 59.28125 
Q 47.40625 64.203125 44.234375 66.796875 
Q 41.0625 69.390625 35.6875 69.390625 
Q 26.21875 69.390625 21.578125 62.203125 
Q 16.9375 55.03125 16.796875 40.140625 
" id="BitstreamVeraSerif-Roman-36"/>
      </defs>
      <g transform="translate(6.28 95.49125)scale(0.08 -0.08)">
       <use transform="translate(0.0 0.2015625)" xlink:href="#BitstreamVeraSerif-Roman-31"/>
       <use transform="translate(63.623046875 0.2015625)" xlink:href="#BitstreamVeraSerif-Roman-30"/>
       <use transform="translate(132.478046875 45.046875)scale(0.7)" xlink:href="#BitstreamVeraSerif-Roman-2d"/>
       <use transform="translate(156.130390625 45.046875)scale(0.7)" xlink:href="#BitstreamVeraSerif-Roman-36"/>
      </g>
     </g>
    </g>
    <g id="ytick_3">
     <g id="line2d_29">
      <path clip-path="url(#pda9b7bee1d)" d="M 27 66.69 
L 194.4 66.69 
" style="fill:none;opacity:0.3;stroke:#808080;stroke-dasharray:1.000000,3.000000;stroke-dashoffset:0.0;stroke-width:0.5;"/>
     </g>
     <g id="line2d_30">
      <g>
       <use style="stroke:#000000;stroke-width:0.5;" x="27.0" xlink:href="#m6b4361dba8" y="66.69"/>
      </g>
     </g>
     <g id="line2d_31">
      <g>
       <use style="stroke:#000000;stroke-width:0.5;" x="194.4" xlink:href="#mb6782000a7" y="66.69"/>
      </g>
     </g>
     <g id="text_10">
      <!-- $\mathdefault{10^{-3}}$ -->
      <defs>
       <path d="M 9.71875 69.828125 
Q 15.4375 71.96875 20.671875 73.09375 
Q 25.921875 74.21875 30.515625 74.21875 
Q 41.21875 74.21875 47.21875 69.59375 
Q 53.21875 64.984375 53.21875 56.78125 
Q 53.21875 50.203125 49.0625 45.78125 
Q 44.921875 41.359375 37.3125 39.796875 
Q 46.296875 38.53125 51.25 33.28125 
Q 56.203125 28.03125 56.203125 19.671875 
Q 56.203125 9.46875 49.34375 4.015625 
Q 42.484375 -1.421875 29.59375 -1.421875 
Q 23.875 -1.421875 18.421875 -0.1875 
Q 12.984375 1.03125 7.625 3.515625 
L 7.625 17.671875 
L 13.09375 17.671875 
Q 13.578125 10.640625 17.828125 7.03125 
Q 22.078125 3.421875 29.78125 3.421875 
Q 37.25 3.421875 41.578125 7.734375 
Q 45.90625 12.0625 45.90625 19.578125 
Q 45.90625 28.171875 41.453125 32.59375 
Q 37.015625 37.015625 28.421875 37.015625 
L 23.78125 37.015625 
L 23.78125 42 
L 26.21875 42 
Q 34.765625 42 39.03125 45.53125 
Q 43.3125 49.078125 43.3125 56.203125 
Q 43.3125 62.59375 39.796875 65.984375 
Q 36.28125 69.390625 29.6875 69.390625 
Q 23.09375 69.390625 19.453125 66.265625 
Q 15.828125 63.140625 15.1875 56.984375 
L 9.71875 56.984375 
z
" id="BitstreamVeraSerif-Roman-33"/>
      </defs>
      <g transform="translate(6.28 68.98625)scale(0.08 -0.08)">
       <use transform="translate(0.0 0.2015625)" xlink:href="#BitstreamVeraSerif-Roman-31"/>
       <use transform="translate(63.623046875 0.2015625)" xlink:href="#BitstreamVeraSerif-Roman-30"/>
       <use transform="translate(132.478046875 45.046875)scale(0.7)" xlink:href="#BitstreamVeraSerif-Roman-2d"/>
       <use transform="translate(156.130390625 45.046875)scale(0.7)" xlink:href="#BitstreamVeraSerif-Roman-33"/>
      </g>
     </g>
    </g>
    <g id="ytick_4">
     <g id="line2d_32">
      <path clip-path="url(#pda9b7bee1d)" d="M 27 40.185 
L 194.4 40.185 
" style="fill:none;opacity:0.3;stroke:#808080;stroke-dasharray:1.000000,3.000000;stroke-dashoffset:0.0;stroke-width:0.5;"/>
     </g>
     <g id="line2d_33">
      <g>
       <use style="stroke:#000000;stroke-width:0.5;" x="27.0" xlink:href="#m6b4361dba8" y="40.185"/>
      </g>
     </g>
     <g id="line2d_34">
      <g>
       <use style="stroke:#000000;stroke-width:0.5;" x="194.4" xlink:href="#mb6782000a7" y="40.185"/>
      </g>
     </g>
     <g id="text_11">
      <!-- $\mathdefault{10^{0}}$ -->
      <g transform="translate(8.2 42.48125)scale(0.08 -0.08)">
       <use transform="translate(0.0 0.2015625)" xlink:href="#BitstreamVeraSerif-Roman-31"/>
       <use transform="translate(63.623046875 0.2015625)" xlink:href="#BitstreamVeraSerif-Roman-30"/>
       <use transform="translate(132.478046875 45.046875)scale(0.7)" xlink:href="#BitstreamVeraSerif-Roman-30"/>
      </g>
     </g>
    </g>
    <g id="ytick_5">
     <g id="line2d_35">
      <path clip-path="url(#pda9b7bee1d)" d="M 27 13.68 
L 194.4 13.68 
" style="fill:none;opacity:0.3;stroke:#808080;stroke-dasharray:1.000000,3.000000;stroke-dashoffset:0.0;stroke-width:0.5;"/>
     </g>
     <g id="line2d_36">
      <g>
       <use style="stroke:#000000;stroke-width:0.5;" x="27.0" xlink:href="#m6b4361dba8" y="13.68"/>
      </g>
     </g>
     <g id="line2d_37">
      <g>
       <use style="stroke:#000000;stroke-width:0.5;" x="194.4" xlink:href="#mb6782000a7" y="13.68"/>
      </g>
     </g>
     <g id="text_12">
      <!-- $\mathdefault{10^{3}}$ -->
      <g transform="translate(8.2 15.97625)scale(0.08 -0.08)">
       <use transform="translate(0.0 0.2015625)" xlink:href="#BitstreamVeraSerif-Roman-31"/>
       <use transform="translate(63.623046875 0.2015625)" xlink:href="#BitstreamVeraSerif-Roman-30"/>
       <use transform="translate(132.478046875 45.046875)scale(0.7)" xlink:href="#BitstreamVeraSerif-Roman-33"/>
      </g>
     </g>
    </g>
    <g id="ytick_6">
     <g id="line2d_38">
      <defs>
       <path d="M 0 0 
L 2 0 
" id="m67e58c2bf8" style="stroke:#000000;stroke-width:0.5;"/>
      </defs>
      <g>
       <use style="stroke:#000000;stroke-width:0.5;" x="27.0" xlink:href="#m67e58c2bf8" y="117.040399988"/>
      </g>
     </g>
     <g id="line2d_39">
      <defs>
       <path d="M 0 0 
L -2 0 
" id="m0bee6a6bfc" style="stroke:#000000;stroke-width:0.5;"/>
      </defs>
      <g>
       <use style="stroke:#000000;stroke-width:0.5;" x="194.4" xlink:href="#m0bee6a6bfc" y="117.040399988"/>
      </g>
     </g>
    </g>
    <g id="ytick_7">
     <g id="line2d_40">
      <g>
       <use style="stroke:#000000;stroke-width:0.5;" x="27.0" xlink:href="#m67e58c2bf8" y="114.380799977"/>
      </g>
     </g>
     <g id="line2d_41">
      <g>
       <use style="stroke:#000000;stroke-width:0.5;" x="194.4" xlink:href="#m0bee6a6bfc" y="114.380799977"/>
      </g>
     </g>
    </g>
    <g id="ytick_8">
     <g id="line2d_42">
      <g>
       <use style="stroke:#000000;stroke-width:0.5;" x="27.0" xlink:href="#m67e58c2bf8" y="112.825033703"/>
      </g>
     </g>
     <g id="line2d_43">
      <g>
       <use style="stroke:#000000;stroke-width:0.5;" x="194.4" xlink:href="#m0bee6a6bfc" y="112.825033703"/>
      </g>
     </g>
    </g>
    <g id="ytick_9">
     <g id="line2d_44">
      <g>
       <use style="stroke:#000000;stroke-width:0.5;" x="27.0" xlink:href="#m67e58c2bf8" y="111.721199965"/>
      </g>
     </g>
     <g id="line2d_45">
      <g>
       <use style="stroke:#000000;stroke-width:0.5;" x="194.4" xlink:href="#m0bee6a6bfc" y="111.721199965"/>
      </g>
     </g>
    </g>
    <g id="ytick_10">
     <g id="line2d_46">
      <g>
       <use style="stroke:#000000;stroke-width:0.5;" x="27.0" xlink:href="#m67e58c2bf8" y="108.205399988"/>
      </g>
     </g>
     <g id="line2d_47">
      <g>
       <use style="stroke:#000000;stroke-width:0.5;" x="194.4" xlink:href="#m0bee6a6bfc" y="108.205399988"/>
      </g>
     </g>
    </g>
    <g id="ytick_11">
     <g id="line2d_48">
      <g>
       <use style="stroke:#000000;stroke-width:0.5;" x="27.0" xlink:href="#m67e58c2bf8" y="105.545799977"/>
      </g>
     </g>
     <g id="line2d_49">
      <g>
       <use style="stroke:#000000;stroke-width:0.5;" x="194.4" xlink:href="#m0bee6a6bfc" y="105.545799977"/>
      </g>
     </g>
    </g>
    <g id="ytick_12">
     <g id="line2d_50">
      <g>
       <use style="stroke:#000000;stroke-width:0.5;" x="27.0" xlink:href="#m67e58c2bf8" y="103.990033703"/>
      </g>
     </g>
     <g id="line2d_51">
      <g>
       <use style="stroke:#000000;stroke-width:0.5;" x="194.4" xlink:href="#m0bee6a6bfc" y="103.990033703"/>
      </g>
     </g>
    </g>
    <g id="ytick_13">
     <g id="line2d_52">
      <g>
       <use style="stroke:#000000;stroke-width:0.5;" x="27.0" xlink:href="#m67e58c2bf8" y="102.886199965"/>
      </g>
     </g>
     <g id="line2d_53">
      <g>
       <use style="stroke:#000000;stroke-width:0.5;" x="194.4" xlink:href="#m0bee6a6bfc" y="102.886199965"/>
      </g>
     </g>
    </g>
    <g id="ytick_14">
     <g id="line2d_54">
      <g>
       <use style="stroke:#000000;stroke-width:0.5;" x="27.0" xlink:href="#m67e58c2bf8" y="99.3703999883"/>
      </g>
     </g>
     <g id="line2d_55">
      <g>
       <use style="stroke:#000000;stroke-width:0.5;" x="194.4" xlink:href="#m0bee6a6bfc" y="99.3703999883"/>
      </g>
     </g>
    </g>
    <g id="ytick_15">
     <g id="line2d_56">
      <g>
       <use style="stroke:#000000;stroke-width:0.5;" x="27.0" xlink:href="#m67e58c2bf8" y="96.7107999766"/>
      </g>
     </g>
     <g id="line2d_57">
      <g>
       <use style="stroke:#000000;stroke-width:0.5;" x="194.4" xlink:href="#m0bee6a6bfc" y="96.7107999766"/>
      </g>
     </g>
    </g>
    <g id="ytick_16">
     <g id="line2d_58">
      <g>
       <use style="stroke:#000000;stroke-width:0.5;" x="27.0" xlink:href="#m67e58c2bf8" y="95.1550337029"/>
      </g>
     </g>
     <g id="line2d_59">
      <g>
       <use style="stroke:#000000;stroke-width:0.5;" x="194.4" xlink:href="#m0bee6a6bfc" y="95.1550337029"/>
      </g>
     </g>
    </g>
    <g id="ytick_17">
     <g id="line2d_60">
      <g>
       <use style="stroke:#000000;stroke-width:0.5;" x="27.0" xlink:href="#m67e58c2bf8" y="94.0511999649"/>
      </g>
     </g>
     <g id="line2d_61">
      <g>
       <use style="stroke:#000000;stroke-width:0.5;" x="194.4" xlink:href="#m0bee6a6bfc" y="94.0511999649"/>
      </g>
     </g>
    </g>
    <g id="ytick_18">
     <g id="line2d_62">
      <g>
       <use style="stroke:#000000;stroke-width:0.5;" x="27.0" xlink:href="#m67e58c2bf8" y="90.5353999883"/>
      </g>
     </g>
     <g id="line2d_63">
      <g>
       <use style="stroke:#000000;stroke-width:0.5;" x="194.4" xlink:href="#m0bee6a6bfc" y="90.5353999883"/>
      </g>
     </g>
    </g>
    <g id="ytick_19">
     <g id="line2d_64">
      <g>
       <use style="stroke:#000000;stroke-width:0.5;" x="27.0" xlink:href="#m67e58c2bf8" y="87.8757999766"/>
      </g>
     </g>
     <g id="line2d_65">
      <g>
       <use style="stroke:#000000;stroke-width:0.5;" x="194.4" xlink:href="#m0bee6a6bfc" y="87.8757999766"/>
      </g>
     </g>
    </g>
    <g id="ytick_20">
     <g id="line2d_66">
      <g>
       <use style="stroke:#000000;stroke-width:0.5;" x="27.0" xlink:href="#m67e58c2bf8" y="86.3200337029"/>
      </g>
     </g>
     <g id="line2d_67">
      <g>
       <use style="stroke:#000000;stroke-width:0.5;" x="194.4" xlink:href="#m0bee6a6bfc" y="86.3200337029"/>
      </g>
     </g>
    </g>
    <g id="ytick_21">
     <g id="line2d_68">
      <g>
       <use style="stroke:#000000;stroke-width:0.5;" x="27.0" xlink:href="#m67e58c2bf8" y="85.2161999649"/>
      </g>
     </g>
     <g id="line2d_69">
      <g>
       <use style="stroke:#000000;stroke-width:0.5;" x="194.4" xlink:href="#m0bee6a6bfc" y="85.2161999649"/>
      </g>
     </g>
    </g>
    <g id="ytick_22">
     <g id="line2d_70">
      <g>
       <use style="stroke:#000000;stroke-width:0.5;" x="27.0" xlink:href="#m67e58c2bf8" y="81.7003999883"/>
      </g>
     </g>
     <g id="line2d_71">
      <g>
       <use style="stroke:#000000;stroke-width:0.5;" x="194.4" xlink:href="#m0bee6a6bfc" y="81.7003999883"/>
      </g>
     </g>
    </g>
    <g id="ytick_23">
     <g id="line2d_72">
      <g>
       <use style="stroke:#000000;stroke-width:0.5;" x="27.0" xlink:href="#m67e58c2bf8" y="79.0407999766"/>
      </g>
     </g>
     <g id="line2d_73">
      <g>
       <use style="stroke:#000000;stroke-width:0.5;" x="194.4" xlink:href="#m0bee6a6bfc" y="79.0407999766"/>
      </g>
     </g>
    </g>
    <g id="ytick_24">
     <g id="line2d_74">
      <g>
       <use style="stroke:#000000;stroke-width:0.5;" x="27.0" xlink:href="#m67e58c2bf8" y="77.4850337029"/>
      </g>
     </g>
     <g id="line2d_75">
      <g>
       <use style="stroke:#000000;stroke-width:0.5;" x="194.4" xlink:href="#m0bee6a6bfc" y="77.4850337029"/>
      </g>
     </g>
    </g>
    <g id="ytick_25">
     <g id="line2d_76">
      <g>
       <use style="stroke:#000000;stroke-width:0.5;" x="27.0" xlink:href="#m67e58c2bf8" y="76.3811999649"/>
      </g>
     </g>
     <g id="line2d_77">
      <g>
       <use style="stroke:#000000;stroke-width:0.5;" x="194.4" xlink:href="#m0bee6a6bfc" y="76.3811999649"/>
      </g>
     </g>
    </g>
    <g id="ytick_26">
     <g id="line2d_78">
      <g>
       <use style="stroke:#000000;stroke-width:0.5;" x="27.0" xlink:href="#m67e58c2bf8" y="72.8653999883"/>
      </g>
     </g>
     <g id="line2d_79">
      <g>
       <use style="stroke:#000000;stroke-width:0.5;" x="194.4" xlink:href="#m0bee6a6bfc" y="72.8653999883"/>
      </g>
     </g>
    </g>
    <g id="ytick_27">
     <g id="line2d_80">
      <g>
       <use style="stroke:#000000;stroke-width:0.5;" x="27.0" xlink:href="#m67e58c2bf8" y="70.2057999766"/>
      </g>
     </g>
     <g id="line2d_81">
      <g>
       <use style="stroke:#000000;stroke-width:0.5;" x="194.4" xlink:href="#m0bee6a6bfc" y="70.2057999766"/>
      </g>
     </g>
    </g>
    <g id="ytick_28">
     <g id="line2d_82">
      <g>
       <use style="stroke:#000000;stroke-width:0.5;" x="27.0" xlink:href="#m67e58c2bf8" y="68.6500337029"/>
      </g>
     </g>
     <g id="line2d_83">
      <g>
       <use style="stroke:#000000;stroke-width:0.5;" x="194.4" xlink:href="#m0bee6a6bfc" y="68.6500337029"/>
      </g>
     </g>
    </g>
    <g id="ytick_29">
     <g id="line2d_84">
      <g>
       <use style="stroke:#000000;stroke-width:0.5;" x="27.0" xlink:href="#m67e58c2bf8" y="67.5461999649"/>
      </g>
     </g>
     <g id="line2d_85">
      <g>
       <use style="stroke:#000000;stroke-width:0.5;" x="194.4" xlink:href="#m0bee6a6bfc" y="67.5461999649"/>
      </g>
     </g>
    </g>
    <g id="ytick_30">
     <g id="line2d_86">
      <g>
       <use style="stroke:#000000;stroke-width:0.5;" x="27.0" xlink:href="#m67e58c2bf8" y="64.0303999883"/>
      </g>
     </g>
     <g id="line2d_87">
      <g>
       <use style="stroke:#000000;stroke-width:0.5;" x="194.4" xlink:href="#m0bee6a6bfc" y="64.0303999883"/>
      </g>
     </g>
    </g>
    <g id="ytick_31">
     <g id="line2d_88">
      <g>
       <use style="stroke:#000000;stroke-width:0.5;" x="27.0" xlink:href="#m67e58c2bf8" y="61.3707999766"/>
      </g>
     </g>
     <g id="line2d_89">
      <g>
       <use style="stroke:#000000;stroke-width:0.5;" x="194.4" xlink:href="#m0bee6a6bfc" y="61.3707999766"/>
      </g>
     </g>
    </g>
    <g id="ytick_32">
     <g id="line2d_90">
      <g>
       <use style="stroke:#000000;stroke-width:0.5;" x="27.0" xlink:href="#m67e58c2bf8" y="59.8150337029"/>
      </g>
     </g>
     <g id="line2d_91">
      <g>
       <use style="stroke:#000000;stroke-width:0.5;" x="194.4" xlink:href="#m0bee6a6bfc" y="59.8150337029"/>
      </g>
     </g>
    </g>
    <g id="ytick_33">
     <g id="line2d_92">
      <g>
       <use style="stroke:#000000;stroke-width:0.5;" x="27.0" xlink:href="#m67e58c2bf8" y="58.7111999649"/>
      </g>
     </g>
     <g id="line2d_93">
      <g>
       <use style="stroke:#000000;stroke-width:0.5;" x="194.4" xlink:href="#m0bee6a6bfc" y="58.7111999649"/>
      </g>
     </g>
    </g>
    <g id="ytick_34">
     <g id="line2d_94">
      <g>
       <use style="stroke:#000000;stroke-width:0.5;" x="27.0" xlink:href="#m67e58c2bf8" y="55.1953999883"/>
      </g>
     </g>
     <g id="line2d_95">
      <g>
       <use style="stroke:#000000;stroke-width:0.5;" x="194.4" xlink:href="#m0bee6a6bfc" y="55.1953999883"/>
      </g>
     </g>
    </g>
    <g id="ytick_35">
     <g id="line2d_96">
      <g>
       <use style="stroke:#000000;stroke-width:0.5;" x="27.0" xlink:href="#m67e58c2bf8" y="52.5357999766"/>
      </g>
     </g>
     <g id="line2d_97">
      <g>
       <use style="stroke:#000000;stroke-width:0.5;" x="194.4" xlink:href="#m0bee6a6bfc" y="52.5357999766"/>
      </g>
     </g>
    </g>
    <g id="ytick_36">
     <g id="line2d_98">
      <g>
       <use style="stroke:#000000;stroke-width:0.5;" x="27.0" xlink:href="#m67e58c2bf8" y="50.9800337029"/>
      </g>
     </g>
     <g id="line2d_99">
      <g>
       <use style="stroke:#000000;stroke-width:0.5;" x="194.4" xlink:href="#m0bee6a6bfc" y="50.9800337029"/>
      </g>
     </g>
    </g>
    <g id="ytick_37">
     <g id="line2d_100">
      <g>
       <use style="stroke:#000000;stroke-width:0.5;" x="27.0" xlink:href="#m67e58c2bf8" y="49.8761999649"/>
      </g>
     </g>
     <g id="line2d_101">
      <g>
       <use style="stroke:#000000;stroke-width:0.5;" x="194.4" xlink:href="#m0bee6a6bfc" y="49.8761999649"/>
      </g>
     </g>
    </g>
    <g id="ytick_38">
     <g id="line2d_102">
      <g>
       <use style="stroke:#000000;stroke-width:0.5;" x="27.0" xlink:href="#m67e58c2bf8" y="46.3603999883"/>
      </g>
     </g>
     <g id="line2d_103">
      <g>
       <use style="stroke:#000000;stroke-width:0.5;" x="194.4" xlink:href="#m0bee6a6bfc" y="46.3603999883"/>
      </g>
     </g>
    </g>
    <g id="ytick_39">
     <g id="line2d_104">
      <g>
       <use style="stroke:#000000;stroke-width:0.5;" x="27.0" xlink:href="#m67e58c2bf8" y="43.7007999766"/>
      </g>
     </g>
     <g id="line2d_105">
      <g>
       <use style="stroke:#000000;stroke-width:0.5;" x="194.4" xlink:href="#m0bee6a6bfc" y="43.7007999766"/>
      </g>
     </g>
    </g>
    <g id="ytick_40">
     <g id="line2d_106">
      <g>
       <use style="stroke:#000000;stroke-width:0.5;" x="27.0" xlink:href="#m67e58c2bf8" y="42.1450337029"/>
      </g>
     </g>
     <g id="line2d_107">
      <g>
       <use style="stroke:#000000;stroke-width:0.5;" x="194.4" xlink:href="#m0bee6a6bfc" y="42.1450337029"/>
      </g>
     </g>
    </g>
    <g id="ytick_41">
     <g id="line2d_108">
      <g>
       <use style="stroke:#000000;stroke-width:0.5;" x="27.0" xlink:href="#m67e58c2bf8" y="41.0411999649"/>
      </g>
     </g>
     <g id="line2d_109">
      <g>
       <use style="stroke:#000000;stroke-width:0.5;" x="194.4" xlink:href="#m0bee6a6bfc" y="41.0411999649"/>
      </g>
     </g>
    </g>
    <g id="ytick_42">
     <g id="line2d_110">
      <g>
       <use style="stroke:#000000;stroke-width:0.5;" x="27.0" xlink:href="#m67e58c2bf8" y="37.5253999883"/>
      </g>
     </g>
     <g id="line2d_111">
      <g>
       <use style="stroke:#000000;stroke-width:0.5;" x="194.4" xlink:href="#m0bee6a6bfc" y="37.5253999883"/>
      </g>
     </g>
    </g>
    <g id="ytick_43">
     <g id="line2d_112">
      <g>
       <use style="stroke:#000000;stroke-width:0.5;" x="27.0" xlink:href="#m67e58c2bf8" y="34.8657999766"/>
      </g>
     </g>
     <g id="line2d_113">
      <g>
       <use style="stroke:#000000;stroke-width:0.5;" x="194.4" xlink:href="#m0bee6a6bfc" y="34.8657999766"/>
      </g>
     </g>
    </g>
    <g id="ytick_44">
     <g id="line2d_114">
      <g>
       <use style="stroke:#000000;stroke-width:0.5;" x="27.0" xlink:href="#m67e58c2bf8" y="33.3100337029"/>
      </g>
     </g>
     <g id="line2d_115">
      <g>
       <use style="stroke:#000000;stroke-width:0.5;" x="194.4" xlink:href="#m0bee6a6bfc" y="33.3100337029"/>
      </g>
     </g>
    </g>
    <g id="ytick_45">
     <g id="line2d_116">
      <g>
       <use style="stroke:#000000;stroke-width:0.5;" x="27.0" xlink:href="#m67e58c2bf8" y="32.2061999649"/>
      </g>
     </g>
     <g id="line2d_117">
      <g>
       <use style="stroke:#000000;stroke-width:0.5;" x="194.4" xlink:href="#m0bee6a6bfc" y="32.2061999649"/>
      </g>
     </g>
    </g>
    <g id="ytick_46">
     <g id="line2d_118">
      <g>
       <use style="stroke:#000000;stroke-width:0.5;" x="27.0" xlink:href="#m67e58c2bf8" y="28.6903999883"/>
      </g>
     </g>
     <g id="line2d_119">
      <g>
       <use style="stroke:#000000;stroke-width:0.5;" x="194.4" xlink:href="#m0bee6a6bfc" y="28.6903999883"/>
      </g>
     </g>
    </g>
    <g id="ytick_47">
     <g id="line2d_120">
      <g>
       <use style="stroke:#000000;stroke-width:0.5;" x="27.0" xlink:href="#m67e58c2bf8" y="26.0307999766"/>
      </g>
     </g>
     <g id="line2d_121">
      <g>
       <use style="stroke:#000000;stroke-width:0.5;" x="194.4" xlink:href="#m0bee6a6bfc" y="26.0307999766"/>
      </g>
     </g>
    </g>
    <g id="ytick_48">
     <g id="line2d_122">
      <g>
       <use style="stroke:#000000;stroke-width:0.5;" x="27.0" xlink:href="#m67e58c2bf8" y="24.4750337029"/>
      </g>
     </g>
     <g id="line2d_123">
      <g>
       <use style="stroke:#000000;stroke-width:0.5;" x="194.4" xlink:href="#m0bee6a6bfc" y="24.4750337029"/>
      </g>
     </g>
    </g>
    <g id="ytick_49">
     <g id="line2d_124">
      <g>
       <use style="stroke:#000000;stroke-width:0.5;" x="27.0" xlink:href="#m67e58c2bf8" y="23.3711999649"/>
      </g>
     </g>
     <g id="line2d_125">
      <g>
       <use style="stroke:#000000;stroke-width:0.5;" x="194.4" xlink:href="#m0bee6a6bfc" y="23.3711999649"/>
      </g>
     </g>
    </g>
    <g id="ytick_50">
     <g id="line2d_126">
      <g>
       <use style="stroke:#000000;stroke-width:0.5;" x="27.0" xlink:href="#m67e58c2bf8" y="19.8553999883"/>
      </g>
     </g>
     <g id="line2d_127">
      <g>
       <use style="stroke:#000000;stroke-width:0.5;" x="194.4" xlink:href="#m0bee6a6bfc" y="19.8553999883"/>
      </g>
     </g>
    </g>
    <g id="ytick_51">
     <g id="line2d_128">
      <g>
       <use style="stroke:#000000;stroke-width:0.5;" x="27.0" xlink:href="#m67e58c2bf8" y="17.1957999766"/>
      </g>
     </g>
     <g id="line2d_129">
      <g>
       <use style="stroke:#000000;stroke-width:0.5;" x="194.4" xlink:href="#m0bee6a6bfc" y="17.1957999766"/>
      </g>
     </g>
    </g>
    <g id="ytick_52">
     <g id="line2d_130">
      <g>
       <use style="stroke:#000000;stroke-width:0.5;" x="27.0" xlink:href="#m67e58c2bf8" y="15.6400337029"/>
      </g>
     </g>
     <g id="line2d_131">
      <g>
       <use style="stroke:#000000;stroke-width:0.5;" x="194.4" xlink:href="#m0bee6a6bfc" y="15.6400337029"/>
      </g>
     </g>
    </g>
    <g id="ytick_53">
     <g id="line2d_132">
      <g>
       <use style="stroke:#000000;stroke-width:0.5;" x="27.0" xlink:href="#m67e58c2bf8" y="14.5361999649"/>
      </g>
     </g>
     <g id="line2d_133">
      <g>
       <use style="stroke:#000000;stroke-width:0.5;" x="194.4" xlink:href="#m0bee6a6bfc" y="14.5361999649"/>
      </g>
     </g>
    </g>
    <g id="text_13">
     <!-- $u_N/\hat{f}_0$ -->
     <defs>
      <path d="M 13.484375 53.8125 
L 11.53125 55.90625 
L 25 69.390625 
L 38.375 55.90625 
L 36.375 53.8125 
L 25 63.8125 
z
" id="Cmr10-5e"/>
      <path d="M 4.6875 0 
Q 3.71875 0 3.71875 1.3125 
Q 3.765625 1.5625 3.90625 2.171875 
Q 4.046875 2.78125 4.3125 3.140625 
Q 4.59375 3.515625 4.984375 3.515625 
Q 14.546875 3.515625 16.109375 9.625 
L 29.6875 64.3125 
Q 26.90625 64.796875 20.90625 64.796875 
Q 19.921875 64.796875 19.921875 66.109375 
Q 19.96875 66.359375 20.109375 66.96875 
Q 20.265625 67.578125 20.53125 67.9375 
Q 20.796875 68.3125 21.1875 68.3125 
L 38.484375 68.3125 
Q 39.203125 68.3125 39.40625 67.671875 
L 61.625 14.796875 
L 72.703125 59.078125 
Q 72.90625 60.15625 72.90625 60.59375 
Q 72.90625 64.796875 65.1875 64.796875 
Q 64.203125 64.796875 64.203125 66.109375 
Q 64.546875 67.390625 64.734375 67.84375 
Q 64.9375 68.3125 65.921875 68.3125 
L 87.3125 68.3125 
Q 88.28125 68.3125 88.28125 67 
Q 88.234375 66.75 88.078125 66.140625 
Q 87.9375 65.53125 87.671875 65.15625 
Q 87.40625 64.796875 87.015625 64.796875 
Q 77.4375 64.796875 75.875 58.6875 
L 61.53125 0.875 
Q 61.1875 0 60.5 0 
L 59.28125 0 
Q 58.59375 0 58.40625 0.6875 
L 32.90625 61.1875 
L 32.71875 61.8125 
Q 32.515625 62.015625 32.515625 62.109375 
L 19.28125 9.1875 
Q 19.1875 8.9375 19.140625 8.5625 
Q 19.09375 8.203125 19 7.71875 
Q 19 5.125 21.234375 4.3125 
Q 23.484375 3.515625 26.8125 3.515625 
Q 27.78125 3.515625 27.78125 2.203125 
Q 27.4375 0.828125 27.1875 0.40625 
Q 26.953125 0 26.125 0 
z
" id="Cmmi10-4e"/>
      <path d="M 25 -2.203125 
Q 12.75 -2.203125 8.328125 7.875 
Q 3.90625 17.96875 3.90625 31.890625 
Q 3.90625 40.578125 5.484375 48.234375 
Q 7.078125 55.90625 11.78125 61.25 
Q 16.5 66.609375 25 66.609375 
Q 31.59375 66.609375 35.78125 63.375 
Q 39.984375 60.15625 42.1875 55.046875 
Q 44.390625 49.953125 45.1875 44.109375 
Q 46 38.28125 46 31.890625 
Q 46 23.296875 44.40625 15.796875 
Q 42.828125 8.296875 38.1875 3.046875 
Q 33.546875 -2.203125 25 -2.203125 
M 25 0.390625 
Q 30.5625 0.390625 33.296875 6.09375 
Q 36.03125 11.8125 36.671875 18.75 
Q 37.3125 25.6875 37.3125 33.5 
Q 37.3125 41.015625 36.671875 47.359375 
Q 36.03125 53.71875 33.3125 58.859375 
Q 30.609375 64.015625 25 64.015625 
Q 19.34375 64.015625 16.609375 58.828125 
Q 13.875 53.65625 13.234375 47.328125 
Q 12.59375 41.015625 12.59375 33.5 
Q 12.59375 27.9375 12.859375 23 
Q 13.140625 18.0625 14.3125 12.8125 
Q 15.484375 7.5625 18.09375 3.96875 
Q 20.703125 0.390625 25 0.390625 
" id="Cmr10-30"/>
      <path d="M 10.59375 10.890625 
Q 10.59375 14.15625 11.46875 17.59375 
Q 12.359375 21.046875 13.9375 25.265625 
Q 15.53125 29.5 16.703125 32.625 
Q 18.015625 36.28125 18.015625 38.625 
Q 18.015625 41.609375 15.828125 41.609375 
Q 11.859375 41.609375 9.296875 37.53125 
Q 6.734375 33.453125 5.515625 28.421875 
Q 5.328125 27.78125 4.6875 27.78125 
L 3.515625 27.78125 
Q 2.6875 27.78125 2.6875 28.71875 
L 2.6875 29 
Q 4.296875 34.96875 7.609375 39.578125 
Q 10.9375 44.1875 16.015625 44.1875 
Q 19.578125 44.1875 22.046875 41.84375 
Q 24.515625 39.5 24.515625 35.890625 
Q 24.515625 34.03125 23.6875 31.984375 
Q 23.25 30.765625 21.6875 26.65625 
Q 20.125 22.5625 19.28125 19.875 
Q 18.453125 17.1875 17.921875 14.59375 
Q 17.390625 12.015625 17.390625 9.421875 
Q 17.390625 6.109375 18.796875 3.8125 
Q 20.21875 1.515625 23.390625 1.515625 
Q 29.78125 1.515625 34.625 9.421875 
Q 34.71875 9.8125 34.78125 10.171875 
Q 34.859375 10.546875 34.90625 10.890625 
L 42.09375 39.890625 
Q 42.4375 41.21875 43.65625 42.15625 
Q 44.875 43.109375 46.296875 43.109375 
Q 47.515625 43.109375 48.40625 42.328125 
Q 49.3125 41.546875 49.3125 40.28125 
Q 49.3125 39.703125 49.21875 39.5 
L 42 10.6875 
Q 41.3125 7.71875 41.3125 5.8125 
Q 41.3125 1.515625 44.1875 1.515625 
Q 47.40625 1.515625 49 5.484375 
Q 50.59375 9.46875 51.703125 14.703125 
Q 51.90625 15.28125 52.484375 15.28125 
L 53.71875 15.28125 
Q 54.109375 15.28125 54.34375 14.9375 
Q 54.59375 14.59375 54.59375 14.3125 
Q 53.515625 10.015625 52.515625 6.9375 
Q 51.515625 3.859375 49.359375 1.359375 
Q 47.21875 -1.125 44 -1.125 
Q 40.828125 -1.125 38.3125 0.609375 
Q 35.796875 2.34375 34.90625 5.328125 
Q 32.625 2.390625 29.59375 0.625 
Q 26.5625 -1.125 23.1875 -1.125 
Q 17.4375 -1.125 14.015625 2.015625 
Q 10.59375 5.171875 10.59375 10.890625 
" id="Cmmi10-75"/>
      <path d="M 9.71875 -16.5 
Q 11.578125 -17.921875 14.203125 -17.921875 
Q 17.78125 -17.921875 20.015625 -10.015625 
Q 20.953125 -6.203125 25.09375 15.09375 
L 29.6875 39.59375 
L 21.09375 39.59375 
Q 20.125 39.59375 20.125 40.921875 
Q 20.515625 43.109375 21.390625 43.109375 
L 30.328125 43.109375 
L 31.5 49.609375 
Q 32.078125 52.640625 32.5625 54.8125 
Q 33.0625 56.984375 33.625 58.828125 
Q 34.1875 60.6875 35.296875 62.984375 
Q 37.015625 66.265625 39.921875 68.390625 
Q 42.828125 70.515625 46.1875 70.515625 
Q 48.390625 70.515625 50.46875 69.703125 
Q 52.546875 68.890625 53.859375 67.28125 
Q 55.171875 65.671875 55.171875 63.484375 
Q 55.171875 60.9375 53.484375 59.046875 
Q 51.8125 57.171875 49.421875 57.171875 
Q 47.796875 57.171875 46.65625 58.171875 
Q 45.515625 59.1875 45.515625 60.796875 
Q 45.515625 62.984375 47 64.625 
Q 48.484375 66.265625 50.6875 66.5 
Q 48.828125 67.921875 46.09375 67.921875 
Q 44.578125 67.921875 43.234375 66.5 
Q 41.890625 65.09375 41.5 63.484375 
Q 40.875 60.9375 38.71875 49.703125 
L 37.5 43.109375 
L 47.796875 43.109375 
Q 48.78125 43.109375 48.78125 41.796875 
Q 48.734375 41.546875 48.578125 40.9375 
Q 48.4375 40.328125 48.171875 39.953125 
Q 47.90625 39.59375 47.515625 39.59375 
L 36.8125 39.59375 
L 32.171875 15.1875 
Q 31.296875 9.859375 30.140625 4.359375 
Q 29 -1.125 26.921875 -6.90625 
Q 24.859375 -12.703125 21.625 -16.609375 
Q 18.40625 -20.515625 14.015625 -20.515625 
Q 10.640625 -20.515625 7.984375 -18.578125 
Q 5.328125 -16.65625 5.328125 -13.484375 
Q 5.328125 -10.9375 6.953125 -9.046875 
Q 8.59375 -7.171875 11.078125 -7.171875 
Q 12.75 -7.171875 13.859375 -8.171875 
Q 14.984375 -9.1875 14.984375 -10.796875 
Q 14.984375 -12.9375 13.390625 -14.71875 
Q 11.8125 -16.5 9.71875 -16.5 
" id="Cmmi10-66"/>
      <path d="M 5.609375 -23 
Q 5.609375 -22.703125 5.71875 -22.609375 
L 40.484375 73.78125 
Q 40.671875 74.359375 41.15625 74.671875 
Q 41.65625 75 42.28125 75 
Q 43.171875 75 43.71875 74.453125 
Q 44.28125 73.921875 44.28125 73 
L 44.28125 72.609375 
L 9.515625 -23.78125 
Q 8.9375 -25 7.625 -25 
Q 6.78125 -25 6.1875 -24.40625 
Q 5.609375 -23.828125 5.609375 -23 
" id="Cmmi10-3d"/>
     </defs>
     <g transform="translate(-0.72 77.29)rotate(-90.0)scale(0.08 -0.08)">
      <use transform="translate(0.0 0.40625)" xlink:href="#Cmmi10-75"/>
      <use transform="translate(57.177734375 -16.6)scale(0.7)" xlink:href="#Cmmi10-4e"/>
      <use transform="translate(119.780664062 0.40625)" xlink:href="#Cmmi10-3d"/>
      <use transform="translate(175.468652344 29.609375)" xlink:href="#Cmr10-5e"/>
      <use transform="translate(169.780664062 0.40625)" xlink:href="#Cmmi10-66"/>
      <use transform="translate(223.121757812 -16.6)scale(0.7)" xlink:href="#Cmr10-30"/>
     </g>
    </g>
   </g>
   <g id="legend_1">
    <g id="patch_7">
     <path d="M 151.887188 53.7075 
L 191.4 53.7075 
L 191.4 16.68 
L 151.887188 16.68 
z
" style="fill:#ffffff;stroke:#000000;stroke-linejoin:miter;"/>
    </g>
    <g id="line2d_134">
     <path d="M 156.087188 21.539062 
L 164.487188 21.539062 
" style="fill:none;stroke:#0000ff;stroke-linecap:square;"/>
    </g>
    <g id="line2d_135"/>
    <g id="text_14">
     <!-- N=1 -->
     <defs>
      <path d="M 4.890625 0 
L 4.890625 5.171875 
L 14.703125 5.171875 
L 14.703125 67.671875 
L 4.890625 67.671875 
L 4.890625 72.90625 
L 23.578125 72.90625 
L 67.28125 15.375 
L 67.28125 67.671875 
L 57.515625 67.671875 
L 57.515625 72.90625 
L 83.109375 72.90625 
L 83.109375 67.671875 
L 73.296875 67.671875 
L 73.296875 -1.421875 
L 67.390625 -1.421875 
L 20.703125 60.015625 
L 20.703125 5.171875 
L 30.515625 5.171875 
L 30.515625 0 
z
" id="BitstreamVeraSerif-Roman-4e"/>
      <path d="M 10.59375 45.21875 
L 73.1875 45.21875 
L 73.1875 37.40625 
L 10.59375 37.40625 
z
M 10.59375 25.296875 
L 73.1875 25.296875 
L 73.1875 17.484375 
L 10.59375 17.484375 
z
" id="BitstreamVeraSerif-Roman-3d"/>
     </defs>
     <g transform="translate(171.0871875 23.6390625)scale(0.06 -0.06)">
      <use xlink:href="#BitstreamVeraSerif-Roman-4e"/>
      <use x="87.5" xlink:href="#BitstreamVeraSerif-Roman-3d"/>
      <use x="171.2890625" xlink:href="#BitstreamVeraSerif-Roman-31"/>
     </g>
    </g>
    <g id="line2d_136">
     <path d="M 156.087188 30.345937 
L 164.487188 30.345937 
" style="fill:none;stroke:#008000;stroke-linecap:square;"/>
    </g>
    <g id="line2d_137"/>
    <g id="text_15">
     <!-- N=5 -->
     <g transform="translate(171.0871875 32.4459375)scale(0.06 -0.06)">
      <use xlink:href="#BitstreamVeraSerif-Roman-4e"/>
      <use x="87.5" xlink:href="#BitstreamVeraSerif-Roman-3d"/>
      <use x="171.2890625" xlink:href="#BitstreamVeraSerif-Roman-35"/>
     </g>
    </g>
    <g id="line2d_138">
     <path d="M 156.087188 39.152812 
L 164.487188 39.152812 
" style="fill:none;stroke:#ff0000;stroke-linecap:square;"/>
    </g>
    <g id="line2d_139"/>
    <g id="text_16">
     <!-- N=10 -->
     <g transform="translate(171.0871875 41.2528125)scale(0.06 -0.06)">
      <use xlink:href="#BitstreamVeraSerif-Roman-4e"/>
      <use x="87.5" xlink:href="#BitstreamVeraSerif-Roman-3d"/>
      <use x="171.2890625" xlink:href="#BitstreamVeraSerif-Roman-31"/>
      <use x="234.912109375" xlink:href="#BitstreamVeraSerif-Roman-30"/>
     </g>
    </g>
    <g id="line2d_140">
     <path d="M 156.087188 47.959687 
L 164.487188 47.959687 
" style="fill:none;stroke:#00bfbf;stroke-linecap:square;"/>
    </g>
    <g id="line2d_141"/>
    <g id="text_17">
     <!-- N=50 -->
     <g transform="translate(171.0871875 50.0596875)scale(0.06 -0.06)">
      <use xlink:href="#BitstreamVeraSerif-Roman-4e"/>
      <use x="87.5" xlink:href="#BitstreamVeraSerif-Roman-3d"/>
      <use x="171.2890625" xlink:href="#BitstreamVeraSerif-Roman-35"/>
      <use x="234.912109375" xlink:href="#BitstreamVeraSerif-Roman-30"/>
     </g>
    </g>
   </g>
  </g>
 </g>
 <defs>
  <clipPath id="pda9b7bee1d">
   <rect height="106.02" width="167.4" x="27.0" y="13.68"/>
  </clipPath>
 </defs>
</svg>
