<?xml version="1.0" encoding="utf-8" standalone="no"?>
<!DOCTYPE svg PUBLIC "-//W3C//DTD SVG 1.1//EN"
  "http://www.w3.org/Graphics/SVG/1.1/DTD/svg11.dtd">
<!-- Created with matplotlib (http://matplotlib.org/) -->
<svg height="432pt" version="1.1" viewBox="0 0 576 432" width="576pt" xmlns="http://www.w3.org/2000/svg" xmlns:xlink="http://www.w3.org/1999/xlink">
 <defs>
  <style type="text/css">
*{stroke-linecap:butt;stroke-linejoin:round;}
  </style>
 </defs>
 <g id="figure_1">
  <g id="patch_1">
   <path d="
M0 432
L576 432
L576 0
L0 0
z
" style="fill:#ffffff;"/>
  </g>
  <g id="axes_1">
   <g id="patch_2">
    <path d="
M72 388.8
L518.4 388.8
L518.4 43.2
L72 43.2
z
" style="fill:#ffffff;"/>
   </g>
   <g id="line2d_1">
    <path clip-path="url(#p7ff5b81e1d)" d="
M72.2585 -1
L72.5356 17.2852
L72.9818 32.4456
L73.5174 43.3326
L74.1868 52.4703
L74.9454 59.9142
L75.8379 66.5254
L76.8644 72.4392
L77.98 77.5846
L79.2296 82.304
L80.613 86.6476
L82.0857 90.5504
L83.6922 94.1896
L85.4327 97.5878
L87.307 100.765
L89.3152 103.739
L91.5019 106.578
L93.8225 109.227
L96.3216 111.742
L98.9992 114.117
L101.855 116.349
L104.89 118.434
L108.103 120.369
L111.495 122.147
L115.02 123.744
L118.724 125.176
L122.517 126.405
L126.4 127.432
L130.372 128.252
L134.343 128.845
L138.271 129.207
L142.108 129.338
L145.812 129.242
L149.338 128.929
L152.64 128.413
L155.72 127.708
L158.531 126.84
L161.119 125.811
L163.485 124.632
L165.627 123.317
L167.546 121.882
L169.286 120.307
L170.848 118.599
L172.276 116.707
L173.57 114.613
L174.731 112.298
L175.757 109.74
L176.649 106.917
L177.453 103.61
L178.122 99.9062
L178.702 95.3993
L179.149 90.2565
L179.506 83.6562
L179.773 74.3622
L179.907 64.2848
L179.996 42.3264
L180.041 46.5021
L180.22 72.3196
L180.532 83.9519
L180.978 91.7851
L181.514 97.372
L182.183 102.06
L182.986 106.081
L183.879 109.451
L184.905 112.489
L186.066 115.248
L187.404 117.851
L188.877 120.224
L190.528 122.459
L192.358 124.557
L194.366 126.518
L196.598 128.382
L199.007 130.106
L201.64 131.715
L204.496 133.198
L207.531 134.523
L210.744 135.684
L214.091 136.656
L217.527 137.423
L221.008 137.97
L224.445 138.286
L227.792 138.371
L231.005 138.231
L234.039 137.878
L236.895 137.323
L239.528 136.587
L241.938 135.685
L244.17 134.613
L246.178 133.405
L248.007 132.049
L249.659 130.554
L251.176 128.881
L252.559 127.017
L253.809 124.95
L254.925 122.665
L255.906 120.146
L256.799 117.223
L257.557 113.972
L258.227 110.092
L258.762 105.716
L259.209 100.27
L259.566 93.0104
L259.789 84.4704
L259.923 73.3246
L259.967 65.1417
L260.012 32.829
L260.057 63.106
L260.28 86.4385
L260.592 96.2399
L261.038 103.463
L261.619 109.149
L262.288 113.587
L263.091 117.454
L264.028 120.869
L265.099 123.917
L266.304 126.665
L267.643 129.158
L269.116 131.431
L270.722 133.506
L272.507 135.444
L274.426 137.195
L276.479 138.763
L278.621 140.118
L280.808 141.243
L283.039 142.144
L285.226 142.793
L287.368 143.2
L289.376 143.362
L291.295 143.294
L293.036 143.015
L294.642 142.537
L296.115 141.871
L297.454 141.028
L298.703 139.978
L299.864 138.703
L300.89 137.251
L301.872 135.462
L302.764 133.346
L303.568 130.834
L304.282 127.822
L304.906 124.142
L305.397 119.967
L305.799 114.802
L306.111 108.178
L306.334 99.2222
L306.468 86.5107
L306.557 65.5587
L306.736 98.4177
L307.048 110.653
L307.495 118.825
L308.03 124.71
L308.7 129.731
L309.503 134.133
L310.485 138.25
L311.6 141.967
L312.894 145.502
L314.367 148.879
L316.063 152.202
L317.982 155.465
L320.124 158.668
L322.534 161.873
L325.256 165.122
L328.291 168.395
L331.682 171.723
L335.431 175.089
L339.581 178.516
L344.178 182.02
L349.221 185.584
L354.754 189.219
L360.823 192.936
L367.428 196.716
L374.568 200.543
L382.289 204.427
L390.634 208.375
L399.604 212.37
L409.243 216.419
L419.597 220.524
L430.664 224.672
L442.49 228.864
L455.119 233.102
L468.552 237.373
L482.833 241.678
L498.006 246.018
L514.071 250.38
L518.4 251.517
L518.4 251.517" style="fill:none;stroke:#0000ff;stroke-linecap:square;"/>
   </g>
   <g id="line2d_2">
    <path clip-path="url(#p7ff5b81e1d)" d="
M72.1786 9.20081
L72.4909 34.4881
L72.8926 49.4062
L73.4281 61.0828
L74.0529 70.0198
L74.7669 77.2621
L75.5702 83.3029
L76.4627 88.4058
L77.3999 92.5442
L78.3817 95.9137
L79.3634 98.5171
L80.3006 100.409
L81.1931 101.733
L81.9964 102.551
L82.7104 102.984
L83.3798 103.131
L84.0046 103.027
L84.5848 102.702
L85.1649 102.127
L85.7897 101.177
L86.4144 99.7963
L87.0392 97.8343
L87.6194 95.2455
L88.1549 91.7816
L88.6012 87.442
L88.9582 81.9453
L89.2259 74.8206
L89.4044 65.4295
L89.4937 54.8928
L89.5383 41.1527
L89.5829 41.2881
L89.7614 68.8598
L90.0738 80.8136
L90.5201 88.926
L91.0556 94.7722
L91.725 99.7049
L92.4837 103.715
L93.3316 107.062
L94.2687 109.865
L95.2059 111.997
L96.143 113.601
L97.0356 114.71
L97.8835 115.418
L98.6421 115.773
L99.3562 115.865
L100.026 115.725
L100.695 115.347
L101.364 114.698
L102.034 113.732
L102.703 112.369
L103.373 110.481
L103.997 108.042
L104.577 104.857
L105.068 100.96
L105.515 95.4878
L105.827 89.0606
L106.05 80.5563
L106.184 69.2768
L106.229 60.8081
L106.273 16.1542
L106.318 60.1315
L106.541 82.9603
L106.898 93.7539
L107.344 100.678
L107.924 106.271
L108.594 110.658
L109.353 114.246
L110.2 117.215
L111.093 119.542
L111.985 121.257
L112.833 122.417
L113.592 123.104
L114.306 123.457
L114.931 123.529
L115.511 123.384
L116.091 123.015
L116.716 122.334
L117.341 121.298
L117.965 119.81
L118.59 117.7
L119.17 114.903
L119.706 111.108
L120.152 106.218
L120.509 99.6615
L120.777 89.9563
L120.911 78.4565
L120.955 69.5875
L121 28.4758
L121 28.4758
L121 28.4758
L121.134 84.0578
L121.402 97.8711
L121.803 106.744
L122.294 112.932
L122.919 118.068
L123.633 122.151
L124.436 125.462
L125.24 127.872
L125.998 129.513
L126.712 130.561
L127.292 131.063
L127.783 131.23
L128.23 131.153
L128.676 130.824
L129.122 130.191
L129.568 129.17
L130.059 127.422
L130.506 124.959
L130.907 121.5
L131.264 116.398
L131.532 109.396
L131.71 99.5529
L131.8 87.1668
L131.844 61.9666
L131.889 83.5219
L132.067 105.728
L132.38 117.583
L132.826 126.18
L133.406 133.204
L134.165 139.654
L135.057 145.387
L136.128 150.857
L137.378 156.09
L138.806 161.104
L140.368 165.779
L142.064 170.16
L143.849 174.171
L145.723 177.851
L147.687 181.221
L149.65 184.16
L151.659 186.771
L153.622 188.97
L155.586 190.84
L157.505 192.363
L159.334 193.539
L161.119 194.425
L162.815 195.022
L164.422 195.358
L165.984 195.457
L167.456 195.329
L168.84 194.991
L170.179 194.44
L171.473 193.664
L172.722 192.65
L173.883 191.424
L174.998 189.922
L176.069 188.094
L177.051 185.968
L177.944 183.504
L178.747 180.637
L179.461 177.266
L180.086 173.216
L180.621 168.16
L181.023 162.243
L181.335 154.24
L181.558 141.398
L181.648 125.588
L181.692 109.227
L181.692 109.227
L181.692 109.227
L181.871 146.574
L182.183 158.822
L182.585 166.19
L183.12 172.002
L183.745 176.478
L184.504 180.32
L185.352 183.485
L186.289 186.149
L187.315 188.407
L188.386 190.248
L189.502 191.747
L190.662 192.948
L191.867 193.877
L193.072 194.524
L194.277 194.92
L195.482 195.084
L196.687 195.025
L197.936 194.735
L199.186 194.211
L200.48 193.417
L201.774 192.355
L203.068 191.008
L204.407 189.285
L205.746 187.188
L207.085 184.66
L208.379 181.732
L209.629 178.352
L210.833 174.441
L211.949 170.063
L212.976 165.137
L213.913 159.514
L214.716 153.287
L215.385 146.253
L215.876 138.81
L216.233 130.284
L216.501 117.826
L216.635 99.5787
L216.68 61.1867
L216.68 61.1867
L216.68 61.1867
L216.813 113.429
L217.081 126.025
L217.438 132.497
L217.84 136.022
L218.241 137.777
L218.554 138.385
L218.822 138.498
L219.045 138.34
L219.312 137.858
L219.669 136.714
L220.071 134.645
L220.517 131.027
L220.919 125.712
L221.231 118.464
L221.455 107.76
L221.588 86.5058
L221.633 77.5933
L221.812 109.79
L222.124 121.687
L222.526 128.678
L223.016 133.461
L223.507 136.324
L223.998 138.001
L224.4 138.688
L224.712 138.836
L224.98 138.694
L225.292 138.195
L225.649 137.122
L226.051 135.101
L226.453 131.794
L226.81 126.874
L227.078 120.359
L227.301 108.562
L227.39 95.4365
L227.435 60.2222
L227.479 93.9468
L227.702 117.252
L228.015 127.186
L228.461 134.407
L228.952 139.038
L229.443 141.849
L229.844 143.14
L230.157 143.543
L230.335 143.515
L230.558 143.173
L230.826 142.2
L231.094 140.358
L231.362 137.041
L231.629 130.373
L231.808 119.387
L231.897 99.6917
L231.942 100.028
L232.12 128.39
L232.433 141.682
L232.879 151.62
L233.504 160.651
L234.307 169.04
L235.289 176.969
L236.449 184.525
L237.743 191.522
L239.171 198.061
L240.733 204.186
L242.384 209.766
L244.08 214.722
L245.776 219.005
L247.427 222.592
L248.989 225.477
L250.417 227.678
L251.711 229.289
L252.827 230.352
L253.809 230.999
L254.657 231.302
L255.371 231.336
L256.04 231.142
L256.665 230.718
L257.245 230.055
L257.825 229.052
L258.405 227.574
L258.941 225.586
L259.432 222.916
L259.878 219.237
L260.235 214.561
L260.547 207.312
L260.771 195.62
L260.86 182.587
L260.904 148.377
L260.949 181.018
L261.172 204.571
L261.529 215.875
L262.02 223.999
L262.645 230.628
L263.448 236.705
L264.43 242.361
L265.59 247.71
L266.929 252.83
L268.446 257.769
L270.142 262.549
L272.017 267.175
L274.025 271.546
L276.122 275.59
L278.309 279.325
L280.496 282.626
L282.638 285.469
L284.735 287.894
L286.743 289.885
L288.618 291.443
L290.403 292.642
L292.009 293.464
L293.482 293.979
L294.821 294.224
L296.07 294.231
L297.231 294.013
L298.302 293.583
L299.283 292.951
L300.221 292.085
L301.113 290.952
L301.961 289.508
L302.764 287.678
L303.478 285.501
L304.148 282.731
L304.728 279.378
L305.219 275.275
L305.62 270.152
L305.933 263.531
L306.156 254.503
L306.29 241.45
L306.379 223.679
L306.557 254.153
L306.87 266.291
L307.316 274.465
L307.896 280.769
L308.566 285.697
L309.369 290.037
L310.306 293.919
L311.377 297.43
L312.582 300.622
L313.876 303.437
L315.26 305.93
L316.732 308.127
L318.205 309.936
L319.678 311.407
L321.15 312.569
L322.578 313.418
L323.962 313.984
L325.301 314.291
L326.595 314.356
L327.844 314.194
L329.049 313.816
L330.254 313.204
L331.459 312.336
L332.664 311.188
L333.869 309.724
L335.074 307.901
L336.279 305.664
L337.484 302.936
L338.644 299.753
L339.804 295.899
L340.92 291.395
L341.991 286.117
L343.017 279.887
L343.955 272.809
L344.847 264.278
L345.65 254.3
L346.32 243.227
L346.9 229.887
L347.346 214.407
L347.614 198.73
L347.748 183.1
L347.837 155.444
L347.882 174.97
L348.06 187.229
L348.149 187.773
L348.239 186.715
L348.373 182.122
L348.507 170.417
L348.596 140.309
L348.64 164.394
L348.819 181.321
L349.042 185.465
L349.087 185.369
L349.176 184.289
L349.31 179.659
L349.444 164.715
L349.488 136.564
L349.533 162.32
L349.711 183.486
L349.935 188.681
L350.024 187.302
L350.113 181.729
L350.158 174.093
L350.202 144.526
L350.202 144.526
L350.202 144.526
L350.381 199.471
L350.738 221.776
L351.273 240.653
L351.987 257.71
L352.835 272.7
L353.862 286.849
L355.022 299.769
L356.361 312.153
L357.833 323.72
L359.485 334.937
L361.314 345.838
L363.323 356.46
L365.509 366.84
L367.919 377.196
L370.507 387.345
L373.319 397.472
L376.354 407.573
L379.611 417.645
L383.092 427.689
L385.027 433
L385.027 433" style="fill:none;stroke:#008000;stroke-linecap:square;"/>
   </g>
   <g id="line2d_3">
    <path clip-path="url(#p7ff5b81e1d)" d="
M72.1786 17.7692
L72.4909 43.0161
L72.8926 57.8262
L73.4281 69.259
L74.0529 77.7615
L74.7223 83.9549
L75.4363 88.5454
L76.1057 91.5076
L76.7305 93.3212
L77.2214 94.1571
L77.623 94.4569
L77.9354 94.4391
L78.2478 94.1828
L78.6048 93.5602
L79.0064 92.353
L79.4081 90.4352
L79.8097 87.4467
L80.1667 83.2057
L80.4791 76.7917
L80.7022 67.5987
L80.8361 53.2133
L80.8807 36.5822
L80.9254 43.9946
L81.1039 68.9671
L81.4163 80.8378
L81.8625 89.0103
L82.3981 94.8544
L83.0228 99.3432
L83.6922 102.611
L84.3616 104.807
L84.9418 106.021
L85.4327 106.6
L85.8343 106.774
L86.1913 106.695
L86.5483 106.382
L86.95 105.717
L87.3962 104.523
L87.8871 102.488
L88.3334 99.6858
L88.7797 95.3249
L89.1367 89.5042
L89.4044 81.4548
L89.5829 69.18
L89.6722 45.4454
L89.7168 53.2017
L89.8953 77.9434
L90.2077 89.6054
L90.654 97.5059
L91.1895 103.045
L91.8143 107.198
L92.439 109.966
L93.0638 111.792
L93.5993 112.756
L94.0456 113.177
L94.4472 113.264
L94.8042 113.104
L95.2059 112.638
L95.6522 111.718
L96.143 110.11
L96.6339 107.652
L97.0802 104.272
L97.4818 99.5325
L97.7942 93.4078
L98.0174 85.4241
L98.1512 75.4709
L98.2405 53.9666
L98.2851 57.2988
L98.4636 83.5091
L98.776 95.2485
L99.1777 102.508
L99.7132 108.182
L100.293 112.094
L100.918 114.875
L101.498 116.55
L102.034 117.476
L102.48 117.837
L102.837 117.861
L103.194 117.644
L103.596 117.088
L104.042 116.028
L104.533 114.193
L105.024 111.369
L105.47 107.392
L105.827 102.33
L106.139 94.4907
L106.318 85.4096
L106.452 64.3491
L106.496 55.0183
L106.675 87.6077
L106.987 99.7479
L107.389 107.091
L107.88 112.385
L108.46 116.367
L109.04 118.966
L109.62 120.615
L110.111 121.409
L110.513 121.682
L110.825 121.662
L111.138 121.431
L111.495 120.888
L111.896 119.873
L112.343 118.125
L112.789 115.47
L113.235 111.334
L113.592 105.921
L113.86 98.8151
L114.038 89.4225
L114.128 78.9011
L114.217 65.0791
L114.395 92.7349
L114.708 104.569
L115.109 111.808
L115.6 117.016
L116.18 120.878
L116.761 123.306
L117.296 124.637
L117.698 125.144
L118.01 125.26
L118.322 125.126
L118.635 124.725
L118.992 123.902
L119.394 122.414
L119.84 119.813
L120.241 116.119
L120.598 110.749
L120.866 103.586
L121.045 93.9205
L121.134 82.6175
L121.179 65.7328
L121.223 73.5758
L121.402 98.2721
L121.714 109.871
L122.116 117.037
L122.607 122.159
L123.142 125.63
L123.678 127.745
L124.124 128.706
L124.436 128.981
L124.704 128.953
L124.972 128.668
L125.284 127.971
L125.641 126.596
L126.043 124.046
L126.4 120.348
L126.712 114.926
L126.98 105.897
L127.114 95.686
L127.203 70.9454
L127.248 80.5357
L127.426 104.798
L127.739 116.424
L128.14 123.607
L128.631 128.643
L129.122 131.625
L129.568 133.098
L129.881 133.5
L130.104 133.458
L130.327 133.113
L130.595 132.229
L130.907 130.354
L131.22 127.077
L131.487 122.14
L131.71 114.181
L131.844 103.212
L131.889 94.8842
L131.934 53.7507
L131.978 94.1264
L132.201 117.379
L132.514 127.498
L132.915 134.214
L133.362 138.354
L133.719 139.947
L133.897 140.167
L134.031 140.033
L134.21 139.358
L134.433 137.371
L134.656 132.993
L134.834 124.67
L134.924 113.686
L134.968 94.9623
L135.013 107.367
L135.191 132.379
L135.548 147.712
L136.084 160.122
L136.798 171.372
L137.735 182.52
L138.851 193.136
L140.145 203.363
L141.618 213.243
L143.224 222.535
L144.965 231.304
L146.794 239.389
L148.669 246.694
L150.588 253.307
L152.551 259.288
L154.515 264.558
L156.434 269.08
L158.308 272.936
L160.093 276.115
L161.789 278.7
L163.395 280.76
L164.913 282.356
L166.341 283.538
L167.635 284.332
L168.84 284.82
L169.955 285.042
L171.026 285.03
L172.053 284.791
L173.035 284.33
L173.972 283.65
L174.909 282.694
L175.846 281.408
L176.739 279.799
L177.587 277.813
L178.39 275.362
L179.149 272.289
L179.818 268.58
L180.398 263.991
L180.844 258.684
L181.201 251.754
L181.469 241.591
L181.603 229.264
L181.692 202.627
L181.871 239.973
L182.183 252.191
L182.585 259.511
L183.12 265.245
L183.745 269.607
L184.459 273.096
L185.262 275.945
L186.11 278.171
L187.003 279.916
L187.895 281.203
L188.788 282.124
L189.68 282.737
L190.573 283.081
L191.465 283.182
L192.358 283.057
L193.295 282.694
L194.277 282.068
L195.303 281.15
L196.419 279.847
L197.624 278.075
L198.873 275.825
L200.168 273.025
L201.506 269.589
L202.89 265.401
L204.273 260.485
L205.657 254.728
L206.996 248.207
L208.334 240.546
L209.584 232.093
L210.789 222.37
L211.86 211.926
L212.842 200.126
L213.645 187.88
L214.314 174.303
L214.805 159.729
L215.118 143.337
L215.251 126.677
L215.296 109.177
L215.341 116.009
L215.519 137.646
L215.742 142.588
L215.876 143.179
L215.921 143.14
L216.055 142.443
L216.278 139.447
L216.501 133.532
L216.68 124.181
L216.813 102.65
L216.858 93.4709
L217.037 125.06
L217.304 134.379
L217.617 138.304
L217.84 139.13
L217.929 139.123
L218.063 138.785
L218.286 137.331
L218.554 133.837
L218.822 127.118
L219 117.917
L219.134 95.7856
L219.179 89.6929
L219.357 119.978
L219.625 130.058
L219.982 135.635
L220.294 137.659
L220.517 138.044
L220.651 137.901
L220.83 137.272
L221.098 135.279
L221.365 131.582
L221.633 124.646
L221.812 114.849
L221.901 103.053
L221.945 83.6343
L221.99 96.1791
L222.169 119.43
L222.481 130.26
L222.838 135.573
L223.195 137.934
L223.418 138.394
L223.552 138.333
L223.731 137.85
L223.954 136.535
L224.221 133.61
L224.489 128.227
L224.712 119.013
L224.846 104.169
L224.891 85.6955
L224.935 96.6233
L225.114 120.363
L225.426 131.394
L225.783 136.864
L226.14 139.306
L226.363 139.755
L226.497 139.654
L226.676 139.063
L226.899 137.47
L227.167 133.797
L227.39 127.997
L227.568 118.285
L227.658 106.139
L227.702 83.5175
L227.747 101.313
L227.925 123.745
L228.238 134.684
L228.595 140.001
L228.907 141.891
L229.041 142.08
L229.086 142.061
L229.22 141.743
L229.398 140.636
L229.621 137.785
L229.844 132.013
L230.023 121.26
L230.157 95.6675
L230.335 127.986
L230.603 138.733
L230.915 144.084
L231.183 145.69
L231.272 145.681
L231.406 145.09
L231.585 142.896
L231.763 137.915
L231.897 129.359
L232.031 107.207
L232.21 137.589
L232.477 148.315
L232.745 151.847
L232.79 151.866
L232.879 151.257
L233.013 147.757
L233.102 141.202
L233.147 133.414
L233.191 90.2033
L233.191 90.2033
L233.191 90.2033
L233.325 151.657
L233.638 172.992
L234.129 190.998
L234.843 208.996
L235.78 226.849
L236.895 243.836
L238.19 260.157
L239.662 275.875
L241.269 290.614
L242.965 304.16
L244.75 316.683
L246.624 328.265
L248.498 338.47
L250.328 347.224
L252.024 354.298
L253.541 359.736
L254.835 363.617
L255.906 366.184
L256.754 367.684
L257.379 368.391
L257.87 368.634
L258.227 368.588
L258.584 368.3
L258.941 367.695
L259.298 366.654
L259.7 364.691
L260.057 361.737
L260.369 357.252
L260.637 349.703
L260.815 336.937
L260.86 328.85
L260.904 294.734
L260.949 327.469
L261.172 351.487
L261.529 363.529
L262.02 372.654
L262.69 381.016
L263.582 389.308
L264.698 397.557
L266.081 406.081
L267.688 414.591
L269.517 423.102
L271.57 431.588
L271.935 433
M306.301 433
L306.334 423.954
L306.379 418.266
L306.42 433
M340.729 433
L341.813 420.306
L342.884 405.049
L343.865 387.759
L344.758 368.019
L345.561 345.177
L346.231 320.035
L346.811 289.867
L347.257 254.509
L347.525 214.465
L347.614 177.73
L347.659 193.901
L347.703 194.503
L347.792 179.422
L347.837 165.844
L347.837 165.844
L347.837 165.844
L347.971 189.357
L348.06 185.176
L348.149 161.282
L348.194 169.576
L348.373 186.555
L348.462 182.912
L348.551 167.764
L348.596 154.118
L348.596 154.118
L348.596 154.118
L348.774 185.141
L348.819 185.489
L348.908 182.495
L348.997 170.261
L349.042 112.801
L349.042 112.801
L349.042 112.801
L349.176 182.731
L349.265 185.713
L349.31 185.305
L349.399 179.854
L349.444 172.276
L349.488 130.504
L349.533 171.879
L349.711 187.216
L349.801 182.86
L349.845 175.138
L349.89 142.468
L349.89 142.468
L349.89 142.468
L350.024 189.273
L350.068 190.336
L350.113 188.667
L350.158 181.984
L350.202 157.109
L350.202 157.109
L350.202 157.109
L350.336 195.935
L350.381 184.904
L350.381 184.904
L350.381 184.904
L350.649 249.696
L351.095 293.235
L351.72 331.692
L352.478 365.147
L353.415 396.673
L354.486 425.26
L354.817 433
L354.817 433" style="fill:none;stroke:#ff0000;stroke-linecap:square;"/>
   </g>
   <g id="line2d_4">
    <path clip-path="url(#p7ff5b81e1d)" d="
M72.1786 37.6266
L72.4463 59.4475
L72.7587 70.0958
L73.0265 73.9216
L73.1603 74.3983
L73.205 74.3352
L73.3389 73.3747
L73.5174 69.5665
L73.6512 62.6961
L73.7405 51.1361
L73.7851 28.5446
L73.8297 46.9502
L74.0083 70.1142
L74.3206 81.6258
L74.633 85.9727
L74.8115 86.5719
L74.9008 86.3763
L75.0347 85.3804
L75.2132 82.3166
L75.3917 75.5173
L75.5256 61.6677
L75.5702 45.2873
L75.6148 52.4993
L75.7933 77.6542
L76.0611 87.6912
L76.3735 92.1669
L76.552 92.8035
L76.6412 92.6479
L76.7751 91.7684
L76.9536 89.0802
L77.1321 83.472
L77.266 74.2316
L77.3552 54.3027
L77.3999 54.6233
L77.5784 82.1624
L77.8461 92.1599
L78.1585 96.4474
L78.337 96.9752
L78.4263 96.7678
L78.6048 95.3056
L78.8279 90.7359
L79.0064 82.242
L79.0957 72.2608
L79.1849 56.2418
L79.3634 85.481
L79.6312 95.4681
L79.9436 99.6502
L80.1221 100.112
L80.2113 99.871
L80.3899 98.3423
L80.613 93.6896
L80.7915 85.1255
L80.8807 75.096
L80.97 59.1881
L81.1485 88.2659
L81.4163 98.1563
L81.684 101.932
L81.8625 102.644
L81.9518 102.529
L82.0857 101.739
L82.2642 99.3005
L82.4873 92.5126
L82.6212 83.0257
L82.7104 62.329
L82.7551 64.1786
L82.9336 90.8418
L83.2013 100.488
L83.4691 104.131
L83.6476 104.762
L83.7369 104.603
L83.8707 103.74
L84.0939 100.205
L84.317 91.6025
L84.4509 76.6038
L84.4955 56.2624
L84.5401 70.5016
L84.7186 93.3884
L84.9864 102.614
L85.2542 106.062
L85.4327 106.579
L85.5219 106.36
L85.7004 104.883
L85.9236 100.385
L86.1021 92.3237
L86.2359 74.1112
L86.2806 48.8948
L86.2806 48.8948
L86.2806 48.8948
L86.4591 93.3609
L86.7268 103.695
L86.9946 107.506
L87.1731 108.188
L87.2624 108.049
L87.3962 107.211
L87.5747 104.686
L87.7979 97.7087
L87.9318 87.8773
L88.021 64.5713
L88.0656 71.6805
L88.2441 96.3626
L88.5119 105.712
L88.7797 109.141
L88.9582 109.615
L89.0474 109.367
L89.2259 107.809
L89.4491 103.125
L89.6276 94.6399
L89.7614 73.4861
L89.8061 65.2465
L89.9846 96.9724
L90.2523 106.817
L90.5201 110.394
L90.6986 110.925
L90.7879 110.701
L90.9664 109.189
L91.1895 104.582
L91.368 96.2682
L91.5019 76.4591
L91.5465 62.5428
L91.5465 62.5428
L91.5465 62.5428
L91.725 98.0126
L91.9928 108.005
L92.2605 111.599
L92.439 112.12
L92.5283 111.885
L92.7068 110.337
L92.9299 105.632
L93.1084 97.0678
L93.1977 87.2153
L93.2869 69.1667
L93.4655 99.6036
L93.7332 109.32
L94.001 112.784
L94.1349 113.233
L94.1795 113.216
L94.3134 112.656
L94.4919 110.559
L94.715 104.596
L94.8935 92.3596
L94.9828 64.4164
L95.0274 79.0474
L95.2059 101.759
L95.4736 110.784
L95.7414 113.952
L95.8753 114.27
L95.9645 114.059
L96.143 112.539
L96.3662 107.83
L96.5447 99.1942
L96.6339 89.1646
L96.7232 72.6684
L96.9017 101.947
L97.1695 111.537
L97.4372 114.878
L97.5711 115.247
L97.6157 115.199
L97.7496 114.523
L97.9281 112.194
L98.1512 105.57
L98.2851 96.4713
L98.419 72.3259
L98.5975 102.868
L98.8653 112.51
L99.133 115.828
L99.2669 116.169
L99.3562 115.959
L99.5347 114.405
L99.7578 109.541
L99.9363 100.434
L100.026 89.22
L100.07 72.2244
L100.115 80.3192
L100.293 104.619
L100.561 113.734
L100.829 116.809
L100.918 117.045
L100.963 117.031
L101.097 116.443
L101.275 114.212
L101.498 107.732
L101.632 98.8676
L101.766 71.0039
L101.811 89.7377
L102.034 109.12
L102.302 115.898
L102.525 117.791
L102.614 117.881
L102.703 117.608
L102.882 115.86
L103.105 110.467
L103.283 99.7738
L103.417 72.4552
L103.462 90.8076
L103.685 110.085
L103.953 116.807
L104.176 118.628
L104.265 118.68
L104.399 118.05
L104.577 115.685
L104.801 108.718
L104.934 98.6415
L105.024 72.5458
L105.068 84.3636
L105.247 107.638
L105.515 116.541
L105.782 119.362
L105.872 119.482
L105.916 119.4
L106.05 118.559
L106.229 115.785
L106.407 109.94
L106.541 100.306
L106.63 78.5622
L106.675 82.573
L106.853 108.199
L107.121 117.304
L107.389 120.138
L107.478 120.241
L107.567 119.953
L107.746 118.08
L107.969 112.165
L108.148 99.4263
L108.192 91.3637
L108.237 60.3021
L108.281 89.1411
L108.46 109.941
L108.728 118.443
L108.996 120.952
L109.04 120.997
L109.085 120.942
L109.219 120.154
L109.397 117.384
L109.576 111.408
L109.71 101.284
L109.799 74.2073
L109.843 87.5523
L110.022 110.448
L110.29 119.175
L110.513 121.554
L110.602 121.728
L110.647 121.66
L110.781 120.81
L110.959 117.876
L111.138 111.471
L111.271 99.9785
L111.361 65.3994
L111.405 93.5688
L111.628 114.313
L111.896 120.976
L112.119 122.448
L112.209 122.272
L112.343 121.158
L112.521 117.665
L112.7 109.86
L112.833 92.1987
L112.878 59.3638
L112.878 59.3638
L112.878 59.3638
L113.012 107.032
L113.28 119.378
L113.547 122.959
L113.637 123.163
L113.681 123.099
L113.815 122.215
L113.994 119.084
L114.172 112.03
L114.306 97.9109
L114.351 81.554
L114.395 88.3206
L114.574 112.942
L114.842 121.681
L115.065 123.813
L115.109 123.874
L115.154 123.82
L115.288 122.939
L115.466 119.735
L115.645 112.377
L115.779 96.7063
L115.823 71.2032
L115.868 93.0165
L116.047 114.439
L116.314 122.719
L116.537 124.57
L116.582 124.566
L116.671 124.192
L116.85 121.787
L117.028 116.01
L117.162 105.896
L117.251 77.7305
L117.296 92.7251
L117.475 115.212
L117.742 123.547
L117.965 125.294
L118.055 125.085
L118.189 123.758
L118.367 119.466
L118.546 108.641
L118.679 86.4137
L118.858 115.347
L119.126 124.208
L119.349 126.013
L119.438 125.78
L119.572 124.356
L119.751 119.721
L119.929 107.35
L119.974 99.4938
L120.018 71.986
L120.063 96.4454
L120.241 117.51
L120.509 125.438
L120.688 126.738
L120.732 126.705
L120.822 126.209
L121 123.198
L121.179 115.536
L121.312 96.9257
L121.357 76.4934
L121.357 76.4934
L121.357 76.4934
L121.536 116.743
L121.803 125.906
L121.982 127.464
L122.026 127.47
L122.116 127.027
L122.25 125.088
L122.428 118.876
L122.562 106.556
L122.651 86.8371
L122.83 118.36
L123.098 127.013
L123.276 128.245
L123.365 127.889
L123.499 126.018
L123.678 119.738
L123.812 106.829
L123.901 91.8376
L124.079 119.86
L124.347 128.095
L124.481 129.023
L124.526 128.986
L124.615 128.382
L124.793 124.592
L124.972 113.61
L125.061 91.971
L125.106 96.0087
L125.284 121.409
L125.552 129.19
L125.686 129.83
L125.775 129.315
L125.909 126.911
L126.088 118.414
L126.177 106.8
L126.221 86.4983
L126.266 100.703
L126.445 123.154
L126.668 129.819
L126.802 130.688
L126.846 130.568
L126.98 128.887
L127.159 122.059
L127.292 104.891
L127.337 68.4425
L127.337 68.4425
L127.337 68.4425
L127.471 119.398
L127.694 129.697
L127.873 131.577
L127.962 131.138
L128.096 128.528
L128.23 122.096
L128.319 111.876
L128.363 97.8337
L128.408 99.1424
L128.587 125.497
L128.81 132.041
L128.899 132.515
L128.944 132.377
L129.077 130.307
L129.211 124.569
L129.345 105.337
L129.39 91.0951
L129.39 91.0951
L129.39 91.0951
L129.568 126.399
L129.792 133.159
L129.881 133.491
L129.97 132.669
L130.104 128.683
L130.238 117.319
L130.327 94.051
L130.506 128.218
L130.729 134.459
L130.773 134.584
L130.773 134.584
L130.773 134.584
L130.863 133.847
L130.996 129.617
L131.13 116.171
L131.175 99.2694
L131.22 107.491
L131.398 131.057
L131.577 135.63
L131.621 135.738
L131.71 134.792
L131.844 129.455
L131.934 119.803
L132.023 105.938
L132.201 132.749
L132.38 137.005
L132.424 136.879
L132.514 135.16
L132.648 126.533
L132.737 96.3933
L132.781 114.87
L132.96 135.682
L133.094 138.416
L133.139 138.208
L133.228 135.935
L133.362 123.11
L133.406 105.07
L133.451 115.817
L133.629 137.944
L133.719 139.931
L133.763 139.886
L133.853 137.502
L133.942 129.944
L134.031 103.74
L134.21 139.818
L134.299 141.789
L134.343 141.423
L134.433 137.304
L134.567 115.373
L134.745 143.209
L134.79 143.888
L134.834 143.334
L134.924 136.935
L135.013 116.352
L135.191 146.342
L135.236 145.925
L135.325 136.466
L135.37 93.7283
L135.37 93.7283
L135.37 93.7283
L135.504 148.862
L135.548 149.445
L135.593 146.613
L135.682 134.68
L135.771 153.569
L135.816 152.208
L135.861 135.011
L135.861 135.011
L135.861 135.011
L135.95 160.385
L135.995 130.965
L136.173 219.601
L136.575 280.726
L137.2 341.324
L138.047 401.602
L138.581 433
M213.316 433
L213.957 363.419
L214.448 286.778
L214.716 214.883
L214.984 124.897
L215.073 150.407
L215.118 142.165
L215.162 128.569
L215.162 128.569
L215.162 128.569
L215.251 147.853
L215.296 143.908
L215.341 128.179
L215.385 134.272
L215.475 145.732
L215.519 143.525
L215.564 135.82
L215.608 100.548
L215.608 100.548
L215.608 100.548
L215.742 144.023
L215.832 137.469
L215.876 123.114
L215.921 125.881
L216.055 142.656
L216.144 137.352
L216.233 110.608
L216.278 132.278
L216.412 141.495
L216.501 136.27
L216.546 128.139
L216.59 82.0241
L216.59 82.0241
L216.59 82.0241
L216.724 139.314
L216.769 140.615
L216.813 140.299
L216.903 134.196
L216.992 96.3402
L217.037 127.377
L217.215 139.867
L217.304 135.79
L217.438 115.211
L217.617 139.219
L217.661 139.301
L217.751 135.665
L217.84 121.494
L217.884 102.312
L217.884 102.312
L217.884 102.312
L218.063 138.259
L218.108 138.954
L218.152 138.581
L218.241 134.202
L218.375 108.952
L218.42 126.146
L218.598 138.588
L218.643 138.365
L218.732 134.711
L218.822 122.455
L218.866 80.0342
L218.911 121.529
L219.089 138.032
L219.134 138.36
L219.223 136.254
L219.312 128.71
L219.402 98.3503
L219.446 123.096
L219.625 137.864
L219.669 138.184
L219.759 136.238
L219.848 129.355
L219.893 121.29
L219.937 78.7399
L219.982 120.411
L220.16 137.455
L220.205 138.055
L220.25 137.853
L220.339 134.837
L220.428 125.782
L220.517 110.723
L220.696 136.605
L220.785 138.023
L220.83 137.564
L220.919 133.993
L221.008 123.6
L221.053 105.943
L221.098 115.567
L221.276 136.825
L221.365 138.011
L221.41 137.477
L221.499 133.782
L221.588 123.168
L221.633 104.49
L221.678 115.995
L221.856 136.832
L221.945 138.069
L221.99 137.583
L222.079 134.071
L222.169 124.111
L222.213 108.496
L222.258 113.923
L222.436 136.708
L222.526 138.174
L222.57 137.812
L222.659 134.653
L222.749 125.719
L222.838 109.236
L223.016 136.498
L223.106 138.294
L223.15 138.09
L223.24 135.336
L223.329 127.414
L223.418 99.7754
L223.597 136.263
L223.686 138.418
L223.731 138.371
L223.82 135.987
L223.909 128.862
L223.954 120.625
L223.998 61.1522
L224.043 120.451
L224.221 137.748
L224.311 138.642
L224.4 136.521
L224.489 129.877
L224.534 122.408
L224.578 96.1579
L224.623 119.059
L224.802 137.88
L224.891 138.91
L224.98 136.877
L225.069 130.31
L225.159 97.425
L225.203 119.322
L225.382 138.219
L225.471 139.176
L225.56 136.975
L225.649 129.919
L225.694 121.618
L225.739 59.8922
L225.739 59.8922
L225.739 59.8922
L225.873 134.564
L226.006 139.494
L226.051 139.396
L226.14 136.649
L226.23 128.135
L226.319 109.946
L226.497 138.406
L226.587 139.898
L226.631 139.405
L226.72 135.499
L226.81 123.145
L226.854 74.9161
L226.899 122.712
L227.078 139.729
L227.122 140.284
L227.167 139.987
L227.256 136.46
L227.345 125.023
L227.39 97.7117
L227.435 122.068
L227.613 140.18
L227.658 140.718
L227.702 140.357
L227.792 136.471
L227.881 123.163
L227.925 95.3511
L227.925 95.3511
L227.925 95.3511
L228.059 137.409
L228.193 141.151
L228.282 138.482
L228.372 128.649
L228.416 111.384
L228.461 120.574
L228.639 141.254
L228.684 141.701
L228.684 141.701
L228.684 141.701
L228.773 139.376
L228.863 129.867
L228.907 113.447
L228.952 121.022
L229.13 141.94
L229.175 142.228
L229.264 139.23
L229.353 126.834
L229.398 87.2861
L229.398 87.2861
L229.398 87.2861
L229.532 139.927
L229.621 142.852
L229.666 142.422
L229.755 137.032
L229.8 129.801
L229.844 101.759
L229.889 127.195
L230.067 143.521
L230.112 142.938
L230.201 136.477
L230.291 110.557
L230.469 144.063
L230.514 144.056
L230.603 138.766
L230.648 130.742
L230.692 90.607
L230.692 90.607
L230.692 90.607
L230.826 143.344
L230.871 144.893
L230.915 144.737
L231.005 138.111
L231.094 121.598
L231.272 145.848
L231.362 140.303
L231.451 120.089
L231.585 146.466
L231.629 146.659
L231.719 138.541
L231.763 117.705
L231.808 133.814
L231.942 147.856
L232.031 139.918
L232.076 114.972
L232.12 137.039
L232.21 148.767
L232.254 148.589
L232.343 131.798
L232.388 133.726
L232.477 149.996
L232.522 149.824
L232.567 144.87
L232.611 121.801
L232.656 141.965
L232.745 151.842
L232.79 148.131
L232.834 128.843
L232.879 144.241
L232.968 153.06
L233.057 138.738
L233.147 155.17
L233.191 143.288
L233.236 149.631
L233.281 158.127
L233.325 150.486
L233.414 160.958
L233.459 142.847
L233.459 142.847
L233.459 142.847
L233.95 337.491
L234.44 433
M347.405 433
L347.748 192.884
L347.792 191.904
L347.837 186.15
L347.882 157.126
L347.882 157.126
L347.882 157.126
L347.971 188.236
L348.016 149.205
L348.06 187.267
L348.149 178.839
L348.194 187.03
L348.239 155.105
L348.328 167.308
L348.373 185.94
L348.462 184.949
L348.507 176.425
L348.596 176.72
L348.64 184.161
L348.64 184.161
L348.64 184.161
L348.685 175.886
L348.685 175.886
L348.685 175.886
L348.73 184.314
L348.73 184.314
L348.73 184.314
L348.774 174.066
L348.774 174.066
L348.774 174.066
L348.819 184.633
L348.819 184.633
L348.819 184.633
L348.864 171.131
L348.864 171.131
L348.864 171.131
L348.908 184.977
L348.908 184.977
L348.908 184.977
L348.953 166.652
L348.953 166.652
L348.953 166.652
L348.997 185.259
L348.997 185.259
L348.997 185.259
L349.042 159.486
L349.042 159.486
L349.042 159.486
L349.087 185.453
L349.131 144.681
L349.131 144.681
L349.131 144.681
L349.176 185.582
L349.176 185.582
L349.176 185.582
L349.221 140.171
L349.221 140.171
L349.221 140.171
L349.354 185.891
L349.399 144.664
L349.399 144.664
L349.399 144.664
L349.533 186.374
L349.578 167.024
L349.622 186.147
L349.667 177.299
L349.711 184.387
L349.756 184.213
L349.801 177.266
L349.845 188.052
L349.89 169.087
L349.935 186.302
L349.979 187.994
L350.024 160.977
L350.068 186.493
L350.113 191.088
L350.158 188.306
L350.247 160.189
L350.292 162.888
L350.47 271.231
L350.57 433
L350.57 433" style="fill:none;stroke:#00bfbf;stroke-linecap:square;"/>
   </g>
   <g id="matplotlib.axis_1">
    <g id="xtick_1">
     <g id="line2d_5">
      <path clip-path="url(#p7ff5b81e1d)" d="
M72 388.8
L72 43.2" style="fill:none;opacity:0.3;stroke:#808080;stroke-dasharray:1.000000,3.000000;stroke-dashoffset:0.0;stroke-width:0.5;"/>
     </g>
     <g id="line2d_6">
      <defs>
       <path d="
M0 0
L0 -4" id="m93b0483c22" style="stroke:#000000;stroke-width:0.5;"/>
      </defs>
      <g>
       <use style="stroke:#000000;stroke-width:0.5;" x="72.0" xlink:href="#m93b0483c22" y="388.8"/>
      </g>
     </g>
     <g id="line2d_7">
      <defs>
       <path d="
M0 0
L0 4" id="m741efc42ff" style="stroke:#000000;stroke-width:0.5;"/>
      </defs>
      <g>
       <use style="stroke:#000000;stroke-width:0.5;" x="72.0" xlink:href="#m741efc42ff" y="43.2"/>
      </g>
     </g>
     <g id="text_1">
      <!-- 0.0 -->
      <defs>
       <path d="
M31.7812 3.42188
Q39.2656 3.42188 42.9688 11.625
Q46.6875 19.8281 46.6875 36.375
Q46.6875 52.9844 42.9688 61.1875
Q39.2656 69.3906 31.7812 69.3906
Q24.3125 69.3906 20.5938 61.1875
Q16.8906 52.9844 16.8906 36.375
Q16.8906 19.8281 20.5938 11.625
Q24.3125 3.42188 31.7812 3.42188
M31.7812 -1.42188
Q19.9219 -1.42188 13.25 8.53125
Q6.59375 18.5 6.59375 36.375
Q6.59375 54.2969 13.25 64.25
Q19.9219 74.2188 31.7812 74.2188
Q43.7031 74.2188 50.3438 64.25
Q56.9844 54.2969 56.9844 36.375
Q56.9844 18.5 50.3438 8.53125
Q43.7031 -1.42188 31.7812 -1.42188" id="BitstreamVeraSerif-Roman-30"/>
       <path d="
M9.42188 5.07812
Q9.42188 7.8125 11.2812 9.71875
Q13.1406 11.625 15.9219 11.625
Q18.6094 11.625 20.5 9.71875
Q22.4062 7.8125 22.4062 5.07812
Q22.4062 2.39062 20.5 0.484375
Q18.6094 -1.42188 15.9219 -1.42188
Q13.1406 -1.42188 11.2812 0.453125
Q9.42188 2.34375 9.42188 5.07812" id="BitstreamVeraSerif-Roman-2e"/>
      </defs>
      <g transform="translate(60.33625 404.9575)scale(0.16 -0.16)">
       <use xlink:href="#BitstreamVeraSerif-Roman-30"/>
       <use x="63.623046875" xlink:href="#BitstreamVeraSerif-Roman-2e"/>
       <use x="95.41015625" xlink:href="#BitstreamVeraSerif-Roman-30"/>
      </g>
     </g>
    </g>
    <g id="xtick_2">
     <g id="line2d_8">
      <path clip-path="url(#p7ff5b81e1d)" d="
M161.28 388.8
L161.28 43.2" style="fill:none;opacity:0.3;stroke:#808080;stroke-dasharray:1.000000,3.000000;stroke-dashoffset:0.0;stroke-width:0.5;"/>
     </g>
     <g id="line2d_9">
      <g>
       <use style="stroke:#000000;stroke-width:0.5;" x="161.28" xlink:href="#m93b0483c22" y="388.8"/>
      </g>
     </g>
     <g id="line2d_10">
      <g>
       <use style="stroke:#000000;stroke-width:0.5;" x="161.28" xlink:href="#m741efc42ff" y="43.2"/>
      </g>
     </g>
     <g id="text_2">
      <!-- 0.5 -->
      <defs>
       <path d="
M50.2969 72.9062
L50.2969 64.8906
L16.8906 64.8906
L16.8906 44
Q19.4375 45.75 22.8281 46.625
Q26.2188 47.5156 30.4219 47.5156
Q42.2344 47.5156 49.0625 40.9688
Q55.9062 34.4219 55.9062 23.0938
Q55.9062 11.5312 49 5.04688
Q42.0938 -1.42188 29.5938 -1.42188
Q24.5625 -1.42188 19.2812 -0.1875
Q14.0156 1.03125 8.5 3.51562
L8.5 17.6719
L14.0156 17.6719
Q14.4531 10.75 18.4219 7.07812
Q22.4062 3.42188 29.5938 3.42188
Q37.3125 3.42188 41.4531 8.5
Q45.6094 13.5781 45.6094 23.0938
Q45.6094 32.5625 41.4844 37.6094
Q37.3594 42.6719 29.5938 42.6719
Q25.2031 42.6719 21.8438 41.1094
Q18.5 39.5469 15.9219 36.2812
L11.7188 36.2812
L11.7188 72.9062
z
" id="BitstreamVeraSerif-Roman-35"/>
      </defs>
      <g transform="translate(149.7025 404.9575)scale(0.16 -0.16)">
       <use xlink:href="#BitstreamVeraSerif-Roman-30"/>
       <use x="63.623046875" xlink:href="#BitstreamVeraSerif-Roman-2e"/>
       <use x="95.41015625" xlink:href="#BitstreamVeraSerif-Roman-35"/>
      </g>
     </g>
    </g>
    <g id="xtick_3">
     <g id="line2d_11">
      <path clip-path="url(#p7ff5b81e1d)" d="
M250.56 388.8
L250.56 43.2" style="fill:none;opacity:0.3;stroke:#808080;stroke-dasharray:1.000000,3.000000;stroke-dashoffset:0.0;stroke-width:0.5;"/>
     </g>
     <g id="line2d_12">
      <g>
       <use style="stroke:#000000;stroke-width:0.5;" x="250.56" xlink:href="#m93b0483c22" y="388.8"/>
      </g>
     </g>
     <g id="line2d_13">
      <g>
       <use style="stroke:#000000;stroke-width:0.5;" x="250.56" xlink:href="#m741efc42ff" y="43.2"/>
      </g>
     </g>
     <g id="text_3">
      <!-- 1.0 -->
      <defs>
       <path d="
M14.2031 0
L14.2031 5.17188
L26.9062 5.17188
L26.9062 65.8281
L12.2031 56.2969
L12.2031 62.7031
L29.9844 74.2188
L36.7188 74.2188
L36.7188 5.17188
L49.4219 5.17188
L49.4219 0
z
" id="BitstreamVeraSerif-Roman-31"/>
      </defs>
      <g transform="translate(239.345 404.9575)scale(0.16 -0.16)">
       <use xlink:href="#BitstreamVeraSerif-Roman-31"/>
       <use x="63.623046875" xlink:href="#BitstreamVeraSerif-Roman-2e"/>
       <use x="95.41015625" xlink:href="#BitstreamVeraSerif-Roman-30"/>
      </g>
     </g>
    </g>
    <g id="xtick_4">
     <g id="line2d_14">
      <path clip-path="url(#p7ff5b81e1d)" d="
M339.84 388.8
L339.84 43.2" style="fill:none;opacity:0.3;stroke:#808080;stroke-dasharray:1.000000,3.000000;stroke-dashoffset:0.0;stroke-width:0.5;"/>
     </g>
     <g id="line2d_15">
      <g>
       <use style="stroke:#000000;stroke-width:0.5;" x="339.84" xlink:href="#m93b0483c22" y="388.8"/>
      </g>
     </g>
     <g id="line2d_16">
      <g>
       <use style="stroke:#000000;stroke-width:0.5;" x="339.84" xlink:href="#m741efc42ff" y="43.2"/>
      </g>
     </g>
     <g id="text_4">
      <!-- 1.5 -->
      <g transform="translate(328.71125 404.9575)scale(0.16 -0.16)">
       <use xlink:href="#BitstreamVeraSerif-Roman-31"/>
       <use x="63.623046875" xlink:href="#BitstreamVeraSerif-Roman-2e"/>
       <use x="95.41015625" xlink:href="#BitstreamVeraSerif-Roman-35"/>
      </g>
     </g>
    </g>
    <g id="xtick_5">
     <g id="line2d_17">
      <path clip-path="url(#p7ff5b81e1d)" d="
M429.12 388.8
L429.12 43.2" style="fill:none;opacity:0.3;stroke:#808080;stroke-dasharray:1.000000,3.000000;stroke-dashoffset:0.0;stroke-width:0.5;"/>
     </g>
     <g id="line2d_18">
      <g>
       <use style="stroke:#000000;stroke-width:0.5;" x="429.12" xlink:href="#m93b0483c22" y="388.8"/>
      </g>
     </g>
     <g id="line2d_19">
      <g>
       <use style="stroke:#000000;stroke-width:0.5;" x="429.12" xlink:href="#m741efc42ff" y="43.2"/>
      </g>
     </g>
     <g id="text_5">
      <!-- 2.0 -->
      <defs>
       <path d="
M12.7969 55.5156
L7.32812 55.5156
L7.32812 68.5
Q12.5469 71.2969 17.8438 72.75
Q23.1406 74.2188 28.2188 74.2188
Q39.5938 74.2188 46.1875 68.7031
Q52.7812 63.1875 52.7812 53.7188
Q52.7812 43.0156 37.8438 28.125
Q36.6719 27 36.0781 26.4219
L17.6719 8.01562
L48.0938 8.01562
L48.0938 17
L53.8125 17
L53.8125 0
L6.78125 0
L6.78125 5.32812
L28.9062 27.3906
Q36.2344 34.7188 39.3594 40.8438
Q42.4844 46.9688 42.4844 53.7188
Q42.4844 61.0781 38.6406 65.2344
Q34.8125 69.3906 28.0781 69.3906
Q21.0938 69.3906 17.2812 65.9219
Q13.4844 62.4531 12.7969 55.5156" id="BitstreamVeraSerif-Roman-32"/>
      </defs>
      <g transform="translate(417.47125 404.9575)scale(0.16 -0.16)">
       <use xlink:href="#BitstreamVeraSerif-Roman-32"/>
       <use x="63.623046875" xlink:href="#BitstreamVeraSerif-Roman-2e"/>
       <use x="95.41015625" xlink:href="#BitstreamVeraSerif-Roman-30"/>
      </g>
     </g>
    </g>
    <g id="xtick_6">
     <g id="line2d_20">
      <path clip-path="url(#p7ff5b81e1d)" d="
M518.4 388.8
L518.4 43.2" style="fill:none;opacity:0.3;stroke:#808080;stroke-dasharray:1.000000,3.000000;stroke-dashoffset:0.0;stroke-width:0.5;"/>
     </g>
     <g id="line2d_21">
      <g>
       <use style="stroke:#000000;stroke-width:0.5;" x="518.4" xlink:href="#m93b0483c22" y="388.8"/>
      </g>
     </g>
     <g id="line2d_22">
      <g>
       <use style="stroke:#000000;stroke-width:0.5;" x="518.4" xlink:href="#m741efc42ff" y="43.2"/>
      </g>
     </g>
     <g id="text_6">
      <!-- 2.5 -->
      <g transform="translate(506.8375 404.9575)scale(0.16 -0.16)">
       <use xlink:href="#BitstreamVeraSerif-Roman-32"/>
       <use x="63.623046875" xlink:href="#BitstreamVeraSerif-Roman-2e"/>
       <use x="95.41015625" xlink:href="#BitstreamVeraSerif-Roman-35"/>
      </g>
     </g>
    </g>
    <g id="text_7">
     <!-- $\Omega$ -->
     <defs>
      <path d="
M7.71875 0
L4.39062 16.6094
L7.32812 16.6094
Q7.85938 13.7188 8.29688 11.5
Q8.73438 9.28125 9.4375 8.375
Q10.1562 7.46875 11.7188 7.17188
Q13.2812 6.89062 16.8906 6.89062
L23 6.89062
Q21.5312 12.5469 15.6875 21.6562
Q9.85938 30.7656 7.73438 34.8906
Q5.60938 39.0156 5.60938 45.5156
Q5.60938 53.0781 10.0938 58.7656
Q14.5938 64.4531 21.7031 67.4844
Q28.8125 70.5156 36.0781 70.5156
Q43.3125 70.5156 50.4062 67.4844
Q57.5156 64.4531 62 58.7188
Q66.5 52.9844 66.5 45.5156
Q66.5 40.4375 64.6406 35.9375
Q62.7969 31.4531 59.9062 26.9531
Q57.0312 22.4688 53.6875 16.9375
Q50.3438 11.4219 49.125 6.89062
L55.1719 6.89062
Q58.8438 6.89062 60.4531 7.17188
Q62.0625 7.46875 62.7344 8.375
Q63.4219 9.28125 63.8438 11.5
Q64.2656 13.7188 64.7969 16.6094
L67.6719 16.6094
L64.4062 0
L46.6875 0
Q45.7031 0 45.7031 1.3125
Q45.7031 6.39062 46.9375 11.2656
Q48.1875 16.1562 50.625 23.0938
Q53.0781 30.0312 54.4375 35.3281
Q55.8125 40.625 55.8125 45.5156
Q55.8125 51.5156 53.4688 56.6406
Q51.125 61.7656 46.625 64.8438
Q42.1406 67.9219 36.0781 67.9219
Q26.9531 67.9219 21.625 61.4062
Q16.3125 54.8906 16.3125 45.5156
Q16.3594 40.375 17.5312 35.8281
Q18.7031 31.2969 21.3125 23.7188
Q23.9219 16.1562 25.1719 11.2656
Q26.4219 6.39062 26.4219 1.3125
Q26.4219 0 25.3906 0
z
" id="Cmr10-ad"/>
     </defs>
     <g transform="translate(288.63 426.9621875)scale(0.18 -0.18)">
      <use transform="translate(0.0 0.484375)" xlink:href="#Cmr10-ad"/>
     </g>
    </g>
   </g>
   <g id="matplotlib.axis_2">
    <g id="ytick_1">
     <g id="line2d_23">
      <path clip-path="url(#p7ff5b81e1d)" d="
M72 388.8
L518.4 388.8" style="fill:none;opacity:0.3;stroke:#808080;stroke-dasharray:1.000000,3.000000;stroke-dashoffset:0.0;stroke-width:0.5;"/>
     </g>
     <g id="line2d_24">
      <defs>
       <path d="
M0 0
L4 0" id="m728421d6d4" style="stroke:#000000;stroke-width:0.5;"/>
      </defs>
      <g>
       <use style="stroke:#000000;stroke-width:0.5;" x="72.0" xlink:href="#m728421d6d4" y="388.8"/>
      </g>
     </g>
     <g id="line2d_25">
      <defs>
       <path d="
M0 0
L-4 0" id="mcb0005524f" style="stroke:#000000;stroke-width:0.5;"/>
      </defs>
      <g>
       <use style="stroke:#000000;stroke-width:0.5;" x="518.4" xlink:href="#mcb0005524f" y="388.8"/>
      </g>
     </g>
     <g id="text_8">
      <!-- $\mathdefault{10^{-9}}$ -->
      <defs>
       <path d="
M46.7812 32.6719
Q43.5 29 39.25 27.1875
Q35.0156 25.3906 29.6875 25.3906
Q18.8438 25.3906 12.5625 31.9375
Q6.29688 38.4844 6.29688 49.8125
Q6.29688 60.8906 13.1094 67.5469
Q19.9219 74.2188 31.2969 74.2188
Q43.6562 74.2188 50.2656 65.0156
Q56.8906 55.8125 56.8906 38.7188
Q56.8906 19.5781 49.0156 9.07812
Q41.1562 -1.42188 26.9062 -1.42188
Q23.0469 -1.42188 18.7969 -0.6875
Q14.5469 0.046875 10.1094 1.51562
L10.1094 13.625
L15.5781 13.625
Q16.2188 8.6875 19.3906 6.04688
Q22.5625 3.42188 27.875 3.42188
Q37.3594 3.42188 41.9844 10.5625
Q46.625 17.7188 46.7812 32.6719
M30.9062 69.3906
Q23.9688 69.3906 20.2812 64.3281
Q16.6094 59.2812 16.6094 49.8125
Q16.6094 40.3281 20.2812 35.25
Q23.9688 30.1719 30.9062 30.1719
Q37.8438 30.1719 41.5312 35.0781
Q45.2188 39.9844 45.2188 49.2188
Q45.2188 58.9375 41.5 64.1562
Q37.7969 69.3906 30.9062 69.3906" id="BitstreamVeraSerif-Roman-39"/>
       <path d="
M4.39062 30.6094
L29.3906 30.6094
L29.3906 23
L4.39062 23
z
" id="BitstreamVeraSerif-Roman-2d"/>
      </defs>
      <g transform="translate(33.44 393.7925)scale(0.16 -0.16)">
       <use transform="translate(0.0 0.21875)" xlink:href="#BitstreamVeraSerif-Roman-31"/>
       <use transform="translate(63.623046875 0.21875)" xlink:href="#BitstreamVeraSerif-Roman-30"/>
       <use transform="translate(127.24609375 50.046875)scale(0.7)" xlink:href="#BitstreamVeraSerif-Roman-2d"/>
       <use transform="translate(150.8984375 50.046875)scale(0.7)" xlink:href="#BitstreamVeraSerif-Roman-39"/>
      </g>
     </g>
    </g>
    <g id="ytick_2">
     <g id="line2d_26">
      <path clip-path="url(#p7ff5b81e1d)" d="
M72 302.4
L518.4 302.4" style="fill:none;opacity:0.3;stroke:#808080;stroke-dasharray:1.000000,3.000000;stroke-dashoffset:0.0;stroke-width:0.5;"/>
     </g>
     <g id="line2d_27">
      <g>
       <use style="stroke:#000000;stroke-width:0.5;" x="72.0" xlink:href="#m728421d6d4" y="302.4"/>
      </g>
     </g>
     <g id="line2d_28">
      <g>
       <use style="stroke:#000000;stroke-width:0.5;" x="518.4" xlink:href="#mcb0005524f" y="302.4"/>
      </g>
     </g>
     <g id="text_9">
      <!-- $\mathdefault{10^{-6}}$ -->
      <defs>
       <path d="
M32.7188 3.42188
Q39.5938 3.42188 43.2969 8.46875
Q47.0156 13.5312 47.0156 23
Q47.0156 32.4688 43.2969 37.5156
Q39.5938 42.5781 32.7188 42.5781
Q25.7344 42.5781 22.0625 37.6875
Q18.4062 32.8125 18.4062 23.5781
Q18.4062 13.875 22.1094 8.64062
Q25.8281 3.42188 32.7188 3.42188
M16.7969 40.1406
Q20.125 43.7969 24.3125 45.5938
Q28.5156 47.4062 33.7969 47.4062
Q44.6719 47.4062 51 40.8594
Q57.3281 34.3281 57.3281 23
Q57.3281 11.9219 50.5156 5.25
Q43.7031 -1.42188 32.3281 -1.42188
Q19.9688 -1.42188 13.3281 7.78125
Q6.6875 17 6.6875 34.0781
Q6.6875 53.2188 14.5469 63.7188
Q22.4062 74.2188 36.7188 74.2188
Q40.5781 74.2188 44.8281 73.4844
Q49.0781 72.75 53.5156 71.2969
L53.5156 59.2812
L48 59.2812
Q47.4062 64.2031 44.2344 66.7969
Q41.0625 69.3906 35.6875 69.3906
Q26.2188 69.3906 21.5781 62.2031
Q16.9375 55.0312 16.7969 40.1406" id="BitstreamVeraSerif-Roman-36"/>
      </defs>
      <g transform="translate(33.44 307.3925)scale(0.16 -0.16)">
       <use transform="translate(0.0 0.21875)" xlink:href="#BitstreamVeraSerif-Roman-31"/>
       <use transform="translate(63.623046875 0.21875)" xlink:href="#BitstreamVeraSerif-Roman-30"/>
       <use transform="translate(127.24609375 50.046875)scale(0.7)" xlink:href="#BitstreamVeraSerif-Roman-2d"/>
       <use transform="translate(150.8984375 50.046875)scale(0.7)" xlink:href="#BitstreamVeraSerif-Roman-36"/>
      </g>
     </g>
    </g>
    <g id="ytick_3">
     <g id="line2d_29">
      <path clip-path="url(#p7ff5b81e1d)" d="
M72 216
L518.4 216" style="fill:none;opacity:0.3;stroke:#808080;stroke-dasharray:1.000000,3.000000;stroke-dashoffset:0.0;stroke-width:0.5;"/>
     </g>
     <g id="line2d_30">
      <g>
       <use style="stroke:#000000;stroke-width:0.5;" x="72.0" xlink:href="#m728421d6d4" y="216.0"/>
      </g>
     </g>
     <g id="line2d_31">
      <g>
       <use style="stroke:#000000;stroke-width:0.5;" x="518.4" xlink:href="#mcb0005524f" y="216.0"/>
      </g>
     </g>
     <g id="text_10">
      <!-- $\mathdefault{10^{-3}}$ -->
      <defs>
       <path d="
M9.71875 69.8281
Q15.4375 71.9688 20.6719 73.0938
Q25.9219 74.2188 30.5156 74.2188
Q41.2188 74.2188 47.2188 69.5938
Q53.2188 64.9844 53.2188 56.7812
Q53.2188 50.2031 49.0625 45.7812
Q44.9219 41.3594 37.3125 39.7969
Q46.2969 38.5312 51.25 33.2812
Q56.2031 28.0312 56.2031 19.6719
Q56.2031 9.46875 49.3438 4.01562
Q42.4844 -1.42188 29.5938 -1.42188
Q23.875 -1.42188 18.4219 -0.1875
Q12.9844 1.03125 7.625 3.51562
L7.625 17.6719
L13.0938 17.6719
Q13.5781 10.6406 17.8281 7.03125
Q22.0781 3.42188 29.7812 3.42188
Q37.25 3.42188 41.5781 7.73438
Q45.9062 12.0625 45.9062 19.5781
Q45.9062 28.1719 41.4531 32.5938
Q37.0156 37.0156 28.4219 37.0156
L23.7812 37.0156
L23.7812 42
L26.2188 42
Q34.7656 42 39.0312 45.5312
Q43.3125 49.0781 43.3125 56.2031
Q43.3125 62.5938 39.7969 65.9844
Q36.2812 69.3906 29.6875 69.3906
Q23.0938 69.3906 19.4531 66.2656
Q15.8281 63.1406 15.1875 56.9844
L9.71875 56.9844
z
" id="BitstreamVeraSerif-Roman-33"/>
      </defs>
      <g transform="translate(33.44 220.9925)scale(0.16 -0.16)">
       <use transform="translate(0.0 0.21875)" xlink:href="#BitstreamVeraSerif-Roman-31"/>
       <use transform="translate(63.623046875 0.21875)" xlink:href="#BitstreamVeraSerif-Roman-30"/>
       <use transform="translate(127.24609375 50.046875)scale(0.7)" xlink:href="#BitstreamVeraSerif-Roman-2d"/>
       <use transform="translate(150.8984375 50.046875)scale(0.7)" xlink:href="#BitstreamVeraSerif-Roman-33"/>
      </g>
     </g>
    </g>
    <g id="ytick_4">
     <g id="line2d_32">
      <path clip-path="url(#p7ff5b81e1d)" d="
M72 129.6
L518.4 129.6" style="fill:none;opacity:0.3;stroke:#808080;stroke-dasharray:1.000000,3.000000;stroke-dashoffset:0.0;stroke-width:0.5;"/>
     </g>
     <g id="line2d_33">
      <g>
       <use style="stroke:#000000;stroke-width:0.5;" x="72.0" xlink:href="#m728421d6d4" y="129.6"/>
      </g>
     </g>
     <g id="line2d_34">
      <g>
       <use style="stroke:#000000;stroke-width:0.5;" x="518.4" xlink:href="#mcb0005524f" y="129.6"/>
      </g>
     </g>
     <g id="text_11">
      <!-- $\mathdefault{10^{0}}$ -->
      <g transform="translate(37.28 134.5925)scale(0.16 -0.16)">
       <use transform="translate(0.0 0.21875)" xlink:href="#BitstreamVeraSerif-Roman-31"/>
       <use transform="translate(63.623046875 0.21875)" xlink:href="#BitstreamVeraSerif-Roman-30"/>
       <use transform="translate(127.24609375 50.046875)scale(0.7)" xlink:href="#BitstreamVeraSerif-Roman-30"/>
      </g>
     </g>
    </g>
    <g id="ytick_5">
     <g id="line2d_35">
      <path clip-path="url(#p7ff5b81e1d)" d="
M72 43.2
L518.4 43.2" style="fill:none;opacity:0.3;stroke:#808080;stroke-dasharray:1.000000,3.000000;stroke-dashoffset:0.0;stroke-width:0.5;"/>
     </g>
     <g id="line2d_36">
      <g>
       <use style="stroke:#000000;stroke-width:0.5;" x="72.0" xlink:href="#m728421d6d4" y="43.2"/>
      </g>
     </g>
     <g id="line2d_37">
      <g>
       <use style="stroke:#000000;stroke-width:0.5;" x="518.4" xlink:href="#mcb0005524f" y="43.2"/>
      </g>
     </g>
     <g id="text_12">
      <!-- $\mathdefault{10^{3}}$ -->
      <g transform="translate(37.28 48.1925)scale(0.16 -0.16)">
       <use transform="translate(0.0 0.21875)" xlink:href="#BitstreamVeraSerif-Roman-31"/>
       <use transform="translate(63.623046875 0.21875)" xlink:href="#BitstreamVeraSerif-Roman-30"/>
       <use transform="translate(127.24609375 50.046875)scale(0.7)" xlink:href="#BitstreamVeraSerif-Roman-33"/>
      </g>
     </g>
    </g>
    <g id="ytick_6">
     <g id="line2d_38">
      <defs>
       <path d="
M0 0
L2 0" id="mf0c55a9a47" style="stroke:#000000;stroke-width:0.5;"/>
      </defs>
      <g>
       <use style="stroke:#000000;stroke-width:0.5;" x="72.0" xlink:href="#mf0c55a9a47" y="380.130336125"/>
      </g>
     </g>
     <g id="line2d_39">
      <defs>
       <path d="
M0 0
L-2 0" id="ma4f294b3af" style="stroke:#000000;stroke-width:0.5;"/>
      </defs>
      <g>
       <use style="stroke:#000000;stroke-width:0.5;" x="518.4" xlink:href="#ma4f294b3af" y="380.130336125"/>
      </g>
     </g>
    </g>
    <g id="ytick_7">
     <g id="line2d_40">
      <g>
       <use style="stroke:#000000;stroke-width:0.5;" x="72.0" xlink:href="#mf0c55a9a47" y="371.46067225"/>
      </g>
     </g>
     <g id="line2d_41">
      <g>
       <use style="stroke:#000000;stroke-width:0.5;" x="518.4" xlink:href="#ma4f294b3af" y="371.46067225"/>
      </g>
     </g>
    </g>
    <g id="ytick_8">
     <g id="line2d_42">
      <g>
       <use style="stroke:#000000;stroke-width:0.5;" x="72.0" xlink:href="#mf0c55a9a47" y="366.389243989"/>
      </g>
     </g>
     <g id="line2d_43">
      <g>
       <use style="stroke:#000000;stroke-width:0.5;" x="518.4" xlink:href="#ma4f294b3af" y="366.389243989"/>
      </g>
     </g>
    </g>
    <g id="ytick_9">
     <g id="line2d_44">
      <g>
       <use style="stroke:#000000;stroke-width:0.5;" x="72.0" xlink:href="#mf0c55a9a47" y="362.791008375"/>
      </g>
     </g>
     <g id="line2d_45">
      <g>
       <use style="stroke:#000000;stroke-width:0.5;" x="518.4" xlink:href="#ma4f294b3af" y="362.791008375"/>
      </g>
     </g>
    </g>
    <g id="ytick_10">
     <g id="line2d_46">
      <g>
       <use style="stroke:#000000;stroke-width:0.5;" x="72.0" xlink:href="#mf0c55a9a47" y="351.330336125"/>
      </g>
     </g>
     <g id="line2d_47">
      <g>
       <use style="stroke:#000000;stroke-width:0.5;" x="518.4" xlink:href="#ma4f294b3af" y="351.330336125"/>
      </g>
     </g>
    </g>
    <g id="ytick_11">
     <g id="line2d_48">
      <g>
       <use style="stroke:#000000;stroke-width:0.5;" x="72.0" xlink:href="#mf0c55a9a47" y="342.66067225"/>
      </g>
     </g>
     <g id="line2d_49">
      <g>
       <use style="stroke:#000000;stroke-width:0.5;" x="518.4" xlink:href="#ma4f294b3af" y="342.66067225"/>
      </g>
     </g>
    </g>
    <g id="ytick_12">
     <g id="line2d_50">
      <g>
       <use style="stroke:#000000;stroke-width:0.5;" x="72.0" xlink:href="#mf0c55a9a47" y="337.589243989"/>
      </g>
     </g>
     <g id="line2d_51">
      <g>
       <use style="stroke:#000000;stroke-width:0.5;" x="518.4" xlink:href="#ma4f294b3af" y="337.589243989"/>
      </g>
     </g>
    </g>
    <g id="ytick_13">
     <g id="line2d_52">
      <g>
       <use style="stroke:#000000;stroke-width:0.5;" x="72.0" xlink:href="#mf0c55a9a47" y="333.991008375"/>
      </g>
     </g>
     <g id="line2d_53">
      <g>
       <use style="stroke:#000000;stroke-width:0.5;" x="518.4" xlink:href="#ma4f294b3af" y="333.991008375"/>
      </g>
     </g>
    </g>
    <g id="ytick_14">
     <g id="line2d_54">
      <g>
       <use style="stroke:#000000;stroke-width:0.5;" x="72.0" xlink:href="#mf0c55a9a47" y="322.530336125"/>
      </g>
     </g>
     <g id="line2d_55">
      <g>
       <use style="stroke:#000000;stroke-width:0.5;" x="518.4" xlink:href="#ma4f294b3af" y="322.530336125"/>
      </g>
     </g>
    </g>
    <g id="ytick_15">
     <g id="line2d_56">
      <g>
       <use style="stroke:#000000;stroke-width:0.5;" x="72.0" xlink:href="#mf0c55a9a47" y="313.86067225"/>
      </g>
     </g>
     <g id="line2d_57">
      <g>
       <use style="stroke:#000000;stroke-width:0.5;" x="518.4" xlink:href="#ma4f294b3af" y="313.86067225"/>
      </g>
     </g>
    </g>
    <g id="ytick_16">
     <g id="line2d_58">
      <g>
       <use style="stroke:#000000;stroke-width:0.5;" x="72.0" xlink:href="#mf0c55a9a47" y="308.789243989"/>
      </g>
     </g>
     <g id="line2d_59">
      <g>
       <use style="stroke:#000000;stroke-width:0.5;" x="518.4" xlink:href="#ma4f294b3af" y="308.789243989"/>
      </g>
     </g>
    </g>
    <g id="ytick_17">
     <g id="line2d_60">
      <g>
       <use style="stroke:#000000;stroke-width:0.5;" x="72.0" xlink:href="#mf0c55a9a47" y="305.191008375"/>
      </g>
     </g>
     <g id="line2d_61">
      <g>
       <use style="stroke:#000000;stroke-width:0.5;" x="518.4" xlink:href="#ma4f294b3af" y="305.191008375"/>
      </g>
     </g>
    </g>
    <g id="ytick_18">
     <g id="line2d_62">
      <g>
       <use style="stroke:#000000;stroke-width:0.5;" x="72.0" xlink:href="#mf0c55a9a47" y="293.730336125"/>
      </g>
     </g>
     <g id="line2d_63">
      <g>
       <use style="stroke:#000000;stroke-width:0.5;" x="518.4" xlink:href="#ma4f294b3af" y="293.730336125"/>
      </g>
     </g>
    </g>
    <g id="ytick_19">
     <g id="line2d_64">
      <g>
       <use style="stroke:#000000;stroke-width:0.5;" x="72.0" xlink:href="#mf0c55a9a47" y="285.06067225"/>
      </g>
     </g>
     <g id="line2d_65">
      <g>
       <use style="stroke:#000000;stroke-width:0.5;" x="518.4" xlink:href="#ma4f294b3af" y="285.06067225"/>
      </g>
     </g>
    </g>
    <g id="ytick_20">
     <g id="line2d_66">
      <g>
       <use style="stroke:#000000;stroke-width:0.5;" x="72.0" xlink:href="#mf0c55a9a47" y="279.989243989"/>
      </g>
     </g>
     <g id="line2d_67">
      <g>
       <use style="stroke:#000000;stroke-width:0.5;" x="518.4" xlink:href="#ma4f294b3af" y="279.989243989"/>
      </g>
     </g>
    </g>
    <g id="ytick_21">
     <g id="line2d_68">
      <g>
       <use style="stroke:#000000;stroke-width:0.5;" x="72.0" xlink:href="#mf0c55a9a47" y="276.391008375"/>
      </g>
     </g>
     <g id="line2d_69">
      <g>
       <use style="stroke:#000000;stroke-width:0.5;" x="518.4" xlink:href="#ma4f294b3af" y="276.391008375"/>
      </g>
     </g>
    </g>
    <g id="ytick_22">
     <g id="line2d_70">
      <g>
       <use style="stroke:#000000;stroke-width:0.5;" x="72.0" xlink:href="#mf0c55a9a47" y="264.930336125"/>
      </g>
     </g>
     <g id="line2d_71">
      <g>
       <use style="stroke:#000000;stroke-width:0.5;" x="518.4" xlink:href="#ma4f294b3af" y="264.930336125"/>
      </g>
     </g>
    </g>
    <g id="ytick_23">
     <g id="line2d_72">
      <g>
       <use style="stroke:#000000;stroke-width:0.5;" x="72.0" xlink:href="#mf0c55a9a47" y="256.26067225"/>
      </g>
     </g>
     <g id="line2d_73">
      <g>
       <use style="stroke:#000000;stroke-width:0.5;" x="518.4" xlink:href="#ma4f294b3af" y="256.26067225"/>
      </g>
     </g>
    </g>
    <g id="ytick_24">
     <g id="line2d_74">
      <g>
       <use style="stroke:#000000;stroke-width:0.5;" x="72.0" xlink:href="#mf0c55a9a47" y="251.189243989"/>
      </g>
     </g>
     <g id="line2d_75">
      <g>
       <use style="stroke:#000000;stroke-width:0.5;" x="518.4" xlink:href="#ma4f294b3af" y="251.189243989"/>
      </g>
     </g>
    </g>
    <g id="ytick_25">
     <g id="line2d_76">
      <g>
       <use style="stroke:#000000;stroke-width:0.5;" x="72.0" xlink:href="#mf0c55a9a47" y="247.591008375"/>
      </g>
     </g>
     <g id="line2d_77">
      <g>
       <use style="stroke:#000000;stroke-width:0.5;" x="518.4" xlink:href="#ma4f294b3af" y="247.591008375"/>
      </g>
     </g>
    </g>
    <g id="ytick_26">
     <g id="line2d_78">
      <g>
       <use style="stroke:#000000;stroke-width:0.5;" x="72.0" xlink:href="#mf0c55a9a47" y="236.130336125"/>
      </g>
     </g>
     <g id="line2d_79">
      <g>
       <use style="stroke:#000000;stroke-width:0.5;" x="518.4" xlink:href="#ma4f294b3af" y="236.130336125"/>
      </g>
     </g>
    </g>
    <g id="ytick_27">
     <g id="line2d_80">
      <g>
       <use style="stroke:#000000;stroke-width:0.5;" x="72.0" xlink:href="#mf0c55a9a47" y="227.46067225"/>
      </g>
     </g>
     <g id="line2d_81">
      <g>
       <use style="stroke:#000000;stroke-width:0.5;" x="518.4" xlink:href="#ma4f294b3af" y="227.46067225"/>
      </g>
     </g>
    </g>
    <g id="ytick_28">
     <g id="line2d_82">
      <g>
       <use style="stroke:#000000;stroke-width:0.5;" x="72.0" xlink:href="#mf0c55a9a47" y="222.389243989"/>
      </g>
     </g>
     <g id="line2d_83">
      <g>
       <use style="stroke:#000000;stroke-width:0.5;" x="518.4" xlink:href="#ma4f294b3af" y="222.389243989"/>
      </g>
     </g>
    </g>
    <g id="ytick_29">
     <g id="line2d_84">
      <g>
       <use style="stroke:#000000;stroke-width:0.5;" x="72.0" xlink:href="#mf0c55a9a47" y="218.791008375"/>
      </g>
     </g>
     <g id="line2d_85">
      <g>
       <use style="stroke:#000000;stroke-width:0.5;" x="518.4" xlink:href="#ma4f294b3af" y="218.791008375"/>
      </g>
     </g>
    </g>
    <g id="ytick_30">
     <g id="line2d_86">
      <g>
       <use style="stroke:#000000;stroke-width:0.5;" x="72.0" xlink:href="#mf0c55a9a47" y="207.330336125"/>
      </g>
     </g>
     <g id="line2d_87">
      <g>
       <use style="stroke:#000000;stroke-width:0.5;" x="518.4" xlink:href="#ma4f294b3af" y="207.330336125"/>
      </g>
     </g>
    </g>
    <g id="ytick_31">
     <g id="line2d_88">
      <g>
       <use style="stroke:#000000;stroke-width:0.5;" x="72.0" xlink:href="#mf0c55a9a47" y="198.66067225"/>
      </g>
     </g>
     <g id="line2d_89">
      <g>
       <use style="stroke:#000000;stroke-width:0.5;" x="518.4" xlink:href="#ma4f294b3af" y="198.66067225"/>
      </g>
     </g>
    </g>
    <g id="ytick_32">
     <g id="line2d_90">
      <g>
       <use style="stroke:#000000;stroke-width:0.5;" x="72.0" xlink:href="#mf0c55a9a47" y="193.589243989"/>
      </g>
     </g>
     <g id="line2d_91">
      <g>
       <use style="stroke:#000000;stroke-width:0.5;" x="518.4" xlink:href="#ma4f294b3af" y="193.589243989"/>
      </g>
     </g>
    </g>
    <g id="ytick_33">
     <g id="line2d_92">
      <g>
       <use style="stroke:#000000;stroke-width:0.5;" x="72.0" xlink:href="#mf0c55a9a47" y="189.991008375"/>
      </g>
     </g>
     <g id="line2d_93">
      <g>
       <use style="stroke:#000000;stroke-width:0.5;" x="518.4" xlink:href="#ma4f294b3af" y="189.991008375"/>
      </g>
     </g>
    </g>
    <g id="ytick_34">
     <g id="line2d_94">
      <g>
       <use style="stroke:#000000;stroke-width:0.5;" x="72.0" xlink:href="#mf0c55a9a47" y="178.530336125"/>
      </g>
     </g>
     <g id="line2d_95">
      <g>
       <use style="stroke:#000000;stroke-width:0.5;" x="518.4" xlink:href="#ma4f294b3af" y="178.530336125"/>
      </g>
     </g>
    </g>
    <g id="ytick_35">
     <g id="line2d_96">
      <g>
       <use style="stroke:#000000;stroke-width:0.5;" x="72.0" xlink:href="#mf0c55a9a47" y="169.86067225"/>
      </g>
     </g>
     <g id="line2d_97">
      <g>
       <use style="stroke:#000000;stroke-width:0.5;" x="518.4" xlink:href="#ma4f294b3af" y="169.86067225"/>
      </g>
     </g>
    </g>
    <g id="ytick_36">
     <g id="line2d_98">
      <g>
       <use style="stroke:#000000;stroke-width:0.5;" x="72.0" xlink:href="#mf0c55a9a47" y="164.789243989"/>
      </g>
     </g>
     <g id="line2d_99">
      <g>
       <use style="stroke:#000000;stroke-width:0.5;" x="518.4" xlink:href="#ma4f294b3af" y="164.789243989"/>
      </g>
     </g>
    </g>
    <g id="ytick_37">
     <g id="line2d_100">
      <g>
       <use style="stroke:#000000;stroke-width:0.5;" x="72.0" xlink:href="#mf0c55a9a47" y="161.191008375"/>
      </g>
     </g>
     <g id="line2d_101">
      <g>
       <use style="stroke:#000000;stroke-width:0.5;" x="518.4" xlink:href="#ma4f294b3af" y="161.191008375"/>
      </g>
     </g>
    </g>
    <g id="ytick_38">
     <g id="line2d_102">
      <g>
       <use style="stroke:#000000;stroke-width:0.5;" x="72.0" xlink:href="#mf0c55a9a47" y="149.730336125"/>
      </g>
     </g>
     <g id="line2d_103">
      <g>
       <use style="stroke:#000000;stroke-width:0.5;" x="518.4" xlink:href="#ma4f294b3af" y="149.730336125"/>
      </g>
     </g>
    </g>
    <g id="ytick_39">
     <g id="line2d_104">
      <g>
       <use style="stroke:#000000;stroke-width:0.5;" x="72.0" xlink:href="#mf0c55a9a47" y="141.06067225"/>
      </g>
     </g>
     <g id="line2d_105">
      <g>
       <use style="stroke:#000000;stroke-width:0.5;" x="518.4" xlink:href="#ma4f294b3af" y="141.06067225"/>
      </g>
     </g>
    </g>
    <g id="ytick_40">
     <g id="line2d_106">
      <g>
       <use style="stroke:#000000;stroke-width:0.5;" x="72.0" xlink:href="#mf0c55a9a47" y="135.989243989"/>
      </g>
     </g>
     <g id="line2d_107">
      <g>
       <use style="stroke:#000000;stroke-width:0.5;" x="518.4" xlink:href="#ma4f294b3af" y="135.989243989"/>
      </g>
     </g>
    </g>
    <g id="ytick_41">
     <g id="line2d_108">
      <g>
       <use style="stroke:#000000;stroke-width:0.5;" x="72.0" xlink:href="#mf0c55a9a47" y="132.391008375"/>
      </g>
     </g>
     <g id="line2d_109">
      <g>
       <use style="stroke:#000000;stroke-width:0.5;" x="518.4" xlink:href="#ma4f294b3af" y="132.391008375"/>
      </g>
     </g>
    </g>
    <g id="ytick_42">
     <g id="line2d_110">
      <g>
       <use style="stroke:#000000;stroke-width:0.5;" x="72.0" xlink:href="#mf0c55a9a47" y="120.930336125"/>
      </g>
     </g>
     <g id="line2d_111">
      <g>
       <use style="stroke:#000000;stroke-width:0.5;" x="518.4" xlink:href="#ma4f294b3af" y="120.930336125"/>
      </g>
     </g>
    </g>
    <g id="ytick_43">
     <g id="line2d_112">
      <g>
       <use style="stroke:#000000;stroke-width:0.5;" x="72.0" xlink:href="#mf0c55a9a47" y="112.26067225"/>
      </g>
     </g>
     <g id="line2d_113">
      <g>
       <use style="stroke:#000000;stroke-width:0.5;" x="518.4" xlink:href="#ma4f294b3af" y="112.26067225"/>
      </g>
     </g>
    </g>
    <g id="ytick_44">
     <g id="line2d_114">
      <g>
       <use style="stroke:#000000;stroke-width:0.5;" x="72.0" xlink:href="#mf0c55a9a47" y="107.189243989"/>
      </g>
     </g>
     <g id="line2d_115">
      <g>
       <use style="stroke:#000000;stroke-width:0.5;" x="518.4" xlink:href="#ma4f294b3af" y="107.189243989"/>
      </g>
     </g>
    </g>
    <g id="ytick_45">
     <g id="line2d_116">
      <g>
       <use style="stroke:#000000;stroke-width:0.5;" x="72.0" xlink:href="#mf0c55a9a47" y="103.591008375"/>
      </g>
     </g>
     <g id="line2d_117">
      <g>
       <use style="stroke:#000000;stroke-width:0.5;" x="518.4" xlink:href="#ma4f294b3af" y="103.591008375"/>
      </g>
     </g>
    </g>
    <g id="ytick_46">
     <g id="line2d_118">
      <g>
       <use style="stroke:#000000;stroke-width:0.5;" x="72.0" xlink:href="#mf0c55a9a47" y="92.1303361249"/>
      </g>
     </g>
     <g id="line2d_119">
      <g>
       <use style="stroke:#000000;stroke-width:0.5;" x="518.4" xlink:href="#ma4f294b3af" y="92.1303361249"/>
      </g>
     </g>
    </g>
    <g id="ytick_47">
     <g id="line2d_120">
      <g>
       <use style="stroke:#000000;stroke-width:0.5;" x="72.0" xlink:href="#mf0c55a9a47" y="83.4606722498"/>
      </g>
     </g>
     <g id="line2d_121">
      <g>
       <use style="stroke:#000000;stroke-width:0.5;" x="518.4" xlink:href="#ma4f294b3af" y="83.4606722498"/>
      </g>
     </g>
    </g>
    <g id="ytick_48">
     <g id="line2d_122">
      <g>
       <use style="stroke:#000000;stroke-width:0.5;" x="72.0" xlink:href="#mf0c55a9a47" y="78.389243989"/>
      </g>
     </g>
     <g id="line2d_123">
      <g>
       <use style="stroke:#000000;stroke-width:0.5;" x="518.4" xlink:href="#ma4f294b3af" y="78.389243989"/>
      </g>
     </g>
    </g>
    <g id="ytick_49">
     <g id="line2d_124">
      <g>
       <use style="stroke:#000000;stroke-width:0.5;" x="72.0" xlink:href="#mf0c55a9a47" y="74.7910083746"/>
      </g>
     </g>
     <g id="line2d_125">
      <g>
       <use style="stroke:#000000;stroke-width:0.5;" x="518.4" xlink:href="#ma4f294b3af" y="74.7910083746"/>
      </g>
     </g>
    </g>
    <g id="ytick_50">
     <g id="line2d_126">
      <g>
       <use style="stroke:#000000;stroke-width:0.5;" x="72.0" xlink:href="#mf0c55a9a47" y="63.3303361249"/>
      </g>
     </g>
     <g id="line2d_127">
      <g>
       <use style="stroke:#000000;stroke-width:0.5;" x="518.4" xlink:href="#ma4f294b3af" y="63.3303361249"/>
      </g>
     </g>
    </g>
    <g id="ytick_51">
     <g id="line2d_128">
      <g>
       <use style="stroke:#000000;stroke-width:0.5;" x="72.0" xlink:href="#mf0c55a9a47" y="54.6606722498"/>
      </g>
     </g>
     <g id="line2d_129">
      <g>
       <use style="stroke:#000000;stroke-width:0.5;" x="518.4" xlink:href="#ma4f294b3af" y="54.6606722498"/>
      </g>
     </g>
    </g>
    <g id="ytick_52">
     <g id="line2d_130">
      <g>
       <use style="stroke:#000000;stroke-width:0.5;" x="72.0" xlink:href="#mf0c55a9a47" y="49.589243989"/>
      </g>
     </g>
     <g id="line2d_131">
      <g>
       <use style="stroke:#000000;stroke-width:0.5;" x="518.4" xlink:href="#ma4f294b3af" y="49.589243989"/>
      </g>
     </g>
    </g>
    <g id="ytick_53">
     <g id="line2d_132">
      <g>
       <use style="stroke:#000000;stroke-width:0.5;" x="72.0" xlink:href="#mf0c55a9a47" y="45.9910083746"/>
      </g>
     </g>
     <g id="line2d_133">
      <g>
       <use style="stroke:#000000;stroke-width:0.5;" x="518.4" xlink:href="#ma4f294b3af" y="45.9910083746"/>
      </g>
     </g>
    </g>
    <g id="text_13">
     <!-- $u_N/\hat{f}_0$ -->
     <defs>
      <path d="
M13.4844 53.8125
L11.5312 55.9062
L25 69.3906
L38.375 55.9062
L36.375 53.8125
L25 63.8125
z
" id="Cmr10-5e"/>
      <path d="
M4.6875 0
Q3.71875 0 3.71875 1.3125
Q3.76562 1.5625 3.90625 2.17188
Q4.04688 2.78125 4.3125 3.14062
Q4.59375 3.51562 4.98438 3.51562
Q14.5469 3.51562 16.1094 9.625
L29.6875 64.3125
Q26.9062 64.7969 20.9062 64.7969
Q19.9219 64.7969 19.9219 66.1094
Q19.9688 66.3594 20.1094 66.9688
Q20.2656 67.5781 20.5312 67.9375
Q20.7969 68.3125 21.1875 68.3125
L38.4844 68.3125
Q39.2031 68.3125 39.4062 67.6719
L61.625 14.7969
L72.7031 59.0781
Q72.9062 60.1562 72.9062 60.5938
Q72.9062 64.7969 65.1875 64.7969
Q64.2031 64.7969 64.2031 66.1094
Q64.5469 67.3906 64.7344 67.8438
Q64.9375 68.3125 65.9219 68.3125
L87.3125 68.3125
Q88.2812 68.3125 88.2812 67
Q88.2344 66.75 88.0781 66.1406
Q87.9375 65.5312 87.6719 65.1562
Q87.4062 64.7969 87.0156 64.7969
Q77.4375 64.7969 75.875 58.6875
L61.5312 0.875
Q61.1875 0 60.5 0
L59.2812 0
Q58.5938 0 58.4062 0.6875
L32.9062 61.1875
L32.7188 61.8125
Q32.5156 62.0156 32.5156 62.1094
L19.2812 9.1875
Q19.1875 8.9375 19.1406 8.5625
Q19.0938 8.20312 19 7.71875
Q19 5.125 21.2344 4.3125
Q23.4844 3.51562 26.8125 3.51562
Q27.7812 3.51562 27.7812 2.20312
Q27.4375 0.828125 27.1875 0.40625
Q26.9531 0 26.125 0
z
" id="Cmmi10-4e"/>
      <path d="
M25 -2.20312
Q12.75 -2.20312 8.32812 7.875
Q3.90625 17.9688 3.90625 31.8906
Q3.90625 40.5781 5.48438 48.2344
Q7.07812 55.9062 11.7812 61.25
Q16.5 66.6094 25 66.6094
Q31.5938 66.6094 35.7812 63.375
Q39.9844 60.1562 42.1875 55.0469
Q44.3906 49.9531 45.1875 44.1094
Q46 38.2812 46 31.8906
Q46 23.2969 44.4062 15.7969
Q42.8281 8.29688 38.1875 3.04688
Q33.5469 -2.20312 25 -2.20312
M25 0.390625
Q30.5625 0.390625 33.2969 6.09375
Q36.0312 11.8125 36.6719 18.75
Q37.3125 25.6875 37.3125 33.5
Q37.3125 41.0156 36.6719 47.3594
Q36.0312 53.7188 33.3125 58.8594
Q30.6094 64.0156 25 64.0156
Q19.3438 64.0156 16.6094 58.8281
Q13.875 53.6562 13.2344 47.3281
Q12.5938 41.0156 12.5938 33.5
Q12.5938 27.9375 12.8594 23
Q13.1406 18.0625 14.3125 12.8125
Q15.4844 7.5625 18.0938 3.96875
Q20.7031 0.390625 25 0.390625" id="Cmr10-30"/>
      <path d="
M10.5938 10.8906
Q10.5938 14.1562 11.4688 17.5938
Q12.3594 21.0469 13.9375 25.2656
Q15.5312 29.5 16.7031 32.625
Q18.0156 36.2812 18.0156 38.625
Q18.0156 41.6094 15.8281 41.6094
Q11.8594 41.6094 9.29688 37.5312
Q6.73438 33.4531 5.51562 28.4219
Q5.32812 27.7812 4.6875 27.7812
L3.51562 27.7812
Q2.6875 27.7812 2.6875 28.7188
L2.6875 29
Q4.29688 34.9688 7.60938 39.5781
Q10.9375 44.1875 16.0156 44.1875
Q19.5781 44.1875 22.0469 41.8438
Q24.5156 39.5 24.5156 35.8906
Q24.5156 34.0312 23.6875 31.9844
Q23.25 30.7656 21.6875 26.6562
Q20.125 22.5625 19.2812 19.875
Q18.4531 17.1875 17.9219 14.5938
Q17.3906 12.0156 17.3906 9.42188
Q17.3906 6.10938 18.7969 3.8125
Q20.2188 1.51562 23.3906 1.51562
Q29.7812 1.51562 34.625 9.42188
Q34.7188 9.8125 34.7812 10.1719
Q34.8594 10.5469 34.9062 10.8906
L42.0938 39.8906
Q42.4375 41.2188 43.6562 42.1562
Q44.875 43.1094 46.2969 43.1094
Q47.5156 43.1094 48.4062 42.3281
Q49.3125 41.5469 49.3125 40.2812
Q49.3125 39.7031 49.2188 39.5
L42 10.6875
Q41.3125 7.71875 41.3125 5.8125
Q41.3125 1.51562 44.1875 1.51562
Q47.4062 1.51562 49 5.48438
Q50.5938 9.46875 51.7031 14.7031
Q51.9062 15.2812 52.4844 15.2812
L53.7188 15.2812
Q54.1094 15.2812 54.3438 14.9375
Q54.5938 14.5938 54.5938 14.3125
Q53.5156 10.0156 52.5156 6.9375
Q51.5156 3.85938 49.3594 1.35938
Q47.2188 -1.125 44 -1.125
Q40.8281 -1.125 38.3125 0.609375
Q35.7969 2.34375 34.9062 5.32812
Q32.625 2.39062 29.5938 0.625
Q26.5625 -1.125 23.1875 -1.125
Q17.4375 -1.125 14.0156 2.01562
Q10.5938 5.17188 10.5938 10.8906" id="Cmmi10-75"/>
      <path d="
M9.71875 -16.5
Q11.5781 -17.9219 14.2031 -17.9219
Q17.7812 -17.9219 20.0156 -10.0156
Q20.9531 -6.20312 25.0938 15.0938
L29.6875 39.5938
L21.0938 39.5938
Q20.125 39.5938 20.125 40.9219
Q20.5156 43.1094 21.3906 43.1094
L30.3281 43.1094
L31.5 49.6094
Q32.0781 52.6406 32.5625 54.8125
Q33.0625 56.9844 33.625 58.8281
Q34.1875 60.6875 35.2969 62.9844
Q37.0156 66.2656 39.9219 68.3906
Q42.8281 70.5156 46.1875 70.5156
Q48.3906 70.5156 50.4688 69.7031
Q52.5469 68.8906 53.8594 67.2812
Q55.1719 65.6719 55.1719 63.4844
Q55.1719 60.9375 53.4844 59.0469
Q51.8125 57.1719 49.4219 57.1719
Q47.7969 57.1719 46.6562 58.1719
Q45.5156 59.1875 45.5156 60.7969
Q45.5156 62.9844 47 64.625
Q48.4844 66.2656 50.6875 66.5
Q48.8281 67.9219 46.0938 67.9219
Q44.5781 67.9219 43.2344 66.5
Q41.8906 65.0938 41.5 63.4844
Q40.875 60.9375 38.7188 49.7031
L37.5 43.1094
L47.7969 43.1094
Q48.7812 43.1094 48.7812 41.7969
Q48.7344 41.5469 48.5781 40.9375
Q48.4375 40.3281 48.1719 39.9531
Q47.9062 39.5938 47.5156 39.5938
L36.8125 39.5938
L32.1719 15.1875
Q31.2969 9.85938 30.1406 4.35938
Q29 -1.125 26.9219 -6.90625
Q24.8594 -12.7031 21.625 -16.6094
Q18.4062 -20.5156 14.0156 -20.5156
Q10.6406 -20.5156 7.98438 -18.5781
Q5.32812 -16.6562 5.32812 -13.4844
Q5.32812 -10.9375 6.95312 -9.04688
Q8.59375 -7.17188 11.0781 -7.17188
Q12.75 -7.17188 13.8594 -8.17188
Q14.9844 -9.1875 14.9844 -10.7969
Q14.9844 -12.9375 13.3906 -14.7188
Q11.8125 -16.5 9.71875 -16.5" id="Cmmi10-66"/>
      <path d="
M5.60938 -23
Q5.60938 -22.7031 5.71875 -22.6094
L40.4844 73.7812
Q40.6719 74.3594 41.1562 74.6719
Q41.6562 75 42.2812 75
Q43.1719 75 43.7188 74.4531
Q44.2812 73.9219 44.2812 73
L44.2812 72.6094
L9.51562 -23.7812
Q8.9375 -25 7.625 -25
Q6.78125 -25 6.1875 -24.4062
Q5.60938 -23.8281 5.60938 -23" id="Cmmi10-3d"/>
     </defs>
     <g transform="translate(23.4 241.83)rotate(-90.0)scale(0.18 -0.18)">
      <use transform="translate(0.0 0.40625)" xlink:href="#Cmmi10-75"/>
      <use transform="translate(57.177734375 -25.103125)scale(0.7)" xlink:href="#Cmmi10-4e"/>
      <use transform="translate(137.5 0.40625)" xlink:href="#Cmmi10-3d"/>
      <use transform="translate(186.96875 29.609375)" xlink:href="#Cmr10-5e"/>
      <use transform="translate(187.5 0.40625)" xlink:href="#Cmmi10-66"/>
      <use transform="translate(236.376953125 -25.103125)scale(0.7)" xlink:href="#Cmr10-30"/>
     </g>
    </g>
   </g>
   <g id="patch_3">
    <path d="
M72 43.2
L518.4 43.2" style="fill:none;stroke:#000000;"/>
   </g>
   <g id="patch_4">
    <path d="
M518.4 388.8
L518.4 43.2" style="fill:none;stroke:#000000;"/>
   </g>
   <g id="patch_5">
    <path d="
M72 388.8
L518.4 388.8" style="fill:none;stroke:#000000;"/>
   </g>
   <g id="patch_6">
    <path d="
M72 388.8
L72 43.2" style="fill:none;stroke:#000000;"/>
   </g>
   <g id="legend_1">
    <g id="patch_7">
     <path d="
M384.573 171.288
L508.8 171.288
L508.8 52.8
L384.573 52.8
L384.573 171.288
z
" style="fill:#ffffff;stroke:#000000;"/>
    </g>
    <g id="line2d_134">
     <path d="
M398.013 68.349
L424.893 68.349" style="fill:none;stroke:#0000ff;stroke-linecap:square;"/>
    </g>
    <g id="line2d_135"/>
    <g id="text_14">
     <!-- N=1 -->
     <defs>
      <path d="
M4.89062 0
L4.89062 5.17188
L14.7031 5.17188
L14.7031 67.6719
L4.89062 67.6719
L4.89062 72.9062
L23.5781 72.9062
L67.2812 15.375
L67.2812 67.6719
L57.5156 67.6719
L57.5156 72.9062
L83.1094 72.9062
L83.1094 67.6719
L73.2969 67.6719
L73.2969 -1.42188
L67.3906 -1.42188
L20.7031 60.0156
L20.7031 5.17188
L30.5156 5.17188
L30.5156 0
z
" id="BitstreamVeraSerif-Roman-4e"/>
      <path d="
M10.5938 45.2188
L73.1875 45.2188
L73.1875 37.4062
L10.5938 37.4062
z

M10.5938 25.2969
L73.1875 25.2969
L73.1875 17.4844
L10.5938 17.4844
z
" id="BitstreamVeraSerif-Roman-3d"/>
     </defs>
     <g transform="translate(446.013 75.069)scale(0.192 -0.192)">
      <use xlink:href="#BitstreamVeraSerif-Roman-4e"/>
      <use x="87.5" xlink:href="#BitstreamVeraSerif-Roman-3d"/>
      <use x="171.2890625" xlink:href="#BitstreamVeraSerif-Roman-31"/>
     </g>
    </g>
    <g id="line2d_136">
     <path d="
M398.013 96.531
L424.893 96.531" style="fill:none;stroke:#008000;stroke-linecap:square;"/>
    </g>
    <g id="line2d_137"/>
    <g id="text_15">
     <!-- N=5 -->
     <g transform="translate(446.013 103.251)scale(0.192 -0.192)">
      <use xlink:href="#BitstreamVeraSerif-Roman-4e"/>
      <use x="87.5" xlink:href="#BitstreamVeraSerif-Roman-3d"/>
      <use x="171.2890625" xlink:href="#BitstreamVeraSerif-Roman-35"/>
     </g>
    </g>
    <g id="line2d_138">
     <path d="
M398.013 124.713
L424.893 124.713" style="fill:none;stroke:#ff0000;stroke-linecap:square;"/>
    </g>
    <g id="line2d_139"/>
    <g id="text_16">
     <!-- N=10 -->
     <g transform="translate(446.013 131.433)scale(0.192 -0.192)">
      <use xlink:href="#BitstreamVeraSerif-Roman-4e"/>
      <use x="87.5" xlink:href="#BitstreamVeraSerif-Roman-3d"/>
      <use x="171.2890625" xlink:href="#BitstreamVeraSerif-Roman-31"/>
      <use x="234.912109375" xlink:href="#BitstreamVeraSerif-Roman-30"/>
     </g>
    </g>
    <g id="line2d_140">
     <path d="
M398.013 152.895
L424.893 152.895" style="fill:none;stroke:#00bfbf;stroke-linecap:square;"/>
    </g>
    <g id="line2d_141"/>
    <g id="text_17">
     <!-- N=50 -->
     <g transform="translate(446.013 159.615)scale(0.192 -0.192)">
      <use xlink:href="#BitstreamVeraSerif-Roman-4e"/>
      <use x="87.5" xlink:href="#BitstreamVeraSerif-Roman-3d"/>
      <use x="171.2890625" xlink:href="#BitstreamVeraSerif-Roman-35"/>
      <use x="234.912109375" xlink:href="#BitstreamVeraSerif-Roman-30"/>
     </g>
    </g>
   </g>
  </g>
 </g>
 <defs>
  <clipPath id="p7ff5b81e1d">
   <rect height="345.6" width="446.4" x="72.0" y="43.2"/>
  </clipPath>
 </defs>
</svg>
