<?xml version="1.0" encoding="utf-8" standalone="no"?>
<!DOCTYPE svg PUBLIC "-//W3C//DTD SVG 1.1//EN"
  "http://www.w3.org/Graphics/SVG/1.1/DTD/svg11.dtd">
<!-- Created with matplotlib (http://matplotlib.org/) -->
<svg height="432pt" version="1.1" viewBox="0 0 576 432" width="576pt" xmlns="http://www.w3.org/2000/svg" xmlns:xlink="http://www.w3.org/1999/xlink">
 <defs>
  <style type="text/css">
*{stroke-linecap:butt;stroke-linejoin:round;}
  </style>
 </defs>
 <g id="figure_1">
  <g id="patch_1">
   <path d="
M0 432
L576 432
L576 0
L0 0
z
" style="fill:#ffffff;"/>
  </g>
  <g id="axes_1">
   <g id="patch_2">
    <path d="
M72 388.8
L518.4 388.8
L518.4 43.2
L72 43.2
z
" style="fill:#ffffff;"/>
   </g>
   <g id="line2d_1">
    <path clip-path="url(#p7ff5b81e1d)" d="
M72.365 -1
L72.7141 15.8112
L73.205 28.8984
L73.7851 38.7278
L74.4991 47.1404
L75.347 54.4415
L76.2842 60.6071
L77.3552 66.1752
L78.5155 71.0624
L79.8097 75.5697
L81.2378 79.7377
L82.7997 83.6032
L84.4955 87.1982
L86.3252 90.55
L88.2888 93.6816
L90.3862 96.6122
L92.6622 99.4097
L95.1166 102.07
L97.7496 104.589
L100.561 106.968
L103.551 109.206
L106.72 111.3
L110.111 113.276
L113.681 115.099
L117.475 116.785
L121.446 118.306
L125.597 119.656
L129.881 120.813
L134.254 121.764
L138.672 122.498
L143.09 123.009
L147.464 123.291
L151.703 123.346
L155.809 123.178
L159.691 122.799
L163.351 122.221
L166.742 121.462
L169.866 120.538
L172.722 119.464
L175.311 118.257
L177.676 116.909
L179.773 115.463
L181.692 113.872
L183.433 112.135
L184.995 110.256
L186.378 108.242
L187.628 106.024
L188.743 103.582
L189.725 100.89
L190.573 97.93
L191.332 94.4617
L191.956 90.5924
L192.492 85.8878
L192.938 79.8426
L193.251 72.6498
L193.474 62.4601
L193.608 44.7721
L193.652 4.16936
L193.652 4.16936
L193.652 4.16936
L193.786 59.1605
L194.054 72.8201
L194.455 81.4957
L194.946 87.4891
L195.571 92.4575
L196.33 96.6757
L197.178 100.172
L198.159 103.306
L199.275 106.137
L200.525 108.713
L201.953 111.14
L203.515 113.358
L205.255 115.444
L207.174 117.401
L209.316 119.265
L211.681 121.023
L214.27 122.665
L217.081 124.182
L220.116 125.565
L223.374 126.801
L226.81 127.866
L230.38 128.738
L234.039 129.404
L237.743 129.852
L241.403 130.074
L245.017 130.07
L248.498 129.845
L251.801 129.41
L254.925 128.774
L257.825 127.959
L260.503 126.979
L262.957 125.85
L265.233 124.561
L267.331 123.116
L269.205 121.559
L270.945 119.821
L272.507 117.947
L273.935 115.879
L275.185 113.687
L276.345 111.192
L277.372 108.442
L278.264 105.408
L279.023 102.07
L279.692 98.1267
L280.272 93.28
L280.719 87.6237
L281.076 79.9883
L281.299 70.6729
L281.433 57.069
L281.522 42.4483
L281.7 70.5147
L282.013 82.2811
L282.415 89.505
L282.95 95.2453
L283.619 99.9521
L284.378 103.723
L285.271 107.022
L286.252 109.811
L287.368 112.307
L288.573 114.46
L289.867 116.328
L291.251 117.946
L292.723 119.332
L294.241 120.461
L295.802 121.349
L297.364 121.982
L298.882 122.36
L300.354 122.497
L301.738 122.405
L303.032 122.1
L304.237 121.593
L305.397 120.858
L306.468 119.91
L307.45 118.748
L308.387 117.286
L309.235 115.553
L310.038 113.386
L310.752 110.801
L311.377 107.706
L311.913 103.961
L312.359 99.3469
L312.716 93.4868
L312.984 85.6751
L313.162 74.4326
L313.296 47.0175
L313.341 65.4063
L313.564 85.3034
L313.921 95.8007
L314.412 103.27
L315.037 109.198
L315.795 114.196
L316.688 118.58
L317.714 122.533
L318.919 126.299
L320.302 129.896
L321.864 133.348
L323.649 136.757
L325.658 140.117
L327.934 143.489
L330.477 146.857
L333.333 150.262
L336.502 153.687
L339.983 157.119
L343.821 160.59
L348.06 164.121
L352.701 167.695
L357.789 171.327
L363.323 175.001
L369.347 178.732
L375.863 182.502
L382.914 186.325
L390.545 190.206
L398.756 194.132
L407.592 198.108
L417.098 202.138
L427.272 206.209
L438.161 210.323
L449.809 214.484
L462.215 218.678
L475.425 222.907
L489.482 227.172
L504.432 231.473
L518.4 235.298
L518.4 235.298" style="fill:none;stroke:#0000ff;stroke-linecap:square;"/>
   </g>
   <g id="line2d_2">
    <path clip-path="url(#p7ff5b81e1d)" d="
M72.1786 -0.249776
L72.4909 25.0445
L72.8926 39.9811
L73.4281 51.6991
L74.0529 60.7091
L74.8115 68.4605
L75.6594 74.8813
L76.5966 80.3397
L77.623 85.0459
L78.7387 89.1262
L79.899 92.5399
L81.1039 95.4003
L82.3088 97.6993
L83.5137 99.5243
L84.674 100.885
L85.7897 101.853
L86.8161 102.46
L87.7979 102.785
L88.6904 102.857
L89.5383 102.713
L90.3862 102.343
L91.2341 101.716
L92.0374 100.842
L92.8407 99.6333
L93.5993 98.0949
L94.358 96.028
L95.0274 93.5627
L95.6522 90.4002
L96.1877 86.5412
L96.6339 81.7481
L96.991 75.5823
L97.2587 67.1104
L97.4372 53.6728
L97.4818 45.335
L97.5265 7.5871
L97.5711 44.0955
L97.7942 67.1679
L98.1512 77.9951
L98.5975 84.9511
L99.1777 90.6044
L99.8917 95.3501
L100.695 99.2373
L101.632 102.679
L102.659 105.608
L103.774 108.119
L104.934 110.189
L106.139 111.886
L107.344 113.2
L108.505 114.149
L109.665 114.812
L110.781 115.191
L111.852 115.314
L112.878 115.204
L113.86 114.874
L114.842 114.3
L115.779 113.49
L116.716 112.375
L117.608 110.958
L118.456 109.192
L119.26 106.996
L120.018 104.23
L120.688 100.892
L121.268 96.7955
L121.759 91.5819
L122.116 85.4748
L122.383 77.2834
L122.562 65.0557
L122.651 42.5608
L122.696 47.8646
L122.874 73.3154
L123.187 84.9595
L123.633 92.8386
L124.169 98.4718
L124.838 103.194
L125.597 107.027
L126.489 110.397
L127.471 113.236
L128.542 115.646
L129.658 117.611
L130.818 119.203
L131.978 120.419
L133.094 121.279
L134.21 121.863
L135.281 122.175
L136.307 122.246
L137.289 122.097
L138.271 121.722
L139.208 121.13
L140.145 120.274
L141.082 119.105
L141.975 117.623
L142.822 115.778
L143.626 113.479
L144.34 110.766
L145.009 107.297
L145.589 102.993
L146.036 98.0381
L146.393 91.6851
L146.66 82.8995
L146.839 68.3966
L146.928 39.691
L146.973 63.0606
L147.196 83.8041
L147.553 94.2722
L147.999 101.038
L148.579 106.515
L149.249 110.835
L150.052 114.594
L150.945 117.731
L151.926 120.389
L152.997 122.644
L154.113 124.469
L155.229 125.873
L156.344 126.922
L157.415 127.63
L158.442 128.049
L159.424 128.212
L160.361 128.146
L161.253 127.864
L162.146 127.345
L162.994 126.599
L163.842 125.554
L164.645 124.218
L165.448 122.432
L166.207 120.159
L166.876 117.434
L167.456 114.175
L167.992 109.825
L168.438 104.133
L168.751 97.3396
L168.974 87.9348
L169.108 73.5408
L169.152 57.3496
L169.197 63.685
L169.375 88.84
L169.688 100.533
L170.134 108.52
L170.669 114.293
L171.339 119.196
L172.142 123.448
L173.079 127.193
L174.106 130.399
L175.266 133.295
L176.516 135.817
L177.854 138.017
L179.238 139.867
L180.666 141.411
L182.094 142.638
L183.567 143.611
L184.995 144.295
L186.423 144.737
L187.851 144.945
L189.234 144.923
L190.618 144.677
L191.956 144.216
L193.295 143.52
L194.634 142.566
L195.928 141.367
L197.178 139.911
L198.383 138.171
L199.543 136.11
L200.659 133.662
L201.685 130.856
L202.622 127.618
L203.425 124.046
L204.139 119.835
L204.72 115.101
L205.21 109.184
L205.567 102.216
L205.835 92.3492
L205.969 81.1844
L206.014 73.0824
L206.058 43.288
L206.103 70.472
L206.282 91.587
L206.594 102.501
L206.996 109.291
L207.531 114.602
L208.156 118.573
L208.87 121.662
L209.629 123.971
L210.432 125.709
L211.235 126.929
L211.994 127.708
L212.752 128.184
L213.466 128.384
L214.18 128.358
L214.894 128.11
L215.653 127.597
L216.412 126.808
L217.215 125.631
L218.018 124.033
L218.777 122.024
L219.491 119.517
L220.16 116.35
L220.741 112.543
L221.231 107.891
L221.633 102.003
L221.945 94.0041
L222.124 84.9763
L222.258 65.1481
L222.302 49.8598
L222.302 49.8598
L222.302 49.8598
L222.481 86.4148
L222.793 98.6304
L223.195 105.973
L223.731 111.737
L224.355 116.129
L225.069 119.642
L225.873 122.503
L226.72 124.722
L227.568 126.359
L228.416 127.544
L229.22 128.316
L229.978 128.765
L230.692 128.952
L231.406 128.912
L232.12 128.638
L232.834 128.112
L233.548 127.306
L234.262 126.169
L234.976 124.623
L235.69 122.532
L236.36 119.86
L236.985 116.375
L237.52 112.026
L237.966 106.404
L238.279 99.8395
L238.502 91.1428
L238.636 79.4205
L238.725 39.374
L238.77 72.2256
L238.993 93.9136
L239.35 104.493
L239.796 111.271
L240.376 116.71
L241.046 120.941
L241.804 124.367
L242.652 127.172
L243.5 129.253
L244.348 130.796
L245.196 131.897
L245.999 132.581
L246.713 132.913
L247.383 132.988
L248.007 132.846
L248.632 132.481
L249.302 131.816
L249.971 130.817
L250.64 129.405
L251.31 127.442
L251.935 124.896
L252.515 121.549
L253.006 117.407
L253.407 112.206
L253.72 105.462
L253.943 96.1925
L254.077 82.3746
L254.121 68.2227
L254.166 69.4944
L254.344 96.5123
L254.657 108.325
L255.103 116.276
L255.639 121.929
L256.308 126.609
L257.067 130.304
L257.87 133.117
L258.673 135.153
L259.432 136.51
L260.101 137.301
L260.681 137.685
L261.217 137.78
L261.708 137.626
L262.199 137.207
L262.69 136.471
L263.18 135.33
L263.671 133.633
L264.162 131.096
L264.608 127.538
L264.966 122.996
L265.278 116.011
L265.501 105.153
L265.59 94.3312
L265.635 79.2262
L265.68 83.2151
L265.858 109.421
L266.17 121.564
L266.617 130.091
L267.197 136.908
L267.911 142.731
L268.759 147.899
L269.785 152.776
L270.945 157.193
L272.195 161.091
L273.534 164.554
L274.917 167.532
L276.301 169.999
L277.639 171.953
L278.934 173.46
L280.139 174.527
L281.21 175.193
L282.191 175.551
L283.084 175.644
L283.887 175.513
L284.646 175.171
L285.404 174.576
L286.119 173.732
L286.833 172.532
L287.502 170.974
L288.171 168.812
L288.751 166.187
L289.287 162.717
L289.733 158.388
L290.09 152.902
L290.358 145.767
L290.537 136.298
L290.626 125.518
L290.67 110.84
L290.715 113.611
L290.894 140.115
L291.206 152.037
L291.652 160.217
L292.232 166.588
L292.946 171.88
L293.794 176.439
L294.731 180.283
L295.802 183.731
L296.918 186.589
L298.078 188.963
L299.194 190.77
L300.265 192.108
L301.247 193
L302.139 193.524
L302.943 193.739
L303.657 193.7
L304.326 193.433
L304.951 192.943
L305.576 192.163
L306.2 191.005
L306.781 189.466
L307.361 187.266
L307.896 184.287
L308.343 180.552
L308.744 175.152
L309.057 167.463
L309.235 158.424
L309.369 136.67
L309.414 130.21
L309.592 161.267
L309.904 173.657
L310.351 182.157
L310.931 188.868
L311.645 194.56
L312.493 199.598
L313.519 204.364
L314.68 208.717
L316.018 212.873
L317.491 216.709
L319.053 220.162
L320.704 223.275
L322.4 225.996
L324.096 228.298
L325.747 230.172
L327.353 231.667
L328.871 232.787
L330.343 233.602
L331.727 234.118
L333.021 234.372
L334.271 234.396
L335.476 234.2
L336.636 233.79
L337.796 233.144
L338.956 232.237
L340.117 231.037
L341.277 229.503
L342.437 227.58
L343.553 225.298
L344.669 222.501
L345.74 219.214
L346.766 215.355
L347.748 210.799
L348.685 205.338
L349.488 199.36
L350.202 192.393
L350.782 184.609
L351.229 175.76
L351.541 165.405
L351.72 153.644
L351.809 138.799
L351.854 105.528
L351.854 105.528
L351.854 105.528
L351.987 152.586
L352.255 164.375
L352.568 169.232
L352.88 171.139
L353.103 171.48
L353.237 171.361
L353.46 170.661
L353.728 168.961
L354.04 165.486
L354.353 159.25
L354.576 150.475
L354.71 138.207
L354.799 110.985
L354.977 148.707
L355.245 159.428
L355.602 165.791
L356.004 169.228
L356.316 170.31
L356.495 170.402
L356.629 170.216
L356.852 169.376
L357.119 167.278
L357.387 163.332
L357.61 157.109
L357.789 145.939
L357.923 123.478
L358.101 153.276
L358.414 165.326
L358.771 171.485
L359.128 174.28
L359.306 174.624
L359.395 174.496
L359.529 173.837
L359.708 171.728
L359.886 166.932
L360.02 158.152
L360.109 134.679
L360.154 144.106
L360.333 170.301
L360.69 186.393
L361.225 199.643
L361.939 211.751
L362.876 223.767
L363.992 235.203
L365.286 246.233
L366.803 257.253
L368.499 267.944
L370.418 278.606
L372.516 289.005
L374.836 299.382
L377.38 309.725
L380.147 320.029
L383.137 330.295
L386.35 340.525
L389.786 350.72
L393.446 360.883
L397.373 371.13
L401.523 381.337
L405.941 391.609
L410.582 401.838
L415.491 412.117
L420.668 422.437
L426.068 432.706
L426.226 433
L426.226 433" style="fill:none;stroke:#008000;stroke-linecap:square;"/>
   </g>
   <g id="line2d_3">
    <path clip-path="url(#p7ff5b81e1d)" d="
M72.1786 8.21363
L72.4909 33.489
L72.8926 48.3753
L73.4281 59.9804
L74.0529 68.7911
L74.7669 75.8302
L75.5702 81.5624
L76.4181 86.0138
L77.266 89.3027
L78.0693 91.5783
L78.8279 93.0832
L79.4527 93.8859
L79.9882 94.2637
L80.4791 94.3501
L80.9254 94.1982
L81.3716 93.8042
L81.8625 93.0498
L82.3981 91.758
L82.9336 89.8145
L83.4245 87.1888
L83.8707 83.6428
L84.2724 78.6336
L84.5848 71.9313
L84.8079 62.4013
L84.9418 47.0476
L84.9864 25.8745
L85.031 41.4205
L85.2095 64.3229
L85.5219 75.8783
L85.9682 83.8958
L86.5037 89.6981
L87.1731 94.5596
L87.9318 98.4302
L88.735 101.392
L89.5383 103.546
L90.297 105.001
L91.011 105.927
L91.6358 106.408
L92.2159 106.586
L92.7514 106.512
L93.2869 106.197
L93.8225 105.614
L94.4026 104.633
L94.9828 103.205
L95.5629 101.187
L96.143 98.304
L96.6339 94.7607
L97.0802 89.8795
L97.4372 83.4035
L97.705 74.0292
L97.8389 63.5002
L97.9281 36.0064
L97.9727 49.8559
L98.1512 73.0082
L98.4636 84.4601
L98.9099 92.2956
L99.4454 97.8817
L100.07 102.23
L100.784 105.72
L101.543 108.383
L102.302 110.302
L103.06 111.646
L103.73 112.424
L104.354 112.835
L104.934 112.949
L105.47 112.822
L106.006 112.459
L106.586 111.774
L107.166 110.737
L107.791 109.136
L108.415 106.86
L108.996 103.846
L109.531 99.7584
L109.977 94.4588
L110.334 87.18
L110.557 78.3573
L110.691 66.1666
L110.781 38.3108
L110.959 76.7974
L111.271 89.1578
L111.673 96.605
L112.209 102.462
L112.833 106.91
L113.547 110.419
L114.306 113.057
L115.065 114.928
L115.779 116.15
L116.448 116.891
L117.073 117.26
L117.608 117.334
L118.144 117.182
L118.679 116.791
L119.26 116.072
L119.884 114.898
L120.509 113.21
L121.134 110.822
L121.714 107.66
L122.205 103.781
L122.651 98.3682
L123.008 90.8709
L123.231 81.5697
L123.365 67.7278
L123.41 53.5578
L123.455 54.8527
L123.633 81.8271
L123.945 93.5794
L124.347 100.836
L124.883 106.579
L125.507 110.938
L126.221 114.366
L126.98 116.922
L127.739 118.71
L128.453 119.849
L129.077 120.473
L129.658 120.766
L130.193 120.795
L130.729 120.588
L131.264 120.13
L131.844 119.322
L132.469 118.025
L133.094 116.167
L133.674 113.749
L134.254 110.301
L134.745 105.974
L135.147 100.454
L135.459 93.0731
L135.682 82.067
L135.771 71.5339
L135.861 57.5446
L136.039 85.2502
L136.352 97.0507
L136.753 104.311
L137.289 110.041
L137.914 114.377
L138.628 117.769
L139.342 120.153
L140.056 121.836
L140.77 122.969
L141.394 123.57
L141.975 123.826
L142.51 123.807
L143.001 123.569
L143.537 123.052
L144.117 122.153
L144.697 120.837
L145.322 118.82
L145.902 116.16
L146.437 112.642
L146.928 107.773
L147.285 102.117
L147.553 94.8465
L147.731 85.3027
L147.821 74.5494
L147.865 60.1598
L147.91 62.059
L148.088 88.78
L148.401 100.504
L148.802 107.741
L149.338 113.454
L149.963 117.769
L150.632 120.952
L151.346 123.344
L152.06 125.006
L152.73 126.037
L153.31 126.571
L153.845 126.783
L154.336 126.743
L154.827 126.471
L155.363 125.887
L155.898 124.965
L156.478 123.506
L157.058 121.42
L157.639 118.421
L158.129 114.71
L158.576 109.542
L158.933 102.513
L159.156 94.231
L159.29 83.6466
L159.379 55.6339
L159.424 70.2241
L159.602 93.1934
L159.914 104.571
L160.361 112.309
L160.896 117.765
L161.521 121.934
L162.19 125.012
L162.904 127.296
L163.574 128.755
L164.199 129.625
L164.734 130.027
L165.225 130.122
L165.671 129.976
L166.118 129.593
L166.608 128.868
L167.144 127.645
L167.679 125.845
L168.215 123.225
L168.706 119.67
L169.152 114.625
L169.509 107.671
L169.732 99.3883
L169.866 88.6696
L169.955 57.8884
L170 76.3999
L170.179 98.7239
L170.491 110.093
L170.937 117.898
L171.473 123.435
L172.098 127.676
L172.767 130.786
L173.436 132.921
L174.061 134.227
L174.597 134.873
L175.043 135.077
L175.4 135.007
L175.757 134.705
L176.159 134.043
L176.605 132.8
L177.051 130.813
L177.453 128.018
L177.81 124.084
L178.122 118.203
L178.345 110.086
L178.479 99.0568
L178.524 90.7058
L178.568 48.8749
L178.613 89.9919
L178.836 113.264
L179.193 124.635
L179.684 132.85
L180.309 139.536
L181.067 145.297
L181.96 150.405
L182.986 154.989
L184.102 158.959
L185.262 162.296
L186.467 165.107
L187.672 167.371
L188.833 169.108
L189.993 170.452
L191.064 171.368
L192.09 171.966
L193.072 172.287
L194.009 172.362
L194.946 172.209
L195.884 171.82
L196.821 171.18
L197.758 170.27
L198.74 168.998
L199.721 167.352
L200.703 165.263
L201.64 162.752
L202.533 159.742
L203.381 156.086
L204.139 151.792
L204.764 147.007
L205.3 141.145
L205.701 134.327
L206.014 124.817
L206.192 112.607
L206.282 92.0553
L206.326 92.7696
L206.505 119.692
L206.817 130.993
L207.219 137.656
L207.71 142.288
L208.29 145.658
L208.87 147.822
L209.45 149.233
L210.03 150.109
L210.566 150.543
L211.057 150.675
L211.547 150.578
L212.083 150.23
L212.663 149.579
L213.333 148.471
L214.047 146.848
L214.805 144.561
L215.564 141.57
L216.322 137.63
L216.992 132.962
L217.572 127.345
L218.063 120.223
L218.42 111.453
L218.643 100.469
L218.777 80.5298
L218.822 64.0938
L218.822 64.0938
L218.822 64.0938
L219 101.014
L219.268 111.447
L219.625 117.754
L220.071 121.94
L220.517 124.29
L220.964 125.572
L221.321 126.04
L221.633 126.109
L221.901 125.932
L222.213 125.456
L222.615 124.397
L223.061 122.538
L223.507 119.73
L223.954 115.413
L224.311 109.836
L224.578 102.581
L224.757 93.0228
L224.846 82.2351
L224.891 67.738
L224.935 69.9086
L225.114 96.4861
L225.426 108.115
L225.828 115.182
L226.319 120.219
L226.899 123.93
L227.479 126.28
L228.015 127.623
L228.506 128.295
L228.907 128.489
L229.264 128.4
L229.621 128.06
L230.023 127.357
L230.469 126.123
L230.96 124.081
L231.451 121.023
L231.897 116.776
L232.254 111.38
L232.567 102.857
L232.745 92.278
L232.834 78.3884
L232.879 30.1618
L232.879 30.1618
L232.879 30.1618
L233.013 92.5158
L233.281 106.221
L233.682 114.826
L234.173 120.587
L234.753 124.783
L235.333 127.491
L235.914 129.231
L236.449 130.174
L236.895 130.533
L237.252 130.553
L237.609 130.332
L238.011 129.78
L238.457 128.743
L238.948 126.976
L239.439 124.313
L239.885 120.676
L240.287 115.556
L240.599 108.794
L240.823 99.3991
L240.956 85.0952
L241.001 69.3304
L241.046 74.668
L241.224 100.094
L241.537 111.67
L241.938 118.777
L242.429 123.89
L243.009 127.699
L243.589 130.14
L244.125 131.554
L244.616 132.274
L245.017 132.486
L245.33 132.42
L245.687 132.089
L246.088 131.36
L246.535 130.037
L247.026 127.776
L247.472 124.647
L247.874 120.326
L248.231 113.959
L248.498 104.718
L248.632 94.4893
L248.721 70.6779
L248.766 78.4888
L248.945 103.131
L249.257 114.642
L249.659 121.722
L250.149 126.792
L250.685 130.283
L251.265 132.663
L251.756 133.857
L252.158 134.357
L252.47 134.465
L252.782 134.322
L253.095 133.915
L253.496 132.957
L253.943 131.192
L254.389 128.4
L254.791 124.456
L255.148 118.67
L255.415 110.678
L255.594 98.667
L255.683 77.3267
L255.728 80.2908
L255.906 106.622
L256.219 118.31
L256.62 125.435
L257.111 130.469
L257.647 133.822
L258.138 135.68
L258.584 136.583
L258.896 136.805
L259.164 136.724
L259.432 136.377
L259.744 135.595
L260.101 134.101
L260.503 131.365
L260.86 127.4
L261.172 121.505
L261.395 113.632
L261.529 103.695
L261.619 81.853
L261.663 85.9816
L261.842 111.94
L262.154 123.663
L262.556 130.799
L263.047 135.721
L263.537 138.551
L263.939 139.767
L264.207 140.08
L264.385 140.06
L264.608 139.758
L264.876 138.926
L265.189 137.125
L265.501 133.975
L265.813 128.191
L266.037 119.666
L266.17 106.978
L266.26 88.2213
L266.438 119.734
L266.751 132.098
L267.152 139.481
L267.598 143.866
L267.955 145.525
L268.134 145.748
L268.268 145.604
L268.446 144.894
L268.67 142.806
L268.893 138.163
L269.071 128.996
L269.16 115.244
L269.205 86.9337
L269.205 86.9337
L269.205 86.9337
L269.384 136.009
L269.696 151.062
L270.187 163.458
L270.856 174.646
L271.704 185.196
L272.775 195.709
L273.98 205.381
L275.319 214.392
L276.792 222.798
L278.309 230.177
L279.826 236.468
L281.254 241.49
L282.593 245.427
L283.798 248.304
L284.824 250.201
L285.628 251.268
L286.297 251.821
L286.833 251.995
L287.279 251.917
L287.68 251.632
L288.127 251.015
L288.573 249.978
L289.019 248.338
L289.466 245.738
L289.867 241.897
L290.18 236.788
L290.447 228.223
L290.581 218.576
L290.67 197.584
L290.715 200.284
L290.894 227.151
L291.206 239.606
L291.652 248.528
L292.232 255.84
L292.991 262.604
L293.928 268.919
L294.999 274.645
L296.204 279.913
L297.498 284.605
L298.837 288.634
L300.131 291.837
L301.292 294.157
L302.318 295.758
L303.211 296.775
L303.969 297.325
L304.594 297.524
L305.129 297.477
L305.62 297.222
L306.111 296.717
L306.602 295.894
L307.093 294.644
L307.584 292.779
L308.075 289.928
L308.476 286.274
L308.833 280.894
L309.101 273.389
L309.28 262.183
L309.414 238.025
L309.592 269.185
L309.904 281.759
L310.351 290.512
L310.931 297.536
L311.645 303.588
L312.537 309.267
L313.564 314.403
L314.769 319.286
L316.063 323.616
L317.446 327.481
L318.874 330.82
L320.302 333.602
L321.686 335.825
L323.025 337.565
L324.274 338.841
L325.479 339.758
L326.595 340.334
L327.666 340.635
L328.692 340.689
L329.674 340.518
L330.656 340.121
L331.682 339.454
L332.709 338.516
L333.78 337.228
L334.895 335.527
L336.056 333.333
L337.261 330.55
L338.466 327.191
L339.715 323.012
L340.965 318.013
L342.214 312.041
L343.419 305.164
L344.579 297.253
L345.695 288.121
L346.766 277.489
L347.748 265.506
L348.64 251.854
L349.399 236.904
L350.024 220.297
L350.47 202.948
L350.738 185.304
L350.872 164.28
L350.916 117.639
L350.961 162.456
L351.139 176.845
L351.229 177.934
L351.273 177.93
L351.363 177.081
L351.541 172.183
L351.72 159.739
L351.809 136.362
L351.854 142.241
L352.032 165.744
L352.255 171.856
L352.434 172.826
L352.523 172.471
L352.701 170.146
L352.925 163.005
L353.058 153.034
L353.148 130.826
L353.192 135.216
L353.371 160.181
L353.639 168.535
L353.862 170.563
L353.951 170.623
L354.085 169.981
L354.263 167.612
L354.486 160.883
L354.62 151.769
L354.754 125.972
L354.933 157.573
L355.2 166.985
L355.468 169.969
L355.558 170.146
L355.602 170.095
L355.736 169.371
L355.915 166.847
L356.138 159.423
L356.272 148.075
L356.361 108.521
L356.405 141.028
L356.629 162.234
L356.896 169.164
L357.119 170.889
L357.209 170.819
L357.343 169.858
L357.521 166.521
L357.7 158.604
L357.833 138.293
L357.878 127.886
L358.057 161.136
L358.324 170.705
L358.547 172.874
L358.592 172.861
L358.681 172.362
L358.815 170.178
L358.994 162.37
L359.083 151.743
L359.128 135.449
L359.172 142.668
L359.351 167.65
L359.619 175.873
L359.708 176.357
L359.752 176.204
L359.842 174.941
L359.976 169.123
L360.065 157.119
L360.109 118.063
L360.154 157.004
L360.333 178.071
L360.511 182.43
L360.6 179.949
L360.69 164.421
L360.734 165.8
L360.913 200.97
L361.314 228.615
L361.939 254.898
L362.742 279.44
L363.769 303.987
L364.974 327.503
L366.357 350.232
L367.919 372.316
L369.704 394.368
L371.668 415.831
L373.405 433
L373.405 433" style="fill:none;stroke:#ff0000;stroke-linecap:square;"/>
   </g>
   <g id="line2d_4">
    <path clip-path="url(#p7ff5b81e1d)" d="
M72.1786 28.0881
L72.4463 50.5039
L72.8033 63.8286
L73.205 71.3025
L73.5174 73.9421
L73.6959 74.375
L73.7851 74.2821
L73.919 73.7055
L74.0975 71.9247
L74.3206 67.0641
L74.4991 57.7661
L74.5884 44.9658
L74.633 8.53562
L74.6776 43.9791
L74.9008 67.7955
L75.2132 78.0144
L75.5702 83.6523
L75.9272 86.1907
L76.1503 86.5396
L76.2842 86.2851
L76.4627 85.3308
L76.6858 82.8665
L76.909 78.0784
L77.0875 70.3052
L77.2214 54.2953
L77.266 24.7999
L77.3106 51.9134
L77.5338 75.7866
L77.8461 85.4712
L78.2032 90.5548
L78.5155 92.4889
L78.694 92.7734
L78.8279 92.6022
L79.0064 91.8172
L79.2296 89.7486
L79.4973 84.773
L79.7205 75.613
L79.8543 59.706
L79.899 32.6805
L79.9436 56.5973
L80.1221 78.275
L80.4345 89.1875
L80.7915 94.5686
L81.1039 96.606
L81.327 96.9332
L81.4609 96.6935
L81.6394 95.8204
L81.9072 93.0276
L82.1749 87.2552
L82.3534 79.285
L82.4873 63.2765
L82.5319 35.7186
L82.5766 60.2814
L82.7551 81.8215
L83.0675 92.6103
L83.4245 97.8653
L83.7369 99.7989
L83.9154 100.075
L84.0492 99.9039
L84.2277 99.1393
L84.4509 97.1613
L84.7186 92.5488
L84.9418 84.6458
L85.0756 73.7173
L85.1203 65.5543
L85.1649 32.3278
L85.2095 63.7577
L85.4327 86.996
L85.745 96.2448
L86.1021 100.889
L86.4144 102.465
L86.5483 102.585
L86.593 102.554
L86.7268 102.238
L86.95 100.907
L87.2177 97.5758
L87.4855 90.7576
L87.664 80.4794
L87.7532 66.6335
L87.7979 21.5314
L87.7979 21.5314
L87.7979 21.5314
L87.9318 80.9121
L88.1995 94.3584
L88.5565 101.288
L88.8689 103.966
L89.092 104.656
L89.2259 104.637
L89.3598 104.288
L89.5829 102.896
L89.8507 99.471
L90.1185 92.4705
L90.297 81.7482
L90.3862 66.2728
L90.4308 48.3336
L90.4308 48.3336
L90.4308 48.3336
L90.6093 86.9179
L90.8771 97.6923
L91.2341 103.766
L91.5465 106.042
L91.7696 106.492
L91.9035 106.329
L92.082 105.581
L92.3052 103.65
L92.5729 99.2024
L92.7961 91.8126
L92.9299 82.3589
L93.0638 60.2119
L93.2423 89.3025
L93.5547 100.667
L93.9117 105.961
L94.2241 107.84
L94.4026 108.074
L94.5365 107.87
L94.715 107.062
L94.9828 104.464
L95.2505 99.2615
L95.4736 90.0487
L95.6075 74.8431
L95.6522 54.3366
L95.6968 68.7738
L95.8753 91.686
L96.1877 102.463
L96.5447 107.549
L96.8571 109.309
L97.0356 109.479
L97.1695 109.224
L97.3926 108.014
L97.6604 104.924
L97.9281 98.7319
L98.1066 90.1332
L98.2405 70.9784
L98.2851 52.4508
L98.2851 52.4508
L98.2851 52.4508
L98.4636 91.449
L98.7314 102.18
L99.0884 108.178
L99.4008 110.378
L99.6239 110.767
L99.7578 110.563
L99.9363 109.754
L100.204 107.154
L100.472 101.958
L100.695 92.7941
L100.829 77.8628
L100.873 58.9082
L100.918 70.694
L101.097 94.172
L101.409 104.983
L101.766 110.048
L102.078 111.774
L102.257 111.919
L102.391 111.643
L102.614 110.388
L102.882 107.219
L103.149 100.863
L103.328 91.9127
L103.417 81.9785
L103.506 63.6897
L103.685 94.3778
L103.953 104.746
L104.31 110.584
L104.622 112.685
L104.801 113.013
L104.934 112.874
L105.113 112.154
L105.336 110.264
L105.604 105.91
L105.827 98.7729
L106.006 84.5647
L106.095 54.4295
L106.139 78.9339
L106.363 99.6432
L106.675 108.413
L107.032 112.703
L107.3 113.913
L107.434 114.006
L107.567 113.766
L107.746 112.898
L108.014 110.172
L108.281 104.727
L108.505 94.8853
L108.638 76.6851
L108.683 49.1887
L108.683 49.1887
L108.683 49.1887
L108.862 95.6307
L109.129 106.478
L109.486 112.46
L109.799 114.606
L109.977 114.947
L110.111 114.813
L110.29 114.097
L110.513 112.204
L110.781 107.835
L111.004 100.662
L111.182 86.3037
L111.271 58.4835
L111.45 96.8513
L111.718 107.514
L112.075 113.418
L112.387 115.516
L112.566 115.828
L112.7 115.671
L112.878 114.917
L113.101 112.961
L113.369 108.46
L113.592 100.992
L113.726 91.4275
L113.86 70.2022
L114.038 98.5042
L114.351 109.706
L114.708 114.826
L115.02 116.522
L115.154 116.658
L115.199 116.629
L115.332 116.313
L115.556 114.963
L115.823 111.599
L116.091 104.781
L116.27 94.6902
L116.359 81.6901
L116.404 49.6718
L116.448 79.6234
L116.671 102.808
L116.984 111.832
L117.341 116.17
L117.608 117.364
L117.742 117.436
L117.876 117.167
L118.099 115.902
L118.367 112.676
L118.635 106.157
L118.813 96.8128
L118.903 85.9461
L118.947 70.8929
L118.992 74.5527
L119.17 100.468
L119.483 111.456
L119.84 116.48
L120.108 117.99
L120.286 118.196
L120.42 117.951
L120.598 117.059
L120.866 114.246
L121.134 108.581
L121.357 98.0485
L121.446 87.7947
L121.536 72.2058
L121.714 100.906
L121.982 111.096
L122.339 116.775
L122.651 118.711
L122.83 118.919
L122.964 118.671
L123.142 117.771
L123.41 114.932
L123.678 109.199
L123.901 98.4362
L123.99 87.6713
L124.035 73.0181
L124.079 75.6535
L124.258 101.957
L124.57 112.962
L124.927 117.962
L125.195 119.435
L125.373 119.607
L125.507 119.329
L125.73 118.026
L125.998 114.698
L126.266 107.901
L126.445 97.8273
L126.534 84.8742
L126.578 53.7158
L126.623 82.6404
L126.802 103.624
L127.114 114.021
L127.471 118.803
L127.739 120.162
L127.873 120.292
L128.006 120.07
L128.185 119.197
L128.453 116.388
L128.72 110.68
L128.944 99.9554
L129.033 89.2668
L129.077 74.9014
L129.122 76.767
L129.301 103.375
L129.613 114.388
L129.97 119.358
L130.238 120.788
L130.372 120.946
L130.416 120.919
L130.55 120.601
L130.773 119.207
L131.041 115.684
L131.309 108.389
L131.487 96.8667
L131.621 75.3644
L131.8 103.854
L132.067 114.001
L132.424 119.602
L132.737 121.429
L132.871 121.579
L132.915 121.55
L133.049 121.218
L133.272 119.789
L133.54 116.186
L133.763 110.399
L133.942 100.84
L134.031 89.3824
L134.076 71.6462
L134.12 81.1508
L134.299 105.163
L134.611 115.907
L134.968 120.75
L135.236 122.088
L135.37 122.192
L135.504 121.931
L135.682 120.981
L135.95 117.968
L136.218 111.764
L136.396 103.055
L136.53 83.1411
L136.575 68.9605
L136.575 68.9605
L136.575 68.9605
L136.753 104.646
L137.021 115.145
L137.378 120.84
L137.69 122.669
L137.824 122.805
L137.958 122.572
L138.137 121.656
L138.36 119.349
L138.628 113.938
L138.851 103.993
L138.985 85.0507
L139.029 64.8306
L139.029 64.8306
L139.029 64.8306
L139.208 105.104
L139.475 115.738
L139.832 121.461
L140.145 123.279
L140.279 123.402
L140.413 123.151
L140.591 122.199
L140.859 119.141
L141.127 112.774
L141.305 103.642
L141.394 93.2495
L141.484 78.7416
L141.662 106.675
L141.93 116.75
L142.287 122.242
L142.555 123.814
L142.689 123.999
L142.733 123.977
L142.867 123.655
L143.09 122.194
L143.358 118.436
L143.581 112.263
L143.76 101.465
L143.849 85.7909
L143.894 69.012
L143.894 69.012
L143.894 69.012
L144.072 106.602
L144.34 117.14
L144.652 122.334
L144.965 124.394
L145.098 124.588
L145.143 124.567
L145.277 124.245
L145.5 122.769
L145.768 118.95
L145.991 112.627
L146.169 101.308
L146.303 77.7323
L146.482 107.831
L146.75 118.027
L147.062 123.081
L147.374 125.03
L147.508 125.172
L147.642 124.92
L147.821 123.934
L148.044 121.438
L148.312 115.447
L148.49 107.057
L148.624 89.1284
L148.669 57.6293
L148.669 57.6293
L148.669 57.6293
L148.802 104.131
L149.07 117.203
L149.383 123.094
L149.695 125.471
L149.873 125.763
L150.007 125.513
L150.186 124.516
L150.409 121.977
L150.677 115.834
L150.855 107.067
L150.989 86.4318
L151.034 75.6307
L151.212 108.99
L151.48 119.333
L151.792 124.385
L152.06 126.138
L152.194 126.361
L152.239 126.344
L152.373 126.017
L152.551 124.89
L152.774 122.101
L152.997 116.841
L153.176 108.41
L153.31 90.1015
L153.354 64.0782
L153.354 64.0782
L153.354 64.0782
L153.533 109.195
L153.801 119.867
L154.113 124.999
L154.381 126.756
L154.515 126.966
L154.559 126.942
L154.693 126.588
L154.916 124.961
L155.184 120.677
L155.407 113.203
L155.541 103.35
L155.63 81.5582
L155.675 85.5227
L155.853 111.293
L156.121 121.122
L156.434 125.925
L156.701 127.471
L156.835 127.568
L156.969 127.231
L157.148 126.049
L157.371 123.093
L157.594 117.396
L157.772 107.718
L157.862 95.7483
L157.906 74.8356
L157.951 89.9073
L158.129 112.606
L158.442 123.046
L158.754 127.122
L158.977 128.159
L159.067 128.219
L159.111 128.174
L159.245 127.736
L159.468 125.877
L159.691 122.088
L159.914 114.434
L160.048 104.018
L160.138 75.8407
L160.182 90.728
L160.361 113.461
L160.673 123.879
L160.986 127.891
L161.209 128.851
L161.298 128.868
L161.432 128.505
L161.61 127.231
L161.833 124.007
L162.057 117.594
L162.235 105.467
L162.324 81.1321
L162.369 89.9487
L162.547 114.131
L162.815 123.75
L163.128 128.323
L163.395 129.566
L163.485 129.543
L163.618 129.099
L163.842 127.131
L164.065 123.014
L164.288 114.256
L164.422 100.182
L164.466 84.6681
L164.511 89.4736
L164.69 114.935
L164.957 124.646
L165.27 129.183
L165.493 130.275
L165.582 130.309
L165.716 129.934
L165.894 128.563
L166.118 125.006
L166.341 117.577
L166.475 107.462
L166.564 82.5794
L166.608 92.3592
L166.787 116.272
L167.055 125.8
L167.367 130.176
L167.59 131.108
L167.679 131.058
L167.813 130.525
L168.037 128.224
L168.26 123.29
L168.438 115.014
L168.572 96.7193
L168.617 71.3452
L168.617 71.3452
L168.617 71.3452
L168.795 115.912
L169.063 126.408
L169.375 131.033
L169.598 131.979
L169.688 131.906
L169.822 131.301
L170.045 128.738
L170.268 123.12
L170.446 112.832
L170.536 98.3672
L170.58 70.4732
L170.58 70.4732
L170.58 70.4732
L170.759 117.244
L171.026 127.728
L171.339 132.206
L171.562 132.94
L171.651 132.743
L171.83 131.445
L172.053 127.594
L172.276 118.614
L172.41 102.547
L172.455 73.878
L172.499 99.8082
L172.678 120.995
L172.945 130.023
L173.213 133.466
L173.392 134.026
L173.481 133.842
L173.659 132.466
L173.883 128.202
L174.061 120.661
L174.195 105.272
L174.24 82.4656
L174.284 100.517
L174.463 122.679
L174.731 131.731
L174.998 134.948
L175.132 135.268
L175.221 135.041
L175.4 133.414
L175.623 128.219
L175.802 117.801
L175.935 87.9874
L175.98 108.223
L176.203 128.043
L176.471 134.908
L176.694 136.694
L176.739 136.735
L176.783 136.671
L176.917 135.821
L177.096 132.785
L177.274 125.826
L177.408 111.537
L177.453 93.943
L177.497 103.389
L177.676 127.416
L177.944 136.303
L178.167 138.463
L178.211 138.501
L178.256 138.411
L178.39 137.298
L178.568 133.189
L178.747 121.952
L178.836 98.0865
L178.881 106.62
L179.059 130.93
L179.327 139.444
L179.506 140.711
L179.595 140.303
L179.729 138.116
L179.907 129.863
L179.996 117.919
L180.041 93.1432
L180.086 114.315
L180.264 136.064
L180.487 142.89
L180.577 143.58
L180.621 143.544
L180.71 142.623
L180.844 138.239
L180.978 123.228
L181.023 90.3623
L181.067 121.948
L181.246 142.746
L181.424 147.537
L181.469 147.588
L181.558 146.063
L181.648 140.949
L181.737 120.01
L181.782 126.471
L181.96 151.939
L182.049 154.031
L182.094 153.12
L182.183 138.246
L182.228 142.739
L182.451 183.842
L182.897 215.479
L183.567 245.76
L184.414 273.754
L185.396 299.004
L186.512 322.1
L187.717 342.508
L188.966 359.991
L190.216 374.497
L191.465 386.505
L192.67 396.008
L193.786 403.152
L194.812 408.407
L195.75 412.145
L196.598 414.673
L197.312 416.176
L197.936 417.019
L198.472 417.388
L198.918 417.442
L199.364 417.259
L199.855 416.778
L200.391 415.908
L201.016 414.413
L201.685 412.196
L202.399 409.05
L203.158 404.68
L203.916 398.969
L204.63 391.843
L205.21 383.931
L205.657 375.129
L205.969 365.194
L206.192 350.266
L206.326 328.304
L206.505 355.444
L206.772 364.355
L207.129 368.996
L207.486 370.871
L207.754 371.344
L207.933 371.354
L208.156 371.094
L208.468 370.311
L208.914 368.498
L209.495 365.134
L210.253 359.259
L211.101 350.865
L212.038 339.322
L213.02 324.431
L214.002 306.118
L214.939 284.48
L215.787 259.889
L216.546 231.314
L217.126 201.378
L217.527 170.336
L217.751 138.256
L217.84 107.46
L217.884 122.379
L217.929 124.595
L217.974 123.129
L218.063 108.501
L218.108 92.8929
L218.108 92.8929
L218.108 92.8929
L218.286 124.328
L218.331 124.787
L218.375 124.347
L218.465 120.754
L218.554 111.109
L218.643 96.4643
L218.822 122.219
L218.955 125.047
L219 125.009
L219.089 123.637
L219.223 117.432
L219.312 106.754
L219.357 91.0103
L219.402 96.2941
L219.58 120.345
L219.803 125.408
L219.848 125.434
L219.937 124.667
L220.071 121.171
L220.205 112.659
L220.339 87.2992
L220.517 118.216
L220.741 125.083
L220.874 125.874
L220.964 125.391
L221.098 123.029
L221.276 114.964
L221.365 104.918
L221.455 89.2504
L221.633 117.48
L221.901 125.461
L222.035 126.324
L222.079 126.284
L222.213 125.189
L222.392 120.908
L222.57 109.506
L222.659 87.0987
L222.704 92.4228
L222.883 117.302
L223.15 125.465
L223.329 126.783
L223.374 126.76
L223.463 126.304
L223.641 123.532
L223.82 116.832
L223.954 103.786
L224.043 88.2437
L224.221 116.592
L224.489 125.354
L224.712 127.24
L224.757 127.235
L224.846 126.858
L225.025 124.481
L225.203 118.898
L225.337 109.555
L225.471 89.2337
L225.649 116.6
L225.917 125.476
L226.14 127.636
L226.185 127.708
L226.23 127.669
L226.363 126.868
L226.542 123.928
L226.72 117.438
L226.854 105.708
L226.944 75.6232
L226.988 100.078
L227.211 120.3
L227.479 126.789
L227.702 128.156
L227.792 127.95
L227.925 126.812
L228.104 123.356
L228.282 115.852
L228.416 100.289
L228.461 76.4463
L228.506 95.9192
L228.684 117.647
L228.952 126.152
L229.175 128.438
L229.264 128.59
L229.309 128.515
L229.443 127.665
L229.621 124.809
L229.8 118.739
L229.934 108.507
L230.023 80.5991
L230.067 95.1226
L230.246 117.722
L230.514 126.393
L230.782 128.96
L230.826 129.018
L230.871 128.977
L231.005 128.255
L231.183 125.665
L231.362 120.181
L231.54 106.045
L231.629 79.1476
L231.808 116.544
L232.076 126.254
L232.343 129.274
L232.433 129.431
L232.477 129.364
L232.611 128.568
L232.79 125.874
L232.968 120.221
L233.102 111.163
L233.236 86.3157
L233.414 117.307
L233.682 126.746
L233.95 129.692
L234.039 129.833
L234.084 129.761
L234.218 128.95
L234.396 126.239
L234.575 120.565
L234.709 111.461
L234.843 87.2799
L235.021 117.735
L235.289 127.148
L235.557 130.088
L235.646 130.229
L235.69 130.156
L235.824 129.343
L236.003 126.627
L236.181 120.935
L236.315 111.782
L236.449 88.3199
L236.628 118.201
L236.895 127.574
L237.163 130.486
L237.252 130.615
L237.297 130.535
L237.431 129.695
L237.609 126.92
L237.788 121.09
L237.922 111.563
L238.011 90.8947
L238.056 92.4849
L238.234 119.009
L238.502 128.119
L238.77 130.903
L238.859 130.987
L238.948 130.679
L239.127 128.768
L239.35 122.818
L239.528 110.129
L239.573 102.185
L239.618 73.782
L239.662 99.333
L239.841 120.367
L240.108 128.851
L240.332 131.194
L240.421 131.38
L240.465 131.324
L240.599 130.543
L240.778 127.82
L240.956 122.015
L241.09 112.471
L241.18 91.5624
L241.224 93.7146
L241.403 120
L241.67 129.038
L241.938 131.694
L241.983 131.755
L242.027 131.714
L242.161 130.966
L242.34 128.265
L242.518 122.443
L242.652 112.798
L242.741 90.9946
L242.786 95.0885
L242.965 120.616
L243.232 129.548
L243.455 131.953
L243.545 132.127
L243.589 132.058
L243.723 131.205
L243.902 128.268
L244.08 121.89
L244.214 110.567
L244.259 101.505
L244.303 69.0038
L244.303 69.0038
L244.303 69.0038
L244.437 116.331
L244.705 128.649
L244.973 132.265
L245.062 132.501
L245.107 132.459
L245.241 131.669
L245.419 128.789
L245.598 122.444
L245.731 111.129
L245.776 102.061
L245.821 69.8099
L245.821 69.8099
L245.821 69.8099
L245.955 116.906
L246.222 129.18
L246.49 132.694
L246.579 132.876
L246.624 132.8
L246.758 131.882
L246.936 128.702
L247.115 121.59
L247.249 107.366
L247.293 90.7067
L247.338 98.0862
L247.516 122.47
L247.784 131.129
L248.007 133.206
L248.052 133.257
L248.097 133.192
L248.231 132.281
L248.409 129.04
L248.588 121.654
L248.721 106.022
L248.766 81.1325
L248.811 102.087
L248.989 123.579
L249.257 131.818
L249.48 133.632
L249.525 133.621
L249.614 133.234
L249.792 130.812
L249.971 125.05
L250.105 115.064
L250.194 88.9894
L250.239 100.782
L250.417 123.927
L250.685 132.292
L250.908 134.033
L250.997 133.824
L251.131 132.504
L251.31 128.257
L251.488 117.701
L251.622 91.5367
L251.801 123.585
L252.068 132.592
L252.292 134.435
L252.381 134.219
L252.515 132.832
L252.693 128.316
L252.872 116.549
L252.961 90.984
L253.006 101.99
L253.184 125.291
L253.452 133.467
L253.63 134.842
L253.675 134.828
L253.764 134.374
L253.943 131.498
L254.121 124.235
L254.255 108.113
L254.3 76.7076
L254.344 105.956
L254.523 126.537
L254.791 134.215
L254.969 135.279
L255.058 134.91
L255.192 133.119
L255.371 127.342
L255.505 116.534
L255.549 108.041
L255.594 53.1103
L255.639 107.775
L255.817 127.507
L256.085 134.895
L256.219 135.728
L256.263 135.687
L256.397 134.575
L256.576 130.127
L256.71 122.318
L256.799 109.017
L256.843 60.3362
L256.888 108.55
L257.067 128.334
L257.334 135.548
L257.468 136.2
L257.557 135.779
L257.691 133.709
L257.87 126.705
L258.004 110.501
L258.048 75.9242
L258.093 108.888
L258.272 129.129
L258.539 136.207
L258.629 136.693
L258.673 136.66
L258.762 136.033
L258.896 133.452
L259.075 124.534
L259.164 111.94
L259.209 82.5924
L259.253 109.373
L259.432 130.006
L259.655 136.421
L259.789 137.228
L259.878 136.762
L260.012 134.345
L260.19 125.522
L260.28 112.844
L260.324 81.7083
L260.369 110.671
L260.547 131.072
L260.771 137.226
L260.86 137.787
L260.904 137.741
L260.994 136.974
L261.128 133.784
L261.261 126.206
L261.351 112.631
L261.395 66.816
L261.395 66.816
L261.395 66.816
L261.529 126.633
L261.752 136.804
L261.931 138.385
L262.02 137.701
L262.154 134.463
L262.288 126.358
L262.422 98.5952
L262.466 117.417
L262.69 135.843
L262.913 139.054
L263.002 138.377
L263.136 134.883
L263.27 125.551
L263.359 99.0274
L263.404 111.858
L263.582 134.3
L263.805 139.706
L263.85 139.766
L263.939 138.962
L264.073 134.847
L264.207 122.684
L264.296 106.459
L264.475 135.007
L264.698 140.542
L264.742 140.502
L264.832 139.342
L264.966 133.9
L265.055 124.571
L265.144 107.172
L265.323 136.504
L265.501 141.324
L265.546 141.427
L265.635 140.407
L265.769 134.697
L265.858 123.957
L265.903 106.287
L265.947 116.057
L266.126 138.861
L266.304 142.399
L266.394 141.223
L266.527 134.195
L266.661 109.654
L266.84 140.035
L266.974 143.448
L267.018 143.411
L267.108 141.523
L267.241 130.481
L267.331 114.401
L267.509 142.28
L267.643 144.698
L267.732 142.684
L267.822 136.06
L267.866 128.289
L267.911 92.1578
L267.955 127.216
L268.134 145.337
L268.179 146.101
L268.223 146.003
L268.312 142.799
L268.402 131.183
L268.446 92.7867
L268.491 130.477
L268.67 147.61
L268.714 147.75
L268.803 144.096
L268.937 125.723
L269.116 149.729
L269.16 149.441
L269.25 142.265
L269.294 128.192
L269.339 132.203
L269.473 151.996
L269.517 151.872
L269.607 140.263
L269.651 126.715
L269.785 155.313
L269.83 153.048
L269.874 141.811
L269.919 143.58
L270.008 159.48
L270.053 152.913
L270.098 151.207
L270.142 165.633
L270.187 143.563
L270.365 230.126
L270.767 295.538
L271.392 360.439
L272.24 425.062
L272.36 433
M349.99 433
L350.381 333.658
L350.559 249.602
L350.604 158.681
L350.693 181.916
L350.738 186.243
L350.782 174.561
L350.827 181.494
L350.872 180.854
L350.916 160.284
L350.916 160.284
L350.916 160.284
L350.961 180.901
L351.006 177.647
L351.05 149.233
L351.095 177.634
L351.139 178.611
L351.184 167.001
L351.229 167.278
L351.273 177.229
L351.318 176.48
L351.407 163.399
L351.496 176.199
L351.541 170.544
L351.586 125.888
L351.63 169.279
L351.675 174.968
L351.72 174.429
L351.764 167.615
L351.809 132.297
L351.809 132.297
L351.809 132.297
L351.943 173.882
L351.987 168.979
L352.032 149.757
L352.077 162.809
L352.166 173.569
L352.211 171.593
L352.255 163.981
L352.3 134.971
L352.3 134.971
L352.3 134.971
L352.434 172.809
L352.523 162.457
L352.568 136.195
L352.568 136.195
L352.568 136.195
L352.701 172.248
L352.746 170.504
L352.791 164.381
L352.835 140.045
L352.88 160.479
L352.969 171.545
L353.014 171.139
L353.103 157.071
L353.148 148.117
L353.282 171.308
L353.326 169.878
L353.415 149.958
L353.46 154.801
L353.594 170.911
L353.683 163.517
L353.728 146.072
L353.772 155.956
L353.906 170.622
L353.996 163.473
L354.04 147.501
L354.085 154.566
L354.219 170.443
L354.308 164.342
L354.397 150.673
L354.531 170.273
L354.576 169.369
L354.665 156.094
L354.71 141.894
L354.71 141.894
L354.71 141.894
L354.843 170.008
L354.888 169.756
L354.977 159.736
L355.022 120.396
L355.067 158.7
L355.2 170.029
L355.29 162.57
L355.334 146.13
L355.379 154.195
L355.513 170.142
L355.602 164.686
L355.691 147.338
L355.825 170.116
L355.87 169.532
L355.959 157.729
L356.004 134.722
L356.004 134.722
L356.004 134.722
L356.138 170.029
L356.182 169.951
L356.272 160.087
L356.316 118.494
L356.361 159.312
L356.495 170.238
L356.584 161.22
L356.629 132.875
L356.673 158.724
L356.807 170.445
L356.896 161.161
L356.941 126.602
L356.986 159.769
L357.119 170.543
L357.209 159.409
L357.253 135.428
L357.253 135.428
L357.253 135.428
L357.387 171.083
L357.432 170.327
L357.566 152.817
L357.7 171.435
L357.789 162.064
L357.833 111.586
L357.833 111.586
L357.833 111.586
L357.967 171.842
L358.012 170.725
L358.057 165.417
L358.101 145.83
L358.146 160.011
L358.235 172.154
L358.28 171.487
L358.324 166.564
L358.369 148.472
L358.414 160.364
L358.503 172.71
L358.547 171.674
L358.592 165.675
L358.637 133.028
L358.681 164.303
L358.771 173.335
L358.815 170.721
L358.905 154.814
L358.994 173.739
L359.038 172.88
L359.083 165.908
L359.128 140.375
L359.128 140.375
L359.128 140.375
L359.217 174.125
L359.262 173.87
L359.306 167.149
L359.351 142.572
L359.351 142.572
L359.351 142.572
L359.44 175.128
L359.485 173.943
L359.574 160.127
L359.663 176.141
L359.708 171.226
L359.752 125.031
L359.752 125.031
L359.752 125.031
L359.842 177.104
L359.886 173.655
L359.931 139.063
L359.976 173.27
L360.02 178.163
L360.02 178.163
L360.02 178.163
L360.109 156.207
L360.199 178.429
L360.243 161.047
L360.288 175.469
L360.333 180.478
L360.377 167.333
L360.422 176.928
L360.466 181.623
L360.511 147.389
L360.511 147.389
L360.511 147.389
L360.556 182.737
L360.645 181.585
L360.69 181.689
L360.734 185.353
L360.779 171.38
L360.779 171.38
L360.779 171.38
L361.002 310.018
L361.277 433
L361.277 433" style="fill:none;stroke:#00bfbf;stroke-linecap:square;"/>
   </g>
   <g id="matplotlib.axis_1">
    <g id="xtick_1">
     <g id="line2d_5">
      <path clip-path="url(#p7ff5b81e1d)" d="
M72 388.8
L72 43.2" style="fill:none;opacity:0.3;stroke:#808080;stroke-dasharray:1.000000,3.000000;stroke-dashoffset:0.0;stroke-width:0.5;"/>
     </g>
     <g id="line2d_6">
      <defs>
       <path d="
M0 0
L0 -4" id="m93b0483c22" style="stroke:#000000;stroke-width:0.5;"/>
      </defs>
      <g>
       <use style="stroke:#000000;stroke-width:0.5;" x="72.0" xlink:href="#m93b0483c22" y="388.8"/>
      </g>
     </g>
     <g id="line2d_7">
      <defs>
       <path d="
M0 0
L0 4" id="m741efc42ff" style="stroke:#000000;stroke-width:0.5;"/>
      </defs>
      <g>
       <use style="stroke:#000000;stroke-width:0.5;" x="72.0" xlink:href="#m741efc42ff" y="43.2"/>
      </g>
     </g>
     <g id="text_1">
      <!-- 0.0 -->
      <defs>
       <path d="
M31.7812 3.42188
Q39.2656 3.42188 42.9688 11.625
Q46.6875 19.8281 46.6875 36.375
Q46.6875 52.9844 42.9688 61.1875
Q39.2656 69.3906 31.7812 69.3906
Q24.3125 69.3906 20.5938 61.1875
Q16.8906 52.9844 16.8906 36.375
Q16.8906 19.8281 20.5938 11.625
Q24.3125 3.42188 31.7812 3.42188
M31.7812 -1.42188
Q19.9219 -1.42188 13.25 8.53125
Q6.59375 18.5 6.59375 36.375
Q6.59375 54.2969 13.25 64.25
Q19.9219 74.2188 31.7812 74.2188
Q43.7031 74.2188 50.3438 64.25
Q56.9844 54.2969 56.9844 36.375
Q56.9844 18.5 50.3438 8.53125
Q43.7031 -1.42188 31.7812 -1.42188" id="BitstreamVeraSerif-Roman-30"/>
       <path d="
M9.42188 5.07812
Q9.42188 7.8125 11.2812 9.71875
Q13.1406 11.625 15.9219 11.625
Q18.6094 11.625 20.5 9.71875
Q22.4062 7.8125 22.4062 5.07812
Q22.4062 2.39062 20.5 0.484375
Q18.6094 -1.42188 15.9219 -1.42188
Q13.1406 -1.42188 11.2812 0.453125
Q9.42188 2.34375 9.42188 5.07812" id="BitstreamVeraSerif-Roman-2e"/>
      </defs>
      <g transform="translate(60.33625 404.9575)scale(0.16 -0.16)">
       <use xlink:href="#BitstreamVeraSerif-Roman-30"/>
       <use x="63.623046875" xlink:href="#BitstreamVeraSerif-Roman-2e"/>
       <use x="95.41015625" xlink:href="#BitstreamVeraSerif-Roman-30"/>
      </g>
     </g>
    </g>
    <g id="xtick_2">
     <g id="line2d_8">
      <path clip-path="url(#p7ff5b81e1d)" d="
M161.28 388.8
L161.28 43.2" style="fill:none;opacity:0.3;stroke:#808080;stroke-dasharray:1.000000,3.000000;stroke-dashoffset:0.0;stroke-width:0.5;"/>
     </g>
     <g id="line2d_9">
      <g>
       <use style="stroke:#000000;stroke-width:0.5;" x="161.28" xlink:href="#m93b0483c22" y="388.8"/>
      </g>
     </g>
     <g id="line2d_10">
      <g>
       <use style="stroke:#000000;stroke-width:0.5;" x="161.28" xlink:href="#m741efc42ff" y="43.2"/>
      </g>
     </g>
     <g id="text_2">
      <!-- 0.5 -->
      <defs>
       <path d="
M50.2969 72.9062
L50.2969 64.8906
L16.8906 64.8906
L16.8906 44
Q19.4375 45.75 22.8281 46.625
Q26.2188 47.5156 30.4219 47.5156
Q42.2344 47.5156 49.0625 40.9688
Q55.9062 34.4219 55.9062 23.0938
Q55.9062 11.5312 49 5.04688
Q42.0938 -1.42188 29.5938 -1.42188
Q24.5625 -1.42188 19.2812 -0.1875
Q14.0156 1.03125 8.5 3.51562
L8.5 17.6719
L14.0156 17.6719
Q14.4531 10.75 18.4219 7.07812
Q22.4062 3.42188 29.5938 3.42188
Q37.3125 3.42188 41.4531 8.5
Q45.6094 13.5781 45.6094 23.0938
Q45.6094 32.5625 41.4844 37.6094
Q37.3594 42.6719 29.5938 42.6719
Q25.2031 42.6719 21.8438 41.1094
Q18.5 39.5469 15.9219 36.2812
L11.7188 36.2812
L11.7188 72.9062
z
" id="BitstreamVeraSerif-Roman-35"/>
      </defs>
      <g transform="translate(149.7025 404.9575)scale(0.16 -0.16)">
       <use xlink:href="#BitstreamVeraSerif-Roman-30"/>
       <use x="63.623046875" xlink:href="#BitstreamVeraSerif-Roman-2e"/>
       <use x="95.41015625" xlink:href="#BitstreamVeraSerif-Roman-35"/>
      </g>
     </g>
    </g>
    <g id="xtick_3">
     <g id="line2d_11">
      <path clip-path="url(#p7ff5b81e1d)" d="
M250.56 388.8
L250.56 43.2" style="fill:none;opacity:0.3;stroke:#808080;stroke-dasharray:1.000000,3.000000;stroke-dashoffset:0.0;stroke-width:0.5;"/>
     </g>
     <g id="line2d_12">
      <g>
       <use style="stroke:#000000;stroke-width:0.5;" x="250.56" xlink:href="#m93b0483c22" y="388.8"/>
      </g>
     </g>
     <g id="line2d_13">
      <g>
       <use style="stroke:#000000;stroke-width:0.5;" x="250.56" xlink:href="#m741efc42ff" y="43.2"/>
      </g>
     </g>
     <g id="text_3">
      <!-- 1.0 -->
      <defs>
       <path d="
M14.2031 0
L14.2031 5.17188
L26.9062 5.17188
L26.9062 65.8281
L12.2031 56.2969
L12.2031 62.7031
L29.9844 74.2188
L36.7188 74.2188
L36.7188 5.17188
L49.4219 5.17188
L49.4219 0
z
" id="BitstreamVeraSerif-Roman-31"/>
      </defs>
      <g transform="translate(239.345 404.9575)scale(0.16 -0.16)">
       <use xlink:href="#BitstreamVeraSerif-Roman-31"/>
       <use x="63.623046875" xlink:href="#BitstreamVeraSerif-Roman-2e"/>
       <use x="95.41015625" xlink:href="#BitstreamVeraSerif-Roman-30"/>
      </g>
     </g>
    </g>
    <g id="xtick_4">
     <g id="line2d_14">
      <path clip-path="url(#p7ff5b81e1d)" d="
M339.84 388.8
L339.84 43.2" style="fill:none;opacity:0.3;stroke:#808080;stroke-dasharray:1.000000,3.000000;stroke-dashoffset:0.0;stroke-width:0.5;"/>
     </g>
     <g id="line2d_15">
      <g>
       <use style="stroke:#000000;stroke-width:0.5;" x="339.84" xlink:href="#m93b0483c22" y="388.8"/>
      </g>
     </g>
     <g id="line2d_16">
      <g>
       <use style="stroke:#000000;stroke-width:0.5;" x="339.84" xlink:href="#m741efc42ff" y="43.2"/>
      </g>
     </g>
     <g id="text_4">
      <!-- 1.5 -->
      <g transform="translate(328.71125 404.9575)scale(0.16 -0.16)">
       <use xlink:href="#BitstreamVeraSerif-Roman-31"/>
       <use x="63.623046875" xlink:href="#BitstreamVeraSerif-Roman-2e"/>
       <use x="95.41015625" xlink:href="#BitstreamVeraSerif-Roman-35"/>
      </g>
     </g>
    </g>
    <g id="xtick_5">
     <g id="line2d_17">
      <path clip-path="url(#p7ff5b81e1d)" d="
M429.12 388.8
L429.12 43.2" style="fill:none;opacity:0.3;stroke:#808080;stroke-dasharray:1.000000,3.000000;stroke-dashoffset:0.0;stroke-width:0.5;"/>
     </g>
     <g id="line2d_18">
      <g>
       <use style="stroke:#000000;stroke-width:0.5;" x="429.12" xlink:href="#m93b0483c22" y="388.8"/>
      </g>
     </g>
     <g id="line2d_19">
      <g>
       <use style="stroke:#000000;stroke-width:0.5;" x="429.12" xlink:href="#m741efc42ff" y="43.2"/>
      </g>
     </g>
     <g id="text_5">
      <!-- 2.0 -->
      <defs>
       <path d="
M12.7969 55.5156
L7.32812 55.5156
L7.32812 68.5
Q12.5469 71.2969 17.8438 72.75
Q23.1406 74.2188 28.2188 74.2188
Q39.5938 74.2188 46.1875 68.7031
Q52.7812 63.1875 52.7812 53.7188
Q52.7812 43.0156 37.8438 28.125
Q36.6719 27 36.0781 26.4219
L17.6719 8.01562
L48.0938 8.01562
L48.0938 17
L53.8125 17
L53.8125 0
L6.78125 0
L6.78125 5.32812
L28.9062 27.3906
Q36.2344 34.7188 39.3594 40.8438
Q42.4844 46.9688 42.4844 53.7188
Q42.4844 61.0781 38.6406 65.2344
Q34.8125 69.3906 28.0781 69.3906
Q21.0938 69.3906 17.2812 65.9219
Q13.4844 62.4531 12.7969 55.5156" id="BitstreamVeraSerif-Roman-32"/>
      </defs>
      <g transform="translate(417.47125 404.9575)scale(0.16 -0.16)">
       <use xlink:href="#BitstreamVeraSerif-Roman-32"/>
       <use x="63.623046875" xlink:href="#BitstreamVeraSerif-Roman-2e"/>
       <use x="95.41015625" xlink:href="#BitstreamVeraSerif-Roman-30"/>
      </g>
     </g>
    </g>
    <g id="xtick_6">
     <g id="line2d_20">
      <path clip-path="url(#p7ff5b81e1d)" d="
M518.4 388.8
L518.4 43.2" style="fill:none;opacity:0.3;stroke:#808080;stroke-dasharray:1.000000,3.000000;stroke-dashoffset:0.0;stroke-width:0.5;"/>
     </g>
     <g id="line2d_21">
      <g>
       <use style="stroke:#000000;stroke-width:0.5;" x="518.4" xlink:href="#m93b0483c22" y="388.8"/>
      </g>
     </g>
     <g id="line2d_22">
      <g>
       <use style="stroke:#000000;stroke-width:0.5;" x="518.4" xlink:href="#m741efc42ff" y="43.2"/>
      </g>
     </g>
     <g id="text_6">
      <!-- 2.5 -->
      <g transform="translate(506.8375 404.9575)scale(0.16 -0.16)">
       <use xlink:href="#BitstreamVeraSerif-Roman-32"/>
       <use x="63.623046875" xlink:href="#BitstreamVeraSerif-Roman-2e"/>
       <use x="95.41015625" xlink:href="#BitstreamVeraSerif-Roman-35"/>
      </g>
     </g>
    </g>
    <g id="text_7">
     <!-- $\Omega$ -->
     <defs>
      <path d="
M7.71875 0
L4.39062 16.6094
L7.32812 16.6094
Q7.85938 13.7188 8.29688 11.5
Q8.73438 9.28125 9.4375 8.375
Q10.1562 7.46875 11.7188 7.17188
Q13.2812 6.89062 16.8906 6.89062
L23 6.89062
Q21.5312 12.5469 15.6875 21.6562
Q9.85938 30.7656 7.73438 34.8906
Q5.60938 39.0156 5.60938 45.5156
Q5.60938 53.0781 10.0938 58.7656
Q14.5938 64.4531 21.7031 67.4844
Q28.8125 70.5156 36.0781 70.5156
Q43.3125 70.5156 50.4062 67.4844
Q57.5156 64.4531 62 58.7188
Q66.5 52.9844 66.5 45.5156
Q66.5 40.4375 64.6406 35.9375
Q62.7969 31.4531 59.9062 26.9531
Q57.0312 22.4688 53.6875 16.9375
Q50.3438 11.4219 49.125 6.89062
L55.1719 6.89062
Q58.8438 6.89062 60.4531 7.17188
Q62.0625 7.46875 62.7344 8.375
Q63.4219 9.28125 63.8438 11.5
Q64.2656 13.7188 64.7969 16.6094
L67.6719 16.6094
L64.4062 0
L46.6875 0
Q45.7031 0 45.7031 1.3125
Q45.7031 6.39062 46.9375 11.2656
Q48.1875 16.1562 50.625 23.0938
Q53.0781 30.0312 54.4375 35.3281
Q55.8125 40.625 55.8125 45.5156
Q55.8125 51.5156 53.4688 56.6406
Q51.125 61.7656 46.625 64.8438
Q42.1406 67.9219 36.0781 67.9219
Q26.9531 67.9219 21.625 61.4062
Q16.3125 54.8906 16.3125 45.5156
Q16.3594 40.375 17.5312 35.8281
Q18.7031 31.2969 21.3125 23.7188
Q23.9219 16.1562 25.1719 11.2656
Q26.4219 6.39062 26.4219 1.3125
Q26.4219 0 25.3906 0
z
" id="Cmr10-ad"/>
     </defs>
     <g transform="translate(288.63 426.9621875)scale(0.18 -0.18)">
      <use transform="translate(0.0 0.484375)" xlink:href="#Cmr10-ad"/>
     </g>
    </g>
   </g>
   <g id="matplotlib.axis_2">
    <g id="ytick_1">
     <g id="line2d_23">
      <path clip-path="url(#p7ff5b81e1d)" d="
M72 388.8
L518.4 388.8" style="fill:none;opacity:0.3;stroke:#808080;stroke-dasharray:1.000000,3.000000;stroke-dashoffset:0.0;stroke-width:0.5;"/>
     </g>
     <g id="line2d_24">
      <defs>
       <path d="
M0 0
L4 0" id="m728421d6d4" style="stroke:#000000;stroke-width:0.5;"/>
      </defs>
      <g>
       <use style="stroke:#000000;stroke-width:0.5;" x="72.0" xlink:href="#m728421d6d4" y="388.8"/>
      </g>
     </g>
     <g id="line2d_25">
      <defs>
       <path d="
M0 0
L-4 0" id="mcb0005524f" style="stroke:#000000;stroke-width:0.5;"/>
      </defs>
      <g>
       <use style="stroke:#000000;stroke-width:0.5;" x="518.4" xlink:href="#mcb0005524f" y="388.8"/>
      </g>
     </g>
     <g id="text_8">
      <!-- $\mathdefault{10^{-9}}$ -->
      <defs>
       <path d="
M46.7812 32.6719
Q43.5 29 39.25 27.1875
Q35.0156 25.3906 29.6875 25.3906
Q18.8438 25.3906 12.5625 31.9375
Q6.29688 38.4844 6.29688 49.8125
Q6.29688 60.8906 13.1094 67.5469
Q19.9219 74.2188 31.2969 74.2188
Q43.6562 74.2188 50.2656 65.0156
Q56.8906 55.8125 56.8906 38.7188
Q56.8906 19.5781 49.0156 9.07812
Q41.1562 -1.42188 26.9062 -1.42188
Q23.0469 -1.42188 18.7969 -0.6875
Q14.5469 0.046875 10.1094 1.51562
L10.1094 13.625
L15.5781 13.625
Q16.2188 8.6875 19.3906 6.04688
Q22.5625 3.42188 27.875 3.42188
Q37.3594 3.42188 41.9844 10.5625
Q46.625 17.7188 46.7812 32.6719
M30.9062 69.3906
Q23.9688 69.3906 20.2812 64.3281
Q16.6094 59.2812 16.6094 49.8125
Q16.6094 40.3281 20.2812 35.25
Q23.9688 30.1719 30.9062 30.1719
Q37.8438 30.1719 41.5312 35.0781
Q45.2188 39.9844 45.2188 49.2188
Q45.2188 58.9375 41.5 64.1562
Q37.7969 69.3906 30.9062 69.3906" id="BitstreamVeraSerif-Roman-39"/>
       <path d="
M4.39062 30.6094
L29.3906 30.6094
L29.3906 23
L4.39062 23
z
" id="BitstreamVeraSerif-Roman-2d"/>
      </defs>
      <g transform="translate(33.44 393.7925)scale(0.16 -0.16)">
       <use transform="translate(0.0 0.21875)" xlink:href="#BitstreamVeraSerif-Roman-31"/>
       <use transform="translate(63.623046875 0.21875)" xlink:href="#BitstreamVeraSerif-Roman-30"/>
       <use transform="translate(127.24609375 50.046875)scale(0.7)" xlink:href="#BitstreamVeraSerif-Roman-2d"/>
       <use transform="translate(150.8984375 50.046875)scale(0.7)" xlink:href="#BitstreamVeraSerif-Roman-39"/>
      </g>
     </g>
    </g>
    <g id="ytick_2">
     <g id="line2d_26">
      <path clip-path="url(#p7ff5b81e1d)" d="
M72 302.4
L518.4 302.4" style="fill:none;opacity:0.3;stroke:#808080;stroke-dasharray:1.000000,3.000000;stroke-dashoffset:0.0;stroke-width:0.5;"/>
     </g>
     <g id="line2d_27">
      <g>
       <use style="stroke:#000000;stroke-width:0.5;" x="72.0" xlink:href="#m728421d6d4" y="302.4"/>
      </g>
     </g>
     <g id="line2d_28">
      <g>
       <use style="stroke:#000000;stroke-width:0.5;" x="518.4" xlink:href="#mcb0005524f" y="302.4"/>
      </g>
     </g>
     <g id="text_9">
      <!-- $\mathdefault{10^{-6}}$ -->
      <defs>
       <path d="
M32.7188 3.42188
Q39.5938 3.42188 43.2969 8.46875
Q47.0156 13.5312 47.0156 23
Q47.0156 32.4688 43.2969 37.5156
Q39.5938 42.5781 32.7188 42.5781
Q25.7344 42.5781 22.0625 37.6875
Q18.4062 32.8125 18.4062 23.5781
Q18.4062 13.875 22.1094 8.64062
Q25.8281 3.42188 32.7188 3.42188
M16.7969 40.1406
Q20.125 43.7969 24.3125 45.5938
Q28.5156 47.4062 33.7969 47.4062
Q44.6719 47.4062 51 40.8594
Q57.3281 34.3281 57.3281 23
Q57.3281 11.9219 50.5156 5.25
Q43.7031 -1.42188 32.3281 -1.42188
Q19.9688 -1.42188 13.3281 7.78125
Q6.6875 17 6.6875 34.0781
Q6.6875 53.2188 14.5469 63.7188
Q22.4062 74.2188 36.7188 74.2188
Q40.5781 74.2188 44.8281 73.4844
Q49.0781 72.75 53.5156 71.2969
L53.5156 59.2812
L48 59.2812
Q47.4062 64.2031 44.2344 66.7969
Q41.0625 69.3906 35.6875 69.3906
Q26.2188 69.3906 21.5781 62.2031
Q16.9375 55.0312 16.7969 40.1406" id="BitstreamVeraSerif-Roman-36"/>
      </defs>
      <g transform="translate(33.44 307.3925)scale(0.16 -0.16)">
       <use transform="translate(0.0 0.21875)" xlink:href="#BitstreamVeraSerif-Roman-31"/>
       <use transform="translate(63.623046875 0.21875)" xlink:href="#BitstreamVeraSerif-Roman-30"/>
       <use transform="translate(127.24609375 50.046875)scale(0.7)" xlink:href="#BitstreamVeraSerif-Roman-2d"/>
       <use transform="translate(150.8984375 50.046875)scale(0.7)" xlink:href="#BitstreamVeraSerif-Roman-36"/>
      </g>
     </g>
    </g>
    <g id="ytick_3">
     <g id="line2d_29">
      <path clip-path="url(#p7ff5b81e1d)" d="
M72 216
L518.4 216" style="fill:none;opacity:0.3;stroke:#808080;stroke-dasharray:1.000000,3.000000;stroke-dashoffset:0.0;stroke-width:0.5;"/>
     </g>
     <g id="line2d_30">
      <g>
       <use style="stroke:#000000;stroke-width:0.5;" x="72.0" xlink:href="#m728421d6d4" y="216.0"/>
      </g>
     </g>
     <g id="line2d_31">
      <g>
       <use style="stroke:#000000;stroke-width:0.5;" x="518.4" xlink:href="#mcb0005524f" y="216.0"/>
      </g>
     </g>
     <g id="text_10">
      <!-- $\mathdefault{10^{-3}}$ -->
      <defs>
       <path d="
M9.71875 69.8281
Q15.4375 71.9688 20.6719 73.0938
Q25.9219 74.2188 30.5156 74.2188
Q41.2188 74.2188 47.2188 69.5938
Q53.2188 64.9844 53.2188 56.7812
Q53.2188 50.2031 49.0625 45.7812
Q44.9219 41.3594 37.3125 39.7969
Q46.2969 38.5312 51.25 33.2812
Q56.2031 28.0312 56.2031 19.6719
Q56.2031 9.46875 49.3438 4.01562
Q42.4844 -1.42188 29.5938 -1.42188
Q23.875 -1.42188 18.4219 -0.1875
Q12.9844 1.03125 7.625 3.51562
L7.625 17.6719
L13.0938 17.6719
Q13.5781 10.6406 17.8281 7.03125
Q22.0781 3.42188 29.7812 3.42188
Q37.25 3.42188 41.5781 7.73438
Q45.9062 12.0625 45.9062 19.5781
Q45.9062 28.1719 41.4531 32.5938
Q37.0156 37.0156 28.4219 37.0156
L23.7812 37.0156
L23.7812 42
L26.2188 42
Q34.7656 42 39.0312 45.5312
Q43.3125 49.0781 43.3125 56.2031
Q43.3125 62.5938 39.7969 65.9844
Q36.2812 69.3906 29.6875 69.3906
Q23.0938 69.3906 19.4531 66.2656
Q15.8281 63.1406 15.1875 56.9844
L9.71875 56.9844
z
" id="BitstreamVeraSerif-Roman-33"/>
      </defs>
      <g transform="translate(33.44 220.9925)scale(0.16 -0.16)">
       <use transform="translate(0.0 0.21875)" xlink:href="#BitstreamVeraSerif-Roman-31"/>
       <use transform="translate(63.623046875 0.21875)" xlink:href="#BitstreamVeraSerif-Roman-30"/>
       <use transform="translate(127.24609375 50.046875)scale(0.7)" xlink:href="#BitstreamVeraSerif-Roman-2d"/>
       <use transform="translate(150.8984375 50.046875)scale(0.7)" xlink:href="#BitstreamVeraSerif-Roman-33"/>
      </g>
     </g>
    </g>
    <g id="ytick_4">
     <g id="line2d_32">
      <path clip-path="url(#p7ff5b81e1d)" d="
M72 129.6
L518.4 129.6" style="fill:none;opacity:0.3;stroke:#808080;stroke-dasharray:1.000000,3.000000;stroke-dashoffset:0.0;stroke-width:0.5;"/>
     </g>
     <g id="line2d_33">
      <g>
       <use style="stroke:#000000;stroke-width:0.5;" x="72.0" xlink:href="#m728421d6d4" y="129.6"/>
      </g>
     </g>
     <g id="line2d_34">
      <g>
       <use style="stroke:#000000;stroke-width:0.5;" x="518.4" xlink:href="#mcb0005524f" y="129.6"/>
      </g>
     </g>
     <g id="text_11">
      <!-- $\mathdefault{10^{0}}$ -->
      <g transform="translate(37.28 134.5925)scale(0.16 -0.16)">
       <use transform="translate(0.0 0.21875)" xlink:href="#BitstreamVeraSerif-Roman-31"/>
       <use transform="translate(63.623046875 0.21875)" xlink:href="#BitstreamVeraSerif-Roman-30"/>
       <use transform="translate(127.24609375 50.046875)scale(0.7)" xlink:href="#BitstreamVeraSerif-Roman-30"/>
      </g>
     </g>
    </g>
    <g id="ytick_5">
     <g id="line2d_35">
      <path clip-path="url(#p7ff5b81e1d)" d="
M72 43.2
L518.4 43.2" style="fill:none;opacity:0.3;stroke:#808080;stroke-dasharray:1.000000,3.000000;stroke-dashoffset:0.0;stroke-width:0.5;"/>
     </g>
     <g id="line2d_36">
      <g>
       <use style="stroke:#000000;stroke-width:0.5;" x="72.0" xlink:href="#m728421d6d4" y="43.2"/>
      </g>
     </g>
     <g id="line2d_37">
      <g>
       <use style="stroke:#000000;stroke-width:0.5;" x="518.4" xlink:href="#mcb0005524f" y="43.2"/>
      </g>
     </g>
     <g id="text_12">
      <!-- $\mathdefault{10^{3}}$ -->
      <g transform="translate(37.28 48.1925)scale(0.16 -0.16)">
       <use transform="translate(0.0 0.21875)" xlink:href="#BitstreamVeraSerif-Roman-31"/>
       <use transform="translate(63.623046875 0.21875)" xlink:href="#BitstreamVeraSerif-Roman-30"/>
       <use transform="translate(127.24609375 50.046875)scale(0.7)" xlink:href="#BitstreamVeraSerif-Roman-33"/>
      </g>
     </g>
    </g>
    <g id="ytick_6">
     <g id="line2d_38">
      <defs>
       <path d="
M0 0
L2 0" id="mf0c55a9a47" style="stroke:#000000;stroke-width:0.5;"/>
      </defs>
      <g>
       <use style="stroke:#000000;stroke-width:0.5;" x="72.0" xlink:href="#mf0c55a9a47" y="380.130336125"/>
      </g>
     </g>
     <g id="line2d_39">
      <defs>
       <path d="
M0 0
L-2 0" id="ma4f294b3af" style="stroke:#000000;stroke-width:0.5;"/>
      </defs>
      <g>
       <use style="stroke:#000000;stroke-width:0.5;" x="518.4" xlink:href="#ma4f294b3af" y="380.130336125"/>
      </g>
     </g>
    </g>
    <g id="ytick_7">
     <g id="line2d_40">
      <g>
       <use style="stroke:#000000;stroke-width:0.5;" x="72.0" xlink:href="#mf0c55a9a47" y="371.46067225"/>
      </g>
     </g>
     <g id="line2d_41">
      <g>
       <use style="stroke:#000000;stroke-width:0.5;" x="518.4" xlink:href="#ma4f294b3af" y="371.46067225"/>
      </g>
     </g>
    </g>
    <g id="ytick_8">
     <g id="line2d_42">
      <g>
       <use style="stroke:#000000;stroke-width:0.5;" x="72.0" xlink:href="#mf0c55a9a47" y="366.389243989"/>
      </g>
     </g>
     <g id="line2d_43">
      <g>
       <use style="stroke:#000000;stroke-width:0.5;" x="518.4" xlink:href="#ma4f294b3af" y="366.389243989"/>
      </g>
     </g>
    </g>
    <g id="ytick_9">
     <g id="line2d_44">
      <g>
       <use style="stroke:#000000;stroke-width:0.5;" x="72.0" xlink:href="#mf0c55a9a47" y="362.791008375"/>
      </g>
     </g>
     <g id="line2d_45">
      <g>
       <use style="stroke:#000000;stroke-width:0.5;" x="518.4" xlink:href="#ma4f294b3af" y="362.791008375"/>
      </g>
     </g>
    </g>
    <g id="ytick_10">
     <g id="line2d_46">
      <g>
       <use style="stroke:#000000;stroke-width:0.5;" x="72.0" xlink:href="#mf0c55a9a47" y="351.330336125"/>
      </g>
     </g>
     <g id="line2d_47">
      <g>
       <use style="stroke:#000000;stroke-width:0.5;" x="518.4" xlink:href="#ma4f294b3af" y="351.330336125"/>
      </g>
     </g>
    </g>
    <g id="ytick_11">
     <g id="line2d_48">
      <g>
       <use style="stroke:#000000;stroke-width:0.5;" x="72.0" xlink:href="#mf0c55a9a47" y="342.66067225"/>
      </g>
     </g>
     <g id="line2d_49">
      <g>
       <use style="stroke:#000000;stroke-width:0.5;" x="518.4" xlink:href="#ma4f294b3af" y="342.66067225"/>
      </g>
     </g>
    </g>
    <g id="ytick_12">
     <g id="line2d_50">
      <g>
       <use style="stroke:#000000;stroke-width:0.5;" x="72.0" xlink:href="#mf0c55a9a47" y="337.589243989"/>
      </g>
     </g>
     <g id="line2d_51">
      <g>
       <use style="stroke:#000000;stroke-width:0.5;" x="518.4" xlink:href="#ma4f294b3af" y="337.589243989"/>
      </g>
     </g>
    </g>
    <g id="ytick_13">
     <g id="line2d_52">
      <g>
       <use style="stroke:#000000;stroke-width:0.5;" x="72.0" xlink:href="#mf0c55a9a47" y="333.991008375"/>
      </g>
     </g>
     <g id="line2d_53">
      <g>
       <use style="stroke:#000000;stroke-width:0.5;" x="518.4" xlink:href="#ma4f294b3af" y="333.991008375"/>
      </g>
     </g>
    </g>
    <g id="ytick_14">
     <g id="line2d_54">
      <g>
       <use style="stroke:#000000;stroke-width:0.5;" x="72.0" xlink:href="#mf0c55a9a47" y="322.530336125"/>
      </g>
     </g>
     <g id="line2d_55">
      <g>
       <use style="stroke:#000000;stroke-width:0.5;" x="518.4" xlink:href="#ma4f294b3af" y="322.530336125"/>
      </g>
     </g>
    </g>
    <g id="ytick_15">
     <g id="line2d_56">
      <g>
       <use style="stroke:#000000;stroke-width:0.5;" x="72.0" xlink:href="#mf0c55a9a47" y="313.86067225"/>
      </g>
     </g>
     <g id="line2d_57">
      <g>
       <use style="stroke:#000000;stroke-width:0.5;" x="518.4" xlink:href="#ma4f294b3af" y="313.86067225"/>
      </g>
     </g>
    </g>
    <g id="ytick_16">
     <g id="line2d_58">
      <g>
       <use style="stroke:#000000;stroke-width:0.5;" x="72.0" xlink:href="#mf0c55a9a47" y="308.789243989"/>
      </g>
     </g>
     <g id="line2d_59">
      <g>
       <use style="stroke:#000000;stroke-width:0.5;" x="518.4" xlink:href="#ma4f294b3af" y="308.789243989"/>
      </g>
     </g>
    </g>
    <g id="ytick_17">
     <g id="line2d_60">
      <g>
       <use style="stroke:#000000;stroke-width:0.5;" x="72.0" xlink:href="#mf0c55a9a47" y="305.191008375"/>
      </g>
     </g>
     <g id="line2d_61">
      <g>
       <use style="stroke:#000000;stroke-width:0.5;" x="518.4" xlink:href="#ma4f294b3af" y="305.191008375"/>
      </g>
     </g>
    </g>
    <g id="ytick_18">
     <g id="line2d_62">
      <g>
       <use style="stroke:#000000;stroke-width:0.5;" x="72.0" xlink:href="#mf0c55a9a47" y="293.730336125"/>
      </g>
     </g>
     <g id="line2d_63">
      <g>
       <use style="stroke:#000000;stroke-width:0.5;" x="518.4" xlink:href="#ma4f294b3af" y="293.730336125"/>
      </g>
     </g>
    </g>
    <g id="ytick_19">
     <g id="line2d_64">
      <g>
       <use style="stroke:#000000;stroke-width:0.5;" x="72.0" xlink:href="#mf0c55a9a47" y="285.06067225"/>
      </g>
     </g>
     <g id="line2d_65">
      <g>
       <use style="stroke:#000000;stroke-width:0.5;" x="518.4" xlink:href="#ma4f294b3af" y="285.06067225"/>
      </g>
     </g>
    </g>
    <g id="ytick_20">
     <g id="line2d_66">
      <g>
       <use style="stroke:#000000;stroke-width:0.5;" x="72.0" xlink:href="#mf0c55a9a47" y="279.989243989"/>
      </g>
     </g>
     <g id="line2d_67">
      <g>
       <use style="stroke:#000000;stroke-width:0.5;" x="518.4" xlink:href="#ma4f294b3af" y="279.989243989"/>
      </g>
     </g>
    </g>
    <g id="ytick_21">
     <g id="line2d_68">
      <g>
       <use style="stroke:#000000;stroke-width:0.5;" x="72.0" xlink:href="#mf0c55a9a47" y="276.391008375"/>
      </g>
     </g>
     <g id="line2d_69">
      <g>
       <use style="stroke:#000000;stroke-width:0.5;" x="518.4" xlink:href="#ma4f294b3af" y="276.391008375"/>
      </g>
     </g>
    </g>
    <g id="ytick_22">
     <g id="line2d_70">
      <g>
       <use style="stroke:#000000;stroke-width:0.5;" x="72.0" xlink:href="#mf0c55a9a47" y="264.930336125"/>
      </g>
     </g>
     <g id="line2d_71">
      <g>
       <use style="stroke:#000000;stroke-width:0.5;" x="518.4" xlink:href="#ma4f294b3af" y="264.930336125"/>
      </g>
     </g>
    </g>
    <g id="ytick_23">
     <g id="line2d_72">
      <g>
       <use style="stroke:#000000;stroke-width:0.5;" x="72.0" xlink:href="#mf0c55a9a47" y="256.26067225"/>
      </g>
     </g>
     <g id="line2d_73">
      <g>
       <use style="stroke:#000000;stroke-width:0.5;" x="518.4" xlink:href="#ma4f294b3af" y="256.26067225"/>
      </g>
     </g>
    </g>
    <g id="ytick_24">
     <g id="line2d_74">
      <g>
       <use style="stroke:#000000;stroke-width:0.5;" x="72.0" xlink:href="#mf0c55a9a47" y="251.189243989"/>
      </g>
     </g>
     <g id="line2d_75">
      <g>
       <use style="stroke:#000000;stroke-width:0.5;" x="518.4" xlink:href="#ma4f294b3af" y="251.189243989"/>
      </g>
     </g>
    </g>
    <g id="ytick_25">
     <g id="line2d_76">
      <g>
       <use style="stroke:#000000;stroke-width:0.5;" x="72.0" xlink:href="#mf0c55a9a47" y="247.591008375"/>
      </g>
     </g>
     <g id="line2d_77">
      <g>
       <use style="stroke:#000000;stroke-width:0.5;" x="518.4" xlink:href="#ma4f294b3af" y="247.591008375"/>
      </g>
     </g>
    </g>
    <g id="ytick_26">
     <g id="line2d_78">
      <g>
       <use style="stroke:#000000;stroke-width:0.5;" x="72.0" xlink:href="#mf0c55a9a47" y="236.130336125"/>
      </g>
     </g>
     <g id="line2d_79">
      <g>
       <use style="stroke:#000000;stroke-width:0.5;" x="518.4" xlink:href="#ma4f294b3af" y="236.130336125"/>
      </g>
     </g>
    </g>
    <g id="ytick_27">
     <g id="line2d_80">
      <g>
       <use style="stroke:#000000;stroke-width:0.5;" x="72.0" xlink:href="#mf0c55a9a47" y="227.46067225"/>
      </g>
     </g>
     <g id="line2d_81">
      <g>
       <use style="stroke:#000000;stroke-width:0.5;" x="518.4" xlink:href="#ma4f294b3af" y="227.46067225"/>
      </g>
     </g>
    </g>
    <g id="ytick_28">
     <g id="line2d_82">
      <g>
       <use style="stroke:#000000;stroke-width:0.5;" x="72.0" xlink:href="#mf0c55a9a47" y="222.389243989"/>
      </g>
     </g>
     <g id="line2d_83">
      <g>
       <use style="stroke:#000000;stroke-width:0.5;" x="518.4" xlink:href="#ma4f294b3af" y="222.389243989"/>
      </g>
     </g>
    </g>
    <g id="ytick_29">
     <g id="line2d_84">
      <g>
       <use style="stroke:#000000;stroke-width:0.5;" x="72.0" xlink:href="#mf0c55a9a47" y="218.791008375"/>
      </g>
     </g>
     <g id="line2d_85">
      <g>
       <use style="stroke:#000000;stroke-width:0.5;" x="518.4" xlink:href="#ma4f294b3af" y="218.791008375"/>
      </g>
     </g>
    </g>
    <g id="ytick_30">
     <g id="line2d_86">
      <g>
       <use style="stroke:#000000;stroke-width:0.5;" x="72.0" xlink:href="#mf0c55a9a47" y="207.330336125"/>
      </g>
     </g>
     <g id="line2d_87">
      <g>
       <use style="stroke:#000000;stroke-width:0.5;" x="518.4" xlink:href="#ma4f294b3af" y="207.330336125"/>
      </g>
     </g>
    </g>
    <g id="ytick_31">
     <g id="line2d_88">
      <g>
       <use style="stroke:#000000;stroke-width:0.5;" x="72.0" xlink:href="#mf0c55a9a47" y="198.66067225"/>
      </g>
     </g>
     <g id="line2d_89">
      <g>
       <use style="stroke:#000000;stroke-width:0.5;" x="518.4" xlink:href="#ma4f294b3af" y="198.66067225"/>
      </g>
     </g>
    </g>
    <g id="ytick_32">
     <g id="line2d_90">
      <g>
       <use style="stroke:#000000;stroke-width:0.5;" x="72.0" xlink:href="#mf0c55a9a47" y="193.589243989"/>
      </g>
     </g>
     <g id="line2d_91">
      <g>
       <use style="stroke:#000000;stroke-width:0.5;" x="518.4" xlink:href="#ma4f294b3af" y="193.589243989"/>
      </g>
     </g>
    </g>
    <g id="ytick_33">
     <g id="line2d_92">
      <g>
       <use style="stroke:#000000;stroke-width:0.5;" x="72.0" xlink:href="#mf0c55a9a47" y="189.991008375"/>
      </g>
     </g>
     <g id="line2d_93">
      <g>
       <use style="stroke:#000000;stroke-width:0.5;" x="518.4" xlink:href="#ma4f294b3af" y="189.991008375"/>
      </g>
     </g>
    </g>
    <g id="ytick_34">
     <g id="line2d_94">
      <g>
       <use style="stroke:#000000;stroke-width:0.5;" x="72.0" xlink:href="#mf0c55a9a47" y="178.530336125"/>
      </g>
     </g>
     <g id="line2d_95">
      <g>
       <use style="stroke:#000000;stroke-width:0.5;" x="518.4" xlink:href="#ma4f294b3af" y="178.530336125"/>
      </g>
     </g>
    </g>
    <g id="ytick_35">
     <g id="line2d_96">
      <g>
       <use style="stroke:#000000;stroke-width:0.5;" x="72.0" xlink:href="#mf0c55a9a47" y="169.86067225"/>
      </g>
     </g>
     <g id="line2d_97">
      <g>
       <use style="stroke:#000000;stroke-width:0.5;" x="518.4" xlink:href="#ma4f294b3af" y="169.86067225"/>
      </g>
     </g>
    </g>
    <g id="ytick_36">
     <g id="line2d_98">
      <g>
       <use style="stroke:#000000;stroke-width:0.5;" x="72.0" xlink:href="#mf0c55a9a47" y="164.789243989"/>
      </g>
     </g>
     <g id="line2d_99">
      <g>
       <use style="stroke:#000000;stroke-width:0.5;" x="518.4" xlink:href="#ma4f294b3af" y="164.789243989"/>
      </g>
     </g>
    </g>
    <g id="ytick_37">
     <g id="line2d_100">
      <g>
       <use style="stroke:#000000;stroke-width:0.5;" x="72.0" xlink:href="#mf0c55a9a47" y="161.191008375"/>
      </g>
     </g>
     <g id="line2d_101">
      <g>
       <use style="stroke:#000000;stroke-width:0.5;" x="518.4" xlink:href="#ma4f294b3af" y="161.191008375"/>
      </g>
     </g>
    </g>
    <g id="ytick_38">
     <g id="line2d_102">
      <g>
       <use style="stroke:#000000;stroke-width:0.5;" x="72.0" xlink:href="#mf0c55a9a47" y="149.730336125"/>
      </g>
     </g>
     <g id="line2d_103">
      <g>
       <use style="stroke:#000000;stroke-width:0.5;" x="518.4" xlink:href="#ma4f294b3af" y="149.730336125"/>
      </g>
     </g>
    </g>
    <g id="ytick_39">
     <g id="line2d_104">
      <g>
       <use style="stroke:#000000;stroke-width:0.5;" x="72.0" xlink:href="#mf0c55a9a47" y="141.06067225"/>
      </g>
     </g>
     <g id="line2d_105">
      <g>
       <use style="stroke:#000000;stroke-width:0.5;" x="518.4" xlink:href="#ma4f294b3af" y="141.06067225"/>
      </g>
     </g>
    </g>
    <g id="ytick_40">
     <g id="line2d_106">
      <g>
       <use style="stroke:#000000;stroke-width:0.5;" x="72.0" xlink:href="#mf0c55a9a47" y="135.989243989"/>
      </g>
     </g>
     <g id="line2d_107">
      <g>
       <use style="stroke:#000000;stroke-width:0.5;" x="518.4" xlink:href="#ma4f294b3af" y="135.989243989"/>
      </g>
     </g>
    </g>
    <g id="ytick_41">
     <g id="line2d_108">
      <g>
       <use style="stroke:#000000;stroke-width:0.5;" x="72.0" xlink:href="#mf0c55a9a47" y="132.391008375"/>
      </g>
     </g>
     <g id="line2d_109">
      <g>
       <use style="stroke:#000000;stroke-width:0.5;" x="518.4" xlink:href="#ma4f294b3af" y="132.391008375"/>
      </g>
     </g>
    </g>
    <g id="ytick_42">
     <g id="line2d_110">
      <g>
       <use style="stroke:#000000;stroke-width:0.5;" x="72.0" xlink:href="#mf0c55a9a47" y="120.930336125"/>
      </g>
     </g>
     <g id="line2d_111">
      <g>
       <use style="stroke:#000000;stroke-width:0.5;" x="518.4" xlink:href="#ma4f294b3af" y="120.930336125"/>
      </g>
     </g>
    </g>
    <g id="ytick_43">
     <g id="line2d_112">
      <g>
       <use style="stroke:#000000;stroke-width:0.5;" x="72.0" xlink:href="#mf0c55a9a47" y="112.26067225"/>
      </g>
     </g>
     <g id="line2d_113">
      <g>
       <use style="stroke:#000000;stroke-width:0.5;" x="518.4" xlink:href="#ma4f294b3af" y="112.26067225"/>
      </g>
     </g>
    </g>
    <g id="ytick_44">
     <g id="line2d_114">
      <g>
       <use style="stroke:#000000;stroke-width:0.5;" x="72.0" xlink:href="#mf0c55a9a47" y="107.189243989"/>
      </g>
     </g>
     <g id="line2d_115">
      <g>
       <use style="stroke:#000000;stroke-width:0.5;" x="518.4" xlink:href="#ma4f294b3af" y="107.189243989"/>
      </g>
     </g>
    </g>
    <g id="ytick_45">
     <g id="line2d_116">
      <g>
       <use style="stroke:#000000;stroke-width:0.5;" x="72.0" xlink:href="#mf0c55a9a47" y="103.591008375"/>
      </g>
     </g>
     <g id="line2d_117">
      <g>
       <use style="stroke:#000000;stroke-width:0.5;" x="518.4" xlink:href="#ma4f294b3af" y="103.591008375"/>
      </g>
     </g>
    </g>
    <g id="ytick_46">
     <g id="line2d_118">
      <g>
       <use style="stroke:#000000;stroke-width:0.5;" x="72.0" xlink:href="#mf0c55a9a47" y="92.1303361249"/>
      </g>
     </g>
     <g id="line2d_119">
      <g>
       <use style="stroke:#000000;stroke-width:0.5;" x="518.4" xlink:href="#ma4f294b3af" y="92.1303361249"/>
      </g>
     </g>
    </g>
    <g id="ytick_47">
     <g id="line2d_120">
      <g>
       <use style="stroke:#000000;stroke-width:0.5;" x="72.0" xlink:href="#mf0c55a9a47" y="83.4606722498"/>
      </g>
     </g>
     <g id="line2d_121">
      <g>
       <use style="stroke:#000000;stroke-width:0.5;" x="518.4" xlink:href="#ma4f294b3af" y="83.4606722498"/>
      </g>
     </g>
    </g>
    <g id="ytick_48">
     <g id="line2d_122">
      <g>
       <use style="stroke:#000000;stroke-width:0.5;" x="72.0" xlink:href="#mf0c55a9a47" y="78.389243989"/>
      </g>
     </g>
     <g id="line2d_123">
      <g>
       <use style="stroke:#000000;stroke-width:0.5;" x="518.4" xlink:href="#ma4f294b3af" y="78.389243989"/>
      </g>
     </g>
    </g>
    <g id="ytick_49">
     <g id="line2d_124">
      <g>
       <use style="stroke:#000000;stroke-width:0.5;" x="72.0" xlink:href="#mf0c55a9a47" y="74.7910083746"/>
      </g>
     </g>
     <g id="line2d_125">
      <g>
       <use style="stroke:#000000;stroke-width:0.5;" x="518.4" xlink:href="#ma4f294b3af" y="74.7910083746"/>
      </g>
     </g>
    </g>
    <g id="ytick_50">
     <g id="line2d_126">
      <g>
       <use style="stroke:#000000;stroke-width:0.5;" x="72.0" xlink:href="#mf0c55a9a47" y="63.3303361249"/>
      </g>
     </g>
     <g id="line2d_127">
      <g>
       <use style="stroke:#000000;stroke-width:0.5;" x="518.4" xlink:href="#ma4f294b3af" y="63.3303361249"/>
      </g>
     </g>
    </g>
    <g id="ytick_51">
     <g id="line2d_128">
      <g>
       <use style="stroke:#000000;stroke-width:0.5;" x="72.0" xlink:href="#mf0c55a9a47" y="54.6606722498"/>
      </g>
     </g>
     <g id="line2d_129">
      <g>
       <use style="stroke:#000000;stroke-width:0.5;" x="518.4" xlink:href="#ma4f294b3af" y="54.6606722498"/>
      </g>
     </g>
    </g>
    <g id="ytick_52">
     <g id="line2d_130">
      <g>
       <use style="stroke:#000000;stroke-width:0.5;" x="72.0" xlink:href="#mf0c55a9a47" y="49.589243989"/>
      </g>
     </g>
     <g id="line2d_131">
      <g>
       <use style="stroke:#000000;stroke-width:0.5;" x="518.4" xlink:href="#ma4f294b3af" y="49.589243989"/>
      </g>
     </g>
    </g>
    <g id="ytick_53">
     <g id="line2d_132">
      <g>
       <use style="stroke:#000000;stroke-width:0.5;" x="72.0" xlink:href="#mf0c55a9a47" y="45.9910083746"/>
      </g>
     </g>
     <g id="line2d_133">
      <g>
       <use style="stroke:#000000;stroke-width:0.5;" x="518.4" xlink:href="#ma4f294b3af" y="45.9910083746"/>
      </g>
     </g>
    </g>
    <g id="text_13">
     <!-- $u_N/\hat{f}_0$ -->
     <defs>
      <path d="
M13.4844 53.8125
L11.5312 55.9062
L25 69.3906
L38.375 55.9062
L36.375 53.8125
L25 63.8125
z
" id="Cmr10-5e"/>
      <path d="
M4.6875 0
Q3.71875 0 3.71875 1.3125
Q3.76562 1.5625 3.90625 2.17188
Q4.04688 2.78125 4.3125 3.14062
Q4.59375 3.51562 4.98438 3.51562
Q14.5469 3.51562 16.1094 9.625
L29.6875 64.3125
Q26.9062 64.7969 20.9062 64.7969
Q19.9219 64.7969 19.9219 66.1094
Q19.9688 66.3594 20.1094 66.9688
Q20.2656 67.5781 20.5312 67.9375
Q20.7969 68.3125 21.1875 68.3125
L38.4844 68.3125
Q39.2031 68.3125 39.4062 67.6719
L61.625 14.7969
L72.7031 59.0781
Q72.9062 60.1562 72.9062 60.5938
Q72.9062 64.7969 65.1875 64.7969
Q64.2031 64.7969 64.2031 66.1094
Q64.5469 67.3906 64.7344 67.8438
Q64.9375 68.3125 65.9219 68.3125
L87.3125 68.3125
Q88.2812 68.3125 88.2812 67
Q88.2344 66.75 88.0781 66.1406
Q87.9375 65.5312 87.6719 65.1562
Q87.4062 64.7969 87.0156 64.7969
Q77.4375 64.7969 75.875 58.6875
L61.5312 0.875
Q61.1875 0 60.5 0
L59.2812 0
Q58.5938 0 58.4062 0.6875
L32.9062 61.1875
L32.7188 61.8125
Q32.5156 62.0156 32.5156 62.1094
L19.2812 9.1875
Q19.1875 8.9375 19.1406 8.5625
Q19.0938 8.20312 19 7.71875
Q19 5.125 21.2344 4.3125
Q23.4844 3.51562 26.8125 3.51562
Q27.7812 3.51562 27.7812 2.20312
Q27.4375 0.828125 27.1875 0.40625
Q26.9531 0 26.125 0
z
" id="Cmmi10-4e"/>
      <path d="
M25 -2.20312
Q12.75 -2.20312 8.32812 7.875
Q3.90625 17.9688 3.90625 31.8906
Q3.90625 40.5781 5.48438 48.2344
Q7.07812 55.9062 11.7812 61.25
Q16.5 66.6094 25 66.6094
Q31.5938 66.6094 35.7812 63.375
Q39.9844 60.1562 42.1875 55.0469
Q44.3906 49.9531 45.1875 44.1094
Q46 38.2812 46 31.8906
Q46 23.2969 44.4062 15.7969
Q42.8281 8.29688 38.1875 3.04688
Q33.5469 -2.20312 25 -2.20312
M25 0.390625
Q30.5625 0.390625 33.2969 6.09375
Q36.0312 11.8125 36.6719 18.75
Q37.3125 25.6875 37.3125 33.5
Q37.3125 41.0156 36.6719 47.3594
Q36.0312 53.7188 33.3125 58.8594
Q30.6094 64.0156 25 64.0156
Q19.3438 64.0156 16.6094 58.8281
Q13.875 53.6562 13.2344 47.3281
Q12.5938 41.0156 12.5938 33.5
Q12.5938 27.9375 12.8594 23
Q13.1406 18.0625 14.3125 12.8125
Q15.4844 7.5625 18.0938 3.96875
Q20.7031 0.390625 25 0.390625" id="Cmr10-30"/>
      <path d="
M10.5938 10.8906
Q10.5938 14.1562 11.4688 17.5938
Q12.3594 21.0469 13.9375 25.2656
Q15.5312 29.5 16.7031 32.625
Q18.0156 36.2812 18.0156 38.625
Q18.0156 41.6094 15.8281 41.6094
Q11.8594 41.6094 9.29688 37.5312
Q6.73438 33.4531 5.51562 28.4219
Q5.32812 27.7812 4.6875 27.7812
L3.51562 27.7812
Q2.6875 27.7812 2.6875 28.7188
L2.6875 29
Q4.29688 34.9688 7.60938 39.5781
Q10.9375 44.1875 16.0156 44.1875
Q19.5781 44.1875 22.0469 41.8438
Q24.5156 39.5 24.5156 35.8906
Q24.5156 34.0312 23.6875 31.9844
Q23.25 30.7656 21.6875 26.6562
Q20.125 22.5625 19.2812 19.875
Q18.4531 17.1875 17.9219 14.5938
Q17.3906 12.0156 17.3906 9.42188
Q17.3906 6.10938 18.7969 3.8125
Q20.2188 1.51562 23.3906 1.51562
Q29.7812 1.51562 34.625 9.42188
Q34.7188 9.8125 34.7812 10.1719
Q34.8594 10.5469 34.9062 10.8906
L42.0938 39.8906
Q42.4375 41.2188 43.6562 42.1562
Q44.875 43.1094 46.2969 43.1094
Q47.5156 43.1094 48.4062 42.3281
Q49.3125 41.5469 49.3125 40.2812
Q49.3125 39.7031 49.2188 39.5
L42 10.6875
Q41.3125 7.71875 41.3125 5.8125
Q41.3125 1.51562 44.1875 1.51562
Q47.4062 1.51562 49 5.48438
Q50.5938 9.46875 51.7031 14.7031
Q51.9062 15.2812 52.4844 15.2812
L53.7188 15.2812
Q54.1094 15.2812 54.3438 14.9375
Q54.5938 14.5938 54.5938 14.3125
Q53.5156 10.0156 52.5156 6.9375
Q51.5156 3.85938 49.3594 1.35938
Q47.2188 -1.125 44 -1.125
Q40.8281 -1.125 38.3125 0.609375
Q35.7969 2.34375 34.9062 5.32812
Q32.625 2.39062 29.5938 0.625
Q26.5625 -1.125 23.1875 -1.125
Q17.4375 -1.125 14.0156 2.01562
Q10.5938 5.17188 10.5938 10.8906" id="Cmmi10-75"/>
      <path d="
M9.71875 -16.5
Q11.5781 -17.9219 14.2031 -17.9219
Q17.7812 -17.9219 20.0156 -10.0156
Q20.9531 -6.20312 25.0938 15.0938
L29.6875 39.5938
L21.0938 39.5938
Q20.125 39.5938 20.125 40.9219
Q20.5156 43.1094 21.3906 43.1094
L30.3281 43.1094
L31.5 49.6094
Q32.0781 52.6406 32.5625 54.8125
Q33.0625 56.9844 33.625 58.8281
Q34.1875 60.6875 35.2969 62.9844
Q37.0156 66.2656 39.9219 68.3906
Q42.8281 70.5156 46.1875 70.5156
Q48.3906 70.5156 50.4688 69.7031
Q52.5469 68.8906 53.8594 67.2812
Q55.1719 65.6719 55.1719 63.4844
Q55.1719 60.9375 53.4844 59.0469
Q51.8125 57.1719 49.4219 57.1719
Q47.7969 57.1719 46.6562 58.1719
Q45.5156 59.1875 45.5156 60.7969
Q45.5156 62.9844 47 64.625
Q48.4844 66.2656 50.6875 66.5
Q48.8281 67.9219 46.0938 67.9219
Q44.5781 67.9219 43.2344 66.5
Q41.8906 65.0938 41.5 63.4844
Q40.875 60.9375 38.7188 49.7031
L37.5 43.1094
L47.7969 43.1094
Q48.7812 43.1094 48.7812 41.7969
Q48.7344 41.5469 48.5781 40.9375
Q48.4375 40.3281 48.1719 39.9531
Q47.9062 39.5938 47.5156 39.5938
L36.8125 39.5938
L32.1719 15.1875
Q31.2969 9.85938 30.1406 4.35938
Q29 -1.125 26.9219 -6.90625
Q24.8594 -12.7031 21.625 -16.6094
Q18.4062 -20.5156 14.0156 -20.5156
Q10.6406 -20.5156 7.98438 -18.5781
Q5.32812 -16.6562 5.32812 -13.4844
Q5.32812 -10.9375 6.95312 -9.04688
Q8.59375 -7.17188 11.0781 -7.17188
Q12.75 -7.17188 13.8594 -8.17188
Q14.9844 -9.1875 14.9844 -10.7969
Q14.9844 -12.9375 13.3906 -14.7188
Q11.8125 -16.5 9.71875 -16.5" id="Cmmi10-66"/>
      <path d="
M5.60938 -23
Q5.60938 -22.7031 5.71875 -22.6094
L40.4844 73.7812
Q40.6719 74.3594 41.1562 74.6719
Q41.6562 75 42.2812 75
Q43.1719 75 43.7188 74.4531
Q44.2812 73.9219 44.2812 73
L44.2812 72.6094
L9.51562 -23.7812
Q8.9375 -25 7.625 -25
Q6.78125 -25 6.1875 -24.4062
Q5.60938 -23.8281 5.60938 -23" id="Cmmi10-3d"/>
     </defs>
     <g transform="translate(23.4 241.83)rotate(-90.0)scale(0.18 -0.18)">
      <use transform="translate(0.0 0.40625)" xlink:href="#Cmmi10-75"/>
      <use transform="translate(57.177734375 -25.103125)scale(0.7)" xlink:href="#Cmmi10-4e"/>
      <use transform="translate(137.5 0.40625)" xlink:href="#Cmmi10-3d"/>
      <use transform="translate(186.96875 29.609375)" xlink:href="#Cmr10-5e"/>
      <use transform="translate(187.5 0.40625)" xlink:href="#Cmmi10-66"/>
      <use transform="translate(236.376953125 -25.103125)scale(0.7)" xlink:href="#Cmr10-30"/>
     </g>
    </g>
   </g>
   <g id="patch_3">
    <path d="
M72 43.2
L518.4 43.2" style="fill:none;stroke:#000000;"/>
   </g>
   <g id="patch_4">
    <path d="
M518.4 388.8
L518.4 43.2" style="fill:none;stroke:#000000;"/>
   </g>
   <g id="patch_5">
    <path d="
M72 388.8
L518.4 388.8" style="fill:none;stroke:#000000;"/>
   </g>
   <g id="patch_6">
    <path d="
M72 388.8
L72 43.2" style="fill:none;stroke:#000000;"/>
   </g>
   <g id="legend_1">
    <g id="patch_7">
     <path d="
M384.573 171.288
L508.8 171.288
L508.8 52.8
L384.573 52.8
L384.573 171.288
z
" style="fill:#ffffff;stroke:#000000;"/>
    </g>
    <g id="line2d_134">
     <path d="
M398.013 68.349
L424.893 68.349" style="fill:none;stroke:#0000ff;stroke-linecap:square;"/>
    </g>
    <g id="line2d_135"/>
    <g id="text_14">
     <!-- N=1 -->
     <defs>
      <path d="
M4.89062 0
L4.89062 5.17188
L14.7031 5.17188
L14.7031 67.6719
L4.89062 67.6719
L4.89062 72.9062
L23.5781 72.9062
L67.2812 15.375
L67.2812 67.6719
L57.5156 67.6719
L57.5156 72.9062
L83.1094 72.9062
L83.1094 67.6719
L73.2969 67.6719
L73.2969 -1.42188
L67.3906 -1.42188
L20.7031 60.0156
L20.7031 5.17188
L30.5156 5.17188
L30.5156 0
z
" id="BitstreamVeraSerif-Roman-4e"/>
      <path d="
M10.5938 45.2188
L73.1875 45.2188
L73.1875 37.4062
L10.5938 37.4062
z

M10.5938 25.2969
L73.1875 25.2969
L73.1875 17.4844
L10.5938 17.4844
z
" id="BitstreamVeraSerif-Roman-3d"/>
     </defs>
     <g transform="translate(446.013 75.069)scale(0.192 -0.192)">
      <use xlink:href="#BitstreamVeraSerif-Roman-4e"/>
      <use x="87.5" xlink:href="#BitstreamVeraSerif-Roman-3d"/>
      <use x="171.2890625" xlink:href="#BitstreamVeraSerif-Roman-31"/>
     </g>
    </g>
    <g id="line2d_136">
     <path d="
M398.013 96.531
L424.893 96.531" style="fill:none;stroke:#008000;stroke-linecap:square;"/>
    </g>
    <g id="line2d_137"/>
    <g id="text_15">
     <!-- N=5 -->
     <g transform="translate(446.013 103.251)scale(0.192 -0.192)">
      <use xlink:href="#BitstreamVeraSerif-Roman-4e"/>
      <use x="87.5" xlink:href="#BitstreamVeraSerif-Roman-3d"/>
      <use x="171.2890625" xlink:href="#BitstreamVeraSerif-Roman-35"/>
     </g>
    </g>
    <g id="line2d_138">
     <path d="
M398.013 124.713
L424.893 124.713" style="fill:none;stroke:#ff0000;stroke-linecap:square;"/>
    </g>
    <g id="line2d_139"/>
    <g id="text_16">
     <!-- N=10 -->
     <g transform="translate(446.013 131.433)scale(0.192 -0.192)">
      <use xlink:href="#BitstreamVeraSerif-Roman-4e"/>
      <use x="87.5" xlink:href="#BitstreamVeraSerif-Roman-3d"/>
      <use x="171.2890625" xlink:href="#BitstreamVeraSerif-Roman-31"/>
      <use x="234.912109375" xlink:href="#BitstreamVeraSerif-Roman-30"/>
     </g>
    </g>
    <g id="line2d_140">
     <path d="
M398.013 152.895
L424.893 152.895" style="fill:none;stroke:#00bfbf;stroke-linecap:square;"/>
    </g>
    <g id="line2d_141"/>
    <g id="text_17">
     <!-- N=50 -->
     <g transform="translate(446.013 159.615)scale(0.192 -0.192)">
      <use xlink:href="#BitstreamVeraSerif-Roman-4e"/>
      <use x="87.5" xlink:href="#BitstreamVeraSerif-Roman-3d"/>
      <use x="171.2890625" xlink:href="#BitstreamVeraSerif-Roman-35"/>
      <use x="234.912109375" xlink:href="#BitstreamVeraSerif-Roman-30"/>
     </g>
    </g>
   </g>
  </g>
 </g>
 <defs>
  <clipPath id="p7ff5b81e1d">
   <rect height="345.6" width="446.4" x="72.0" y="43.2"/>
  </clipPath>
 </defs>
</svg>
