<?xml version="1.0" encoding="utf-8" standalone="no"?>
<!DOCTYPE svg PUBLIC "-//W3C//DTD SVG 1.1//EN"
  "http://www.w3.org/Graphics/SVG/1.1/DTD/svg11.dtd">
<!-- Created with matplotlib (http://matplotlib.org/) -->
<svg height="136pt" version="1.1" viewBox="0 0 216 136" width="216pt" xmlns="http://www.w3.org/2000/svg" xmlns:xlink="http://www.w3.org/1999/xlink">
 <defs>
  <style type="text/css">
*{stroke-linecap:butt;stroke-linejoin:round;stroke-miterlimit:100000;}
  </style>
 </defs>
 <g id="figure_1">
  <g id="patch_1">
   <path d="M 0 136.8 
L 216 136.8 
L 216 0 
L 0 0 
z
" style="fill:#ffffff;"/>
  </g>
  <g id="axes_1">
   <g id="patch_2">
    <path d="M 27 119.7 
L 194.4 119.7 
L 194.4 13.68 
L 27 13.68 
z
" style="fill:#ffffff;"/>
   </g>
   <g id="line2d_1">
    <path clip-path="url(#p1d0bea84bd)" d="M 27.133343 -1 
L 27.36819 6.796113 
L 27.736359 12.114154 
L 28.221673 15.996959 
L 28.824133 19.069042 
L 29.543737 21.613521 
L 30.397221 23.821917 
L 31.384584 25.761817 
L 32.522563 27.506049 
L 33.827891 29.096183 
L 35.317304 30.556816 
L 37.024272 31.914265 
L 38.965529 33.169136 
L 41.157811 34.318892 
L 43.634588 35.36359 
L 46.395859 36.283104 
L 49.408155 37.049088 
L 52.604536 37.631956 
L 55.901326 38.007128 
L 59.147912 38.154147 
L 62.193678 38.073308 
L 64.938214 37.782883 
L 67.314581 37.313399 
L 69.306043 36.700688 
L 70.962806 35.963591 
L 72.301604 35.132194 
L 73.406113 34.187254 
L 74.293066 33.139662 
L 75.012671 31.950346 
L 75.598395 30.550056 
L 76.066974 28.831032 
L 76.418409 26.664284 
L 76.669433 23.611005 
L 76.820048 18.510041 
L 76.870253 8.317551 
L 76.920458 17.937272 
L 77.121278 24.369309 
L 77.439242 27.563391 
L 77.874352 29.781894 
L 78.443341 31.543889 
L 79.14621 33.002123 
L 79.999694 34.266004 
L 81.037262 35.405535 
L 82.292386 36.450498 
L 83.798534 37.410835 
L 85.589176 38.283302 
L 87.647579 39.03625 
L 89.94027 39.637341 
L 92.350107 40.040901 
L 94.726474 40.216651 
L 96.902021 40.160803 
L 98.809809 39.894563 
L 100.399631 39.454621 
L 101.70496 38.869905 
L 102.775998 38.151373 
L 103.646217 37.304971 
L 104.365821 36.295275 
L 104.951545 35.089083 
L 105.420125 33.61993 
L 105.788294 31.737386 
L 106.056054 29.227281 
L 106.240139 25.1599 
L 106.323813 17.269287 
L 106.340548 13.477556 
L 106.340548 13.477556 
L 106.340548 13.477556 
L 106.474428 26.625103 
L 106.742188 30.819397 
L 107.127092 33.467881 
L 107.645877 35.523457 
L 108.315276 37.260442 
L 109.13529 38.774077 
L 110.156123 40.189785 
L 111.411247 41.545126 
L 112.950865 42.874768 
L 114.841917 44.206277 
L 117.134609 45.541588 
L 119.89588 46.885982 
L 123.175936 48.229395 
L 126.991511 49.546755 
L 131.32587 50.8039 
L 136.078603 51.948612 
L 141.082362 52.924392 
L 146.069385 53.671992 
L 150.755179 54.153922 
L 154.922188 54.365412 
L 158.470003 54.330046 
L 161.381889 54.087326 
L 163.741521 53.675585 
L 165.632574 53.126475 
L 167.138722 52.4634 
L 168.34364 51.694434 
L 169.314269 50.813241 
L 170.100813 49.797831 
L 170.736742 48.611625 
L 171.255526 47.158263 
L 171.657166 45.355155 
L 171.958395 42.93891 
L 172.159215 39.41787 
L 172.259625 33.881713 
L 172.293095 24.430563 
L 172.30983 32.103872 
L 172.30983 32.103872 
L 172.477179 40.833901 
L 172.761674 44.443027 
L 173.180049 46.964901 
L 173.732303 48.927763 
L 174.418437 50.557072 
L 175.271921 52.01875 
L 176.342959 53.405005 
L 177.665023 54.743117 
L 179.30505 56.076922 
L 181.329983 57.429188 
L 183.840229 58.830639 
L 186.952935 60.305118 
L 190.76851 61.859188 
L 194.4 63.164351 
L 194.4 63.164351 
" style="fill:none;stroke:#0000ff;stroke-linecap:square;"/>
   </g>
   <g id="line2d_2">
    <path clip-path="url(#p1d0bea84bd)" d="M 27.06696 -0.711848 
L 27.284515 10.386054 
L 27.619214 16.338136 
L 28.071059 20.503301 
L 28.623313 23.61625 
L 29.275977 26.074508 
L 30.012316 28.014773 
L 30.815595 29.523075 
L 31.652344 30.632698 
L 32.472358 31.368018 
L 33.258902 31.789578 
L 33.995241 31.940066 
L 34.66464 31.856037 
L 35.283834 31.555148 
L 35.852823 31.029612 
L 36.371607 30.244924 
L 36.840187 29.116068 
L 37.225091 27.602919 
L 37.526321 25.531114 
L 37.743876 22.461106 
L 37.86102 18.036858 
L 37.911225 6.922271 
L 37.96143 17.62724 
L 38.16225 24.057349 
L 38.480215 27.321506 
L 38.932059 29.690207 
L 39.501048 31.501941 
L 40.187182 32.951748 
L 40.956991 34.071405 
L 41.79374 34.903524 
L 42.647224 35.445866 
L 43.483973 35.720554 
L 44.270517 35.752906 
L 45.006856 35.566711 
L 45.69299 35.164819 
L 46.328919 34.527318 
L 46.897908 33.630868 
L 47.399958 32.399061 
L 47.801597 30.816787 
L 48.119562 28.63849 
L 48.337116 25.611689 
L 48.470996 20.186105 
L 48.521201 13.614443 
L 48.554671 20.073542 
L 48.554671 20.073542 
L 48.738756 26.635859 
L 49.039985 29.946463 
L 49.475095 32.3138 
L 50.027349 34.091337 
L 50.680013 35.457644 
L 51.416352 36.498421 
L 52.202896 37.239407 
L 53.006175 37.701436 
L 53.792719 37.903636 
L 54.529058 37.870094 
L 55.215192 37.621667 
L 55.851121 37.157943 
L 56.436846 36.454519 
L 56.972365 35.447078 
L 57.424209 34.107215 
L 57.792379 32.299415 
L 58.076873 29.676481 
L 58.260958 25.549818 
L 58.344633 16.927293 
L 58.361368 15.575787 
L 58.361368 15.575787 
L 58.361368 15.575787 
L 58.511983 27.609466 
L 58.779742 31.473063 
L 59.164647 34.003934 
L 59.666696 35.896999 
L 60.28589 37.37904 
L 60.972024 38.468478 
L 61.708363 39.235905 
L 62.427967 39.680687 
L 63.097367 39.847534 
L 63.716561 39.775285 
L 64.268815 39.486497 
L 64.770864 38.972084 
L 65.239444 38.156797 
L 65.641083 36.999659 
L 65.975783 35.348203 
L 66.226807 33.012154 
L 66.394157 29.446286 
L 66.477832 23.238487 
L 66.494567 16.600774 
L 66.511302 21.58643 
L 66.511302 21.58643 
L 66.661917 31.363264 
L 66.946411 35.404099 
L 67.364786 38.177647 
L 67.91704 40.36252 
L 68.619909 42.233693 
L 69.456658 43.833934 
L 70.427287 45.212178 
L 71.48159 46.331679 
L 72.602834 47.202564 
L 73.724077 47.796017 
L 74.795116 48.116596 
L 75.782479 48.184815 
L 76.669433 48.026026 
L 77.455977 47.658558 
L 78.142111 47.091018 
L 78.744571 46.298224 
L 79.263355 45.236919 
L 79.698464 43.820084 
L 80.049899 41.857947 
L 80.300923 39.102659 
L 80.451538 34.975948 
L 80.535213 26.13343 
L 80.568683 32.647231 
L 80.752768 39.251446 
L 81.070732 42.747183 
L 81.505842 45.153655 
L 82.074831 47.088409 
L 82.7777 48.713214 
L 83.631184 50.13218 
L 84.618548 51.347136 
L 85.739791 52.374936 
L 86.961444 53.193248 
L 88.250038 53.789823 
L 89.572101 54.158169 
L 90.894164 54.297324 
L 92.199492 54.210823 
L 93.454616 53.905499 
L 94.659534 53.382914 
L 95.797513 52.645389 
L 96.851816 51.697745 
L 97.822445 50.526239 
L 98.692664 49.126499 
L 99.445738 47.4956 
L 100.081667 45.579677 
L 100.583716 43.341328 
L 100.951886 40.649989 
L 101.186175 37.363213 
L 101.320055 32.55751 
L 101.37026 23.825868 
L 101.420465 31.56818 
L 101.60455 37.675169 
L 101.905779 40.585798 
L 102.290684 42.2364 
L 102.709058 43.137503 
L 103.127433 43.565921 
L 103.529072 43.677905 
L 103.913977 43.557615 
L 104.332351 43.180798 
L 104.767461 42.47776 
L 105.20257 41.333378 
L 105.587474 39.673191 
L 105.888704 37.386084 
L 106.106259 33.886752 
L 106.223404 27.694018 
L 106.256874 20.289036 
L 106.273608 26.416397 
L 106.273608 26.416397 
L 106.440958 34.807883 
L 106.725453 38.262936 
L 107.110357 40.38649 
L 107.562202 41.729945 
L 108.030781 42.496479 
L 108.465891 42.832221 
L 108.850795 42.875916 
L 109.218965 42.695295 
L 109.603869 42.238578 
L 109.988774 41.413245 
L 110.356943 40.053221 
L 110.658173 38.049412 
L 110.875727 35.087344 
L 111.009607 29.846748 
L 111.059812 21.424698 
L 111.093282 29.252246 
L 111.093282 29.252246 
L 111.277367 36.020783 
L 111.578596 39.321213 
L 111.980236 41.44417 
L 112.448815 42.810376 
L 112.90066 43.523847 
L 113.285564 43.776666 
L 113.603529 43.744967 
L 113.904758 43.48476 
L 114.222723 42.89045 
L 114.540687 41.777136 
L 114.825182 39.865788 
L 115.026002 36.950063 
L 115.143147 32.093472 
L 115.193352 24.233846 
L 115.226821 31.659691 
L 115.226821 31.659691 
L 115.410906 38.446399 
L 115.712136 41.832119 
L 116.113775 44.003133 
L 116.53215 45.167713 
L 116.850114 45.515808 
L 117.050934 45.471847 
L 117.251754 45.148742 
L 117.469308 44.285152 
L 117.670128 42.426431 
L 117.804008 39.185454 
L 117.870948 33.286713 
L 117.887683 19.037263 
L 117.904418 33.197282 
L 117.904418 33.197282 
L 118.071768 42.973826 
L 118.389732 47.712517 
L 118.875047 51.562368 
L 119.561181 55.202733 
L 120.448134 58.71419 
L 121.552643 62.182816 
L 122.874706 65.596257 
L 124.397589 68.90739 
L 126.104557 72.086284 
L 127.995609 75.13666 
L 130.037277 78.009987 
L 132.229559 80.712166 
L 134.538985 83.206097 
L 136.932087 85.464385 
L 139.375394 87.46638 
L 141.835436 89.196593 
L 144.262007 90.635055 
L 146.638374 91.788061 
L 148.914331 92.649344 
L 151.089878 93.237764 
L 153.131545 93.563142 
L 155.039333 93.646278 
L 156.829976 93.503642 
L 158.486738 93.15139 
L 160.043091 92.593403 
L 161.499034 91.833125 
L 162.854567 90.87343 
L 164.126426 89.699763 
L 165.331344 88.279951 
L 166.452588 86.611212 
L 167.506891 84.635927 
L 168.47752 82.338591 
L 169.364474 79.660889 
L 170.151018 76.577104 
L 170.837152 72.962939 
L 171.372671 68.948504 
L 171.757575 64.334208 
L 171.97513 58.934829 
L 172.058805 51.918004 
L 172.07554 42.31124 
L 172.092275 51.043244 
L 172.092275 51.043244 
L 172.24289 59.397032 
L 172.460445 61.314926 
L 172.644529 61.581659 
L 172.778409 61.393372 
L 172.995964 60.566521 
L 173.280458 58.493098 
L 173.548218 54.876114 
L 173.732303 49.147278 
L 173.799243 39.500431 
L 173.866183 47.514406 
L 174.050267 51.300539 
L 174.133942 51.498713 
L 174.167412 51.446636 
L 174.267822 50.860784 
L 174.401702 48.701252 
L 174.502112 43.691381 
L 174.535582 32.751807 
L 174.569052 43.224075 
L 174.569052 43.224075 
L 174.736401 49.991273 
L 174.953956 51.597623 
L 175.020896 51.513054 
L 175.121306 50.822007 
L 175.238451 48.446367 
L 175.322126 41.184305 
L 175.338861 35.779453 
L 175.338861 35.779453 
L 175.338861 35.779453 
L 175.47274 50.308737 
L 175.690295 53.113696 
L 175.723765 53.106646 
L 175.7405 53.052229 
L 175.824175 52.018377 
L 175.891115 48.733386 
L 175.90785 46.292976 
L 175.924585 20.445975 
L 175.924585 20.445975 
L 175.924585 20.445975 
L 176.04173 55.400006 
L 176.326224 63.034059 
L 176.811539 69.985286 
L 177.480938 76.354139 
L 178.317687 82.197592 
L 179.321785 87.651605 
L 180.493234 92.796119 
L 181.848767 97.745491 
L 183.388385 102.521532 
L 185.128822 107.190081 
L 187.07008 111.75907 
L 189.228892 116.272746 
L 191.638729 120.792667 
L 194.29959 125.306876 
L 194.4 125.469091 
L 194.4 125.469091 
" style="fill:none;stroke:#008000;stroke-linecap:square;"/>
   </g>
   <g id="line2d_3">
    <path clip-path="url(#p1d0bea84bd)" d="M 27.06696 1.864566 
L 27.284515 12.951087 
L 27.619214 18.857916 
L 28.054324 22.793614 
L 28.573108 25.579976 
L 29.142097 27.489521 
L 29.694351 28.631646 
L 30.179666 29.187113 
L 30.581305 29.350582 
L 30.93274 29.25717 
L 31.267439 28.921751 
L 31.618874 28.215069 
L 31.953573 26.983322 
L 32.238068 25.002761 
L 32.438888 21.980107 
L 32.556033 16.653938 
L 32.589503 8.360052 
L 32.622973 15.703277 
L 32.622973 15.703277 
L 32.807057 23.455325 
L 33.108287 26.98675 
L 33.526661 29.403714 
L 34.045446 31.13918 
L 34.5977 32.255217 
L 35.133219 32.869549 
L 35.601799 33.094144 
L 36.020173 33.051283 
L 36.405077 32.784744 
L 36.806717 32.213327 
L 37.191621 31.253341 
L 37.543056 29.739038 
L 37.827551 27.444783 
L 38.011635 24.200905 
L 38.112045 18.870029 
L 38.145515 3.484711 
L 38.16225 16.43142 
L 38.16225 16.43142 
L 38.3296 25.563558 
L 38.614094 29.202423 
L 39.015734 31.599978 
L 39.501048 33.228688 
L 40.036568 34.29009 
L 40.555352 34.856207 
L 41.007196 35.051624 
L 41.425571 34.994741 
L 41.82721 34.703513 
L 42.22885 34.123277 
L 42.630489 33.121625 
L 42.981924 31.627715 
L 43.266418 29.433026 
L 43.467238 26.089065 
L 43.567648 21.256494 
L 43.601118 13.975291 
L 43.634588 19.910212 
L 43.634588 19.910212 
L 43.801937 27.448436 
L 44.086432 30.932573 
L 44.488072 33.248637 
L 44.973386 34.806956 
L 45.49217 35.773169 
L 45.99422 36.267778 
L 46.429329 36.409884 
L 46.830968 36.310711 
L 47.232608 35.96516 
L 47.634247 35.306401 
L 48.019152 34.2347 
L 48.370586 32.550749 
L 48.638346 30.135615 
L 48.822431 26.264993 
L 48.906106 19.899658 
L 48.922841 12.454937 
L 48.939576 18.608844 
L 48.939576 18.608844 
L 49.09019 28.109713 
L 49.374685 31.983541 
L 49.759589 34.326438 
L 50.228169 35.89717 
L 50.730218 36.864013 
L 51.215533 37.352256 
L 51.633907 37.48612 
L 52.018811 37.380365 
L 52.403716 37.030034 
L 52.805355 36.331036 
L 53.19026 35.172799 
L 53.524959 33.411832 
L 53.775984 30.88464 
L 53.943334 26.836861 
L 54.010274 21.313386 
L 54.027009 14.961857 
L 54.043744 19.475993 
L 54.043744 19.475993 
L 54.194359 29.277176 
L 54.462118 33.016769 
L 54.847023 35.422381 
L 55.315602 36.999845 
L 55.800916 37.916718 
L 56.252761 38.345017 
L 56.637665 38.438175 
L 56.9891 38.304963 
L 57.357269 37.910742 
L 57.725439 37.175713 
L 58.093608 35.899764 
L 58.394838 34.038593 
L 58.629128 31.117928 
L 58.763007 26.736194 
L 58.829947 17.257396 
L 58.863417 24.965902 
L 59.047502 31.715986 
L 59.348732 35.005258 
L 59.750371 37.109323 
L 60.21895 38.448689 
L 60.670795 39.137086 
L 61.072434 39.381057 
L 61.407134 39.335826 
L 61.725098 39.063045 
L 62.059798 38.472728 
L 62.394497 37.421208 
L 62.695727 35.732448 
L 62.930017 33.151964 
L 63.080632 29.03739 
L 63.164306 20.150997 
L 63.197776 26.694798 
L 63.381861 33.281485 
L 63.683091 36.562372 
L 64.08473 38.649742 
L 64.51984 39.85673 
L 64.921479 40.404007 
L 65.239444 40.514783 
L 65.507203 40.376262 
L 65.791698 39.946088 
L 66.092928 39.032313 
L 66.377422 37.359014 
L 66.594977 34.635839 
L 66.728857 29.980849 
L 66.779062 20.091884 
L 66.829267 29.428697 
L 67.030086 35.98071 
L 67.348051 39.238375 
L 67.74969 41.197839 
L 68.11786 42.068498 
L 68.385619 42.251777 
L 68.569704 42.120385 
L 68.770524 41.637065 
L 68.971344 40.536832 
L 69.155428 38.142633 
L 69.272573 33.243209 
L 69.306043 26.370136 
L 69.339513 31.931356 
L 69.339513 31.931356 
L 69.523598 40.346214 
L 69.858297 44.87555 
L 70.360347 48.573268 
L 71.029746 51.861072 
L 71.866495 54.86133 
L 72.820388 57.464974 
L 73.841222 59.619217 
L 74.862056 61.272073 
L 75.815949 62.417193 
L 76.669433 63.114474 
L 77.389037 63.433153 
L 77.991497 63.466476 
L 78.493546 63.27831 
L 78.94539 62.869448 
L 79.363765 62.175066 
L 79.731934 61.119592 
L 80.049899 59.496855 
L 80.284188 57.156394 
L 80.451538 52.917112 
L 80.535213 43.00497 
L 80.568683 50.394967 
L 80.752768 57.236466 
L 81.070732 60.913206 
L 81.522577 63.61397 
L 82.125036 65.883734 
L 82.87811 67.858555 
L 83.765064 69.566308 
L 84.752427 70.994742 
L 85.806731 72.137616 
L 86.894505 72.993285 
L 87.965543 73.561312 
L 89.036582 73.880317 
L 90.07415 73.960977 
L 91.111719 73.81695 
L 92.132553 73.448844 
L 93.153386 72.841955 
L 94.17422 71.973646 
L 95.195053 70.809838 
L 96.215887 69.299216 
L 97.203251 67.432866 
L 98.140409 65.181791 
L 99.010628 62.503396 
L 99.763702 59.468832 
L 100.382896 56.053594 
L 100.834741 52.330636 
L 101.119235 48.22974 
L 101.26985 43.146577 
L 101.320055 37.357501 
L 101.33679 28.772746 
L 101.33679 28.772746 
L 101.33679 28.772746 
L 101.47067 45.250578 
L 101.70496 48.2281 
L 101.972719 49.224238 
L 102.190274 49.372615 
L 102.374359 49.216667 
L 102.642118 48.622386 
L 102.976818 47.27547 
L 103.328252 44.851176 
L 103.596012 41.374767 
L 103.746627 36.705438 
L 103.813567 25.825404 
L 103.863772 34.734616 
L 104.047856 40.423543 
L 104.315616 42.509065 
L 104.566641 43.053931 
L 104.717256 43.02541 
L 104.90134 42.684087 
L 105.13563 41.711067 
L 105.386655 39.595929 
L 105.570739 36.020048 
L 105.671149 28.60023 
L 105.687884 13.198895 
L 105.704619 28.448974 
L 105.704619 28.448974 
L 105.871969 37.624902 
L 106.139729 40.792638 
L 106.457693 42.274389 
L 106.742188 42.73666 
L 106.926273 42.72418 
L 107.127092 42.441921 
L 107.378117 41.626106 
L 107.629142 40.011783 
L 107.846696 37.015431 
L 107.963841 32.665494 
L 108.014046 23.221256 
L 108.064251 31.955018 
L 108.248336 38.120619 
L 108.549565 41.111723 
L 108.884265 42.494455 
L 109.16876 42.92787 
L 109.369579 42.916393 
L 109.570399 42.639634 
L 109.821424 41.838815 
L 110.072448 40.230484 
L 110.273268 37.532461 
L 110.407148 32.445512 
L 110.457353 21.629913 
L 110.490823 31.440361 
L 110.490823 31.440361 
L 110.674908 38.349954 
L 110.959402 41.364416 
L 111.294102 42.864845 
L 111.578596 43.338485 
L 111.762681 43.337295 
L 111.946766 43.087077 
L 112.181056 42.324281 
L 112.415345 40.762833 
L 112.616165 37.821471 
L 112.73331 32.716986 
L 112.76678 26.246021 
L 112.80025 30.976479 
L 112.80025 30.976479 
L 112.967599 38.70307 
L 113.252094 42.028909 
L 113.570059 43.527837 
L 113.837818 43.948848 
L 114.005168 43.885747 
L 114.189253 43.49356 
L 114.406808 42.427982 
L 114.607627 40.314951 
L 114.758242 36.217957 
L 114.825182 27.190657 
L 114.875387 34.244115 
L 115.059472 40.637421 
L 115.343966 43.537717 
L 115.628461 44.632857 
L 115.812546 44.756378 
L 115.946425 44.55326 
L 116.13051 43.745302 
L 116.314595 41.832712 
L 116.448475 38.242935 
L 116.53215 28.457743 
L 116.56562 35.776365 
L 116.749704 42.516497 
L 117.017464 45.252577 
L 117.251754 45.936192 
L 117.352164 45.829378 
L 117.486043 45.189206 
L 117.636658 43.193551 
L 117.737068 39.202848 
L 117.787273 28.059113 
L 117.820743 38.350105 
L 117.820743 38.350105 
L 118.004828 45.531806 
L 118.239117 47.782472 
L 118.289322 47.852513 
L 118.339527 47.744102 
L 118.439937 46.656714 
L 118.523612 42.952864 
L 118.557082 31.684875 
L 118.573817 40.24595 
L 118.573817 40.24595 
L 118.741167 51.530047 
L 119.092601 58.776133 
L 119.66159 65.795192 
L 120.448134 72.731926 
L 121.435498 79.4884 
L 122.623682 86.091734 
L 123.99595 92.464074 
L 125.535568 98.557289 
L 127.2258 104.338591 
L 129.033178 109.736882 
L 130.9577 114.790653 
L 132.965898 119.444404 
L 135.0243 123.661779 
L 137.116172 127.44871 
L 139.208044 130.78348 
L 141.266446 133.655969 
L 143.274644 136.085778 
L 144.911666 137.8 
M 162.430692 137.8 
L 163.557436 135.955554 
L 164.661945 133.716234 
L 165.749719 130.996645 
L 166.804022 127.74474 
L 167.808121 123.912377 
L 168.762014 119.372142 
L 169.648968 114.033565 
L 170.435512 107.932724 
L 171.121646 100.82908 
L 171.640431 93.114428 
L 171.94166 85.382741 
L 172.058805 76.306214 
L 172.07554 66.563252 
L 172.092275 75.195654 
L 172.092275 75.195654 
L 172.24289 82.416386 
L 172.3433 82.843844 
L 172.393505 82.780973 
L 172.527384 82.085187 
L 172.778409 79.39002 
L 173.113109 73.288649 
L 173.397603 64.192265 
L 173.548218 52.024139 
L 173.564953 45.496516 
L 173.598423 51.451017 
L 173.598423 51.451017 
L 173.648628 53.186538 
L 173.698833 52.331474 
L 173.765773 46.988771 
L 173.782508 41.019079 
L 173.799243 44.597029 
L 173.799243 44.597029 
L 173.933123 51.829422 
L 173.983327 51.375876 
L 174.067002 47.914526 
L 174.117207 39.355664 
L 174.150677 47.126788 
L 174.150677 47.126788 
L 174.301292 51.378622 
L 174.351497 51.056781 
L 174.435172 48.678811 
L 174.485377 43.619517 
L 174.502112 31.040973 
L 174.518847 43.315909 
L 174.518847 43.315909 
L 174.669462 51.219017 
L 174.719666 51.404772 
L 174.753136 51.216065 
L 174.836811 49.294488 
L 174.903751 42.201027 
L 174.920486 39.28406 
L 174.920486 39.28406 
L 174.920486 39.28406 
L 175.054366 51.222856 
L 175.121306 51.793898 
L 175.171511 51.491446 
L 175.255186 48.837983 
L 175.305391 39.360523 
L 175.355596 48.47192 
L 175.489475 52.496646 
L 175.522945 52.398901 
L 175.589885 50.718946 
L 175.656825 41.151186 
L 175.690295 49.465852 
L 175.80744 53.644793 
L 175.84091 53.255495 
L 175.891115 50.170348 
L 175.90785 46.267487 
L 175.924585 46.32813 
L 175.924585 46.32813 
L 176.024995 55.561358 
L 176.058465 54.199999 
L 176.0752 50.498708 
L 176.091935 52.373587 
L 176.091935 52.373587 
L 176.259284 70.272515 
L 176.644189 85.11815 
L 177.213178 98.528542 
L 177.949517 110.7631 
L 178.853206 122.126623 
L 179.924244 132.785635 
L 180.511382 137.8 
L 180.511382 137.8 
" style="fill:none;stroke:#ff0000;stroke-linecap:square;"/>
   </g>
   <g id="line2d_4">
    <path clip-path="url(#p1d0bea84bd)" d="M 27.06696 7.951751 
L 27.26778 18.255466 
L 27.535539 22.418494 
L 27.736359 23.239499 
L 27.803299 23.136962 
L 27.920444 22.34863 
L 28.054324 19.458558 
L 28.121264 13.885174 
L 28.137999 5.241951 
L 28.154734 13.108473 
L 28.154734 13.108473 
L 28.322083 23.09764 
L 28.573108 26.292311 
L 28.790663 26.972521 
L 28.874338 26.834891 
L 29.008217 26.030266 
L 29.158832 23.493234 
L 29.259242 16.887908 
L 29.275977 10.194636 
L 29.292712 15.311826 
L 29.292712 15.311826 
L 29.443327 25.082721 
L 29.694351 28.278041 
L 29.895171 28.883508 
L 29.978846 28.772661 
L 30.112726 28.073034 
L 30.263341 25.99782 
L 30.380486 20.831689 
L 30.413955 12.566487 
L 30.447425 19.910603 
L 30.447425 19.910603 
L 30.614775 27.230939 
L 30.8658 29.807159 
L 31.03315 30.159632 
L 31.049885 30.148827 
L 31.150295 29.898159 
L 31.300909 28.772011 
L 31.451524 25.748629 
L 31.535199 19.673557 
L 31.551934 13.397479 
L 31.568669 17.819306 
L 31.568669 17.819306 
L 31.719284 27.612423 
L 31.970308 30.637664 
L 32.154393 31.123352 
L 32.171128 31.116892 
L 32.271538 30.896055 
L 32.422153 29.84912 
L 32.572768 27.117275 
L 32.673177 20.192071 
L 32.689912 11.956074 
L 32.706647 19.197861 
L 32.706647 19.197861 
L 32.857262 28.492213 
L 33.108287 31.44665 
L 33.292372 31.892573 
L 33.392781 31.702236 
L 33.543396 30.726257 
L 33.694011 28.214947 
L 33.794421 22.901098 
L 33.827891 11.232013 
L 33.844626 20.784563 
L 33.844626 20.784563 
L 34.011976 29.608956 
L 34.263 32.211475 
L 34.413615 32.53877 
L 34.447085 32.518856 
L 34.547495 32.249103 
L 34.69811 31.106337 
L 34.848725 28.145544 
L 34.932399 22.71277 
L 34.965869 17.991044 
L 34.982604 22.484018 
L 34.982604 22.484018 
L 35.149954 30.313461 
L 35.400979 32.80617 
L 35.551594 33.09037 
L 35.568329 33.07974 
L 35.668738 32.832445 
L 35.819353 31.739864 
L 35.969968 28.938565 
L 36.053643 24.270602 
L 36.087113 7.948688 
L 36.120583 24.190084 
L 36.120583 24.190084 
L 36.304668 31.266892 
L 36.555692 33.399968 
L 36.672837 33.57825 
L 36.706307 33.553185 
L 36.823452 33.184079 
L 36.990802 31.643712 
L 37.124681 28.387725 
L 37.191621 23.10738 
L 37.208356 17.696576 
L 37.225091 20.56059 
L 37.225091 20.56059 
L 37.375706 30.688055 
L 37.609996 33.522856 
L 37.794081 34.012764 
L 37.810816 34.005327 
L 37.911225 33.776975 
L 38.06184 32.722112 
L 38.212455 30.033086 
L 38.312865 23.764536 
L 38.3296 18.995096 
L 38.346335 20.488816 
L 38.346335 20.488816 
L 38.49695 31.076035 
L 38.731239 33.921222 
L 38.915324 34.404935 
L 38.932059 34.396585 
L 39.032469 34.16132 
L 39.183084 33.088626 
L 39.333699 30.348672 
L 39.434108 23.708531 
L 39.450843 17.536227 
L 39.467578 21.763913 
L 39.467578 21.763913 
L 39.618193 31.517944 
L 39.852483 34.307903 
L 40.036568 34.761787 
L 40.136977 34.560772 
L 40.287592 33.555478 
L 40.438207 30.991761 
L 40.538617 25.530286 
L 40.572087 16.395002 
L 40.588822 23.825055 
L 40.588822 23.825055 
L 40.756172 32.358562 
L 40.990461 34.771939 
L 41.141076 35.094701 
L 41.157811 35.086675 
L 41.258221 34.85065 
L 41.408836 33.766879 
L 41.559451 30.984285 
L 41.65986 23.992313 
L 41.676595 15.471752 
L 41.69333 23.065411 
L 41.69333 23.065411 
L 41.843945 32.252668 
L 42.078235 34.984397 
L 42.245585 35.402436 
L 42.26232 35.395153 
L 42.362729 35.162122 
L 42.513344 34.07848 
L 42.663959 31.286696 
L 42.747634 26.691401 
L 42.781104 14.694807 
L 42.814574 26.359717 
L 42.814574 26.359717 
L 42.998659 33.50266 
L 43.232948 35.506617 
L 43.350093 35.689118 
L 43.383563 35.661335 
L 43.500708 35.268943 
L 43.651323 33.882289 
L 43.801937 30.070273 
L 43.868877 22.862726 
L 43.885612 19.418063 
L 43.885612 19.418063 
L 43.885612 19.418063 
L 44.019492 32.225392 
L 44.253782 35.418162 
L 44.437867 35.961146 
L 44.454602 35.955191 
L 44.555011 35.726429 
L 44.705626 34.63636 
L 44.856241 31.800205 
L 44.939916 27.008331 
L 44.973386 13.111979 
L 44.990121 24.660154 
L 44.990121 24.660154 
L 45.157471 33.543314 
L 45.39176 35.935061 
L 45.52564 36.217352 
L 45.55911 36.19636 
L 45.65952 35.907015 
L 45.810135 34.675996 
L 45.96075 31.390432 
L 46.044424 23.733335 
L 46.061159 19.095531 
L 46.061159 19.095531 
L 46.061159 19.095531 
L 46.195039 32.755722 
L 46.429329 35.946016 
L 46.613414 36.45959 
L 46.697089 36.316304 
L 46.830968 35.537088 
L 46.981583 33.331373 
L 47.098728 27.912929 
L 47.132198 17.525474 
L 47.165668 27.382783 
L 47.165668 27.382783 
L 47.349753 34.596098 
L 47.584042 36.550673 
L 47.684452 36.692954 
L 47.717922 36.665586 
L 47.835067 36.258684 
L 47.985682 34.795979 
L 48.119562 31.401236 
L 48.186502 25.361775 
L 48.203237 11.475278 
L 48.219972 25.158342 
L 48.219972 25.158342 
L 48.387321 34.305622 
L 48.621611 36.672824 
L 48.755491 36.913967 
L 48.788961 36.878684 
L 48.906106 36.43558 
L 49.05672 34.879952 
L 49.1906 31.141924 
L 49.25754 21.865634 
L 49.307745 29.200684 
L 49.49183 35.28519 
L 49.72612 37.047453 
L 49.809794 37.129829 
L 49.843264 37.095165 
L 49.960409 36.64861 
L 50.111024 35.067787 
L 50.244904 31.205832 
L 50.295109 26.383758 
L 50.311844 19.128361 
L 50.328579 25.015875 
L 50.328579 25.015875 
L 50.479194 34.408037 
L 50.713483 37.046252 
L 50.847363 37.340872 
L 50.880833 37.314963 
L 50.981243 36.989741 
L 51.131858 35.607172 
L 51.265737 32.380861 
L 51.332677 27.168988 
L 51.349412 22.04443 
L 51.366147 24.321031 
L 51.366147 24.321031 
L 51.516762 34.583963 
L 51.751052 37.254931 
L 51.884932 37.542905 
L 51.918402 37.513253 
L 52.018811 37.170309 
L 52.169426 35.726191 
L 52.303306 32.271355 
L 52.370246 25.732375 
L 52.386981 18.286316 
L 52.386981 18.286316 
L 52.386981 18.286316 
L 52.520861 34.206655 
L 52.75515 37.34448 
L 52.905765 37.741336 
L 52.9225 37.732966 
L 53.02291 37.459277 
L 53.173525 36.153704 
L 53.307405 33.082891 
L 53.39108 25.020031 
L 53.407815 22.10194 
L 53.407815 22.10194 
L 53.407815 22.10194 
L 53.541694 34.531468 
L 53.775984 37.581908 
L 53.909864 37.935693 
L 53.943334 37.916849 
L 54.043744 37.596412 
L 54.194359 36.158333 
L 54.328238 32.635952 
L 54.395178 25.48484 
L 54.411913 21.821501 
L 54.411913 21.821501 
L 54.411913 21.821501 
L 54.545793 34.753952 
L 54.780083 37.796232 
L 54.913963 38.126286 
L 54.947433 38.098797 
L 55.047842 37.742364 
L 55.198457 36.188989 
L 55.332337 32.197074 
L 55.382542 26.726015 
L 55.399277 16.392403 
L 55.399277 16.392403 
L 55.399277 16.392403 
L 55.533157 34.901179 
L 55.767446 37.995128 
L 55.901326 38.314142 
L 55.934796 38.280641 
L 56.035206 37.895589 
L 56.185821 36.237465 
L 56.319701 31.733253 
L 56.369906 22.066012 
L 56.420111 31.094291 
L 56.604195 36.973005 
L 56.82175 38.471399 
L 56.871955 38.500789 
L 56.92216 38.425784 
L 57.039305 37.802582 
L 57.189919 35.572279 
L 57.290329 31.161747 
L 57.340534 23.742786 
L 57.374004 30.805636 
L 57.374004 30.805636 
L 57.558089 37.131617 
L 57.775644 38.66186 
L 57.825849 38.686938 
L 57.859319 38.643641 
L 57.976463 38.080442 
L 58.127078 35.955692 
L 58.244223 30.2907 
L 58.277693 16.354158 
L 58.294428 27.94068 
L 58.294428 27.94068 
L 58.461778 36.758156 
L 58.679332 38.780651 
L 58.746272 38.879188 
L 58.796477 38.821783 
L 58.913622 38.210077 
L 59.064237 35.892778 
L 59.164647 30.941988 
L 59.198117 20.83809 
L 59.231587 30.369519 
L 59.231587 30.369519 
L 59.398937 37.249346 
L 59.616491 39.026284 
L 59.666696 39.06851 
L 59.716901 38.992973 
L 59.834046 38.307565 
L 59.984661 35.699386 
L 60.085071 28.821312 
L 60.101806 20.979882 
L 60.118541 27.68349 
L 60.118541 27.68349 
L 60.269155 36.901747 
L 60.48671 39.157311 
L 60.55365 39.263361 
L 60.603855 39.198643 
L 60.721 38.516666 
L 60.85488 36.30987 
L 60.955289 30.902028 
L 60.988759 21.72225 
L 61.005494 29.187637 
L 61.005494 29.187637 
L 61.172844 37.608456 
L 61.390399 39.435212 
L 61.440604 39.453505 
L 61.474074 39.392999 
L 61.591219 38.667499 
L 61.725098 36.264246 
L 61.808773 31.730098 
L 61.842243 20.06951 
L 61.875713 31.368865 
L 61.875713 31.368865 
L 62.043063 38.110606 
L 62.243883 39.650897 
L 62.294088 39.648028 
L 62.310823 39.616137 
L 62.411232 39.068312 
L 62.545112 36.927585 
L 62.645522 31.538751 
L 62.678992 22.417257 
L 62.695727 29.83951 
L 62.695727 29.83951 
L 62.863077 38.223079 
L 63.063897 39.864879 
L 63.114102 39.857764 
L 63.130837 39.822216 
L 63.231246 39.222674 
L 63.365126 36.825394 
L 63.448801 32.029312 
L 63.482271 20.854773 
L 63.499006 29.971705 
L 63.499006 29.971705 
L 63.666356 38.541415 
L 63.867176 40.101237 
L 63.934115 39.996545 
L 64.05126 39.019949 
L 64.168405 36.157703 
L 64.235345 30.535657 
L 64.25208 22.937923 
L 64.268815 29.316197 
L 64.268815 29.316197 
L 64.41943 38.517899 
L 64.62025 40.33416 
L 64.670454 40.296382 
L 64.687189 40.244267 
L 64.787599 39.452295 
L 64.904744 36.774186 
L 64.971684 31.849238 
L 64.988419 27.4643 
L 65.005154 27.999819 
L 65.005154 27.999819 
L 65.155769 38.816112 
L 65.356589 40.595188 
L 65.406793 40.506325 
L 65.507203 39.667358 
L 65.624348 36.640733 
L 65.708023 26.820252 
L 65.741493 34.14257 
L 65.925578 40.231132 
L 66.042723 40.870138 
L 66.076193 40.831637 
L 66.159867 40.279514 
L 66.277012 37.764534 
L 66.343952 33.019417 
L 66.377422 28.386722 
L 66.394157 32.835711 
L 66.394157 32.835711 
L 66.561507 40.286758 
L 66.695387 41.172025 
L 66.728857 41.110725 
L 66.812532 40.42181 
L 66.929676 37.109821 
L 66.979881 31.754679 
L 66.996616 20.405825 
L 66.996616 20.405825 
L 66.996616 20.405825 
L 67.130496 39.751116 
L 67.297846 41.506982 
L 67.314581 41.490792 
L 67.381521 41.088976 
L 67.481931 39.018042 
L 67.548871 34.574331 
L 67.582341 28.257569 
L 67.599075 33.703064 
L 67.599075 33.703064 
L 67.766425 41.345376 
L 67.8501 41.881985 
L 67.900305 41.745423 
L 68.000715 40.164461 
L 68.08439 34.963533 
L 68.11786 30.530638 
L 68.134595 34.892219 
L 68.134595 34.892219 
L 68.301945 42.00761 
L 68.368884 42.311999 
L 68.402354 42.185041 
L 68.486029 40.829677 
L 68.569704 35.179284 
L 68.586439 29.393956 
L 68.603174 33.030265 
L 68.603174 33.030265 
L 68.753789 42.392309 
L 68.820729 42.815398 
L 68.870934 42.498621 
L 68.954609 40.104682 
L 69.021549 30.250473 
L 69.055019 38.500799 
L 69.222368 43.405775 
L 69.272573 42.897125 
L 69.356248 38.498994 
L 69.389718 32.181679 
L 69.406453 37.713358 
L 69.406453 37.713358 
L 69.557068 44.140864 
L 69.607273 43.430022 
L 69.674213 37.932911 
L 69.690948 26.97151 
L 69.690948 26.97151 
L 69.690948 26.97151 
L 69.824828 45.082435 
L 69.858297 44.690951 
L 69.908502 41.239888 
L 69.925237 36.229249 
L 69.941972 38.831344 
L 69.941972 38.831344 
L 70.025647 46.323675 
L 70.075852 44.752494 
L 70.109322 38.370761 
L 70.126057 44.624066 
L 70.126057 44.624066 
L 70.176262 48.344316 
L 70.192997 47.320141 
L 70.209732 33.435292 
L 70.209732 33.435292 
L 70.209732 33.435292 
L 70.343612 65.306147 
L 70.695046 85.068733 
L 71.264036 104.58534 
L 72.033845 123.316233 
L 72.799386 137.8 
M 100.874442 137.8 
L 101.219645 124.85158 
L 101.320055 114.591386 
L 101.33679 106.291655 
L 101.33679 106.291655 
L 101.33679 106.291655 
L 101.47067 119.323098 
L 101.487405 119.337384 
L 101.50414 119.302323 
L 101.50414 119.302323 
L 101.60455 118.419531 
L 101.872309 113.348039 
L 102.307419 100.513152 
L 102.725793 81.553299 
L 102.976818 60.63627 
L 103.127433 41.5537 
L 103.177638 46.150365 
L 103.227843 41.974376 
L 103.244578 32.686816 
L 103.261313 40.862716 
L 103.261313 40.862716 
L 103.328252 45.06542 
L 103.378457 43.133293 
L 103.428662 36.420893 
L 103.462132 42.524644 
L 103.462132 42.524644 
L 103.529072 44.323512 
L 103.579277 43.001841 
L 103.646217 33.902459 
L 103.696422 42.322782 
L 103.763362 43.834542 
L 103.813567 43.116192 
L 103.880507 38.099394 
L 103.897242 31.975584 
L 103.913977 36.052402 
L 103.913977 36.052402 
L 104.047856 43.472944 
L 104.098061 42.835638 
L 104.165001 39.244571 
L 104.198471 26.875062 
L 104.231941 38.844761 
L 104.231941 38.844761 
L 104.365821 43.216558 
L 104.382556 43.135946 
L 104.449496 41.713724 
L 104.516436 35.624925 
L 104.533171 25.2714 
L 104.533171 25.2714 
L 104.533171 25.2714 
L 104.667051 42.788376 
L 104.700521 43.033826 
L 104.750726 42.782022 
L 104.8344 40.211984 
L 104.90134 31.922129 
L 104.93481 38.685892 
L 105.085425 42.918696 
L 105.13563 42.592913 
L 105.219305 40.111821 
L 105.26951 34.441389 
L 105.286245 27.846023 
L 105.286245 27.846023 
L 105.286245 27.846023 
L 105.420125 42.319552 
L 105.487065 42.83657 
L 105.537269 42.543647 
L 105.620944 40.386863 
L 105.687884 31.982895 
L 105.738089 38.283292 
L 105.905439 42.78553 
L 105.938909 42.696985 
L 106.022584 41.322824 
L 106.106259 35.577227 
L 106.122994 29.850158 
L 106.139729 33.29825 
L 106.139729 33.29825 
L 106.290343 42.415733 
L 106.357283 42.757972 
L 106.390753 42.60547 
L 106.474428 41.094827 
L 106.558103 34.794208 
L 106.574838 25.226878 
L 106.591573 34.101339 
L 106.591573 34.101339 
L 106.742188 42.38613 
L 106.809128 42.758537 
L 106.859333 42.501943 
L 106.959743 40.141114 
L 107.026682 33.021672 
L 107.043417 29.714235 
L 107.043417 29.714235 
L 107.043417 29.714235 
L 107.177297 41.91771 
L 107.277707 42.771716 
L 107.311177 42.654828 
L 107.394852 41.382299 
L 107.478527 36.877273 
L 107.511997 21.72011 
L 107.528732 34.452498 
L 107.528732 34.452498 
L 107.679347 42.357672 
L 107.746287 42.798266 
L 107.796491 42.632717 
L 107.896901 40.732155 
L 107.963841 36.340035 
L 107.997311 29.50799 
L 108.014046 35.254359 
L 108.014046 35.254359 
L 108.181396 42.597255 
L 108.231601 42.838629 
L 108.281806 42.670125 
L 108.382216 40.798189 
L 108.465891 33.496379 
L 108.482626 27.914224 
L 108.482626 27.914224 
L 108.482626 27.914224 
L 108.616505 41.87735 
L 108.73365 42.884648 
L 108.76712 42.749946 
L 108.86753 41.005112 
L 108.951205 34.7766 
L 108.96794 26.313335 
L 108.984675 33.831904 
L 108.984675 33.831904 
L 109.13529 42.406255 
L 109.218965 42.949555 
L 109.269169 42.731236 
L 109.369579 40.722588 
L 109.436519 36.005043 
L 109.469989 31.526175 
L 109.486724 35.874143 
L 109.486724 35.874143 
L 109.654074 42.777038 
L 109.704279 43.016234 
L 109.754484 42.853628 
L 109.854894 41.022882 
L 109.938569 34.105751 
L 109.955304 25.311601 
L 109.955304 25.311601 
L 109.955304 25.311601 
L 110.089183 42.035743 
L 110.206328 43.090764 
L 110.239798 42.966976 
L 110.323473 41.728419 
L 110.407148 37.501763 
L 110.440618 27.589872 
L 110.474088 36.903779 
L 110.474088 36.903779 
L 110.641438 43.002102 
L 110.691643 43.17634 
L 110.725113 43.06505 
L 110.725113 43.06505 
L 110.808787 41.852223 
L 110.892462 37.670217 
L 110.925932 28.310581 
L 110.959402 36.970748 
L 110.959402 36.970748 
L 111.126752 43.103777 
L 111.176957 43.265583 
L 111.210427 43.140849 
L 111.294102 41.857399 
L 111.377777 37.276851 
L 111.411247 26.044014 
L 111.427982 35.215351 
L 111.427982 35.215351 
L 111.578596 42.93887 
L 111.645536 43.365371 
L 111.695741 43.175254 
L 111.796151 41.101155 
L 111.863091 35.722919 
L 111.879826 29.00038 
L 111.896561 34.1137 
L 111.896561 34.1137 
L 112.047176 43.010471 
L 112.114116 43.469604 
L 112.164321 43.285289 
L 112.247995 41.753535 
L 112.33167 35.32311 
L 112.348405 22.681199 
L 112.36514 35.040852 
L 112.36514 35.040852 
L 112.515755 43.199447 
L 112.582695 43.583241 
L 112.6329 43.321701 
L 112.73331 40.81389 
L 112.80025 30.953309 
L 112.850455 39.136228 
L 113.017804 43.686675 
L 113.034539 43.703259 
L 113.051274 43.666343 
L 113.118214 42.929375 
L 113.201889 39.686027 
L 113.235359 35.474826 
L 113.252094 22.290461 
L 113.252094 22.290461 
L 113.252094 22.290461 
L 113.385974 43.048101 
L 113.469649 43.832066 
L 113.519854 43.595708 
L 113.603529 41.703014 
L 113.670469 35.583154 
L 113.687204 25.26125 
L 113.687204 25.26125 
L 113.687204 25.26125 
L 113.821083 43.266269 
L 113.904758 43.967493 
L 113.954963 43.641309 
L 114.038638 41.364219 
L 114.088843 36.646718 
L 114.105578 29.013564 
L 114.122313 35.451766 
L 114.122313 35.451766 
L 114.272928 43.903912 
L 114.323133 44.10981 
L 114.356603 43.923463 
L 114.440278 41.951866 
L 114.523952 33.116682 
L 114.557422 39.748986 
L 114.724772 44.265601 
L 114.774977 43.850367 
L 114.858652 40.930256 
L 114.908857 28.971269 
L 114.959062 40.669285 
L 115.109677 44.435603 
L 115.126412 44.374406 
L 115.193352 43.260845 
L 115.260291 39.189211 
L 115.293761 31.130072 
L 115.310496 37.769963 
L 115.310496 37.769963 
L 115.461111 44.589022 
L 115.477846 44.618135 
L 115.477846 44.618135 
L 115.477846 44.618135 
L 115.528051 44.203442 
L 115.611726 40.754279 
L 115.645196 34.570632 
L 115.678666 38.977984 
L 115.678666 38.977984 
L 115.829281 44.811751 
L 115.862751 44.642854 
L 115.946425 42.007846 
L 115.99663 31.136714 
L 116.046835 41.676156 
L 116.16398 45.017123 
L 116.19745 44.866639 
L 116.26439 43.03432 
L 116.314595 37.4656 
L 116.33133 31.371499 
L 116.33133 31.371499 
L 116.33133 31.371499 
L 116.46521 45.142259 
L 116.481945 45.238032 
L 116.49868 45.223668 
L 116.49868 45.223668 
L 116.56562 43.884557 
L 116.615825 39.898154 
L 116.63256 35.17387 
L 116.649295 36.681693 
L 116.649295 36.681693 
L 116.783174 45.480996 
L 116.816644 45.325476 
L 116.883584 42.950514 
L 116.933789 31.673901 
L 116.967259 42.038215 
L 116.967259 42.038215 
L 117.067669 45.752498 
L 117.101139 45.538976 
L 117.168079 42.499237 
L 117.201549 32.679728 
L 117.235019 42.02736 
L 117.235019 42.02736 
L 117.335429 46.051461 
L 117.368899 45.700042 
L 117.435838 41.181505 
L 117.452573 35.390601 
L 117.469308 39.103015 
L 117.469308 39.103015 
L 117.586453 46.351745 
L 117.603188 46.149029 
L 117.670128 41.551107 
L 117.686863 34.403651 
L 117.703598 40.270018 
L 117.703598 40.270018 
L 117.804008 46.731887 
L 117.837478 46.11035 
L 117.887683 41.037015 
L 117.904418 34.756546 
L 117.904418 34.756546 
L 117.904418 34.756546 
L 118.004828 47.138421 
L 118.038298 46.377173 
L 118.088503 37.067482 
L 118.138708 46.28575 
L 118.188912 47.571612 
L 118.222382 46.321272 
L 118.255852 39.476848 
L 118.289322 45.510393 
L 118.289322 45.510393 
L 118.339527 48.136885 
L 118.372997 47.035717 
L 118.372997 47.035717 
L 118.406467 37.261705 
L 118.439937 47.030687 
L 118.439937 47.030687 
L 118.473407 48.753936 
L 118.506877 47.389224 
L 118.540347 42.518417 
L 118.557082 47.360106 
L 118.557082 47.360106 
L 118.590552 49.525331 
L 118.607287 48.943382 
L 118.607287 48.943382 
L 118.640757 42.542538 
L 118.657492 48.678018 
L 118.657492 48.678018 
L 118.674227 50.319478 
L 118.690962 50.211362 
L 118.690962 50.211362 
L 118.724432 47.218884 
L 118.724432 47.218884 
L 118.724432 47.218884 
L 118.757902 51.414323 
L 118.757902 51.414323 
L 118.757902 51.414323 
L 118.774637 40.753933 
L 118.774637 40.753933 
L 118.774637 40.753933 
L 118.941986 87.325576 
L 119.310156 123.843671 
L 119.511998 137.8 
M 173.33204 137.8 
L 173.481278 78.840522 
L 173.564953 39.253322 
L 173.598423 47.158897 
L 173.615158 53.648173 
L 173.615158 53.648173 
L 173.615158 53.648173 
L 173.631893 44.915294 
L 173.715568 49.068749 
L 173.749038 52.477661 
L 173.749038 52.477661 
L 173.749038 52.477661 
L 173.832713 46.267808 
L 173.849448 51.664516 
L 173.866183 51.664093 
L 173.882918 47.052115 
L 173.899653 49.547991 
L 173.899653 49.547991 
L 173.916388 51.824383 
L 173.933123 50.934995 
L 173.933123 50.934995 
L 173.949857 42.957239 
L 173.966592 50.077012 
L 173.966592 50.077012 
L 173.983327 51.713128 
L 174.000062 50.657725 
L 174.016797 42.70025 
L 174.033532 49.78906 
L 174.033532 49.78906 
L 174.050267 51.565655 
L 174.067002 50.852523 
L 174.067002 50.852523 
L 174.083737 45.930021 
L 174.100472 48.723821 
L 174.100472 48.723821 
L 174.117207 51.28901 
L 174.133942 51.221192 
L 174.133942 51.221192 
L 174.167412 45.805575 
L 174.184147 50.617989 
L 174.184147 50.617989 
L 174.200882 51.43166 
L 174.200882 51.43166 
L 174.200882 51.43166 
L 174.234352 43.377578 
L 174.318027 43.401467 
L 174.435172 51.344535 
L 174.552317 44.580831 
L 174.569052 48.293687 
L 174.602522 51.311917 
L 174.619257 49.96437 
L 174.619257 49.96437 
L 174.635992 43.551337 
L 174.652727 48.59153 
L 174.652727 48.59153 
L 174.686197 51.323494 
L 174.702931 49.888869 
L 174.702931 49.888869 
L 174.719666 42.782522 
L 174.736401 48.789383 
L 174.736401 48.789383 
L 174.769871 51.353096 
L 174.786606 49.848498 
L 174.803341 41.978181 
L 174.820076 48.985733 
L 174.820076 48.985733 
L 174.853546 51.390708 
L 174.870281 49.787952 
L 174.887016 40.349293 
L 174.903751 49.256779 
L 174.903751 49.256779 
L 174.937221 51.42117 
L 174.953956 49.638022 
L 174.970691 28.359587 
L 174.970691 28.359587 
L 174.970691 28.359587 
L 175.087836 51.687863 
L 175.104571 51.326475 
L 175.138041 45.989856 
L 175.154776 50.855125 
L 175.154776 50.855125 
L 175.171511 51.866971 
L 175.188246 51.027684 
L 175.204981 46.598644 
L 175.221716 48.521727 
L 175.221716 48.521727 
L 175.255186 51.915881 
L 175.271921 50.22586 
L 175.288656 35.749699 
L 175.288656 35.749699 
L 175.288656 35.749699 
L 175.405801 52.175703 
L 175.43927 44.778632 
L 175.456005 51.406334 
L 175.456005 51.406334 
L 175.47274 52.448794 
L 175.47274 52.448794 
L 175.47274 52.448794 
L 175.489475 51.091648 
L 175.50621 33.450464 
L 175.50621 33.450464 
L 175.50621 33.450464 
L 175.60662 52.836952 
L 175.623355 51.400831 
L 175.64009 43.524494 
L 175.64009 43.524494 
L 175.64009 43.524494 
L 175.723765 53.113534 
L 175.7405 52.55819 
L 175.757235 39.07921 
L 175.757235 39.07921 
L 175.757235 39.07921 
L 175.84091 53.808876 
L 175.87438 52.66269 
L 175.891115 54.037839 
L 175.90785 46.05714 
L 175.958055 51.620236 
L 175.958055 51.620236 
L 175.97479 54.891198 
L 175.97479 54.891198 
L 175.97479 54.891198 
L 175.991525 44.276932 
L 175.991525 44.276932 
L 175.991525 44.276932 
L 176.00826 55.413559 
L 176.00826 55.413559 
L 176.00826 55.413559 
L 176.024995 40.193373 
L 176.024995 40.193373 
L 176.024995 40.193373 
L 176.225814 126.377821 
L 176.257216 137.8 
L 176.257216 137.8 
" style="fill:none;stroke:#00bfbf;stroke-linecap:square;"/>
   </g>
   <g id="patch_3">
    <path d="M 27 13.68 
L 194.4 13.68 
" style="fill:none;stroke:#000000;stroke-linecap:square;stroke-linejoin:miter;"/>
   </g>
   <g id="patch_4">
    <path d="M 194.4 119.7 
L 194.4 13.68 
" style="fill:none;stroke:#000000;stroke-linecap:square;stroke-linejoin:miter;"/>
   </g>
   <g id="patch_5">
    <path d="M 27 119.7 
L 194.4 119.7 
" style="fill:none;stroke:#000000;stroke-linecap:square;stroke-linejoin:miter;"/>
   </g>
   <g id="patch_6">
    <path d="M 27 119.7 
L 27 13.68 
" style="fill:none;stroke:#000000;stroke-linecap:square;stroke-linejoin:miter;"/>
   </g>
   <g id="matplotlib.axis_1">
    <g id="xtick_1">
     <g id="line2d_5">
      <path clip-path="url(#p1d0bea84bd)" d="M 27 119.7 
L 27 13.68 
" style="fill:none;opacity:0.3;stroke:#808080;stroke-dasharray:1.000000,3.000000;stroke-dashoffset:0.0;stroke-width:0.5;"/>
     </g>
     <g id="line2d_6">
      <defs>
       <path d="M 0 0 
L 0 -4 
" id="m7f0bbd660e" style="stroke:#000000;stroke-width:0.5;"/>
      </defs>
      <g>
       <use style="stroke:#000000;stroke-width:0.5;" x="27.0" xlink:href="#m7f0bbd660e" y="119.7"/>
      </g>
     </g>
     <g id="line2d_7">
      <defs>
       <path d="M 0 0 
L 0 4 
" id="m1d8282c74d" style="stroke:#000000;stroke-width:0.5;"/>
      </defs>
      <g>
       <use style="stroke:#000000;stroke-width:0.5;" x="27.0" xlink:href="#m1d8282c74d" y="13.68"/>
      </g>
     </g>
     <g id="text_1">
      <!-- 0.0 -->
      <defs>
       <path d="M 31.78125 3.421875 
Q 39.265625 3.421875 42.96875 11.625 
Q 46.6875 19.828125 46.6875 36.375 
Q 46.6875 52.984375 42.96875 61.1875 
Q 39.265625 69.390625 31.78125 69.390625 
Q 24.3125 69.390625 20.59375 61.1875 
Q 16.890625 52.984375 16.890625 36.375 
Q 16.890625 19.828125 20.59375 11.625 
Q 24.3125 3.421875 31.78125 3.421875 
M 31.78125 -1.421875 
Q 19.921875 -1.421875 13.25 8.53125 
Q 6.59375 18.5 6.59375 36.375 
Q 6.59375 54.296875 13.25 64.25 
Q 19.921875 74.21875 31.78125 74.21875 
Q 43.703125 74.21875 50.34375 64.25 
Q 56.984375 54.296875 56.984375 36.375 
Q 56.984375 18.5 50.34375 8.53125 
Q 43.703125 -1.421875 31.78125 -1.421875 
" id="BitstreamVeraSerif-Roman-30"/>
       <path d="M 9.421875 5.078125 
Q 9.421875 7.8125 11.28125 9.71875 
Q 13.140625 11.625 15.921875 11.625 
Q 18.609375 11.625 20.5 9.71875 
Q 22.40625 7.8125 22.40625 5.078125 
Q 22.40625 2.390625 20.5 0.484375 
Q 18.609375 -1.421875 15.921875 -1.421875 
Q 13.140625 -1.421875 11.28125 0.453125 
Q 9.421875 2.34375 9.421875 5.078125 
" id="BitstreamVeraSerif-Roman-2e"/>
      </defs>
      <g transform="translate(20.63875 129.77875)scale(0.08 -0.08)">
       <use xlink:href="#BitstreamVeraSerif-Roman-30"/>
       <use x="63.623046875" xlink:href="#BitstreamVeraSerif-Roman-2e"/>
       <use x="95.41015625" xlink:href="#BitstreamVeraSerif-Roman-30"/>
      </g>
     </g>
    </g>
    <g id="xtick_2">
     <g id="line2d_8">
      <path clip-path="url(#p1d0bea84bd)" d="M 60.48 119.7 
L 60.48 13.68 
" style="fill:none;opacity:0.3;stroke:#808080;stroke-dasharray:1.000000,3.000000;stroke-dashoffset:0.0;stroke-width:0.5;"/>
     </g>
     <g id="line2d_9">
      <g>
       <use style="stroke:#000000;stroke-width:0.5;" x="60.48" xlink:href="#m7f0bbd660e" y="119.7"/>
      </g>
     </g>
     <g id="line2d_10">
      <g>
       <use style="stroke:#000000;stroke-width:0.5;" x="60.48" xlink:href="#m1d8282c74d" y="13.68"/>
      </g>
     </g>
     <g id="text_2">
      <!-- 0.5 -->
      <defs>
       <path d="M 50.296875 72.90625 
L 50.296875 64.890625 
L 16.890625 64.890625 
L 16.890625 44 
Q 19.4375 45.75 22.828125 46.625 
Q 26.21875 47.515625 30.421875 47.515625 
Q 42.234375 47.515625 49.0625 40.96875 
Q 55.90625 34.421875 55.90625 23.09375 
Q 55.90625 11.53125 49 5.046875 
Q 42.09375 -1.421875 29.59375 -1.421875 
Q 24.5625 -1.421875 19.28125 -0.1875 
Q 14.015625 1.03125 8.5 3.515625 
L 8.5 17.671875 
L 14.015625 17.671875 
Q 14.453125 10.75 18.421875 7.078125 
Q 22.40625 3.421875 29.59375 3.421875 
Q 37.3125 3.421875 41.453125 8.5 
Q 45.609375 13.578125 45.609375 23.09375 
Q 45.609375 32.5625 41.484375 37.609375 
Q 37.359375 42.671875 29.59375 42.671875 
Q 25.203125 42.671875 21.84375 41.109375 
Q 18.5 39.546875 15.921875 36.28125 
L 11.71875 36.28125 
L 11.71875 72.90625 
z
" id="BitstreamVeraSerif-Roman-35"/>
      </defs>
      <g transform="translate(54.11875 129.77875)scale(0.08 -0.08)">
       <use xlink:href="#BitstreamVeraSerif-Roman-30"/>
       <use x="63.623046875" xlink:href="#BitstreamVeraSerif-Roman-2e"/>
       <use x="95.41015625" xlink:href="#BitstreamVeraSerif-Roman-35"/>
      </g>
     </g>
    </g>
    <g id="xtick_3">
     <g id="line2d_11">
      <path clip-path="url(#p1d0bea84bd)" d="M 93.96 119.7 
L 93.96 13.68 
" style="fill:none;opacity:0.3;stroke:#808080;stroke-dasharray:1.000000,3.000000;stroke-dashoffset:0.0;stroke-width:0.5;"/>
     </g>
     <g id="line2d_12">
      <g>
       <use style="stroke:#000000;stroke-width:0.5;" x="93.96" xlink:href="#m7f0bbd660e" y="119.7"/>
      </g>
     </g>
     <g id="line2d_13">
      <g>
       <use style="stroke:#000000;stroke-width:0.5;" x="93.96" xlink:href="#m1d8282c74d" y="13.68"/>
      </g>
     </g>
     <g id="text_3">
      <!-- 1.0 -->
      <defs>
       <path d="M 14.203125 0 
L 14.203125 5.171875 
L 26.90625 5.171875 
L 26.90625 65.828125 
L 12.203125 56.296875 
L 12.203125 62.703125 
L 29.984375 74.21875 
L 36.71875 74.21875 
L 36.71875 5.171875 
L 49.421875 5.171875 
L 49.421875 0 
z
" id="BitstreamVeraSerif-Roman-31"/>
      </defs>
      <g transform="translate(87.59875 129.77875)scale(0.08 -0.08)">
       <use xlink:href="#BitstreamVeraSerif-Roman-31"/>
       <use x="63.623046875" xlink:href="#BitstreamVeraSerif-Roman-2e"/>
       <use x="95.41015625" xlink:href="#BitstreamVeraSerif-Roman-30"/>
      </g>
     </g>
    </g>
    <g id="xtick_4">
     <g id="line2d_14">
      <path clip-path="url(#p1d0bea84bd)" d="M 127.44 119.7 
L 127.44 13.68 
" style="fill:none;opacity:0.3;stroke:#808080;stroke-dasharray:1.000000,3.000000;stroke-dashoffset:0.0;stroke-width:0.5;"/>
     </g>
     <g id="line2d_15">
      <g>
       <use style="stroke:#000000;stroke-width:0.5;" x="127.44" xlink:href="#m7f0bbd660e" y="119.7"/>
      </g>
     </g>
     <g id="line2d_16">
      <g>
       <use style="stroke:#000000;stroke-width:0.5;" x="127.44" xlink:href="#m1d8282c74d" y="13.68"/>
      </g>
     </g>
     <g id="text_4">
      <!-- 1.5 -->
      <g transform="translate(121.07875 129.77875)scale(0.08 -0.08)">
       <use xlink:href="#BitstreamVeraSerif-Roman-31"/>
       <use x="63.623046875" xlink:href="#BitstreamVeraSerif-Roman-2e"/>
       <use x="95.41015625" xlink:href="#BitstreamVeraSerif-Roman-35"/>
      </g>
     </g>
    </g>
    <g id="xtick_5">
     <g id="line2d_17">
      <path clip-path="url(#p1d0bea84bd)" d="M 160.92 119.7 
L 160.92 13.68 
" style="fill:none;opacity:0.3;stroke:#808080;stroke-dasharray:1.000000,3.000000;stroke-dashoffset:0.0;stroke-width:0.5;"/>
     </g>
     <g id="line2d_18">
      <g>
       <use style="stroke:#000000;stroke-width:0.5;" x="160.92" xlink:href="#m7f0bbd660e" y="119.7"/>
      </g>
     </g>
     <g id="line2d_19">
      <g>
       <use style="stroke:#000000;stroke-width:0.5;" x="160.92" xlink:href="#m1d8282c74d" y="13.68"/>
      </g>
     </g>
     <g id="text_5">
      <!-- 2.0 -->
      <defs>
       <path d="M 12.796875 55.515625 
L 7.328125 55.515625 
L 7.328125 68.5 
Q 12.546875 71.296875 17.84375 72.75 
Q 23.140625 74.21875 28.21875 74.21875 
Q 39.59375 74.21875 46.1875 68.703125 
Q 52.78125 63.1875 52.78125 53.71875 
Q 52.78125 43.015625 37.84375 28.125 
Q 36.671875 27 36.078125 26.421875 
L 17.671875 8.015625 
L 48.09375 8.015625 
L 48.09375 17 
L 53.8125 17 
L 53.8125 0 
L 6.78125 0 
L 6.78125 5.328125 
L 28.90625 27.390625 
Q 36.234375 34.71875 39.359375 40.84375 
Q 42.484375 46.96875 42.484375 53.71875 
Q 42.484375 61.078125 38.640625 65.234375 
Q 34.8125 69.390625 28.078125 69.390625 
Q 21.09375 69.390625 17.28125 65.921875 
Q 13.484375 62.453125 12.796875 55.515625 
" id="BitstreamVeraSerif-Roman-32"/>
      </defs>
      <g transform="translate(154.55875 129.77875)scale(0.08 -0.08)">
       <use xlink:href="#BitstreamVeraSerif-Roman-32"/>
       <use x="63.623046875" xlink:href="#BitstreamVeraSerif-Roman-2e"/>
       <use x="95.41015625" xlink:href="#BitstreamVeraSerif-Roman-30"/>
      </g>
     </g>
    </g>
    <g id="xtick_6">
     <g id="line2d_20">
      <path clip-path="url(#p1d0bea84bd)" d="M 194.4 119.7 
L 194.4 13.68 
" style="fill:none;opacity:0.3;stroke:#808080;stroke-dasharray:1.000000,3.000000;stroke-dashoffset:0.0;stroke-width:0.5;"/>
     </g>
     <g id="line2d_21">
      <g>
       <use style="stroke:#000000;stroke-width:0.5;" x="194.4" xlink:href="#m7f0bbd660e" y="119.7"/>
      </g>
     </g>
     <g id="line2d_22">
      <g>
       <use style="stroke:#000000;stroke-width:0.5;" x="194.4" xlink:href="#m1d8282c74d" y="13.68"/>
      </g>
     </g>
     <g id="text_6">
      <!-- 2.5 -->
      <g transform="translate(188.03875 129.77875)scale(0.08 -0.08)">
       <use xlink:href="#BitstreamVeraSerif-Roman-32"/>
       <use x="63.623046875" xlink:href="#BitstreamVeraSerif-Roman-2e"/>
       <use x="95.41015625" xlink:href="#BitstreamVeraSerif-Roman-35"/>
      </g>
     </g>
    </g>
    <g id="text_7">
     <!-- $\Omega$ -->
     <defs>
      <path d="M 7.71875 0 
L 4.390625 16.609375 
L 7.328125 16.609375 
Q 7.859375 13.71875 8.296875 11.5 
Q 8.734375 9.28125 9.4375 8.375 
Q 10.15625 7.46875 11.71875 7.171875 
Q 13.28125 6.890625 16.890625 6.890625 
L 23 6.890625 
Q 21.53125 12.546875 15.6875 21.65625 
Q 9.859375 30.765625 7.734375 34.890625 
Q 5.609375 39.015625 5.609375 45.515625 
Q 5.609375 53.078125 10.09375 58.765625 
Q 14.59375 64.453125 21.703125 67.484375 
Q 28.8125 70.515625 36.078125 70.515625 
Q 43.3125 70.515625 50.40625 67.484375 
Q 57.515625 64.453125 62 58.71875 
Q 66.5 52.984375 66.5 45.515625 
Q 66.5 40.4375 64.640625 35.9375 
Q 62.796875 31.453125 59.90625 26.953125 
Q 57.03125 22.46875 53.6875 16.9375 
Q 50.34375 11.421875 49.125 6.890625 
L 55.171875 6.890625 
Q 58.84375 6.890625 60.453125 7.171875 
Q 62.0625 7.46875 62.734375 8.375 
Q 63.421875 9.28125 63.84375 11.5 
Q 64.265625 13.71875 64.796875 16.609375 
L 67.671875 16.609375 
L 64.40625 0 
L 46.6875 0 
Q 45.703125 0 45.703125 1.3125 
Q 45.703125 6.390625 46.9375 11.265625 
Q 48.1875 16.15625 50.625 23.09375 
Q 53.078125 30.03125 54.4375 35.328125 
Q 55.8125 40.625 55.8125 45.515625 
Q 55.8125 51.515625 53.46875 56.640625 
Q 51.125 61.765625 46.625 64.84375 
Q 42.140625 67.921875 36.078125 67.921875 
Q 26.953125 67.921875 21.625 61.40625 
Q 16.3125 54.890625 16.3125 45.515625 
Q 16.359375 40.375 17.53125 35.828125 
Q 18.703125 31.296875 21.3125 23.71875 
Q 23.921875 16.15625 25.171875 11.265625 
Q 26.421875 6.390625 26.421875 1.3125 
Q 26.421875 0 25.390625 0 
z
" id="Cmr10-ad"/>
     </defs>
     <g transform="translate(107.78 142.52125)scale(0.08 -0.08)">
      <use transform="translate(0.0 0.484375)" xlink:href="#Cmr10-ad"/>
     </g>
    </g>
   </g>
   <g id="matplotlib.axis_2">
    <g id="ytick_1">
     <g id="line2d_23">
      <path clip-path="url(#p1d0bea84bd)" d="M 27 119.7 
L 194.4 119.7 
" style="fill:none;opacity:0.3;stroke:#808080;stroke-dasharray:1.000000,3.000000;stroke-dashoffset:0.0;stroke-width:0.5;"/>
     </g>
     <g id="line2d_24">
      <defs>
       <path d="M 0 0 
L 4 0 
" id="m95ed7ab4e2" style="stroke:#000000;stroke-width:0.5;"/>
      </defs>
      <g>
       <use style="stroke:#000000;stroke-width:0.5;" x="27.0" xlink:href="#m95ed7ab4e2" y="119.7"/>
      </g>
     </g>
     <g id="line2d_25">
      <defs>
       <path d="M 0 0 
L -4 0 
" id="m185754c1b1" style="stroke:#000000;stroke-width:0.5;"/>
      </defs>
      <g>
       <use style="stroke:#000000;stroke-width:0.5;" x="194.4" xlink:href="#m185754c1b1" y="119.7"/>
      </g>
     </g>
     <g id="text_8">
      <!-- $\mathdefault{10^{-9}}$ -->
      <defs>
       <path d="M 46.78125 32.671875 
Q 43.5 29 39.25 27.1875 
Q 35.015625 25.390625 29.6875 25.390625 
Q 18.84375 25.390625 12.5625 31.9375 
Q 6.296875 38.484375 6.296875 49.8125 
Q 6.296875 60.890625 13.109375 67.546875 
Q 19.921875 74.21875 31.296875 74.21875 
Q 43.65625 74.21875 50.265625 65.015625 
Q 56.890625 55.8125 56.890625 38.71875 
Q 56.890625 19.578125 49.015625 9.078125 
Q 41.15625 -1.421875 26.90625 -1.421875 
Q 23.046875 -1.421875 18.796875 -0.6875 
Q 14.546875 0.046875 10.109375 1.515625 
L 10.109375 13.625 
L 15.578125 13.625 
Q 16.21875 8.6875 19.390625 6.046875 
Q 22.5625 3.421875 27.875 3.421875 
Q 37.359375 3.421875 41.984375 10.5625 
Q 46.625 17.71875 46.78125 32.671875 
M 30.90625 69.390625 
Q 23.96875 69.390625 20.28125 64.328125 
Q 16.609375 59.28125 16.609375 49.8125 
Q 16.609375 40.328125 20.28125 35.25 
Q 23.96875 30.171875 30.90625 30.171875 
Q 37.84375 30.171875 41.53125 35.078125 
Q 45.21875 39.984375 45.21875 49.21875 
Q 45.21875 58.9375 41.5 64.15625 
Q 37.796875 69.390625 30.90625 69.390625 
" id="BitstreamVeraSerif-Roman-39"/>
       <path d="M 4.390625 30.609375 
L 29.390625 30.609375 
L 29.390625 23 
L 4.390625 23 
z
" id="BitstreamVeraSerif-Roman-2d"/>
      </defs>
      <g transform="translate(6.28 121.99625)scale(0.08 -0.08)">
       <use transform="translate(0.0 0.2015625)" xlink:href="#BitstreamVeraSerif-Roman-31"/>
       <use transform="translate(63.623046875 0.2015625)" xlink:href="#BitstreamVeraSerif-Roman-30"/>
       <use transform="translate(132.478046875 45.046875)scale(0.7)" xlink:href="#BitstreamVeraSerif-Roman-2d"/>
       <use transform="translate(156.130390625 45.046875)scale(0.7)" xlink:href="#BitstreamVeraSerif-Roman-39"/>
      </g>
     </g>
    </g>
    <g id="ytick_2">
     <g id="line2d_26">
      <path clip-path="url(#p1d0bea84bd)" d="M 27 93.195 
L 194.4 93.195 
" style="fill:none;opacity:0.3;stroke:#808080;stroke-dasharray:1.000000,3.000000;stroke-dashoffset:0.0;stroke-width:0.5;"/>
     </g>
     <g id="line2d_27">
      <g>
       <use style="stroke:#000000;stroke-width:0.5;" x="27.0" xlink:href="#m95ed7ab4e2" y="93.195"/>
      </g>
     </g>
     <g id="line2d_28">
      <g>
       <use style="stroke:#000000;stroke-width:0.5;" x="194.4" xlink:href="#m185754c1b1" y="93.195"/>
      </g>
     </g>
     <g id="text_9">
      <!-- $\mathdefault{10^{-6}}$ -->
      <defs>
       <path d="M 32.71875 3.421875 
Q 39.59375 3.421875 43.296875 8.46875 
Q 47.015625 13.53125 47.015625 23 
Q 47.015625 32.46875 43.296875 37.515625 
Q 39.59375 42.578125 32.71875 42.578125 
Q 25.734375 42.578125 22.0625 37.6875 
Q 18.40625 32.8125 18.40625 23.578125 
Q 18.40625 13.875 22.109375 8.640625 
Q 25.828125 3.421875 32.71875 3.421875 
M 16.796875 40.140625 
Q 20.125 43.796875 24.3125 45.59375 
Q 28.515625 47.40625 33.796875 47.40625 
Q 44.671875 47.40625 51 40.859375 
Q 57.328125 34.328125 57.328125 23 
Q 57.328125 11.921875 50.515625 5.25 
Q 43.703125 -1.421875 32.328125 -1.421875 
Q 19.96875 -1.421875 13.328125 7.78125 
Q 6.6875 17 6.6875 34.078125 
Q 6.6875 53.21875 14.546875 63.71875 
Q 22.40625 74.21875 36.71875 74.21875 
Q 40.578125 74.21875 44.828125 73.484375 
Q 49.078125 72.75 53.515625 71.296875 
L 53.515625 59.28125 
L 48 59.28125 
Q 47.40625 64.203125 44.234375 66.796875 
Q 41.0625 69.390625 35.6875 69.390625 
Q 26.21875 69.390625 21.578125 62.203125 
Q 16.9375 55.03125 16.796875 40.140625 
" id="BitstreamVeraSerif-Roman-36"/>
      </defs>
      <g transform="translate(6.28 95.49125)scale(0.08 -0.08)">
       <use transform="translate(0.0 0.2015625)" xlink:href="#BitstreamVeraSerif-Roman-31"/>
       <use transform="translate(63.623046875 0.2015625)" xlink:href="#BitstreamVeraSerif-Roman-30"/>
       <use transform="translate(132.478046875 45.046875)scale(0.7)" xlink:href="#BitstreamVeraSerif-Roman-2d"/>
       <use transform="translate(156.130390625 45.046875)scale(0.7)" xlink:href="#BitstreamVeraSerif-Roman-36"/>
      </g>
     </g>
    </g>
    <g id="ytick_3">
     <g id="line2d_29">
      <path clip-path="url(#p1d0bea84bd)" d="M 27 66.69 
L 194.4 66.69 
" style="fill:none;opacity:0.3;stroke:#808080;stroke-dasharray:1.000000,3.000000;stroke-dashoffset:0.0;stroke-width:0.5;"/>
     </g>
     <g id="line2d_30">
      <g>
       <use style="stroke:#000000;stroke-width:0.5;" x="27.0" xlink:href="#m95ed7ab4e2" y="66.69"/>
      </g>
     </g>
     <g id="line2d_31">
      <g>
       <use style="stroke:#000000;stroke-width:0.5;" x="194.4" xlink:href="#m185754c1b1" y="66.69"/>
      </g>
     </g>
     <g id="text_10">
      <!-- $\mathdefault{10^{-3}}$ -->
      <defs>
       <path d="M 9.71875 69.828125 
Q 15.4375 71.96875 20.671875 73.09375 
Q 25.921875 74.21875 30.515625 74.21875 
Q 41.21875 74.21875 47.21875 69.59375 
Q 53.21875 64.984375 53.21875 56.78125 
Q 53.21875 50.203125 49.0625 45.78125 
Q 44.921875 41.359375 37.3125 39.796875 
Q 46.296875 38.53125 51.25 33.28125 
Q 56.203125 28.03125 56.203125 19.671875 
Q 56.203125 9.46875 49.34375 4.015625 
Q 42.484375 -1.421875 29.59375 -1.421875 
Q 23.875 -1.421875 18.421875 -0.1875 
Q 12.984375 1.03125 7.625 3.515625 
L 7.625 17.671875 
L 13.09375 17.671875 
Q 13.578125 10.640625 17.828125 7.03125 
Q 22.078125 3.421875 29.78125 3.421875 
Q 37.25 3.421875 41.578125 7.734375 
Q 45.90625 12.0625 45.90625 19.578125 
Q 45.90625 28.171875 41.453125 32.59375 
Q 37.015625 37.015625 28.421875 37.015625 
L 23.78125 37.015625 
L 23.78125 42 
L 26.21875 42 
Q 34.765625 42 39.03125 45.53125 
Q 43.3125 49.078125 43.3125 56.203125 
Q 43.3125 62.59375 39.796875 65.984375 
Q 36.28125 69.390625 29.6875 69.390625 
Q 23.09375 69.390625 19.453125 66.265625 
Q 15.828125 63.140625 15.1875 56.984375 
L 9.71875 56.984375 
z
" id="BitstreamVeraSerif-Roman-33"/>
      </defs>
      <g transform="translate(6.28 68.98625)scale(0.08 -0.08)">
       <use transform="translate(0.0 0.2015625)" xlink:href="#BitstreamVeraSerif-Roman-31"/>
       <use transform="translate(63.623046875 0.2015625)" xlink:href="#BitstreamVeraSerif-Roman-30"/>
       <use transform="translate(132.478046875 45.046875)scale(0.7)" xlink:href="#BitstreamVeraSerif-Roman-2d"/>
       <use transform="translate(156.130390625 45.046875)scale(0.7)" xlink:href="#BitstreamVeraSerif-Roman-33"/>
      </g>
     </g>
    </g>
    <g id="ytick_4">
     <g id="line2d_32">
      <path clip-path="url(#p1d0bea84bd)" d="M 27 40.185 
L 194.4 40.185 
" style="fill:none;opacity:0.3;stroke:#808080;stroke-dasharray:1.000000,3.000000;stroke-dashoffset:0.0;stroke-width:0.5;"/>
     </g>
     <g id="line2d_33">
      <g>
       <use style="stroke:#000000;stroke-width:0.5;" x="27.0" xlink:href="#m95ed7ab4e2" y="40.185"/>
      </g>
     </g>
     <g id="line2d_34">
      <g>
       <use style="stroke:#000000;stroke-width:0.5;" x="194.4" xlink:href="#m185754c1b1" y="40.185"/>
      </g>
     </g>
     <g id="text_11">
      <!-- $\mathdefault{10^{0}}$ -->
      <g transform="translate(8.2 42.48125)scale(0.08 -0.08)">
       <use transform="translate(0.0 0.2015625)" xlink:href="#BitstreamVeraSerif-Roman-31"/>
       <use transform="translate(63.623046875 0.2015625)" xlink:href="#BitstreamVeraSerif-Roman-30"/>
       <use transform="translate(132.478046875 45.046875)scale(0.7)" xlink:href="#BitstreamVeraSerif-Roman-30"/>
      </g>
     </g>
    </g>
    <g id="ytick_5">
     <g id="line2d_35">
      <path clip-path="url(#p1d0bea84bd)" d="M 27 13.68 
L 194.4 13.68 
" style="fill:none;opacity:0.3;stroke:#808080;stroke-dasharray:1.000000,3.000000;stroke-dashoffset:0.0;stroke-width:0.5;"/>
     </g>
     <g id="line2d_36">
      <g>
       <use style="stroke:#000000;stroke-width:0.5;" x="27.0" xlink:href="#m95ed7ab4e2" y="13.68"/>
      </g>
     </g>
     <g id="line2d_37">
      <g>
       <use style="stroke:#000000;stroke-width:0.5;" x="194.4" xlink:href="#m185754c1b1" y="13.68"/>
      </g>
     </g>
     <g id="text_12">
      <!-- $\mathdefault{10^{3}}$ -->
      <g transform="translate(8.2 15.97625)scale(0.08 -0.08)">
       <use transform="translate(0.0 0.2015625)" xlink:href="#BitstreamVeraSerif-Roman-31"/>
       <use transform="translate(63.623046875 0.2015625)" xlink:href="#BitstreamVeraSerif-Roman-30"/>
       <use transform="translate(132.478046875 45.046875)scale(0.7)" xlink:href="#BitstreamVeraSerif-Roman-33"/>
      </g>
     </g>
    </g>
    <g id="ytick_6">
     <g id="line2d_38">
      <defs>
       <path d="M 0 0 
L 2 0 
" id="me72858e958" style="stroke:#000000;stroke-width:0.5;"/>
      </defs>
      <g>
       <use style="stroke:#000000;stroke-width:0.5;" x="27.0" xlink:href="#me72858e958" y="117.040399988"/>
      </g>
     </g>
     <g id="line2d_39">
      <defs>
       <path d="M 0 0 
L -2 0 
" id="m5fbb6569ce" style="stroke:#000000;stroke-width:0.5;"/>
      </defs>
      <g>
       <use style="stroke:#000000;stroke-width:0.5;" x="194.4" xlink:href="#m5fbb6569ce" y="117.040399988"/>
      </g>
     </g>
    </g>
    <g id="ytick_7">
     <g id="line2d_40">
      <g>
       <use style="stroke:#000000;stroke-width:0.5;" x="27.0" xlink:href="#me72858e958" y="114.380799977"/>
      </g>
     </g>
     <g id="line2d_41">
      <g>
       <use style="stroke:#000000;stroke-width:0.5;" x="194.4" xlink:href="#m5fbb6569ce" y="114.380799977"/>
      </g>
     </g>
    </g>
    <g id="ytick_8">
     <g id="line2d_42">
      <g>
       <use style="stroke:#000000;stroke-width:0.5;" x="27.0" xlink:href="#me72858e958" y="112.825033703"/>
      </g>
     </g>
     <g id="line2d_43">
      <g>
       <use style="stroke:#000000;stroke-width:0.5;" x="194.4" xlink:href="#m5fbb6569ce" y="112.825033703"/>
      </g>
     </g>
    </g>
    <g id="ytick_9">
     <g id="line2d_44">
      <g>
       <use style="stroke:#000000;stroke-width:0.5;" x="27.0" xlink:href="#me72858e958" y="111.721199965"/>
      </g>
     </g>
     <g id="line2d_45">
      <g>
       <use style="stroke:#000000;stroke-width:0.5;" x="194.4" xlink:href="#m5fbb6569ce" y="111.721199965"/>
      </g>
     </g>
    </g>
    <g id="ytick_10">
     <g id="line2d_46">
      <g>
       <use style="stroke:#000000;stroke-width:0.5;" x="27.0" xlink:href="#me72858e958" y="108.205399988"/>
      </g>
     </g>
     <g id="line2d_47">
      <g>
       <use style="stroke:#000000;stroke-width:0.5;" x="194.4" xlink:href="#m5fbb6569ce" y="108.205399988"/>
      </g>
     </g>
    </g>
    <g id="ytick_11">
     <g id="line2d_48">
      <g>
       <use style="stroke:#000000;stroke-width:0.5;" x="27.0" xlink:href="#me72858e958" y="105.545799977"/>
      </g>
     </g>
     <g id="line2d_49">
      <g>
       <use style="stroke:#000000;stroke-width:0.5;" x="194.4" xlink:href="#m5fbb6569ce" y="105.545799977"/>
      </g>
     </g>
    </g>
    <g id="ytick_12">
     <g id="line2d_50">
      <g>
       <use style="stroke:#000000;stroke-width:0.5;" x="27.0" xlink:href="#me72858e958" y="103.990033703"/>
      </g>
     </g>
     <g id="line2d_51">
      <g>
       <use style="stroke:#000000;stroke-width:0.5;" x="194.4" xlink:href="#m5fbb6569ce" y="103.990033703"/>
      </g>
     </g>
    </g>
    <g id="ytick_13">
     <g id="line2d_52">
      <g>
       <use style="stroke:#000000;stroke-width:0.5;" x="27.0" xlink:href="#me72858e958" y="102.886199965"/>
      </g>
     </g>
     <g id="line2d_53">
      <g>
       <use style="stroke:#000000;stroke-width:0.5;" x="194.4" xlink:href="#m5fbb6569ce" y="102.886199965"/>
      </g>
     </g>
    </g>
    <g id="ytick_14">
     <g id="line2d_54">
      <g>
       <use style="stroke:#000000;stroke-width:0.5;" x="27.0" xlink:href="#me72858e958" y="99.3703999883"/>
      </g>
     </g>
     <g id="line2d_55">
      <g>
       <use style="stroke:#000000;stroke-width:0.5;" x="194.4" xlink:href="#m5fbb6569ce" y="99.3703999883"/>
      </g>
     </g>
    </g>
    <g id="ytick_15">
     <g id="line2d_56">
      <g>
       <use style="stroke:#000000;stroke-width:0.5;" x="27.0" xlink:href="#me72858e958" y="96.7107999766"/>
      </g>
     </g>
     <g id="line2d_57">
      <g>
       <use style="stroke:#000000;stroke-width:0.5;" x="194.4" xlink:href="#m5fbb6569ce" y="96.7107999766"/>
      </g>
     </g>
    </g>
    <g id="ytick_16">
     <g id="line2d_58">
      <g>
       <use style="stroke:#000000;stroke-width:0.5;" x="27.0" xlink:href="#me72858e958" y="95.1550337029"/>
      </g>
     </g>
     <g id="line2d_59">
      <g>
       <use style="stroke:#000000;stroke-width:0.5;" x="194.4" xlink:href="#m5fbb6569ce" y="95.1550337029"/>
      </g>
     </g>
    </g>
    <g id="ytick_17">
     <g id="line2d_60">
      <g>
       <use style="stroke:#000000;stroke-width:0.5;" x="27.0" xlink:href="#me72858e958" y="94.0511999649"/>
      </g>
     </g>
     <g id="line2d_61">
      <g>
       <use style="stroke:#000000;stroke-width:0.5;" x="194.4" xlink:href="#m5fbb6569ce" y="94.0511999649"/>
      </g>
     </g>
    </g>
    <g id="ytick_18">
     <g id="line2d_62">
      <g>
       <use style="stroke:#000000;stroke-width:0.5;" x="27.0" xlink:href="#me72858e958" y="90.5353999883"/>
      </g>
     </g>
     <g id="line2d_63">
      <g>
       <use style="stroke:#000000;stroke-width:0.5;" x="194.4" xlink:href="#m5fbb6569ce" y="90.5353999883"/>
      </g>
     </g>
    </g>
    <g id="ytick_19">
     <g id="line2d_64">
      <g>
       <use style="stroke:#000000;stroke-width:0.5;" x="27.0" xlink:href="#me72858e958" y="87.8757999766"/>
      </g>
     </g>
     <g id="line2d_65">
      <g>
       <use style="stroke:#000000;stroke-width:0.5;" x="194.4" xlink:href="#m5fbb6569ce" y="87.8757999766"/>
      </g>
     </g>
    </g>
    <g id="ytick_20">
     <g id="line2d_66">
      <g>
       <use style="stroke:#000000;stroke-width:0.5;" x="27.0" xlink:href="#me72858e958" y="86.3200337029"/>
      </g>
     </g>
     <g id="line2d_67">
      <g>
       <use style="stroke:#000000;stroke-width:0.5;" x="194.4" xlink:href="#m5fbb6569ce" y="86.3200337029"/>
      </g>
     </g>
    </g>
    <g id="ytick_21">
     <g id="line2d_68">
      <g>
       <use style="stroke:#000000;stroke-width:0.5;" x="27.0" xlink:href="#me72858e958" y="85.2161999649"/>
      </g>
     </g>
     <g id="line2d_69">
      <g>
       <use style="stroke:#000000;stroke-width:0.5;" x="194.4" xlink:href="#m5fbb6569ce" y="85.2161999649"/>
      </g>
     </g>
    </g>
    <g id="ytick_22">
     <g id="line2d_70">
      <g>
       <use style="stroke:#000000;stroke-width:0.5;" x="27.0" xlink:href="#me72858e958" y="81.7003999883"/>
      </g>
     </g>
     <g id="line2d_71">
      <g>
       <use style="stroke:#000000;stroke-width:0.5;" x="194.4" xlink:href="#m5fbb6569ce" y="81.7003999883"/>
      </g>
     </g>
    </g>
    <g id="ytick_23">
     <g id="line2d_72">
      <g>
       <use style="stroke:#000000;stroke-width:0.5;" x="27.0" xlink:href="#me72858e958" y="79.0407999766"/>
      </g>
     </g>
     <g id="line2d_73">
      <g>
       <use style="stroke:#000000;stroke-width:0.5;" x="194.4" xlink:href="#m5fbb6569ce" y="79.0407999766"/>
      </g>
     </g>
    </g>
    <g id="ytick_24">
     <g id="line2d_74">
      <g>
       <use style="stroke:#000000;stroke-width:0.5;" x="27.0" xlink:href="#me72858e958" y="77.4850337029"/>
      </g>
     </g>
     <g id="line2d_75">
      <g>
       <use style="stroke:#000000;stroke-width:0.5;" x="194.4" xlink:href="#m5fbb6569ce" y="77.4850337029"/>
      </g>
     </g>
    </g>
    <g id="ytick_25">
     <g id="line2d_76">
      <g>
       <use style="stroke:#000000;stroke-width:0.5;" x="27.0" xlink:href="#me72858e958" y="76.3811999649"/>
      </g>
     </g>
     <g id="line2d_77">
      <g>
       <use style="stroke:#000000;stroke-width:0.5;" x="194.4" xlink:href="#m5fbb6569ce" y="76.3811999649"/>
      </g>
     </g>
    </g>
    <g id="ytick_26">
     <g id="line2d_78">
      <g>
       <use style="stroke:#000000;stroke-width:0.5;" x="27.0" xlink:href="#me72858e958" y="72.8653999883"/>
      </g>
     </g>
     <g id="line2d_79">
      <g>
       <use style="stroke:#000000;stroke-width:0.5;" x="194.4" xlink:href="#m5fbb6569ce" y="72.8653999883"/>
      </g>
     </g>
    </g>
    <g id="ytick_27">
     <g id="line2d_80">
      <g>
       <use style="stroke:#000000;stroke-width:0.5;" x="27.0" xlink:href="#me72858e958" y="70.2057999766"/>
      </g>
     </g>
     <g id="line2d_81">
      <g>
       <use style="stroke:#000000;stroke-width:0.5;" x="194.4" xlink:href="#m5fbb6569ce" y="70.2057999766"/>
      </g>
     </g>
    </g>
    <g id="ytick_28">
     <g id="line2d_82">
      <g>
       <use style="stroke:#000000;stroke-width:0.5;" x="27.0" xlink:href="#me72858e958" y="68.6500337029"/>
      </g>
     </g>
     <g id="line2d_83">
      <g>
       <use style="stroke:#000000;stroke-width:0.5;" x="194.4" xlink:href="#m5fbb6569ce" y="68.6500337029"/>
      </g>
     </g>
    </g>
    <g id="ytick_29">
     <g id="line2d_84">
      <g>
       <use style="stroke:#000000;stroke-width:0.5;" x="27.0" xlink:href="#me72858e958" y="67.5461999649"/>
      </g>
     </g>
     <g id="line2d_85">
      <g>
       <use style="stroke:#000000;stroke-width:0.5;" x="194.4" xlink:href="#m5fbb6569ce" y="67.5461999649"/>
      </g>
     </g>
    </g>
    <g id="ytick_30">
     <g id="line2d_86">
      <g>
       <use style="stroke:#000000;stroke-width:0.5;" x="27.0" xlink:href="#me72858e958" y="64.0303999883"/>
      </g>
     </g>
     <g id="line2d_87">
      <g>
       <use style="stroke:#000000;stroke-width:0.5;" x="194.4" xlink:href="#m5fbb6569ce" y="64.0303999883"/>
      </g>
     </g>
    </g>
    <g id="ytick_31">
     <g id="line2d_88">
      <g>
       <use style="stroke:#000000;stroke-width:0.5;" x="27.0" xlink:href="#me72858e958" y="61.3707999766"/>
      </g>
     </g>
     <g id="line2d_89">
      <g>
       <use style="stroke:#000000;stroke-width:0.5;" x="194.4" xlink:href="#m5fbb6569ce" y="61.3707999766"/>
      </g>
     </g>
    </g>
    <g id="ytick_32">
     <g id="line2d_90">
      <g>
       <use style="stroke:#000000;stroke-width:0.5;" x="27.0" xlink:href="#me72858e958" y="59.8150337029"/>
      </g>
     </g>
     <g id="line2d_91">
      <g>
       <use style="stroke:#000000;stroke-width:0.5;" x="194.4" xlink:href="#m5fbb6569ce" y="59.8150337029"/>
      </g>
     </g>
    </g>
    <g id="ytick_33">
     <g id="line2d_92">
      <g>
       <use style="stroke:#000000;stroke-width:0.5;" x="27.0" xlink:href="#me72858e958" y="58.7111999649"/>
      </g>
     </g>
     <g id="line2d_93">
      <g>
       <use style="stroke:#000000;stroke-width:0.5;" x="194.4" xlink:href="#m5fbb6569ce" y="58.7111999649"/>
      </g>
     </g>
    </g>
    <g id="ytick_34">
     <g id="line2d_94">
      <g>
       <use style="stroke:#000000;stroke-width:0.5;" x="27.0" xlink:href="#me72858e958" y="55.1953999883"/>
      </g>
     </g>
     <g id="line2d_95">
      <g>
       <use style="stroke:#000000;stroke-width:0.5;" x="194.4" xlink:href="#m5fbb6569ce" y="55.1953999883"/>
      </g>
     </g>
    </g>
    <g id="ytick_35">
     <g id="line2d_96">
      <g>
       <use style="stroke:#000000;stroke-width:0.5;" x="27.0" xlink:href="#me72858e958" y="52.5357999766"/>
      </g>
     </g>
     <g id="line2d_97">
      <g>
       <use style="stroke:#000000;stroke-width:0.5;" x="194.4" xlink:href="#m5fbb6569ce" y="52.5357999766"/>
      </g>
     </g>
    </g>
    <g id="ytick_36">
     <g id="line2d_98">
      <g>
       <use style="stroke:#000000;stroke-width:0.5;" x="27.0" xlink:href="#me72858e958" y="50.9800337029"/>
      </g>
     </g>
     <g id="line2d_99">
      <g>
       <use style="stroke:#000000;stroke-width:0.5;" x="194.4" xlink:href="#m5fbb6569ce" y="50.9800337029"/>
      </g>
     </g>
    </g>
    <g id="ytick_37">
     <g id="line2d_100">
      <g>
       <use style="stroke:#000000;stroke-width:0.5;" x="27.0" xlink:href="#me72858e958" y="49.8761999649"/>
      </g>
     </g>
     <g id="line2d_101">
      <g>
       <use style="stroke:#000000;stroke-width:0.5;" x="194.4" xlink:href="#m5fbb6569ce" y="49.8761999649"/>
      </g>
     </g>
    </g>
    <g id="ytick_38">
     <g id="line2d_102">
      <g>
       <use style="stroke:#000000;stroke-width:0.5;" x="27.0" xlink:href="#me72858e958" y="46.3603999883"/>
      </g>
     </g>
     <g id="line2d_103">
      <g>
       <use style="stroke:#000000;stroke-width:0.5;" x="194.4" xlink:href="#m5fbb6569ce" y="46.3603999883"/>
      </g>
     </g>
    </g>
    <g id="ytick_39">
     <g id="line2d_104">
      <g>
       <use style="stroke:#000000;stroke-width:0.5;" x="27.0" xlink:href="#me72858e958" y="43.7007999766"/>
      </g>
     </g>
     <g id="line2d_105">
      <g>
       <use style="stroke:#000000;stroke-width:0.5;" x="194.4" xlink:href="#m5fbb6569ce" y="43.7007999766"/>
      </g>
     </g>
    </g>
    <g id="ytick_40">
     <g id="line2d_106">
      <g>
       <use style="stroke:#000000;stroke-width:0.5;" x="27.0" xlink:href="#me72858e958" y="42.1450337029"/>
      </g>
     </g>
     <g id="line2d_107">
      <g>
       <use style="stroke:#000000;stroke-width:0.5;" x="194.4" xlink:href="#m5fbb6569ce" y="42.1450337029"/>
      </g>
     </g>
    </g>
    <g id="ytick_41">
     <g id="line2d_108">
      <g>
       <use style="stroke:#000000;stroke-width:0.5;" x="27.0" xlink:href="#me72858e958" y="41.0411999649"/>
      </g>
     </g>
     <g id="line2d_109">
      <g>
       <use style="stroke:#000000;stroke-width:0.5;" x="194.4" xlink:href="#m5fbb6569ce" y="41.0411999649"/>
      </g>
     </g>
    </g>
    <g id="ytick_42">
     <g id="line2d_110">
      <g>
       <use style="stroke:#000000;stroke-width:0.5;" x="27.0" xlink:href="#me72858e958" y="37.5253999883"/>
      </g>
     </g>
     <g id="line2d_111">
      <g>
       <use style="stroke:#000000;stroke-width:0.5;" x="194.4" xlink:href="#m5fbb6569ce" y="37.5253999883"/>
      </g>
     </g>
    </g>
    <g id="ytick_43">
     <g id="line2d_112">
      <g>
       <use style="stroke:#000000;stroke-width:0.5;" x="27.0" xlink:href="#me72858e958" y="34.8657999766"/>
      </g>
     </g>
     <g id="line2d_113">
      <g>
       <use style="stroke:#000000;stroke-width:0.5;" x="194.4" xlink:href="#m5fbb6569ce" y="34.8657999766"/>
      </g>
     </g>
    </g>
    <g id="ytick_44">
     <g id="line2d_114">
      <g>
       <use style="stroke:#000000;stroke-width:0.5;" x="27.0" xlink:href="#me72858e958" y="33.3100337029"/>
      </g>
     </g>
     <g id="line2d_115">
      <g>
       <use style="stroke:#000000;stroke-width:0.5;" x="194.4" xlink:href="#m5fbb6569ce" y="33.3100337029"/>
      </g>
     </g>
    </g>
    <g id="ytick_45">
     <g id="line2d_116">
      <g>
       <use style="stroke:#000000;stroke-width:0.5;" x="27.0" xlink:href="#me72858e958" y="32.2061999649"/>
      </g>
     </g>
     <g id="line2d_117">
      <g>
       <use style="stroke:#000000;stroke-width:0.5;" x="194.4" xlink:href="#m5fbb6569ce" y="32.2061999649"/>
      </g>
     </g>
    </g>
    <g id="ytick_46">
     <g id="line2d_118">
      <g>
       <use style="stroke:#000000;stroke-width:0.5;" x="27.0" xlink:href="#me72858e958" y="28.6903999883"/>
      </g>
     </g>
     <g id="line2d_119">
      <g>
       <use style="stroke:#000000;stroke-width:0.5;" x="194.4" xlink:href="#m5fbb6569ce" y="28.6903999883"/>
      </g>
     </g>
    </g>
    <g id="ytick_47">
     <g id="line2d_120">
      <g>
       <use style="stroke:#000000;stroke-width:0.5;" x="27.0" xlink:href="#me72858e958" y="26.0307999766"/>
      </g>
     </g>
     <g id="line2d_121">
      <g>
       <use style="stroke:#000000;stroke-width:0.5;" x="194.4" xlink:href="#m5fbb6569ce" y="26.0307999766"/>
      </g>
     </g>
    </g>
    <g id="ytick_48">
     <g id="line2d_122">
      <g>
       <use style="stroke:#000000;stroke-width:0.5;" x="27.0" xlink:href="#me72858e958" y="24.4750337029"/>
      </g>
     </g>
     <g id="line2d_123">
      <g>
       <use style="stroke:#000000;stroke-width:0.5;" x="194.4" xlink:href="#m5fbb6569ce" y="24.4750337029"/>
      </g>
     </g>
    </g>
    <g id="ytick_49">
     <g id="line2d_124">
      <g>
       <use style="stroke:#000000;stroke-width:0.5;" x="27.0" xlink:href="#me72858e958" y="23.3711999649"/>
      </g>
     </g>
     <g id="line2d_125">
      <g>
       <use style="stroke:#000000;stroke-width:0.5;" x="194.4" xlink:href="#m5fbb6569ce" y="23.3711999649"/>
      </g>
     </g>
    </g>
    <g id="ytick_50">
     <g id="line2d_126">
      <g>
       <use style="stroke:#000000;stroke-width:0.5;" x="27.0" xlink:href="#me72858e958" y="19.8553999883"/>
      </g>
     </g>
     <g id="line2d_127">
      <g>
       <use style="stroke:#000000;stroke-width:0.5;" x="194.4" xlink:href="#m5fbb6569ce" y="19.8553999883"/>
      </g>
     </g>
    </g>
    <g id="ytick_51">
     <g id="line2d_128">
      <g>
       <use style="stroke:#000000;stroke-width:0.5;" x="27.0" xlink:href="#me72858e958" y="17.1957999766"/>
      </g>
     </g>
     <g id="line2d_129">
      <g>
       <use style="stroke:#000000;stroke-width:0.5;" x="194.4" xlink:href="#m5fbb6569ce" y="17.1957999766"/>
      </g>
     </g>
    </g>
    <g id="ytick_52">
     <g id="line2d_130">
      <g>
       <use style="stroke:#000000;stroke-width:0.5;" x="27.0" xlink:href="#me72858e958" y="15.6400337029"/>
      </g>
     </g>
     <g id="line2d_131">
      <g>
       <use style="stroke:#000000;stroke-width:0.5;" x="194.4" xlink:href="#m5fbb6569ce" y="15.6400337029"/>
      </g>
     </g>
    </g>
    <g id="ytick_53">
     <g id="line2d_132">
      <g>
       <use style="stroke:#000000;stroke-width:0.5;" x="27.0" xlink:href="#me72858e958" y="14.5361999649"/>
      </g>
     </g>
     <g id="line2d_133">
      <g>
       <use style="stroke:#000000;stroke-width:0.5;" x="194.4" xlink:href="#m5fbb6569ce" y="14.5361999649"/>
      </g>
     </g>
    </g>
    <g id="text_13">
     <!-- $u_N/\hat{f}_0$ -->
     <defs>
      <path d="M 13.484375 53.8125 
L 11.53125 55.90625 
L 25 69.390625 
L 38.375 55.90625 
L 36.375 53.8125 
L 25 63.8125 
z
" id="Cmr10-5e"/>
      <path d="M 4.6875 0 
Q 3.71875 0 3.71875 1.3125 
Q 3.765625 1.5625 3.90625 2.171875 
Q 4.046875 2.78125 4.3125 3.140625 
Q 4.59375 3.515625 4.984375 3.515625 
Q 14.546875 3.515625 16.109375 9.625 
L 29.6875 64.3125 
Q 26.90625 64.796875 20.90625 64.796875 
Q 19.921875 64.796875 19.921875 66.109375 
Q 19.96875 66.359375 20.109375 66.96875 
Q 20.265625 67.578125 20.53125 67.9375 
Q 20.796875 68.3125 21.1875 68.3125 
L 38.484375 68.3125 
Q 39.203125 68.3125 39.40625 67.671875 
L 61.625 14.796875 
L 72.703125 59.078125 
Q 72.90625 60.15625 72.90625 60.59375 
Q 72.90625 64.796875 65.1875 64.796875 
Q 64.203125 64.796875 64.203125 66.109375 
Q 64.546875 67.390625 64.734375 67.84375 
Q 64.9375 68.3125 65.921875 68.3125 
L 87.3125 68.3125 
Q 88.28125 68.3125 88.28125 67 
Q 88.234375 66.75 88.078125 66.140625 
Q 87.9375 65.53125 87.671875 65.15625 
Q 87.40625 64.796875 87.015625 64.796875 
Q 77.4375 64.796875 75.875 58.6875 
L 61.53125 0.875 
Q 61.1875 0 60.5 0 
L 59.28125 0 
Q 58.59375 0 58.40625 0.6875 
L 32.90625 61.1875 
L 32.71875 61.8125 
Q 32.515625 62.015625 32.515625 62.109375 
L 19.28125 9.1875 
Q 19.1875 8.9375 19.140625 8.5625 
Q 19.09375 8.203125 19 7.71875 
Q 19 5.125 21.234375 4.3125 
Q 23.484375 3.515625 26.8125 3.515625 
Q 27.78125 3.515625 27.78125 2.203125 
Q 27.4375 0.828125 27.1875 0.40625 
Q 26.953125 0 26.125 0 
z
" id="Cmmi10-4e"/>
      <path d="M 25 -2.203125 
Q 12.75 -2.203125 8.328125 7.875 
Q 3.90625 17.96875 3.90625 31.890625 
Q 3.90625 40.578125 5.484375 48.234375 
Q 7.078125 55.90625 11.78125 61.25 
Q 16.5 66.609375 25 66.609375 
Q 31.59375 66.609375 35.78125 63.375 
Q 39.984375 60.15625 42.1875 55.046875 
Q 44.390625 49.953125 45.1875 44.109375 
Q 46 38.28125 46 31.890625 
Q 46 23.296875 44.40625 15.796875 
Q 42.828125 8.296875 38.1875 3.046875 
Q 33.546875 -2.203125 25 -2.203125 
M 25 0.390625 
Q 30.5625 0.390625 33.296875 6.09375 
Q 36.03125 11.8125 36.671875 18.75 
Q 37.3125 25.6875 37.3125 33.5 
Q 37.3125 41.015625 36.671875 47.359375 
Q 36.03125 53.71875 33.3125 58.859375 
Q 30.609375 64.015625 25 64.015625 
Q 19.34375 64.015625 16.609375 58.828125 
Q 13.875 53.65625 13.234375 47.328125 
Q 12.59375 41.015625 12.59375 33.5 
Q 12.59375 27.9375 12.859375 23 
Q 13.140625 18.0625 14.3125 12.8125 
Q 15.484375 7.5625 18.09375 3.96875 
Q 20.703125 0.390625 25 0.390625 
" id="Cmr10-30"/>
      <path d="M 10.59375 10.890625 
Q 10.59375 14.15625 11.46875 17.59375 
Q 12.359375 21.046875 13.9375 25.265625 
Q 15.53125 29.5 16.703125 32.625 
Q 18.015625 36.28125 18.015625 38.625 
Q 18.015625 41.609375 15.828125 41.609375 
Q 11.859375 41.609375 9.296875 37.53125 
Q 6.734375 33.453125 5.515625 28.421875 
Q 5.328125 27.78125 4.6875 27.78125 
L 3.515625 27.78125 
Q 2.6875 27.78125 2.6875 28.71875 
L 2.6875 29 
Q 4.296875 34.96875 7.609375 39.578125 
Q 10.9375 44.1875 16.015625 44.1875 
Q 19.578125 44.1875 22.046875 41.84375 
Q 24.515625 39.5 24.515625 35.890625 
Q 24.515625 34.03125 23.6875 31.984375 
Q 23.25 30.765625 21.6875 26.65625 
Q 20.125 22.5625 19.28125 19.875 
Q 18.453125 17.1875 17.921875 14.59375 
Q 17.390625 12.015625 17.390625 9.421875 
Q 17.390625 6.109375 18.796875 3.8125 
Q 20.21875 1.515625 23.390625 1.515625 
Q 29.78125 1.515625 34.625 9.421875 
Q 34.71875 9.8125 34.78125 10.171875 
Q 34.859375 10.546875 34.90625 10.890625 
L 42.09375 39.890625 
Q 42.4375 41.21875 43.65625 42.15625 
Q 44.875 43.109375 46.296875 43.109375 
Q 47.515625 43.109375 48.40625 42.328125 
Q 49.3125 41.546875 49.3125 40.28125 
Q 49.3125 39.703125 49.21875 39.5 
L 42 10.6875 
Q 41.3125 7.71875 41.3125 5.8125 
Q 41.3125 1.515625 44.1875 1.515625 
Q 47.40625 1.515625 49 5.484375 
Q 50.59375 9.46875 51.703125 14.703125 
Q 51.90625 15.28125 52.484375 15.28125 
L 53.71875 15.28125 
Q 54.109375 15.28125 54.34375 14.9375 
Q 54.59375 14.59375 54.59375 14.3125 
Q 53.515625 10.015625 52.515625 6.9375 
Q 51.515625 3.859375 49.359375 1.359375 
Q 47.21875 -1.125 44 -1.125 
Q 40.828125 -1.125 38.3125 0.609375 
Q 35.796875 2.34375 34.90625 5.328125 
Q 32.625 2.390625 29.59375 0.625 
Q 26.5625 -1.125 23.1875 -1.125 
Q 17.4375 -1.125 14.015625 2.015625 
Q 10.59375 5.171875 10.59375 10.890625 
" id="Cmmi10-75"/>
      <path d="M 9.71875 -16.5 
Q 11.578125 -17.921875 14.203125 -17.921875 
Q 17.78125 -17.921875 20.015625 -10.015625 
Q 20.953125 -6.203125 25.09375 15.09375 
L 29.6875 39.59375 
L 21.09375 39.59375 
Q 20.125 39.59375 20.125 40.921875 
Q 20.515625 43.109375 21.390625 43.109375 
L 30.328125 43.109375 
L 31.5 49.609375 
Q 32.078125 52.640625 32.5625 54.8125 
Q 33.0625 56.984375 33.625 58.828125 
Q 34.1875 60.6875 35.296875 62.984375 
Q 37.015625 66.265625 39.921875 68.390625 
Q 42.828125 70.515625 46.1875 70.515625 
Q 48.390625 70.515625 50.46875 69.703125 
Q 52.546875 68.890625 53.859375 67.28125 
Q 55.171875 65.671875 55.171875 63.484375 
Q 55.171875 60.9375 53.484375 59.046875 
Q 51.8125 57.171875 49.421875 57.171875 
Q 47.796875 57.171875 46.65625 58.171875 
Q 45.515625 59.1875 45.515625 60.796875 
Q 45.515625 62.984375 47 64.625 
Q 48.484375 66.265625 50.6875 66.5 
Q 48.828125 67.921875 46.09375 67.921875 
Q 44.578125 67.921875 43.234375 66.5 
Q 41.890625 65.09375 41.5 63.484375 
Q 40.875 60.9375 38.71875 49.703125 
L 37.5 43.109375 
L 47.796875 43.109375 
Q 48.78125 43.109375 48.78125 41.796875 
Q 48.734375 41.546875 48.578125 40.9375 
Q 48.4375 40.328125 48.171875 39.953125 
Q 47.90625 39.59375 47.515625 39.59375 
L 36.8125 39.59375 
L 32.171875 15.1875 
Q 31.296875 9.859375 30.140625 4.359375 
Q 29 -1.125 26.921875 -6.90625 
Q 24.859375 -12.703125 21.625 -16.609375 
Q 18.40625 -20.515625 14.015625 -20.515625 
Q 10.640625 -20.515625 7.984375 -18.578125 
Q 5.328125 -16.65625 5.328125 -13.484375 
Q 5.328125 -10.9375 6.953125 -9.046875 
Q 8.59375 -7.171875 11.078125 -7.171875 
Q 12.75 -7.171875 13.859375 -8.171875 
Q 14.984375 -9.1875 14.984375 -10.796875 
Q 14.984375 -12.9375 13.390625 -14.71875 
Q 11.8125 -16.5 9.71875 -16.5 
" id="Cmmi10-66"/>
      <path d="M 5.609375 -23 
Q 5.609375 -22.703125 5.71875 -22.609375 
L 40.484375 73.78125 
Q 40.671875 74.359375 41.15625 74.671875 
Q 41.65625 75 42.28125 75 
Q 43.171875 75 43.71875 74.453125 
Q 44.28125 73.921875 44.28125 73 
L 44.28125 72.609375 
L 9.515625 -23.78125 
Q 8.9375 -25 7.625 -25 
Q 6.78125 -25 6.1875 -24.40625 
Q 5.609375 -23.828125 5.609375 -23 
" id="Cmmi10-3d"/>
     </defs>
     <g transform="translate(-0.72 77.29)rotate(-90.0)scale(0.08 -0.08)">
      <use transform="translate(0.0 0.40625)" xlink:href="#Cmmi10-75"/>
      <use transform="translate(57.177734375 -16.6)scale(0.7)" xlink:href="#Cmmi10-4e"/>
      <use transform="translate(119.780664062 0.40625)" xlink:href="#Cmmi10-3d"/>
      <use transform="translate(175.468652344 29.609375)" xlink:href="#Cmr10-5e"/>
      <use transform="translate(169.780664062 0.40625)" xlink:href="#Cmmi10-66"/>
      <use transform="translate(223.121757812 -16.6)scale(0.7)" xlink:href="#Cmr10-30"/>
     </g>
    </g>
   </g>
   <g id="legend_1">
    <g id="patch_7">
     <path d="M 30 116.7 
L 69.512812 116.7 
L 69.512812 79.6725 
L 30 79.6725 
z
" style="fill:#ffffff;stroke:#000000;stroke-linejoin:miter;"/>
    </g>
    <g id="line2d_134">
     <path d="M 34.2 84.531562 
L 42.6 84.531562 
" style="fill:none;stroke:#0000ff;stroke-linecap:square;"/>
    </g>
    <g id="line2d_135"/>
    <g id="text_14">
     <!-- N=1 -->
     <defs>
      <path d="M 4.890625 0 
L 4.890625 5.171875 
L 14.703125 5.171875 
L 14.703125 67.671875 
L 4.890625 67.671875 
L 4.890625 72.90625 
L 23.578125 72.90625 
L 67.28125 15.375 
L 67.28125 67.671875 
L 57.515625 67.671875 
L 57.515625 72.90625 
L 83.109375 72.90625 
L 83.109375 67.671875 
L 73.296875 67.671875 
L 73.296875 -1.421875 
L 67.390625 -1.421875 
L 20.703125 60.015625 
L 20.703125 5.171875 
L 30.515625 5.171875 
L 30.515625 0 
z
" id="BitstreamVeraSerif-Roman-4e"/>
      <path d="M 10.59375 45.21875 
L 73.1875 45.21875 
L 73.1875 37.40625 
L 10.59375 37.40625 
z
M 10.59375 25.296875 
L 73.1875 25.296875 
L 73.1875 17.484375 
L 10.59375 17.484375 
z
" id="BitstreamVeraSerif-Roman-3d"/>
     </defs>
     <g transform="translate(49.2 86.6315625)scale(0.06 -0.06)">
      <use xlink:href="#BitstreamVeraSerif-Roman-4e"/>
      <use x="87.5" xlink:href="#BitstreamVeraSerif-Roman-3d"/>
      <use x="171.2890625" xlink:href="#BitstreamVeraSerif-Roman-31"/>
     </g>
    </g>
    <g id="line2d_136">
     <path d="M 34.2 93.338437 
L 42.6 93.338437 
" style="fill:none;stroke:#008000;stroke-linecap:square;"/>
    </g>
    <g id="line2d_137"/>
    <g id="text_15">
     <!-- N=5 -->
     <g transform="translate(49.2 95.4384375)scale(0.06 -0.06)">
      <use xlink:href="#BitstreamVeraSerif-Roman-4e"/>
      <use x="87.5" xlink:href="#BitstreamVeraSerif-Roman-3d"/>
      <use x="171.2890625" xlink:href="#BitstreamVeraSerif-Roman-35"/>
     </g>
    </g>
    <g id="line2d_138">
     <path d="M 34.2 102.145312 
L 42.6 102.145312 
" style="fill:none;stroke:#ff0000;stroke-linecap:square;"/>
    </g>
    <g id="line2d_139"/>
    <g id="text_16">
     <!-- N=10 -->
     <g transform="translate(49.2 104.2453125)scale(0.06 -0.06)">
      <use xlink:href="#BitstreamVeraSerif-Roman-4e"/>
      <use x="87.5" xlink:href="#BitstreamVeraSerif-Roman-3d"/>
      <use x="171.2890625" xlink:href="#BitstreamVeraSerif-Roman-31"/>
      <use x="234.912109375" xlink:href="#BitstreamVeraSerif-Roman-30"/>
     </g>
    </g>
    <g id="line2d_140">
     <path d="M 34.2 110.952187 
L 42.6 110.952187 
" style="fill:none;stroke:#00bfbf;stroke-linecap:square;"/>
    </g>
    <g id="line2d_141"/>
    <g id="text_17">
     <!-- N=50 -->
     <g transform="translate(49.2 113.0521875)scale(0.06 -0.06)">
      <use xlink:href="#BitstreamVeraSerif-Roman-4e"/>
      <use x="87.5" xlink:href="#BitstreamVeraSerif-Roman-3d"/>
      <use x="171.2890625" xlink:href="#BitstreamVeraSerif-Roman-35"/>
      <use x="234.912109375" xlink:href="#BitstreamVeraSerif-Roman-30"/>
     </g>
    </g>
   </g>
  </g>
 </g>
 <defs>
  <clipPath id="p1d0bea84bd">
   <rect height="106.02" width="167.4" x="27.0" y="13.68"/>
  </clipPath>
 </defs>
</svg>
