<?xml version="1.0" encoding="utf-8" standalone="no"?>
<!DOCTYPE svg PUBLIC "-//W3C//DTD SVG 1.1//EN"
  "http://www.w3.org/Graphics/SVG/1.1/DTD/svg11.dtd">
<!-- Created with matplotlib (http://matplotlib.org/) -->
<svg height="432pt" version="1.1" viewBox="0 0 576 432" width="576pt" xmlns="http://www.w3.org/2000/svg" xmlns:xlink="http://www.w3.org/1999/xlink">
 <defs>
  <style type="text/css">
*{stroke-linecap:butt;stroke-linejoin:round;}
  </style>
 </defs>
 <g id="figure_1">
  <g id="patch_1">
   <path d="
M0 432
L576 432
L576 0
L0 0
z
" style="fill:#ffffff;"/>
  </g>
  <g id="axes_1">
   <g id="patch_2">
    <path d="
M72 388.8
L518.4 388.8
L518.4 43.2
L72 43.2
z
" style="fill:#ffffff;"/>
   </g>
   <g id="line2d_1">
    <path clip-path="url(#p7ff5b81e1d)" d="
M72.4118 -1
L72.8033 15.741
L73.2942 27.6697
L73.919 37.5208
L74.633 45.4304
L75.4809 52.4084
L76.4627 58.6153
L77.5338 63.9848
L78.7387 68.8969
L80.0775 73.4088
L81.5055 77.4542
L83.0675 81.2254
L84.7633 84.7482
L86.593 88.0454
L88.6012 91.203
L90.7432 94.1567
L93.0638 96.976
L95.5629 99.6587
L98.2405 102.204
L101.097 104.614
L104.176 106.92
L107.478 109.112
L111.004 111.183
L114.752 113.124
L118.724 114.929
L122.919 116.589
L127.292 118.082
L131.889 119.413
L136.619 120.551
L141.439 121.481
L146.303 122.195
L151.168 122.684
L155.943 122.942
L160.584 122.971
L165.002 122.78
L169.197 122.377
L173.124 121.778
L176.739 121.003
L180.041 120.072
L183.031 119.003
L185.753 117.799
L188.208 116.475
L190.439 115.019
L192.447 113.442
L194.232 111.758
L195.839 109.938
L197.267 107.989
L198.561 105.846
L199.721 103.487
L200.748 100.889
L201.64 98.0317
L202.444 94.6902
L203.113 90.9524
L203.693 86.4041
L204.139 81.2068
L204.496 74.5094
L204.764 64.9703
L204.898 54.3084
L204.987 25.7197
L205.032 41.101
L205.21 63.8763
L205.523 75.1943
L205.969 82.9219
L206.505 88.4566
L207.174 93.1066
L207.977 97.0972
L208.87 100.44
L209.896 103.452
L211.057 106.186
L212.395 108.762
L213.868 111.112
L215.519 113.324
L217.349 115.401
L219.357 117.347
L221.588 119.199
L224.043 120.946
L226.72 122.58
L229.621 124.091
L232.745 125.469
L236.092 126.701
L239.573 127.744
L243.143 128.582
L246.713 129.195
L250.239 129.577
L253.63 129.724
L256.843 129.645
L259.833 129.354
L262.6 128.864
L265.099 128.201
L267.375 127.372
L269.428 126.393
L271.302 125.252
L272.998 123.956
L274.516 122.514
L275.899 120.883
L277.149 119.053
L278.264 117.012
L279.246 114.753
L280.139 112.128
L280.897 109.226
L281.567 105.81
L282.147 101.688
L282.638 96.5092
L282.995 90.5153
L283.262 82.621
L283.441 71.3851
L283.575 42.5401
L283.619 61.8808
L283.843 81.9096
L284.2 92.2986
L284.646 99.0704
L285.226 104.603
L285.94 109.275
L286.788 113.331
L287.77 116.932
L288.885 120.184
L290.18 123.262
L291.652 126.175
L293.303 128.938
L295.133 131.569
L297.231 134.191
L299.551 136.734
L302.184 139.283
L305.129 141.818
L308.387 144.326
L312.002 146.828
L316.018 149.335
L320.481 151.855
L325.345 154.343
L330.656 156.81
L336.413 159.237
L342.616 161.609
L349.221 163.895
L356.182 166.067
L363.412 168.089
L370.82 169.929
L378.272 171.552
L385.68 172.938
L392.865 174.058
L399.738 174.906
L406.209 175.484
L412.189 175.797
L417.678 175.865
L422.631 175.707
L427.094 175.345
L431.066 174.803
L434.591 174.103
L437.715 173.26
L440.482 172.29
L442.936 171.201
L445.123 169.992
L447.087 168.654
L448.827 167.201
L450.389 165.608
L451.772 163.884
L453.022 161.975
L454.138 159.867
L455.164 157.433
L456.057 154.728
L456.86 151.539
L457.529 147.95
L458.109 143.571
L458.556 138.577
L458.913 132.21
L459.18 123.439
L459.359 109.053
L459.448 78.2443
L459.493 103.257
L459.716 124.225
L460.073 134.727
L460.519 141.52
L461.099 147.048
L461.813 151.701
L462.661 155.73
L463.643 159.296
L464.759 162.512
L466.053 165.548
L467.481 168.336
L469.132 171.066
L470.962 173.663
L473.059 176.249
L475.425 178.805
L478.102 181.364
L481.092 183.91
L484.484 186.501
L488.322 189.148
L492.65 191.856
L497.515 194.631
L502.959 197.477
L509.073 200.418
L515.901 203.452
L518.4 204.507
L518.4 204.507" style="fill:none;stroke:#0000ff;stroke-linecap:square;"/>
   </g>
   <g id="line2d_2">
    <path clip-path="url(#p7ff5b81e1d)" d="
M72.2003 -1
L72.4909 21.5818
L72.8926 36.5225
L73.4281 48.2496
L74.0529 57.2757
L74.8115 65.0545
L75.6594 71.5164
L76.5966 77.0334
L77.623 81.8203
L78.7387 86.0094
L79.9436 89.6842
L81.1931 92.7967
L82.4873 95.4327
L83.7815 97.5789
L85.0756 99.3063
L86.3252 100.62
L87.5301 101.581
L88.6904 102.233
L89.8061 102.608
L90.8325 102.728
L91.8143 102.63
L92.7961 102.302
L93.7332 101.749
L94.6257 100.967
L95.5183 99.8833
L96.3662 98.5009
L97.1695 96.7707
L97.9281 94.6106
L98.6421 91.8782
L99.2669 88.5854
L99.8024 84.5711
L100.249 79.553
L100.606 72.9755
L100.873 63.4724
L101.007 52.6902
L101.097 21.1714
L101.141 40.6384
L101.32 62.8005
L101.632 74.1447
L102.078 81.9891
L102.614 87.6681
L103.283 92.4822
L104.087 96.6387
L104.979 100.123
L106.006 103.241
L107.121 105.926
L108.326 108.247
L109.576 110.181
L110.87 111.781
L112.164 113.037
L113.458 113.99
L114.708 114.644
L115.913 115.037
L117.118 115.196
L118.278 115.12
L119.394 114.819
L120.465 114.299
L121.491 113.557
L122.517 112.532
L123.499 111.226
L124.436 109.595
L125.329 107.569
L126.132 105.18
L126.846 102.373
L127.516 98.7811
L128.051 94.7103
L128.497 89.69
L128.854 83.2146
L129.122 74.1175
L129.301 58.1706
L129.39 42.9863
L129.568 71.5128
L129.881 83.3993
L130.327 91.3491
L130.863 97.0125
L131.532 101.757
L132.291 105.613
L133.183 109.015
L134.165 111.9
L135.236 114.375
L136.396 116.499
L137.601 118.244
L138.806 119.614
L140.011 120.666
L141.216 121.435
L142.376 121.925
L143.537 122.174
L144.652 122.183
L145.723 121.967
L146.75 121.536
L147.776 120.856
L148.758 119.933
L149.695 118.749
L150.632 117.189
L151.48 115.345
L152.283 113.064
L152.997 110.385
L153.667 106.976
L154.247 102.776
L154.693 97.9856
L155.05 91.9525
L155.318 83.9384
L155.496 72.3041
L155.63 49.3798
L155.809 79.0707
L156.121 91.0399
L156.567 99.0192
L157.103 104.698
L157.772 109.451
L158.531 113.31
L159.424 116.706
L160.405 119.573
L161.476 122.012
L162.592 124.005
L163.708 125.564
L164.823 126.764
L165.939 127.642
L166.965 128.183
L167.947 128.462
L168.884 128.5
L169.777 128.313
L170.625 127.907
L171.473 127.239
L172.276 126.312
L173.035 125.103
L173.793 123.457
L174.507 121.341
L175.132 118.801
L175.712 115.493
L176.203 111.397
L176.605 106.218
L176.917 99.4107
L177.14 89.8101
L177.274 74.3584
L177.319 52.721
L177.363 68.9731
L177.542 91.7205
L177.854 103.239
L178.301 111.264
L178.881 117.546
L179.595 122.782
L180.443 127.322
L181.424 131.36
L182.54 135.012
L183.79 138.346
L185.173 141.405
L186.646 144.134
L188.208 146.577
L189.859 148.756
L191.555 150.631
L193.251 152.186
L194.946 153.448
L196.598 154.41
L198.204 155.096
L199.766 155.52
L201.239 155.69
L202.622 155.625
L203.916 155.345
L205.121 154.864
L206.282 154.162
L207.397 153.218
L208.424 152.054
L209.405 150.596
L210.298 148.873
L211.146 146.738
L211.904 144.213
L212.574 141.219
L213.154 137.633
L213.645 133.257
L214.047 127.749
L214.359 120.423
L214.582 109.537
L214.671 99.2142
L214.761 83.7952
L214.939 112.535
L215.251 124.502
L215.698 132.557
L216.233 138.351
L216.903 143.268
L217.706 147.542
L218.643 151.328
L219.714 154.731
L220.919 157.819
L222.258 160.639
L223.731 163.218
L225.292 165.513
L226.988 167.611
L228.773 169.464
L230.603 171.05
L232.522 172.419
L234.441 173.521
L236.404 174.395
L238.368 175.027
L240.332 175.428
L242.295 175.6
L244.214 175.547
L246.133 175.268
L248.007 174.77
L249.837 174.055
L251.622 173.123
L253.407 171.936
L255.148 170.506
L256.843 168.816
L258.45 166.899
L260.012 164.684
L261.485 162.207
L262.868 159.443
L264.162 156.352
L265.323 153.011
L266.394 149.233
L267.331 145.086
L268.134 140.489
L268.803 135.32
L269.339 129.402
L269.741 122.529
L270.053 112.889
L270.231 100.248
L270.321 76.2731
L270.365 84.0635
L270.544 108.436
L270.856 119.546
L271.258 126.206
L271.749 130.907
L272.329 134.41
L272.954 136.901
L273.623 138.691
L274.292 139.868
L274.917 140.551
L275.497 140.893
L276.078 140.986
L276.658 140.85
L277.282 140.455
L277.952 139.74
L278.666 138.62
L279.38 137.074
L280.094 134.995
L280.808 132.185
L281.433 128.815
L282.013 124.371
L282.459 119.271
L282.816 112.767
L283.084 103.802
L283.262 88.8824
L283.352 64.7439
L283.53 99.9734
L283.843 112.072
L284.244 119.303
L284.78 124.915
L285.404 129.106
L286.074 132.187
L286.788 134.515
L287.547 136.256
L288.261 137.372
L288.93 138.035
L289.555 138.352
L290.135 138.396
L290.67 138.22
L291.251 137.783
L291.831 137.065
L292.455 135.926
L293.08 134.319
L293.705 132.081
L294.285 129.17
L294.821 125.3
L295.267 120.424
L295.624 114.081
L295.892 105.196
L296.07 90.1295
L296.159 68.4459
L296.338 101.814
L296.65 113.971
L297.052 121.355
L297.588 127.176
L298.212 131.595
L298.926 135.075
L299.685 137.67
L300.399 139.387
L301.068 140.484
L301.693 141.106
L302.229 141.34
L302.72 141.305
L303.166 141.049
L303.657 140.492
L304.192 139.496
L304.728 137.984
L305.263 135.754
L305.754 132.734
L306.2 128.559
L306.557 123.202
L306.825 116.242
L307.004 107.175
L307.138 85.871
L307.182 77.603
L307.361 109.607
L307.673 121.844
L308.119 130.002
L308.655 135.764
L309.28 140.178
L309.949 143.393
L310.574 145.415
L311.109 146.504
L311.556 146.956
L311.868 147.001
L312.136 146.834
L312.448 146.354
L312.805 145.324
L313.162 143.565
L313.519 140.605
L313.832 136.078
L314.099 128.446
L314.278 115.468
L314.323 107.113
L314.367 60.6634
L314.412 106.822
L314.635 130.297
L314.992 142.18
L315.483 151.115
L316.152 159.186
L317 166.688
L318.027 173.825
L319.276 180.955
L320.749 188.049
L322.4 194.919
L324.274 201.77
L326.372 208.581
L328.648 215.21
L331.102 221.677
L333.735 227.99
L336.547 234.155
L339.537 240.171
L342.66 245.956
L345.918 251.522
L349.31 256.877
L352.791 261.96
L356.361 266.785
L360.02 271.361
L363.724 275.64
L367.473 279.634
L371.266 283.351
L375.015 286.717
L378.763 289.787
L382.467 292.535
L386.127 294.974
L389.697 297.089
L393.178 298.895
L396.569 300.406
L399.827 301.618
L402.996 302.563
L406.03 303.24
L408.976 303.673
L411.787 303.865
L414.509 303.831
L417.142 303.576
L419.686 303.106
L422.14 302.423
L424.506 301.533
L426.782 300.439
L429.013 299.116
L431.155 297.586
L433.252 295.811
L435.261 293.822
L437.224 291.566
L439.143 289.021
L441.017 286.16
L442.847 282.949
L444.588 279.441
L446.283 275.514
L447.89 271.233
L449.452 266.424
L450.925 261.154
L452.308 255.363
L453.602 248.96
L454.762 242.092
L455.789 234.709
L456.681 226.704
L457.44 217.828
L458.02 208.321
L458.422 198.088
L458.69 185.202
L458.823 167.847
L458.868 136.531
L458.913 164.995
L459.091 184.939
L459.359 193.122
L459.671 197.088
L459.984 198.826
L460.252 199.338
L460.43 199.32
L460.653 198.968
L460.966 197.935
L461.367 195.749
L461.858 191.707
L462.349 185.735
L462.795 177.49
L463.152 166.234
L463.375 150.573
L463.465 127.368
L463.509 132.29
L463.688 156.153
L463.956 163.912
L464.223 166.29
L464.357 166.48
L464.491 166.14
L464.67 164.873
L464.893 161.747
L465.116 155.832
L465.294 145.82
L465.384 133.085
L465.428 105.37
L465.473 130.014
L465.651 151.301
L465.964 161.566
L466.276 165.66
L466.544 166.802
L466.633 166.771
L466.767 166.32
L466.946 164.837
L467.169 160.921
L467.347 154.405
L467.481 142.78
L467.57 115.239
L467.749 154.094
L468.017 165.265
L468.329 170.67
L468.552 171.785
L468.641 171.544
L468.775 170.15
L468.954 164.652
L469.088 149.511
L469.132 65.2555
L469.132 65.2555
L469.132 65.2555
L469.266 166.027
L469.578 185.488
L470.069 200.88
L470.739 214.829
L471.587 227.978
L472.613 240.533
L473.818 252.581
L475.201 264.176
L476.763 275.358
L478.459 285.906
L480.334 296.174
L482.386 306.18
L484.618 315.943
L487.027 325.485
L489.616 334.825
L492.383 343.982
L495.373 353.107
L498.541 362.066
L501.933 370.99
L505.548 379.876
L509.385 388.72
L513.446 397.521
L517.775 406.369
L518.4 407.606
L518.4 407.606" style="fill:none;stroke:#008000;stroke-linecap:square;"/>
   </g>
   <g id="line2d_3">
    <path clip-path="url(#p7ff5b81e1d)" d="
M72.1786 4.68449
L72.4909 29.966
L72.8926 44.8688
L73.4281 56.5108
L74.0529 65.3868
L74.7669 72.5314
L75.5702 78.4246
L76.4181 83.1002
L77.3106 86.8414
L78.2032 89.6731
L79.0511 91.6773
L79.8543 93.0351
L80.5684 93.8275
L81.1931 94.2039
L81.7287 94.2829
L82.2195 94.1448
L82.7104 93.7856
L83.246 93.107
L83.8261 91.9659
L84.4063 90.2781
L84.9418 88.0369
L85.4773 84.7642
L85.9236 80.6359
L86.2806 75.4395
L86.593 67.2961
L86.7715 57.4401
L86.8607 45.6186
L86.9053 25.8582
L86.95 39.0792
L87.1285 62.4319
L87.4409 74.0109
L87.8871 82.0156
L88.4226 87.8092
L89.092 92.6849
L89.8507 96.6108
L90.6986 99.827
L91.5465 102.219
L92.3944 103.996
L93.1977 105.211
L93.9563 105.988
L94.6704 106.406
L95.2951 106.525
L95.8753 106.421
L96.4554 106.098
L97.0802 105.477
L97.705 104.53
L98.3298 103.183
L98.9545 101.315
L99.5793 98.7066
L100.159 95.2302
L100.65 90.8545
L101.052 85.2135
L101.364 77.4957
L101.587 65.2441
L101.677 51.2407
L101.721 9.96578
L101.721 9.96578
L101.721 9.96578
L101.855 65.6585
L102.123 79.4053
L102.525 88.1784
L103.016 94.2459
L103.64 99.2378
L104.354 103.171
L105.158 106.345
L105.961 108.67
L106.809 110.464
L107.612 111.664
L108.371 112.413
L109.04 112.784
L109.665 112.891
L110.29 112.763
L110.914 112.385
L111.539 111.732
L112.209 110.679
L112.878 109.179
L113.547 107.085
L114.172 104.357
L114.752 100.744
L115.243 96.2018
L115.645 90.3096
L115.957 82.0728
L116.136 72.314
L116.225 60.9863
L116.27 44.1626
L116.314 51.8232
L116.493 76.5154
L116.805 88.0818
L117.251 95.9077
L117.787 101.459
L118.412 105.774
L119.126 109.252
L119.929 112.069
L120.732 114.111
L121.536 115.574
L122.294 116.519
L123.008 117.062
L123.633 117.277
L124.213 117.26
L124.793 117.027
L125.418 116.517
L126.043 115.709
L126.712 114.45
L127.382 112.68
L128.006 110.397
L128.587 107.464
L129.122 103.605
L129.568 98.7959
L129.925 92.627
L130.193 84.2241
L130.372 71.2001
L130.461 39.2066
L130.506 59.2669
L130.684 81.3082
L130.996 92.5681
L131.443 100.278
L131.978 105.757
L132.603 110.009
L133.317 113.417
L134.076 116.024
L134.879 118.013
L135.638 119.339
L136.352 120.178
L137.021 120.64
L137.646 120.801
L138.226 120.715
L138.806 120.392
L139.386 119.813
L140.011 118.864
L140.636 117.512
L141.261 115.641
L141.885 113.045
L142.465 109.622
L142.956 105.383
L143.358 100.059
L143.67 93.1267
L143.894 83.4512
L144.027 68.083
L144.072 47.3785
L144.117 62.0936
L144.295 85.0258
L144.608 96.3872
L145.054 104.121
L145.589 109.597
L146.214 113.827
L146.928 117.196
L147.687 119.742
L148.445 121.555
L149.159 122.743
L149.829 123.468
L150.454 123.832
L150.989 123.909
L151.525 123.767
L152.06 123.392
L152.64 122.699
L153.265 121.564
L153.89 119.93
L154.515 117.621
L155.095 114.573
L155.63 110.447
L156.077 105.097
L156.434 97.7348
L156.657 88.7442
L156.791 76.0205
L156.88 54.8615
L157.058 87.8123
L157.371 99.9429
L157.772 107.309
L158.308 113.104
L158.933 117.49
L159.647 120.923
L160.361 123.34
L161.075 125.044
L161.744 126.128
L162.369 126.746
L162.904 126.99
L163.395 126.982
L163.886 126.743
L164.377 126.255
L164.913 125.4
L165.493 124.018
L166.073 122.016
L166.608 119.376
L167.099 115.886
L167.546 111.076
L167.903 104.733
L168.17 95.7215
L168.349 79.8796
L168.438 64.2939
L168.617 93.134
L168.929 105.06
L169.331 112.392
L169.866 118.18
L170.491 122.542
L171.16 125.734
L171.874 128.077
L172.544 129.538
L173.124 130.314
L173.615 130.636
L174.016 130.668
L174.418 130.48
L174.864 129.988
L175.311 129.151
L175.802 127.734
L176.292 125.613
L176.783 122.41
L177.23 117.799
L177.587 111.511
L177.854 102.256
L177.988 91.7697
L178.077 64.1012
L178.122 78.2818
L178.301 101.434
L178.613 112.973
L179.059 120.898
L179.595 126.514
L180.22 130.765
L180.844 133.595
L181.424 135.298
L181.915 136.114
L182.272 136.335
L182.54 136.272
L182.808 135.982
L183.12 135.298
L183.477 133.914
L183.834 131.561
L184.147 128.103
L184.414 122.942
L184.638 114.256
L184.771 100.346
L184.816 84.5668
L184.861 90.4212
L185.039 116.316
L185.352 128.941
L185.798 138.19
L186.423 146.402
L187.226 153.883
L188.208 160.854
L189.323 167.204
L190.618 173.291
L192.046 178.936
L193.563 184.042
L195.169 188.673
L196.776 192.646
L198.383 196.051
L199.945 198.864
L201.462 201.148
L202.845 202.848
L204.139 204.096
L205.3 204.912
L206.326 205.37
L207.219 205.54
L208.067 205.474
L208.825 205.192
L209.539 204.697
L210.253 203.923
L210.923 202.873
L211.592 201.4
L212.217 199.479
L212.797 196.975
L213.333 193.632
L213.779 189.431
L214.136 184.092
L214.404 177.169
L214.582 168.131
L214.716 146.79
L214.761 138.792
L214.939 170.699
L215.251 183.054
L215.698 191.448
L216.278 198.013
L216.992 203.522
L217.84 208.345
L218.822 212.681
L219.982 216.784
L221.276 220.527
L222.659 223.862
L224.177 226.94
L225.739 229.616
L227.345 231.946
L228.996 233.958
L230.648 235.63
L232.299 236.992
L233.95 238.065
L235.557 238.846
L237.118 239.363
L238.68 239.648
L240.198 239.702
L241.715 239.536
L243.232 239.147
L244.75 238.53
L246.312 237.649
L247.874 236.508
L249.435 235.092
L251.042 233.331
L252.649 231.237
L254.255 228.779
L255.862 225.919
L257.468 222.604
L259.075 218.768
L260.637 214.447
L262.154 209.571
L263.582 204.214
L264.921 198.3
L266.126 191.947
L267.197 185.067
L268.089 177.867
L268.803 170.322
L269.339 162.45
L269.741 153.365
L270.008 142.29
L270.142 129.898
L270.231 92.3988
L270.276 122.462
L270.499 142.954
L270.812 151.135
L271.213 155.819
L271.615 158.131
L272.017 159.234
L272.329 159.542
L272.597 159.512
L272.909 159.187
L273.311 158.36
L273.802 156.767
L274.382 154.037
L274.962 150.215
L275.542 144.811
L276.033 137.98
L276.39 129.948
L276.658 118.257
L276.792 102.648
L276.836 82.7911
L276.881 95.724
L277.059 118.413
L277.372 128.725
L277.729 133.911
L278.13 136.946
L278.532 138.468
L278.844 138.952
L279.068 138.993
L279.291 138.803
L279.603 138.159
L279.96 136.864
L280.362 134.575
L280.808 130.583
L281.21 124.623
L281.522 116.023
L281.7 105.449
L281.79 91.8364
L281.834 41.6317
L281.879 91.3433
L282.102 113.829
L282.415 123.263
L282.816 129.364
L283.307 133.603
L283.798 136.089
L284.244 137.376
L284.646 137.918
L284.914 137.989
L285.181 137.836
L285.494 137.37
L285.895 136.279
L286.342 134.298
L286.788 131.203
L287.19 126.853
L287.547 120.406
L287.814 111.022
L287.948 100.547
L288.037 74.3022
L288.082 86.1566
L288.261 109.657
L288.573 120.942
L288.975 127.818
L289.466 132.621
L290.001 135.777
L290.492 137.512
L290.938 138.368
L291.295 138.621
L291.563 138.568
L291.875 138.238
L292.232 137.484
L292.634 136.079
L293.08 133.628
L293.527 129.748
L293.884 124.739
L294.196 116.986
L294.374 108.136
L294.508 89.0762
L294.553 69.1148
L294.553 69.1148
L294.553 69.1148
L294.731 109.28
L295.044 121.582
L295.445 128.8
L295.936 133.801
L296.472 137.082
L296.963 138.878
L297.409 139.747
L297.721 139.968
L297.989 139.908
L298.257 139.612
L298.614 138.815
L299.016 137.273
L299.417 134.823
L299.819 130.954
L300.176 125.208
L300.444 117.235
L300.622 105.256
L300.711 84.1622
L300.756 86.57
L300.935 113.104
L301.247 124.769
L301.649 131.815
L302.139 136.697
L302.63 139.611
L303.077 141.155
L303.434 141.771
L303.701 141.895
L303.925 141.772
L304.192 141.338
L304.505 140.385
L304.862 138.569
L305.263 135.186
L305.62 130.024
L305.888 122.999
L306.067 113.501
L306.156 102.56
L306.2 87.2415
L306.245 91.6021
L306.424 117.446
L306.736 129.096
L307.138 136.117
L307.629 140.855
L308.075 143.276
L308.432 144.278
L308.7 144.535
L308.878 144.466
L309.101 144.089
L309.369 143.151
L309.681 141.206
L309.994 137.891
L310.306 131.926
L310.529 123.269
L310.663 110.531
L310.752 91.3719
L310.931 123.018
L311.243 135.172
L311.645 142.279
L312.091 146.416
L312.448 148.02
L312.671 148.348
L312.805 148.282
L312.984 147.852
L313.207 146.652
L313.475 143.824
L313.742 138.121
L313.921 129.987
L314.055 111.585
L314.099 90.0725
L314.099 90.0725
L314.099 90.0725
L314.278 132.077
L314.59 144.931
L314.947 151.483
L315.26 154.18
L315.438 154.594
L315.527 154.433
L315.661 153.586
L315.84 150.696
L316.018 142.877
L316.108 131.148
L316.152 101.892
L316.197 129.799
L316.42 156.191
L316.822 172.571
L317.402 186.71
L318.205 200.756
L319.231 214.746
L320.481 228.692
L321.954 242.575
L323.605 256.031
L325.435 269.15
L327.487 282.246
L329.674 294.777
L332.039 307.054
L334.583 319.076
L337.261 330.654
L340.072 341.823
L342.973 352.45
L346.007 362.729
L349.131 372.527
L352.344 381.873
L355.602 390.668
L358.905 398.947
L362.207 406.638
L365.554 413.873
L368.856 420.492
L372.159 426.62
L375.416 432.201
L375.906 433
M439.63 433
L441.374 427.694
L443.115 421.683
L444.811 415.024
L446.462 407.642
L448.068 399.442
L449.63 390.3
L451.103 380.373
L452.531 369.206
L453.87 356.936
L455.075 343.861
L456.191 329.258
L457.128 314.014
L457.842 298.946
L458.333 284.431
L458.645 269.232
L458.823 247.347
L458.868 215.587
L458.913 243.726
L459.091 262.064
L459.314 267.264
L459.538 268.619
L459.627 268.639
L459.761 268.293
L459.984 266.943
L460.341 263.287
L460.832 255.851
L461.412 243.503
L461.947 227.518
L462.394 207.858
L462.706 183.45
L462.795 168.193
L462.84 146.914
L462.885 157.582
L463.063 171.982
L463.152 170.763
L463.286 163.749
L463.375 151.779
L463.42 132.319
L463.465 143.982
L463.643 164.607
L463.822 167.558
L463.911 166.889
L464.045 163.364
L464.179 154.796
L464.313 126.897
L464.357 145.316
L464.58 163.04
L464.803 166.089
L464.893 165.619
L465.027 163.09
L465.205 153.962
L465.294 140.796
L465.339 99.7926
L465.384 139.806
L465.562 159.514
L465.785 165.568
L465.919 166.174
L466.008 165.559
L466.142 162.847
L466.321 152.943
L466.455 126.663
L466.633 158.936
L466.856 166.398
L466.99 167.442
L467.035 167.349
L467.169 165.608
L467.303 160.722
L467.436 146.537
L467.481 126.912
L467.526 140.264
L467.704 163.124
L467.927 169.45
L468.017 169.726
L468.106 168.764
L468.24 163.938
L468.329 155.507
L468.418 132.75
L468.597 167.533
L468.82 173.476
L468.909 172.207
L468.998 167.469
L469.088 149.427
L469.132 149.625
L469.311 177.571
L469.4 179.723
L469.445 178.792
L469.534 163.22
L469.578 169.332
L469.802 209.761
L470.248 241.192
L470.873 269.456
L471.721 297.547
L472.747 323.975
L473.907 348.245
L475.246 371.662
L476.763 394.262
L478.415 415.559
L479.94 433
L479.94 433" style="fill:none;stroke:#ff0000;stroke-linecap:square;"/>
   </g>
   <g id="line2d_4">
    <path clip-path="url(#p7ff5b81e1d)" d="
M72.1786 24.5273
L72.4463 47.0686
L72.8033 60.7464
L73.205 68.942
L73.6066 73.1649
L73.8744 74.2849
L74.0083 74.3413
L74.1421 74.0274
L74.3206 72.931
L74.5438 70.0547
L74.7669 64.0198
L74.9454 51.6711
L74.99 43.8688
L75.0347 15.694
L75.0793 41.337
L75.3024 65.7646
L75.6148 76.1068
L76.0164 82.5951
L76.4181 85.7374
L76.6858 86.5007
L76.8197 86.5019
L76.9536 86.2347
L77.1767 85.1132
L77.4445 82.2983
L77.7123 76.6469
L77.8908 68.9002
L78.0246 53.657
L78.0693 31.8385
L78.1139 48.5194
L78.2924 71.3193
L78.6048 82.6708
L79.0064 89.1469
L79.3634 91.8984
L79.6312 92.7081
L79.7651 92.7445
L79.899 92.529
L80.1221 91.5557
L80.3899 89.1219
L80.6576 84.4834
L80.8807 76.7935
L81.0146 66.5128
L81.1039 39.5702
L81.1485 52.7757
L81.327 76.1355
L81.6394 87.3728
L81.9964 93.1641
L82.3534 96.0116
L82.6212 96.862
L82.7551 96.9197
L82.8889 96.7303
L83.1121 95.8218
L83.3798 93.5392
L83.6476 89.2677
L83.8707 82.5409
L84.0492 70.0689
L84.1385 42.279
L84.1831 56.6932
L84.3616 79.7352
L84.674 90.8421
L85.031 96.5144
L85.388 99.2516
L85.6558 100.022
L85.7897 100.04
L85.9236 99.811
L86.1467 98.8351
L86.4144 96.4658
L86.6822 92.0876
L86.9053 85.2104
L87.0838 72.2948
L87.1731 37.5804
L87.2177 61.1869
L87.3962 82.7965
L87.7086 93.6669
L88.0656 99.2145
L88.4226 101.853
L88.6904 102.553
L88.8243 102.536
L89.0028 102.124
L89.2259 100.921
L89.4937 98.1899
L89.7614 93.1746
L89.9846 84.8842
L90.1185 73.2586
L90.2077 35.2201
L90.2523 66.3592
L90.4755 87.8653
L90.7879 97.0372
L91.1449 101.956
L91.5019 104.217
L91.725 104.667
L91.8589 104.61
L92.0374 104.143
L92.2605 102.862
L92.5283 100.006
L92.7961 94.7689
L93.0192 85.9519
L93.1531 72.6447
L93.2423 57.253
L93.4208 85.9227
L93.7332 97.4211
L94.0902 103.099
L94.4472 105.763
L94.715 106.461
L94.8489 106.439
L95.0274 106.019
L95.2505 104.807
L95.5183 102.071
L95.786 97.0785
L96.0092 88.9091
L96.143 77.7228
L96.1877 69.2664
L96.2323 24.5173
L96.2769 68.597
L96.5001 91.2723
L96.8124 100.529
L97.1695 105.433
L97.5265 107.649
L97.7496 108.063
L97.8835 107.982
L98.062 107.478
L98.3298 105.765
L98.5975 102.511
L98.8653 96.4828
L99.0884 85.3709
L99.1777 73.931
L99.2223 56.2931
L99.2669 65.6291
L99.4454 89.7738
L99.7578 100.836
L100.115 106.338
L100.472 108.874
L100.74 109.477
L100.873 109.404
L101.052 108.91
L101.275 107.585
L101.543 104.657
L101.811 99.3028
L102.034 90.2317
L102.168 76.0732
L102.212 60.526
L102.257 65.3951
L102.435 90.9311
L102.748 102.115
L103.105 107.638
L103.462 110.168
L103.73 110.758
L103.863 110.676
L104.042 110.167
L104.31 108.437
L104.577 105.153
L104.845 99.0618
L105.068 87.7666
L105.158 75.8906
L105.202 55.7704
L105.247 69.5516
L105.425 92.6029
L105.738 103.514
L106.095 108.935
L106.452 111.394
L106.675 111.912
L106.809 111.885
L106.987 111.45
L107.21 110.203
L107.478 107.399
L107.746 102.277
L107.969 93.8192
L108.103 81.8291
L108.192 52.0503
L108.237 76.2705
L108.46 96.9897
L108.772 105.949
L109.129 110.67
L109.442 112.57
L109.665 113.005
L109.799 112.926
L109.977 112.416
L110.245 110.67
L110.513 107.348
L110.781 101.163
L111.004 89.5478
L111.093 76.8157
L111.138 49.0407
L111.182 73.7942
L111.361 95.1911
L111.673 105.871
L112.03 111.185
L112.387 113.552
L112.61 114.005
L112.744 113.934
L112.923 113.43
L113.146 112.071
L113.414 109.06
L113.681 103.516
L113.904 93.919
L114.038 77.5092
L114.083 46.508
L114.128 75.2482
L114.351 98.5767
L114.663 107.817
L115.02 112.614
L115.332 114.523
L115.556 114.947
L115.69 114.854
L115.868 114.316
L116.136 112.502
L116.404 109.055
L116.671 102.569
L116.85 93.6985
L116.984 73.1335
L117.028 61.9047
L117.207 95.6006
L117.475 106.204
L117.832 112.369
L118.189 115.145
L118.456 115.822
L118.59 115.763
L118.769 115.268
L118.992 113.908
L119.26 110.872
L119.527 105.249
L119.751 95.398
L119.884 77.6673
L119.929 41.3484
L119.929 41.3484
L119.929 41.3484
L120.063 92.3024
L120.331 105.625
L120.688 112.604
L121.045 115.746
L121.312 116.617
L121.446 116.647
L121.58 116.41
L121.803 115.381
L122.071 112.881
L122.339 108.26
L122.562 100.932
L122.741 86.354
L122.83 60.8533
L123.008 97.2529
L123.276 107.944
L123.633 114.108
L123.99 116.84
L124.213 117.431
L124.347 117.424
L124.526 116.989
L124.749 115.697
L125.016 112.748
L125.284 107.259
L125.507 97.7547
L125.641 81.7602
L125.686 55.7353
L125.73 78.2016
L125.909 99.8276
L126.221 110.483
L126.578 115.701
L126.891 117.753
L127.114 118.216
L127.248 118.128
L127.426 117.573
L127.649 116.095
L127.917 112.804
L128.185 106.583
L128.363 98.2515
L128.497 81.2798
L128.542 36.0131
L128.587 80.6167
L128.81 103.203
L129.122 112.303
L129.479 116.95
L129.792 118.684
L129.97 118.948
L130.104 118.822
L130.282 118.207
L130.55 116.182
L130.818 112.307
L131.086 104.684
L131.264 92.6023
L131.353 69.8832
L131.398 75.6774
L131.577 100.851
L131.889 111.885
L132.246 117.18
L132.558 119.223
L132.781 119.65
L132.915 119.528
L133.094 118.91
L133.362 116.861
L133.629 112.919
L133.897 105.09
L134.076 92.2715
L134.165 60.9604
L134.21 80.1523
L134.388 102.202
L134.7 112.877
L135.057 118.032
L135.37 119.978
L135.593 120.329
L135.727 120.153
L135.905 119.45
L136.173 117.22
L136.441 112.944
L136.664 106.226
L136.843 94.0485
L136.932 70.4661
L136.976 77.8872
L137.155 102.532
L137.467 113.488
L137.824 118.707
L138.137 120.655
L138.36 120.987
L138.494 120.793
L138.672 120.051
L138.94 117.724
L139.208 113.244
L139.431 106.066
L139.609 91.997
L139.699 58.2155
L139.743 85.6632
L139.966 106.713
L140.279 115.57
L140.636 120.012
L140.948 121.515
L141.082 121.634
L141.127 121.607
L141.261 121.321
L141.484 120.116
L141.751 117.164
L142.019 111.472
L142.242 101.151
L142.376 80.1658
L142.421 70.6535
L142.599 103.211
L142.867 113.675
L143.224 119.597
L143.537 121.818
L143.76 122.268
L143.894 122.124
L144.072 121.431
L144.34 119.139
L144.608 114.636
L144.831 107.322
L145.009 92.5238
L145.098 69.7394
L145.277 103.885
L145.545 114.408
L145.902 120.318
L146.214 122.493
L146.437 122.889
L146.571 122.701
L146.75 121.931
L147.017 119.454
L147.285 114.57
L147.508 106.327
L147.642 94.783
L147.687 85.7269
L147.731 52.0418
L147.731 52.0418
L147.731 52.0418
L147.865 100.545
L148.133 113.747
L148.49 120.459
L148.802 122.95
L149.026 123.501
L149.159 123.392
L149.338 122.719
L149.561 120.909
L149.829 116.732
L150.052 109.996
L150.23 97.5138
L150.32 70.5364
L150.364 83.6071
L150.543 106.755
L150.855 117.463
L151.212 122.415
L151.48 123.907
L151.659 124.11
L151.792 123.865
L151.971 122.978
L152.239 120.184
L152.506 114.564
L152.73 104.174
L152.819 94.2221
L152.908 76.0023
L153.087 106.601
L153.354 116.902
L153.711 122.606
L154.024 124.529
L154.202 124.717
L154.336 124.445
L154.515 123.497
L154.782 120.524
L155.05 114.457
L155.229 106.076
L155.363 88.3757
L155.407 51.9171
L155.407 51.9171
L155.407 51.9171
L155.541 102.986
L155.809 116.179
L156.121 122.223
L156.434 124.838
L156.657 125.343
L156.791 125.156
L156.969 124.308
L157.192 122.108
L157.46 116.921
L157.683 107.57
L157.817 91.7008
L157.862 66.5337
L157.906 87.8492
L158.085 109.578
L158.397 120.03
L158.754 124.715
L159.022 125.911
L159.156 125.922
L159.29 125.544
L159.513 123.962
L159.781 119.942
L160.004 113.204
L160.182 100.352
L160.271 66.9959
L160.316 88.848
L160.495 110.505
L160.807 120.914
L161.119 125.154
L161.387 126.513
L161.521 126.57
L161.655 126.223
L161.878 124.649
L162.146 120.544
L162.369 113.521
L162.547 99.3397
L162.637 69.4158
L162.681 93.7512
L162.904 114.373
L163.217 122.905
L163.529 126.406
L163.752 127.223
L163.842 127.216
L163.975 126.846
L164.199 125.174
L164.466 120.756
L164.69 112.912
L164.823 102.039
L164.868 93.9939
L164.913 64.0283
L164.957 91.5212
L165.136 112.597
L165.448 122.838
L165.761 126.855
L165.984 127.859
L166.073 127.903
L166.118 127.85
L166.251 127.381
L166.475 125.44
L166.698 121.482
L166.921 113.323
L167.055 101.415
L167.144 71.6814
L167.189 95.8762
L167.412 116.456
L167.724 124.86
L168.037 128.095
L168.215 128.602
L168.304 128.533
L168.438 128.016
L168.661 125.893
L168.884 121.498
L169.108 111.87
L169.241 93.6963
L169.286 66.5881
L169.286 66.5881
L169.286 66.5881
L169.465 112.659
L169.732 123.246
L170.045 128.072
L170.268 129.267
L170.357 129.33
L170.402 129.274
L170.536 128.749
L170.759 126.505
L170.982 121.734
L171.16 113.894
L171.294 98.1454
L171.339 73.3786
L171.384 94.1703
L171.562 115.933
L171.83 125.182
L172.142 129.36
L172.365 130.108
L172.455 129.963
L172.633 128.865
L172.856 125.594
L173.079 118.482
L173.213 108.864
L173.302 88.1335
L173.347 89.8792
L173.526 116.507
L173.793 126.179
L174.106 130.343
L174.284 130.937
L174.373 130.815
L174.507 130.086
L174.731 127.099
L174.954 120.327
L175.088 111.255
L175.221 86.0341
L175.4 117.505
L175.668 127.415
L175.935 131.146
L176.114 131.833
L176.203 131.708
L176.337 130.905
L176.516 128.46
L176.739 121.71
L176.873 112.401
L177.006 91.1404
L177.185 119.486
L177.453 129.08
L177.72 132.451
L177.854 132.817
L177.899 132.763
L178.033 132.043
L178.211 129.554
L178.435 122.216
L178.568 111.02
L178.613 102.119
L178.658 65.1246
L178.658 65.1246
L178.658 65.1246
L178.792 116.733
L179.059 129.407
L179.327 133.452
L179.461 133.909
L179.506 133.857
L179.639 133.052
L179.818 130.146
L179.996 123.617
L180.13 111.311
L180.22 90.7194
L180.398 123.143
L180.666 132.621
L180.889 135.033
L180.934 135.132
L180.978 135.109
L181.067 134.687
L181.246 132.073
L181.424 125.577
L181.558 112.579
L181.648 98.1291
L181.826 126.033
L182.094 134.901
L182.317 136.534
L182.406 136.12
L182.54 134.18
L182.719 127.659
L182.853 113.283
L182.897 94.4238
L182.942 106.277
L183.12 129.538
L183.388 137.434
L183.522 138.174
L183.611 137.7
L183.745 135.242
L183.879 129.338
L183.968 120.374
L184.057 97.2158
L184.236 131.778
L184.459 139.304
L184.593 140.099
L184.682 139.305
L184.816 135.443
L184.95 124.104
L185.039 103.511
L185.218 136.062
L185.441 142.428
L185.486 142.495
L185.575 141.435
L185.709 135.357
L185.798 122.259
L185.843 86.5272
L185.843 86.5272
L185.843 86.5272
L185.976 137.341
L186.2 145.564
L186.289 144.288
L186.378 139.076
L186.467 116.705
L186.512 125.187
L186.69 148.542
L186.735 149.611
L186.78 149.56
L186.869 144.489
L186.958 123.686
L187.137 156.197
L187.181 152.859
L187.226 107.598
L187.226 107.598
L187.226 107.598
L187.404 190.125
L187.806 231.159
L188.431 271.168
L189.279 310.856
L190.305 348.645
L191.555 386.328
L192.938 421.416
L193.445 433
M269.384 433
L269.874 408.563
L270.098 389.545
L270.187 372.147
L270.231 345.092
L270.231 345.092
L270.231 345.092
L270.365 382.492
L270.544 387.324
L270.633 387.618
L270.678 387.504
L270.856 385.91
L271.169 380.468
L271.704 366.798
L272.418 342.693
L273.177 309.564
L273.846 270.721
L274.337 230.393
L274.649 188.057
L274.962 134.83
L275.006 134.062
L275.14 149.046
L275.23 143.306
L275.274 135.433
L275.319 105.158
L275.364 131.809
L275.542 145.509
L275.631 142.669
L275.721 133.31
L275.81 117.33
L275.988 142.191
L276.078 143.091
L276.167 141.052
L276.301 129.692
L276.39 109.12
L276.568 138.941
L276.702 141.497
L276.747 141.242
L276.881 137.167
L277.015 122.801
L277.059 102.839
L277.104 116.129
L277.282 137.234
L277.461 140.318
L277.55 139.351
L277.684 134.375
L277.818 118.454
L277.863 86.2128
L277.907 116.252
L278.086 135.608
L278.264 139.432
L278.309 139.482
L278.398 138.637
L278.532 134.583
L278.666 123.736
L278.71 114.735
L278.755 80.9852
L278.755 80.9852
L278.755 80.9852
L278.889 128.938
L279.112 138.086
L279.201 138.886
L279.246 138.879
L279.335 138.066
L279.469 134.509
L279.603 125.834
L279.737 102.665
L279.915 131.664
L280.139 138.058
L280.228 138.511
L280.272 138.392
L280.406 136.594
L280.585 129.361
L280.719 110.877
L280.763 89.3779
L280.763 89.3779
L280.763 89.3779
L280.942 130.027
L281.165 137.323
L281.299 138.243
L281.343 138.134
L281.477 136.526
L281.656 130.258
L281.79 116.929
L281.834 102.863
L281.879 103.922
L282.057 130.215
L282.281 137.088
L282.415 138.077
L282.459 138.026
L282.593 136.723
L282.772 131.49
L282.905 121.668
L282.995 95.9109
L283.039 107.151
L283.218 130.11
L283.486 137.427
L283.619 137.987
L283.709 137.49
L283.843 135.299
L284.021 128.154
L284.155 112.027
L284.2 80.8401
L284.244 109.769
L284.423 130.173
L284.69 137.341
L284.824 137.989
L284.914 137.601
L285.047 135.685
L285.226 129.457
L285.36 117.254
L285.449 95.4678
L285.628 128.396
L285.895 136.897
L286.074 138.032
L286.163 137.651
L286.297 135.807
L286.476 129.89
L286.609 118.818
L286.654 109.98
L286.699 69.4088
L286.699 69.4088
L286.699 69.4088
L286.833 124.142
L287.056 134.876
L287.279 137.997
L287.323 138.119
L287.368 138.09
L287.457 137.579
L287.636 134.448
L287.814 126.47
L287.948 106.164
L287.993 94.7955
L288.171 128.171
L288.439 136.882
L288.618 138.25
L288.662 138.215
L288.796 137.208
L288.975 133.267
L289.153 123.161
L289.242 107.797
L289.287 89.6002
L289.287 89.6002
L289.287 89.6002
L289.466 127.946
L289.733 136.912
L289.912 138.402
L289.956 138.4
L290.046 137.961
L290.224 135.089
L290.403 127.838
L290.537 111.97
L290.581 84.3817
L290.626 108.89
L290.804 129.827
L291.072 137.513
L291.251 138.612
L291.34 138.286
L291.474 136.63
L291.652 131.352
L291.786 122.17
L291.92 101.374
L292.098 129.037
L292.366 137.478
L292.545 138.829
L292.589 138.798
L292.679 138.299
L292.857 135.274
L293.036 127.659
L293.17 109.783
L293.214 81.1163
L293.214 81.1163
L293.214 81.1163
L293.393 128.271
L293.66 137.482
L293.884 139.072
L293.973 138.669
L294.151 135.868
L294.33 128.717
L294.464 113.176
L294.508 88.5429
L294.553 109.138
L294.731 130.55
L294.999 138.284
L295.178 139.351
L295.267 138.988
L295.401 137.23
L295.579 131.61
L295.713 121.402
L295.802 90.8922
L295.847 109.128
L296.026 130.884
L296.293 138.623
L296.472 139.642
L296.561 139.235
L296.695 137.369
L296.874 131.41
L297.007 120.12
L297.097 83.5037
L297.141 113.4
L297.364 133.963
L297.632 139.6
L297.721 139.967
L297.766 139.919
L297.9 138.809
L298.078 134.463
L298.257 122.49
L298.346 93.1408
L298.391 109.809
L298.569 131.809
L298.837 139.446
L298.971 140.307
L299.016 140.27
L299.105 139.706
L299.283 136.247
L299.462 126.924
L299.551 113.751
L299.596 72.5418
L299.64 112.831
L299.819 132.775
L300.087 140.004
L300.221 140.677
L300.31 140.285
L300.444 138.301
L300.622 131.65
L300.756 117.325
L300.801 99.5069
L300.845 109.252
L301.024 132.759
L301.292 140.376
L301.425 141.069
L301.515 140.649
L301.649 138.546
L301.827 131.375
L301.961 114.246
L302.006 71.2681
L302.006 71.2681
L302.006 71.2681
L302.139 128.352
L302.363 138.933
L302.586 141.489
L302.675 141.167
L302.809 139.16
L302.987 132.023
L303.121 114.599
L303.166 80.9521
L303.166 80.9521
L303.166 80.9521
L303.3 129.249
L303.523 139.644
L303.746 141.93
L303.835 141.431
L303.969 138.995
L304.148 130.276
L304.237 118.066
L304.282 93.1838
L304.326 114.171
L304.505 135.38
L304.728 141.723
L304.862 142.394
L304.951 141.786
L305.085 139.02
L305.263 128.744
L305.397 106.559
L305.576 135.261
L305.799 142.182
L305.933 142.902
L306.022 142.247
L306.156 139.239
L306.29 132.029
L306.379 119.709
L306.424 93.0459
L306.468 116.435
L306.647 137.255
L306.87 143.128
L306.959 143.456
L307.048 142.804
L307.182 139.627
L307.316 131.688
L307.405 116.225
L307.45 100.083
L307.45 100.083
L307.45 100.083
L307.629 136.707
L307.852 143.596
L307.941 144.051
L307.986 143.882
L308.119 141.62
L308.253 135.375
L308.343 125.228
L308.387 111.298
L308.432 112.28
L308.61 138.583
L308.833 144.519
L308.878 144.682
L308.923 144.556
L309.057 142.264
L309.19 135.542
L309.28 123.663
L309.324 100.105
L309.369 119.314
L309.547 140.457
L309.771 145.352
L309.815 145.271
L309.904 144.094
L310.038 138.888
L310.172 120.735
L310.217 100.87
L310.217 100.87
L310.217 100.87
L310.395 140.22
L310.619 146.072
L310.663 146.025
L310.752 144.796
L310.886 139.003
L310.976 128.665
L311.02 113.265
L311.065 118.18
L311.243 142.63
L311.422 146.864
L311.466 146.819
L311.556 145.436
L311.69 138.615
L311.779 124.254
L311.823 101.856
L311.823 101.856
L311.823 101.856
L312.002 143.098
L312.18 147.749
L312.225 147.643
L312.314 145.916
L312.448 137.144
L312.537 105.135
L312.582 125.935
L312.761 146.202
L312.894 148.723
L312.939 148.443
L313.028 146.018
L313.162 132.848
L313.207 113.971
L313.251 126.073
L313.43 147.713
L313.564 149.702
L313.653 147.616
L313.742 141.218
L313.832 110.754
L313.876 129.877
L314.055 149.704
L314.144 150.941
L314.189 150.379
L314.278 146.256
L314.367 132.377
L314.412 111.905
L314.412 111.905
L314.412 111.905
L314.59 150.669
L314.68 152.267
L314.724 151.6
L314.813 146.33
L314.903 119.438
L314.947 134.311
L315.126 153.581
L315.17 153.679
L315.26 149.603
L315.349 127.292
L315.394 135.669
L315.572 155.521
L315.617 154.748
L315.706 145.416
L315.751 120.071
L315.795 142.76
L315.929 157.533
L315.974 156.781
L316.108 137.206
L316.241 160.047
L316.286 158.15
L316.375 137.285
L316.465 162.636
L316.509 162.284
L316.598 152.529
L316.688 166.205
L316.732 131.455
L316.732 131.455
L316.732 131.455
L316.911 220.08
L317.223 290.934
L317.759 361.975
L318.514 433
M462.265 433
L462.572 293.986
L462.84 126.563
L462.885 175.148
L462.974 173.487
L463.018 145.02
L463.063 171.359
L463.152 161.949
L463.197 170.793
L463.197 170.793
L463.197 170.793
L463.242 158.559
L463.286 164.156
L463.331 169.671
L463.375 158.507
L463.42 161.17
L463.465 168.968
L463.509 163.222
L463.554 149.429
L463.554 149.429
L463.554 149.429
L463.599 167.02
L463.643 167.019
L463.688 151.985
L463.732 160.121
L463.777 167.542
L463.822 164.642
L463.866 138.637
L463.911 161.846
L463.956 167.179
L464 163.739
L464.045 137.799
L464.089 160.907
L464.134 166.698
L464.179 164.374
L464.223 148.327
L464.268 157.435
L464.313 165.796
L464.357 165.575
L464.446 147.922
L464.536 166.261
L464.58 162.251
L464.625 140.007
L464.67 158.306
L464.714 165.462
L464.759 165.326
L464.848 140.085
L464.937 165.95
L464.982 164.028
L465.071 150.493
L465.16 165.977
L465.205 162.846
L465.25 148.225
L465.294 154.236
L465.384 165.905
L465.428 161.987
L465.473 143.929
L465.517 156.032
L465.607 165.871
L465.651 161.478
L465.696 140.573
L465.741 157.003
L465.83 165.909
L465.874 161.232
L465.919 138.067
L465.964 157.648
L466.053 166.005
L466.098 161.101
L466.142 135.445
L466.187 158.288
L466.276 166.128
L466.321 160.903
L466.365 130.136
L466.41 159.172
L466.499 166.227
L466.544 160.415
L466.589 91.052
L466.589 91.052
L466.589 91.052
L466.678 166.457
L466.722 166.216
L466.812 136.249
L466.856 162.246
L466.901 167.097
L466.946 165.919
L467.035 148.522
L467.124 167.68
L467.169 164.945
L467.213 150.507
L467.258 156.776
L467.347 167.84
L467.392 162.331
L467.436 115.142
L467.436 115.142
L467.436 115.142
L467.526 168.343
L467.57 166.736
L467.615 154.598
L467.66 156.51
L467.749 168.687
L467.838 144.574
L467.927 169.577
L467.972 165.153
L468.017 107.647
L468.017 107.647
L468.017 107.647
L468.106 170.169
L468.15 166.473
L468.195 128.007
L468.24 166.096
L468.284 170.842
L468.329 166.161
L468.374 140.486
L468.374 140.486
L468.374 140.486
L468.463 171.331
L468.507 162.471
L468.552 159.856
L468.597 171.744
L468.641 169.934
L468.686 125.995
L468.686 125.995
L468.686 125.995
L468.775 172.689
L468.82 157.296
L468.909 174.011
L468.954 160.329
L468.998 170.274
L469.043 174.757
L469.088 148.742
L469.132 174.616
L469.177 172.946
L469.221 166.876
L469.266 177.539
L469.311 142.939
L469.311 142.939
L469.311 142.939
L469.355 179.241
L469.355 179.241
L469.355 179.241
L469.4 129.627
L469.4 129.627
L469.4 129.627
L469.445 180.995
L469.534 178.433
L469.668 192.803
L469.984 433
L469.984 433" style="fill:none;stroke:#00bfbf;stroke-linecap:square;"/>
   </g>
   <g id="matplotlib.axis_1">
    <g id="xtick_1">
     <g id="line2d_5">
      <path clip-path="url(#p7ff5b81e1d)" d="
M72 388.8
L72 43.2" style="fill:none;opacity:0.3;stroke:#808080;stroke-dasharray:1.000000,3.000000;stroke-dashoffset:0.0;stroke-width:0.5;"/>
     </g>
     <g id="line2d_6">
      <defs>
       <path d="
M0 0
L0 -4" id="m93b0483c22" style="stroke:#000000;stroke-width:0.5;"/>
      </defs>
      <g>
       <use style="stroke:#000000;stroke-width:0.5;" x="72.0" xlink:href="#m93b0483c22" y="388.8"/>
      </g>
     </g>
     <g id="line2d_7">
      <defs>
       <path d="
M0 0
L0 4" id="m741efc42ff" style="stroke:#000000;stroke-width:0.5;"/>
      </defs>
      <g>
       <use style="stroke:#000000;stroke-width:0.5;" x="72.0" xlink:href="#m741efc42ff" y="43.2"/>
      </g>
     </g>
     <g id="text_1">
      <!-- 0.0 -->
      <defs>
       <path d="
M31.7812 3.42188
Q39.2656 3.42188 42.9688 11.625
Q46.6875 19.8281 46.6875 36.375
Q46.6875 52.9844 42.9688 61.1875
Q39.2656 69.3906 31.7812 69.3906
Q24.3125 69.3906 20.5938 61.1875
Q16.8906 52.9844 16.8906 36.375
Q16.8906 19.8281 20.5938 11.625
Q24.3125 3.42188 31.7812 3.42188
M31.7812 -1.42188
Q19.9219 -1.42188 13.25 8.53125
Q6.59375 18.5 6.59375 36.375
Q6.59375 54.2969 13.25 64.25
Q19.9219 74.2188 31.7812 74.2188
Q43.7031 74.2188 50.3438 64.25
Q56.9844 54.2969 56.9844 36.375
Q56.9844 18.5 50.3438 8.53125
Q43.7031 -1.42188 31.7812 -1.42188" id="BitstreamVeraSerif-Roman-30"/>
       <path d="
M9.42188 5.07812
Q9.42188 7.8125 11.2812 9.71875
Q13.1406 11.625 15.9219 11.625
Q18.6094 11.625 20.5 9.71875
Q22.4062 7.8125 22.4062 5.07812
Q22.4062 2.39062 20.5 0.484375
Q18.6094 -1.42188 15.9219 -1.42188
Q13.1406 -1.42188 11.2812 0.453125
Q9.42188 2.34375 9.42188 5.07812" id="BitstreamVeraSerif-Roman-2e"/>
      </defs>
      <g transform="translate(60.33625 404.9575)scale(0.16 -0.16)">
       <use xlink:href="#BitstreamVeraSerif-Roman-30"/>
       <use x="63.623046875" xlink:href="#BitstreamVeraSerif-Roman-2e"/>
       <use x="95.41015625" xlink:href="#BitstreamVeraSerif-Roman-30"/>
      </g>
     </g>
    </g>
    <g id="xtick_2">
     <g id="line2d_8">
      <path clip-path="url(#p7ff5b81e1d)" d="
M161.28 388.8
L161.28 43.2" style="fill:none;opacity:0.3;stroke:#808080;stroke-dasharray:1.000000,3.000000;stroke-dashoffset:0.0;stroke-width:0.5;"/>
     </g>
     <g id="line2d_9">
      <g>
       <use style="stroke:#000000;stroke-width:0.5;" x="161.28" xlink:href="#m93b0483c22" y="388.8"/>
      </g>
     </g>
     <g id="line2d_10">
      <g>
       <use style="stroke:#000000;stroke-width:0.5;" x="161.28" xlink:href="#m741efc42ff" y="43.2"/>
      </g>
     </g>
     <g id="text_2">
      <!-- 0.5 -->
      <defs>
       <path d="
M50.2969 72.9062
L50.2969 64.8906
L16.8906 64.8906
L16.8906 44
Q19.4375 45.75 22.8281 46.625
Q26.2188 47.5156 30.4219 47.5156
Q42.2344 47.5156 49.0625 40.9688
Q55.9062 34.4219 55.9062 23.0938
Q55.9062 11.5312 49 5.04688
Q42.0938 -1.42188 29.5938 -1.42188
Q24.5625 -1.42188 19.2812 -0.1875
Q14.0156 1.03125 8.5 3.51562
L8.5 17.6719
L14.0156 17.6719
Q14.4531 10.75 18.4219 7.07812
Q22.4062 3.42188 29.5938 3.42188
Q37.3125 3.42188 41.4531 8.5
Q45.6094 13.5781 45.6094 23.0938
Q45.6094 32.5625 41.4844 37.6094
Q37.3594 42.6719 29.5938 42.6719
Q25.2031 42.6719 21.8438 41.1094
Q18.5 39.5469 15.9219 36.2812
L11.7188 36.2812
L11.7188 72.9062
z
" id="BitstreamVeraSerif-Roman-35"/>
      </defs>
      <g transform="translate(149.7025 404.9575)scale(0.16 -0.16)">
       <use xlink:href="#BitstreamVeraSerif-Roman-30"/>
       <use x="63.623046875" xlink:href="#BitstreamVeraSerif-Roman-2e"/>
       <use x="95.41015625" xlink:href="#BitstreamVeraSerif-Roman-35"/>
      </g>
     </g>
    </g>
    <g id="xtick_3">
     <g id="line2d_11">
      <path clip-path="url(#p7ff5b81e1d)" d="
M250.56 388.8
L250.56 43.2" style="fill:none;opacity:0.3;stroke:#808080;stroke-dasharray:1.000000,3.000000;stroke-dashoffset:0.0;stroke-width:0.5;"/>
     </g>
     <g id="line2d_12">
      <g>
       <use style="stroke:#000000;stroke-width:0.5;" x="250.56" xlink:href="#m93b0483c22" y="388.8"/>
      </g>
     </g>
     <g id="line2d_13">
      <g>
       <use style="stroke:#000000;stroke-width:0.5;" x="250.56" xlink:href="#m741efc42ff" y="43.2"/>
      </g>
     </g>
     <g id="text_3">
      <!-- 1.0 -->
      <defs>
       <path d="
M14.2031 0
L14.2031 5.17188
L26.9062 5.17188
L26.9062 65.8281
L12.2031 56.2969
L12.2031 62.7031
L29.9844 74.2188
L36.7188 74.2188
L36.7188 5.17188
L49.4219 5.17188
L49.4219 0
z
" id="BitstreamVeraSerif-Roman-31"/>
      </defs>
      <g transform="translate(239.345 404.9575)scale(0.16 -0.16)">
       <use xlink:href="#BitstreamVeraSerif-Roman-31"/>
       <use x="63.623046875" xlink:href="#BitstreamVeraSerif-Roman-2e"/>
       <use x="95.41015625" xlink:href="#BitstreamVeraSerif-Roman-30"/>
      </g>
     </g>
    </g>
    <g id="xtick_4">
     <g id="line2d_14">
      <path clip-path="url(#p7ff5b81e1d)" d="
M339.84 388.8
L339.84 43.2" style="fill:none;opacity:0.3;stroke:#808080;stroke-dasharray:1.000000,3.000000;stroke-dashoffset:0.0;stroke-width:0.5;"/>
     </g>
     <g id="line2d_15">
      <g>
       <use style="stroke:#000000;stroke-width:0.5;" x="339.84" xlink:href="#m93b0483c22" y="388.8"/>
      </g>
     </g>
     <g id="line2d_16">
      <g>
       <use style="stroke:#000000;stroke-width:0.5;" x="339.84" xlink:href="#m741efc42ff" y="43.2"/>
      </g>
     </g>
     <g id="text_4">
      <!-- 1.5 -->
      <g transform="translate(328.71125 404.9575)scale(0.16 -0.16)">
       <use xlink:href="#BitstreamVeraSerif-Roman-31"/>
       <use x="63.623046875" xlink:href="#BitstreamVeraSerif-Roman-2e"/>
       <use x="95.41015625" xlink:href="#BitstreamVeraSerif-Roman-35"/>
      </g>
     </g>
    </g>
    <g id="xtick_5">
     <g id="line2d_17">
      <path clip-path="url(#p7ff5b81e1d)" d="
M429.12 388.8
L429.12 43.2" style="fill:none;opacity:0.3;stroke:#808080;stroke-dasharray:1.000000,3.000000;stroke-dashoffset:0.0;stroke-width:0.5;"/>
     </g>
     <g id="line2d_18">
      <g>
       <use style="stroke:#000000;stroke-width:0.5;" x="429.12" xlink:href="#m93b0483c22" y="388.8"/>
      </g>
     </g>
     <g id="line2d_19">
      <g>
       <use style="stroke:#000000;stroke-width:0.5;" x="429.12" xlink:href="#m741efc42ff" y="43.2"/>
      </g>
     </g>
     <g id="text_5">
      <!-- 2.0 -->
      <defs>
       <path d="
M12.7969 55.5156
L7.32812 55.5156
L7.32812 68.5
Q12.5469 71.2969 17.8438 72.75
Q23.1406 74.2188 28.2188 74.2188
Q39.5938 74.2188 46.1875 68.7031
Q52.7812 63.1875 52.7812 53.7188
Q52.7812 43.0156 37.8438 28.125
Q36.6719 27 36.0781 26.4219
L17.6719 8.01562
L48.0938 8.01562
L48.0938 17
L53.8125 17
L53.8125 0
L6.78125 0
L6.78125 5.32812
L28.9062 27.3906
Q36.2344 34.7188 39.3594 40.8438
Q42.4844 46.9688 42.4844 53.7188
Q42.4844 61.0781 38.6406 65.2344
Q34.8125 69.3906 28.0781 69.3906
Q21.0938 69.3906 17.2812 65.9219
Q13.4844 62.4531 12.7969 55.5156" id="BitstreamVeraSerif-Roman-32"/>
      </defs>
      <g transform="translate(417.47125 404.9575)scale(0.16 -0.16)">
       <use xlink:href="#BitstreamVeraSerif-Roman-32"/>
       <use x="63.623046875" xlink:href="#BitstreamVeraSerif-Roman-2e"/>
       <use x="95.41015625" xlink:href="#BitstreamVeraSerif-Roman-30"/>
      </g>
     </g>
    </g>
    <g id="xtick_6">
     <g id="line2d_20">
      <path clip-path="url(#p7ff5b81e1d)" d="
M518.4 388.8
L518.4 43.2" style="fill:none;opacity:0.3;stroke:#808080;stroke-dasharray:1.000000,3.000000;stroke-dashoffset:0.0;stroke-width:0.5;"/>
     </g>
     <g id="line2d_21">
      <g>
       <use style="stroke:#000000;stroke-width:0.5;" x="518.4" xlink:href="#m93b0483c22" y="388.8"/>
      </g>
     </g>
     <g id="line2d_22">
      <g>
       <use style="stroke:#000000;stroke-width:0.5;" x="518.4" xlink:href="#m741efc42ff" y="43.2"/>
      </g>
     </g>
     <g id="text_6">
      <!-- 2.5 -->
      <g transform="translate(506.8375 404.9575)scale(0.16 -0.16)">
       <use xlink:href="#BitstreamVeraSerif-Roman-32"/>
       <use x="63.623046875" xlink:href="#BitstreamVeraSerif-Roman-2e"/>
       <use x="95.41015625" xlink:href="#BitstreamVeraSerif-Roman-35"/>
      </g>
     </g>
    </g>
    <g id="text_7">
     <!-- $\Omega$ -->
     <defs>
      <path d="
M7.71875 0
L4.39062 16.6094
L7.32812 16.6094
Q7.85938 13.7188 8.29688 11.5
Q8.73438 9.28125 9.4375 8.375
Q10.1562 7.46875 11.7188 7.17188
Q13.2812 6.89062 16.8906 6.89062
L23 6.89062
Q21.5312 12.5469 15.6875 21.6562
Q9.85938 30.7656 7.73438 34.8906
Q5.60938 39.0156 5.60938 45.5156
Q5.60938 53.0781 10.0938 58.7656
Q14.5938 64.4531 21.7031 67.4844
Q28.8125 70.5156 36.0781 70.5156
Q43.3125 70.5156 50.4062 67.4844
Q57.5156 64.4531 62 58.7188
Q66.5 52.9844 66.5 45.5156
Q66.5 40.4375 64.6406 35.9375
Q62.7969 31.4531 59.9062 26.9531
Q57.0312 22.4688 53.6875 16.9375
Q50.3438 11.4219 49.125 6.89062
L55.1719 6.89062
Q58.8438 6.89062 60.4531 7.17188
Q62.0625 7.46875 62.7344 8.375
Q63.4219 9.28125 63.8438 11.5
Q64.2656 13.7188 64.7969 16.6094
L67.6719 16.6094
L64.4062 0
L46.6875 0
Q45.7031 0 45.7031 1.3125
Q45.7031 6.39062 46.9375 11.2656
Q48.1875 16.1562 50.625 23.0938
Q53.0781 30.0312 54.4375 35.3281
Q55.8125 40.625 55.8125 45.5156
Q55.8125 51.5156 53.4688 56.6406
Q51.125 61.7656 46.625 64.8438
Q42.1406 67.9219 36.0781 67.9219
Q26.9531 67.9219 21.625 61.4062
Q16.3125 54.8906 16.3125 45.5156
Q16.3594 40.375 17.5312 35.8281
Q18.7031 31.2969 21.3125 23.7188
Q23.9219 16.1562 25.1719 11.2656
Q26.4219 6.39062 26.4219 1.3125
Q26.4219 0 25.3906 0
z
" id="Cmr10-ad"/>
     </defs>
     <g transform="translate(288.63 426.9621875)scale(0.18 -0.18)">
      <use transform="translate(0.0 0.484375)" xlink:href="#Cmr10-ad"/>
     </g>
    </g>
   </g>
   <g id="matplotlib.axis_2">
    <g id="ytick_1">
     <g id="line2d_23">
      <path clip-path="url(#p7ff5b81e1d)" d="
M72 388.8
L518.4 388.8" style="fill:none;opacity:0.3;stroke:#808080;stroke-dasharray:1.000000,3.000000;stroke-dashoffset:0.0;stroke-width:0.5;"/>
     </g>
     <g id="line2d_24">
      <defs>
       <path d="
M0 0
L4 0" id="m728421d6d4" style="stroke:#000000;stroke-width:0.5;"/>
      </defs>
      <g>
       <use style="stroke:#000000;stroke-width:0.5;" x="72.0" xlink:href="#m728421d6d4" y="388.8"/>
      </g>
     </g>
     <g id="line2d_25">
      <defs>
       <path d="
M0 0
L-4 0" id="mcb0005524f" style="stroke:#000000;stroke-width:0.5;"/>
      </defs>
      <g>
       <use style="stroke:#000000;stroke-width:0.5;" x="518.4" xlink:href="#mcb0005524f" y="388.8"/>
      </g>
     </g>
     <g id="text_8">
      <!-- $\mathdefault{10^{-9}}$ -->
      <defs>
       <path d="
M46.7812 32.6719
Q43.5 29 39.25 27.1875
Q35.0156 25.3906 29.6875 25.3906
Q18.8438 25.3906 12.5625 31.9375
Q6.29688 38.4844 6.29688 49.8125
Q6.29688 60.8906 13.1094 67.5469
Q19.9219 74.2188 31.2969 74.2188
Q43.6562 74.2188 50.2656 65.0156
Q56.8906 55.8125 56.8906 38.7188
Q56.8906 19.5781 49.0156 9.07812
Q41.1562 -1.42188 26.9062 -1.42188
Q23.0469 -1.42188 18.7969 -0.6875
Q14.5469 0.046875 10.1094 1.51562
L10.1094 13.625
L15.5781 13.625
Q16.2188 8.6875 19.3906 6.04688
Q22.5625 3.42188 27.875 3.42188
Q37.3594 3.42188 41.9844 10.5625
Q46.625 17.7188 46.7812 32.6719
M30.9062 69.3906
Q23.9688 69.3906 20.2812 64.3281
Q16.6094 59.2812 16.6094 49.8125
Q16.6094 40.3281 20.2812 35.25
Q23.9688 30.1719 30.9062 30.1719
Q37.8438 30.1719 41.5312 35.0781
Q45.2188 39.9844 45.2188 49.2188
Q45.2188 58.9375 41.5 64.1562
Q37.7969 69.3906 30.9062 69.3906" id="BitstreamVeraSerif-Roman-39"/>
       <path d="
M4.39062 30.6094
L29.3906 30.6094
L29.3906 23
L4.39062 23
z
" id="BitstreamVeraSerif-Roman-2d"/>
      </defs>
      <g transform="translate(33.44 393.7925)scale(0.16 -0.16)">
       <use transform="translate(0.0 0.21875)" xlink:href="#BitstreamVeraSerif-Roman-31"/>
       <use transform="translate(63.623046875 0.21875)" xlink:href="#BitstreamVeraSerif-Roman-30"/>
       <use transform="translate(127.24609375 50.046875)scale(0.7)" xlink:href="#BitstreamVeraSerif-Roman-2d"/>
       <use transform="translate(150.8984375 50.046875)scale(0.7)" xlink:href="#BitstreamVeraSerif-Roman-39"/>
      </g>
     </g>
    </g>
    <g id="ytick_2">
     <g id="line2d_26">
      <path clip-path="url(#p7ff5b81e1d)" d="
M72 302.4
L518.4 302.4" style="fill:none;opacity:0.3;stroke:#808080;stroke-dasharray:1.000000,3.000000;stroke-dashoffset:0.0;stroke-width:0.5;"/>
     </g>
     <g id="line2d_27">
      <g>
       <use style="stroke:#000000;stroke-width:0.5;" x="72.0" xlink:href="#m728421d6d4" y="302.4"/>
      </g>
     </g>
     <g id="line2d_28">
      <g>
       <use style="stroke:#000000;stroke-width:0.5;" x="518.4" xlink:href="#mcb0005524f" y="302.4"/>
      </g>
     </g>
     <g id="text_9">
      <!-- $\mathdefault{10^{-6}}$ -->
      <defs>
       <path d="
M32.7188 3.42188
Q39.5938 3.42188 43.2969 8.46875
Q47.0156 13.5312 47.0156 23
Q47.0156 32.4688 43.2969 37.5156
Q39.5938 42.5781 32.7188 42.5781
Q25.7344 42.5781 22.0625 37.6875
Q18.4062 32.8125 18.4062 23.5781
Q18.4062 13.875 22.1094 8.64062
Q25.8281 3.42188 32.7188 3.42188
M16.7969 40.1406
Q20.125 43.7969 24.3125 45.5938
Q28.5156 47.4062 33.7969 47.4062
Q44.6719 47.4062 51 40.8594
Q57.3281 34.3281 57.3281 23
Q57.3281 11.9219 50.5156 5.25
Q43.7031 -1.42188 32.3281 -1.42188
Q19.9688 -1.42188 13.3281 7.78125
Q6.6875 17 6.6875 34.0781
Q6.6875 53.2188 14.5469 63.7188
Q22.4062 74.2188 36.7188 74.2188
Q40.5781 74.2188 44.8281 73.4844
Q49.0781 72.75 53.5156 71.2969
L53.5156 59.2812
L48 59.2812
Q47.4062 64.2031 44.2344 66.7969
Q41.0625 69.3906 35.6875 69.3906
Q26.2188 69.3906 21.5781 62.2031
Q16.9375 55.0312 16.7969 40.1406" id="BitstreamVeraSerif-Roman-36"/>
      </defs>
      <g transform="translate(33.44 307.3925)scale(0.16 -0.16)">
       <use transform="translate(0.0 0.21875)" xlink:href="#BitstreamVeraSerif-Roman-31"/>
       <use transform="translate(63.623046875 0.21875)" xlink:href="#BitstreamVeraSerif-Roman-30"/>
       <use transform="translate(127.24609375 50.046875)scale(0.7)" xlink:href="#BitstreamVeraSerif-Roman-2d"/>
       <use transform="translate(150.8984375 50.046875)scale(0.7)" xlink:href="#BitstreamVeraSerif-Roman-36"/>
      </g>
     </g>
    </g>
    <g id="ytick_3">
     <g id="line2d_29">
      <path clip-path="url(#p7ff5b81e1d)" d="
M72 216
L518.4 216" style="fill:none;opacity:0.3;stroke:#808080;stroke-dasharray:1.000000,3.000000;stroke-dashoffset:0.0;stroke-width:0.5;"/>
     </g>
     <g id="line2d_30">
      <g>
       <use style="stroke:#000000;stroke-width:0.5;" x="72.0" xlink:href="#m728421d6d4" y="216.0"/>
      </g>
     </g>
     <g id="line2d_31">
      <g>
       <use style="stroke:#000000;stroke-width:0.5;" x="518.4" xlink:href="#mcb0005524f" y="216.0"/>
      </g>
     </g>
     <g id="text_10">
      <!-- $\mathdefault{10^{-3}}$ -->
      <defs>
       <path d="
M9.71875 69.8281
Q15.4375 71.9688 20.6719 73.0938
Q25.9219 74.2188 30.5156 74.2188
Q41.2188 74.2188 47.2188 69.5938
Q53.2188 64.9844 53.2188 56.7812
Q53.2188 50.2031 49.0625 45.7812
Q44.9219 41.3594 37.3125 39.7969
Q46.2969 38.5312 51.25 33.2812
Q56.2031 28.0312 56.2031 19.6719
Q56.2031 9.46875 49.3438 4.01562
Q42.4844 -1.42188 29.5938 -1.42188
Q23.875 -1.42188 18.4219 -0.1875
Q12.9844 1.03125 7.625 3.51562
L7.625 17.6719
L13.0938 17.6719
Q13.5781 10.6406 17.8281 7.03125
Q22.0781 3.42188 29.7812 3.42188
Q37.25 3.42188 41.5781 7.73438
Q45.9062 12.0625 45.9062 19.5781
Q45.9062 28.1719 41.4531 32.5938
Q37.0156 37.0156 28.4219 37.0156
L23.7812 37.0156
L23.7812 42
L26.2188 42
Q34.7656 42 39.0312 45.5312
Q43.3125 49.0781 43.3125 56.2031
Q43.3125 62.5938 39.7969 65.9844
Q36.2812 69.3906 29.6875 69.3906
Q23.0938 69.3906 19.4531 66.2656
Q15.8281 63.1406 15.1875 56.9844
L9.71875 56.9844
z
" id="BitstreamVeraSerif-Roman-33"/>
      </defs>
      <g transform="translate(33.44 220.9925)scale(0.16 -0.16)">
       <use transform="translate(0.0 0.21875)" xlink:href="#BitstreamVeraSerif-Roman-31"/>
       <use transform="translate(63.623046875 0.21875)" xlink:href="#BitstreamVeraSerif-Roman-30"/>
       <use transform="translate(127.24609375 50.046875)scale(0.7)" xlink:href="#BitstreamVeraSerif-Roman-2d"/>
       <use transform="translate(150.8984375 50.046875)scale(0.7)" xlink:href="#BitstreamVeraSerif-Roman-33"/>
      </g>
     </g>
    </g>
    <g id="ytick_4">
     <g id="line2d_32">
      <path clip-path="url(#p7ff5b81e1d)" d="
M72 129.6
L518.4 129.6" style="fill:none;opacity:0.3;stroke:#808080;stroke-dasharray:1.000000,3.000000;stroke-dashoffset:0.0;stroke-width:0.5;"/>
     </g>
     <g id="line2d_33">
      <g>
       <use style="stroke:#000000;stroke-width:0.5;" x="72.0" xlink:href="#m728421d6d4" y="129.6"/>
      </g>
     </g>
     <g id="line2d_34">
      <g>
       <use style="stroke:#000000;stroke-width:0.5;" x="518.4" xlink:href="#mcb0005524f" y="129.6"/>
      </g>
     </g>
     <g id="text_11">
      <!-- $\mathdefault{10^{0}}$ -->
      <g transform="translate(37.28 134.5925)scale(0.16 -0.16)">
       <use transform="translate(0.0 0.21875)" xlink:href="#BitstreamVeraSerif-Roman-31"/>
       <use transform="translate(63.623046875 0.21875)" xlink:href="#BitstreamVeraSerif-Roman-30"/>
       <use transform="translate(127.24609375 50.046875)scale(0.7)" xlink:href="#BitstreamVeraSerif-Roman-30"/>
      </g>
     </g>
    </g>
    <g id="ytick_5">
     <g id="line2d_35">
      <path clip-path="url(#p7ff5b81e1d)" d="
M72 43.2
L518.4 43.2" style="fill:none;opacity:0.3;stroke:#808080;stroke-dasharray:1.000000,3.000000;stroke-dashoffset:0.0;stroke-width:0.5;"/>
     </g>
     <g id="line2d_36">
      <g>
       <use style="stroke:#000000;stroke-width:0.5;" x="72.0" xlink:href="#m728421d6d4" y="43.2"/>
      </g>
     </g>
     <g id="line2d_37">
      <g>
       <use style="stroke:#000000;stroke-width:0.5;" x="518.4" xlink:href="#mcb0005524f" y="43.2"/>
      </g>
     </g>
     <g id="text_12">
      <!-- $\mathdefault{10^{3}}$ -->
      <g transform="translate(37.28 48.1925)scale(0.16 -0.16)">
       <use transform="translate(0.0 0.21875)" xlink:href="#BitstreamVeraSerif-Roman-31"/>
       <use transform="translate(63.623046875 0.21875)" xlink:href="#BitstreamVeraSerif-Roman-30"/>
       <use transform="translate(127.24609375 50.046875)scale(0.7)" xlink:href="#BitstreamVeraSerif-Roman-33"/>
      </g>
     </g>
    </g>
    <g id="ytick_6">
     <g id="line2d_38">
      <defs>
       <path d="
M0 0
L2 0" id="mf0c55a9a47" style="stroke:#000000;stroke-width:0.5;"/>
      </defs>
      <g>
       <use style="stroke:#000000;stroke-width:0.5;" x="72.0" xlink:href="#mf0c55a9a47" y="380.130336125"/>
      </g>
     </g>
     <g id="line2d_39">
      <defs>
       <path d="
M0 0
L-2 0" id="ma4f294b3af" style="stroke:#000000;stroke-width:0.5;"/>
      </defs>
      <g>
       <use style="stroke:#000000;stroke-width:0.5;" x="518.4" xlink:href="#ma4f294b3af" y="380.130336125"/>
      </g>
     </g>
    </g>
    <g id="ytick_7">
     <g id="line2d_40">
      <g>
       <use style="stroke:#000000;stroke-width:0.5;" x="72.0" xlink:href="#mf0c55a9a47" y="371.46067225"/>
      </g>
     </g>
     <g id="line2d_41">
      <g>
       <use style="stroke:#000000;stroke-width:0.5;" x="518.4" xlink:href="#ma4f294b3af" y="371.46067225"/>
      </g>
     </g>
    </g>
    <g id="ytick_8">
     <g id="line2d_42">
      <g>
       <use style="stroke:#000000;stroke-width:0.5;" x="72.0" xlink:href="#mf0c55a9a47" y="366.389243989"/>
      </g>
     </g>
     <g id="line2d_43">
      <g>
       <use style="stroke:#000000;stroke-width:0.5;" x="518.4" xlink:href="#ma4f294b3af" y="366.389243989"/>
      </g>
     </g>
    </g>
    <g id="ytick_9">
     <g id="line2d_44">
      <g>
       <use style="stroke:#000000;stroke-width:0.5;" x="72.0" xlink:href="#mf0c55a9a47" y="362.791008375"/>
      </g>
     </g>
     <g id="line2d_45">
      <g>
       <use style="stroke:#000000;stroke-width:0.5;" x="518.4" xlink:href="#ma4f294b3af" y="362.791008375"/>
      </g>
     </g>
    </g>
    <g id="ytick_10">
     <g id="line2d_46">
      <g>
       <use style="stroke:#000000;stroke-width:0.5;" x="72.0" xlink:href="#mf0c55a9a47" y="351.330336125"/>
      </g>
     </g>
     <g id="line2d_47">
      <g>
       <use style="stroke:#000000;stroke-width:0.5;" x="518.4" xlink:href="#ma4f294b3af" y="351.330336125"/>
      </g>
     </g>
    </g>
    <g id="ytick_11">
     <g id="line2d_48">
      <g>
       <use style="stroke:#000000;stroke-width:0.5;" x="72.0" xlink:href="#mf0c55a9a47" y="342.66067225"/>
      </g>
     </g>
     <g id="line2d_49">
      <g>
       <use style="stroke:#000000;stroke-width:0.5;" x="518.4" xlink:href="#ma4f294b3af" y="342.66067225"/>
      </g>
     </g>
    </g>
    <g id="ytick_12">
     <g id="line2d_50">
      <g>
       <use style="stroke:#000000;stroke-width:0.5;" x="72.0" xlink:href="#mf0c55a9a47" y="337.589243989"/>
      </g>
     </g>
     <g id="line2d_51">
      <g>
       <use style="stroke:#000000;stroke-width:0.5;" x="518.4" xlink:href="#ma4f294b3af" y="337.589243989"/>
      </g>
     </g>
    </g>
    <g id="ytick_13">
     <g id="line2d_52">
      <g>
       <use style="stroke:#000000;stroke-width:0.5;" x="72.0" xlink:href="#mf0c55a9a47" y="333.991008375"/>
      </g>
     </g>
     <g id="line2d_53">
      <g>
       <use style="stroke:#000000;stroke-width:0.5;" x="518.4" xlink:href="#ma4f294b3af" y="333.991008375"/>
      </g>
     </g>
    </g>
    <g id="ytick_14">
     <g id="line2d_54">
      <g>
       <use style="stroke:#000000;stroke-width:0.5;" x="72.0" xlink:href="#mf0c55a9a47" y="322.530336125"/>
      </g>
     </g>
     <g id="line2d_55">
      <g>
       <use style="stroke:#000000;stroke-width:0.5;" x="518.4" xlink:href="#ma4f294b3af" y="322.530336125"/>
      </g>
     </g>
    </g>
    <g id="ytick_15">
     <g id="line2d_56">
      <g>
       <use style="stroke:#000000;stroke-width:0.5;" x="72.0" xlink:href="#mf0c55a9a47" y="313.86067225"/>
      </g>
     </g>
     <g id="line2d_57">
      <g>
       <use style="stroke:#000000;stroke-width:0.5;" x="518.4" xlink:href="#ma4f294b3af" y="313.86067225"/>
      </g>
     </g>
    </g>
    <g id="ytick_16">
     <g id="line2d_58">
      <g>
       <use style="stroke:#000000;stroke-width:0.5;" x="72.0" xlink:href="#mf0c55a9a47" y="308.789243989"/>
      </g>
     </g>
     <g id="line2d_59">
      <g>
       <use style="stroke:#000000;stroke-width:0.5;" x="518.4" xlink:href="#ma4f294b3af" y="308.789243989"/>
      </g>
     </g>
    </g>
    <g id="ytick_17">
     <g id="line2d_60">
      <g>
       <use style="stroke:#000000;stroke-width:0.5;" x="72.0" xlink:href="#mf0c55a9a47" y="305.191008375"/>
      </g>
     </g>
     <g id="line2d_61">
      <g>
       <use style="stroke:#000000;stroke-width:0.5;" x="518.4" xlink:href="#ma4f294b3af" y="305.191008375"/>
      </g>
     </g>
    </g>
    <g id="ytick_18">
     <g id="line2d_62">
      <g>
       <use style="stroke:#000000;stroke-width:0.5;" x="72.0" xlink:href="#mf0c55a9a47" y="293.730336125"/>
      </g>
     </g>
     <g id="line2d_63">
      <g>
       <use style="stroke:#000000;stroke-width:0.5;" x="518.4" xlink:href="#ma4f294b3af" y="293.730336125"/>
      </g>
     </g>
    </g>
    <g id="ytick_19">
     <g id="line2d_64">
      <g>
       <use style="stroke:#000000;stroke-width:0.5;" x="72.0" xlink:href="#mf0c55a9a47" y="285.06067225"/>
      </g>
     </g>
     <g id="line2d_65">
      <g>
       <use style="stroke:#000000;stroke-width:0.5;" x="518.4" xlink:href="#ma4f294b3af" y="285.06067225"/>
      </g>
     </g>
    </g>
    <g id="ytick_20">
     <g id="line2d_66">
      <g>
       <use style="stroke:#000000;stroke-width:0.5;" x="72.0" xlink:href="#mf0c55a9a47" y="279.989243989"/>
      </g>
     </g>
     <g id="line2d_67">
      <g>
       <use style="stroke:#000000;stroke-width:0.5;" x="518.4" xlink:href="#ma4f294b3af" y="279.989243989"/>
      </g>
     </g>
    </g>
    <g id="ytick_21">
     <g id="line2d_68">
      <g>
       <use style="stroke:#000000;stroke-width:0.5;" x="72.0" xlink:href="#mf0c55a9a47" y="276.391008375"/>
      </g>
     </g>
     <g id="line2d_69">
      <g>
       <use style="stroke:#000000;stroke-width:0.5;" x="518.4" xlink:href="#ma4f294b3af" y="276.391008375"/>
      </g>
     </g>
    </g>
    <g id="ytick_22">
     <g id="line2d_70">
      <g>
       <use style="stroke:#000000;stroke-width:0.5;" x="72.0" xlink:href="#mf0c55a9a47" y="264.930336125"/>
      </g>
     </g>
     <g id="line2d_71">
      <g>
       <use style="stroke:#000000;stroke-width:0.5;" x="518.4" xlink:href="#ma4f294b3af" y="264.930336125"/>
      </g>
     </g>
    </g>
    <g id="ytick_23">
     <g id="line2d_72">
      <g>
       <use style="stroke:#000000;stroke-width:0.5;" x="72.0" xlink:href="#mf0c55a9a47" y="256.26067225"/>
      </g>
     </g>
     <g id="line2d_73">
      <g>
       <use style="stroke:#000000;stroke-width:0.5;" x="518.4" xlink:href="#ma4f294b3af" y="256.26067225"/>
      </g>
     </g>
    </g>
    <g id="ytick_24">
     <g id="line2d_74">
      <g>
       <use style="stroke:#000000;stroke-width:0.5;" x="72.0" xlink:href="#mf0c55a9a47" y="251.189243989"/>
      </g>
     </g>
     <g id="line2d_75">
      <g>
       <use style="stroke:#000000;stroke-width:0.5;" x="518.4" xlink:href="#ma4f294b3af" y="251.189243989"/>
      </g>
     </g>
    </g>
    <g id="ytick_25">
     <g id="line2d_76">
      <g>
       <use style="stroke:#000000;stroke-width:0.5;" x="72.0" xlink:href="#mf0c55a9a47" y="247.591008375"/>
      </g>
     </g>
     <g id="line2d_77">
      <g>
       <use style="stroke:#000000;stroke-width:0.5;" x="518.4" xlink:href="#ma4f294b3af" y="247.591008375"/>
      </g>
     </g>
    </g>
    <g id="ytick_26">
     <g id="line2d_78">
      <g>
       <use style="stroke:#000000;stroke-width:0.5;" x="72.0" xlink:href="#mf0c55a9a47" y="236.130336125"/>
      </g>
     </g>
     <g id="line2d_79">
      <g>
       <use style="stroke:#000000;stroke-width:0.5;" x="518.4" xlink:href="#ma4f294b3af" y="236.130336125"/>
      </g>
     </g>
    </g>
    <g id="ytick_27">
     <g id="line2d_80">
      <g>
       <use style="stroke:#000000;stroke-width:0.5;" x="72.0" xlink:href="#mf0c55a9a47" y="227.46067225"/>
      </g>
     </g>
     <g id="line2d_81">
      <g>
       <use style="stroke:#000000;stroke-width:0.5;" x="518.4" xlink:href="#ma4f294b3af" y="227.46067225"/>
      </g>
     </g>
    </g>
    <g id="ytick_28">
     <g id="line2d_82">
      <g>
       <use style="stroke:#000000;stroke-width:0.5;" x="72.0" xlink:href="#mf0c55a9a47" y="222.389243989"/>
      </g>
     </g>
     <g id="line2d_83">
      <g>
       <use style="stroke:#000000;stroke-width:0.5;" x="518.4" xlink:href="#ma4f294b3af" y="222.389243989"/>
      </g>
     </g>
    </g>
    <g id="ytick_29">
     <g id="line2d_84">
      <g>
       <use style="stroke:#000000;stroke-width:0.5;" x="72.0" xlink:href="#mf0c55a9a47" y="218.791008375"/>
      </g>
     </g>
     <g id="line2d_85">
      <g>
       <use style="stroke:#000000;stroke-width:0.5;" x="518.4" xlink:href="#ma4f294b3af" y="218.791008375"/>
      </g>
     </g>
    </g>
    <g id="ytick_30">
     <g id="line2d_86">
      <g>
       <use style="stroke:#000000;stroke-width:0.5;" x="72.0" xlink:href="#mf0c55a9a47" y="207.330336125"/>
      </g>
     </g>
     <g id="line2d_87">
      <g>
       <use style="stroke:#000000;stroke-width:0.5;" x="518.4" xlink:href="#ma4f294b3af" y="207.330336125"/>
      </g>
     </g>
    </g>
    <g id="ytick_31">
     <g id="line2d_88">
      <g>
       <use style="stroke:#000000;stroke-width:0.5;" x="72.0" xlink:href="#mf0c55a9a47" y="198.66067225"/>
      </g>
     </g>
     <g id="line2d_89">
      <g>
       <use style="stroke:#000000;stroke-width:0.5;" x="518.4" xlink:href="#ma4f294b3af" y="198.66067225"/>
      </g>
     </g>
    </g>
    <g id="ytick_32">
     <g id="line2d_90">
      <g>
       <use style="stroke:#000000;stroke-width:0.5;" x="72.0" xlink:href="#mf0c55a9a47" y="193.589243989"/>
      </g>
     </g>
     <g id="line2d_91">
      <g>
       <use style="stroke:#000000;stroke-width:0.5;" x="518.4" xlink:href="#ma4f294b3af" y="193.589243989"/>
      </g>
     </g>
    </g>
    <g id="ytick_33">
     <g id="line2d_92">
      <g>
       <use style="stroke:#000000;stroke-width:0.5;" x="72.0" xlink:href="#mf0c55a9a47" y="189.991008375"/>
      </g>
     </g>
     <g id="line2d_93">
      <g>
       <use style="stroke:#000000;stroke-width:0.5;" x="518.4" xlink:href="#ma4f294b3af" y="189.991008375"/>
      </g>
     </g>
    </g>
    <g id="ytick_34">
     <g id="line2d_94">
      <g>
       <use style="stroke:#000000;stroke-width:0.5;" x="72.0" xlink:href="#mf0c55a9a47" y="178.530336125"/>
      </g>
     </g>
     <g id="line2d_95">
      <g>
       <use style="stroke:#000000;stroke-width:0.5;" x="518.4" xlink:href="#ma4f294b3af" y="178.530336125"/>
      </g>
     </g>
    </g>
    <g id="ytick_35">
     <g id="line2d_96">
      <g>
       <use style="stroke:#000000;stroke-width:0.5;" x="72.0" xlink:href="#mf0c55a9a47" y="169.86067225"/>
      </g>
     </g>
     <g id="line2d_97">
      <g>
       <use style="stroke:#000000;stroke-width:0.5;" x="518.4" xlink:href="#ma4f294b3af" y="169.86067225"/>
      </g>
     </g>
    </g>
    <g id="ytick_36">
     <g id="line2d_98">
      <g>
       <use style="stroke:#000000;stroke-width:0.5;" x="72.0" xlink:href="#mf0c55a9a47" y="164.789243989"/>
      </g>
     </g>
     <g id="line2d_99">
      <g>
       <use style="stroke:#000000;stroke-width:0.5;" x="518.4" xlink:href="#ma4f294b3af" y="164.789243989"/>
      </g>
     </g>
    </g>
    <g id="ytick_37">
     <g id="line2d_100">
      <g>
       <use style="stroke:#000000;stroke-width:0.5;" x="72.0" xlink:href="#mf0c55a9a47" y="161.191008375"/>
      </g>
     </g>
     <g id="line2d_101">
      <g>
       <use style="stroke:#000000;stroke-width:0.5;" x="518.4" xlink:href="#ma4f294b3af" y="161.191008375"/>
      </g>
     </g>
    </g>
    <g id="ytick_38">
     <g id="line2d_102">
      <g>
       <use style="stroke:#000000;stroke-width:0.5;" x="72.0" xlink:href="#mf0c55a9a47" y="149.730336125"/>
      </g>
     </g>
     <g id="line2d_103">
      <g>
       <use style="stroke:#000000;stroke-width:0.5;" x="518.4" xlink:href="#ma4f294b3af" y="149.730336125"/>
      </g>
     </g>
    </g>
    <g id="ytick_39">
     <g id="line2d_104">
      <g>
       <use style="stroke:#000000;stroke-width:0.5;" x="72.0" xlink:href="#mf0c55a9a47" y="141.06067225"/>
      </g>
     </g>
     <g id="line2d_105">
      <g>
       <use style="stroke:#000000;stroke-width:0.5;" x="518.4" xlink:href="#ma4f294b3af" y="141.06067225"/>
      </g>
     </g>
    </g>
    <g id="ytick_40">
     <g id="line2d_106">
      <g>
       <use style="stroke:#000000;stroke-width:0.5;" x="72.0" xlink:href="#mf0c55a9a47" y="135.989243989"/>
      </g>
     </g>
     <g id="line2d_107">
      <g>
       <use style="stroke:#000000;stroke-width:0.5;" x="518.4" xlink:href="#ma4f294b3af" y="135.989243989"/>
      </g>
     </g>
    </g>
    <g id="ytick_41">
     <g id="line2d_108">
      <g>
       <use style="stroke:#000000;stroke-width:0.5;" x="72.0" xlink:href="#mf0c55a9a47" y="132.391008375"/>
      </g>
     </g>
     <g id="line2d_109">
      <g>
       <use style="stroke:#000000;stroke-width:0.5;" x="518.4" xlink:href="#ma4f294b3af" y="132.391008375"/>
      </g>
     </g>
    </g>
    <g id="ytick_42">
     <g id="line2d_110">
      <g>
       <use style="stroke:#000000;stroke-width:0.5;" x="72.0" xlink:href="#mf0c55a9a47" y="120.930336125"/>
      </g>
     </g>
     <g id="line2d_111">
      <g>
       <use style="stroke:#000000;stroke-width:0.5;" x="518.4" xlink:href="#ma4f294b3af" y="120.930336125"/>
      </g>
     </g>
    </g>
    <g id="ytick_43">
     <g id="line2d_112">
      <g>
       <use style="stroke:#000000;stroke-width:0.5;" x="72.0" xlink:href="#mf0c55a9a47" y="112.26067225"/>
      </g>
     </g>
     <g id="line2d_113">
      <g>
       <use style="stroke:#000000;stroke-width:0.5;" x="518.4" xlink:href="#ma4f294b3af" y="112.26067225"/>
      </g>
     </g>
    </g>
    <g id="ytick_44">
     <g id="line2d_114">
      <g>
       <use style="stroke:#000000;stroke-width:0.5;" x="72.0" xlink:href="#mf0c55a9a47" y="107.189243989"/>
      </g>
     </g>
     <g id="line2d_115">
      <g>
       <use style="stroke:#000000;stroke-width:0.5;" x="518.4" xlink:href="#ma4f294b3af" y="107.189243989"/>
      </g>
     </g>
    </g>
    <g id="ytick_45">
     <g id="line2d_116">
      <g>
       <use style="stroke:#000000;stroke-width:0.5;" x="72.0" xlink:href="#mf0c55a9a47" y="103.591008375"/>
      </g>
     </g>
     <g id="line2d_117">
      <g>
       <use style="stroke:#000000;stroke-width:0.5;" x="518.4" xlink:href="#ma4f294b3af" y="103.591008375"/>
      </g>
     </g>
    </g>
    <g id="ytick_46">
     <g id="line2d_118">
      <g>
       <use style="stroke:#000000;stroke-width:0.5;" x="72.0" xlink:href="#mf0c55a9a47" y="92.1303361249"/>
      </g>
     </g>
     <g id="line2d_119">
      <g>
       <use style="stroke:#000000;stroke-width:0.5;" x="518.4" xlink:href="#ma4f294b3af" y="92.1303361249"/>
      </g>
     </g>
    </g>
    <g id="ytick_47">
     <g id="line2d_120">
      <g>
       <use style="stroke:#000000;stroke-width:0.5;" x="72.0" xlink:href="#mf0c55a9a47" y="83.4606722498"/>
      </g>
     </g>
     <g id="line2d_121">
      <g>
       <use style="stroke:#000000;stroke-width:0.5;" x="518.4" xlink:href="#ma4f294b3af" y="83.4606722498"/>
      </g>
     </g>
    </g>
    <g id="ytick_48">
     <g id="line2d_122">
      <g>
       <use style="stroke:#000000;stroke-width:0.5;" x="72.0" xlink:href="#mf0c55a9a47" y="78.389243989"/>
      </g>
     </g>
     <g id="line2d_123">
      <g>
       <use style="stroke:#000000;stroke-width:0.5;" x="518.4" xlink:href="#ma4f294b3af" y="78.389243989"/>
      </g>
     </g>
    </g>
    <g id="ytick_49">
     <g id="line2d_124">
      <g>
       <use style="stroke:#000000;stroke-width:0.5;" x="72.0" xlink:href="#mf0c55a9a47" y="74.7910083746"/>
      </g>
     </g>
     <g id="line2d_125">
      <g>
       <use style="stroke:#000000;stroke-width:0.5;" x="518.4" xlink:href="#ma4f294b3af" y="74.7910083746"/>
      </g>
     </g>
    </g>
    <g id="ytick_50">
     <g id="line2d_126">
      <g>
       <use style="stroke:#000000;stroke-width:0.5;" x="72.0" xlink:href="#mf0c55a9a47" y="63.3303361249"/>
      </g>
     </g>
     <g id="line2d_127">
      <g>
       <use style="stroke:#000000;stroke-width:0.5;" x="518.4" xlink:href="#ma4f294b3af" y="63.3303361249"/>
      </g>
     </g>
    </g>
    <g id="ytick_51">
     <g id="line2d_128">
      <g>
       <use style="stroke:#000000;stroke-width:0.5;" x="72.0" xlink:href="#mf0c55a9a47" y="54.6606722498"/>
      </g>
     </g>
     <g id="line2d_129">
      <g>
       <use style="stroke:#000000;stroke-width:0.5;" x="518.4" xlink:href="#ma4f294b3af" y="54.6606722498"/>
      </g>
     </g>
    </g>
    <g id="ytick_52">
     <g id="line2d_130">
      <g>
       <use style="stroke:#000000;stroke-width:0.5;" x="72.0" xlink:href="#mf0c55a9a47" y="49.589243989"/>
      </g>
     </g>
     <g id="line2d_131">
      <g>
       <use style="stroke:#000000;stroke-width:0.5;" x="518.4" xlink:href="#ma4f294b3af" y="49.589243989"/>
      </g>
     </g>
    </g>
    <g id="ytick_53">
     <g id="line2d_132">
      <g>
       <use style="stroke:#000000;stroke-width:0.5;" x="72.0" xlink:href="#mf0c55a9a47" y="45.9910083746"/>
      </g>
     </g>
     <g id="line2d_133">
      <g>
       <use style="stroke:#000000;stroke-width:0.5;" x="518.4" xlink:href="#ma4f294b3af" y="45.9910083746"/>
      </g>
     </g>
    </g>
    <g id="text_13">
     <!-- $u_N/\hat{f}_0$ -->
     <defs>
      <path d="
M13.4844 53.8125
L11.5312 55.9062
L25 69.3906
L38.375 55.9062
L36.375 53.8125
L25 63.8125
z
" id="Cmr10-5e"/>
      <path d="
M4.6875 0
Q3.71875 0 3.71875 1.3125
Q3.76562 1.5625 3.90625 2.17188
Q4.04688 2.78125 4.3125 3.14062
Q4.59375 3.51562 4.98438 3.51562
Q14.5469 3.51562 16.1094 9.625
L29.6875 64.3125
Q26.9062 64.7969 20.9062 64.7969
Q19.9219 64.7969 19.9219 66.1094
Q19.9688 66.3594 20.1094 66.9688
Q20.2656 67.5781 20.5312 67.9375
Q20.7969 68.3125 21.1875 68.3125
L38.4844 68.3125
Q39.2031 68.3125 39.4062 67.6719
L61.625 14.7969
L72.7031 59.0781
Q72.9062 60.1562 72.9062 60.5938
Q72.9062 64.7969 65.1875 64.7969
Q64.2031 64.7969 64.2031 66.1094
Q64.5469 67.3906 64.7344 67.8438
Q64.9375 68.3125 65.9219 68.3125
L87.3125 68.3125
Q88.2812 68.3125 88.2812 67
Q88.2344 66.75 88.0781 66.1406
Q87.9375 65.5312 87.6719 65.1562
Q87.4062 64.7969 87.0156 64.7969
Q77.4375 64.7969 75.875 58.6875
L61.5312 0.875
Q61.1875 0 60.5 0
L59.2812 0
Q58.5938 0 58.4062 0.6875
L32.9062 61.1875
L32.7188 61.8125
Q32.5156 62.0156 32.5156 62.1094
L19.2812 9.1875
Q19.1875 8.9375 19.1406 8.5625
Q19.0938 8.20312 19 7.71875
Q19 5.125 21.2344 4.3125
Q23.4844 3.51562 26.8125 3.51562
Q27.7812 3.51562 27.7812 2.20312
Q27.4375 0.828125 27.1875 0.40625
Q26.9531 0 26.125 0
z
" id="Cmmi10-4e"/>
      <path d="
M25 -2.20312
Q12.75 -2.20312 8.32812 7.875
Q3.90625 17.9688 3.90625 31.8906
Q3.90625 40.5781 5.48438 48.2344
Q7.07812 55.9062 11.7812 61.25
Q16.5 66.6094 25 66.6094
Q31.5938 66.6094 35.7812 63.375
Q39.9844 60.1562 42.1875 55.0469
Q44.3906 49.9531 45.1875 44.1094
Q46 38.2812 46 31.8906
Q46 23.2969 44.4062 15.7969
Q42.8281 8.29688 38.1875 3.04688
Q33.5469 -2.20312 25 -2.20312
M25 0.390625
Q30.5625 0.390625 33.2969 6.09375
Q36.0312 11.8125 36.6719 18.75
Q37.3125 25.6875 37.3125 33.5
Q37.3125 41.0156 36.6719 47.3594
Q36.0312 53.7188 33.3125 58.8594
Q30.6094 64.0156 25 64.0156
Q19.3438 64.0156 16.6094 58.8281
Q13.875 53.6562 13.2344 47.3281
Q12.5938 41.0156 12.5938 33.5
Q12.5938 27.9375 12.8594 23
Q13.1406 18.0625 14.3125 12.8125
Q15.4844 7.5625 18.0938 3.96875
Q20.7031 0.390625 25 0.390625" id="Cmr10-30"/>
      <path d="
M10.5938 10.8906
Q10.5938 14.1562 11.4688 17.5938
Q12.3594 21.0469 13.9375 25.2656
Q15.5312 29.5 16.7031 32.625
Q18.0156 36.2812 18.0156 38.625
Q18.0156 41.6094 15.8281 41.6094
Q11.8594 41.6094 9.29688 37.5312
Q6.73438 33.4531 5.51562 28.4219
Q5.32812 27.7812 4.6875 27.7812
L3.51562 27.7812
Q2.6875 27.7812 2.6875 28.7188
L2.6875 29
Q4.29688 34.9688 7.60938 39.5781
Q10.9375 44.1875 16.0156 44.1875
Q19.5781 44.1875 22.0469 41.8438
Q24.5156 39.5 24.5156 35.8906
Q24.5156 34.0312 23.6875 31.9844
Q23.25 30.7656 21.6875 26.6562
Q20.125 22.5625 19.2812 19.875
Q18.4531 17.1875 17.9219 14.5938
Q17.3906 12.0156 17.3906 9.42188
Q17.3906 6.10938 18.7969 3.8125
Q20.2188 1.51562 23.3906 1.51562
Q29.7812 1.51562 34.625 9.42188
Q34.7188 9.8125 34.7812 10.1719
Q34.8594 10.5469 34.9062 10.8906
L42.0938 39.8906
Q42.4375 41.2188 43.6562 42.1562
Q44.875 43.1094 46.2969 43.1094
Q47.5156 43.1094 48.4062 42.3281
Q49.3125 41.5469 49.3125 40.2812
Q49.3125 39.7031 49.2188 39.5
L42 10.6875
Q41.3125 7.71875 41.3125 5.8125
Q41.3125 1.51562 44.1875 1.51562
Q47.4062 1.51562 49 5.48438
Q50.5938 9.46875 51.7031 14.7031
Q51.9062 15.2812 52.4844 15.2812
L53.7188 15.2812
Q54.1094 15.2812 54.3438 14.9375
Q54.5938 14.5938 54.5938 14.3125
Q53.5156 10.0156 52.5156 6.9375
Q51.5156 3.85938 49.3594 1.35938
Q47.2188 -1.125 44 -1.125
Q40.8281 -1.125 38.3125 0.609375
Q35.7969 2.34375 34.9062 5.32812
Q32.625 2.39062 29.5938 0.625
Q26.5625 -1.125 23.1875 -1.125
Q17.4375 -1.125 14.0156 2.01562
Q10.5938 5.17188 10.5938 10.8906" id="Cmmi10-75"/>
      <path d="
M9.71875 -16.5
Q11.5781 -17.9219 14.2031 -17.9219
Q17.7812 -17.9219 20.0156 -10.0156
Q20.9531 -6.20312 25.0938 15.0938
L29.6875 39.5938
L21.0938 39.5938
Q20.125 39.5938 20.125 40.9219
Q20.5156 43.1094 21.3906 43.1094
L30.3281 43.1094
L31.5 49.6094
Q32.0781 52.6406 32.5625 54.8125
Q33.0625 56.9844 33.625 58.8281
Q34.1875 60.6875 35.2969 62.9844
Q37.0156 66.2656 39.9219 68.3906
Q42.8281 70.5156 46.1875 70.5156
Q48.3906 70.5156 50.4688 69.7031
Q52.5469 68.8906 53.8594 67.2812
Q55.1719 65.6719 55.1719 63.4844
Q55.1719 60.9375 53.4844 59.0469
Q51.8125 57.1719 49.4219 57.1719
Q47.7969 57.1719 46.6562 58.1719
Q45.5156 59.1875 45.5156 60.7969
Q45.5156 62.9844 47 64.625
Q48.4844 66.2656 50.6875 66.5
Q48.8281 67.9219 46.0938 67.9219
Q44.5781 67.9219 43.2344 66.5
Q41.8906 65.0938 41.5 63.4844
Q40.875 60.9375 38.7188 49.7031
L37.5 43.1094
L47.7969 43.1094
Q48.7812 43.1094 48.7812 41.7969
Q48.7344 41.5469 48.5781 40.9375
Q48.4375 40.3281 48.1719 39.9531
Q47.9062 39.5938 47.5156 39.5938
L36.8125 39.5938
L32.1719 15.1875
Q31.2969 9.85938 30.1406 4.35938
Q29 -1.125 26.9219 -6.90625
Q24.8594 -12.7031 21.625 -16.6094
Q18.4062 -20.5156 14.0156 -20.5156
Q10.6406 -20.5156 7.98438 -18.5781
Q5.32812 -16.6562 5.32812 -13.4844
Q5.32812 -10.9375 6.95312 -9.04688
Q8.59375 -7.17188 11.0781 -7.17188
Q12.75 -7.17188 13.8594 -8.17188
Q14.9844 -9.1875 14.9844 -10.7969
Q14.9844 -12.9375 13.3906 -14.7188
Q11.8125 -16.5 9.71875 -16.5" id="Cmmi10-66"/>
      <path d="
M5.60938 -23
Q5.60938 -22.7031 5.71875 -22.6094
L40.4844 73.7812
Q40.6719 74.3594 41.1562 74.6719
Q41.6562 75 42.2812 75
Q43.1719 75 43.7188 74.4531
Q44.2812 73.9219 44.2812 73
L44.2812 72.6094
L9.51562 -23.7812
Q8.9375 -25 7.625 -25
Q6.78125 -25 6.1875 -24.4062
Q5.60938 -23.8281 5.60938 -23" id="Cmmi10-3d"/>
     </defs>
     <g transform="translate(23.4 241.83)rotate(-90.0)scale(0.18 -0.18)">
      <use transform="translate(0.0 0.40625)" xlink:href="#Cmmi10-75"/>
      <use transform="translate(57.177734375 -25.103125)scale(0.7)" xlink:href="#Cmmi10-4e"/>
      <use transform="translate(137.5 0.40625)" xlink:href="#Cmmi10-3d"/>
      <use transform="translate(186.96875 29.609375)" xlink:href="#Cmr10-5e"/>
      <use transform="translate(187.5 0.40625)" xlink:href="#Cmmi10-66"/>
      <use transform="translate(236.376953125 -25.103125)scale(0.7)" xlink:href="#Cmr10-30"/>
     </g>
    </g>
   </g>
   <g id="patch_3">
    <path d="
M72 43.2
L518.4 43.2" style="fill:none;stroke:#000000;"/>
   </g>
   <g id="patch_4">
    <path d="
M518.4 388.8
L518.4 43.2" style="fill:none;stroke:#000000;"/>
   </g>
   <g id="patch_5">
    <path d="
M72 388.8
L518.4 388.8" style="fill:none;stroke:#000000;"/>
   </g>
   <g id="patch_6">
    <path d="
M72 388.8
L72 43.2" style="fill:none;stroke:#000000;"/>
   </g>
   <g id="legend_1">
    <g id="patch_7">
     <path d="
M81.6 379.2
L205.827 379.2
L205.827 260.712
L81.6 260.712
L81.6 379.2
z
" style="fill:#ffffff;stroke:#000000;"/>
    </g>
    <g id="line2d_134">
     <path d="
M95.04 276.261
L121.92 276.261" style="fill:none;stroke:#0000ff;stroke-linecap:square;"/>
    </g>
    <g id="line2d_135"/>
    <g id="text_14">
     <!-- N=1 -->
     <defs>
      <path d="
M4.89062 0
L4.89062 5.17188
L14.7031 5.17188
L14.7031 67.6719
L4.89062 67.6719
L4.89062 72.9062
L23.5781 72.9062
L67.2812 15.375
L67.2812 67.6719
L57.5156 67.6719
L57.5156 72.9062
L83.1094 72.9062
L83.1094 67.6719
L73.2969 67.6719
L73.2969 -1.42188
L67.3906 -1.42188
L20.7031 60.0156
L20.7031 5.17188
L30.5156 5.17188
L30.5156 0
z
" id="BitstreamVeraSerif-Roman-4e"/>
      <path d="
M10.5938 45.2188
L73.1875 45.2188
L73.1875 37.4062
L10.5938 37.4062
z

M10.5938 25.2969
L73.1875 25.2969
L73.1875 17.4844
L10.5938 17.4844
z
" id="BitstreamVeraSerif-Roman-3d"/>
     </defs>
     <g transform="translate(143.04 282.981)scale(0.192 -0.192)">
      <use xlink:href="#BitstreamVeraSerif-Roman-4e"/>
      <use x="87.5" xlink:href="#BitstreamVeraSerif-Roman-3d"/>
      <use x="171.2890625" xlink:href="#BitstreamVeraSerif-Roman-31"/>
     </g>
    </g>
    <g id="line2d_136">
     <path d="
M95.04 304.443
L121.92 304.443" style="fill:none;stroke:#008000;stroke-linecap:square;"/>
    </g>
    <g id="line2d_137"/>
    <g id="text_15">
     <!-- N=5 -->
     <g transform="translate(143.04 311.163)scale(0.192 -0.192)">
      <use xlink:href="#BitstreamVeraSerif-Roman-4e"/>
      <use x="87.5" xlink:href="#BitstreamVeraSerif-Roman-3d"/>
      <use x="171.2890625" xlink:href="#BitstreamVeraSerif-Roman-35"/>
     </g>
    </g>
    <g id="line2d_138">
     <path d="
M95.04 332.625
L121.92 332.625" style="fill:none;stroke:#ff0000;stroke-linecap:square;"/>
    </g>
    <g id="line2d_139"/>
    <g id="text_16">
     <!-- N=10 -->
     <g transform="translate(143.04 339.345)scale(0.192 -0.192)">
      <use xlink:href="#BitstreamVeraSerif-Roman-4e"/>
      <use x="87.5" xlink:href="#BitstreamVeraSerif-Roman-3d"/>
      <use x="171.2890625" xlink:href="#BitstreamVeraSerif-Roman-31"/>
      <use x="234.912109375" xlink:href="#BitstreamVeraSerif-Roman-30"/>
     </g>
    </g>
    <g id="line2d_140">
     <path d="
M95.04 360.807
L121.92 360.807" style="fill:none;stroke:#00bfbf;stroke-linecap:square;"/>
    </g>
    <g id="line2d_141"/>
    <g id="text_17">
     <!-- N=50 -->
     <g transform="translate(143.04 367.527)scale(0.192 -0.192)">
      <use xlink:href="#BitstreamVeraSerif-Roman-4e"/>
      <use x="87.5" xlink:href="#BitstreamVeraSerif-Roman-3d"/>
      <use x="171.2890625" xlink:href="#BitstreamVeraSerif-Roman-35"/>
      <use x="234.912109375" xlink:href="#BitstreamVeraSerif-Roman-30"/>
     </g>
    </g>
   </g>
  </g>
 </g>
 <defs>
  <clipPath id="p7ff5b81e1d">
   <rect height="345.6" width="446.4" x="72.0" y="43.2"/>
  </clipPath>
 </defs>
</svg>
